<svg xmlns="http://www.w3.org/2000/svg" fill="none" viewBox="0 0 36 24"><rect width="36" height="24" fill="#F7931A" rx="6"></rect><path fill="#fff" fill-rule="evenodd" d="M26.128 12.065a8.064 8.064 0 1 1-16.129 0 8.064 8.064 0 0 1 16.13 0m-6.126-2.997c1.121.386 1.942.962 1.78 2.036-.116.786-.553 1.166-1.134 1.3.797.413 1.069 1.197.816 2.146-.48 1.366-1.619 1.48-3.134 1.195l-.368 1.468-.889-.22.363-1.449q-.345-.085-.708-.183l-.365 1.455-.887-.22.368-1.472-1.79-.45.441-1.013s.656.173.647.16c.251.063.363-.1.407-.21l.997-3.983c.011-.188-.054-.425-.414-.515.014-.01-.645-.16-.645-.16l.236-.945 1.792.442.365-1.454.887.22-.356 1.426c.238.054.478.11.712.167l.354-1.416.889.22zm-2.126 2.426c.605.16 1.922.51 2.151-.406.235-.936-1.045-1.22-1.671-1.358l-.185-.042-.442 1.768zm-.686 2.846c.725.191 2.31.609 2.563-.4.258-1.031-1.28-1.375-2.03-1.542l-.218-.05-.488 1.948z" clip-rule="evenodd"></path></svg>