<svg xmlns="http://www.w3.org/2000/svg" fill="none" viewBox="0 0 36 24"><g clip-path="url(#Blik_svg__a)"><path fill="url(#Blik_svg__b)" d="M0 9.172C0 6.531 0 5.21.45 3.789A5.59 5.59 0 0 1 3.788.449C5.21 0 6.531 0 9.172 0h17.656c2.641 0 3.962 0 5.383.45a5.59 5.59 0 0 1 3.34 3.339C36 5.21 36 6.531 36 9.172v5.656c0 2.641 0 3.962-.45 5.383a5.59 5.59 0 0 1-3.339 3.34C30.79 24 29.469 24 26.828 24H9.172c-2.641 0-3.962 0-5.383-.45a5.59 5.59 0 0 1-3.34-3.339C0 18.79 0 17.469 0 14.828z"></path><path fill="url(#Blik_svg__c)" d="M13.817 8.067a1.848 1.848 0 1 0-3.695-.024 1.848 1.848 0 0 0 3.695.024"></path><path fill="#fff" d="M8.047 11.231a3.919 3.919 0 0 1 4.622 6.224 3.918 3.918 0 0 1-6.688-2.772V6.8h2.066zm9.287 7.288h-2.066V6.798h2.066zm3.898 0h-2.065v-7.676h2.065zM25.13 6.801v7.611l2.846-3.57h2.412l-2.897 3.548 3.195 4.127h-2.66l-2.897-4.095v4.095h-2.065V6.803zm-14.508 6.14a1.89 1.89 0 0 0-2.055.409 1.885 1.885 0 1 0 2.055-.41"></path></g><defs><linearGradient id="Blik_svg__b" x1="18" x2="18" y1="23.832" y2="0.096" gradientUnits="userSpaceOnUse"><stop stop-color="#5a5a5a"></stop><stop offset="0.146" stop-color="#484848"></stop><stop offset="0.52" stop-color="#212121"></stop><stop offset="0.817" stop-color="#080808"></stop><stop offset="1"></stop></linearGradient><linearGradient id="Blik_svg__c" x1="10.653" x2="13.286" y1="9.351" y2="6.755" gradientUnits="userSpaceOnUse"><stop stop-color="#e52f08"></stop><stop offset="1" stop-color="#e94f96"></stop></linearGradient><clipPath id="Blik_svg__a"><path fill="#fff" d="M0 0h36v24H0z"></path></clipPath></defs></svg>