<svg xmlns="http://www.w3.org/2000/svg" fill="none" viewBox="0 0 36 24"><rect width="36" height="24" fill="#3DBFF5" rx="6"></rect><rect width="36" height="24" fill="url(#CartesBancairesDark_svg__a)" rx="6"></rect><rect width="36" height="24" fill="url(#CartesBancairesDark_svg__b)" rx="6"></rect><path fill="#fff" d="M19.08 6.981h6.61a2.31 2.31 0 1 1 0 4.62h-6.61zm0 5.143h6.61a2.31 2.31 0 0 1 0 4.62h-6.61zm-5.76 0V11.6h5.32a5.15 5.15 0 0 0-5.32-4.619A5.115 5.115 0 0 0 8 11.862a5.115 5.115 0 0 0 5.32 4.881 5.15 5.15 0 0 0 5.32-4.619z"></path><defs><radialGradient id="CartesBancairesDark_svg__a" cx="0" cy="0" r="1" gradientTransform="matrix(3649.14 0 0 3648.96 133.292 2335.75)" gradientUnits="userSpaceOnUse"><stop offset="0.09" stop-color="#009245"></stop><stop offset="0.23" stop-color="#049552" stop-opacity="0.89"></stop><stop offset="0.52" stop-color="#0D9E74" stop-opacity="0.59"></stop><stop offset="0.91" stop-color="#1BACAB" stop-opacity="0.12"></stop><stop offset="1" stop-color="#1FB0B8" stop-opacity="0"></stop></radialGradient><radialGradient id="CartesBancairesDark_svg__b" cx="0" cy="0" r="1" gradientTransform="matrix(4681.46 0 0 4681.22 534.13 2541.41)" gradientUnits="userSpaceOnUse"><stop offset="0.15" stop-color="#1FB0B8" stop-opacity="0"></stop><stop offset="0.35" stop-color="#1C7491" stop-opacity="0.4"></stop><stop offset="0.56" stop-color="#1A4471" stop-opacity="0.73"></stop><stop offset="0.74" stop-color="#18265E" stop-opacity="0.93"></stop><stop offset="0.87" stop-color="#363975"></stop></radialGradient></defs></svg>