<svg xmlns="http://www.w3.org/2000/svg" fill="none" viewBox="0 0 36 24"><rect width="36" height="24" fill="url(#Discover_svg__a)" rx="6"></rect><rect width="35.5" height="23.5" x="0.25" y="0.25" stroke="#949497" stroke-opacity="0.5" stroke-width="0.5" rx="5.75"></rect><path fill="#231F20" d="M6.221 10.106h-1.22v4.278h1.22a2.3 2.3 0 0 0 1.529-.494 2.15 2.15 0 0 0 .767-1.642 2.115 2.115 0 0 0-2.296-2.142m.975 3.21a1.55 1.55 0 0 1-1.141.367h-.22V10.82h.22c.41-.039.82.086 1.14.347a1.455 1.455 0 0 1 0 2.149m2.542-3.217h-.834v4.284h.834zm2.05 1.643c-.501-.18-.668-.307-.668-.534s.26-.48.62-.48a.89.89 0 0 1 .668.346l.434-.567a1.84 1.84 0 0 0-1.255-.48 1.254 1.254 0 0 0-1.334 1.228c0 .593.267.894 1.047 1.174q.302.096.58.247c.158.09.255.259.255.44a.614.614 0 0 1-.668.608.99.99 0 0 1-.907-.574l-.54.52c.315.534.901.848 1.52.814a1.374 1.374 0 0 0 1.469-1.401c0-.68-.274-.994-1.221-1.341m1.494.5a2.215 2.215 0 0 0 2.262 2.236 2.3 2.3 0 0 0 1.048-.247v-.981c-.252.294-.62.465-1.007.467a1.41 1.41 0 0 1-1.442-1.482 1.42 1.42 0 0 1 1.402-1.468c.402.002.784.177 1.047.48v-.98A2.1 2.1 0 0 0 15.563 10a2.256 2.256 0 0 0-2.282 2.242m9.938.733-1.148-2.876h-.908l1.816 4.39h.447l1.855-4.39h-.908zm2.435 1.408h2.376v-.727h-1.542V12.5h1.482v-.727h-1.482v-.948h1.542V10.1h-2.376zm4.705-1.801a1.147 1.147 0 0 0 .974-1.221c0-.794-.554-1.255-1.515-1.255h-1.234v4.278h.834v-1.722h.1l1.161 1.722h1.015zm-.668-.514h-.246v-1.294h.247c.513 0 .794.213.794.667s-.294.627-.794.627"></path><path fill="#EE7623" d="M21.41 12.242a2.276 2.276 0 1 1-2.276-2.276 2.28 2.28 0 0 1 2.276 2.276"></path><path fill="#231F20" d="M31.693 10.286a.1.1 0 0 0 .073-.107q0-.111-.14-.113H31.5v.387h.087v-.16l.12.16h.1zm-.08-.053v-.094c.04 0 .067 0 .067.04s.013.053-.054.053z"></path><path fill="#231F20" d="M31.653 9.926a.327.327 0 0 0-.32.334.334.334 0 0 0 .667 0 .327.327 0 0 0-.347-.334m.167.528a.22.22 0 0 1-.167.073.26.26 0 0 1-.26-.267.267.267 0 0 1 .26-.274.26.26 0 0 1 .254.274.26.26 0 0 1-.087.194"></path><defs><linearGradient id="Discover_svg__a" x1="36" x2="0.655" y1="24" y2="-0.929" gradientUnits="userSpaceOnUse"><stop stop-color="#949497" stop-opacity="0.12"></stop><stop offset="1" stop-color="#949497" stop-opacity="0.04"></stop></linearGradient></defs></svg>