<svg xmlns="http://www.w3.org/2000/svg" fill="none" viewBox="0 0 36 24"><rect width="36" height="24" fill="#FEB4C7" rx="6"></rect><path fill="#17120F" fill-rule="evenodd" d="M5.424 15.38H4V9h1.424zM8.98 9H7.586a3.7 3.7 0 0 1-1.44 2.957l-.552.425 2.139 2.998H9.49l-1.968-2.76A5.15 5.15 0 0 0 8.98 9m2.271 6.378H9.906V9h1.345zm4.064-4.411v.282a2.2 2.2 0 0 0-1.274-.404c-1.25 0-2.264 1.042-2.264 2.327 0 1.286 1.014 2.328 2.265 2.328.472 0 .91-.15 1.273-.404v.282h1.284v-4.411zm-.004 2.206c0 .626-.521 1.134-1.164 1.134s-1.164-.508-1.164-1.134c0-.627.521-1.135 1.164-1.135s1.164.508 1.164 1.135m13.556-1.924v-.282h1.285v4.41h-1.285v-.281a2.2 2.2 0 0 1-1.273.404c-1.25 0-2.264-1.042-2.264-2.328s1.013-2.327 2.264-2.327c.472 0 .91.15 1.273.404M27.7 14.307c.643 0 1.164-.508 1.164-1.134 0-.627-.521-1.135-1.164-1.135s-1.164.508-1.164 1.135c0 .626.521 1.134 1.164 1.134m-4.652-3.459c-.513 0-.999.164-1.323.616v-.497h-1.28v4.411h1.295V13.06c0-.67.438-1 .964-1 .565 0 .89.348.89.99v2.328h1.283v-2.805c0-1.027-.794-1.725-1.829-1.725m-4.46.119v.574c.257-.344.737-.574 1.259-.574v1.284h-.016c-.508 0-1.24.373-1.24 1.067v2.06H17.27v-4.411zm12.122 3.675c0-.458.361-.829.806-.829s.806.371.806.829-.36.829-.806.829a.82.82 0 0 1-.806-.829" clip-rule="evenodd"></path></svg>