<svg xmlns="http://www.w3.org/2000/svg" fill="none" viewBox="0 0 36 24"><rect width="36" height="24" fill="url(#P24Dark_svg__a)" rx="6"></rect><rect width="35.5" height="23.5" x="0.25" y="0.25" stroke="#949497" stroke-opacity="0.6" stroke-width="0.5" rx="5.75"></rect><path fill="#B7BEC4" fill-rule="evenodd" d="m19.93 16.881-.132.608H14.25l.26-1.2q.218-1.012.76-1.325.541-.313 2.356-.48 1.45-.131 1.794-.356t.548-1.163q.18-.824-.099-1.069-.277-.245-1.389-.245-1.387 0-1.794.199-.409.197-.57.956l-.093.476h-.852l.078-.331q.248-1.146.914-1.527t2.422-.381q1.557.001 2.005.41.445.413.187 1.605-.247 1.145-.828 1.53-.584.386-2.283.522-1.494.12-1.822.336-.33.216-.546 1.22l-.046.215zm7.296-5.761-.931 4.3h1.152l-.132.608h-1.15l-.321 1.472h-.866l.318-1.472h-4.309l.182-.846 4.714-4.062zm-1.8 4.3.83-3.837h-.016l-4.408 3.836zM12.197 8.7l-.856-.498a20.4 20.4 0 0 1 3.146-1.03l.157.68c-.838.211-1.656.495-2.446.849zm9.715-.373a10 10 0 0 0-2.53-.745l.69-1.082h.019c2 .008 3.589.23 4.84.536L21.91 8.33zm-11.348.224.875.52q-.6.302-1.221.673h-1.7s.702-.548 2.044-1.193zm8.482-2.014-.41.96a11.9 11.9 0 0 0-3.398.196l-.116-.687a23 23 0 0 1 3.923-.47zm7.48.97C28.335 8.205 29 9 29 9h-5.856s-.192-.147-.557-.352z" clip-rule="evenodd"></path><path fill="#D13239" fill-rule="evenodd" d="m7 17.476 1.402-6.434h3.611q1.335 0 1.73.42.392.42.143 1.57-.24 1.104-.834 1.503-.592.4-1.985.4l-.348.005H8.444l-.555 2.536zm1.576-3.147h2.109q1.323 0 1.744-.222.423-.222.594-1.018.204-.934.007-1.182-.198-.248-1.14-.248l-.34-.004H9.158z" clip-rule="evenodd"></path><defs><linearGradient id="P24Dark_svg__a" x1="36" x2="0.655" y1="24" y2="-0.929" gradientUnits="userSpaceOnUse"><stop stop-color="#949497" stop-opacity="0.12"></stop><stop offset="1" stop-color="#949497" stop-opacity="0.04"></stop></linearGradient></defs></svg>