<svg xmlns="http://www.w3.org/2000/svg" fill="none" viewBox="0 0 36 24"><rect width="36" height="24" fill="#7C2279" rx="6"></rect><path fill="#fff" d="M19.266 12.26c-.246-.239-.323-.233-.531.043l-1.627 2.183c-.162.219-.178.219-.356 0-.238-.29-.473-.583-.714-.87-.14-.164-.23-.161-.361.003-.09.11-.172.227-.257.342-.178.24-.178.3.008.53q.64.788 1.28 1.57c.235.288.304.288.52-.005q.84-1.14 1.685-2.281c.046-.063.117-.104.178-.159.049.068.123.129.147.205.315.963.137 1.836-.577 2.552-.714.717-1.594.917-2.557.58a2.426 2.426 0 0 1-1.538-3.009 2.455 2.455 0 0 1 3.004-1.64c.558.15.465.22.889-.37a.1.1 0 0 0 .022-.038c.038-.135.136-.17.26-.16.2.02.262-.076.26-.264q-.006-.72.016-1.44a.9.9 0 0 1 .104-.38c.437-.776.886-1.548 1.332-2.322.038-.068.074-.14.145-.273-.405 0-.755.005-1.105-.003-.156-.003-.25.052-.315.197-.2.435-.41.867-.62 1.3-.028.054-.08.1-.121.15-.047-.052-.107-.096-.137-.156-.202-.427-.396-.86-.604-1.283-.041-.085-.134-.2-.206-.205-.38-.022-.763-.011-1.203-.011.057.117.087.191.126.262l1.29 2.295c.05.09.11.192.113.288.008.454.003.902 0 1.354 0 .139-.074.18-.205.153-.14-.028-.285-.069-.424-.058-.244.017-.364-.085-.446-.309-.421-1.124-.853-2.243-1.283-3.362-.3-.78-.167-.618-.914-.634-.369-.008-.372.003-.505.342q-.751 1.903-1.505 3.807c-.205.52-.265.517.34.515.626 0 .628.002.86-.57.053-.128.127-.188.269-.185.443.005.889.01 1.332.005.315-.005.279.265.358.44.074.167-.093.192-.194.239-1.362.64-2.169 2.054-1.885 3.637.28 1.565 1.57 2.657 3.149 2.73a3.34 3.34 0 0 0 3.255-2.018 3.36 3.36 0 0 0-.752-3.718m-4.23-2.293q-.36.016-.721 0c-.039-.003-.115-.096-.107-.126.137-.41.287-.818.435-1.225.003-.011.025-.014.09-.05.143.436.28.851.405 1.273.011.03-.063.128-.101.128"></path><path fill="#fff" d="M26.59 12.481c-.232-.002-.467.006-.7-.005-.174-.008-.273.052-.333.224-.284.799-.577 1.592-.87 2.388-.035.099-.087.192-.156.345-.06-.137-.098-.208-.126-.285-.084-.24-.177-.478-.238-.724a.85.85 0 0 1 0-.43c.137-.435.301-.864.46-1.291.066-.175.005-.238-.167-.235-.279 0-.558.002-.834-.006-.17-.005-.255.063-.306.227q-.392 1.256-.8 2.509c-.018.054-.07.1-.106.15-.036-.052-.085-.098-.104-.153q-.419-1.247-.826-2.498c-.057-.174-.148-.26-.342-.248-.254.01-.511-.003-.766 0-.213.002-.238.04-.158.243l1.466 3.87c.26.69.17.561.82.575.405.008.413-.006.556-.375.117-.312.243-.623.363-.935l.088-.008q.132.326.26.653c.325.835.104.64.99.684.189.008.29-.074.356-.243.191-.49.388-.974.588-1.461l1.1-2.661c.109-.271.084-.307-.214-.31m-13.648-.076c-.22.005-.438.01-.654-.003-.208-.014-.276.071-.276.274 0 .667-.011 1.335-.02 2.002 0 .082-.021.161-.035.243l-.06.011c-.044-.063-.093-.126-.134-.191-.443-.714-.89-1.425-1.33-2.142-.087-.145-.191-.213-.364-.208q-.405.011-.812-.003c-.161-.005-.232.058-.232.222q-.01 2.112-.026 4.229c0 .164.074.23.232.227.211-.006.422-.011.632.005.222.017.285-.07.285-.284-.003-.741.008-1.485.016-2.227 0-.079.022-.158.033-.24l.063-.011q.076.106.142.213.697 1.157 1.39 2.314c.074.123.142.244.323.24.279-.007.558-.002.834.003.145.003.202-.065.202-.205q.009-2.124.025-4.25c0-.17-.08-.225-.235-.22M9.3 11.683c.232-.011.468-.008.7.002.189.011.255-.068.255-.248-.003-.383.01-.766.005-1.147-.003-.18.063-.257.252-.251.276.01.558.014.834-.003.771-.046 1.365-.725 1.351-1.529-.014-.818-.637-1.483-1.414-1.493-.646-.011-1.294 0-1.94-.014-.199-.003-.262.074-.26.265.009.69.004 1.379.004 2.068h-.022c0 .698.005 1.395-.003 2.093-.008.183.046.265.238.257m.968-3.168c.014-.64-.087-.539.673-.539.419 0 .665.424.482.8a.5.5 0 0 1-.46.303h-.134c-.621-.009-.56.09-.56-.564"></path></svg>