<svg xmlns="http://www.w3.org/2000/svg" fill="none" viewBox="0 0 36 24"><g clip-path="url(#PixDark_svg__a)"><path fill="url(#PixDark_svg__b)" d="M0 9.172C0 6.531 0 5.21.45 3.789A5.59 5.59 0 0 1 3.788.449C5.21 0 6.531 0 9.172 0h17.656c2.641 0 3.962 0 5.383.45a5.59 5.59 0 0 1 3.34 3.339C36 5.21 36 6.531 36 9.172v5.656c0 2.641 0 3.962-.45 5.383a5.59 5.59 0 0 1-3.339 3.34C30.79 24 29.469 24 26.828 24H9.172c-2.641 0-3.962 0-5.383-.45a5.59 5.59 0 0 1-3.34-3.339C0 18.79 0 17.469 0 14.828z"></path><path stroke="#949497" stroke-opacity="0.6" stroke-width="0.5" d="M9.172.25h17.656c2.646 0 3.924.002 5.297.435h.001a5.34 5.34 0 0 1 3.19 3.189c.432 1.373.434 2.652.434 5.298v5.656c0 2.646-.002 3.925-.435 5.298a5.34 5.34 0 0 1-3.189 3.188c-1.374.433-2.651.436-5.298.436H9.172c-2.647 0-3.925-.003-5.299-.436A5.34 5.34 0 0 1 .793 20.4l-.108-.273C.252 18.753.25 17.474.25 14.828V9.172c0-2.646.002-3.925.435-5.298A5.34 5.34 0 0 1 3.6.793l.273-.108C5.247.252 6.526.25 9.172.25Z"></path><path fill="#fff" d="M18.501 8.604a2.087 2.087 0 0 1 2.083 2.086v1.144a2.09 2.09 0 0 1-2.09 2.09h-2.241a.3.3 0 0 1 0-.6h2.241a1.49 1.49 0 0 0 1.49-1.49V10.69c0-.82-.664-1.484-1.484-1.486l-1.586-.003a1.49 1.49 0 0 0-1.49 1.49v5.373a.3.3 0 0 1-.599 0V10.69a2.09 2.09 0 0 1 2.09-2.09zm3.415-.003c.571 0 1.034.463 1.034 1.034v4.013a.3.3 0 0 1-.6 0V9.635a.434.434 0 0 0-.434-.435h-.689a.3.3 0 1 1 0-.6zm3.236-.004c.43 0 .843.171 1.148.475l1.596 1.596c.09.09.235.09.325 0l1.59-1.59a1.63 1.63 0 0 1 1.147-.475h.556a.3.3 0 0 1 0 .6h-.556c-.271 0-.532.107-.724.299l-1.59 1.59a.8.8 0 0 1-.23.162.8.8 0 0 1 .23.163l1.59 1.59c.192.192.453.3.724.3h.556a.3.3 0 0 1 0 .6h-.556c-.43 0-.843-.172-1.147-.476l-1.59-1.59a.23.23 0 0 0-.325 0L26.3 13.437a1.62 1.62 0 0 1-1.148.475h-.682a.3.3 0 0 1 0-.6h.682c.272 0 .532-.107.724-.3l1.596-1.595a.8.8 0 0 1 .231-.163.8.8 0 0 1-.231-.162l-1.596-1.596a1.02 1.02 0 0 0-.724-.3h-.682a.3.3 0 0 1 0-.6z"></path><path fill="#32bcad" d="M8.497 12.948a.25.25 0 0 1 .344 0l1.309 1.31c.242.241.564.374.907.374h.157l-1.662 1.663a1.327 1.327 0 0 1-1.876 0l-1.658-1.658h.259c.342 0 .664-.133.906-.375zm-2.782-2.562h.562c.236 0 .467.096.633.263l1.315 1.314a.627.627 0 0 0 .889 0l1.31-1.31a.9.9 0 0 1 .633-.262h.457a.2.2 0 0 0 .071-.015l1.005 1.005a1.327 1.327 0 0 1 0 1.876l-1.005 1.005a.2.2 0 0 0-.071-.014h-.457a.9.9 0 0 1-.634-.263l-1.31-1.31a.644.644 0 0 0-.888 0L6.91 13.99a.9.9 0 0 1-.633.262h-.562a.2.2 0 0 0-.068.014l-1.01-1.009a1.327 1.327 0 0 1 0-1.876l1.01-1.008a.2.2 0 0 0 .068.013m1.961-2.043a1.327 1.327 0 0 1 1.876 0l1.662 1.663h-.157c-.343 0-.665.133-.907.375l-1.309 1.31a.243.243 0 0 1-.344 0l-1.314-1.315a1.27 1.27 0 0 0-.906-.375h-.26zm14.76-2.008a.29.29 0 0 1 .413 0l.459.458a.29.29 0 0 1 0 .413l-.46.459a.29.29 0 0 1-.411 0l-.46-.46a.29.29 0 0 1 0-.412z"></path></g><defs><linearGradient id="PixDark_svg__b" x1="36" x2="0.655" y1="24" y2="-0.929" gradientUnits="userSpaceOnUse"><stop stop-color="#949497" stop-opacity="0.12"></stop><stop offset="1" stop-color="#949497" stop-opacity="0.04"></stop></linearGradient><clipPath id="PixDark_svg__a"><path fill="#fff" d="M0 0h36v24H0z"></path></clipPath></defs></svg>