<svg xmlns="http://www.w3.org/2000/svg" fill="none" viewBox="0 0 36 24"><rect width="36" height="24" fill="#6461FC" rx="6"></rect><path fill="#fff" fill-rule="evenodd" d="m18.806 8.142-1.779.381V7.082l1.778-.374zm-7.226-.615-1.728.368-.007 5.66c0 1.045.786 1.816 1.835 1.816.58 0 1.005-.107 1.24-.234v-1.434c-.228.092-1.347.417-1.347-.629v-2.508h1.346V9.06h-1.346zm-4.186 2.947c-.375 0-.602.106-.602.381 0 .301.39.434.874.598.79.267 1.828.62 1.832 1.925 0 1.265-1.013 1.992-2.486 1.992a4.9 4.9 0 0 1-1.934-.402v-1.682c.595.325 1.346.565 1.934.565.396 0 .68-.106.68-.43 0-.334-.423-.486-.934-.67C5.981 12.47 5 12.117 5 10.94c0-1.252.956-2 2.394-2 .588 0 1.169.091 1.757.324v1.66a3.96 3.96 0 0 0-1.757-.451M27.943 8.94c1.679 0 2.557 1.428 2.557 3.237 0 .097-.005.26-.009.4l-.005.229h-3.464c.078.833.687 1.074 1.374 1.074.701 0 1.254-.149 1.736-.39v1.414c-.482.269-1.12.46-1.962.46-1.729 0-2.933-1.075-2.933-3.202 0-1.794 1.02-3.222 2.706-3.222m-.007 1.435c-.447 0-.935.332-.935 1.13h1.827c0-.798-.46-1.13-.892-1.13m-12.814-.792-.113-.522h-1.53v6.182h1.77v-4.19c.419-.544 1.127-.445 1.347-.367V9.06c-.227-.085-1.056-.24-1.474.522m1.905-.522h1.778v6.182h-1.778zm5.476-.12c-.694 0-1.14.324-1.389.55l-.092-.438h-1.558v8.24l1.77-.375.008-2c.255.184.63.445 1.254.445 1.268 0 2.422-1.017 2.422-3.257-.007-2.05-1.176-3.166-2.415-3.166m-.425 4.868c-.418 0-.666-.148-.836-.332l-.007-2.622c.184-.205.439-.346.843-.346.644 0 1.09.72 1.09 1.646 0 .947-.438 1.654-1.09 1.654" clip-rule="evenodd"></path></svg>