<svg xmlns="http://www.w3.org/2000/svg" fill="none" viewBox="0 0 36 24"><rect width="36" height="24" fill="url(#TwintDark_svg__a)" rx="6"></rect><rect width="35.5" height="23.5" x="0.25" y="0.25" stroke="#949497" stroke-opacity="0.6" stroke-width="0.5" rx="5.75"></rect><path fill="#fff" d="M12.052 14.307a.4.4 0 0 1-.185.317L8.26 16.691a.4.4 0 0 1-.37 0l-3.607-2.066a.41.41 0 0 1-.185-.318v-4.14c0-.116.084-.261.185-.317L7.89 7.783a.4.4 0 0 1 .37 0l3.607 2.067c.1.061.185.2.185.318zm19.85-3.915h-3.24v.755h1.159v3.238h.916v-3.238h1.165zm-14.715 0h-3.24v.755h1.164v3.238h.917v-3.238h1.159zm9.377-.126c-1.019 0-1.587.639-1.587 1.558v2.562h.906v-2.584c0-.402.242-.71.692-.71.444 0 .686.363.686.71v2.584h.906v-2.562c0-.92-.585-1.558-1.604-1.558m-3.425.126v3.993h.911v-3.993zm-3.071 1.586.034.177.849 2.23h.371l1.159-3.993h-.895l-.556 2.099-.029.225-.044-.225-.743-2.099h-.293l-.737 2.099-.044.225-.034-.225-.552-2.099h-.894l1.16 3.993h.37l.85-2.23z"></path><path fill="url(#TwintDark_svg__b)" d="m9.75 12.16-.925 1.32-.477-.709.549-.794c.1-.14.321-.531.066-1.062-.205-.43-.648-.64-1.036-.64s-.814.194-1.036.64c-.255.51-.033.912.061 1.046l.56.8.415.58.62.917c.006.005.106.15.278.15.166 0 .266-.145.282-.16l1.457-2.088zm-1.823.032s-.244-.36-.399-.607c-.171-.268.022-.665.4-.665.381 0 .57.397.398.665-.155.253-.399.607-.399.607"></path><path fill="url(#TwintDark_svg__c)" d="m9.75 12.16-.925 1.32-.477-.709.549-.794c.1-.14.321-.531.066-1.062-.205-.43-.648-.64-1.036-.64s-.814.194-1.036.64c-.255.51-.033.912.061 1.046l.56.8.415.58.62.917c.006.005.106.15.278.15.166 0 .266-.145.282-.16l1.457-2.088zm-1.823.032s-.244-.36-.399-.607c-.171-.268.022-.665.4-.665.381 0 .57.397.398.665-.155.253-.399.607-.399.607"></path><path fill="url(#TwintDark_svg__d)" d="m7.03 13.437-.915-1.24s-.243-.36-.398-.606c-.172-.269.022-.666.398-.666q.075 0 .133.016l.322-.569a1.3 1.3 0 0 0-.455-.09c-.387 0-.814.193-1.036.638-.254.51-.033.912.061 1.046l1.596 2.292c.011.022.116.166.283.166.171 0 .265-.14.282-.16l.482-.709-.415-.59z"></path><path fill="url(#TwintDark_svg__e)" d="m7.03 13.437-.915-1.24s-.243-.36-.398-.606c-.172-.269.022-.666.398-.666q.075 0 .133.016l.322-.569a1.3 1.3 0 0 0-.455-.09c-.387 0-.814.193-1.036.638-.254.51-.033.912.061 1.046l1.596 2.292c.011.022.116.166.283.166.171 0 .265-.14.282-.16l.482-.709-.415-.59z"></path><defs><radialGradient id="TwintDark_svg__b" cx="0" cy="0" r="1" gradientTransform="translate(136.473 29.652)scale(656.72)" gradientUnits="userSpaceOnUse"><stop stop-color="#FC0"></stop><stop offset="0.092" stop-color="#FFC800"></stop><stop offset="0.174" stop-color="#FFBD00"></stop><stop offset="0.253" stop-color="#FFAB00"></stop><stop offset="0.33" stop-color="#FF9100"></stop><stop offset="0.405" stop-color="#FF7000"></stop><stop offset="0.479" stop-color="#FF4700"></stop><stop offset="0.55" stop-color="#FF1800"></stop><stop offset="0.582" stop-color="red"></stop><stop offset="1" stop-color="red"></stop></radialGradient><radialGradient id="TwintDark_svg__c" cx="0" cy="0" r="1" gradientTransform="matrix(4.29589 0 0 4.68499 7.622 10.639)" gradientUnits="userSpaceOnUse"><stop stop-color="#FC0"></stop><stop offset="0.092" stop-color="#FFC800"></stop><stop offset="0.174" stop-color="#FFBD00"></stop><stop offset="0.253" stop-color="#FFAB00"></stop><stop offset="0.33" stop-color="#FF9100"></stop><stop offset="0.405" stop-color="#FF7000"></stop><stop offset="0.479" stop-color="#FF4700"></stop><stop offset="0.55" stop-color="#FF1800"></stop><stop offset="0.582" stop-color="red"></stop><stop offset="1" stop-color="red"></stop></radialGradient><radialGradient id="TwintDark_svg__d" cx="0" cy="0" r="1" gradientTransform="matrix(602.159 0 0 602.163 15.98 33.904)" gradientUnits="userSpaceOnUse"><stop stop-color="#00B4E6"></stop><stop offset="0.201" stop-color="#00B0E3"></stop><stop offset="0.39" stop-color="#01A5DB"></stop><stop offset="0.574" stop-color="#0292CD"></stop><stop offset="0.755" stop-color="#0377BA"></stop><stop offset="0.932" stop-color="#0455A1"></stop><stop offset="1" stop-color="#054696"></stop></radialGradient><radialGradient id="TwintDark_svg__e" cx="0" cy="0" r="1" gradientTransform="matrix(3.93141 0 0 5.76922 5.032 10.884)" gradientUnits="userSpaceOnUse"><stop stop-color="#00B4E6"></stop><stop offset="0.201" stop-color="#00B0E3"></stop><stop offset="0.39" stop-color="#01A5DB"></stop><stop offset="0.574" stop-color="#0292CD"></stop><stop offset="0.755" stop-color="#0377BA"></stop><stop offset="0.932" stop-color="#0455A1"></stop><stop offset="1" stop-color="#054696"></stop></radialGradient><linearGradient id="TwintDark_svg__a" x1="36" x2="0.655" y1="24" y2="-0.929" gradientUnits="userSpaceOnUse"><stop stop-color="#949497" stop-opacity="0.12"></stop><stop offset="1" stop-color="#949497" stop-opacity="0.04"></stop></linearGradient></defs></svg>