<svg xmlns="http://www.w3.org/2000/svg" fill="none" viewBox="0 0 36 24"><g clip-path="url(#USDC_svg__a)"><rect width="36" height="24" fill="url(#USDC_svg__b)" rx="6"></rect><path fill="#fff" d="M20.67 13.584c0-1.416-.85-1.902-2.549-2.104-1.213-.162-1.456-.485-1.456-1.052 0-.566.404-.93 1.214-.93.728 0 1.133.242 1.335.85.04.12.162.201.283.201h.647a.277.277 0 0 0 .284-.283v-.04a2.02 2.02 0 0 0-1.821-1.66v-.97c0-.162-.122-.284-.324-.324h-.607c-.162 0-.283.121-.323.324v.93c-1.214.162-1.983.971-1.983 1.983 0 1.335.81 1.861 2.509 2.064 1.133.202 1.497.445 1.497 1.092 0 .648-.567 1.093-1.335 1.093-1.053 0-1.417-.445-1.538-1.052-.04-.162-.162-.243-.283-.243h-.688a.277.277 0 0 0-.284.283v.04c.162 1.012.81 1.74 2.145 1.943v.97c0 .163.121.284.324.324h.607c.161 0 .283-.12.323-.323v-.971c1.214-.203 2.024-1.052 2.024-2.145"></path><path fill="#fff" d="M15.937 17.833c-3.157-1.133-4.775-4.653-3.602-7.769a5.99 5.99 0 0 1 3.601-3.601c.162-.08.243-.202.243-.405v-.566c0-.162-.08-.283-.242-.324-.041 0-.122 0-.162.04-3.844 1.214-5.948 5.301-4.735 9.145a7.28 7.28 0 0 0 4.735 4.734c.162.081.323 0 .364-.162.04-.04.04-.08.04-.161v-.567c0-.121-.121-.283-.242-.364m4.289-12.624c-.162-.081-.324 0-.365.161-.04.041-.04.081-.04.162V6.1c0 .162.121.323.243.404 3.156 1.133 4.774 4.654 3.6 7.77a5.99 5.99 0 0 1-3.6 3.6c-.162.081-.243.203-.243.405v.567c0 .161.08.283.243.323.04 0 .121 0 .162-.04 3.843-1.214 5.948-5.3 4.734-9.145a7.34 7.34 0 0 0-4.735-4.774"></path></g><defs><linearGradient id="USDC_svg__b" x1="-3" x2="36" y1="-3.5" y2="24" gradientUnits="userSpaceOnUse"><stop stop-color="#3B89DE"></stop><stop offset="1" stop-color="#2775CA"></stop></linearGradient><clipPath id="USDC_svg__a"><rect width="36" height="24" fill="#fff" rx="6"></rect></clipPath></defs></svg>