<svg xmlns="http://www.w3.org/2000/svg" viewBox="0 0 24 24"><g fill="none"><path fill="#000" fill-opacity="0.25" d="M17.605 12.375c.184 0 .312-.127.333-.32.287-2.33.392-2.397 2.766-2.774.206-.03.332-.142.332-.327 0-.183-.126-.302-.294-.333-2.4-.467-2.517-.449-2.804-2.775-.02-.193-.149-.32-.333-.32-.178 0-.306.127-.334.311-.297 2.371-.379 2.446-2.802 2.784a.327.327 0 0 0-.294.333c0 .176.125.296.292.327 2.43.473 2.5.464 2.804 2.792.028.175.16.302.334.302m-4.219-6.06c.117 0 .18-.072.2-.181.26-1.458.252-1.487 1.769-1.771.114-.02.19-.09.19-.207 0-.115-.076-.186-.186-.205-1.524-.307-1.482-.335-1.773-1.77-.02-.11-.083-.181-.2-.181s-.188.071-.207.18c-.287 1.449-.244 1.481-1.765 1.771-.115.018-.187.09-.187.205 0 .117.07.186.185.207 1.523.308 1.506.32 1.767 1.772.02.108.09.18.207.18"></path><path fill="#5856d7" d="M10.735 20.86c3.215 0 5.896-1.847 7.082-4.476.163-.369.132-.68-.056-.864-.156-.15-.442-.17-.75-.054-.727.301-1.59.467-2.55.467-3.892 0-6.438-2.473-6.438-6.275 0-.997.262-2.167.574-2.822.173-.361.167-.66.002-.845-.163-.199-.481-.234-.872-.073A7.82 7.82 0 0 0 3 13.11c0 4.282 3.38 7.75 7.735 7.75"></path></g></svg>