<svg xmlns="http://www.w3.org/2000/svg" viewBox="0 0 24 24"><g fill="#fff"><path fill-opacity="0.5" d="M14.518 22.372c.174 0 .297-.168.282-.344l-.078-.831.694.484a.32.32 0 0 0 .441-.085.31.31 0 0 0-.156-.44l-.754-.346.764-.362a.314.314 0 0 0 .155-.43c-.085-.153-.313-.183-.452-.086l-.69.494.083-.842a.294.294 0 0 0-.289-.336c-.197 0-.313.153-.298.336l.067.842-.696-.496a.297.297 0 0 0-.43.088c-.088.148-.04.34.143.43l.76.36-.762.357a.3.3 0 0 0-.147.43c.087.163.298.19.436.086l.696-.481-.06.828c-.014.176.094.344.291.344m-4.869 0c.174 0 .297-.168.281-.344l-.07-.831.687.484a.32.32 0 0 0 .441-.085.31.31 0 0 0-.156-.44l-.754-.346.764-.362a.316.316 0 0 0 .157-.43c-.087-.153-.315-.183-.454-.086l-.683.494.076-.842a.294.294 0 0 0-.289-.336c-.197 0-.313.153-.298.336l.067.842-.696-.496a.297.297 0 0 0-.43.088c-.088.148-.04.34.143.43l.759.36-.76.357a.3.3 0 0 0-.148.43c.087.163.298.19.436.086l.696-.481-.06.828c-.014.176.094.344.291.344m-4.869 0c.174 0 .296-.168.281-.344l-.07-.831.687.484c.146.096.349.063.441-.085a.31.31 0 0 0-.156-.44l-.747-.346.757-.362a.316.316 0 0 0 .157-.43c-.087-.153-.308-.183-.454-.086l-.683.494.076-.842a.294.294 0 0 0-.289-.336c-.197 0-.314.153-.298.336l.067.842-.69-.496c-.144-.095-.343-.072-.437.088-.087.148-.04.34.144.43l.759.36-.76.357a.3.3 0 0 0-.148.43c.087.163.298.19.443.086l.689-.481-.06.828c-.014.176.094.344.291.344m11.645-3.302c.174 0 .296-.16.28-.336l-.076-.841.693.486a.31.31 0 0 0 .442-.078.31.31 0 0 0-.157-.441l-.754-.352.765-.362a.31.31 0 0 0 .154-.43c-.085-.153-.313-.183-.451-.08l-.69.488.082-.835a.293.293 0 0 0-.288-.336c-.197 0-.314.152-.299.336l.067.835-.696-.49c-.137-.1-.336-.078-.43.082a.298.298 0 0 0 .143.43l.76.36-.761.355a.31.31 0 0 0-.148.44c.087.155.299.181.436.085l.696-.481-.06.829c-.013.175.095.336.292.336m-4.87 0c.175 0 .297-.16.282-.336l-.07-.841.686.486a.31.31 0 0 0 .442-.078.31.31 0 0 0-.157-.441l-.754-.352.764-.362a.314.314 0 0 0 .157-.43c-.087-.153-.315-.183-.454-.08l-.683.488.076-.835a.293.293 0 0 0-.288-.336c-.198 0-.314.152-.299.336l.067.835-.696-.49c-.137-.1-.336-.078-.43.082a.298.298 0 0 0 .143.43l.76.36-.761.355a.31.31 0 0 0-.148.44c.087.155.299.181.436.085l.696-.481-.06.829c-.013.175.094.336.292.336m-4.869 0c.174 0 .297-.16.282-.336l-.07-.841.686.486a.31.31 0 0 0 .441-.078.31.31 0 0 0-.156-.441l-.747-.352.757-.362a.314.314 0 0 0 .157-.43c-.087-.153-.315-.183-.454-.08l-.683.488.076-.835a.293.293 0 0 0-.289-.336c-.197 0-.313.152-.298.336l.067.835-.69-.49c-.144-.1-.342-.078-.437.082a.298.298 0 0 0 .144.43l.759.36-.76.355a.31.31 0 0 0-.148.44c.087.155.298.181.443.085l.689-.481-.06.829c-.014.175.094.336.291.336"></path><path d="M6.259 14.569h10.95c2.941 0 5.141-2.236 5.141-5.02 0-2.865-2.306-4.99-5.326-4.99C15.944 2.435 13.938 1 11.274 1c-3.367 0-6.1 2.591-6.43 5.861C3.228 7.356 2 8.761 2 10.655c0 2.178 1.594 3.914 4.259 3.914"></path></g></svg>