<svg xmlns="http://www.w3.org/2000/svg" viewBox="0 0 24 24"><g fill="none" fill-rule="evenodd"><path fill="#fff" fill-rule="nonzero" d="M5.844 19.195H17.38c3.032 0 5.374-2.298 5.374-5.242 0-2.988-2.402-5.224-5.61-5.217C15.962 6.388 13.8 5 11.124 5 7.64 5 4.745 7.664 4.401 11.169c-1.8.533-3.002 2.062-3.002 3.952 0 2.386 1.788 4.074 4.444 4.074"></path><path stroke="#000" stroke-linejoin="round" stroke-opacity="0.25" d="M11.126 5.5c2.481 0 4.473 1.277 5.57 3.46a.5.5 0 0 0 .448.276c2.966-.006 5.11 2.038 5.11 4.717 0 2.657-2.107 4.742-4.874 4.742H5.844c-1.221 0-2.205-.387-2.879-1.01-.67-.62-1.065-1.502-1.065-2.564 0-1.658 1.047-3 2.645-3.473a.5.5 0 0 0 .355-.43C5.22 7.963 7.905 5.5 11.126 5.5Z"></path></g></svg>