<svg xmlns="http://www.w3.org/2000/svg" viewBox="0 0 24 24"><g fill="none"><path fill="#f7c500" d="M16.92 11.135c0 .575-.104 1.129-.299 1.64H7.664a4.6 4.6 0 0 1-.3-1.64c0-2.619 2.163-4.786 4.779-4.786s4.777 2.167 4.777 4.785m-11.194-.257c.007.432-.363.778-.848.778H2.84c-.474 0-.841-.346-.841-.778 0-.43.366-.777.84-.777h2.038c.485 0 .84.354.848.777m16.56 0c0 .432-.358.785-.842.778h-2.037c-.475 0-.84-.346-.848-.778-.009-.43.372-.777.848-.777h2.037c.484 0 .841.354.841.777M6.12 4.013l1.442 1.44c.336.342.337.843.047 1.15-.3.306-.815.294-1.158-.048L5.01 5.117c-.344-.346-.344-.847-.032-1.145.3-.3.799-.305 1.143.041m13.193-.04c.298.304.305.798-.039 1.144l-1.442 1.438c-.343.342-.844.347-1.15.048-.307-.298-.297-.808.046-1.15l1.442-1.44c.344-.346.844-.347 1.143-.04M12.921 1.84v2.038c0 .476-.347.841-.778.848s-.779-.372-.779-.848V1.841c0-.484.347-.841.779-.841.431 0 .778.357.778.84"></path><path fill="#000" fill-opacity="0.25" d="M3.258 15.055h17.757a.587.587 0 0 0 .601-.59.587.587 0 0 0-.6-.59H3.257a.583.583 0 0 0-.601.59c0 .337.26.59.6.59m.733 2.846a.47.47 0 1 0 .008-.942.47.47 0 0 0-.008.942m3.718 0a.47.47 0 0 0 0-.942.464.464 0 0 0-.467.475c0 .257.2.467.467.467m3.709 0a.47.47 0 1 0 .008-.942.47.47 0 0 0-.008.942m3.718 0a.47.47 0 1 0-.474-.467c0 .257.208.467.474.467M2.875 20.03a.464.464 0 0 0 .467-.467.463.463 0 0 0-.467-.468.463.463 0 0 0-.475.468c0 .264.209.467.475.467m3.709 0a.46.46 0 0 0 .467-.467.46.46 0 0 0-.467-.468.46.46 0 0 0-.467.468.46.46 0 0 0 .467.467m3.718 0a.464.464 0 0 0 .467-.467.463.463 0 0 0-.467-.468.463.463 0 0 0-.475.468c0 .264.209.467.475.467m3.709 0a.46.46 0 0 0 .467-.467.46.46 0 0 0-.467-.468.46.46 0 0 0-.468.468.46.46 0 0 0 .468.467m3.717 0a.464.464 0 0 0 .468-.467.463.463 0 0 0-.468-.468.463.463 0 0 0-.474.468c0 .264.208.467.474.467m3.71 0a.46.46 0 0 0 .467-.467.46.46 0 0 0-.468-.468.46.46 0 0 0-.467.468.46.46 0 0 0 .467.467m-15.97 2.134a.467.467 0 0 0 .467-.467.472.472 0 1 0-.467.467m3.709 0a.463.463 0 0 0 .467-.467.465.465 0 0 0-.467-.475.465.465 0 0 0-.468.475c0 .259.203.467.468.467m3.709 0a.472.472 0 1 0 .008-.94.472.472 0 0 0-.008.94m3.717 0a.463.463 0 0 0 .468-.467.465.465 0 0 0-.468-.475.465.465 0 0 0-.467.475c0 .259.203.467.467.467m3.71 0a.472.472 0 1 0 .008-.94.472.472 0 0 0-.009.94"></path></g></svg>