<svg xmlns="http://www.w3.org/2000/svg" viewBox="0 0 24 24"><g fill="none"><path fill="#fff" fill-opacity="0.5" d="M11.763 21.8a4.776 4.776 0 0 0 4.784-4.778c0-1.366-.548-2.557-1.6-3.522-.18-.167-.221-.268-.221-.525V5.22c0-1.914-1.204-3.22-2.963-3.22-1.782 0-2.99 1.306-2.99 3.221v7.754c0 .257-.033.36-.222.525-1.05.957-1.601 2.156-1.601 3.522 0 2.645 2.15 4.778 4.813 4.778m0-1.502a3.294 3.294 0 0 1-3.293-3.295c0-1.113.522-2.087 1.448-2.706.271-.182.375-.342.375-.701v-8.32c0-1.05.599-1.758 1.47-1.758.85 0 1.448.707 1.448 1.757v8.32c0 .36.106.52.375.702a3.19 3.19 0 0 1 1.45 2.706c0 1.811-1.474 3.295-3.273 3.295"></path><path fill="#55bef0" d="M11.752 19.11c1.167 0 2.106-.94 2.106-2.115 0-.817-.46-1.487-1.131-1.851-.278-.15-.375-.255-.375-.681V12.81c0-.422-.27-.693-.6-.693-.336 0-.6.271-.6.693v1.653c0 .426-.095.531-.375.68-.669.365-1.13 1.035-1.13 1.852 0 1.175.94 2.115 2.105 2.115"></path><path fill="#fff" fill-opacity="0.5" d="M16.4 5.418h1.931a.527.527 0 0 0 .543-.533.527.527 0 0 0-.543-.535h-1.93a.527.527 0 0 0-.543.535c0 .288.219.533.542.533m0 2.443h1.931a.527.527 0 0 0 .543-.535.526.526 0 0 0-.543-.534h-1.93a.526.526 0 0 0-.543.534c0 .29.219.535.542.535m0 2.45h1.931a.527.527 0 0 0 .543-.534.533.533 0 0 0-.543-.541h-1.93a.533.533 0 0 0-.543.54c0 .29.219.536.542.536m0 2.451h1.931a.527.527 0 0 0 .543-.535.53.53 0 0 0-.543-.54h-1.93a.53.53 0 0 0-.543.54c0 .29.219.535.542.535"></path></g></svg>