<svg xmlns="http://www.w3.org/2000/svg" viewBox="0 0 24 24"><g fill="none"><path fill="#5856d7" d="M10.055 2.239c.193.208.195.547.02.903-.252.529-.41 1.446-.41 2.298 0 3.248 2.118 5.301 5.452 5.301q1.242 0 2.107-.349c.335-.136.65-.11.83.07.206.207.234.547.063.936a6.6 6.6 0 0 1-.561 1.017H6.13C5.383 11.3 5 9.951 5 8.555 5 5.67 6.667 3.132 9.11 2.14c.415-.167.74-.116.945.1"></path><path fill="#fff" fill-opacity="0.5" d="M2.051 18.077h17.757c.342 0 .6-.26.6-.597a.58.58 0 0 0-.6-.59H2.051a.586.586 0 0 0-.601.59c0 .337.265.597.601.597m1.327 3.375h17.756a.585.585 0 0 0 .601-.59.587.587 0 0 0-.601-.596H3.378a.587.587 0 0 0-.6.596c0 .338.264.59.6.59m0-6.757h17.756a.586.586 0 0 0 .601-.59.586.586 0 0 0-.601-.59H3.378a.586.586 0 0 0-.6.59c0 .337.264.59.6.59"></path></g></svg>