<svg xmlns="http://www.w3.org/2000/svg" viewBox="0 0 24 24"><g fill="none"><path fill="#fff" fill-opacity="0.5" d="M16.45 5.418h1.931a.527.527 0 0 0 .543-.533.527.527 0 0 0-.543-.535h-1.93a.527.527 0 0 0-.543.535c0 .288.219.533.542.533m0 2.443h1.931a.527.527 0 0 0 .543-.535.526.526 0 0 0-.543-.534h-1.93a.526.526 0 0 0-.543.534c0 .29.219.535.542.535m0 2.45h1.931a.527.527 0 0 0 .543-.534.533.533 0 0 0-.543-.541h-1.93a.533.533 0 0 0-.543.54c0 .29.219.536.542.536m0 2.451h1.931a.527.527 0 0 0 .543-.535.53.53 0 0 0-.543-.54h-1.93a.53.53 0 0 0-.543.54c0 .29.219.535.542.535"></path><path fill="#fff" fill-opacity="0.5" d="M11.813 21.8a4.776 4.776 0 0 0 4.784-4.778c0-1.366-.548-2.557-1.6-3.522-.18-.167-.221-.268-.221-.525l.007-7.754c0-1.915-1.21-3.221-2.97-3.221-1.782 0-2.997 1.306-2.997 3.221l.007 7.754c0 .257-.033.36-.222.525C7.551 14.457 7 15.656 7 17.022c0 2.645 2.15 4.778 4.813 4.778m0-1.502a3.294 3.294 0 0 1-3.293-3.295c0-1.113.522-2.087 1.448-2.706.271-.182.375-.342.375-.701v-8.32c0-1.05.599-1.758 1.47-1.758.85 0 1.448.707 1.448 1.757v8.32c0 .36.106.52.375.702a3.19 3.19 0 0 1 1.45 2.706c0 1.811-1.474 3.295-3.273 3.295"></path><path fill="#ff3b30" d="M11.802 19.11a2.103 2.103 0 0 0 2.106-2.114c0-.817-.46-1.487-1.131-1.852-.278-.15-.372-.255-.372-.68V5.07c0-.424-.27-.693-.601-.693-.337 0-.6.27-.6.693v9.393c0 .426-.097.532-.377.681-.669.364-1.13 1.035-1.13 1.852 0 1.175.94 2.115 2.105 2.115"></path></g></svg>