<svg xmlns="http://www.w3.org/2000/svg" viewBox="0 0 30 30"><g fill="none"><path fill="#fff" fill-opacity="0.5" d="m12.562 22.205-.784 1.49h1.807c.258 0 .321.246.132.429L9.77 28.006c-.083.096-.18.121-.26.086-.086-.034-.113-.125-.06-.248l1.146-2.758H9.084c-.223 0-.317-.135-.229-.346l1.146-2.604c.079-.179.16-.267.407-.267h1.986c.195 0 .274.144.168.336"></path><path fill="#fc0" d="m24.248 15.765 1.29 1.295a.787.787 0 1 1-1.111 1.117l-1.304-1.3a.795.795 0 0 1-.002-1.115.8.8 0 0 1 1.127.003m-.796-4.09a4.39 4.39 0 0 1-2.019 3.7c-.326-2.59-2.392-4.515-5.112-4.813a7 7 0 0 0-.998-1.228 4.402 4.402 0 0 1 8.129 2.342m4.769 0a.794.794 0 0 1-.79.794h-1.827a.805.805 0 0 1-.796-.795.8.8 0 0 1 .796-.79h1.828a.79.79 0 0 1 .789.79m-2.682-6.496a.797.797 0 0 1-.001 1.122l-1.29 1.287a.8.8 0 0 1-1.127.004.795.795 0 0 1 .002-1.115l1.303-1.293a.78.78 0 0 1 1.113-.005m-11.89-.002 1.297 1.3c.307.305.3.808.002 1.115a.803.803 0 0 1-1.129-.004l-1.282-1.287a.8.8 0 0 1-.002-1.13.79.79 0 0 1 1.113.006m6.18-1.908v1.82a.8.8 0 0 1-.792.795.8.8 0 0 1-.791-.796v-1.82c0-.433.353-.795.79-.795.44 0 .794.362.794.796"></path><path fill="#fff" d="M6.075 20.502h9.75c2.505 0 4.442-1.913 4.442-4.392 0-2.491-1.993-4.36-4.666-4.372-1.002-1.908-2.805-3.124-5.079-3.124a5.68 5.68 0 0 0-5.645 5.177c-1.521.444-2.5 1.733-2.5 3.318 0 2.013 1.504 3.393 3.698 3.393"></path></g></svg>