<svg xmlns="http://www.w3.org/2000/svg" viewBox="0 0 24 24"><g fill="#fff"><path fill-opacity="0.5" d="M18.043 4.71c0 .484-.593 1.342-.593 2.535 0 1.989 1.286 3.234 3.435 3.234 1.254 0 1.91-.56 2.36-.56.287 0 .441.254.441.612 0 1.333-1.418 3.743-4.292 4.192-.164-2.778-2.3-4.878-5.146-5.19a7 7 0 0 0-.917-1.148c.515-2.44 2.634-4.084 4.171-4.135.353-.007.541.182.541.46"></path><path d="M3.996 19.474h9.75c2.513 0 4.45-1.914 4.45-4.394 0-2.49-1.991-4.36-4.667-4.37-1-1.909-2.81-3.134-5.077-3.134-2.93 0-5.385 2.25-5.654 5.187C1.277 13.206.3 14.495.3 16.08c0 2.013 1.503 3.394 3.697 3.394"></path></g></svg>