<svg xmlns="http://www.w3.org/2000/svg" viewBox="0 0 24 24"><g fill="none" fill-rule="evenodd"><path fill="#0fa0e6" fill-rule="nonzero" d="m15.316 22.297 2.591-4.476a.556.556 0 0 0-.199-.774c-.271-.17-.608-.076-.778.215l-2.576 4.462a.57.57 0 0 0 .2.787.543.543 0 0 0 .762-.214m-2.044-2.5 1.132-1.965a.563.563 0 0 0-.206-.79c-.286-.162-.607-.07-.778.225l-1.14 1.98a.55.55 0 0 0 .204.772.577.577 0 0 0 .788-.221m-4.945 2.507 2.582-4.474c.16-.283.087-.612-.192-.774a.55.55 0 0 0-.785.214l-2.567 4.462c-.16.28-.088.617.197.786a.55.55 0 0 0 .765-.214m-2.051-2.5 1.133-1.966a.554.554 0 0 0-.2-.788c-.285-.162-.606-.071-.784.223l-1.14 1.98a.55.55 0 0 0 .211.772.57.57 0 0 0 .78-.22"></path><path fill="#fff" fill-rule="nonzero" d="M6.009 15.569h10.95c2.941 0 5.141-2.236 5.141-5.02 0-2.865-2.306-4.99-5.326-4.99C15.694 3.435 13.688 2 11.024 2c-3.367 0-6.1 2.591-6.43 5.861-1.615.495-2.844 1.9-2.844 3.794 0 2.178 1.594 3.914 4.259 3.914"></path><path stroke="#000" stroke-linejoin="round" stroke-opacity="0.25" d="M11.025 2.5c2.305 0 4.069 1.155 5.106 2.924l.197.361a.5.5 0 0 0 .445.274c2.778 0 4.828 1.934 4.828 4.49 0 2.502-1.971 4.52-4.642 4.52H6.009c-1.221 0-2.156-.396-2.781-1-.627-.605-.978-1.45-.978-2.414 0-1.651 1.063-2.878 2.49-3.315a.5.5 0 0 0 .338-.355l.013-.073C5.397 4.888 7.923 2.5 11.025 2.5Z"></path></g></svg>