<svg xmlns="http://www.w3.org/2000/svg" viewBox="0 0 24 24"><g fill="none"><path fill="#fff" fill-opacity="0.5" d="M14.952 21.59c.176 0 .3-.16.283-.343l-.077-.833.693.485c.138.104.34.07.435-.077.092-.146.033-.361-.15-.442l-.755-.351.764-.362a.31.31 0 0 0 .15-.43c-.087-.153-.308-.183-.445-.08l-.69.487.082-.834c.023-.191-.114-.343-.29-.343-.195 0-.319.152-.304.343l.073.834-.695-.49c-.139-.101-.337-.078-.432.083a.3.3 0 0 0 .144.43l.759.36-.76.355a.31.31 0 0 0-.147.44c.087.155.297.181.436.077l.695-.473-.066.821c-.015.183.102.343.297.343M9.935 22.9c.18 0 .297-.16.28-.336l-.07-.832.687.477a.31.31 0 0 0 .441-.076c.095-.148.034-.361-.149-.442l-.754-.346.765-.36a.32.32 0 0 0 .147-.439c-.085-.153-.306-.183-.452-.079l-.683.494.076-.84c.022-.184-.107-.338-.288-.338-.198 0-.314.154-.3.338l.068.84-.689-.496c-.145-.103-.343-.08-.438.081a.308.308 0 0 0 .144.439l.766.359-.768.356a.302.302 0 0 0-.147.433c.088.16.298.187.443.083l.689-.481-.06.829c-.013.177.094.336.292.336m-4.229-1.344c.176 0 .298-.16.281-.336l-.077-.84.695.485c.137.104.347.07.433-.078.094-.146.033-.359-.148-.441l-.756-.352.765-.362a.31.31 0 0 0 .15-.43c-.08-.153-.308-.182-.447-.079l-.69.487.082-.834a.293.293 0 0 0-.288-.337c-.197 0-.32.154-.306.337l.074.834-.696-.488a.29.29 0 0 0-.43.08.298.298 0 0 0 .144.43l.759.36-.761.357a.308.308 0 0 0-.148.438c.089.162.299.189.436.085l.696-.48-.065.828c-.015.175.1.336.297.336"></path><path fill="#55bef0" d="m16.671 17.775.547-.961a.566.566 0 0 0-.2-.796c-.287-.162-.613-.059-.786.223l-.553.983a.554.554 0 0 0 .204.772.577.577 0 0 0 .788-.221m-5.378 1.31 1.327-2.295c.16-.29.08-.626-.199-.79-.293-.169-.62-.07-.785.225l-1.334 2.31a.545.545 0 0 0 .212.772.56.56 0 0 0 .78-.221M7.46 17.74l.547-.961a.566.566 0 0 0-.2-.796c-.285-.162-.613-.059-.784.223l-.555.983a.553.553 0 0 0 .206.772.57.57 0 0 0 .786-.221"></path><path fill="#fff" d="M6.259 14.569h10.95c2.941 0 5.141-2.236 5.141-5.02 0-2.865-2.306-4.99-5.326-4.99C15.944 2.435 13.938 1 11.274 1c-3.367 0-6.1 2.591-6.43 5.861C3.228 7.356 2 8.761 2 10.655c0 2.178 1.594 3.914 4.259 3.914"></path></g></svg>