<svg xmlns="http://www.w3.org/2000/svg" viewBox="0 0 24 24"><g fill="none" fill-rule="evenodd"><path fill="#000" fill-opacity="0.25" fill-rule="nonzero" d="M11.577 5.823a3.6 3.6 0 0 1 1.068-.164 3.49 3.49 0 0 1 2.864 1.49l-.01-.001c-1.56 0-2.973.64-3.977 1.71a3.6 3.6 0 0 0-.564-.044 4.755 4.755 0 0 0-4.439 3.024 4.67 4.67 0 0 0-3.241 3.117C1.878 14.397 1 13.1 1 11.548a3.72 3.72 0 0 1 2.892-3.623C4.075 5.747 5.884 4 8.112 4a4.18 4.18 0 0 1 3.465 1.823"></path><path fill="#fff" fill-rule="nonzero" d="M7.832 19.685H18.73c2.296 0 3.872-1.63 3.872-3.705a3.73 3.73 0 0 0-2.883-3.63c-.19-2.176-1.992-3.916-4.22-3.916a4.18 4.18 0 0 0-3.472 1.821 3.6 3.6 0 0 0-1.069-.162 3.505 3.505 0 0 0-3.442 2.87c-1.78.117-3.16 1.579-3.16 3.342 0 1.895 1.409 3.38 3.476 3.38"></path><path stroke="#000" stroke-linejoin="round" stroke-opacity="0.25" d="M15.499 8.934c1.958 0 3.553 1.53 3.722 3.46a.5.5 0 0 0 .383.443 3.23 3.23 0 0 1 2.499 3.143c0 1.789-1.344 3.206-3.374 3.206H7.832c-1.793 0-2.977-1.264-2.977-2.88 0-1.497 1.172-2.744 2.694-2.843a.5.5 0 0 0 .459-.407 3.005 3.005 0 0 1 2.95-2.463c.324 0 .61.046.926.141a.5.5 0 0 0 .554-.194A3.68 3.68 0 0 1 15.5 8.934Z"></path></g></svg>