<svg xmlns="http://www.w3.org/2000/svg" viewBox="0 0 28 28"><g fill="none" fill-rule="evenodd"><path fill="#f7c500" fill-rule="nonzero" d="m22.906 17.665 1.302 1.296c.305.307.31.814.003 1.111-.306.307-.818.323-1.116.008l-1.306-1.298a.8.8 0 0 1-.005-1.12.81.81 0 0 1 1.122.003m-.825-4.1a4.4 4.4 0 0 1-2.076 3.73c-.313-2.578-2.376-4.5-5.086-4.787a7 7 0 0 0-.98-1.212 4.4 4.4 0 0 1 3.753-2.134c2.405 0 4.39 1.991 4.39 4.403m4.797 0a.79.79 0 0 1-.79.791h-1.826a.803.803 0 0 1-.796-.79c0-.425.373-.795.796-.795h1.827c.433 0 .789.37.789.794M24.205 7.06a.804.804 0 0 1-.002 1.127l-1.296 1.288a.8.8 0 0 1-1.127.004.79.79 0 0 1 .001-1.116l1.311-1.3a.787.787 0 0 1 1.113-.003m-11.901-.002 1.293 1.305c.3.296.302.815-.004 1.113a.796.796 0 0 1-1.12-.003l-1.288-1.297a.795.795 0 0 1 .004-1.118.795.795 0 0 1 1.114 0m6.178-1.91v1.834c0 .424-.361.79-.793.79a.803.803 0 0 1-.793-.79V5.148c0-.425.361-.796.793-.796s.793.371.793.796"></path><path fill="#fff" fill-rule="nonzero" d="M4.712 22.4h9.75c2.52 0 4.462-1.92 4.462-4.408 0-2.499-1.998-4.375-4.672-4.386-.987-1.871-2.782-3.125-5.092-3.125-2.93 0-5.393 2.249-5.66 5.186-1.494.435-2.5 1.712-2.5 3.325C1 20.991 2.49 22.4 4.712 22.4"></path><path stroke="#000" stroke-linejoin="round" stroke-opacity="0.25" d="M9.16 10.98c2.106 0 3.741 1.136 4.65 2.86a.5.5 0 0 0 .44.266c2.43.01 4.174 1.694 4.174 3.886 0 2.206-1.713 3.908-3.963 3.908H4.713c-1.005 0-1.806-.317-2.35-.821-.542-.502-.863-1.217-.863-2.086 0-1.386.854-2.472 2.14-2.846a.5.5 0 0 0 .357-.435c.245-2.68 2.492-4.73 5.162-4.731Z"></path></g></svg>