<svg xmlns="http://www.w3.org/2000/svg" viewBox="0 0 24 24"><path fill="#fc0" d="M12.026 5.837a.88.88 0 0 0 .873-.88V3.13a.883.883 0 0 0-.873-.88.884.884 0 0 0-.879.88v1.827c0 .483.397.88.878.88m4.377 1.835a.89.89 0 0 0 1.243-.005l1.297-1.3c.333-.332.331-.901-.005-1.245a.89.89 0 0 0-1.235.005L16.4 6.435a.89.89 0 0 0 .004 1.237m1.813 4.372c0 .475.404.871.88.871h1.826a.88.88 0 0 0 .873-.871.89.89 0 0 0-.873-.88h-1.826a.893.893 0 0 0-.88.88M16.4 16.423c-.333.34-.332.9.004 1.235l1.306 1.313c.333.331.903.315 1.239-.013a.887.887 0 0 0-.006-1.236l-1.307-1.304c-.332-.333-.895-.322-1.236.005m-4.374 1.828a.88.88 0 0 0-.878.872v1.833c0 .477.397.875.878.875a.88.88 0 0 0 .874-.875v-1.833a.88.88 0 0 0-.873-.872m-4.378-1.828c-.343-.327-.913-.338-1.246-.005l-1.299 1.297a.895.895 0 0 0-.013 1.235c.336.33.913.345 1.245.014l1.3-1.306a.895.895 0 0 0 .013-1.235m-1.818-4.379a.894.894 0 0 0-.881-.88H3.12a.886.886 0 0 0-.871.88.88.88 0 0 0 .871.871h1.827a.89.89 0 0 0 .881-.871m1.804-4.372c.336-.33.338-.913.014-1.237L6.348 5.127c-.326-.325-.902-.336-1.235-.005-.335.344-.338.913-.012 1.237l1.297 1.308a.887.887 0 0 0 1.235.005m4.386 8.96a4.59 4.59 0 0 0 4.589-4.588 4.597 4.597 0 0 0-4.59-4.597 4.597 4.597 0 0 0-4.588 4.597 4.59 4.59 0 0 0 4.589 4.589"></path></svg>