<svg xmlns="http://www.w3.org/2000/svg" xmlns:xlink="http://www.w3.org/1999/xlink" viewBox="0 0 24 24"><defs><path id="SunSnowLight_svg__a" d="M5.275 18.524c.18 0 .303-.16.288-.345l-.078-.832.694.486c.139.102.342.07.434-.078a.306.306 0 0 0-.149-.441l-.754-.352.765-.362a.314.314 0 0 0 .149-.431c-.087-.152-.308-.182-.446-.08l-.69.489.082-.835a.297.297 0 0 0-.295-.343c-.19 0-.313.152-.3.343l.075.835-.696-.49c-.137-.1-.343-.078-.43.08-.087.148-.04.342.143.432l.76.36-.761.355a.313.313 0 0 0-.155.44c.087.155.306.18.443.078l.696-.481-.067.827c-.013.184.102.345.292.345m4.869 0c.18 0 .296-.16.28-.345l-.07-.832.694.486c.14.102.342.07.435-.078a.306.306 0 0 0-.15-.441l-.754-.352.765-.362a.314.314 0 0 0 .149-.431c-.087-.152-.308-.182-.446-.08l-.69.489.075-.835c.022-.191-.107-.343-.288-.343-.19 0-.314.152-.299.343l.074.835-.696-.49c-.137-.1-.343-.078-.43.08-.087.148-.04.342.143.432l.76.36-.761.355a.313.313 0 0 0-.155.44c.087.155.306.18.443.078l.696-.481-.067.827c-.013.184.102.345.292.345m4.869 0c.181 0 .296-.16.28-.345l-.07-.832.694.486c.14.102.342.07.435-.078a.306.306 0 0 0-.15-.441l-.754-.352.765-.362a.314.314 0 0 0 .15-.431c-.088-.152-.308-.182-.447-.08l-.69.489.075-.835c.022-.191-.107-.343-.288-.343-.19 0-.314.152-.299.343l.074.835-.696-.49c-.137-.1-.343-.078-.43.08-.087.148-.04.342.144.432l.759.36-.761.355a.313.313 0 0 0-.155.44c.087.155.306.18.443.078l.696-.481-.067.827c-.013.184.102.345.292.345M3.367 21.82c.182 0 .304-.16.289-.344l-.078-.831.694.484c.139.103.342.07.434-.078.096-.146.034-.358-.149-.441l-.754-.352.764-.362a.313.313 0 0 0 .15-.43c-.087-.153-.308-.183-.447-.079l-.69.487.083-.835a.297.297 0 0 0-.296-.343c-.19 0-.312.152-.298.343l.074.835-.696-.489c-.138-.102-.344-.08-.43.081-.088.146-.04.34.143.43l.76.36-.762.355a.313.313 0 0 0-.154.44c.087.155.305.181.443.078l.696-.481-.067.828c-.014.183.101.344.291.344m4.87 0c.18 0 .296-.16.28-.344l-.07-.831.694.484c.139.103.342.07.434-.078.096-.146.034-.358-.149-.441l-.754-.352.764-.362a.313.313 0 0 0 .15-.43c-.087-.153-.308-.183-.447-.079l-.69.487.076-.835c.022-.191-.107-.343-.289-.343-.19 0-.313.152-.298.343l.074.835-.696-.489c-.137-.102-.343-.08-.43.081-.087.146-.04.34.143.43l.76.36-.761.355a.313.313 0 0 0-.155.44c.087.155.306.181.443.078l.696-.481-.067.828c-.014.183.101.344.291.344m4.869 0c.18 0 .296-.16.28-.344l-.07-.831.694.484c.139.103.342.07.434-.078.096-.146.034-.358-.149-.441l-.754-.352.765-.362a.313.313 0 0 0 .149-.43c-.087-.153-.308-.183-.446-.079l-.69.487.075-.835c.022-.191-.107-.343-.288-.343-.19 0-.314.152-.299.343l.074.835-.696-.489c-.137-.102-.343-.08-.43.081-.087.146-.04.34.143.43l.76.36-.761.355a.313.313 0 0 0-.155.44c.087.155.306.181.443.078l.696-.481-.067.828c-.013.183.102.344.292.344M1.257 14.053h17.758a.587.587 0 0 0 .6-.59.587.587 0 0 0-.6-.59H1.257a.583.583 0 0 0-.6.59c0 .337.259.59.6.59"></path></defs><g fill="none" fill-rule="evenodd" transform="translate(1.64 1.52)"><path fill="#f7c500" fill-rule="nonzero" d="M14.92 10.133c0 .576-.104 1.13-.299 1.64H5.664a4.6 4.6 0 0 1-.3-1.64c0-2.618 2.163-4.786 4.779-4.786s4.777 2.168 4.777 4.786M3.726 9.876c.007.432-.363.778-.848.778H.84c-.474 0-.841-.346-.841-.778 0-.43.366-.777.84-.777h2.038c.485 0 .84.354.848.777m16.56 0c0 .432-.358.786-.842.778h-2.037c-.475 0-.84-.346-.848-.778-.009-.43.372-.777.848-.777h2.037c.484 0 .841.354.841.777M4.12 3.011l1.442 1.44c.336.344.337.845.047 1.15-.3.307-.815.295-1.158-.048L3.01 4.116c-.344-.346-.344-.848-.032-1.145.3-.3.799-.305 1.143.04m13.193-.04c.298.305.305.799-.039 1.145l-1.442 1.437c-.343.343-.844.347-1.15.048-.307-.298-.297-.806.046-1.15l1.442-1.44c.344-.345.844-.347 1.143-.04M10.921.839v2.039c0 .475-.347.84-.778.848-.432.007-.779-.373-.779-.848V.839c0-.484.347-.839.779-.839.431 0 .778.355.778.84"></path><use xlink:href="#SunSnowLight_svg__a" fill="#000" fill-opacity="0.25"></use></g></svg>