<svg xmlns="http://www.w3.org/2000/svg" viewBox="0 0 24 24"><g fill="#fff"><path fill-opacity="0.5" d="M14.442 17.856H12.38l-.028.443 1.069-2.048c.104-.194.024-.345-.17-.345h-2.063c-.255 0-.343.088-.422.274l-1.219 2.777c-.095.218-.001.352.229.352h1.695l.094-.558-1.421 3.452c-.047.116-.02.212.06.247.079.036.175.01.274-.086L14.58 18.3c.19-.19.12-.443-.139-.443"></path><path d="M6.286 14.61h10.95c2.941 0 5.141-2.236 5.141-5.02 0-2.865-2.306-4.99-5.326-4.99-1.08-2.124-3.086-3.559-5.749-3.559-3.368 0-6.1 2.591-6.432 5.861-1.614.495-2.843 1.9-2.843 3.794 0 2.178 1.594 3.914 4.259 3.914"></path></g></svg>