<svg xmlns="http://www.w3.org/2000/svg" viewBox="0 0 24 24"><path fill="#fff" fill-opacity="0.5" d="M6 21.06c0 .417.32.755.765.755 5.337 0 9.588-3.741 9.588-9.408 0-2.535-2.09-4.625-4.618-4.625-.838 0-1.624.262-2.258.706 1.335-2.497 4.036-3.984 7.229-3.984a.746.746 0 0 0 .765-.758.74.74 0 0 0-.765-.746c-5.337 0-9.581 3.734-9.581 9.407 0 2.528 2.09 4.619 4.61 4.619.846 0 1.624-.262 2.259-.7-1.335 2.496-4.045 3.985-7.229 3.985-.445 0-.765.328-.765.749m2.637-8.653c0-1.698 1.408-3.106 3.098-3.106 1.699 0 3.107 1.408 3.107 3.106 0 1.69-1.408 3.1-3.107 3.1-1.69 0-3.098-1.41-3.098-3.1m1.804 0c0 .703.585 1.287 1.287 1.287a1.3 1.3 0 0 0 1.287-1.287c0-.709-.577-1.287-1.287-1.287-.702 0-1.287.578-1.287 1.287"></path></svg>