<svg xmlns="http://www.w3.org/2000/svg" fill="none" viewBox="0 0 16 16"><path fill="currentColor" d="M8.726 12.703a.625.625 0 0 1 1.126.545 2.276 2.276 0 0 1-4.098 0 .625.625 0 0 1 1.125-.545 1.027 1.027 0 0 0 1.847 0M7.802 1.53c1.393 0 2.435.703 3.115 1.61a.175.175 0 0 1-.011.22l-.421.477c-.219.247-.585.286-.898.183a2.25 2.25 0 0 0-2.448 3.56l1.226 1.5a2.252 2.252 0 0 0 3.426.067l.31-.352c.273-.308.784-.317.997.035.156.257.273.564.273.95 0 .366-.077.719-.321 1.012-.238.286-.59.46-1.017.573-.836.223-2.185.272-4.231.272s-3.394-.049-4.23-.272c-.427-.113-.779-.287-1.017-.573-.244-.293-.321-.646-.321-1.012 0-.8.503-1.253.808-1.645.313-.403.635-.935.635-2.068 0-.914.339-2.031 1.01-2.927.68-.907 1.722-1.61 3.115-1.61M12.6 3.836a.667.667 0 0 1 .998.885l-2.991 3.375a.67.67 0 0 1-1.016-.02l-1.226-1.5a.666.666 0 0 1 1.03-.845l.732.894z"></path></svg>