<svg xmlns="http://www.w3.org/2000/svg" fill="none" viewBox="0 0 16 16"><path fill="currentColor" d="M14 7.613v.774c0 2.19 0 3.284-.68 3.964s-1.776.681-3.966.681H6.646c-2.19 0-3.285 0-3.965-.68S2 10.576 2 8.387v-.774c0-.177 0-.265.035-.333a.3.3 0 0 1 .13-.13c.068-.036.157-.036.335-.036h11c.178 0 .267 0 .334.036a.3.3 0 0 1 .13.13c.036.068.036.156.036.333M5.085 9.358a.835.835 0 0 0 0 1.67h.652a.835.835 0 0 0 0-1.67zm4.27-6.39c2.19 0 3.284 0 3.964.68.287.287.453.647.549 1.132.057.292.086.438-.007.551-.092.113-.254.113-.577.113H2.716c-.323 0-.485 0-.577-.113-.093-.113-.064-.259-.007-.551.096-.485.262-.845.549-1.132.68-.68 1.775-.68 3.965-.68z"></path></svg>