<svg xmlns="http://www.w3.org/2000/svg" fill="none" viewBox="0 0 16 16"><path fill="currentColor" d="M12.977 7.407c.355-.19.857-.125.857.278v1.333c0 2.177 0 3.266-.633 3.977a3 3 0 0 1-.206.206c-.71.632-1.8.633-3.977.633H6.981c-2.177 0-3.266 0-3.976-.633a3 3 0 0 1-.205-.206c-.633-.71-.633-1.8-.633-3.977V7.685c0-.403.5-.469.855-.278l2.215 1.191c.566.305 1.04.56 1.453.735.428.18.845.3 1.31.3.464 0 .882-.12 1.31-.3.413-.175.887-.43 1.453-.735zm-4.143-5.24c1.57 0 2.356 0 2.845.488.488.488.488 1.274.488 2.845a.75.75 0 0 1-.397.663l-1.797.968c-.592.318-.988.53-1.312.667-.308.13-.497.167-.661.168-.165 0-.353-.038-.661-.168-.325-.138-.72-.349-1.313-.667l-1.795-.966a.76.76 0 0 1-.397-.665c0-1.571 0-2.357.488-2.845s1.274-.488 2.845-.488zM7.167 3.834a.833.833 0 0 0 0 1.666h1.667a.833.833 0 0 0 0-1.666z"></path></svg>