<svg xmlns="http://www.w3.org/2000/svg" fill="none" viewBox="0 0 16 16"><path fill="currentColor" d="M6.646 2.146a1.7 1.7 0 0 1 2.708 0l.508.669c.114.15.3.228.487.202l.833-.114a1.7 1.7 0 0 1 1.915 1.915l-.114.832a.52.52 0 0 0 .201.488l.67.508a1.7 1.7 0 0 1 0 2.708l-.67.508a.52.52 0 0 0-.2.487l.113.833a1.7 1.7 0 0 1-1.915 1.915l-.833-.114a.52.52 0 0 0-.487.201l-.508.67a1.7 1.7 0 0 1-2.708 0l-.508-.67a.52.52 0 0 0-.488-.201l-.832.114a1.7 1.7 0 0 1-1.915-1.915l.114-.833a.52.52 0 0 0-.202-.487l-.669-.508a1.7 1.7 0 0 1 0-2.708l.67-.508a.53.53 0 0 0 .201-.488l-.114-.832a1.7 1.7 0 0 1 1.915-1.915l.832.114a.53.53 0 0 0 .488-.202zm4.395 3.798a.875.875 0 0 0-1.239 0L7.016 8.728l-.893-.894a.876.876 0 0 0-1.238 1.24l1.512 1.513a.876.876 0 0 0 1.24 0l3.404-3.405a.875.875 0 0 0 0-1.238"></path></svg>