<svg xmlns="http://www.w3.org/2000/svg" fill="none" viewBox="0 0 16 16"><path fill="currentColor" d="M8.077 2.576c.533.03.876.398 1.119.754.241.354.49.86.786 1.458l.02.041c.095.194.152.306.2.387.043.069.06.081.061.082l.01.008a.3.3 0 0 0 .097.032c.092.022.215.04.43.071l.044.006c.661.096 1.22.177 1.631.297.415.12.87.334 1.063.832q.027.072.048.146c.137.516-.108.956-.372 1.297-.263.34-.666.733-1.144 1.199l-.033.031c-.155.151-.244.24-.306.31a.3.3 0 0 0-.063.095.3.3 0 0 0 0 .102c.008.094.028.218.064.431l.008.045c.113.658.209 1.214.222 1.642.013.431-.048.93-.462 1.268a2 2 0 0 1-.125.09c-.448.29-.943.194-1.349.048-.403-.145-.902-.408-1.493-.718l-.04-.021a6 6 0 0 0-.39-.195c-.075-.032-.096-.03-.097-.03l-.007-.002-.005.001s-.021-.002-.098.03a6 6 0 0 0-.39.196l-.04.02c-.59.311-1.09.574-1.493.72-.406.145-.9.242-1.348-.049a1 1 0 0 1-.124-.09c-.415-.337-.476-.837-.463-1.268.013-.428.109-.984.222-1.642l.007-.044a6 6 0 0 0 .066-.432.3.3 0 0 0-.005-.113.3.3 0 0 0-.06-.083 6 6 0 0 0-.305-.311l-.033-.031c-.478-.466-.882-.86-1.144-1.199-.264-.34-.509-.781-.371-1.297a1 1 0 0 1 .047-.146c.192-.498.649-.711 1.063-.832.412-.12.97-.2 1.63-.297L5.2 5.41a6 6 0 0 0 .43-.07.3.3 0 0 0 .096-.033l.01-.008s.017-.01.06-.082a2 2 0 0 0 .084-.15l.138-.278c.296-.598.545-1.104.786-1.458.243-.356.586-.725 1.119-.754q.076-.003.154 0"></path></svg>