<svg xmlns="http://www.w3.org/2000/svg" fill="none" viewBox="0 0 16 16"><path fill="currentColor" fill-rule="evenodd" d="M3.654 3.078c-1.602-.01-2.147 1.23-2.15 2.46l-.003.229c-.006.632-.007.815.353 1.097.401.314.658.65.658 1.133 0 .482-.257.819-.658 1.132-.359.28-.356.582-.352 1.13l.001.202c0 1.23.549 2.471 2.151 2.461h8.693c1.602.01 2.151-1.23 2.151-2.46l.001-.203c.005-.548.007-.85-.352-1.13-.401-.313-.658-.65-.658-1.132s.257-.82.658-1.133c.359-.28.357-.576.352-1.123l-.001-.202c0-1.23-.549-2.471-2.151-2.461zm7.329 3.29c-.555-1.003-1.647-1.575-2.842-1.575-.795 0-1.437.255-1.922.562a.665.665 0 0 0-1.285.246v1.27c0 .368.299.667.667.667H6.73a.663.663 0 0 0 .422-1.18c.275-.136.603-.231.989-.231.78 0 1.387.365 1.675.886a.667.667 0 0 0 1.167-.645m-.583 4.698a.667.667 0 0 0 .666-.667V9.13a.666.666 0 0 0-.666-.666H9.252a.667.667 0 0 0-.378 1.215 1.55 1.55 0 0 1-.733.196c-.787 0-1.405-.378-1.689-.915a.667.667 0 1 0-1.178.623c.546 1.033 1.656 1.625 2.867 1.625.668 0 1.225-.242 1.654-.53a.67.67 0 0 0 .605.39" clip-rule="evenodd"></path></svg>