<svg xmlns="http://www.w3.org/2000/svg" viewBox="0 0 16 16"><path fill="currentColor" fill-rule="evenodd" d="M1.6 3.3a.8.8 0 1 0-1.6 0v9.8a.8.8 0 0 0 1.6 0v-4h4.8v4a.8.8 0 0 0 1.6 0V3.3a.8.8 0 1 0-1.6 0v4.2H1.6zm10.673 2c-1.493 0-2.708 1-3.049 2.355a.8.8 0 0 0 1.552.39A1.52 1.52 0 0 1 12.273 6.9h.686c.714 0 1.241.55 1.241 1.165a1 1 0 0 1-.06.337c-.041.112-.13.231-.308.372-.188.148-.418.276-.709.438l-.875.483a7.33 7.33 0 0 0-2.95 3.022A.8.8 0 0 0 10 13.9h5a.8.8 0 0 0 0-1.6h-3.485c.429-.481.938-.89 1.507-1.204l.875-.484.034-.019c.26-.144.595-.329.89-.562.318-.25.643-.593.82-1.078a2.6 2.6 0 0 0 .159-.888c0-1.556-1.301-2.765-2.841-2.765z" clip-rule="evenodd"></path></svg>