<svg xmlns="http://www.w3.org/2000/svg" viewBox="0 0 16 16"><path fill="currentColor" d="M2 1.32a.68.68 0 0 0 0 1.36zm0 4a.68.68 0 0 0 0 1.36zm3 1.36a.68.68 0 0 0 0-1.36zm-3-4h.3V1.32H2zm.82.52V6h1.36V3.2zm.68 2.12H2v1.36h1.5zm0 1.36H5V5.32H3.5zm-1.2-4a.52.52 0 0 1 .52.52h1.36A1.88 1.88 0 0 0 2.3 1.32z"></path><path fill="currentColor" fill-rule="evenodd" d="M8 2.8a.8.8 0 0 1 .8-.8h5a.8.8 0 0 1 0 1.6h-5a.8.8 0 0 1-.8-.8m0 5.5a.8.8 0 0 1 .8-.8h5a.8.8 0 0 1 0 1.6h-5a.8.8 0 0 1-.8-.8m.8 4.7a.8.8 0 0 0 0 1.6h5a.8.8 0 0 0 0-1.6z" clip-rule="evenodd"></path><path fill="currentColor" d="m2 14-.623-.272A.68.68 0 0 0 2 14.68zm3 .68a.68.68 0 1 0 0-1.36zm-3.665-4.57a.68.68 0 1 0 1.33.28zm2.029-.43h.411V8.32h-.411zM2 14.68h3v-1.36H2zm1.775-5c.217 0 .545.234.545.723h1.36c0-1.06-.769-2.083-1.905-2.083zm-.411-1.36c-1.074 0-1.83.843-2.03 1.79l1.331.28c.103-.487.427-.71.699-.71zm-.042 3.105-.04.027.747 1.136.041-.027zm-1.93 2.27-.015.033 1.246.544.015-.033zm1.89-2.243a5.16 5.16 0 0 0-1.89 2.243l1.246.544a3.8 3.8 0 0 1 1.391-1.652l-.748-1.135Zm1.038-1.049c0 .122-.052.258-.232.443-.19.195-.45.371-.766.579l.748 1.135c.291-.191.682-.446.992-.765.32-.329.618-.787.618-1.392z"></path></svg>