<svg xmlns="http://www.w3.org/2000/svg" id="Peatix_svg__logosandtypes_com" viewBox="0 0 150 150.2"><style>.Peatix_svg__st2{fill:#57ab48}</style><g id="Peatix_svg__Layer_3_2_"><g id="Peatix_svg__Layer_2_1_"><path id="Peatix_svg__Layer_3" fill="none" d="M0 .2h150v150H0z"></path></g></g><g id="Peatix_svg__peatix"><path fill="#6dbd46" d="M51.6 10.1c-.6.3-.9.9-.9 1.7 0 .9.6 1.7 1.5 1.7l2.6.6c.9.3 1.5.9 1.5 1.7 0 .9-.6 1.5-.9 1.5-7.8 4.9-43.8 15.1-43.2 60.1.3 25.2 17.7 48.8 34.2 55.4 4.6 2 8.7 1.2 8.7-.3 0-.9-2-4.1-2-4.1-6.4-10.7-12.8-25.5-14.8-45-1.2-11.3-4.1-43.2 38-43.5 20.3 0 38 13.4 36 38.6-1.7 19.2-16.3 31.9-38.9 33.1-2.6.3-4.9 2.6-3.8 5.8 1.7 4.9 6.7 20.3 17.4 18.3 27.9-6.7 49.3-28.7 49-58.9-.6-43-38.6-68.2-75.7-67.9-7.2.3-8.7 1.2-8.7 1.2"></path><path d="M128.6 80.3C128.3 49.9 103 25.5 72 26.1 41.2 26.4 18.8 51 19.1 83c.3 16 9.9 37.4 25.5 47.6.9.6 9.3 4.1 9.9 2-.3-1.2-1.7-4.1-1.7-4.1C46.4 117.8 40 103 38 83.5 36.8 72.2 33.9 40.3 76 40c20.3 0 38 13.4 36 38.6-1.7 19.2-16.3 31.9-38.9 33.1-2.6.3-4.9 2.6-3.8 5.8 1.2 3.5 4.1 11.6 9 16 1.7 1.7 6.4.9 8.1.6 23.6-6.4 42.4-28.2 42.2-53.8" class="Peatix_svg__st2"></path><path d="M67.9 93.1C85.3 92 90.5 83 91.1 75.4c.6-8.1-5.8-19.4-17.7-18-17.1 2.3-16.5 14.5-16 19.4.3 3.8 1.2 7 2 9.9 1.5 3.2 4.4 6.7 8.5 6.4" class="Peatix_svg__st2"></path></g></svg>