<svg xmlns="http://www.w3.org/2000/svg" viewBox="0 0 16 16"><path fill="currentColor" fill-rule="evenodd" d="M11.263.882a.75.75 0 0 1 1.021-.286 9.3 9.3 0 0 1 2.9 2.539.75.75 0 1 1-1.202.897 7.8 7.8 0 0 0-2.433-2.128.75.75 0 0 1-.286-1.022M4.569.88a.75.75 0 0 1-.283 1.023 7.9 7.9 0 0 0-2.435 2.13.75.75 0 0 1-1.202-.898A9.4 9.4 0 0 1 3.547.598.75.75 0 0 1 4.569.88m8.515 8.037a5.167 5.167 0 1 1-10.334 0 5.167 5.167 0 0 1 10.334 0m1.5 0a6.667 6.667 0 1 1-13.333 0 6.667 6.667 0 0 1 13.333 0M8.667 5.583v3.023l.959.959a.75.75 0 1 1-1.06 1.06l-1.18-1.178a.75.75 0 0 1-.219-.544v-3.32a.75.75 0 1 1 1.5 0"></path></svg>