<svg xmlns="http://www.w3.org/2000/svg" viewBox="0 0 24 24"><path fill="currentColor" fill-rule="evenodd" d="M12 21.5a8 8 0 1 0 0-16 8 8 0 0 0 0 16m0 2c5.523 0 10-4.477 10-10s-4.477-10-10-10-10 4.477-10 10 4.477 10 10 10m-.71-9.295a1 1 0 0 1-.29-.725zm.004.003 1.766 1.767a1 1 0 0 0 1.415-1.415L13 13.087V8.5a1 1 0 1 0-2 0v4.98m7.49-12.35a1 1 0 1 0-.98 1.743 11.9 11.9 0 0 1 3.689 3.226A1 1 0 0 0 22.8 4.902a13.9 13.9 0 0 0-4.31-3.773M6.493 2.87a1 1 0 1 0-.986-1.74A14 14 0 0 0 1.2 4.902a1 1 0 1 0 1.6 1.196A12 12 0 0 1 6.493 2.87"></path></svg>