<svg xmlns="http://www.w3.org/2000/svg" viewBox="0 0 24 24"><path fill="currentColor" fill-rule="evenodd" d="M16.748 2.01a1 1 0 0 1 1.362-.38 13 13 0 0 1 4.028 3.532 1 1 0 0 1-1.604 1.195 11 11 0 0 0-3.406-2.986 1 1 0 0 1-.38-1.362m-9.411-.003A1 1 0 0 1 6.96 3.37a11.1 11.1 0 0 0-3.409 2.987 1 1 0 1 1-1.604-1.194A13.1 13.1 0 0 1 5.974 1.63a1 1 0 0 1 1.363.376m14 11.204c0 5.143-4.161 9.313-9.293 9.313-5.133 0-9.294-4.17-9.294-9.313s4.161-9.314 9.294-9.314c5.132 0 9.293 4.17 9.293 9.314m-10.028.678a1 1 0 0 1-.265-.679V8.553a1 1 0 1 1 2 0v4.244l2.03 2.034c.39.39.39 1.025 0 1.416a.997.997 0 0 1-1.413 0l-2.324-2.329z"></path></svg>