<svg xmlns="http://www.w3.org/2000/svg" viewBox="0 0 16 16"><path fill="currentColor" fill-rule="evenodd" d="M7.537.403a2.7 2.7 0 0 0-.99.276c-.375.184-.672.41-1.041.791-.921.951-1.744 2.359-3.614 6.183C.514 10.472.296 10.964.089 11.734c-.071.263-.076.31-.075.813 0 .512.003.542.075.76.147.441.448.913.793 1.238.641.604 1.401.831 3.171.947 2.758.181 5.37.176 8.014-.014 1.206-.087 1.864-.223 2.386-.494.666-.346 1.204-1.011 1.431-1.771.063-.212.072-.286.073-.64.002-.471-.033-.666-.224-1.24-.223-.672-.46-1.192-1.705-3.733-1.857-3.792-2.672-5.185-3.588-6.13-.369-.381-.666-.607-1.04-.791C8.88.423 8.27.333 7.537.403m.891 2.027c.545.187 1.285 1.183 2.344 3.157.475.884 2.312 4.61 2.714 5.506.309.686.487 1.222.487 1.467 0 .127-.122.361-.266.509-.303.312-1.008.409-3.76.518-1.273.05-2.675.05-3.947 0-2.19-.087-3.028-.167-3.48-.335-.267-.099-.547-.453-.546-.692 0-.245.178-.781.486-1.467.404-.898 2.244-4.631 2.714-5.506.76-1.415 1.316-2.27 1.793-2.757.283-.289.476-.402.753-.441.137-.019.611.008.708.041m-.712 2.126c-.239.083-.402.238-.522.499l-.061.132V9.08l.075.152c.096.196.319.401.505.465a.92.92 0 0 0 1.115-.457l.065-.133.008-1.938c.007-1.929.007-1.937-.051-2.093a.95.95 0 0 0-.511-.512.97.97 0 0 0-.623-.008m.014 5.986c-.471.133-.793.628-.716 1.102.09.551.627.938 1.165.839.424-.078.72-.348.823-.75.117-.457-.121-.934-.569-1.14a1.2 1.2 0 0 0-.703-.051"></path></svg>