<svg xmlns="http://www.w3.org/2000/svg" viewBox="0 0 16 16"><path fill="currentColor" fill-rule="evenodd" d="M7.074.604C5.2 1.03 3.972 3.518 1.52 8.496l-.123.25C.255 11.06-.316 12.219.179 13.412c.117.28.347.64.556.869.89.97 2.105 1.03 4.536 1.152a55 55 0 0 0 2.737.067c.833 0 1.651-.026 2.438-.07 2.589-.143 3.883-.215 4.758-1.113.267-.275.527-.684.658-1.035.428-1.15-.17-2.362-1.364-4.786-2.453-4.978-3.68-7.467-5.556-7.892a4.2 4.2 0 0 0-1.868 0m.953 9.253a.875.875 0 0 1-.875-.875v-3.5a.875.875 0 1 1 1.75 0v3.5a.875.875 0 0 1-.875.875m1 2.13a1 1 0 1 1-2 0 1 1 0 0 1 2 0"></path></svg>