<svg xmlns="http://www.w3.org/2000/svg" viewBox="0 0 16 16"><g fill="currentColor" fill-rule="evenodd"><path d="M14 8A6 6 0 1 1 2 8a6 6 0 0 1 12 0m1.5 0a7.5 7.5 0 1 1-15 0 7.5 7.5 0 0 1 15 0"></path><path d="M7.849 4.018a.93.93 0 0 0-.407.261c-.168.204-.164.151-.156 2.264l.007 1.917.059.11q.226.421.673.421a.7.7 0 0 0 .667-.416l.081-.163V6.514c0-2.1.005-2.038-.172-2.245-.174-.204-.506-.315-.752-.25m-.089 6.005a1.01 1.01 0 0 0-.757 1.06c.082 1.007 1.437 1.265 1.902.362a1.04 1.04 0 0 0-.13-1.082c-.236-.276-.682-.426-1.014-.34"></path></g></svg>