<svg xmlns="http://www.w3.org/2000/svg" viewBox="0 0 16 16"><path fill="currentColor" fill-rule="evenodd" d="M2.282 2.282C3.65.915 5.614.25 8 .25c2.114 0 4.048.528 5.469 1.664C14.912 3.07 15.75 4.793 15.75 7v1.333a3.417 3.417 0 0 1-3.417 3.417 2.08 2.08 0 0 1-1.781-1.002A3.75 3.75 0 1 1 8 4.25h.004c1.497.002 2.246 1.25 2.246 1.25 0-.708.175-1.04.42-1.174A.75.75 0 0 1 11.75 5v4.667c0 .322.261.583.583.583a1.917 1.917 0 0 0 1.917-1.917V7c0-1.793-.662-3.07-1.719-3.914C11.452 2.222 9.887 1.75 8 1.75c-2.114 0-3.65.585-4.657 1.593S1.75 5.886 1.75 8s.585 3.65 1.593 4.657S5.886 14.25 8 14.25a.75.75 0 0 1 0 1.5c-2.386 0-4.35-.665-5.718-2.032C.915 12.35.25 10.386.25 8s.665-4.35 2.032-5.718M8 5.75a2.25 2.25 0 1 1 0 4.5 2.25 2.25 0 0 1 0-4.5"></path></svg>