<svg xmlns="http://www.w3.org/2000/svg" viewBox="0 0 16 16"><path fill="currentColor" d="M6.82.391a.753.753 0 0 1 .36 1.461c-.933.23-1.662.86-2.168 1.665-.511.813-.76 1.752-.76 2.486 0 1.69-.508 2.6-1.033 3.274-.54.694-.717.806-.717 1.226 0 .271.056.372.1.425.054.065.196.18.591.286.823.22 2.278.287 4.807.287s3.984-.068 4.807-.287c.395-.106.537-.221.591-.286.044-.053.1-.154.1-.425 0-.281-.095-.459-.36-.786-.264-.328-.712-.81-1.016-1.556a.753.753 0 0 1 1.393-.568c.2.491.468.776.794 1.18.325.402.693.92.693 1.73 0 .477-.1.971-.447 1.387-.336.404-.82.633-1.362.777-.444.118-1 .195-1.68.246-.27 1.597-1.747 2.752-3.433 2.753-1.682 0-3.158-1.15-3.434-2.741-.752-.051-1.36-.13-1.84-.258-.54-.144-1.024-.373-1.36-.777-.347-.416-.448-.91-.448-1.387 0-1.08.698-1.719 1.033-2.15.35-.45.717-1.04.717-2.35 0-1.03.335-2.244.99-3.286C4.398 1.667 5.42.737 6.82.39Zm3.118 12.594q-.872.02-1.938.02-.968 0-1.778-.015c.269.664.968 1.176 1.858 1.176.892 0 1.59-.515 1.858-1.18Z"></path></svg>