<svg xmlns="http://www.w3.org/2000/svg" viewBox="0 0 16 16"><path fill="currentColor" fill-rule="evenodd" d="M15 9.753q-.053.57-.285.999c-.241.447-.844.405-1.203.045L5.21 2.496c-.385-.386-.395-1.022.069-1.308C5.976.76 6.875.5 8 .5c3.331 0 4.679 2.396 4.679 4.502 0 1.417.64 2.05 1.25 2.65.547.544 1.071 1.06 1.071 2.102M3.325 4.798a1.12 1.12 0 0 0-.307-.837l-1.49-1.49a.667.667 0 1 1 .943-.942l11.5 11.5a.667.667 0 1 1-.942.942l-1.288-1.287a1.04 1.04 0 0 0-.831-.293c-.833.078-1.8.109-2.91.109-4.643 0-6.792-.54-7-2.747 0-1.042.523-1.558 1.072-2.1.608-.601 1.25-1.234 1.25-2.651q0-.102.003-.204m3.318 8.816a.75.75 0 1 0-1.286.772c.575.958 1.666 1.364 2.643 1.364s2.068-.406 2.643-1.364a.75.75 0 1 0-1.286-.772c-.225.376-.734.636-1.357.636s-1.132-.26-1.357-.636" clip-rule="evenodd"></path></svg>