<svg xmlns="http://www.w3.org/2000/svg" viewBox="0 0 16 16"><path fill="currentColor" d="M1.528 1.404c.26-.26.683-.26.944 0l11.5 11.5a.667.667 0 0 1-.944.944l-.982-.983q-.251.028-.532.048c-.271 1.596-1.748 2.75-3.434 2.751-1.682 0-3.158-1.15-3.434-2.74-.752-.051-1.36-.13-1.84-.258-.54-.144-1.024-.373-1.36-.776-.348-.417-.448-.91-.448-1.388 0-1.08.698-1.718 1.033-2.15.35-.45.717-1.04.717-2.35 0-.646.132-1.357.384-2.046v-.004L1.529 2.348a.667.667 0 0 1 0-.944ZM9.94 12.982a90 90 0 0 1-3.719.006c.27.664.97 1.176 1.86 1.176.893 0 1.592-.515 1.86-1.182ZM4.345 5.164a4 4 0 0 0-.093.838c0 1.69-.508 2.6-1.033 3.274-.54.694-.717.805-.717 1.226 0 .272.056.373.1.425.054.065.196.18.591.286.823.22 2.278.287 4.807.287 1.047 0 1.916-.015 2.636-.045l-6.291-6.29ZM8 .25c1.783 0 3.115.902 3.977 2.05.847 1.13 1.275 2.54 1.275 3.702 0 1.31.367 1.9.717 2.35.335.432 1.033 1.07 1.033 2.15a.752.752 0 0 1-1.504 0c0-.42-.177-.532-.717-1.226-.525-.675-1.033-1.584-1.033-3.274 0-.837-.322-1.93-.975-2.799-.638-.851-1.556-1.45-2.773-1.45a3.23 3.23 0 0 0-1.938.62.752.752 0 0 1-.88-1.22A4.74 4.74 0 0 1 8 .25"></path></svg>