<svg xmlns="http://www.w3.org/2000/svg" viewBox="0 0 16 16"><path fill="currentColor" d="M13.072 1.25a2.725 2.725 0 0 1 2.725 2.725v8.224a2.725 2.725 0 0 1-2.725 2.725 6.7 6.7 0 0 1-2.8-.616l-2.996-1.385c-.296 1.137-1.297 2-2.53 2-1.476 0-2.623-1.235-2.623-2.697v-.762A3.25 3.25 0 0 1 .25 8.524v-.875a3.25 3.25 0 0 1 2.897-3.23l1.408-.154a4.3 4.3 0 0 0 1.32-.367l4.398-2.032a6.7 6.7 0 0 1 2.8-.616m-9.45 10.976c0 .689.53 1.198 1.123 1.198.58 0 1.097-.486 1.12-1.152a4.3 4.3 0 0 0-1.311-.364l-.932-.102zm9.45-9.476q-.518.001-1.022.104v10.465a5 5 0 0 0 1.021.105c.677 0 1.225-.549 1.225-1.225V3.975c0-.677-.548-1.225-1.225-1.225M6.505 5.26a5.8 5.8 0 0 1-1.787.496L3.31 5.91a1.75 1.75 0 0 0-1.56 1.74v.873a1.75 1.75 0 0 0 1.56 1.74l1.408.154a5.8 5.8 0 0 1 1.787.497l4.046 1.87V3.39z"></path></svg>