<svg xmlns="http://www.w3.org/2000/svg" viewBox="0 0 16 16"><path fill="currentColor" d="M10.533.141c.478 0 .882 0 1.211.026.338.028.664.088.975.247.47.24.853.622 1.093 1.092.158.31.218.637.246.975.027.33.026.733.026 1.21v8.622c0 .477 0 .881-.026 1.21-.028.339-.088.665-.246.976-.24.47-.623.853-1.093 1.092-.31.158-.637.219-.975.246-.33.027-.733.027-1.21.027-.083 0-.125 0-.159-.006a.44.44 0 0 1-.37-.37C10 15.455 10 15.414 10 15.332v-2.707c0-.165 0-.248-.01-.317a.89.89 0 0 0-.74-.738 2 2 0 0 0-.316-.012H7.066a2 2 0 0 0-.316.012.89.89 0 0 0-.74.738c-.01.07-.01.152-.01.317v2.707c0 .082 0 .123-.005.158-.03.19-.18.34-.37.37-.035.005-.076.005-.158.005-.477 0-.88 0-1.21-.027-.338-.027-.664-.088-.975-.246A2.5 2.5 0 0 1 2.19 14.5c-.158-.31-.218-.637-.246-.975-.027-.33-.026-.733-.026-1.211V3.691c0-.477 0-.88.026-1.21.028-.338.088-.664.246-.975.24-.47.623-.853 1.093-1.092.31-.159.637-.219.975-.247.33-.026.733-.026 1.21-.026zM6.222 6.668c-.196 0-.382 0-.525.073a.67.67 0 0 0-.292.292c-.072.142-.072.329-.072.524 0 .196 0 .383.072.526a.67.67 0 0 0 .292.29c.143.073.33.073.525.073s.382 0 .525-.072a.67.67 0 0 0 .291-.291c.073-.143.072-.33.072-.526 0-.195 0-.382-.072-.524a.67.67 0 0 0-.29-.292c-.143-.073-.33-.073-.526-.073m3.555 0c-.195 0-.383 0-.525.073a.67.67 0 0 0-.291.292c-.073.142-.072.329-.072.524 0 .196 0 .383.072.526a.67.67 0 0 0 .291.29c.142.073.33.073.525.073.196 0 .382 0 .525-.072a.67.67 0 0 0 .292-.291c.072-.143.072-.33.072-.526 0-.195 0-.382-.072-.524a.67.67 0 0 0-.292-.292c-.143-.073-.33-.073-.525-.073M6.222 3.113c-.196 0-.382 0-.525.072a.67.67 0 0 0-.292.292c-.072.143-.072.33-.072.524 0 .196 0 .383.072.526a.67.67 0 0 0 .292.29c.143.073.33.073.525.073s.382 0 .525-.072a.67.67 0 0 0 .291-.291c.073-.143.072-.33.072-.526 0-.195 0-.381-.072-.524a.67.67 0 0 0-.29-.292c-.143-.072-.33-.072-.526-.072m3.555 0c-.195 0-.383 0-.525.072a.67.67 0 0 0-.291.292c-.073.143-.072.33-.072.524 0 .196 0 .383.072.526a.67.67 0 0 0 .291.29c.142.073.33.073.525.073.196 0 .382 0 .525-.072a.67.67 0 0 0 .292-.291c.072-.143.072-.33.072-.526 0-.195 0-.382-.072-.524a.67.67 0 0 0-.292-.292c-.143-.072-.33-.072-.525-.072"></path></svg>