<svg xmlns="http://www.w3.org/2000/svg" viewBox="0 0 16 16"><path fill="currentColor" fill-rule="evenodd" d="M3.928.028c-.478.026-.944.104-1.267.213C1.567.607.607 1.567.241 2.661.049 3.234 0 3.863.001 5.787c0 1.31.018 1.702.093 2.066.275 1.328 1.287 2.471 2.589 2.923.491.17.66.191 1.647.204.874.011.91.009 1.086-.047.332-.107.507-.33.562-.717.023-.162.023-.27 0-.432-.054-.383-.228-.607-.553-.714-.153-.05-.234-.057-.712-.057-1.239-.001-1.621-.109-2.115-.6a1.9 1.9 0 0 1-.5-.798l-.085-.242-.008-1.506c-.009-1.671.012-2.163.11-2.5a1.9 1.9 0 0 1 1.247-1.251c.391-.113.738-.121 4.865-.108 3.9.012 4.017.015 4.391.111.465.119.942.517 1.154.961.176.371.204.646.226 2.293.022 1.564.023 1.574.198 1.803.173.226.479.333.887.311.467-.025.734-.203.857-.571.091-.271.067-2.913-.032-3.562-.138-.902-.487-1.597-1.108-2.207-.66-.648-1.386-.973-2.453-1.096-.334-.038-7.762-.059-8.419-.023m4.099 5.309c-.461.074-.875.487-.961.959-.021.118.018.958.186 4 .118 2.118.222 3.911.231 3.984.094.745.863 1.214 1.582.964.378-.131.381-.135 1.445-1.73.875-1.31.964-1.434 1.03-1.434.275-.001 3.321-.218 3.407-.242a1.202 1.202 0 0 0 .407-2.096c-.286-.21-6.497-4.261-6.621-4.318a1.7 1.7 0 0 0-.52-.114 4 4 0 0 0-.186.027"></path></svg>