<svg xmlns="http://www.w3.org/2000/svg" fill="none" viewBox="0 0 16 16"><path fill="currentColor" fill-rule="evenodd" d="M4.879 1.226a.75.75 0 0 0-1.5 0V2.1c-.715.137-1.33.394-1.833.897-.588.588-.84 1.328-.957 2.201-.113.84-.113 1.91-.113 3.231v.593c0 1.323 0 2.39.113 3.231.117.874.369 1.614.957 2.201.587.588 1.327.84 2.2.957.841.113 1.91.113 3.231.113H8.5a.75.75 0 0 0 0-1.5H7.032c-1.39 0-2.357-.001-3.086-.1-.707-.095-1.077-.268-1.34-.53-.262-.263-.436-.633-.53-1.34-.099-.73-.1-1.696-.1-3.086V7.782h12.047l.001.64a.75.75 0 1 0 1.496.077h.004v-.054c0-1.327 0-2.4-.113-3.242-.117-.876-.369-1.617-.957-2.206-.504-.503-1.118-.76-1.833-.897v-.874a.75.75 0 0 0-1.5 0v.725c-.613-.024-1.311-.024-2.099-.024H6.977c-.787 0-1.485 0-2.098.024zm9.118 5.056H2.003q.02-.494.072-.884c.095-.707.269-1.077.531-1.34.263-.262.633-.436 1.34-.531.73-.098 1.696-.1 3.086-.1h1.936c1.39 0 2.356.002 3.085.1.708.095 1.078.269 1.34.531s.436.633.531 1.344q.051.388.073.88m1.548 5.733a.75.75 0 0 0-1.09-1.03l-2.27 2.4-.62-.711a.75.75 0 1 0-1.13.986l1.163 1.333a.75.75 0 0 0 1.11.022z" clip-rule="evenodd"></path></svg>