<svg xmlns="http://www.w3.org/2000/svg" viewBox="0 0 16 16"><path fill="currentColor" fill-rule="evenodd" d="M4.903 1a.75.75 0 0 0-1.5 0v.874c-.715.137-1.33.394-1.833.898-.588.587-.84 1.327-.957 2.2C.5 5.814.5 6.883.5 8.204V10.3c0 .617 0 1.117.026 1.524.027.418.084.791.222 1.146a3.65 3.65 0 0 0 2.082 2.08c.355.138.728.195 1.147.222.407.026.906.026 1.523.026h.025a.75.75 0 0 0 0-1.5c-.648 0-1.099 0-1.452-.023-.347-.022-.547-.064-.7-.123a2.15 2.15 0 0 1-1.226-1.226c-.059-.153-.1-.353-.123-.7A25 25 0 0 1 2 10.274V8.258q-.001-.68.004-1.234h12.04q.005.53.004 1.173a.75.75 0 1 0 1.496.077h.004V8.22c0-1.328 0-2.4-.113-3.243-.117-.876-.368-1.617-.957-2.205-.503-.504-1.118-.76-1.833-.898V1a.75.75 0 0 0-1.5 0v.726c-.613-.024-1.31-.024-2.098-.024H7.002c-.788 0-1.486 0-2.099.024zm9.084 4.524H2.06q.016-.184.039-.352c.095-.707.268-1.077.53-1.34.263-.262.633-.436 1.34-.53.73-.099 1.697-.1 3.086-.1h1.936c1.39 0 2.357.001 3.086.1.707.094 1.077.268 1.34.53.262.262.436.633.53 1.344q.023.165.039.348Zm-5.494 6.498a2.28 2.28 0 1 1 4.56.002 2.28 2.28 0 0 1-4.56-.002m2.281-3.779a3.78 3.78 0 1 0 3.781 3.78 3.78 3.78 0 0 0-3.78-3.78Zm-.79 3.78c0 .213.09.405.233.542l.52.527a.74.74 0 0 0 1.054 0 .76.76 0 0 0 0-1.068l-.306-.31v-.875a.75.75 0 0 0-1.5 0v1.183Z"></path></svg>