<svg xmlns="http://www.w3.org/2000/svg" viewBox="0 0 24 24"><path fill="currentColor" fill-rule="evenodd" d="M6 .5a1 1 0 0 1 1 1v1.065C8.098 2.5 9.398 2.5 10.933 2.5h2.134c1.535 0 2.835 0 3.933.065V1.5a1 1 0 1 1 2 0v1.314c.918.2 1.71.538 2.397 1.124q.359.306.665.665c.779.912 1.12 2.012 1.281 3.343.157 1.293.157 2.929.157 4.987v.134c0 2.058 0 3.694-.157 4.987-.162 1.33-.502 2.431-1.28 3.343a6 6 0 0 1-.666.665c-.912.779-2.012 1.12-3.343 1.281-1.293.157-2.929.157-4.987.157h-2.134c-2.058 0-3.694 0-4.987-.157-1.33-.162-2.431-.502-3.343-1.28a6 6 0 0 1-.665-.666c-.779-.912-1.12-2.012-1.281-3.343C.5 16.761.5 15.125.5 13.067v-.134c0-2.058 0-3.694.157-4.987.162-1.33.502-2.431 1.28-3.343a6 6 0 0 1 .666-.665C3.29 3.352 4.083 3.014 5 2.814V1.5a1 1 0 0 1 1-1m.187 4.142c-1.135.138-1.794.397-2.285.816a4 4 0 0 0-.444.444c-.42.491-.678 1.15-.816 2.285L2.61 8.5h18.783q-.015-.161-.034-.313c-.138-1.135-.397-1.794-.816-2.285a4 4 0 0 0-.444-.444c-.491-.42-1.15-.678-2.285-.816C16.655 4.502 15.14 4.5 13 4.5h-2c-2.14 0-3.655.002-4.813.142M2.5 13c0-.948 0-1.774.013-2.5h18.974c.013.726.013 1.552.013 2.5 0 2.14-.002 3.655-.142 4.813-.138 1.135-.397 1.794-.816 2.285q-.205.24-.444.444c-.491.42-1.15.678-2.285.816-1.158.14-2.673.142-4.813.142h-2c-2.14 0-3.655-.002-4.813-.142-1.135-.138-1.794-.397-2.285-.816a4 4 0 0 1-.444-.444c-.42-.491-.678-1.15-.816-2.285C2.502 16.655 2.5 15.14 2.5 13"></path></svg>