<svg xmlns="http://www.w3.org/2000/svg" viewBox="0 0 16 16"><path fill="currentColor" fill-rule="evenodd" d="M4 .5a1 1 0 0 1 1 1v.037C5.701 1.5 6.51 1.5 7.43 1.5h1.14c.92 0 1.729 0 2.43.037V1.5a1 1 0 1 1 2 0v.36c.493.168.94.422 1.328.812.657.656.929 1.475 1.053 2.403.12.884.119 2 .119 3.354v.141c0 1.355 0 2.471-.119 3.355-.124.928-.396 1.747-1.053 2.403-.656.657-1.475.929-2.403 1.053-.884.12-2 .119-3.354.119H7.43c-1.355 0-2.471 0-3.355-.119-.928-.124-1.747-.396-2.403-1.053-.657-.656-.929-1.475-1.053-2.403-.12-.884-.119-2-.119-3.354V8.43c0-1.355 0-2.471.119-3.355.124-.928.396-1.747 1.053-2.403A3.36 3.36 0 0 1 3 1.86V1.5a1 1 0 0 1 1-1m-.914 3.586c.222-.223.55-.39 1.255-.485C5.076 3.502 6.058 3.5 7.5 3.5h1c1.442 0 2.424.002 3.159.1.706.096 1.033.263 1.255.486.223.222.39.55.485 1.255q.04.299.061.659H2.54q.021-.36.06-.659c.096-.706.263-1.033.486-1.255M2.5 8v.5c0 1.442.002 2.424.1 3.159.096.706.263 1.033.486 1.255.222.223.55.39 1.255.485.735.099 1.717.101 3.159.101h1c1.442 0 2.424-.002 3.159-.1.706-.096 1.033-.263 1.255-.486.223-.222.39-.55.485-1.255.099-.735.101-1.717.101-3.159V8z" clip-rule="evenodd"></path></svg>