<svg xmlns="http://www.w3.org/2000/svg" viewBox="0 0 16 16"><path fill="currentColor" fill-rule="evenodd" d="M4.903 1.25a.75.75 0 0 0-1.5 0v.874c-.715.137-1.33.394-1.833.897-.588.588-.84 1.328-.957 2.201C.5 6.062.5 7.132.5 8.453v.593c0 1.323 0 2.39.113 3.231.117.874.369 1.614.957 2.201.587.588 1.327.84 2.2.957.841.113 1.91.113 3.231.113h1.523a.75.75 0 1 0 0-1.5H7.056c-1.39 0-2.357-.001-3.086-.1-.707-.095-1.077-.268-1.34-.53-.262-.263-.436-.633-.53-1.34-.099-.73-.1-1.696-.1-3.086V7.806h12.048v.14a.75.75 0 1 0 1.496.078l.004.001V7.98c0-1.097 0-1.983-.08-2.69-.082-.732-.258-1.365-.675-1.908a3.7 3.7 0 0 0-.674-.675c-.433-.332-.923-.51-1.474-.612v-.844a.75.75 0 1 0-1.5 0v.715c-.482-.014-1.021-.014-1.624-.014h-2.52c-.787 0-1.485 0-2.098.024zm8.402 8.196 2 2c.224.224.26.575.085.84l-.085.104-2 2a.668.668 0 0 1-.944-.944l.862-.861H9.166a.667.667 0 0 1 0-1.334h4.057l-.862-.861a.668.668 0 0 1 .944-.944M10.07 3.452c.843.002 1.47.013 1.973.07.598.067.924.191 1.162.374q.225.173.398.398c.183.238.307.564.375 1.162.028.25.045.529.055.85H2.027q.015-.444.073-.884c.094-.707.268-1.077.53-1.34.263-.262.633-.436 1.34-.531.607-.082 1.38-.096 2.425-.098Z"></path></svg>