<svg xmlns="http://www.w3.org/2000/svg" viewBox="0 0 16 16"><path fill="currentColor" fill-rule="evenodd" d="M6.188 1.5a1 1 0 0 0-2 0v2.037a.75.75 0 0 1-1.156-.63v-.802c-.725.117-1.246.336-1.653.742C.5 3.727.5 5.14.5 7.97v1.593c0 2.829 0 4.243.879 5.122.878.879 2.293.879 5.121.879h3c2.828 0 4.243 0 5.121-.88.879-.878.879-2.292.879-5.12V7.969c0-2.829 0-4.243-.879-5.122-.525-.525-1.243-.736-2.34-.821V1.5a1 1 0 1 0-2 0v2.195A.75.75 0 0 1 9.25 3v-.938q0-.047.006-.093H6.188zM5.25 7.813a.75.75 0 1 1-1.5 0 .75.75 0 0 1 1.5 0m0 3.5a.75.75 0 1 1-1.5 0 .75.75 0 0 1 1.5 0M8 8.563a.75.75 0 1 0 0-1.5.75.75 0 0 0 0 1.5m.75 2.75a.75.75 0 1 1-1.5 0 .75.75 0 0 1 1.5 0m2.75-2.75a.75.75 0 1 0 0-1.5.75.75 0 0 0 0 1.5m.75 2.75a.75.75 0 1 1-1.5 0 .75.75 0 0 1 1.5 0"></path></svg>