<svg xmlns="http://www.w3.org/2000/svg" viewBox="0 0 16 16"><path fill="currentColor" fill-rule="evenodd" d="M8 15.5a.75.75 0 0 0 .75-.75V10.5h.041c.872 0 1.609 0 2.159-.08s1.195-.277 1.5-.928c.305-.65.043-1.273-.248-1.746-.29-.474-.762-1.04-1.32-1.71l-.04-.047-.422-.507-.033-.04c-.399-.478-.748-.897-1.072-1.19-.348-.314-.769-.578-1.315-.578s-.966.264-1.315.578c-.324.293-.673.712-1.071 1.19l-.034.04-.422.507-.04.047c-.557.67-1.03 1.236-1.32 1.71-.29.473-.552 1.096-.248 1.746.305.651.95.848 1.5.928s1.288.08 2.16.08h.04v4.25c0 .414.336.75.75.75M4.921 8.85c.046.022.145.057.345.086C5.695 8.998 6.321 9 7.27 9h1.46c.95 0 1.576-.002 2.004-.064.2-.03.3-.064.345-.086a1.3 1.3 0 0 0-.155-.32c-.227-.369-.626-.851-1.234-1.58l-.422-.507c-.442-.53-.723-.865-.958-1.077-.213-.193-.29-.192-.308-.192h-.003c-.02 0-.096 0-.308.192-.235.212-.516.546-.958 1.077l-.423.507c-.608.729-1.007 1.211-1.234 1.58a1.2 1.2 0 0 0-.155.32M14 2a.75.75 0 0 0 0-1.5H2A.75.75 0 1 0 2 2z"></path></svg>