<svg xmlns="http://www.w3.org/2000/svg" viewBox="0 0 16 16"><path fill="currentColor" fill-rule="evenodd" d="M7.467.017a8.03 8.03 0 0 0-5.859 3.176C.799 4.26.296 5.477.073 6.906c-.082.523-.082 1.665 0 2.188.342 2.194 1.403 3.995 3.122 5.299 1.062.806 2.286 1.312 3.711 1.534.523.082 1.665.082 2.188 0 1.944-.303 3.596-1.179 4.836-2.565 1.1-1.229 1.735-2.587 1.997-4.268.082-.523.082-1.665 0-2.188-.222-1.425-.728-2.649-1.534-3.711A8 8 0 0 0 9 .066 13 13 0 0 0 7.467.017m3.717 4.505a1.14 1.14 0 0 0-.54.315c-.073.074-.945 1.098-1.94 2.274a128 128 0 0 1-1.827 2.14c-.012 0-.374-.368-.803-.816-1.144-1.196-1.19-1.234-1.558-1.299a1.2 1.2 0 0 0-.67.091 1.11 1.11 0 0 0-.5 1.435c.07.157.209.31 1.655 1.814.66.686 1.262 1.29 1.339 1.34.146.1.416.184.589.184.174 0 .434-.083.595-.19.117-.077.684-.729 2.478-2.85 1.562-1.846 2.354-2.802 2.41-2.916.077-.15.088-.2.089-.43 0-.346-.064-.524-.271-.748a1.12 1.12 0 0 0-1.046-.344"></path></svg>