<svg xmlns="http://www.w3.org/2000/svg" viewBox="0 0 16 16"><path fill="currentColor" fill-rule="evenodd" d="M13.56 2.878a.7.7 0 0 0-.325.172c-.056.05-1.53 1.904-3.275 4.12a652 652 0 0 1-3.187 4.029c-.012.001-.647-.575-3.214-2.917-.392-.357-.655-.576-.732-.611a.81.81 0 0 0-.629.016.8.8 0 0 0-.365.388c-.07.159-.057.447.028.622.049.1.478.504 2.32 2.183 1.559 1.423 2.296 2.078 2.379 2.115a.78.78 0 0 0 .833-.163c.179-.188 6.948-8.796 7.009-8.914a.78.78 0 0 0 0-.617.95.95 0 0 0-.388-.383.94.94 0 0 0-.454-.04"></path></svg>