<svg xmlns="http://www.w3.org/2000/svg" viewBox="0 0 16 16"><path fill="currentColor" fill-rule="evenodd" d="M8 .5a7.5 7.5 0 1 1 0 15 7.5 7.5 0 0 1 0-15M8 2a6 6 0 1 0 0 12A6 6 0 0 0 8 2m3.23 2.789a.8.8 0 0 0-.186.101c-.046.035-.965 1.108-2.043 2.385S7.03 9.596 7.015 9.595s-.183-.165-.374-.365c-1.83-1.918-1.807-1.896-2.146-1.896a.73.73 0 0 0-.687.449c-.057.123-.065.17-.054.338a.63.63 0 0 0 .077.302c.035.06.673.744 1.418 1.52 1.507 1.57 1.464 1.533 1.806 1.536a.6.6 0 0 0 .327-.075c.147-.072.263-.204 2.447-2.786 1.277-1.511 2.318-2.764 2.35-2.831.177-.368-.035-.861-.43-1a.9.9 0 0 0-.519.002"></path></svg>