<svg xmlns="http://www.w3.org/2000/svg" viewBox="0 0 16 16"><path fill="currentColor" fill-rule="evenodd" d="M9.237 1.556a.97.97 0 0 0-.545.484c-.026.059-.662 2.771-1.413 6.027-1.238 5.369-1.364 5.936-1.353 6.093a.85.85 0 0 0 .604.759.93.93 0 0 0 .633-.041.96.96 0 0 0 .411-.408c.046-.103 2.716-11.591 2.775-11.937a.87.87 0 0 0-.497-.924c-.176-.08-.457-.105-.615-.053M4.072 3.947a1 1 0 0 0-.186.069C3.756 4.081.468 7.369.343 7.558a1.37 1.37 0 0 0 0 1.471c.066.099.729.781 1.781 1.83 1.823 1.819 1.771 1.774 2.103 1.801a.86.86 0 0 0 .908-.66.83.83 0 0 0-.058-.588c-.057-.123-.298-.377-1.551-1.632L2.042 8.293l1.484-1.486c1.591-1.594 1.59-1.592 1.635-1.904a1 1 0 0 0-.112-.548.97.97 0 0 0-.4-.36 1.2 1.2 0 0 0-.577-.048m7.435.009a.92.92 0 0 0-.548.464.95.95 0 0 0-.025.687c.057.152.129.23 1.569 1.673l1.509 1.513-1.509 1.514c-1.423 1.426-1.513 1.522-1.566 1.667a.85.85 0 0 0 .207.929c.307.307.72.351 1.083.114.073-.048.878-.835 1.788-1.749 1.791-1.797 1.775-1.779 1.864-2.157a1.34 1.34 0 0 0 0-.635c-.09-.38-.069-.356-1.904-2.195-1.513-1.517-1.712-1.707-1.852-1.77-.187-.085-.454-.109-.616-.055"></path></svg>