<svg xmlns="http://www.w3.org/2000/svg" viewBox="0 0 16 16"><path fill="currentColor" fill-rule="evenodd" d="M3.85.75c-.908 0-1.702.328-2.265.933-.558.599-.835 1.41-.835 2.29V7.88c0 .801.23 1.548.697 2.129.472.587 1.15.96 1.951 1.06a.75.75 0 1 0 .185-1.489c-.435-.054-.752-.243-.967-.51-.219-.273-.366-.673-.366-1.19V3.973c0-.568.176-.993.433-1.268.25-.27.632-.455 1.167-.455h4.146c.479 0 .828.146 1.071.359.246.215.43.54.497.979a.75.75 0 0 0 1.483-.23c-.115-.739-.447-1.4-.99-1.877C9.51 1 8.796.75 7.996.75zM7.9 4.828c-.908 0-1.702.326-2.265.93-.558.6-.835 1.41-.835 2.29v3.905c0 .879.275 1.69.833 2.289.563.605 1.357.931 2.267.931h4.144c.91 0 1.705-.326 2.268-.931.558-.599.833-1.41.833-2.289V8.048c0-.879-.275-1.69-.833-2.289-.563-.605-1.357-.931-2.267-.931zm-1.6 3.22c0-.568.176-.992.432-1.266.25-.27.632-.454 1.168-.454h4.145c.54 0 .92.185 1.17.453.255.274.43.698.43 1.267v3.905c0 .569-.175.993-.43 1.267-.25.268-.631.453-1.17.453H7.898c-.54 0-.92-.185-1.17-.453-.255-.274-.43-.698-.43-1.267z"></path></svg>