<svg xmlns="http://www.w3.org/2000/svg" fill="none" viewBox="0 0 16 16"><g clip-path="url(#Coupon16_svg__a)"><path fill="currentColor" fill-rule="evenodd" d="M10 .75c-.944 0-1.58.325-2.06.599l-.087.05c-.443.253-.613.351-.853.351a.4.4 0 0 1-.158-.025.4.4 0 0 1-.118-.073c-.507-.41-1.18-.544-1.752-.167-.511.336-.722.942-.722 1.515 0 .826-.007 1.703-.216 2.374-.1.323-.231.536-.377.665-.13.116-.321.211-.657.211-.19 0-.413-.107-.69-.375-.34-.332-.833-.469-1.29-.304-.477.172-.77.622-.77 1.136V13A2.75 2.75 0 0 0 3 15.75h9A3.75 3.75 0 0 0 15.75 12V3c0-.573-.211-1.179-.722-1.515-.573-.377-1.245-.244-1.752.167a.4.4 0 0 1-.118.073.4.4 0 0 1-.158.025c-.24 0-.41-.098-.853-.35l-.087-.051C11.58 1.075 10.944.75 10 .75m-4.25 2.3V13c0 .45-.108.875-.3 1.25H12A2.25 2.25 0 0 0 14.25 12V3a.7.7 0 0 0-.023-.188l-.007.006A1.87 1.87 0 0 1 13 3.25c-.666 0-1.194-.311-1.56-.527l-.125-.072c-.396-.226-.759-.401-1.315-.401s-.92.175-1.315.401q-.059.034-.124.072c-.367.216-.895.527-1.561.527-.542 0-.927-.195-1.22-.432l-.007-.006A.7.7 0 0 0 5.75 3zM3 7.75c.473 0 .892-.104 1.25-.303V13a1.25 1.25 0 1 1-2.5 0V7.347c.336.225.754.403 1.25.403M8 8a1 1 0 1 0 0-2 1 1 0 0 0 0 2m.53 3.53 4-4a.75.75 0 0 0-1.06-1.06l-4 4a.75.75 0 1 0 1.06 1.06M13 11a1 1 0 1 1-2 0 1 1 0 0 1 2 0" clip-rule="evenodd"></path></g><defs><clipPath id="Coupon16_svg__a"><path fill="#fff" d="M0 0h16v16H0z"></path></clipPath></defs></svg>