<svg xmlns="http://www.w3.org/2000/svg" fill="none" viewBox="0 0 16 16"><path fill="currentColor" fill-rule="evenodd" d="M0 7.5v-.457c0-.373 0-.559.118-.676s.304-.117.678-.117h14.408c.374 0 .561 0 .678.117s.117.303.118.676V8.5c0 2.828 0 4.243-.879 5.121-.878.879-2.293.879-5.121.879H6c-2.828 0-4.243 0-5.121-.879C0 12.743 0 11.328 0 8.5zm15.84-3.605c.07.377.106.566-.014.71s-.327.145-.743.145H.917c-.416 0-.623 0-.743-.144-.12-.145-.085-.334-.014-.711.122-.654.338-1.135.719-1.516C1.757 1.5 3.172 1.5 6 1.5h4c2.828 0 4.243 0 5.121.879.381.38.597.862.72 1.516M3.75 10a.75.75 0 0 0 0 1.5h1.5a.75.75 0 0 0 0-1.5z" clip-rule="evenodd"></path></svg>