<svg xmlns="http://www.w3.org/2000/svg" viewBox="0 0 16 16"><path fill="currentColor" fill-rule="evenodd" d="M6.93 1h2.14c1.355 0 2.471 0 3.355.119.928.125 1.747.396 2.403 1.053.657.656.928 1.475 1.053 2.403.119.884.119 2 .119 3.354v.141c0 1.355 0 2.471-.119 3.355-.125.928-.396 1.747-1.053 2.403-.656.657-1.475.928-2.403 1.053-.884.119-2 .119-3.354.119H6.93c-1.355 0-2.471 0-3.355-.119-.928-.125-1.747-.396-2.403-1.053-.657-.656-.929-1.475-1.053-2.403C0 10.541 0 9.425 0 8.071V7.93c0-1.355 0-2.471.119-3.355.124-.928.396-1.747 1.053-2.403.656-.657 1.475-.928 2.403-1.053C4.459 1 5.575 1 6.929 1ZM3.84 3.1c-.706.096-1.033.263-1.255.486-.223.222-.39.55-.485 1.255L2.08 5h11.837l-.019-.159c-.095-.706-.262-1.033-.485-1.255-.222-.223-.55-.39-1.255-.485C11.424 3.002 10.442 3 9 3H7c-1.442 0-2.424.002-3.159.1ZM2 8q0-.54.002-1h11.996q.003.46.002 1c0 1.442-.002 2.424-.1 3.159-.096.706-.263 1.033-.486 1.255-.222.223-.55.39-1.255.485-.735.099-1.717.101-3.159.101H7c-1.442 0-2.424-.002-3.159-.1-.706-.096-1.033-.263-1.255-.486-.223-.222-.39-.55-.485-1.255C2.002 10.424 2 9.442 2 8m3 1a1 1 0 1 0 0 2h1a1 1 0 1 0 0-2z"></path></svg>