<svg xmlns="http://www.w3.org/2000/svg" viewBox="0 0 16 16"><path fill="currentColor" fill-rule="evenodd" d="M7.75 0h-.055c-1.367 0-2.47 0-3.337.117-.9.12-1.658.38-2.26.981-.602.602-.86 1.36-.981 2.26C1 4.225 1 5.328 1 6.695v2.11c0 1.368 0 2.47.117 3.337.12.9.38 1.658.981 2.26.602.602 1.36.86 2.26.982.867.116 1.97.116 3.337.116h.11c1.367 0 2.47 0 3.337-.116.9-.121 1.658-.38 2.26-.982s.86-1.36.982-2.26c.116-.867.116-1.97.116-3.337v-2.11c0-1.367 0-2.47-.116-3.337-.121-.9-.38-1.658-.982-2.26s-1.36-.86-2.26-.981C10.275 0 9.172 0 7.805 0zM3.159 2.159c.277-.277.665-.457 1.4-.556.754-.101 1.756-.103 3.191-.103s2.437.002 3.192.103c.734.099 1.122.28 1.399.556.277.277.457.665.556 1.4.101.754.103 1.756.103 3.191v2c0 1.435-.002 2.437-.103 3.192-.099.734-.28 1.122-.556 1.399-.277.277-.665.457-1.4.556-.754.101-1.756.103-3.191.103s-2.437-.002-3.192-.103c-.734-.099-1.122-.28-1.399-.556-.277-.277-.457-.665-.556-1.4-.101-.754-.103-1.756-.103-3.191v-2c0-1.435.002-2.437.103-3.192.099-.734.28-1.122.556-1.399M4.5 7.25a.75.75 0 0 1 .75-.75h2a.75.75 0 0 1 0 1.5h-2a.75.75 0 0 1-.75-.75m0 3.5a.75.75 0 0 1 .75-.75h4a.75.75 0 0 1 0 1.5h-4a.75.75 0 0 1-.75-.75"></path></svg>