<svg xmlns="http://www.w3.org/2000/svg" fill="none" viewBox="0 0 16 16"><path fill="currentColor" fill-rule="evenodd" d="M8 0a1 1 0 0 0-1 1v.866c-.867.118-1.648.399-2.279.86C3.822 3.385 3.3 4.364 3.3 5.5c0 .63.19 1.19.544 1.657.337.445.778.749 1.203.966.587.3 1.298.508 1.953.676v2.9c-.672-.156-.953-.456-1.08-.637a1.3 1.3 0 0 1-.22-.574v-.013a1.2 1.2 0 0 0-2.4.025h1.2c-1.2 0-1.2 0-1.2.002v.033a2 2 0 0 0 .013.192 3.7 3.7 0 0 0 .642 1.711c.577.825 1.55 1.492 3.045 1.697V15a1 1 0 1 0 2 0v-.867c1.146-.16 2.021-.6 2.645-1.219.77-.763 1.055-1.702 1.055-2.414 0-1.391-.748-2.301-1.671-2.862-.615-.373-1.349-.618-2.03-.806v-2.53c.384.086.668.219.863.362.304.222.438.493.438.836a1.2 1.2 0 0 0 2.4 0c0-1.137-.523-2.116-1.421-2.773-.631-.462-1.413-.743-2.28-.861V1a1 1 0 0 0-1-1M7 4.302c-.383.086-.667.219-.862.362-.304.222-.438.493-.438.836 0 .12.028.17.057.208.046.06.151.16.383.279.24.122.525.224.86.324zM9 9.34v2.354c.499-.12.788-.32.955-.484.28-.279.345-.59.345-.711 0-.359-.127-.574-.517-.81A4 4 0 0 0 9 9.34" clip-rule="evenodd"></path></svg>