<svg xmlns="http://www.w3.org/2000/svg" fill="none" viewBox="0 0 16 16"><path fill="currentColor" fill-rule="evenodd" d="M8.75 1a.75.75 0 0 0-1.5 0v1.28c-.987.085-1.796.347-2.398.815C4.07 3.704 3.75 4.57 3.75 5.5c0 .508.13.965.386 1.36.251.389.599.68.978.908.594.356 1.349.602 2.136.813v3.632c-.724-.078-1.19-.269-1.477-.492-.343-.267-.523-.652-.523-1.221a.75.75 0 0 0-1.5 0c0 .93.32 1.796 1.102 2.405.602.468 1.411.73 2.398.814V15a.75.75 0 0 0 1.5 0v-1.28c.987-.085 1.796-.347 2.398-.816.782-.608 1.102-1.473 1.102-2.404 0-.508-.13-.965-.386-1.36-.251-.389-.599-.68-.978-.908-.594-.356-1.349-.602-2.136-.813V3.787c.724.078 1.19.269 1.477.493.343.266.523.65.523 1.22a.75.75 0 0 0 1.5 0c0-.93-.32-1.796-1.102-2.405-.602-.468-1.411-.73-2.398-.814zm-1.5 2.787c-.724.078-1.19.269-1.477.493-.343.266-.523.65-.523 1.22 0 .242.058.41.145.546.093.143.245.289.49.436.344.206.8.376 1.365.541zm1.5 5.19v3.236c.724-.078 1.19-.269 1.477-.492.343-.267.523-.652.523-1.221a.96.96 0 0 0-.145-.546c-.093-.143-.245-.289-.49-.436-.344-.206-.8-.376-1.365-.541" clip-rule="evenodd"></path></svg>