<svg xmlns="http://www.w3.org/2000/svg" fill="none" viewBox="0 0 16 16"><path fill="currentColor" fill-rule="evenodd" d="M6.8.25h-.032c-.813 0-1.469 0-2 .043-.546.045-1.026.14-1.47.366a3.75 3.75 0 0 0-1.64 1.639c-.226.444-.32.924-.365 1.47-.043.531-.043 1.187-.043 2v4.464c0 .813 0 1.469.043 2 .045.546.14 1.026.366 1.47a3.75 3.75 0 0 0 1.639 1.64c.444.226.924.32 1.47.365.531.043 1.187.043 2 .043h2.464c.813 0 1.469 0 2-.043.546-.045 1.026-.14 1.47-.366a3.75 3.75 0 0 0 1.64-1.638c.226-.445.32-.925.365-1.471.043-.531.043-1.187.043-2V5.768c0-.813 0-1.469-.043-2-.045-.546-.14-1.026-.366-1.47a3.75 3.75 0 0 0-1.638-1.64c-.445-.226-.925-.32-1.471-.365C10.7.25 10.045.25 9.232.25zM3.979 1.995c.197-.1.458-.17.912-.207.462-.037 1.057-.038 1.909-.038h2.4c.853 0 1.447 0 1.91.038.453.037.714.107.912.207.423.216.767.56.983.984.1.197.17.458.207.912.037.462.038 1.057.038 1.909v4.4c0 .853 0 1.447-.038 1.91-.037.453-.107.714-.207.912-.216.423-.56.767-.984.983-.197.1-.458.17-.912.207-.462.037-1.056.038-1.909.038H6.8c-.852 0-1.447 0-1.91-.038-.453-.037-.714-.107-.911-.207a2.25 2.25 0 0 1-.984-.984c-.1-.197-.17-.458-.207-.912-.037-.462-.038-1.056-.038-1.909V5.8c0-.852 0-1.447.038-1.91.037-.453.107-.714.207-.911a2.25 2.25 0 0 1 .984-.984m1.544 2.31a.6.6 0 0 1 .18-.043c.098-.011.195-.012.297-.012h4c.102 0 .2 0 .297.012.1.012.157.03.18.043a.5.5 0 0 1 .218.218c.012.023.031.08.043.18.011.098.012.195.012.297s0 .2-.012.297a.6.6 0 0 1-.043.18.5.5 0 0 1-.218.218.6.6 0 0 1-.18.043A3 3 0 0 1 10 5.75H6c-.102 0-.2 0-.297-.012a.6.6 0 0 1-.18-.043.5.5 0 0 1-.218-.218.6.6 0 0 1-.043-.18A3 3 0 0 1 5.25 5c0-.102 0-.2.012-.297a.6.6 0 0 1 .043-.18.5.5 0 0 1 .218-.218M6 2.75h-.026c-.191 0-.7-.003-1.132.218a2 2 0 0 0-.874.874c-.22.433-.219.941-.218 1.132v.052c0 .191-.003.7.218 1.132a2 2 0 0 0 .874.874c.433.22.941.219 1.132.218h4.053c.19 0 .698.003 1.131-.218a2 2 0 0 0 .874-.874c.22-.433.219-.941.218-1.132v-.052c0-.191.003-.7-.218-1.132a2 2 0 0 0-.874-.874c-.433-.22-.941-.219-1.131-.218zM4.25 12a.75.75 0 0 1 .75-.75h5a.75.75 0 0 1 0 1.5H5a.75.75 0 0 1-.75-.75M5 8.5A.75.75 0 0 0 5 10h2a.75.75 0 0 0 0-1.5z" clip-rule="evenodd"></path></svg>