<svg xmlns="http://www.w3.org/2000/svg" fill="none" viewBox="0 0 16 16"><path fill="currentColor" fill-rule="evenodd" d="M12.986 4.633a7.417 7.417 0 0 0-9.972 0c-.315.287-.65.67-1.227 1.328l-.044.05-.022.027c-.124.141-.22.25-.298.36a2.75 2.75 0 0 0 0 3.205c.078.108.173.217.296.358l.002.001.022.026.044.05c.577.66.912 1.042 1.227 1.329a7.417 7.417 0 0 0 9.972 0c.316-.287.65-.67 1.227-1.328l.044-.05.023-.027c.124-.141.22-.25.298-.36a2.75 2.75 0 0 0 0-3.205 6 6 0 0 0-.298-.36l-.023-.025-.043-.05h-.001c-.577-.66-.911-1.042-1.227-1.329m-8.963 1.11a5.917 5.917 0 0 1 7.955 0c.243.222.518.534 1.15 1.257.157.18.2.23.23.272a1.25 1.25 0 0 1 0 1.456c-.03.042-.073.093-.23.272-.632.723-.907 1.035-1.15 1.256a5.916 5.916 0 0 1-7.955 0c-.244-.22-.518-.533-1.15-1.256a5 5 0 0 1-.231-.272 1.25 1.25 0 0 1 0-1.456A5 5 0 0 1 2.872 7c.633-.723.907-1.035 1.15-1.256M8 9.5a1.5 1.5 0 1 0 0-3 1.5 1.5 0 0 0 0 3" clip-rule="evenodd"></path></svg>