<svg xmlns="http://www.w3.org/2000/svg" viewBox="0 0 16 16"><path fill="currentColor" fill-rule="evenodd" d="M2.55 1.293a1 1 0 0 0-1.415 1.414L2.788 4.36l-.1.088c-.326.297-.67.69-1.236 1.337l-.055.062-.026.03c-.12.137-.224.256-.309.375a3 3 0 0 0 0 3.496c.085.12.19.238.31.375l.025.03.055.062c.566.648.91 1.04 1.236 1.337a7.67 7.67 0 0 0 8.51 1.219l1.937 1.936a1 1 0 0 0 1.415-1.414zm7.12 9.948L8.36 9.932a2.003 2.003 0 0 1-2.45-2.45L4.206 5.778a6 6 0 0 0-.173.151c-.23.209-.493.507-1.13 1.235a6 6 0 0 0-.216.253 1 1 0 0 0 0 1.166c.022.03.055.07.216.253.637.728.9 1.026 1.13 1.235a5.67 5.67 0 0 0 5.636 1.17m4.563-1.026-.082.094-1.417-1.418.048-.055c.161-.184.194-.224.216-.253a1 1 0 0 0 0-1.166 4 4 0 0 0-.216-.253c-.637-.728-.9-1.026-1.13-1.235A5.65 5.65 0 0 0 8.32 4.477l-1.89-1.89a7.66 7.66 0 0 1 6.567 1.861c.326.297.67.69 1.236 1.337l.054.062.027.03c.12.137.223.256.309.375a3 3 0 0 1 0 3.496c-.086.12-.19.238-.31.375l-.026.03z"></path></svg>