<svg xmlns="http://www.w3.org/2000/svg" viewBox="0 0 16 16"><path fill="currentColor" fill-rule="evenodd" d="M2.623 1.22a.75.75 0 0 0-1.06 1.06l1.844 1.845q-.153.125-.3.258c-.316.287-.65.67-1.228 1.329l-.043.05-.023.026c-.124.141-.22.25-.298.36a2.75 2.75 0 0 0 0 3.204c.078.11.174.219.298.36l.023.026.043.05c.577.66.912 1.042 1.227 1.329a7.42 7.42 0 0 0 8.392 1.1l2.064 2.063a.75.75 0 0 0 1.06-1.06l-12-12Zm7.747 9.868-1.69-1.69a1.75 1.75 0 0 1-2.237-2.237L4.475 5.193a6 6 0 0 0-.36.302c-.242.22-.517.533-1.15 1.256-.157.179-.2.23-.23.272a1.25 1.25 0 0 0 0 1.456c.03.042.073.093.23.272.633.723.908 1.035 1.15 1.256a5.92 5.92 0 0 0 6.256 1.082Zm3.936-1.3c-.244.278-.444.507-.618.7l-1.062-1.062c.157-.175.348-.394.594-.676.158-.179.2-.23.23-.272a1.25 1.25 0 0 0 0-1.456 4 4 0 0 0-.23-.272c-.632-.723-.907-1.035-1.15-1.256a5.91 5.91 0 0 0-4.85-1.472L5.968 2.767a7.42 7.42 0 0 1 7.112 1.616c.315.287.65.67 1.227 1.329l.043.05.023.026c.124.141.22.25.298.36a2.75 2.75 0 0 1 0 3.204c-.078.11-.174.219-.298.36l-.023.026-.043.05Z"></path></svg>