<svg xmlns="http://www.w3.org/2000/svg" viewBox="0 0 16 16"><path fill="currentColor" fill-rule="evenodd" d="M4.112 3.7a2.05 2.05 0 0 1 1.73-.95h4.392a2.05 2.05 0 0 1 1.73.95l1.688 2.652c.267.42.224.965-.105 1.338L9.05 12.786a1.35 1.35 0 0 1-2.024 0L2.529 7.69a1.12 1.12 0 0 1-.104-1.338zm1.73-2.45a3.55 3.55 0 0 0-2.995 1.644L1.159 5.546a2.62 2.62 0 0 0 .246 3.136L5.9 13.778a2.85 2.85 0 0 0 4.274 0l4.497-5.096a2.62 2.62 0 0 0 .245-3.136L13.23 2.894a3.55 3.55 0 0 0-2.995-1.644zm.672 2.178a.75.75 0 0 1 .75.75v.87c0 .155.105.393.425.63.313.233.703.363 1.002.363a.75.75 0 1 1 0 1.5c-.299 0-.69.13-1.002.362-.32.238-.425.476-.425.63v.871a.75.75 0 0 1-1.5 0v-.87c0-.155-.106-.393-.426-.63-.312-.233-.703-.363-1.002-.363a.75.75 0 0 1 0-1.5c.3 0 .69-.13 1.002-.362.32-.238.426-.476.426-.63v-.871a.75.75 0 0 1 .75-.75"></path></svg>