<svg xmlns="http://www.w3.org/2000/svg" viewBox="0 0 24 24"><path fill-rule="evenodd" d="M5.887 5.7c-.89-1.358-.904-3.21.324-4.439C7.64-.167 9.912.083 11.27 1.441c.405.405.717.887.912 1.418a3.9 3.9 0 0 1 .912-1.419c1.357-1.357 3.63-1.607 5.058-.179 1.228 1.229 1.215 3.081.324 4.439h.078c.88 0 1.32 0 1.688.061a4.5 4.5 0 0 1 3.698 3.698c.061.368.061.808.061 1.688 0 .235 0 .352-.016.45a1.2 1.2 0 0 1-.987.987c-.098.016-.215.016-.45.016H1.453c-.235 0-.352 0-.45-.016a1.2 1.2 0 0 1-.987-.986C0 11.499 0 11.382 0 11.148c0-.88 0-1.32.061-1.689A4.5 4.5 0 0 1 3.76 5.761c.368-.061.808-.061 1.688-.061h.44Zm2.021-2.742c-.325.326-.415 1.07.18 1.665.222.222.482.358.748.412l.307.054h.001c.307.054.693.121 1.078.183-.062-.384-.13-.769-.183-1.075l-.054-.31a1.48 1.48 0 0 0-.413-.75c-.594-.594-1.338-.504-1.664-.179m8.546 0c.325.326.415 1.07-.18 1.665a1.47 1.47 0 0 1-.748.412l-.308.054c-.307.054-.693.121-1.078.183.062-.384.13-.769.183-1.076l.054-.31c.055-.267.191-.527.413-.749.594-.594 1.338-.504 1.664-.179M10.8 17.7c0-1.414 0-2.121-.44-2.56-.439-.44-1.146-.44-2.56-.44H4.5c-1.435 0-2.153 0-2.595.455-.442.456-.421 1.153-.379 2.546.07 2.33.33 3.72 1.292 4.68C4.136 23.7 6.258 23.7 10.5 23.7a.3.3 0 0 0 .3-.3zm2.4 5.7a.3.3 0 0 0 .3.3c4.243 0 6.364 0 7.682-1.318.962-.962 1.222-2.351 1.292-4.681.042-1.393.063-2.09-.379-2.546s-1.16-.455-2.595-.455h-3.3c-1.414 0-2.121 0-2.56.44-.44.439-.44 1.146-.44 2.56z"></path></svg>