<svg xmlns="http://www.w3.org/2000/svg" viewBox="0 0 16 16"><path fill="currentColor" fill-rule="evenodd" d="M9.394 12.674c-.604 1.208-1.178 1.42-1.394 1.42s-.79-.212-1.394-1.42c-.491-.982-.85-2.368-.932-3.97h4.652c-.082 1.602-.44 2.988-.932 3.97m.932-5.377H5.674c.082-1.603.44-2.989.932-3.971C7.21 2.118 7.784 1.906 8 1.906s.79.212 1.394 1.42c.491.982.85 2.368.932 3.97m1.408 1.406c-.09 1.915-.538 3.622-1.21 4.846a6.1 6.1 0 0 0 3.53-4.846zm2.32-1.406h-2.32c-.09-1.915-.538-3.622-1.21-4.845a6.1 6.1 0 0 1 3.53 4.845m-9.788 0c.09-1.915.538-3.622 1.21-4.845a6.1 6.1 0 0 0-3.53 4.845zm-2.32 1.406a6.1 6.1 0 0 0 3.53 4.846c-.672-1.224-1.12-2.93-1.21-4.846zM15.5 8a7.5 7.5 0 1 0-15 0 7.5 7.5 0 0 0 15 0"></path></svg>