<svg xmlns="http://www.w3.org/2000/svg" viewBox="0 0 16 16"><path fill="currentColor" fill-rule="evenodd" d="M3.65.5h-.047c-.525 0-.992 0-1.37.05-.41.056-.824.183-1.162.521s-.465.752-.52 1.162C.5 2.611.5 3.078.5 3.603v.294c0 .525 0 .993.05 1.37.056.41.183.824.521 1.162s.752.465 1.162.52C2.611 7 3.078 7 3.603 7h.294c.525 0 .993 0 1.37-.05.41-.056.824-.183 1.162-.521s.465-.752.52-1.162C7 4.89 7 4.422 7 3.897v-.294c0-.525 0-.992-.05-1.37-.056-.41-.183-.824-.521-1.162C6.09.733 5.677.606 5.267.551 4.89.5 4.422.5 3.897.5zM2.132 2.132c.015-.015.062-.063.301-.095C2.698 2.002 3.063 2 3.65 2h.2c.587 0 .952.002 1.217.037.24.032.286.08.3.094h.001v.002c.015.014.063.06.095.3.035.265.037.63.037 1.217v.2c0 .587-.002.952-.037 1.217-.032.24-.08.286-.094.3v.001h-.002c-.014.015-.06.063-.3.095-.265.035-.63.037-1.217.037h-.2c-.587 0-.952-.002-1.217-.037-.24-.032-.286-.08-.3-.094h-.001v-.002c-.015-.014-.063-.06-.095-.3C2.002 4.802 2 4.437 2 3.85v-.2c0-.587.002-.952.037-1.217.032-.24.08-.286.094-.3v-.001zM12.15.5h-.047c-.525 0-.992 0-1.37.05-.41.056-.823.183-1.162.521s-.465.752-.52 1.162C9 2.611 9 3.078 9 3.603v.294c0 .525 0 .993.05 1.37.056.41.183.824.521 1.162.339.338.752.465 1.162.52.378.051.845.051 1.37.051h.294c.525 0 .993 0 1.37-.05.41-.056.824-.183 1.162-.521s.465-.752.52-1.162c.051-.377.051-.845.051-1.37v-.294c0-.525 0-.992-.05-1.37-.056-.41-.183-.824-.521-1.162s-.752-.465-1.162-.52C13.39.5 12.922.5 12.397.5zm-1.518 1.632c.015-.015.062-.063.301-.095.265-.035.63-.037 1.217-.037h.2c.587 0 .952.002 1.217.037.24.032.286.08.3.094h.001v.002c.015.014.063.06.095.3.035.265.037.63.037 1.217v.2c0 .587-.002.952-.037 1.217-.032.24-.08.286-.094.3v.001h-.002c-.014.015-.06.063-.3.095-.265.035-.63.037-1.217.037h-.2c-.587 0-.952-.002-1.217-.037-.24-.032-.286-.08-.3-.094h-.001v-.002c-.015-.014-.063-.06-.095-.3-.035-.265-.037-.63-.037-1.217v-.2c0-.587.002-.952.037-1.217.032-.24.08-.286.094-.3v-.001zM12.103 9h.294c.525 0 .993 0 1.37.05.41.056.824.183 1.162.521.338.339.465.752.52 1.162.051.378.051.845.051 1.37v.294c0 .525 0 .993-.05 1.37-.056.41-.183.824-.521 1.162s-.752.465-1.162.52c-.377.051-.845.051-1.37.051h-.294c-.525 0-.992 0-1.37-.05-.41-.056-.823-.183-1.162-.521s-.465-.752-.52-1.162C9 13.39 9 12.922 9 12.397v-.294c0-.525 0-.992.05-1.37.056-.41.183-.823.521-1.162.339-.338.752-.465 1.162-.52C11.111 9 11.578 9 12.103 9m-1.47 1.631zv.002c-.015.014-.063.06-.095.3-.035.265-.037.63-.037 1.217v.2c0 .587.002.952.037 1.217.032.24.08.286.094.3v.001h.002c.014.015.06.063.3.095.265.035.63.037 1.217.037h.2c.587 0 .952-.002 1.217-.037.24-.032.286-.08.3-.094h.001v-.002c.015-.014.063-.06.095-.3.035-.265.037-.63.037-1.217v-.2c0-.587-.002-.952-.037-1.217-.032-.24-.08-.286-.094-.3v-.001h-.002c-.014-.015-.06-.063-.3-.095-.265-.035-.63-.037-1.217-.037h-.2c-.587 0-.952.002-1.217.037-.24.032-.286.08-.3.094M3.65 9h-.047c-.525 0-.992 0-1.37.05-.41.056-.824.183-1.162.521-.338.339-.465.752-.52 1.162-.051.378-.051.845-.051 1.37v.294c0 .525 0 .993.05 1.37.056.41.183.824.521 1.162s.752.465 1.162.52c.378.051.845.051 1.37.051h.294c.525 0 .993 0 1.37-.05.41-.056.824-.183 1.162-.521s.465-.752.52-1.162C7 13.39 7 12.922 7 12.397v-.294c0-.525 0-.992-.05-1.37-.056-.41-.183-.823-.521-1.162s-.752-.465-1.162-.52C4.89 9 4.422 9 3.897 9zm-1.518 1.632c.015-.015.062-.063.301-.095.265-.035.63-.037 1.217-.037h.2c.587 0 .952.002 1.217.037.24.032.286.08.3.094h.001v.002c.015.014.063.06.095.3.035.265.037.63.037 1.217v.2c0 .587-.002.952-.037 1.217-.032.24-.08.286-.094.3v.001h-.002c-.014.015-.06.063-.3.095-.265.035-.63.037-1.217.037h-.2c-.587 0-.952-.002-1.217-.037-.24-.032-.286-.08-.3-.094h-.001v-.002c-.015-.014-.063-.06-.095-.3-.035-.265-.037-.63-.037-1.217v-.2c0-.587.002-.952.037-1.217.032-.24.08-.286.094-.3z"></path></svg>