<svg xmlns="http://www.w3.org/2000/svg" viewBox="0 0 16 16"><path fill="currentColor" fill-rule="evenodd" d="M7.303.788a1.25 1.25 0 0 1 .91 1.515L7.6 4.75h2.423l.763-3.053a1.25 1.25 0 0 1 2.426.606L12.6 4.75H14a1.25 1.25 0 1 1 0 2.5h-2.024l-.625 2.5H13a1.25 1.25 0 1 1 0 2.5h-2.274l-.513 2.053a1.25 1.25 0 0 1-2.426-.606l.362-1.447H5.726l-.513 2.053a1.25 1.25 0 0 1-2.426-.606l.362-1.447H2a1.25 1.25 0 1 1 0-2.5h1.774l.625-2.5H3a1.25 1.25 0 1 1 0-2.5h2.024l.763-3.053a1.25 1.25 0 0 1 1.516-.91M8.774 9.75l.625-2.5H6.976l-.625 2.5z"></path></svg>