<svg xmlns="http://www.w3.org/2000/svg" viewBox="0 0 16 16"><path fill="currentColor" fill-rule="evenodd" d="M8.61 2.167q.128.07.277.164l3.946 2.819a1 1 0 0 1 .195.271c.052.114.087.262.086.546 0 .3-.039.685-.098 1.27l-.618 6.047a.826.826 0 0 1-1.648-.084v-2.424a2.75 2.75 0 1 0-5.5 0V13.2a.826.826 0 0 1-1.648.084l-.617-6.048c-.06-.584-.098-.968-.1-1.269 0-.284.035-.432.087-.546a1 1 0 0 1 .195-.271l3.94-2.814a5 5 0 0 1 .285-.169c.294-.16.464-.2.609-.2s.314.04.608.2Zm5.901 5.186c.036-.348.068-.662.086-.944a.75.75 0 0 0 .839-1.243L14 4.14V1.776a1 1 0 1 0-2 0v.884l-1.275-.892-.034-.024a27 27 0 0 0-.965-.657L9.573.978l-.028-.02a8 8 0 0 0-.7-.467A1.7 1.7 0 0 0 8 .25c-.33 0-.605.109-.844.241a8 8 0 0 0-.7.467l-.029.02-.161.115c-.288.184-.604.405-.956.65l-.033.024-1.783 1.248-.029.02c-.444.311-.822.576-1.114.826q-.077.067-.15.136L.564 5.166a.75.75 0 0 0 .839 1.243c.018.282.05.597.086.944l.003.036.617 6.047A2.326 2.326 0 0 0 6.75 13.2v-2.424a1.25 1.25 0 1 1 2.5 0V13.2a2.326 2.326 0 0 0 4.64.236l.618-6.048z"></path></svg>