<svg xmlns="http://www.w3.org/2000/svg" fill="currentColor" fill-rule="evenodd" viewBox="0 0 16 16"><path d="m7.299 2.199.585-.396a.6.6 0 0 1 .107-.05.4.4 0 0 1 .125.05c.131.073.297.19.585.396l5.863 4.188a.75.75 0 1 0 .872-1.221L14 4.14V1.776a1 1 0 1 0-2 0v.935L9.573.978l-.028-.02-.7-.466C8.606.359 8.33.25 8 .25s-.606.109-.845.241c-.214.119-.45.288-.7.466l-.028.02L.564 5.166a.75.75 0 1 0 .872 1.221z"></path><path d="M12.076 3.629c.938.657 1.407.985 1.633 1.48s.168 1.064.052 2.203l-.617 6.048A1.577 1.577 0 0 1 10 13.2v-2.424a2 2 0 1 0-4 0V13.2a1.576 1.576 0 0 1-3.144.16l-.617-6.047c-.116-1.139-.174-1.709.052-2.204s.695-.823 1.634-1.48l1.783-1.248C6.816 1.605 7.37 1.217 8 1.217s1.185.388 2.294 1.164z"></path><path fill-rule="nonzero" d="m2.29 5.109-.682-.312zm9.786-1.48-.43.614zm1.633 1.48-.682.312zm-.565 8.251-.746-.076zm.746.076.617-6.048-1.492-.152-.617 6.048zm-4.641-2.66V13.2h1.5v-2.424zM8 9.526a1.25 1.25 0 0 1 1.25 1.25h1.5A2.75 2.75 0 0 0 8 8.026zm-1.25 1.25A1.25 1.25 0 0 1 8 9.526v-1.5a2.75 2.75 0 0 0-2.75 2.75zm0 2.424v-2.424h-1.5V13.2zM1.492 7.389l.617 6.047 1.492-.152-.617-6.047zm3.784-5.621L3.494 3.015l.86 1.229 1.783-1.248-.86-1.229zm7.23 1.248-1.782-1.247-.86 1.229 1.782 1.247zm-6.37-.019 1.255-.829c.294-.16.464-.2.609-.2v-1.5c-.486 0-.908.155-1.326.382-.401.219-.857.539-1.398.917zm4.588-1.229L9.327.85C8.909.622 8.486.467 8.001.467v1.5c.145 0 .315.039.609.2.311.169.687.431 1.255.829zm-7.74 5.469-.099-1.269c-.001-.284.034-.432.086-.546l-1.364-.624c-.174.38-.223.764-.222 1.174.001.393.05.863.106 1.418l1.492-.152zm.509-4.221-1.143.846c-.31.267-.569.555-.743.936l1.364.624c.052-.114.142-.237.357-.422.228-.196.544-.418 1.025-.755zm.93 11.011a.826.826 0 0 1-.822-.742l-1.492.152a2.326 2.326 0 0 0 2.314 2.09zm7.153 0a.826.826 0 0 1-.826-.826h-1.5a2.326 2.326 0 0 0 2.326 2.326zM5.25 13.2c0 .456-.37.826-.826.826v1.5A2.326 2.326 0 0 0 6.75 13.2zm9.258-5.811.106-1.418c.001-.409-.049-.794-.222-1.174l-1.364.624c.052.114.087.262.086.546-.001.301-.039.685-.099 1.269l1.492.152zm-2.862-3.145 1.025.755c.215.185.304.308.357.422l1.364-.624c-.174-.38-.432-.669-.743-.935-.298-.256-.686-.526-1.143-.846zm.752 9.04a.826.826 0 0 1-.822.742v1.5a2.326 2.326 0 0 0 2.314-2.09z"></path></svg>