<svg xmlns="http://www.w3.org/2000/svg" viewBox="0 0 24 24"><path fill="currentColor" fill-rule="evenodd" d="M12 .5h-.056L6.97.632c-1.322.134-2.41.414-3.359 1.048A7 7 0 0 0 1.68 3.611C1.046 4.559.766 5.648.632 6.97.5 8.263.5 9.885.5 11.944v.112l.132 4.974c.134 1.322.414 2.41 1.048 3.359a7 7 0 0 0 1.931 1.931c.948.634 2.037.914 3.359 1.048 1.293.131 2.915.131 4.974.131h.112l4.974-.131c1.322-.134 2.41-.415 3.359-1.048a7 7 0 0 0 1.931-1.931c.634-.948.914-2.037 1.048-3.359.131-1.293.131-2.915.131-4.974v-.112l-.131-4.974c-.134-1.322-.415-2.41-1.048-3.359a7 7 0 0 0-1.931-1.931c-.948-.634-2.037-.914-3.359-1.048C15.737.5 14.115.5 12.056.5zM4.722 3.343c.565-.378 1.286-.603 2.45-.721C8.352 2.501 9.872 2.5 12 2.5l4.828.121c1.163.118 1.885.344 2.45.721a5 5 0 0 1 1.379 1.379c.378.565.603 1.286.721 2.45.12 1.18.121 2.701.121 4.828v.896l-.329-.307C20.297 11.805 19.105 11 17.728 11c-.957 0-1.658.624-2.122 1.17-.481.565-.912 1.293-1.287 1.926l-.007.011-1.089 1.67c-.37.446-.543.457-.548.457-.278 0-.599-.087-1.004-.263l-.624-.299-.096-.048-.591-.29c-.458-.213-1.037-.443-1.663-.456-.688-.014-1.343.233-1.913.796-.819.809-1.789 2.01-2.533 2.977l-.696.921-.212-.293c-.378-.565-.603-1.286-.721-2.45-.12-1.18-.121-2.701-.121-4.828l.121-4.828c.118-1.163.344-1.885.721-2.45a5 5 0 0 1 1.379-1.379zm15.114 10.735c.621.557 1.166 1.21 1.614 1.762l-.071.989c-.118 1.163-.344 1.885-.721 2.45a5 5 0 0 1-1.379 1.379c-.565.378-1.286.603-2.45.721-1.18.12-2.701.121-4.828.121s-3.648-.001-4.828-.121c-.93-.095-1.577-.258-2.088-.512l.751-.996 2.354-2.775c.198-.196.336-.221.465-.219.191.004.454.081.863.27l.526.259.104.052.727.347c.507.22 1.122.429 1.801.429.952 0 1.641-.643 2.086-1.178.452-.544.866-1.242 1.23-1.857l.043-.072 1.096-1.661c.371-.436.56-.466.599-.466.613 0 1.331.381 2.108 1.078zM7 8.25A1.25 1.25 0 0 1 8.25 7c.69.001 1.25.56 1.25 1.25a1.25 1.25 0 1 1-2.5 0M8.25 5a3.25 3.25 0 1 0 0 6.5 3.25 3.25 0 0 0 3.25-3.25v-.001A3.25 3.25 0 0 0 8.251 5z"></path></svg>