<svg xmlns="http://www.w3.org/2000/svg" viewBox="0 0 16 16"><path fill="currentColor" d="M13.504.979a.703.703 0 0 1 .993.993c-.156.154-.105.42.074.547a2.21 2.21 0 0 1 .281 3.364l-.356.354a2.21 2.21 0 0 1-3.125 0c-.245-.244-.367-.367-.441-.395a.3.3 0 0 0-.259 0c-.073.028-.164.119-.346.3L8.572 7.895c-.124.124-.186.186-.214.253a.34.34 0 0 0-.026.184c.01.07.056.159.154.333A4.257 4.257 0 1 1 6.81 6.99c.174.096.262.144.333.153q.096.012.185-.026c.066-.028.127-.09.251-.214L13.504.978ZM4.757 7.866a2.855 2.855 0 1 0 0 5.708 2.855 2.855 0 0 0 0-5.71zm9.103-4.117a.81.81 0 0 0-1.141 0l-.355.355a.808.808 0 0 0 1.14 1.142l.356-.356a.807.807 0 0 0 0-1.14Z"></path></svg>