<svg xmlns="http://www.w3.org/2000/svg" viewBox="0 0 16 16"><path fill="currentColor" fill-rule="evenodd" d="M9.402 3.65a2.01 2.01 0 0 1 2.96 0c.85.897.85 2.37 0 3.266a1 1 0 1 0 1.45 1.377c1.584-1.668 1.584-4.352 0-6.02a4.01 4.01 0 0 0-5.86 0L6.188 4.13c-1.41 1.484-1.56 3.762-.477 5.418a1 1 0 0 0 1.674-1.096c-.591-.902-.498-2.153.253-2.945zm.887 2.803a1 1 0 1 0-1.674 1.094c.591.903.498 2.154-.253 2.945L6.598 12.35a2.01 2.01 0 0 1-2.96 0c-.85-.897-.85-2.37 0-3.266a1 1 0 1 0-1.45-1.377c-1.584 1.668-1.584 4.352 0 6.02a4.01 4.01 0 0 0 5.86 0l1.764-1.857c1.41-1.485 1.56-3.762.477-5.417"></path></svg>