<svg xmlns="http://www.w3.org/2000/svg" viewBox="0 0 24 24"><path fill="currentColor" fill-rule="evenodd" d="M13.83 1.167a4.82 4.82 0 0 0-3.688 0L5.639 3.032a4.82 4.82 0 0 0-2.607 2.607l-1.865 4.503a4.82 4.82 0 0 0 0 3.687l1.865 4.503a4.82 4.82 0 0 0 2.607 2.607l4.503 1.865a4.82 4.82 0 0 0 3.687 0l4.503-1.865a4.82 4.82 0 0 0 2.607-2.607l1.865-4.503a4.82 4.82 0 0 0 0-3.687l-1.865-4.503a4.82 4.82 0 0 0-2.607-2.607zm-2.923 1.848a2.82 2.82 0 0 1 2.157 0l4.502 1.864c.69.286 1.24.835 1.525 1.526l1.865 4.502c.286.69.286 1.466 0 2.157l-1.865 4.502a2.82 2.82 0 0 1-1.525 1.525l-4.502 1.865a2.82 2.82 0 0 1-2.157 0l-4.502-1.865a2.82 2.82 0 0 1-1.526-1.525l-1.864-4.502a2.82 2.82 0 0 1 0-2.157l1.864-4.502c.286-.69.835-1.24 1.526-1.526zm1.079 1.97a1 1 0 0 1 1 1c0 1.754.48 2.967 1.257 3.743s1.989 1.257 3.743 1.257a1 1 0 1 1 0 2c-1.754 0-2.967.482-3.743 1.258s-1.257 1.989-1.257 3.742a1 1 0 1 1-2 0c0-1.753-.482-2.966-1.258-3.742s-1.989-1.258-3.742-1.258a1 1 0 1 1 0-2c1.753 0 2.966-.48 3.742-1.257s1.258-1.989 1.258-3.743a1 1 0 0 1 1-1"></path></svg>