<svg xmlns="http://www.w3.org/2000/svg" viewBox="0 0 16 16"><path fill="currentColor" fill-rule="evenodd" d="M1 7.622v1.6c0 2.613 0 3.92.759 4.772q.116.131.247.247C2.859 15 4.165 15 6.778 15h2.444c2.613 0 3.92 0 4.772-.759q.131-.116.247-.247C15 13.142 15 11.835 15 9.222v-1.6a.97.97 0 0 0-1.38-.878l-2.423 1.303-.03.016c-.67.36-1.218.655-1.692.856-.496.21-.962.34-1.475.34s-.979-.13-1.475-.34c-.474-.201-1.022-.496-1.691-.856l-.031-.016L2.38 6.744A.97.97 0 0 0 1 7.622m2-2.248 2.513 1.352c.708.38 1.194.64 1.596.811.389.164.648.221.891.221s.502-.057.89-.22c.403-.171.89-.432 1.597-.812L13 5.374V5c0-1.886 0-2.828-.586-3.414S10.886 1 9 1H7c-1.886 0-2.828 0-3.414.586S3 3.114 3 5zM6.25 4A.75.75 0 0 1 7 3.25h2a.75.75 0 1 1 0 1.5H7A.75.75 0 0 1 6.25 4"></path></svg>