<svg xmlns="http://www.w3.org/2000/svg" viewBox="0 0 24 24"><path fill="currentColor" fill-rule="evenodd" d="M2.318 3.818C1 5.136 1 7.258 1 11.5v.857c0 4.243 0 6.364 1.318 7.682s3.44 1.318 7.682 1.318h4c4.243 0 6.364 0 7.682-1.318S23 16.6 23 12.357V11.5c0-4.243 0-6.364-1.318-7.682S18.242 2.5 14 2.5h-4c-4.243 0-6.364 0-7.682 1.318m1.91 3.474a1 1 0 0 1 1.409-.135l5.32 4.391a1.68 1.68 0 0 0 2.13.002l5.273-4.39a1 1 0 1 1 1.28 1.537l-3.65 3.037 3.694 3.465a1 1 0 0 1-1.368 1.459l-3.874-3.634-.081.067-.009.007a3.68 3.68 0 0 1-4.66 0l-.005-.005-.085-.07L5.68 16.66a1 1 0 0 1-1.36-1.466l3.726-3.456-3.682-3.04a1 1 0 0 1-.135-1.407"></path></svg>