<svg xmlns="http://www.w3.org/2000/svg" viewBox="0 0 16 16"><path fill="currentColor" fill-rule="evenodd" d="M6.948.25h2.104l2.242.08c.628.084 1.195.27 1.65.726s.641 1.022.726 1.65c.08.595.08 1.344.08 2.242v.874l.433-.198c.229-.083.618-.175 1.007.058s.492.618.527.86c.033.22.033.493.033.754v1.759l-.117 3.337c-.121.9-.38 1.658-.982 2.26s-1.36.861-2.26.982c-.867.116-1.969.116-3.337.116H6.945c-1.368 0-2.47 0-3.337-.116-.9-.121-1.658-.38-2.26-.982s-.861-1.36-.982-2.26C.25 11.525.25 10.423.25 9.055V7.296l.033-.754c.036-.241.139-.627.528-.86s.778-.14 1.007-.058c.135.049.283.12.433.198v-.874l.08-2.242c.084-.628.27-1.195.726-1.65S4.078.414 4.706.33C5.3.25 6.05.25 6.948.25M3.75 6.627 7.976 8.9 8 8.913l.024-.013 4.226-2.273V5l-.067-2.095c-.062-.461-.169-.659-.3-.789l.53-.53-.53.53c-.13-.13-.328-.238-.789-.3-.482-.064-1.13-.066-2.094-.066H7l-2.095.067c-.461.062-.659.169-.789.3s-.238.328-.3.789C3.752 3.388 3.75 4.036 3.75 5zm-2 .628.074.04 5.442 2.927.284.143a1.1 1.1 0 0 0 .45.097 1.1 1.1 0 0 0 .45-.097c.092-.039.19-.092.268-.134l5.458-2.935.074-.04V9l-.103 3.192c-.099.734-.279 1.122-.556 1.399s-.665.457-1.399.556c-.755.101-1.756.103-3.192.103H7c-1.435 0-2.437-.002-3.192-.103-.734-.099-1.122-.279-1.399-.556s-.457-.665-.556-1.399C1.752 11.437 1.75 10.435 1.75 9V7.255"></path></svg>