<svg xmlns="http://www.w3.org/2000/svg" viewBox="0 0 24 24"><path fill="currentColor" fill-rule="evenodd" d="M10.572 1h-.07l-3.198.114c-.889.12-1.681.381-2.316 1.016S4.09 3.557 3.971 4.446c-.114.845-.114 1.911-.114 3.198v1.363l-.714-.333c-.321-.116-.85-.239-1.378.076s-.67.84-.72 1.177C1 10.236 1 10.622 1 10.997v3.875l.141 4.011c.147 1.091.463 2.025 1.207 2.769s1.678 1.06 2.769 1.207C6.164 23 7.492 23 9.128 23h5.744l4.011-.141c1.091-.147 2.025-.463 2.769-1.207s1.06-1.678 1.207-2.769C23 17.836 23 16.508 23 14.872v-3.876l-.046-1.069c-.05-.337-.192-.862-.72-1.177s-1.057-.192-1.378-.076c-.22.079-.466.202-.714.333V7.644l-.114-3.198c-.12-.889-.381-1.681-1.016-2.316s-1.427-.897-2.316-1.016C15.852 1 14.786 1 13.499 1h-2.927m1.361 12.349-6.075-3.267V7.714l.096-3.002c.09-.667.247-.967.448-1.169s.501-.359 1.169-.448C8.266 3.002 9.196 3 10.572 3h2.857l3.002.096c.667.09.967.247 1.169.448s.359.501.448 1.169c.094.696.096 1.627.096 3.002v2.368l-6.075 3.267-.068.036zM3 11.055v-.239l.21.113 7.774 4.181.022.012.378.189c.156.066.363.132.615.132s.458-.066.615-.132c.129-.054.266-.128.378-.189l.022-.012 7.775-4.181.21-.113V14.8l-.123 3.817c-.117.869-.328 1.311-.639 1.622s-.752.522-1.621.639c-.898.121-2.092.123-3.817.123H9.2c-1.725 0-2.919-.002-3.817-.123-.869-.117-1.311-.328-1.622-.639s-.522-.752-.639-1.622C3.002 17.719 3 16.525 3 14.8zM8 6a1 1 0 0 1 1-1h6a1 1 0 1 1 0 2H9a1 1 0 0 1-1-1m2 3.5a1 1 0 0 1 1-1h2a1 1 0 1 1 0 2h-2a1 1 0 0 1-1-1"></path></svg>