<svg xmlns="http://www.w3.org/2000/svg" fill="none" viewBox="0 0 24 24"><path fill="currentColor" fill-rule="evenodd" d="M9.427 2h5.146c1.824 0 3.293 0 4.45.155 1.2.162 2.21.507 3.012 1.31.803.802 1.148 1.813 1.31 3.013.155 1.156.155 2.625.155 4.449v2.146c0 1.824 0 3.293-.155 4.45-.162 1.2-.507 2.21-1.31 3.012-.802.803-1.812 1.148-3.013 1.31-1.156.155-2.625.155-4.449.155H9.427c-1.824 0-3.293 0-4.45-.155-1.2-.162-2.21-.507-3.013-1.31-.802-.802-1.147-1.812-1.309-3.013C.5 16.366.5 14.897.5 13.073v-2.146c0-1.824 0-3.293.155-4.45.162-1.2.507-2.21 1.31-3.013.802-.802 1.813-1.147 3.013-1.309C6.134 2 7.603 2 9.427 2M5.244 4.138c-.978.131-1.496.372-1.865.74-.37.37-.61.888-.741 1.866C2.502 7.751 2.5 9.086 2.5 11v2c0 1.914.002 3.249.138 4.256.131.978.372 1.496.74 1.865.37.37.888.61 1.866.742C6.251 19.998 7.586 20 9.5 20h5c1.914 0 3.249-.002 4.256-.137.978-.132 1.496-.373 1.865-.742.37-.369.61-.887.742-1.865.135-1.007.137-2.342.137-4.256v-2c0-1.914-.002-3.249-.137-4.256-.132-.978-.373-1.496-.742-1.865-.369-.37-.887-.61-1.865-.741C17.749 4.002 16.414 4 14.5 4h-5c-1.914 0-3.249.002-4.256.138M4.23 7.364a1 1 0 0 1 1.407-.135l5.321 4.39a1.68 1.68 0 0 0 2.13.002l5.273-4.39a1 1 0 1 1 1.28 1.538l-3.65 3.037 3.694 3.465a1 1 0 1 1-1.368 1.458l-3.874-3.634-.081.067-.009.007a3.68 3.68 0 0 1-4.66 0l-.005-.004-.085-.07-3.922 3.638a1 1 0 1 1-1.36-1.467l3.726-3.456-3.683-3.04a1 1 0 0 1-.135-1.408" clip-rule="evenodd"></path></svg>