<svg xmlns="http://www.w3.org/2000/svg" viewBox="0 0 16 16"><path fill="currentColor" fill-rule="evenodd" d="M7 2.5h2c1.436 0 2.4.002 3.134.077.71.072 1.038.2 1.255.344a2.5 2.5 0 0 1 .69.69c.145.217.272.545.344 1.255.075.734.077 1.698.077 3.134s-.002 2.4-.077 3.134c-.072.71-.2 1.038-.344 1.255a2.5 2.5 0 0 1-.69.69c-.217.145-.545.272-1.255.344-.735.075-1.698.077-3.134.077H7c-1.436 0-2.4-.002-3.134-.077-.71-.072-1.038-.2-1.255-.344a2.5 2.5 0 0 1-.69-.69c-.145-.217-.272-.545-.344-1.255C1.502 10.4 1.5 9.436 1.5 8s.002-2.4.077-3.134c.072-.71.2-1.038.344-1.255a2.5 2.5 0 0 1 .69-.69c.217-.145.545-.272 1.255-.344C4.6 2.502 5.564 2.5 7 2.5M0 8c0-2.809 0-4.213.674-5.222a4 4 0 0 1 1.104-1.104C2.787 1 4.19 1 7 1h2c2.809 0 4.213 0 5.222.674a4 4 0 0 1 1.104 1.104C16 3.787 16 5.19 16 8s0 4.213-.674 5.222a4 4 0 0 1-1.104 1.104C13.213 15 11.81 15 9 15H7c-2.809 0-4.213 0-5.222-.674a4 4 0 0 1-1.104-1.104C0 12.213 0 10.81 0 8m5.458-2.594a.75.75 0 0 0-.916 1.188l2.282 1.757.004.004a1.96 1.96 0 0 0 2.363 0l.007-.006 2.262-1.757a.75.75 0 1 0-.92-1.184L8.282 7.16a.46.46 0 0 1-.546 0z"></path></svg>