<svg xmlns="http://www.w3.org/2000/svg" viewBox="0 0 16 16"><path fill="currentColor" fill-rule="evenodd" d="M8.128 1.98a2.384 2.384 0 0 1 3.345.474l.071.095a1.25 1.25 0 0 1 .209 1.07H5.952l2.177-1.64zm4.616-.331a2.75 2.75 0 0 1 .498 2.188c1.052.481 1.702 1.693 1.702 2.926v1.291l-.007.227a.93.93 0 0 1-.158.453.96.96 0 0 1-.399.319l-.005.002-.25.1-.016.006c-.12.045-.295.226-.295.541s.175.496.295.541l.016.006.25.1.005.002c.059.027.259.117.399.319a.95.95 0 0 1 .159.453 3 3 0 0 1 .007.227v1.292c0 1.589-1.079 3.144-2.709 3.144H3.709C2.079 15.787 1 14.232 1 12.643v-1.292l.007-.227a.93.93 0 0 1 .158-.453.96.96 0 0 1 .399-.319l.005-.002.25-.1.016-.006c.12-.045.295-.226.295-.541s-.176-.496-.295-.541l-.016-.006-.25-.1-.005-.002c-.059-.027-.259-.117-.399-.319a.94.94 0 0 1-.158-.453C1 8.203 1 8.115 1 8.055V6.764c0-1.5.961-2.968 2.439-3.129L7.226.782a3.885 3.885 0 0 1 5.448.772zM2.501 6.764c0-1.056.675-1.644 1.209-1.644H9v2.591a.75.75 0 0 0 1.5 0V5.12h1.735c.534 0 1.209.588 1.209 1.644v1.052c-.706.333-1.131 1.091-1.131 1.887s.425 1.554 1.131 1.887v1.053c0 1.056-.674 1.644-1.209 1.644H10.5v-2.132a.75.75 0 0 0-1.5 0v2.132H3.709c-.534 0-1.209-.588-1.209-1.644V11.59c.706-.333 1.131-1.091 1.131-1.887S3.206 8.149 2.5 7.816z"></path></svg>