<svg xmlns="http://www.w3.org/2000/svg" viewBox="0 0 16 16"><path fill="currentColor" fill-rule="evenodd" d="M2.99 2.748C4.72 1.6 6.968 1.04 9.14 1.04c2.186 0 3.873.567 5.034 1.4C15.317 3.26 16 4.382 16 5.467c0 .86-.317 1.504-.83 1.96-.474.422-1.068.638-1.54.785q-.28.085-.496.145c-.273.078-.48.137-.665.222a1 1 0 0 0-.115.062c.007.034.023.08.063.15.05.09.102.163.175.268.043.062.095.135.158.23.315.468.664 1.107.664 2.113 0 1.567-1.68 3.057-4.881 3.057-1.627 0-3.705-.402-5.405-1.377C1.406 12.095 0 10.466 0 8.054c0-2.365 1.24-4.147 2.99-5.306m3.72 1.905a1.033 1.033 0 1 1 2.065 0 1.033 1.033 0 0 1-2.065 0m4.129 0a1.033 1.033 0 1 1 2.065 0 1.033 1.033 0 0 1-2.065 0m-6.71 1.032a1.033 1.033 0 1 0 0 2.065 1.033 1.033 0 0 0 0-2.065m4.903 6.452a1.548 1.548 0 1 0 0-3.097 1.548 1.548 0 0 0 0 3.097"></path></svg>