<svg xmlns="http://www.w3.org/2000/svg" viewBox="0 0 16 16"><path fill="currentColor" fill-rule="evenodd" d="M3.845 4.038c-1.407.934-2.297 2.271-2.297 4.016 0 1.697.952 2.884 2.35 3.685 1.418.813 3.218 1.172 4.634 1.172 2.884 0 3.334-1.25 3.334-1.509 0-.587-.184-.926-.401-1.25l-.09-.13a7 7 0 0 1-.31-.474 1.9 1.9 0 0 1-.264-.95c0-.364.124-.683.343-.938.202-.236.456-.385.678-.487.297-.137.69-.25 1.025-.345q.178-.05.324-.095c.44-.136.76-.275.97-.463.171-.152.31-.37.31-.803 0-.438-.305-1.141-1.179-1.768-.854-.613-2.21-1.11-4.131-1.11-1.934 0-3.87.504-5.296 1.45Zm-.855-1.29C4.72 1.6 6.968 1.04 9.14 1.04c2.187 0 3.873.568 5.035 1.4C15.317 3.26 16 4.383 16 5.468c0 .86-.317 1.504-.83 1.96-.474.422-1.068.639-1.54.785q-.282.086-.496.146c-.274.078-.48.136-.665.221a1 1 0 0 0-.115.063.5.5 0 0 0 .063.15c.05.089.101.162.175.267q.064.091.158.23c.315.468.664 1.107.664 2.113 0 1.568-1.68 3.057-4.882 3.057-1.626 0-3.705-.402-5.405-1.377C1.407 12.095 0 10.466 0 8.054 0 5.69 1.24 3.907 2.99 2.748m3.72 1.905a1.033 1.033 0 1 1 2.065 0 1.033 1.033 0 0 1-2.065 0m5.16-.853a1.033 1.033 0 1 0 0 2.065 1.033 1.033 0 0 0 0-2.065M3.097 6.717a1.033 1.033 0 1 1 2.065.001 1.033 1.033 0 0 1-2.065 0Zm7.25 3.831a1.548 1.548 0 1 1-3.097 0 1.548 1.548 0 0 1 3.097 0"></path></svg>