<svg xmlns="http://www.w3.org/2000/svg" fill="none" viewBox="0 0 16 16"><g clip-path="url(#Pause16_svg__a)"><path fill="currentColor" fill-rule="evenodd" d="M8 .25h-.042c-1.369 0-2.454 0-3.32.088-.888.09-1.629.28-2.277.713a4.8 4.8 0 0 0-1.31 1.31c-.434.648-.623 1.39-.713 2.277C.25 5.504.25 6.589.25 7.958v.084c0 1.369 0 2.454.088 3.32.09.888.28 1.629.713 2.277.346.519.791.964 1.31 1.31.648.434 1.39.623 2.277.713.866.088 1.951.088 3.32.088h.084c1.369 0 2.454 0 3.32-.088.888-.09 1.629-.28 2.277-.713a4.8 4.8 0 0 0 1.31-1.31c.434-.648.623-1.39.713-2.277.088-.866.088-1.951.088-3.32v-.084c0-1.369 0-2.454-.088-3.32-.09-.888-.28-1.629-.713-2.277a4.8 4.8 0 0 0-1.31-1.31c-.648-.434-1.39-.623-2.277-.713C10.496.25 9.411.25 8.042.25zM3.194 2.298c.361-.241.827-.39 1.596-.468.781-.08 1.79-.08 3.21-.08s2.429 0 3.21.08c.77.079 1.235.227 1.596.468.355.237.66.542.896.896.241.361.39.827.468 1.596.08.781.08 1.79.08 3.21s0 2.429-.08 3.21c-.079.77-.227 1.235-.468 1.596-.237.355-.541.66-.896.896-.361.241-.827.39-1.596.468-.781.08-1.79.08-3.21.08s-2.429 0-3.21-.08c-.77-.079-1.235-.227-1.596-.468a3.3 3.3 0 0 1-.896-.896c-.241-.361-.39-.827-.468-1.596-.08-.781-.08-1.79-.08-3.21s0-2.429.08-3.21c.079-.77.227-1.235.468-1.596a3.3 3.3 0 0 1 .896-.896M6 4.5a.75.75 0 0 1 .75.75v5.5a.75.75 0 0 1-1.5 0v-5.5A.75.75 0 0 1 6 4.5m4 0a.75.75 0 0 1 .75.75v5.5a.75.75 0 0 1-1.5 0v-5.5A.75.75 0 0 1 10 4.5" clip-rule="evenodd"></path></g><defs><clipPath id="Pause16_svg__a"><path fill="currentColor" d="M0 0h16v16H0z"></path></clipPath></defs></svg>