<svg xmlns="http://www.w3.org/2000/svg" viewBox="0 0 16 16"><path fill="currentColor" fill-rule="evenodd" d="M12.644 2.302a.675.675 0 0 0-.189-.938.68.68 0 0 0-.942.187l-8.157 12.18a.675.675 0 0 0 .189.939.68.68 0 0 0 .942-.188zM2.61 3.217c-.3.425-.5 1.07-.5 1.867 0 .798.2 1.443.5 1.868.29.412.66.614 1.085.614s.796-.202 1.086-.614c.299-.425.5-1.07.5-1.868 0-.797-.201-1.442-.5-1.867-.29-.412-.661-.614-1.086-.614-.424 0-.796.202-1.085.614m-1.114-.776c.503-.716 1.265-1.19 2.2-1.19.934 0 1.695.474 2.199 1.19.494.703.746 1.637.746 2.643 0 1.007-.252 1.941-.746 2.644-.504.716-1.265 1.19-2.2 1.19-.934 0-1.696-.474-2.2-1.19C1.003 7.025.75 6.091.75 5.084c0-1.006.252-1.94.746-2.643m9.723 6.64c-.299.425-.5 1.07-.5 1.868s.201 1.442.5 1.867c.29.412.661.614 1.086.614.424 0 .796-.202 1.085-.614.3-.425.5-1.07.5-1.867 0-.798-.2-1.443-.5-1.868-.29-.412-.66-.613-1.085-.613s-.796.201-1.086.613m-1.114-.776c.504-.716 1.265-1.19 2.2-1.19.934 0 1.696.474 2.2 1.19.493.703.745 1.637.745 2.644s-.252 1.94-.746 2.643c-.503.716-1.265 1.191-2.2 1.191-.934 0-1.695-.475-2.199-1.19-.494-.703-.746-1.637-.746-2.644s.252-1.94.746-2.644"></path></svg>