<svg xmlns="http://www.w3.org/2000/svg" viewBox="0 0 16 16"><path fill="currentColor" fill-rule="evenodd" d="M7.62 1.5h.76c.92 0 1.521.001 1.98.039.44.036.616.098.712.146.32.163.58.423.743.743.048.096.11.272.146.712C12 3.6 12 4.2 12 5.12v5.76c0 .92-.001 1.521-.039 1.98-.036.44-.098.616-.146.712a1.7 1.7 0 0 1-.743.743c-.096.048-.271.11-.712.146-.459.038-1.06.039-1.98.039h-.76c-.92 0-1.521-.001-1.98-.039-.44-.036-.616-.098-.712-.146a1.7 1.7 0 0 1-.743-.743c-.048-.096-.11-.271-.146-.712C4 12.4 4 11.8 4 10.88V5.12c0-.92.001-1.521.039-1.98.036-.44.098-.616.146-.712a1.7 1.7 0 0 1 .743-.743c.096-.048.272-.11.712-.146C6.1 1.5 6.7 1.5 7.62 1.5M2.5 5.12c0-1.792 0-2.688.349-3.373A3.2 3.2 0 0 1 4.247.35C4.932 0 5.827 0 7.62 0h.76c1.792 0 2.688 0 3.373.349a3.2 3.2 0 0 1 1.398 1.398c.349.685.349 1.58.349 3.373v5.76c0 1.792 0 2.688-.349 3.373a3.2 3.2 0 0 1-1.398 1.398C11.068 16 10.173 16 8.38 16h-.76c-1.792 0-2.688 0-3.373-.349a3.2 3.2 0 0 1-1.398-1.398c-.349-.685-.349-1.58-.349-3.373zM7 2.75a.75.75 0 0 0 0 1.5h2a.75.75 0 0 0 0-1.5z"></path></svg>