<svg xmlns="http://www.w3.org/2000/svg" viewBox="0 0 24 24"><path fill="currentColor" fill-rule="evenodd" d="M5.95 3H5.8l-1.808.034a3 3 0 0 0-.367.05l-.063.018a1 1 0 0 0-.453.443 1 1 0 0 0-.024.079 3 3 0 0 0-.05.367C3.002 4.392 3 4.927 3 5.8v.15l.034 1.808c.015.186.034.299.05.367l.018.063c.102.204.255.357.443.453a1 1 0 0 0 .079.024c.068.016.181.035.367.05.4.033.934.034 1.808.034h.15l1.808-.034c.186-.015.299-.034.367-.05l.063-.018c.204-.102.357-.255.453-.443a1 1 0 0 0 .024-.079c.016-.068.035-.181.05-.367.033-.4.034-.934.034-1.808V5.8l-.034-1.808a3 3 0 0 0-.05-.367l-.018-.063a1 1 0 0 0-.443-.453 1 1 0 0 0-.079-.024 3 3 0 0 0-.367-.05C7.358 3.002 6.823 3 5.95 3m-4.623-.362C1 3.28 1 4.12 1 5.8v.15c0 1.68 0 2.52.327 3.162a3 3 0 0 0 1.311 1.311c.642.327 1.482.327 3.162.327h.15c1.68 0 2.52 0 3.162-.327a3 3 0 0 0 1.311-1.311c.327-.642.327-1.482.327-3.162V5.8c0-1.68 0-2.52-.327-3.162a3 3 0 0 0-1.311-1.311C8.47 1 7.63 1 5.95 1H5.8c-1.68 0-2.52 0-3.162.327a3 3 0 0 0-1.311 1.311M4.75 5.5a.75.75 0 0 1 .75-.75h.75A.75.75 0 0 1 7 5.5v.75a.75.75 0 0 1-.75.75H5.5a.75.75 0 0 1-.75-.75zm9.259 8.796c-.072.14-.072.324-.072.692v.525c0 .368 0 .551.072.692a.66.66 0 0 0 .287.287c.14.072.324.072.692.072h.525c.368 0 .551 0 .692-.072a.66.66 0 0 0 .287-.287c.072-.14.072-.324.072-.692v-.525c0-.368 0-.551-.072-.692a.66.66 0 0 0-.287-.287c-.14-.072-.324-.072-.692-.072h-.525c-.368 0-.551 0-.692.072a.66.66 0 0 0-.287.287m5.929.692c0-.368 0-.551.072-.692a.66.66 0 0 1 .287-.287c.14-.072.324-.072.692-.072h.525c.367 0 .551 0 .692.072a.66.66 0 0 1 .287.287c.072.14.072.324.072.692v.525c0 .368 0 .551-.072.692a.66.66 0 0 1-.287.287c-.14.072-.324.072-.692.072h-.525c-.367 0-.551 0-.692-.072a.66.66 0 0 1-.287-.287c-.072-.14-.072-.324-.072-.692zm.072 5.308c-.072.14-.072.324-.072.692v.525c0 .367 0 .551.072.692a.66.66 0 0 0 .287.287c.14.072.324.072.692.072h.525c.367 0 .551 0 .692-.072a.66.66 0 0 0 .287-.287c.072-.14.072-.324.072-.692v-.525c0-.367 0-.551-.072-.692a.66.66 0 0 0-.287-.287c-.14-.072-.324-.072-.692-.072h-.525c-.367 0-.551 0-.692.072a.66.66 0 0 0-.287.287m-6.071.692c0-.367 0-.551.072-.692a.66.66 0 0 1 .287-.287c.14-.072.324-.072.692-.072h.525c.368 0 .551 0 .692.072a.66.66 0 0 1 .287.287c.072.14.072.324.072.692v.525c0 .367 0 .551-.072.692a.66.66 0 0 1-.287.287c-.14.072-.324.072-.692.072h-.525c-.368 0-.551 0-.692-.072a.66.66 0 0 1-.287-.287c-.072-.14-.072-.324-.072-.692zm3.072-3.692c-.072.14-.072.324-.072.692v.525c0 .367 0 .551.072.692a.66.66 0 0 0 .287.287c.14.072.324.072.692.072h.525c.367 0 .551 0 .692-.072a.66.66 0 0 0 .287-.287c.072-.14.072-.324.072-.692v-.525c0-.367 0-.551-.072-.692a.66.66 0 0 0-.287-.287c-.14-.072-.324-.072-.692-.072h-.525c-.367 0-.551 0-.692.072a.66.66 0 0 0-.287.287M18.7 3h-.15l-1.808.034a3 3 0 0 0-.367.05l-.063.018a1 1 0 0 0-.453.443 1 1 0 0 0-.024.079 3 3 0 0 0-.05.367c-.033.4-.034.934-.034 1.808v.15l.034 1.808c.015.186.034.299.05.367l.018.063c.102.204.255.357.443.453.026.01.046.017.079.024.069.016.181.035.367.05.4.033.934.034 1.808.034h.15l1.808-.034c.186-.015.299-.034.367-.05l.063-.018c.204-.102.357-.255.453-.443a1 1 0 0 0 .024-.079c.016-.068.035-.181.051-.367.033-.4.034-.934.034-1.808V5.8l-.034-1.808a2.4 2.4 0 0 0-.051-.367l-.018-.063a1 1 0 0 0-.443-.453 1 1 0 0 0-.079-.024 3 3 0 0 0-.367-.05c-.4-.033-.934-.034-1.808-.034zm-4.623-.362c-.327.642-.327 1.482-.327 3.162v.15c0 1.68 0 2.52.327 3.162a3 3 0 0 0 1.311 1.311c.642.327 1.482.327 3.162.327h.15c1.68 0 2.52 0 3.162-.327a3 3 0 0 0 1.311-1.311c.327-.642.327-1.482.327-3.162V5.8c0-1.68 0-2.52-.327-3.162a3 3 0 0 0-1.311-1.311C21.22 1 20.38 1 18.7 1h-.15c-1.68 0-2.52 0-3.162.327a3 3 0 0 0-1.311 1.311M18.25 4.75a.75.75 0 0 0-.75.75v.75a.75.75 0 0 0 .75.75H19a.75.75 0 0 0 .75-.75V5.5a.75.75 0 0 0-.75-.75zm-12.3 11H5.8l-1.808.034a3 3 0 0 0-.367.05l-.063.018a1 1 0 0 0-.453.443 1 1 0 0 0-.024.079 3 3 0 0 0-.05.367c-.033.4-.034.934-.034 1.808v.15l.034 1.808c.015.186.034.299.05.367l.018.063c.102.204.255.357.443.453a1 1 0 0 0 .079.024c.068.016.181.035.367.051.4.033.934.034 1.808.034h.15l1.808-.034c.186-.015.299-.034.367-.051l.063-.018c.204-.102.357-.255.453-.443a1 1 0 0 0 .024-.079c.016-.069.035-.181.05-.367.033-.4.034-.934.034-1.808v-.15l-.034-1.808a3 3 0 0 0-.05-.367l-.018-.063a1 1 0 0 0-.443-.453 1 1 0 0 0-.079-.024 3 3 0 0 0-.367-.05c-.4-.033-.934-.034-1.808-.034m-4.623-.362C1 16.03 1 16.87 1 18.55v.15c0 1.68 0 2.52.327 3.162a3 3 0 0 0 1.311 1.311c.642.327 1.482.327 3.162.327h.15c1.68 0 2.52 0 3.162-.327a3 3 0 0 0 1.311-1.311c.327-.642.327-1.482.327-3.162v-.15c0-1.68 0-2.52-.327-3.162a3 3 0 0 0-1.311-1.311c-.642-.327-1.482-.327-3.162-.327H5.8c-1.68 0-2.52 0-3.162.327a3 3 0 0 0-1.311 1.311M5.5 17.5a.75.75 0 0 0-.75.75V19a.75.75 0 0 0 .75.75h.75A.75.75 0 0 0 7 19v-.75a.75.75 0 0 0-.75-.75z"></path></svg>