<svg xmlns="http://www.w3.org/2000/svg" viewBox="0 0 16 16"><path fill="currentColor" fill-rule="evenodd" d="M5.096 1.5h-.03c-.556 0-1.017 0-1.396.031-.394.031-.763.102-1.112.28-.537.274-.973.71-1.247 1.247-.178.35-.249.718-.28 1.112C1 4.55 1 5.01 1 5.565v4.276c0 .675-.001 1.198.15 1.645a2.85 2.85 0 0 0 1.79 1.79c.446.15.97.15 1.645.15h.125c.376 0 .478.002.567.017.197.032.383.11.546.226.073.052.146.123.412.388l.08.081.018.017c.173.172.33.33.472.453.154.132.334.263.562.348.408.152.857.152 1.266 0 .228-.085.408-.217.562-.348a9 9 0 0 0 .471-.453l.018-.017.08-.08c.266-.266.339-.336.413-.389a1.3 1.3 0 0 1 .546-.226c.09-.015.191-.017.566-.017h.126c.675 0 1.198 0 1.645-.15a2.85 2.85 0 0 0 1.79-1.79c.15-.446.15-.97.15-1.645V5.565c0-.555 0-1.016-.031-1.395-.031-.394-.102-.763-.28-1.112a2.85 2.85 0 0 0-1.245-1.247c-.35-.178-.72-.249-1.113-.28-.379-.031-.84-.031-1.394-.031zM3.264 3.197c.093-.048.235-.092.533-.116.307-.024.705-.025 1.3-.025h5.807c.593 0 .992 0 1.298.025.299.024.44.068.535.116.244.124.442.322.566.567.048.093.092.235.115.533.025.307.026.705.026 1.3v4.118c0 .862-.01 1.103-.068 1.273a1.3 1.3 0 0 1-.813.814c-.171.058-.412.068-1.274.068h-.051c-.301 0-.536 0-.767.038a2.85 2.85 0 0 0-1.202.497 5 5 0 0 0-.567.516l-.037.036-.08.08c-.196.196-.312.312-.405.392a1 1 0 0 1-.093.07.26.26 0 0 1-.174 0 1 1 0 0 1-.094-.07 8 8 0 0 1-.404-.391l-.08-.08-.037-.037a5 5 0 0 0-.567-.516 2.85 2.85 0 0 0-1.203-.497c-.23-.038-.466-.038-.766-.038H4.71c-.861 0-1.102-.01-1.273-.068a1.3 1.3 0 0 1-.813-.813c-.058-.171-.068-.412-.068-1.274V5.596c0-.593 0-.992.025-1.3.024-.297.068-.439.116-.532.124-.244.323-.443.567-.567M7.53 5.872a.5.5 0 0 0-.05.239.648.648 0 1 1-1.296 0c0-.67.31-1.142.719-1.423A2 2 0 0 1 8 4.352c.292 0 .72.079 1.096.336.41.28.719.754.719 1.423 0 .733-.49 1.141-.751 1.358l-.06.05c-.264.227-.356.338-.356.592a.648.648 0 1 1-1.296 0c0-.858.49-1.302.809-1.576.348-.298.357-.328.357-.424a.5.5 0 0 0-.05-.239.3.3 0 0 0-.105-.115A.7.7 0 0 0 8 5.648a.7.7 0 0 0-.363.109.3.3 0 0 0-.106.114m1.117 4.313a.648.648 0 1 1-1.296 0 .648.648 0 0 1 1.296 0"></path></svg>