<svg xmlns="http://www.w3.org/2000/svg" fill="none" viewBox="0 0 24 24"><path fill="currentColor" fill-rule="evenodd" d="M6.414 0c-1.17 0-2.293.465-3.121 1.293a1 1 0 1 0 1.414 1.414A2.4 2.4 0 0 1 6.414 2h11.172c.64 0 1.254.254 1.707.707a1 1 0 1 0 1.414-1.414A4.4 4.4 0 0 0 17.586 0zM0 13c0-3.75 0-5.625.955-6.939A5 5 0 0 1 2.06 4.955C3.375 4 5.251 4 9 4h6c3.75 0 5.625 0 6.939.955a5 5 0 0 1 1.106 1.106C24 7.375 24 9.251 24 13s0 5.625-.955 6.939a5 5 0 0 1-1.106 1.106C20.625 22 18.749 22 15 22H9c-3.75 0-5.625 0-6.939-.955A5 5 0 0 1 .955 19.94C0 18.625 0 16.749 0 13m10.84-2.943c0-.476.183-.689.376-.82C11.46 9.066 11.79 9 12 9s.539.068.784.236c.193.132.376.345.376.821 0 .285-.104.401-.73.938-.583.499-1.43 1.27-1.43 2.765a1 1 0 1 0 2 0c0-.563.233-.82.73-1.246l.111-.093c.484-.406 1.319-1.105 1.319-2.364 0-1.17-.537-1.985-1.245-2.47A3.5 3.5 0 0 0 12 7c-.51 0-1.261.138-1.916.587-.707.485-1.244 1.3-1.244 2.47a1 1 0 1 0 2 0M12 18.75a1.25 1.25 0 1 0 0-2.5 1.25 1.25 0 0 0 0 2.5" clip-rule="evenodd"></path></svg>