<svg xmlns="http://www.w3.org/2000/svg" viewBox="0 0 48 48"><path fill="currentColor" fill-rule="evenodd" d="M38.59 29.954c-.288-.209-.772-.235-1.098-.07-5.5 2.923-12.427 1.884-16.843-2.53-4.422-4.418-5.467-11.344-2.533-16.862.178-.359.14-.777-.1-1.094-.23-.3-.73-.475-1.102-.368-7.603 2.175-12.913 9.22-12.913 17.134 0 9.834 7.998 17.834 17.829 17.834 7.915 0 14.962-5.32 17.138-12.94.105-.371-.069-.876-.378-1.105m-.375-23.312a.4.4 0 0 0 0 .716l1.045.523a2 2 0 0 1 .895.894l.522 1.045a.4.4 0 0 0 .716 0l.523-1.045a2 2 0 0 1 .894-.895l1.045-.522a.4.4 0 0 0 0-.716L42.81 6.12a2 2 0 0 1-.894-.895l-.523-1.045a.4.4 0 0 0-.716 0l-.522 1.045a2 2 0 0 1-.895.895zm-8.784 5.643a.8.8 0 0 0 0 1.43l2.09 1.046a4 4 0 0 1 1.789 1.789l1.045 2.09a.8.8 0 0 0 1.431 0l1.045-2.09a4 4 0 0 1 1.79-1.79l2.09-1.044a.8.8 0 0 0 0-1.431l-2.09-1.046a4 4 0 0 1-1.79-1.789l-1.045-2.09a.8.8 0 0 0-1.43 0L33.31 9.45a4 4 0 0 1-1.789 1.79z"></path></svg>