<svg xmlns="http://www.w3.org/2000/svg" viewBox="0 0 16 16"><path fill="currentColor" d="M14.827 2.25V4.2q-1.128.305-1.714.854t-.937 1.394-.35 2.065q1.431 0 2.125.823.693.822.693 1.752 0 1.081-.762 1.829-.762.746-1.782.746-1.326 0-2.271-1.135t-.945-3.1q0-1.738.747-3.254a7.8 7.8 0 0 1 2.042-2.59q1.295-1.075 3.154-1.334m-7.65 0V4.2q-1.127.305-1.714.854-.586.548-.937 1.394-.35.846-.35 2.065 1.462 0 2.148.823.686.822.686 1.752a2.45 2.45 0 0 1-.77 1.829q-.769.746-1.775.746-1.31 0-2.263-1.135t-.952-3.1q0-1.738.747-3.254a7.85 7.85 0 0 1 2.034-2.59Q5.318 2.508 7.178 2.25"></path></svg>