<svg xmlns="http://www.w3.org/2000/svg" viewBox="0 0 16 16"><path fill="currentColor" fill-rule="evenodd" d="M6.8.5h-.055L3.518.613c-.873.117-1.612.369-2.199.956S.48 2.895.363 3.768C.25 4.608.25 5.675.25 6.995v.804l.092 2.892c.095.785.298 1.459.776 2.022a3.7 3.7 0 0 0 .419.419c.563.479 1.237.681 2.022.777C4.317 14 5.271 14 6.451 14H6.5a.75.75 0 1 0 0-1.5c-1.241 0-2.104-.001-2.76-.081-.64-.077-.983-.219-1.231-.431a2 2 0 0 1-.247-.247c-.211-.249-.353-.592-.431-1.231-.08-.657-.081-1.52-.081-2.76v-.7l.008-1.55h12.484l.008 1.55v.7a.75.75 0 1 0 1.5 0v-.755l-.113-3.227c-.117-.873-.369-1.612-.956-2.199S13.355.73 12.482.613C11.642.5 10.575.5 9.255.5H6.8M14.155 4l-.004-.032c-.095-.707-.268-1.076-.53-1.338s-.632-.435-1.338-.53C11.554 2.002 10.588 2 9.2 2H6.8l-3.082.099c-.707.095-1.076.268-1.338.53s-.435.632-.53 1.338L1.845 4zM3.5 10a.75.75 0 0 1 .75-.75h1.5a.75.75 0 0 1 0 1.5h-1.5A.75.75 0 0 1 3.5 10m6-1a.75.75 0 0 1 .678.428A3.5 3.5 0 0 1 11.86 9c1.833 0 3.39 1.417 3.39 3.25s-1.557 3.25-3.39 3.25c-1.211 0-2.29-.611-2.892-1.552a.75.75 0 1 1 1.264-.808c.324.506.924.86 1.628.86 1.083 0 1.89-.822 1.89-1.75s-.807-1.75-1.89-1.75a2 2 0 0 0-.425.044.75.75 0 0 1-.473 1.332l-1.462.001a.75.75 0 0 1-.75-.75V9.75A.75.75 0 0 1 9.5 9"></path></svg>