<svg xmlns="http://www.w3.org/2000/svg" viewBox="0 0 16 16"><path fill="currentColor" fill-rule="evenodd" d="M.25 6.75v-.712c.002-.37.002-.554.12-.671.116-.117.302-.117.675-.117h13.91c.373 0 .559 0 .676.117s.117.302.118.671l.001.712v1c0 .973 0 1.778-.036 2.452C14.953 8.86 13.471 8 11.874 8a4.5 4.5 0 0 0-1.271.183 2.013 2.013 0 0 0-2.853 1.83v1.232c0 .415.128.816.362 1.152a2.02 2.02 0 0 0-.243 1.353H6.25c-2.828 0-4.243 0-5.121-.879C.25 11.993.25 10.578.25 7.75zm15.383-3.342c.054.378.08.566-.039.704-.12.138-.323.138-.728.138H1.134c-.405 0-.608 0-.728-.138s-.093-.326-.04-.704c.113-.79.332-1.35.763-1.78C2.007.75 3.422.75 6.25.75h3.5c2.828 0 4.243 0 5.121.879.43.43.65.988.762 1.779M3.906 9.25a.75.75 0 0 0 0 1.5h1.5a.75.75 0 0 0 0-1.5zm5.594-.1a.6.6 0 0 1 .592.502 3.34 3.34 0 0 1 1.768-.502c1.758 0 3.24 1.358 3.24 3.1s-1.482 3.1-3.24 3.1c-1.16 0-2.191-.586-2.765-1.482a.6.6 0 0 1 1.01-.647c.352.549 1 .929 1.755.929 1.158 0 2.04-.881 2.04-1.9s-.882-1.9-2.04-1.9c-.31 0-.601.064-.862.178a.6.6 0 0 1-.036 1.198l-1.462.001a.6.6 0 0 1-.6-.6V9.75a.6.6 0 0 1 .6-.6"></path></svg>