<svg xmlns="http://www.w3.org/2000/svg" viewBox="0 0 16 16"><path fill="currentColor" d="M1.695 7.717a.75.75 0 0 1 .75.75c0 3.167 2.55 5.392 5.864 5.392 1.566 0 2.865-.789 3.807-1.643.197-.18.376-.36.535-.531h-1.45a.751.751 0 0 1 0-1.5h2.988a.75.75 0 0 1 .75.75v3.307a.75.75 0 0 1-1.5 0v-1.218q-.15.151-.315.303c-1.085.983-2.728 2.032-4.815 2.032-3.991 0-7.364-2.754-7.364-6.892a.75.75 0 0 1 .75-.75M8.185.63c4.015 0 7.364 2.755 7.364 6.892a.75.75 0 0 1-1.5 0c0-3.169-2.53-5.392-5.865-5.392-1.982 0-3.471.823-4.48 1.664a8 8 0 0 0-.555.51h1.36a.75.75 0 0 1 0 1.5H1.57a.75.75 0 0 1-.75-.75V1.748a.75.75 0 0 1 1.5 0v1.268q.198-.186.424-.373C3.94 1.645 5.757.63 8.184.63Z"></path></svg>