<svg xmlns="http://www.w3.org/2000/svg" viewBox="0 0 16 16"><path fill="currentColor" fill-rule="evenodd" d="M2.047 5.283c1.251-.722 4.151-1.754 6.955-2.526l3.776-.863.318-.049L7.4 7.54l-.954-.23-2.721-.827a11 11 0 0 1-1.213-.527c-.353-.186-.582-.351-.704-.48l-.015-.016c.045-.041.122-.101.253-.176zm6.414 3.318.23.954.827 2.721a11 11 0 0 0 .527 1.213c.186.353.351.582.48.704l.016.015c.041-.045.101-.122.176-.253.722-1.251 1.754-4.151 2.526-6.955l.863-3.776.049-.318L8.46 8.601zM15.564.783c.095.188.138.391.16.565.024.19.03.398.025.612-.011.429-.07.943-.162 1.505-.183 1.126-.507 2.515-.898 3.933-.774 2.812-1.847 5.875-2.673 7.306-.263.455-.631.884-1.163 1.011-.579.138-1.053-.144-1.358-.432s-.563-.687-.778-1.096a12 12 0 0 1-.605-1.389 30 30 0 0 1-.875-2.872L7.01 8.99l-.936-.227-2.873-.875a12 12 0 0 1-1.389-.605c-.409-.215-.808-.472-1.096-.778s-.568-.779-.43-1.358c.127-.532.556-.9 1.011-1.163 1.431-.826 4.494-1.899 7.306-2.673l3.933-.897a12 12 0 0 1 1.505-.162 4 4 0 0 1 .612.025c.173.022.377.065.565.16a.8.8 0 0 1 .179.122l.044.044q.075.083.122.179z"></path></svg>