<svg xmlns="http://www.w3.org/2000/svg" fill="none" viewBox="0 0 16 16"><path fill="currentColor" d="M8.538.5c.567 0 1.08.315 1.364.78.138.225.23.502.207.795-.015.225.054.45.176.66a1.48 1.48 0 0 0 1.932.518 1.584 1.584 0 0 1 2.154.57l.513.884a1.52 1.52 0 0 1-.567 2.123c-.652.383-.881 1.23-.49 1.875.122.203.26.375.475.48.268.143.475.367.62.592.284.466.261 1.036-.015 1.538l-.536.9c-.284.48-.813.78-1.357.78a1.6 1.6 0 0 1-.812-.225 1.23 1.23 0 0 0-.675-.172 1.43 1.43 0 0 0-1.418 1.364c0 .863-.705 1.538-1.586 1.538H7.48c-.889 0-1.594-.675-1.594-1.537-.015-.743-.652-1.365-1.41-1.365-.253 0-.483.044-.675.172a1.6 1.6 0 0 1-.812.225 1.6 1.6 0 0 1-1.365-.78l-.528-.9c-.284-.487-.3-1.072-.016-1.537.123-.226.353-.45.613-.593.215-.105.353-.277.483-.48.383-.645.154-1.492-.498-1.875a1.533 1.533 0 0 1-.567-2.123l.513-.885a1.593 1.593 0 0 1 2.162-.57c.667.36 1.533.12 1.924-.517a1.16 1.16 0 0 0 .176-.66c-.015-.293.069-.57.215-.795A1.65 1.65 0 0 1 7.457.5h1.08Zm-.529 5.385c-1.203 0-2.177.945-2.177 2.123 0 1.177.974 2.115 2.177 2.115s2.154-.938 2.154-2.115-.95-2.123-2.154-2.123"></path></svg>