<svg xmlns="http://www.w3.org/2000/svg" viewBox="0 0 16 16"><path fill="currentColor" fill-rule="evenodd" d="M10.648 2.56c.012.399.507.69.881.47l.008-.004a1.98 1.98 0 0 1 1.873-.064c.534.252.96.703 1.24 1.189s.456 1.08.407 1.668c-.05.615-.35 1.218-.988 1.591l-.006.003c-.372.213-.375.804.001 1.02.65.374.965.977 1.018 1.604.05.597-.135 1.195-.425 1.681-.29.488-.726.933-1.266 1.181-.562.258-1.239.296-1.88-.073-.368-.21-.865.076-.863.51v.007c-.004.74-.377 1.303-.886 1.654-.487.336-1.09.479-1.653.478-.562 0-1.165-.145-1.651-.483-.507-.353-.877-.916-.878-1.654-.007-.414-.51-.704-.878-.489l-.011.006a2 2 0 0 1-1.885.051c-.535-.258-.958-.715-1.235-1.205s-.448-1.087-.398-1.674c.051-.612.35-1.217.988-1.586h.001c.38-.22.38-.81 0-1.029l-.002-.001a1.97 1.97 0 0 1-.993-1.601c-.045-.593.14-1.188.427-1.673s.718-.934 1.253-1.185c.559-.263 1.234-.306 1.876.061l.01.006c.16.095.36.094.547-.015a.59.59 0 0 0 .306-.49c0-.745.37-1.315.884-1.67C6.96.502 7.573.36 8.14.364c.568.005 1.178.159 1.663.51.505.367.86.943.845 1.686m-3.324-.484a.49.49 0 0 0-.238.44v.015c-.022 1.536-1.743 2.588-3.113 1.782-.154-.088-.305-.09-.488-.004-.206.097-.431.305-.6.59-.169.287-.239.579-.222.799.014.19.087.32.25.416 1.378.796 1.378 2.829 0 3.625h-.001l-.375-.65.376.65c-.152.088-.229.215-.246.415-.019.225.048.522.21.81.163.288.38.495.58.591a.5.5 0 0 0 .496-.006l-.007.004.378.648-.367-.654-.004.002c1.353-.782 3.11.202 3.127 1.776v.008c0 .186.075.316.234.427.182.127.469.215.797.215s.617-.086.8-.213c.16-.11.235-.24.237-.424v.005l.75-.004-.75-.004v.003c-.005-1.584 1.737-2.597 3.108-1.814l.002.002c.163.093.321.096.507.01.21-.096.435-.302.603-.585.169-.283.237-.572.219-.789a.5.5 0 0 0-.27-.429c-1.379-.793-1.377-2.829-.003-3.62l-.002.002.378.648-.372-.651-.004.002c.158-.093.233-.223.249-.417.018-.222-.05-.514-.213-.798-.163-.283-.382-.487-.58-.581a.48.48 0 0 0-.485.008q.003 0 .005-.003l-.38-.646.373.65h.002c-1.337.782-3.12-.168-3.137-1.76v-.03a.49.49 0 0 0-.225-.447c-.179-.13-.465-.222-.796-.225-.33-.003-.62.084-.804.211Zm.793 4.749a1.101 1.101 0 1 0 0 2.203 1.101 1.101 0 0 0 0-2.203M5.515 7.926a2.601 2.601 0 1 1 5.203 0 2.601 2.601 0 0 1-5.203 0"></path></svg>