<svg xmlns="http://www.w3.org/2000/svg" viewBox="0 0 16 16"><path fill="currentColor" fill-rule="evenodd" d="M7.546 2.494c.298.219.454.52.454 1.006a1 1 0 1 0 2 0c0-1.014-.378-1.963-1.271-2.619C7.889.264 6.715 0 5.297 0 4.14 0 3.16.166 2.363.568 1.536.985.98 1.618.626 2.4.286 3.15.141 4.02.07 4.93 0 5.837 0 6.87 0 7.972v.058c0 1.102 0 2.135.07 3.04.07.91.217 1.78.556 2.53.354.783.91 1.416 1.737 1.833.796.402 1.776.568 2.934.568 1.418 0 2.591-.264 3.432-.881C9.622 14.463 10 13.514 10 12.5a1 1 0 1 0-2 0c0 .486-.156.787-.454 1.006-.352.258-1.03.494-2.249.494-.99 0-1.622-.146-2.034-.354-.381-.192-.631-.465-.815-.87-.197-.438-.32-1.037-.384-1.861C2.001 10.095 2 9.137 2 8s0-2.094.064-2.915c.064-.824.187-1.423.384-1.86.184-.406.434-.679.815-.871C3.675 2.146 4.307 2 5.297 2c1.218 0 1.897.236 2.249.494m3.747 1.799a1 1 0 0 1 1.414 0l3 3a1 1 0 0 1 0 1.414l-3 3a1 1 0 0 1-1.414-1.414L12.586 9H5a1 1 0 1 1 0-2h7.586l-1.293-1.293a1 1 0 0 1 0-1.414"></path></svg>