<svg xmlns="http://www.w3.org/2000/svg" viewBox="0 0 16 16"><path fill="currentColor" fill-rule="evenodd" d="M5.35 2.392a2.14 2.14 0 0 0-2.103-.863c-.659.114-1.224.665-1.425 1.501-.196.819-.019 1.883.836 2.858a.75.75 0 0 1-1.128.989C.37 5.554.049 3.996.364 2.681.675 1.383 1.629.287 2.991.051a3.64 3.64 0 0 1 3.567 1.452c.708.962 1.097 2.375.983 4.36q.26.022.504.081c.817.196 1.576.743 1.713 1.736.068.491-.052.961-.185 1.338-.093.262-.218.544-.325.783l-.113.257c-.138.323-.195.517-.201.64-.001.03-.002.04.002.046.035.015.125.024.317-.09.261-.155.574-.479.802-.97.333-.719.717-1.355 1.161-1.735.229-.196.537-.377.912-.397.4-.02.739.15.992.394.327.315.421.699.429 1.015.007.259-.045.521-.077.684l-.007.036a2 2 0 0 0 .155-.065 3 3 0 0 0 .742-.523.75.75 0 0 1 1.043 1.078 4.5 4.5 0 0 1-1.143.801c-.397.188-1.014.387-1.599.135a1.2 1.2 0 0 1-.504-.391 1.2 1.2 0 0 1-.22-.543c-.042-.288.015-.584.048-.749l.004-.021.024-.127c-.167.21-.373.548-.6 1.039-.334.72-.836 1.295-1.397 1.628-.538.32-1.306.497-1.947.027a1.52 1.52 0 0 1-.637-1.338c.019-.422.183-.841.319-1.162l.151-.344.252-.608c.104-.295.132-.494.113-.633-.026-.191-.149-.38-.576-.482a2 2 0 0 0-.32-.048l-.218 1.142c-.386 1.753-1.207 2.992-2.143 3.711-.889.683-2.048.992-2.928.46a2.14 2.14 0 0 1-1.045-1.586c-.082-.63.091-1.286.419-1.887.659-1.203 2.023-2.349 3.932-3.023a6 6 0 0 1 .638-.187c.142-1.871-.223-2.972-.68-3.592zm.457 5.224c-1.591.582-2.594 1.501-3.031 2.299-.223.407-.278.741-.248.972a.64.64 0 0 0 .333.497c.116.07.578.143 1.239-.365.613-.472 1.27-1.379 1.593-2.844zm-4.866 7.65a.75.75 0 0 1 .75-.75h12.756a.75.75 0 0 1 0 1.5H1.691a.75.75 0 0 1-.75-.75"></path></svg>