<svg xmlns="http://www.w3.org/2000/svg" viewBox="0 0 16 16"><path fill="currentColor" fill-rule="evenodd" d="M7.386 3.25H15a.75.75 0 0 1 0 1.5H7.386a2.501 2.501 0 0 1-4.772 0H1a.75.75 0 0 1 0-1.5h1.614a2.501 2.501 0 0 1 4.772 0m-3.047 1.5a.996.996 0 0 0 1.322 0 .998.998 0 0 0 0-1.5.996.996 0 0 0-1.322 0 .998.998 0 0 0 0 1.5m9.047 6.5H15a.75.75 0 0 1 0 1.5h-1.614a2.501 2.501 0 0 1-4.772 0H1a.75.75 0 0 1 0-1.5h7.614a2.501 2.501 0 0 1 4.772 0m-3.047 1.5a.996.996 0 0 0 1.322 0 .997.997 0 0 0 0-1.5.996.996 0 0 0-1.322 0 .997.997 0 0 0 0 1.5"></path></svg>