<svg xmlns="http://www.w3.org/2000/svg" viewBox="0 0 16 16"><path fill="currentColor" fill-rule="evenodd" d="M3 2.75c0-.414.322-.75.72-.75h10.56c.398 0 .72.336.72.75s-.322.75-.72.75H3.72c-.398 0-.72-.336-.72-.75M3.75 6a.75.75 0 0 1 .75.75v4.69l.72-.72a.75.75 0 0 1 1.06 1.06l-2 2a.75.75 0 0 1-1.06 0l-2-2a.75.75 0 1 1 1.06-1.06l.72.72V6.75A.75.75 0 0 1 3.75 6M7 7.25a.75.75 0 0 1 .75-.75h6.5a.75.75 0 0 1 0 1.5h-6.5A.75.75 0 0 1 7 7.25m3 4.5c0-.414.292-.75.652-.75h3.696c.36 0 .652.336.652.75s-.292.75-.652.75h-3.696c-.36 0-.652-.336-.652-.75"></path></svg>