<svg xmlns="http://www.w3.org/2000/svg" fill="none" viewBox="0 0 16 16"><path fill="currentColor" d="M8 .5c2.33 0 3.494 0 4.413.38a5 5 0 0 1 2.706 2.707c.38.919.381 2.083.381 4.413s0 3.494-.38 4.413a5 5 0 0 1-2.707 2.706c-.919.38-2.084.381-4.413.381-2.184 0-3.345 0-4.238-.313l-.175-.068A5 5 0 0 1 .98 12.64l-.1-.226C.5 11.494.5 10.33.5 8c0-2.184 0-3.345.313-4.238l.068-.175A5 5 0 0 1 3.36.98l.226-.1C4.506.5 5.67.5 8 .5M8 2c-1.185 0-2 0-2.634.044-.62.042-.96.12-1.206.223A3.5 3.5 0 0 0 2.267 4.16c-.102.246-.18.585-.223 1.206C2.001 6.001 2 6.815 2 8s0 2 .044 2.634c.042.62.12.96.223 1.206a3.5 3.5 0 0 0 1.893 1.893c.246.102.585.18 1.206.223C6.001 14 6.815 14 8 14s2 0 2.634-.044c.62-.042.96-.12 1.206-.223a3.5 3.5 0 0 0 1.893-1.893c.102-.246.18-.585.223-1.206C14 9.999 14 9.185 14 8s0-2-.044-2.634c-.042-.62-.12-.96-.223-1.206a3.5 3.5 0 0 0-1.893-1.893c-.246-.102-.585-.18-1.206-.223C9.999 2.001 9.185 2 8 2M6.854 5.191c.44-1.034 1.963-1 2.332.104l1.4 4.202.47 1.406a.75.75 0 0 1-1.424.475l-.298-.894H6.666l-.298.894a.75.75 0 0 1-1.424-.475l.47-1.406 1.4-4.202zm.312 3.793h1.668L8 6.481z"></path></svg>