<svg xmlns="http://www.w3.org/2000/svg" viewBox="0 0 24 24"><path fill="currentColor" fill-rule="evenodd" d="M9.8 13.865a4.46 4.46 0 0 0 3.857.312l5.253 3.374-5.858 3.364a2.85 2.85 0 0 1-2.832 0L3.44 17.02h-.001a.846.846 0 0 1-.045-1.456h.001l4.405-2.87zm-3.928-2.302-3.57 2.325a2.845 2.845 0 0 0 .141 4.867l6.781 3.894a4.85 4.85 0 0 0 4.824 0l6.758-3.88-1.896-1.218 1.896 1.217a2.846 2.846 0 0 0 .124-4.879h-.002l-3.186-2.04 3.274-1.919a2.51 2.51 0 0 0 1.258-2.192 2.52 2.52 0 0 0-1.257-2.193L14.304 1.61h-.001a4.47 4.47 0 0 0-4.503 0L3.087 5.545A2.52 2.52 0 0 0 1.83 7.738c.001.912.47 1.732 1.257 2.192zm9.934 1.421 4.043 2.588a.846.846 0 0 1-.039 1.462l-.9.517-5.253-3.374a4.5 4.5 0 0 0 .647-.312z"></path></svg>