<svg xmlns="http://www.w3.org/2000/svg" viewBox="0 0 16 16"><path fill="none" stroke="currentColor" stroke-width="1.5" d="M7.325 2.7c.312-.633.469-.95.717-.95.249 0 .405.317.718.95l1.3 2.635c.092.185.137.277.217.335s.182.073.386.103l2.908.422c.699.102 1.048.153 1.125.39.077.236-.176.482-.681.975L11.91 9.611c-.148.144-.221.216-.252.31-.03.094-.013.195.022.398l.497 2.897c.119.696.179 1.044-.022 1.19-.202.146-.514-.018-1.14-.347l-2.6-1.367c-.183-.096-.274-.144-.373-.144s-.19.048-.372.144l-2.601 1.367c-.625.33-.938.493-1.139.347s-.141-.494-.022-1.19l.497-2.897c.035-.203.052-.304.021-.398s-.104-.166-.251-.31L2.07 7.56c-.505-.493-.758-.74-.681-.976s.426-.287 1.125-.389l2.908-.422c.204-.03.306-.045.386-.103s.125-.15.216-.335z"></path></svg>