<svg xmlns="http://www.w3.org/2000/svg" viewBox="0 0 16 16"><path fill="currentColor" fill-rule="evenodd" d="M8.103.753a2 2 0 0 0-.205 0c-.711.038-1.168.53-1.492 1.005s-.654 1.146-1.048 1.945l-.027.054-.268.516c-.056.093-.079.108-.081.109l-.013.01a.4.4 0 0 1-.129.043 7 7 0 0 1-.573.095l-.06.009-2.174.396c-.552.161-1.161.444-1.417 1.108a2 2 0 0 0-.063.195c-.183.688.143 1.275.495 1.73s.888.976 1.526 1.598l.043.042.408.414c.071.082.079.109.079.111l.005.015c.001.002.01.028.001.136a8 8 0 0 1-.087.575l-.01.06-.295 2.189c-.018.575.063 1.241.616 1.69q.08.064.166.12c.598.387 1.257.258 1.798.064s1.203-.543 1.991-.957l.054-.028.52-.26c.1-.042.128-.041.13-.041h.016c.002 0 .03-.001.13.041.116.049.264.126.52.26l.054.028 1.991.957c.541.194 1.2.323 1.798-.064a2 2 0 0 0 .166-.12c.553-.449.634-1.115.616-1.69s-.145-1.312-.295-2.19l-.01-.06-.087-.575a.4.4 0 0 1 .001-.136l.005-.015c.001-.002.008-.029.079-.111a8 8 0 0 1 .408-.414l.043-.042 1.526-1.598c.352-.455.678-1.042.495-1.73a2 2 0 0 0-.063-.195c-.256-.664-.865-.947-1.417-1.108s-1.293-.268-2.174-.396l-.06-.009-.573-.095c-.105-.025-.127-.042-.129-.043l-.013-.009a.4.4 0 0 1-.081-.109 8 8 0 0 1-.268-.516l-.027-.054-1.05-1.945c-.323-.475-.78-.967-1.491-1.005"></path></svg>