<svg xmlns="http://www.w3.org/2000/svg" viewBox="0 0 24 24"><path fill="currentColor" fill-rule="evenodd" d="M15.166 5.583a.917.917 0 1 0 1.834 0v-1.85c0-.405.328-.733.733-.733h1.803C21.448 3 23 4.908 23 7.264v2.308c0 .25 0 .376-.055.454s-.214.135-.534.249C21.595 10.567 21 11.453 21 12.5s.594 1.933 1.412 2.225c.319.114.479.171.533.249s.055.203.055.453v2.31C23 20.091 21.45 22 19.537 22h-1.804a.733.733 0 0 1-.733-.733v-1.85a.917.917 0 1 0-1.834 0v1.85a.733.733 0 0 1-.733.733h-9.97C2.55 22 1 20.092 1 17.736v-2.309c0-.25 0-.375.055-.453.054-.078.214-.135.533-.25C2.406 14.434 3 13.548 3 12.5s-.594-1.933-1.411-2.225c-.32-.114-.48-.171-.534-.25C1 9.949 1 9.824 1 9.573l.001-2.308C1.001 4.908 2.551 3 4.464 3h9.969c.405 0 .733.328.733.733zm0 9a.917.917 0 1 0 1.834 0v-4.166a.917.917 0 1 0-1.834 0z"></path></svg>