<svg xmlns="http://www.w3.org/2000/svg" viewBox="0 0 24 24"><path fill="currentColor" fill-rule="evenodd" d="M4.806 2C2.251 2 .501 4.452.501 7.039L.5 9.195v.023l.011.359c.012.131.047.388.221.638.194.28.475.407.568.45l.006.003.408.162.024.009c.321.12.671.536.671 1.162s-.351 1.042-.671 1.162l-.024.009-.407.162-.006.002c-.093.042-.374.17-.568.45a1.3 1.3 0 0 0-.221.638c-.011.12-.011.257-.011.359v2.179C.5 19.548 2.249 22 4.805 22h14.39c2.557 0 4.305-2.452 4.305-5.039v-2.179l-.011-.359a1.3 1.3 0 0 0-.221-.638c-.194-.279-.475-.407-.568-.45l-.006-.002-.407-.162-.024-.009c-.321-.12-.671-.536-.671-1.162s.351-1.042.671-1.162l.024-.009.408-.162.006-.003c.093-.042.374-.17.568-.45a1.3 1.3 0 0 0 .221-.638c.011-.12.011-.257.011-.359v-.023L23.5 7.039C23.5 4.452 21.75 2 19.195 2H4.806M17.4 20a.4.4 0 0 1-.4-.4V18a1 1 0 1 0-2 0v1.6a.4.4 0 0 1-.4.4H4.805C3.71 20 2.5 18.837 2.5 16.961v-1.679a.44.44 0 0 1 .246-.383c1.032-.535 1.663-1.679 1.663-2.898s-.631-2.363-1.663-2.898A.44.44 0 0 1 2.5 8.72l.001-1.679C2.501 5.163 3.712 4 4.806 4H14.6a.4.4 0 0 1 .4.4V6a1 1 0 0 0 2 0V4.4a.4.4 0 0 1 .4-.4h1.794c1.095 0 2.305 1.163 2.305 3.039l.001 1.679a.44.44 0 0 1-.246.383c-1.032.535-1.663 1.679-1.663 2.898s.631 2.363 1.663 2.898a.44.44 0 0 1 .246.383v1.679c0 1.876-1.209 3.039-2.305 3.039H17.4zM16 15a1 1 0 0 1-1-1v-4a1 1 0 0 1 2 0v4a1 1 0 0 1-1 1"></path></svg>