<svg xmlns="http://www.w3.org/2000/svg" viewBox="0 0 16 16"><path fill="currentColor" fill-rule="evenodd" d="M.251 4.693c0-1.754 1.189-3.442 2.954-3.442h9.591c1.764 0 2.954 1.688 2.954 3.443l.001 1.437-.008.263a.96.96 0 0 1-.162.465 1 1 0 0 1-.412.328l-.005.002-.276.11-.017.006c-.177.066-.393.309-.393.696s.217.63.393.696l.017.006.276.11.005.002a1 1 0 0 1 .412.328.96.96 0 0 1 .162.465 3 3 0 0 1 .008.247v1.453c0 1.754-1.188 3.443-2.954 3.443H3.204C1.438 14.75.25 13.062.25 11.307V9.87l.008-.263a.96.96 0 0 1 .162-.465c.143-.205.348-.299.412-.328l.281-.112c.194-.072.41-.315.41-.703s-.217-.63-.393-.696l-.293-.116a1 1 0 0 1-.417-.33.96.96 0 0 1-.162-.465C.25 6.308.25 6.213.25 6.145l.001-1.453zM3.204 2.75c-.669 0-1.454.722-1.454 1.943v1.244C2.539 6.281 3.023 7.115 3.023 8s-.484 1.719-1.273 2.063v1.244c0 1.221.784 1.943 1.454 1.943h9.593c.67 0 1.454-.722 1.454-1.943v-1.244C13.462 9.72 12.978 8.885 12.978 8s.483-1.719 1.273-2.063l-.001-1.244c0-1.221-.784-1.943-1.454-1.943zm2.882 2.343A3.87 3.87 0 0 1 8.153 4.5c1.303 0 2.495.623 3.101 1.719a.75.75 0 1 1-1.313.725C9.636 6.391 8.989 6 8.153 6a2.4 2.4 0 0 0-1.019.227.75.75 0 0 1-.509 1.301H5.403a.75.75 0 0 1-.75-.75V5.403a.75.75 0 0 1 1.433-.309zm-.041 2.072-.001.002zm2.56 2.057a.75.75 0 0 1 .75-.75h1.242a.75.75 0 0 1 .75.75v1.375a.75.75 0 0 1-1.416.346c-.464.305-1.063.557-1.779.557-1.32 0-2.533-.645-3.129-1.775a.75.75 0 1 1 1.326-.701c.302.571.96.975 1.803.975.266 0 .514-.071.742-.186a.75.75 0 0 1-.289-.592z"></path></svg>