<svg xmlns="http://www.w3.org/2000/svg" viewBox="0 0 16 16"><path fill="currentColor" fill-rule="evenodd" d="M13.482 15C14.873 15 16 13.594 16 11.858v-1.743c0-.17 0-.254-.038-.306-.038-.053-.144-.088-.355-.158-.612-.202-1.061-.865-1.061-1.651s.448-1.45 1.06-1.651c.212-.07.318-.105.356-.158C16 6.14 16 6.054 16 5.885V4.142C16 2.406 14.87 1 13.48 1H2.52C1.128 1 0 2.406 0 4.142v1.743c0 .17 0 .254.038.306.038.053.144.088.355.158.613.202 1.062.865 1.062 1.651S1.005 9.45.393 9.651c-.211.07-.317.105-.355.158C0 9.86 0 9.946 0 10.115v1.743C0 13.594 1.127 15 2.518 15zM10.54 7.02a.75.75 0 1 0-1.082-1.04L7.451 8.068a.2.2 0 0 1-.288 0l-.622-.648a.75.75 0 0 0-1.082 1.039l1.307 1.36a.75.75 0 0 0 1.081 0z"></path></svg>