<svg xmlns="http://www.w3.org/2000/svg" viewBox="0 0 16 16"><path fill="currentColor" d="M12.796 1.25c1.764 0 2.953 1.688 2.953 3.442l.001 1.438c0 .068 0 .172-.008.263a.96.96 0 0 1-.162.464c-.146.211-.358.304-.416.33-.088.04-.198.081-.294.117-.176.066-.393.309-.393.696s.216.63.393.696c.096.036.206.077.294.117.05.023.22.096.359.255l.057.075.078.136a1 1 0 0 1 .084.328c.009.091.008.195.008.263v1.438c0 1.754-1.188 3.442-2.953 3.442H3.203c-1.655 0-2.802-1.484-2.94-3.115l-.013-.327V9.87l.008-.263a.96.96 0 0 1 .162-.464l.058-.075c.139-.159.307-.232.358-.255.088-.04.198-.081.294-.117.176-.066.392-.309.392-.696s-.216-.63-.392-.696c-.096-.036-.206-.077-.294-.117-.058-.026-.27-.119-.416-.33a.96.96 0 0 1-.162-.464C.249 6.302.25 6.198.25 6.13l.001-1.438c0-1.754 1.189-3.442 2.953-3.442zm-9.592 1.5c-.669 0-1.453.722-1.453 1.942v.001L1.75 5.938C2.539 6.282 3.022 7.115 3.022 8s-.483 1.717-1.272 2.06v1.248l.009.222c.088 1.086.816 1.72 1.444 1.72h9.594c.67 0 1.453-.722 1.453-1.942V10.06c-.789-.343-1.272-1.175-1.273-2.06s.484-1.718 1.272-2.062V4.692c0-1.22-.784-1.942-1.453-1.942zm4.429 2.026a.67.67 0 0 1 .839.085l2 2a.668.668 0 0 1-.944.944l-.861-.862V11a.667.667 0 0 1-1.334 0V6.943l-.861.862a.667.667 0 0 1-.944-.944l2-2z"></path></svg>