<svg xmlns="http://www.w3.org/2000/svg" viewBox="0 0 16 16"><path fill="currentColor" fill-rule="evenodd" d="M6.407.75h1.595H8h1.6l.488.015c.174.017.374.058.575.174s.337.268.44.41c.088.122.175.272.259.414l.013.022.175.3h2.95a.75.75 0 1 1 0 1.5h-.354l-.42 6.299-.002.034-.188 2.087c-.089.571-.229 1.066-.514 1.513a3.75 3.75 0 0 1-1.359 1.271c-.465.255-.969.362-1.544.413-.557.049-1.245.049-2.095.049h-.068c-.847 0-1.531 0-2.086-.049-.573-.05-1.075-.157-1.539-.41a3.75 3.75 0 0 1-1.358-1.264c-.285-.444-.428-.938-.519-1.506-.088-.55-.137-1.233-.197-2.078l-.002-.034-.452-6.326H1.5a.75.75 0 0 1 0-1.5h2.958l.175-.3.013-.022.259-.414c.103-.142.238-.294.44-.41s.401-.156.575-.174c.15-.015.323-.015.488-.015zM3.305 3.583l.444 6.219.185 1.981c.075.467.171.732.299.932.204.317.484.578.815.758.209.114.48.191.951.232.482.042 1.1.043 1.989.043l1.998-.043c.473-.042.746-.119.955-.234a2.25 2.25 0 0 0 .815-.763c.128-.201.224-.468.297-.937.075-.48.117-1.099.176-1.991l.413-6.199H3.305zm3.361 1.833c.414 0 .75.313.75.7v4.35c0 .387-.336.7-.75.7s-.75-.313-.75-.7v-4.35c0-.386.336-.7.75-.7m3.417 1.035c0-.572-.336-1.035-.75-1.035s-.75.463-.75 1.035v3.68c0 .572.336 1.035.75 1.035s.75-.463.75-1.035z"></path></svg>