<svg xmlns="http://www.w3.org/2000/svg" viewBox="0 0 16 16"><path fill="currentColor" fill-rule="evenodd" d="M7.105 2.201C7.615 2 7.981 2 8.08 2h.008a2.6 2.6 0 0 1 .994.209c.62.224 1.117.69 1.382 1.283a.75.75 0 0 0 1.37-.613A3.91 3.91 0 0 0 9.603.802 4.1 4.1 0 0 0 8.083.5c-.182 0-.76.004-1.52.302a3.91 3.91 0 0 0-2.34 2.352c-.256.77-.289 1.48-.293 2.417l-.064.02-.016.005-.015.005a3.46 3.46 0 0 0-2.072 2.064l-.005.014-.005.014C1.5 8.486 1.5 9.223 1.5 10.35v.185c0 1.129 0 1.865.254 2.658l.005.015.005.014a3.46 3.46 0 0 0 2.072 2.063l.015.006.016.004c.802.253 1.552.252 2.744.252h2.944c1.193 0 1.943 0 2.745-.252l.015-.004.015-.006a3.46 3.46 0 0 0 2.073-2.063l.005-.014.004-.015c.255-.793.255-1.529.255-2.658v-.185c0-1.129 0-1.865-.255-2.658l-.004-.014-.005-.014A3.46 3.46 0 0 0 12.33 5.6l-.015-.005-.015-.005c-.802-.253-1.552-.252-2.745-.252H6.611c-.445 0-.83 0-1.177.013.01-.771.049-1.224.21-1.716A2.41 2.41 0 0 1 7.105 2.2ZM3.178 8.166c.198-.53.62-.95 1.155-1.15.552-.17 1.07-.177 2.376-.177h2.75c1.305 0 1.822.007 2.375.178a1.96 1.96 0 0 1 1.155 1.15c.17.54.178 1.04.178 2.277 0 1.236-.007 1.737-.178 2.277-.199.53-.62.95-1.155 1.15-.553.17-1.07.177-2.376.177h-2.75c-1.305 0-1.823-.007-2.375-.178a1.96 1.96 0 0 1-1.155-1.149c-.17-.54-.178-1.04-.178-2.277s.007-1.738.178-2.278"></path></svg>