<svg xmlns="http://www.w3.org/2000/svg" viewBox="0 0 16 16"><path fill="currentColor" fill-rule="evenodd" d="M7.2 2.555c.453-.18.775-.18.857-.18h.011a2.3 2.3 0 0 1 .883.19 2.1 2.1 0 0 1 1.21 1.129.937.937 0 1 0 1.714-.763A4 4 0 0 0 9.605.807 4.1 4.1 0 0 0 8.062.5c-.188 0-.775.005-1.542.307a4 4 0 0 0-2.384 2.41c-.242.736-.284 1.418-.29 2.26A3.5 3.5 0 0 0 1.78 7.556c-.28.834-.28 1.573-.28 2.788s0 1.952.28 2.788a3.5 3.5 0 0 0 2.088 2.087c.889.281 1.714.281 3.364.281h1.66c1.651 0 2.476 0 3.365-.281a3.5 3.5 0 0 0 2.087-2.087c.281-.836.281-1.574.281-2.788 0-1.215 0-1.953-.28-2.788a3.5 3.5 0 0 0-2.088-2.088c-.889-.28-1.714-.28-3.365-.28h-1.66c-.596 0-1.084 0-1.506.013.014-.609.057-.982.187-1.384A2.12 2.12 0 0 1 7.2 2.555M6.52.807l-.013.005.346.871-.32-.88z"></path></svg>