<svg xmlns="http://www.w3.org/2000/svg" viewBox="0 0 16 16"><path fill="currentColor" fill-rule="evenodd" d="M4.995 8.518v.003c0 .614-.776.979-1.664 1.396C2.14 10.477.75 11.13.75 12.602c0 2.902 4.474 2.9 6.448 2.898h.114c1.708 0 1.316-1.91.966-3.612-.167-.812-.324-1.577-.239-2.065.285-1.628 1.214-2.513 2-3.261.656-.623 1.21-1.152 1.21-1.937C11.25 2.363 9.503.5 7.313.5S3.375 2.363 3.375 4.625c0 1.49.605 2.244 1.075 2.83.3.374.545.68.545 1.063m5.738 1.66a1.427 1.427 0 1 1 2.855 0 1.427 1.427 0 0 1-2.855 0M12.16 7.25a2.927 2.927 0 0 0-2.172 4.89 1 1 0 0 0-.027.14l-.226 2.276a.847.847 0 0 0 1.086.895l1.34-.402 1.339.402a.847.847 0 0 0 1.086-.895l-.226-2.276a1 1 0 0 0-.027-.14 2.927 2.927 0 0 0-2.172-4.89"></path></svg>