<svg xmlns="http://www.w3.org/2000/svg" viewBox="0 0 16 16"><path fill="currentColor" fill-rule="evenodd" d="M5.528 8.553v.003c0 .655-.827 1.044-1.775 1.49C2.483 10.64 1 11.337 1 12.908 1 16.004 5.773 16.001 7.878 16H8c.86 0 1-.5 0-3-.756-1.89.297-2.696 1.42-3.556.363-.278.733-.561 1.052-.888l.027-.028a4 4 0 0 0 .15-.154c.718-.738.313-.324.028-.031C11.135 7.837 12.2 6.44 12.2 4.4 12.2 1.987 10.336 0 8 0S3.8 1.987 3.8 4.4c0 1.589.645 2.393 1.147 3.02.32.398.58.723.58 1.133M15 12.75a.75.75 0 1 0 0-1.5h-5a.75.75 0 1 0 0 1.5z"></path></svg>