<svg xmlns="http://www.w3.org/2000/svg" viewBox="0 0 16 16"><path fill="currentColor" d="M.994 9.843a.75.75 0 0 1 .757.744c.01 1.282.079 1.832.283 2.233.251.493.652.894 1.145 1.146.402.204.951.272 2.234.283a.75.75 0 1 1-.013 1.5c-1.228-.01-2.137-.057-2.901-.446A4.13 4.13 0 0 1 .697 13.5c-.39-.764-.437-1.672-.447-2.9a.75.75 0 0 1 .743-.757m14.013 0a.75.75 0 0 1 .743.757c-.011 1.228-.057 2.136-.447 2.901a4.12 4.12 0 0 1-1.801 1.802c-.765.39-1.673.435-2.902.446a.75.75 0 0 1-.014-1.5c1.283-.011 1.834-.079 2.235-.283a2.62 2.62 0 0 0 1.145-1.146c.205-.401.273-.95.284-2.233a.75.75 0 0 1 .757-.744m-6.981-6.74c1.522 0 2.635 1.21 2.635 2.718 0 .709-.181 1.175-.354 1.526-.192.39-.199.386-.199.443 0 .113.025.138.072.178.105.088.258.156.573.299.262.119.655.3.968.619.349.354.555.827.555 1.435 0 1.1-.947 1.613-1.67 1.84-.781.245-1.747.316-2.58.316s-1.799-.07-2.58-.316c-.723-.226-1.67-.74-1.67-1.84 0-.607.206-1.081.554-1.435.313-.318.707-.5.97-.62.314-.142.466-.21.57-.298.048-.04.073-.065.073-.178 0-.057-.007-.052-.2-.443a3.3 3.3 0 0 1-.352-1.526c0-1.508 1.113-2.718 2.635-2.718m0 1.5c-.632 0-1.135.476-1.135 1.218 0 .416.096.654.2.866.084.17.352.598.352 1.103 0 .589-.246 1.022-.604 1.324-.302.255-.693.416-.92.519-.278.126-.427.21-.52.305-.058.058-.123.148-.123.383 0 .028.002.216.618.41.565.176 1.35.246 2.132.246.781 0 1.566-.07 2.13-.247.617-.193.62-.381.62-.409 0-.235-.066-.325-.124-.383-.093-.095-.242-.179-.52-.305-.227-.103-.617-.264-.918-.519a1.67 1.67 0 0 1-.606-1.324c0-.505.269-.933.353-1.104.103-.212.2-.45.2-.865 0-.742-.503-1.218-1.135-1.218M5.4.25a.75.75 0 0 1 .013 1.5c-1.283.011-1.832.079-2.234.283A2.62 2.62 0 0 0 2.034 3.18c-.211.414-.275.983-.284 2.338a.75.75 0 0 1-1.5-.01c.008-1.288.048-2.226.447-3.01A4.13 4.13 0 0 1 2.499.696C3.263.306 4.172.261 5.4.25m5.2 0c1.228.01 2.137.057 2.902.446a4.13 4.13 0 0 1 1.801 1.802c.39.765.436 1.673.447 2.901a.75.75 0 0 1-1.5.014c-.011-1.283-.08-1.833-.284-2.234a2.62 2.62 0 0 0-1.145-1.146c-.401-.204-.952-.272-2.235-.283A.75.75 0 0 1 10.6.25"></path></svg>