<svg xmlns="http://www.w3.org/2000/svg" viewBox="0 0 16 16"><path fill="currentColor" d="M12.447 7.935a1.69 1.69 0 0 1 1.846-.325c.169.075.33.19.482.297.114.08.235.163.341.255l.102.096c.471.493.6 1.221.325 1.845v.002c-.075.169-.194.333-.297.48l-2.177 3.108c-.338.483-.62.906-1.007 1.195l-.172.117c-.481.285-1.047.331-1.717.406v-.003a.81.81 0 0 1-.877-.611c-.16-.656-.307-1.203-.204-1.752l.049-.201c.104-.347.299-.664.533-1.006l2.423-3.46c.102-.146.215-.314.349-.442ZM6.355 1.437c1.984 0 3.496 1.514 3.496 3.498 0 1.01-.392 1.658-.738 2.119-.19.254-.28.351-.374.496a.6.6 0 0 0-.06.11q-.006.024-.005.024a.5.5 0 0 0 .053.248.6.6 0 0 0 .181.189.749.749 0 0 1-.885 1.208c-.48-.352-.847-.879-.847-1.645 0-.397.154-.712.303-.945.128-.199.332-.445.436-.584.244-.324.44-.66.44-1.22 0-1.157-.844-2-2-2-1.158 0-2 .843-2 2 0 .56.196.896.439 1.22.104.139.308.385.436.584.15.233.302.548.302.946 0 .775-.375 1.304-.862 1.656-.429.31-.984.506-1.382.66-.454.177-.776.322-.995.513-.174.151-.295.341-.295.705 0 .14.05.264.211.405.181.159.484.316.924.448.877.263 2.068.362 3.221.362a19 19 0 0 0 .858-.02.749.749 0 0 1 .068 1.496q-.462.02-.926.02c-1.202 0-2.565-.098-3.65-.423-.543-.163-1.075-.399-1.482-.755-.428-.375-.722-.89-.722-1.533 0-.814.322-1.41.81-1.835.443-.386 1.006-.61 1.435-.778.485-.188.814-.311 1.048-.48.175-.127.241-.236.241-.441q.002-.001-.006-.025a.6.6 0 0 0-.058-.11c-.093-.145-.185-.242-.375-.496-.346-.461-.739-1.108-.739-2.119 0-1.984 1.514-3.498 3.498-3.498m7.384 7.53a.2.2 0 0 0-.154.05q-.005.008-.023.032c-.03.04-.068.096-.134.19l-2.177 3.108c-.348.498-.486.709-.545.85l-.039.126c-.02.106-.013.22.051.523.308-.043.419-.075.512-.13l.105-.08c.111-.103.263-.305.61-.802l2.178-3.11.131-.19c.026-.04.027-.044.022-.034l.015-.054a.2.2 0 0 0-.051-.153l-.034-.026c-.039-.03-.095-.068-.187-.133l-.19-.13-.035-.022-.055-.016ZM9.496.75c.306 0 .604.04.886.117 1.39.38 2.33 1.63 2.33 3.142 0 .938-.36 1.541-.675 1.968-.175.237-.251.32-.333.449-.06.095-.05.11-.05.093a.749.749 0 1 1-1.497 0c0-.377.143-.675.28-.893.117-.184.306-.417.395-.538.213-.29.382-.584.382-1.08 0-.865-.515-1.5-1.227-1.696a1.9 1.9 0 0 0-.49-.064.75.75 0 0 1 0-1.498"></path></svg>