<svg xmlns="http://www.w3.org/2000/svg" fill="none" viewBox="0 0 16 16"><g fill="currentColor" clip-path="url(#UserPlusFilled16_svg__a)"><path d="m5.529 8.556-.001-.003C5.528 7.5 3.8 7 3.8 4.4 3.8 1.987 5.664 0 8 0s4.2 1.987 4.2 4.4c0 2.041-1.065 3.437-1.523 3.943.285-.292.69-.707-.028.031q-.104.111-.15.154l-.027.028C9.166 9.896 7 10.5 8 13s.86 3 0 3c-2.036 0-7 .066-7-3.09 0-2.745 4.529-2.823 4.529-4.354"></path><path fill-rule="evenodd" d="M13.25 9.5a.75.75 0 0 0-1.5 0v1.75H10a.75.75 0 0 0 0 1.5h1.75v1.75a.75.75 0 0 0 1.5 0v-1.75H15a.75.75 0 0 0 0-1.5h-1.75z" clip-rule="evenodd"></path></g><defs><clipPath id="UserPlusFilled16_svg__a"><path fill="#fff" d="M0 0h16v16H0z"></path></clipPath></defs></svg>