<svg xmlns="http://www.w3.org/2000/svg" viewBox="0 0 16 16"><g fill="none" fill-rule="evenodd"><path fill="currentColor" fill-rule="nonzero" d="m5.029 8.556-.001-.003C5.028 7.5 3.3 7 3.3 4.4 3.3 1.987 5.164 0 7.5 0s4.2 1.987 4.2 4.4c0 2.041-1.065 3.437-1.523 3.943.285-.292.69-.707-.028.031q-.104.111-.15.154l-.027.028C8.666 9.896 6.5 10.5 7.5 13s.86 3 0 3c-2.036 0-7 .066-7-3.09 0-2.745 4.529-2.823 4.529-4.354"></path><path stroke="currentColor" stroke-linecap="round" stroke-linejoin="round" stroke-width="1.5" d="m9.5 11.722 1.454 1.778 3.546-4"></path></g></svg>