<svg xmlns="http://www.w3.org/2000/svg" viewBox="0 0 16 16"><path fill="currentColor" fill-rule="evenodd" d="M7.5.25c2.414 0 4.25 1.836 4.25 4.25a3.96 3.96 0 0 1-.722 2.327.75.75 0 0 1-1.24-.843A2.47 2.47 0 0 0 10.25 4.5c0-1.586-1.164-2.75-2.75-2.75S4.75 2.914 4.75 4.5c0 .775.276 1.243.6 1.675l.15.195.137.175c.093.121.185.247.26.362.18.28.353.642.353 1.093 0 .91-.436 1.527-1.014 1.944-.468.338-1.062.566-1.555.756l-.08.031-.08.03c-.574.224-1.016.418-1.325.688-.265.23-.446.527-.446 1.051 0 .248.096.459.338.67.261.229.679.44 1.253.612 1.145.343 2.684.468 4.159.468a.75.75 0 0 1 0 1.5c-1.525 0-3.236-.125-4.59-.532-.677-.202-1.322-.492-1.81-.92-.51-.443-.85-1.045-.85-1.798 0-.976.382-1.679.96-2.183.535-.465 1.218-.74 1.768-.953l.13-.051c.542-.21.95-.368 1.25-.585.266-.192.392-.389.392-.728 0-.049-.014-.124-.115-.282a4 4 0 0 0-.255-.345l-.068-.087q-.072-.091-.162-.211c-.426-.568-.9-1.35-.9-2.575C3.25 2.086 5.086.25 7.5.25m4.002 7.35a4 4 0 1 1-4.002 4 4 4 0 0 1 4.002-4m-2.145 2.72-.038.065a2.497 2.497 0 0 0 3.4 3.396L9.53 10.59a.75.75 0 0 1-.173-.27m2.145-1.216c-.41 0-.796.098-1.137.272a.7.7 0 0 1 .226.154l3.16 3.159a2.497 2.497 0 0 0-2.249-3.585"></path></svg>