<svg xmlns="http://www.w3.org/2000/svg" viewBox="0 0 16 16"><path fill="currentColor" fill-rule="evenodd" d="M8 14.5c.685 0 1.665-.162 2.447-.53.797-.375 1.178-.848 1.178-1.402 0-.128-.044-.239-.203-.386-.183-.17-.45-.324-.815-.519l-.088-.046c-.312-.166-.702-.373-1.01-.628-.36-.298-.714-.747-.714-1.393 0-.394.132-.7.29-.943.094-.145.231-.31.33-.429l.083-.1c.195-.247.377-.525.377-1.124 0-1.131-.865-2-1.875-2s-1.875.869-1.875 2c0 .599.181.877.377 1.124l.083.1a5 5 0 0 1 .33.43c.158.242.29.548.29.941 0 .647-.354 1.096-.714 1.393-.308.255-.698.462-1.01.628l-.088.047c-.365.195-.632.349-.815.519-.159.147-.203.258-.203.386 0 .55.385 1.024 1.193 1.401.79.37 1.772.531 2.432.531M14.5 8a6.47 6.47 0 0 1-1.437 4.077 2.1 2.1 0 0 0-.62-.994c-.347-.323-.788-.56-1.13-.743l-.047-.025c-.358-.191-.616-.329-.8-.482-.171-.141-.171-.206-.171-.237 0-.03.003-.056.048-.126s.087-.12.153-.198c.045-.054.1-.12.176-.216.344-.433.703-1.03.703-2.056 0-1.885-1.465-3.5-3.375-3.5S4.625 5.115 4.625 7c0 1.026.359 1.623.703 2.056.075.096.131.162.176.216a2 2 0 0 1 .153.198c.045.07.048.096.048.125 0 .031 0 .097-.17.238-.185.153-.443.29-.8.481l-.048.026c-.342.183-.783.42-1.13.743a2.1 2.1 0 0 0-.62.994A6.5 6.5 0 1 1 14.5 8M8 16A8 8 0 1 0 8 0a8 8 0 0 0 0 16"></path></svg>