<svg xmlns="http://www.w3.org/2000/svg" viewBox="0 0 24 24"><path fill="currentColor" fill-rule="evenodd" d="M6.414 1c-1.17 0-2.293.465-3.121 1.293a1 1 0 1 0 1.414 1.414A2.4 2.4 0 0 1 6.414 3h11.172c.64 0 1.254.254 1.707.707a1 1 0 1 0 1.414-1.414A4.4 4.4 0 0 0 17.586 1zM0 14c0-3.75 0-5.625.955-6.939A5 5 0 0 1 2.06 5.955C3.375 5 5.251 5 9 5h6c3.75 0 5.625 0 6.939.955a5 5 0 0 1 1.106 1.106C24 8.375 24 10.251 24 14s0 5.625-.955 6.939a5 5 0 0 1-1.106 1.106C20.625 23 18.749 23 15 23H9c-3.75 0-5.625 0-6.939-.955A5 5 0 0 1 .955 20.94C0 19.625 0 17.749 0 14m10.398.36v-.002c0-.265-.17-.476-.377-.734-.325-.406-.743-.927-.743-1.957 0-1.563 1.208-2.85 2.722-2.85 1.513 0 2.721 1.287 2.721 2.85 0 1.03-.418 1.551-.743 1.957-.207.258-.376.469-.376.734v.002c0 .425.536.677 1.15.965.822.387 1.784.838 1.784 1.856 0 2.006-3.093 2.004-4.457 2.003h-.158c-1.365 0-4.457.003-4.457-2.003 0-1.018.961-1.47 1.783-1.856.615-.288 1.151-.54 1.151-.965"></path></svg>