<svg xmlns="http://www.w3.org/2000/svg" viewBox="0 0 16 16"><path fill="currentColor" fill-rule="evenodd" d="M8 .25C5.586.25 3.75 2.086 3.75 4.5c0 1.225.474 2.007.9 2.575.09.12.165.216.23.298.102.13.18.228.255.345.101.158.115.233.115.282 0 .34-.126.536-.392.728-.3.217-.708.375-1.25.585l-.13.05c-.55.215-1.233.49-1.767.954-.58.504-.961 1.207-.961 2.183 0 .752.341 1.354.85 1.799.488.427 1.133.717 1.81.92 1.354.406 3.065.531 4.59.531a.75.75 0 0 0 0-1.5c-1.475 0-3.014-.125-4.16-.468-.573-.173-.99-.383-1.252-.612-.242-.211-.338-.422-.338-.67 0-.524.18-.821.446-1.052.309-.269.751-.463 1.326-.687l.159-.061c.493-.19 1.087-.418 1.555-.756C6.314 9.527 6.75 8.91 6.75 8c0-.451-.174-.813-.353-1.093A8 8 0 0 0 6 6.37l-.15-.195c-.324-.432-.6-.9-.6-1.675 0-1.586 1.164-2.75 2.75-2.75s2.75 1.164 2.75 2.75c0 .672-.208 1.11-.463 1.484a.75.75 0 1 0 1.24.843A3.96 3.96 0 0 0 12.25 4.5C12.25 2.086 10.414.25 8 .25m1.798 8.548a.75.75 0 0 1 1.06 0l1.498 1.498 1.498-1.498a.75.75 0 0 1 1.06 1.06l-1.497 1.498 1.498 1.498a.75.75 0 1 1-1.061 1.06l-1.498-1.497-1.497 1.498a.75.75 0 0 1-1.06-1.061l1.497-1.498L9.798 9.86a.75.75 0 0 1 0-1.06"></path></svg>