<svg xmlns="http://www.w3.org/2000/svg" viewBox="0 0 16 16"><path fill="currentColor" d="M.994 9.843a.75.75 0 0 1 .757.744c.01 1.282.079 1.832.283 2.233.251.493.652.894 1.145 1.146.402.204.951.272 2.234.283a.75.75 0 1 1-.013 1.5c-1.228-.01-2.137-.057-2.901-.446A4.13 4.13 0 0 1 .697 13.5c-.39-.764-.437-1.672-.447-2.9a.75.75 0 0 1 .743-.757m14.013 0a.75.75 0 0 1 .743.757c-.011 1.228-.057 2.136-.447 2.901a4.12 4.12 0 0 1-1.801 1.802c-.765.39-1.673.435-2.902.446a.75.75 0 0 1-.014-1.5c1.283-.011 1.834-.079 2.235-.283a2.62 2.62 0 0 0 1.145-1.146c.205-.401.273-.95.284-2.233a.75.75 0 0 1 .757-.744m-6.981-6.54c1.315 0 2.292 1.038 2.292 2.382 0 .68-.25 1.114-.484 1.44-.123.171-.211.274-.286.396a.5.5 0 0 0-.094.268c0 .275.11.444.295.583.206.156.488.262.828.4.32.13.687.288.972.546.3.273.495.648.496 1.177 0 .8-.68 1.237-1.417 1.468-.76.238-1.73.312-2.602.312-.873 0-1.842-.074-2.602-.312-.737-.231-1.416-.668-1.417-1.468 0-.53.197-.904.497-1.177.284-.258.652-.416.971-.546.34-.138.622-.244.828-.4a.67.67 0 0 0 .295-.583.5.5 0 0 0-.094-.268c-.075-.122-.163-.225-.286-.396-.234-.326-.484-.76-.484-1.44 0-1.344.977-2.381 2.292-2.381M5.4.25a.75.75 0 0 1 .013 1.5c-1.283.011-1.832.079-2.234.283A2.62 2.62 0 0 0 2.034 3.18c-.211.414-.275.983-.284 2.338a.75.75 0 0 1-1.5-.01c.008-1.288.048-2.226.447-3.01A4.13 4.13 0 0 1 2.499.696C3.263.306 4.172.261 5.4.25m5.2 0c1.228.01 2.137.057 2.902.446a4.13 4.13 0 0 1 1.801 1.802c.39.765.436 1.673.447 2.901a.75.75 0 0 1-1.5.014c-.011-1.283-.08-1.833-.284-2.234a2.62 2.62 0 0 0-1.145-1.146c-.401-.204-.952-.272-2.235-.283A.75.75 0 0 1 10.6.25"></path></svg>