<svg xmlns="http://www.w3.org/2000/svg" viewBox="0 0 16 16"><path fill="currentColor" fill-rule="evenodd" d="M9.618 1.426c.2.342.467.667.831.822.365.156.78.12 1.165.027a1.874 1.874 0 0 1 2.209 2.445c-.107.305-.146.642-.025.941.12.3.383.519.671.664a1.875 1.875 0 0 1 .029 3.335c-.303.16-.583.392-.712.708-.138.335-.087.715.034 1.055a1.875 1.875 0 0 1-2.396 2.397c-.341-.122-.72-.172-1.056-.034-.316.13-.548.409-.708.712a1.875 1.875 0 0 1-3.335-.029c-.145-.288-.364-.55-.664-.671s-.636-.082-.94.025a1.875 1.875 0 0 1-2.446-2.209c.093-.385.129-.8-.027-1.165-.155-.364-.48-.63-.822-.831a1.874 1.874 0 0 1 .023-3.249c.33-.188.641-.444.789-.794.14-.33.114-.704.033-1.054a1.874 1.874 0 0 1 2.25-2.25c.35.081.723.106 1.054-.033.35-.148.606-.46.794-.79a1.874 1.874 0 0 1 3.249-.022m1.761 4.721a.75.75 0 0 0-1.133-.982L7.179 8.703l-.937-1.172a.75.75 0 0 0-1.171.938l1.5 1.875a.75.75 0 0 0 1.152.022z"></path></svg>