<svg xmlns="http://www.w3.org/2000/svg" viewBox="0 0 16 16"><path fill="currentColor" fill-rule="evenodd" d="M9.349 1.088a2.66 2.66 0 0 0-2.591 0c-.233.13-.452.318-.728.555l-.052.045-.082.07-.109.092a1.15 1.15 0 0 1-.659.244l-.146.001h-.036c-.187 0-.332 0-.46.012a2.655 2.655 0 0 0-2.388 2.388c-.012.128-.012.271-.012.453v.035l-.001.135c-.01.239-.095.469-.242.659l-.087.104-.075.088-.045.053c-.24.283-.429.506-.56.744a2.66 2.66 0 0 0 0 2.548c.13.239.32.462.56.744l.045.053.075.088.087.104c.147.189.231.419.242.659l.001.135v.035l.012.453a2.655 2.655 0 0 0 2.388 2.388c.128.012.274.012.46.012h.036l.146.001c.24.011.47.096.659.244l.109.092.082.07.052.045c.277.237.495.425.728.555.805.45 1.786.45 2.591 0 .233-.13.452-.318.728-.555l.052-.045.086-.074.102-.086c.19-.15.423-.236.665-.246l.133-.001h.034l.444-.012a2.656 2.656 0 0 0 2.394-2.394c.012-.125.012-.265.012-.444v-.034l.001-.133a1.15 1.15 0 0 1 .246-.665l.086-.102.074-.086.045-.052c.237-.277.425-.495.555-.728.45-.805.45-1.786 0-2.591-.13-.233-.318-.452-.555-.728l-.045-.052-.074-.086-.086-.102A1.15 1.15 0 0 1 14 5.111v-.167l-.012-.444a2.656 2.656 0 0 0-2.394-2.394c-.126-.012-.265-.012-.444-.012h-.034l-.133-.001a1.15 1.15 0 0 1-.665-.246l-.102-.086-.086-.074-.052-.045c-.277-.238-.495-.425-.728-.555zM7.49 2.397c.35-.196.777-.196 1.128 0 .085.047.182.126.536.43l.086.074.01.008.142.118a2.65 2.65 0 0 0 1.528.565l.184.002h.013l.337.005c.552.052.99.489 1.042 1.042.004.045.005.108.005.337v.013l.002.185c.024.556.221 1.091.565 1.528l.118.142.008.01.074.086.43.536c.196.35.196.777 0 1.128-.047.085-.126.182-.43.536l-.074.086-.008.01-.118.142a2.65 2.65 0 0 0-.565 1.528l-.002.185v.013l-.005.337c-.052.552-.489.99-1.042 1.042a5 5 0 0 1-.337.005h-.013c-.071 0-.128 0-.185.002a2.66 2.66 0 0 0-1.528.565l-.142.118-.01.008-.086.074-.536.43c-.35.196-.777.196-1.128 0-.084-.047-.182-.126-.536-.43l-.082-.07-.01-.009-.152-.127a2.66 2.66 0 0 0-1.514-.56l-.2-.003h-.014c-.24 0-.306-.001-.353-.005a1.156 1.156 0 0 1-1.039-1.039 5 5 0 0 1-.005-.344v-.013l-.002-.187a2.66 2.66 0 0 0-.555-1.514l-.119-.144-.008-.01-.075-.088-.433-.548a1.16 1.16 0 0 1 0-1.109c.047-.087.126-.186.433-.548l.075-.088.008-.01.119-.144c.337-.435.531-.964.555-1.514l.002-.187v-.013l.005-.344c.053-.55.489-.986 1.039-1.039.046-.004.112-.005.353-.005h.014l.2-.003a2.66 2.66 0 0 0 1.514-.56l.152-.127.01-.009.082-.07.536-.43zm3.216 4.583a.78.78 0 0 0-.07-1.121.83.83 0 0 0-1.153.068L7.224 8.405l-.581-.69a.834.834 0 0 0-1.149-.112.78.78 0 0 0-.114 1.117l1.188 1.411a.828.828 0 0 0 1.243.024z"></path></svg>