<svg xmlns="http://www.w3.org/2000/svg" viewBox="0 0 16 16"><path fill="none" stroke="currentColor" stroke-linecap="round" stroke-linejoin="round" stroke-width="1.5" d="m11.139 6.606 2.384-1.951a.904.904 0 0 1 1.477.7l-.009 5.322a.904.904 0 0 1-1.477.696l-2.375-1.951m-.003 1.21c.059 1.326-1.012 2.448-2.391 2.505-.102.004-5.054-.006-5.054-.006-1.373.104-2.574-.882-2.683-2.204-.008-.099-.006-5.413-.006-5.413-.06-1.328 1.009-2.452 2.389-2.511.103-.005 5.049.004 5.049.004 1.38-.102 2.584.891 2.691 2.22.007.095.005 5.404.005 5.404"></path></svg>