<svg xmlns="http://www.w3.org/2000/svg" viewBox="0 0 16 16"><path fill="currentColor" fill-rule="evenodd" d="M2.6 2.03C1.449 2.176.45 3.038.123 4.165c-.126.434-.126.452-.118 3.968l.009 3.32.07.256c.313 1.133 1.074 1.895 2.207 2.207l.256.07 2.826.008c2.406.007 2.865.002 3.08-.032a3.01 3.01 0 0 0 2.384-1.993c.038-.113.07-.223.07-.245 0-.023.01-.047.022-.054.012-.008.207.154.433.36.598.543.908.734 1.403.864.856.225 1.833-.048 2.477-.692.33-.33.568-.75.684-1.205l.061-.237V5.24l-.061-.237a2.61 2.61 0 0 0-2.12-1.937 3 3 0 0 0-.545-.019 2.3 2.3 0 0 0-1.015.257c-.275.138-.453.273-.91.691-.211.193-.394.344-.406.336s-.023-.032-.023-.055c0-.078-.141-.451-.25-.663-.402-.78-1.13-1.332-2.044-1.549-.184-.044-.416-.048-3.013-.053-1.547-.003-2.897.005-3 .019m11.104 3.089c.119.06.22.182.266.318.045.135.043 4.982-.003 5.133-.05.169-.215.317-.415.373-.154.043-.178.044-.31.006-.129-.038-.226-.119-1.09-.908-.89-.814-.953-.877-1.037-1.046l-.088-.181V7.186l.087-.179c.082-.166.148-.233.988-.999.495-.452.926-.844.959-.872.143-.123.421-.13.643-.017"></path></svg>