<svg xmlns="http://www.w3.org/2000/svg" viewBox="0 0 16 16"><path fill="currentColor" d="M8 .25c1.393 0 2.513-.002 3.392.116.9.121 1.658.38 2.26.983.601.602.86 1.36.982 2.26.118.878.116 1.998.116 3.391v2c0 1.393.002 2.513-.116 3.392-.121.9-.38 1.658-.983 2.26-.601.601-1.36.86-2.26.982-.878.118-1.998.116-3.391.116s-2.513.002-3.392-.116c-.9-.121-1.657-.38-2.26-.983-.601-.601-.86-1.36-.982-2.26-.118-.878-.116-1.998-.116-3.391V7c0-1.393-.002-2.513.116-3.392.121-.9.38-1.657.983-2.26.602-.601 1.36-.86 2.26-.982C5.486.248 6.606.25 8 .25m0 1.5c-1.435 0-2.436.002-3.191.104-.734.098-1.123.278-1.4.555s-.457.666-.555 1.4C2.752 4.564 2.75 5.565 2.75 7v2c0 1.435.002 2.436.104 3.191.098.734.278 1.123.555 1.4s.666.457 1.4.556c.755.101 1.756.103 3.191.103s2.436-.002 3.191-.104c.734-.098 1.123-.278 1.4-.555s.457-.666.556-1.4c.101-.755.103-1.756.103-3.191V7c0-1.435-.002-2.436-.104-3.191-.098-.734-.278-1.123-.555-1.4s-.666-.457-1.4-.555C10.436 1.752 9.435 1.75 8 1.75m.25 9a.75.75 0 0 1 0 1.5h-3a.75.75 0 0 1 0-1.5zm2-3.25a.75.75 0 0 1 0 1.5h-5a.75.75 0 0 1 0-1.5z"></path></svg>