<svg xmlns="http://www.w3.org/2000/svg" viewBox="0 0 16 16"><path fill="currentColor" fill-rule="evenodd" d="M2.935 1h5.13c.307 0 .564 0 .793.045a2.35 2.35 0 0 1 1.846 1.846c.023.114.028.293.032.403l.009.51.002.196 1.477.041c.532.042.999.131 1.434.346a3.75 3.75 0 0 1 1.705 1.705c.214.434.303.902.346 1.434.041.517.041 1.154.041 1.944v.061l-.041 1.944c-.042.532-.132.999-.346 1.434a3.75 3.75 0 0 1-1.705 1.705c-.434.214-.902.303-1.434.346-.517.041-1.154.041-1.944.041H6.945c-1.368 0-2.47 0-3.337-.117-.9-.121-1.658-.38-2.26-.982s-.861-1.36-.982-2.26C.25 10.775.25 9.673.25 8.305V4.749l.004-.945.009-.51.032-.403a2.35 2.35 0 0 1 1.846-1.846C2.371 1 2.628 1 2.935 1m6.313 3-.002-.18-.009-.479-.007-.172a.85.85 0 0 0-.665-.653C8.502 2.504 8.408 2.5 8 2.5H3l-.566.016a.85.85 0 0 0-.665.655c.002-.002-.002.045-.006.17l-.009.479-.002.18zM1.75 5.5h8.5l1.856.036c.442.035.696.101.889.196a2.25 2.25 0 0 1 1.023 1.023c.095.193.161.447.196.889.036.45.036 1.028.036 1.856l-.036 1.856c-.035.442-.101.696-.196.889a2.25 2.25 0 0 1-1.023 1.023c-.193.095-.447.161-.889.196-.45.036-1.028.036-1.856.036H7c-1.435 0-2.437-.002-3.192-.103-.734-.099-1.122-.279-1.399-.556s-.457-.665-.556-1.399c-.102-.755-.103-1.756-.103-3.192zm8.5 4.25A.75.75 0 0 1 11 9h.001a.75.75 0 1 1 0 1.5H11a.75.75 0 0 1-.75-.75"></path></svg>