<svg xmlns="http://www.w3.org/2000/svg" viewBox="0 0 24 24"><path fill="currentColor" fill-rule="evenodd" d="M15.73 3.833c-.244-.072-.575-.083-1.672-.083H3.801a1.05 1.05 0 1 0 0 2.103h13.35c-.01-.351-.031-.527-.074-.672a2 2 0 0 0-1.348-1.348zM3.801 1.75A3.05 3.05 0 0 0 .75 4.801v10.053l.058 2.666c.06.729.185 1.369.487 1.961a5 5 0 0 0 2.185 2.185c.592.302 1.232.428 1.961.487.708.058 1.582.058 2.666.058h7.799l2.666-.058c.729-.059 1.369-.185 1.961-.487a5 5 0 0 0 2.185-2.185c.302-.592.428-1.233.487-1.961l.053-1.335a1 1 0 0 0 .005-.102V11.98a1 1 0 0 0-.005-.102l-.053-1.335c-.06-.729-.185-1.369-.487-1.961a5 5 0 0 0-2.185-2.185 4.5 4.5 0 0 0-1.376-.42c-.01-.532-.044-.971-.162-1.366a4 4 0 0 0-2.696-2.696c-.561-.166-1.212-.166-2.09-.166H3.801zm17.429 9.231-.019-.274c-.049-.605-.142-.953-.276-1.216a3 3 0 0 0-1.311-1.311c-.263-.134-.611-.226-1.216-.276-.617-.05-1.409-.051-2.546-.051H3.801a3 3 0 0 1-1.051-.186v7.145l.051 2.546c.049.605.142.953.276 1.216a3 3 0 0 0 1.311 1.311c.263.134.611.226 1.216.276.617.05 1.409.051 2.546.051h7.713l2.546-.051c.605-.049.953-.142 1.216-.276a3 3 0 0 0 1.311-1.311c.134-.263.226-.611.276-1.216l.019-.274h-1.019a3.05 3.05 0 1 1 0-6.103zm.033 3.831v-1.831h-1.051a1.05 1.05 0 1 0 0 2.102h1.051z"></path></svg>