<svg xmlns="http://www.w3.org/2000/svg" viewBox="0 0 16 16"><path fill="currentColor" fill-rule="evenodd" d="M1.436 2.97a.32.32 0 0 1 0-.573l.837-.418a1.6 1.6 0 0 0 .715-.716l.418-.836a.32.32 0 0 1 .573 0l.418.836c.155.31.406.56.715.716l.836.418a.32.32 0 0 1 0 .572l-.836.418a1.6 1.6 0 0 0-.715.716l-.418.836a.32.32 0 0 1-.573 0l-.418-.836a1.6 1.6 0 0 0-.715-.716zm10.236 9.428a.24.24 0 0 1 0-.43l.627-.313a1.2 1.2 0 0 0 .537-.537l.313-.627a.24.24 0 0 1 .43 0l.313.627a1.2 1.2 0 0 0 .537.537l.627.313a.24.24 0 0 1 0 .43l-.627.313a1.2 1.2 0 0 0-.537.537l-.313.627a.24.24 0 0 1-.43 0l-.313-.627a1.2 1.2 0 0 0-.537-.537zm-6.258 1.184 4.596-4.596-2.828-2.828-4.596 4.596a2 2 0 0 0 2.828 2.828m5.657-3.535 1.06-1.06.708-.708a3.5 3.5 0 1 0-4.95-4.95l-.707.707-1.06 1.061-4.597 4.596a3.5 3.5 0 1 0 4.95 4.95zM8.95 4.39l-.707.707 2.828 2.829.707-.708A2 2 0 0 0 8.95 4.39"></path></svg>