<svg xmlns="http://www.w3.org/2000/svg" viewBox="0 0 16 16"><path fill="currentColor" fill-rule="evenodd" d="M14.39 9.143c-2.199-.554-3.132-3.267-.53-3.945.595 1.257.785 2.564.53 3.945m-3.496 1.762c-.495.802-1.206 1.464-1.297 2.473-.132.505-.264 1.1-.925 1.084-1.09-.158-.446-1.646-1.09-2.3-.505-.546-.662-1.2-.58-1.935-.024-.985-.95-1.233-1.676-1.646-1.38-.662-2.231-1.895-3.024-3.144C2.02 4.33 3.657 3.262 4.4 2.617c1.52-1.489 1.57.695 2.504-.182.19-1.539 2.404.074 1.718.976-1.04.53.14.943-.496 1.48-1.164.108-1.222.761-.603 1.638.215.82-.66.331-.958.066-.43-.082-1.983.273-1.421.902.454.521 1.198.314 1.685.72.199.206.33.512.562.678 1.322.364 3.999-.414 3.503 2.01m5.073-3.623c-.248-2.928-2.115-5.476-4.784-6.634C9.35-.146 7.333-.253 5.136.566c-.91.339-1.76.835-2.479 1.48C.997 3.526.096 5.471.005 7.803a7.66 7.66 0 0 0 .967 4.02c1.206 2.117 2.974 3.44 5.23 3.97.413.1.842.133 1.264.19.033.009.057.009.082.017h.909c.1-.008.198-.025.297-.033 1.215-.14 2.413-.488 3.437-1.15 1.884-1.2 3.09-2.87 3.603-5.012a7.8 7.8 0 0 0 .173-2.523"></path></svg>