<svg xmlns="http://www.w3.org/2000/svg" width="78" height="78" fill="none"><g filter="url(#ApiAccessHammerDark_svg__a)"><rect width="45.581" height="45.581" x="9" y="3.333" fill="url(#ApiAccessHammerDark_svg__b)" rx="12.3"></rect><g filter="url(#ApiAccessHammerDark_svg__c)"><mask id="ApiAccessHammerDark_svg__d" fill="#fff"><path fill-rule="evenodd" d="M44.302 12.473c.763.763.763 2 0 2.762L19.296 40.243a1.954 1.954 0 0 1-2.763-2.763l25.006-25.006c.763-.763 2-.763 2.763 0m0 9.304c.762.763.762 2 0 2.763L28.6 40.242a1.954 1.954 0 0 1-2.763-2.763l15.701-15.702c.763-.763 2-.763 2.763 0m-9.305-6.542a1.954 1.954 0 0 0-2.763-2.762L16.533 28.174a1.953 1.953 0 1 0 2.762 2.763zm-9.305-2.762c.763.763.763 2 0 2.762l-6.396 6.397a1.954 1.954 0 0 1-2.763-2.762l6.397-6.397c.762-.763 2-.763 2.762 0M44.3 33.844a1.954 1.954 0 0 0-2.762-2.763l-6.397 6.397a1.954 1.954 0 0 0 2.763 2.763z" clip-rule="evenodd"></path></mask><path fill="#e6658a" d="m44.302 15.236.757.757zm0-2.763.757-.758zM19.296 40.242l.757.757zm-2.763 0-.758.757zm0-2.763.757.757zm25.006-25.006.757.757zM44.3 24.54l.758.757zM28.6 40.242l.757.757zm-2.763-2.763.757.757zm15.701-15.702.758.758zm-6.541-9.304.757-.758zm0 2.762.757.758zm-2.763-2.762.757.757zM16.533 28.174l-.758-.757zm0 2.763-.758.757zm2.762 0 .758.757zm6.397-15.702.758.758zm-6.396 6.397-.758-.757zm-2.763-2.762.757.757zm6.397-6.397-.758-.758zM44.3 31.08l-.757.758zm0 2.763-.757-.757zm-6.396 6.397.757.757zm7.155-24.248a3.024 3.024 0 0 0 0-4.277l-1.515 1.514a.883.883 0 0 1 0 1.248zM20.053 40.999l25.006-25.006-1.515-1.515-25.006 25.006zm-4.278 0a3.025 3.025 0 0 0 4.278 0l-1.515-1.515a.883.883 0 0 1-1.248 0zm0-4.277a3.024 3.024 0 0 0 0 4.277l1.515-1.515a.883.883 0 0 1 0-1.248zm25.007-25.007L15.775 36.723l1.515 1.514L42.296 13.23zm4.277 0a3.024 3.024 0 0 0-4.277 0l1.514 1.515a.883.883 0 0 1 1.248 0zm0 13.582a3.025 3.025 0 0 0 0-4.277l-1.515 1.515a.883.883 0 0 1 0 1.248zM29.357 41l15.702-15.702-1.515-1.514-15.701 15.701zm-4.277 0a3.025 3.025 0 0 0 4.277 0l-1.514-1.515a.883.883 0 0 1-1.249 0zm0-4.278a3.025 3.025 0 0 0 0 4.278l1.514-1.515a.883.883 0 0 1 0-1.248zM40.78 21.02 25.08 36.722l1.514 1.514 15.702-15.701zm4.278 0a3.025 3.025 0 0 0-4.278 0l1.515 1.515a.883.883 0 0 1 1.248 0zm-10.82-7.79a.883.883 0 0 1 0 1.248l1.515 1.515a3.024 3.024 0 0 0 0-4.277zm-1.248 0a.883.883 0 0 1 1.249 0l1.514-1.514a3.024 3.024 0 0 0-4.277 0zM17.29 28.93 32.99 13.23l-1.514-1.514-15.702 15.701zm0 1.249a.883.883 0 0 1 0-1.249l-1.515-1.514a3.024 3.024 0 0 0 0 4.277zm1.248 0a.883.883 0 0 1-1.248 0l-1.515 1.514a3.025 3.025 0 0 0 4.278 0zM34.24 14.478 18.538 30.18l1.515 1.514 15.701-15.701zm-7.79 1.515a3.024 3.024 0 0 0 0-4.277l-1.515 1.514a.883.883 0 0 1 0 1.248zm-6.397 6.397 6.397-6.397-1.515-1.515-6.397 6.397zm-4.278 0a3.025 3.025 0 0 0 4.278 0l-1.515-1.515a.883.883 0 0 1-1.248 0zm0-4.278a3.024 3.024 0 0 0 0 4.278l1.515-1.515a.883.883 0 0 1 0-1.248zm6.397-6.396-6.397 6.396 1.515 1.515 6.397-6.397zm4.278 0a3.024 3.024 0 0 0-4.278 0l1.515 1.514a.883.883 0 0 1 1.248 0zm17.093 20.123a.883.883 0 0 1 0 1.248l1.515 1.514a3.025 3.025 0 0 0 0-4.277zm-1.248 0a.883.883 0 0 1 1.248 0l1.515-1.515a3.025 3.025 0 0 0-4.278 0zm-6.397 6.396 6.397-6.396-1.515-1.515-6.397 6.397zm0 1.249a.883.883 0 0 1 0-1.249l-1.515-1.514a3.025 3.025 0 0 0 0 4.277zm1.248 0a.883.883 0 0 1-1.248 0l-1.515 1.514a3.025 3.025 0 0 0 4.278 0zm6.397-6.397-6.397 6.397 1.515 1.514 6.397-6.397z" mask="url(#ApiAccessHammerDark_svg__d)"></path></g><rect width="46.034" height="46.034" x="8.774" y="3.107" stroke="#000" stroke-opacity="0.1" stroke-width="0.453" rx="12.526"></rect></g><g filter="url(#ApiAccessHammerDark_svg__e)"><g filter="url(#ApiAccessHammerDark_svg__f)"><path fill="#131313" d="M48.673 21.98 31.848 46.481a2.23 2.23 0 0 0 .723 3.192l6.44 3.719a2.23 2.23 0 0 0 3.126-.97l12.51-26.2c.183-.381.567-.62.987-.662 2.813-.277 4.419-1.836 5.984-.933 1.688.975-.428 2.97.537 3.527l2.895 1.672a1.114 1.114 0 0 0 1.522-.408l4.457-7.72a1.114 1.114 0 0 0-.408-1.522l-2.895-1.672c-.965-.557-1.875 2.134-3.323 1.298s-.22-4.63-5.88-7.898c-10.488-6.018-16.107-4.045-18.62-1.548-.587.584-.12 1.48.704 1.573 11.03 1.238 10.06 7.123 8.066 10.05"></path><path stroke="#000" stroke-opacity="0.5" stroke-width="0.5" d="M58.648 11.688h-.001c-5.268-3.023-9.34-4.054-12.429-4-3.094.054-5.189 1.198-6.49 2.492a1.075 1.075 0 0 0-.228 1.255c.185.389.583.688 1.079.744 5.485.615 7.885 2.376 8.717 4.244.836 1.878.145 3.985-.83 5.415L31.642 46.341a2.48 2.48 0 0 0 .804 3.55l6.44 3.718a2.48 2.48 0 0 0 3.476-1.078l12.511-26.2c.14-.293.44-.487.786-.521 1.185-.117 2.167-.457 2.996-.744q.268-.094.517-.176c.946-.311 1.641-.438 2.32-.045.362.208.498.453.54.707.044.274-.017.586-.115.928q-.035.125-.077.258c-.077.249-.157.51-.187.736-.02.16-.02.33.035.49a.74.74 0 0 0 .342.408l2.895 1.671a1.364 1.364 0 0 0 1.864-.5l4.457-7.72a1.364 1.364 0 0 0-.5-1.863l-2.895-1.671c-.36-.209-.707-.09-.985.093-.216.142-.436.354-.644.554l-.148.14c-.264.25-.515.461-.772.568-.24.099-.485.11-.774-.057-.274-.159-.445-.469-.621-.99q-.083-.25-.174-.559c-.122-.406-.264-.876-.458-1.364-.602-1.511-1.746-3.322-4.627-4.986Z"></path></g><mask id="ApiAccessHammerDark_svg__g" width="41" height="47" x="31" y="7" maskUnits="userSpaceOnUse" style="mask-type:alpha"><path fill="#DCDCDC" d="M48.673 21.98 31.848 46.481a2.23 2.23 0 0 0 .723 3.192l6.44 3.719a2.23 2.23 0 0 0 3.126-.97l12.51-26.2c.183-.381.567-.62.987-.662 2.813-.277 4.419-1.836 5.984-.933 1.688.975-.428 2.97.537 3.527l2.895 1.672a1.114 1.114 0 0 0 1.522-.408l4.457-7.72a1.114 1.114 0 0 0-.408-1.522l-2.895-1.672c-.965-.557-1.875 2.134-3.323 1.298s-.22-4.63-5.88-7.898c-10.488-6.018-16.107-4.045-18.62-1.548-.587.584-.12 1.48.704 1.573 11.03 1.238 10.06 7.123 8.066 10.05"></path><path stroke="#fff" stroke-opacity="0.05" stroke-width="0.279" d="M58.592 11.784c-5.258-3.017-9.31-4.04-12.372-3.985-3.066.053-5.133 1.186-6.414 2.46a.96.96 0 0 0-.206 1.129c.168.353.533.63.991.68 5.499.618 7.95 2.387 8.806 4.31.859 1.928.145 4.078-.84 5.522L31.733 46.405a2.37 2.37 0 0 0 .768 3.39l6.441 3.72a2.37 2.37 0 0 0 3.32-1.031l12.511-26.2c.159-.332.496-.546.875-.584 1.17-.115 2.139-.45 2.967-.737q.27-.094.522-.178c.947-.31 1.686-.454 2.411-.035.388.224.546.497.593.786.049.3-.019.632-.117.975l-.081.27c-.076.246-.152.493-.18.708a1 1 0 0 0 .03.44.63.63 0 0 0 .292.348l2.896 1.671c.6.347 1.366.14 1.712-.459l4.457-7.72c.346-.6.14-1.366-.46-1.712l-2.894-1.671c-.308-.178-.606-.084-.87.09-.205.135-.416.337-.623.537l-.153.145c-.264.25-.528.474-.806.59a.92.92 0 0 1-.87-.064c-.314-.181-.496-.528-.672-1.051a18 18 0 0 1-.178-.57c-.12-.403-.26-.863-.452-1.348-.593-1.489-1.721-3.28-4.58-4.93Z"></path></mask><g mask="url(#ApiAccessHammerDark_svg__g)"><g filter="url(#ApiAccessHammerDark_svg__h)"><path fill="#D9D9D9" fill-opacity="0.01" d="m65.05 29.826-2.895-1.671c-1.206-.697 4.124-10.486 5.572-9.65l2.895 1.671c.533.308.715.99.407 1.522l-4.457 7.72a1.114 1.114 0 0 1-1.521.408" shape-rendering="crispEdges"></path></g><g filter="url(#ApiAccessHammerDark_svg__i)"><path fill="url(#ApiAccessHammerDark_svg__j)" d="M48.673 21.98 31.848 46.481a2.23 2.23 0 0 0 .723 3.192l6.44 3.719a2.23 2.23 0 0 0 3.126-.97L54.65 26.215c.18-.377.557-.616.97-.683 1.616-.26 4.306-1.318 5.942-4.152 2.368-4.101 1.19-7.032-3.04-9.475-10.488-6.018-16.107-4.045-18.62-1.548-.587.584-.12 1.48.704 1.573 11.03 1.238 10.06 7.123 8.066 10.05"></path></g><g filter="url(#ApiAccessHammerDark_svg__k)"><path fill="url(#ApiAccessHammerDark_svg__l)" d="m32.57 49.673 6.441 3.72a2.23 2.23 0 0 0 3.126-.97l8.872-18.58a1.114 1.114 0 0 0-.448-1.446l-5.583-3.223a1.114 1.114 0 0 0-1.476.334L31.848 46.482a2.23 2.23 0 0 0 .723 3.191"></path></g></g><path fill="url(#ApiAccessHammerDark_svg__m)" d="m65.05 29.826-2.895-1.671c-1.206-.697 4.124-10.486 5.572-9.65l2.895 1.671c.533.308.715.99.407 1.522l-4.457 7.72a1.114 1.114 0 0 1-1.521.408"></path><path stroke="#000" stroke-opacity="0.05" stroke-width="0.219" d="m62.1 28.25 2.896 1.671a1.223 1.223 0 0 0 1.671-.448l4.457-7.72a1.224 1.224 0 0 0-.448-1.672l-2.895-1.671c-.24-.139-.533-.043-.82.15-.294.197-.624.523-.969.931-.69.819-1.459 1.992-2.142 3.21-.683 1.219-1.285 2.488-1.64 3.498-.177.504-.296.95-.33 1.296-.017.172-.014.327.017.453a.46.46 0 0 0 .203.301Z"></path><g filter="url(#ApiAccessHammerDark_svg__n)"><path fill="url(#ApiAccessHammerDark_svg__o)" d="m65.05 29.826-2.895-1.671c-1.206-.697 4.124-10.486 5.572-9.65l2.895 1.671c.533.308.715.99.407 1.522l-4.457 7.72a1.114 1.114 0 0 1-1.521.408"></path></g></g><defs><filter id="ApiAccessHammerDark_svg__a" width="62.487" height="76.487" x="0.547" y="0.881" color-interpolation-filters="sRGB" filterUnits="userSpaceOnUse"><feFlood flood-opacity="0" result="BackgroundImageFix"></feFlood><feColorMatrix in="SourceAlpha" result="hardAlpha" values="0 0 0 0 0 0 0 0 0 0 0 0 0 0 0 0 0 0 127 0"></feColorMatrix><feOffset></feOffset><feColorMatrix values="0 0 0 0 0 0 0 0 0 0 0 0 0 0 0 0 0 0 0.1 0"></feColorMatrix><feBlend in2="BackgroundImageFix" result="effect1_dropShadow_5782_105235"></feBlend><feColorMatrix in="SourceAlpha" result="hardAlpha" values="0 0 0 0 0 0 0 0 0 0 0 0 0 0 0 0 0 0 127 0"></feColorMatrix><feOffset dy="1"></feOffset><feGaussianBlur stdDeviation="1.5"></feGaussianBlur><feColorMatrix values="0 0 0 0 0 0 0 0 0 0 0 0 0 0 0 0 0 0 0.1 0"></feColorMatrix><feBlend in2="effect1_dropShadow_5782_105235" result="effect2_dropShadow_5782_105235"></feBlend><feColorMatrix in="SourceAlpha" result="hardAlpha" values="0 0 0 0 0 0 0 0 0 0 0 0 0 0 0 0 0 0 127 0"></feColorMatrix><feOffset dy="5"></feOffset><feGaussianBlur stdDeviation="2.5"></feGaussianBlur><feColorMatrix values="0 0 0 0 0 0 0 0 0 0 0 0 0 0 0 0 0 0 0.09 0"></feColorMatrix><feBlend in2="effect2_dropShadow_5782_105235" result="effect3_dropShadow_5782_105235"></feBlend><feColorMatrix in="SourceAlpha" result="hardAlpha" values="0 0 0 0 0 0 0 0 0 0 0 0 0 0 0 0 0 0 127 0"></feColorMatrix><feOffset dy="11"></feOffset><feGaussianBlur stdDeviation="3.5"></feGaussianBlur><feColorMatrix values="0 0 0 0 0 0 0 0 0 0 0 0 0 0 0 0 0 0 0.05 0"></feColorMatrix><feBlend in2="effect3_dropShadow_5782_105235" result="effect4_dropShadow_5782_105235"></feBlend><feColorMatrix in="SourceAlpha" result="hardAlpha" values="0 0 0 0 0 0 0 0 0 0 0 0 0 0 0 0 0 0 127 0"></feColorMatrix><feOffset dy="20"></feOffset><feGaussianBlur stdDeviation="4"></feGaussianBlur><feColorMatrix values="0 0 0 0 0 0 0 0 0 0 0 0 0 0 0 0 0 0 0.01 0"></feColorMatrix><feBlend in2="effect4_dropShadow_5782_105235" result="effect5_dropShadow_5782_105235"></feBlend><feBlend in="SourceGraphic" in2="effect5_dropShadow_5782_105235" result="shape"></feBlend></filter><filter id="ApiAccessHammerDark_svg__c" width="33.197" height="33.197" x="13.819" y="10.294" color-interpolation-filters="sRGB" filterUnits="userSpaceOnUse"><feFlood flood-opacity="0" result="BackgroundImageFix"></feFlood><feColorMatrix in="SourceAlpha" result="hardAlpha" values="0 0 0 0 0 0 0 0 0 0 0 0 0 0 0 0 0 0 127 0"></feColorMatrix><feOffset dy="0.535"></feOffset><feGaussianBlur stdDeviation="1.071"></feGaussianBlur><feComposite in2="hardAlpha" operator="out"></feComposite><feColorMatrix values="0 0 0 0 0 0 0 0 0 0 0 0 0 0 0 0 0 0 0.05 0"></feColorMatrix><feBlend in2="BackgroundImageFix" result="effect1_dropShadow_5782_105235"></feBlend><feBlend in="SourceGraphic" in2="effect1_dropShadow_5782_105235" result="shape"></feBlend></filter><filter id="ApiAccessHammerDark_svg__e" width="51.431" height="57.465" x="25.602" y="4.223" color-interpolation-filters="sRGB" filterUnits="userSpaceOnUse"><feFlood flood-opacity="0" result="BackgroundImageFix"></feFlood><feColorMatrix in="SourceAlpha" result="hardAlpha" values="0 0 0 0 0 0 0 0 0 0 0 0 0 0 0 0 0 0 127 0"></feColorMatrix><feOffset dy="2.142"></feOffset><feGaussianBlur stdDeviation="2.677"></feGaussianBlur><feComposite in2="hardAlpha" operator="out"></feComposite><feColorMatrix values="0 0 0 0 0 0 0 0 0 0 0 0 0 0 0 0 0 0 0.1 0"></feColorMatrix><feBlend in2="BackgroundImageFix" result="effect1_dropShadow_5782_105235"></feBlend><feBlend in="SourceGraphic" in2="effect1_dropShadow_5782_105235" result="shape"></feBlend></filter><filter id="ApiAccessHammerDark_svg__f" width="50.751" height="65.142" x="25.942" y="6.322" color-interpolation-filters="sRGB" filterUnits="userSpaceOnUse"><feFlood flood-opacity="0" result="BackgroundImageFix"></feFlood><feColorMatrix in="SourceAlpha" result="hardAlpha" values="0 0 0 0 0 0 0 0 0 0 0 0 0 0 0 0 0 0 127 0"></feColorMatrix><feOffset></feOffset><feColorMatrix values="0 0 0 0 0 0 0 0 0 0 0 0 0 0 0 0 0 0 0.04 0"></feColorMatrix><feBlend in2="BackgroundImageFix" result="effect1_dropShadow_5782_105235"></feBlend><feColorMatrix in="SourceAlpha" result="hardAlpha" values="0 0 0 0 0 0 0 0 0 0 0 0 0 0 0 0 0 0 127 0"></feColorMatrix><feOffset dy="0.557"></feOffset><feGaussianBlur stdDeviation="0.836"></feGaussianBlur><feColorMatrix values="0 0 0 0 0 0 0 0 0 0 0 0 0 0 0 0 0 0 0.04 0"></feColorMatrix><feBlend in2="effect1_dropShadow_5782_105235" result="effect2_dropShadow_5782_105235"></feBlend><feColorMatrix in="SourceAlpha" result="hardAlpha" values="0 0 0 0 0 0 0 0 0 0 0 0 0 0 0 0 0 0 127 0"></feColorMatrix><feOffset dy="3.343"></feOffset><feGaussianBlur stdDeviation="1.671"></feGaussianBlur><feColorMatrix values="0 0 0 0 0 0 0 0 0 0 0 0 0 0 0 0 0 0 0.04 0"></feColorMatrix><feBlend in2="effect2_dropShadow_5782_105235" result="effect3_dropShadow_5782_105235"></feBlend><feColorMatrix in="SourceAlpha" result="hardAlpha" values="0 0 0 0 0 0 0 0 0 0 0 0 0 0 0 0 0 0 127 0"></feColorMatrix><feOffset dy="7.243"></feOffset><feGaussianBlur stdDeviation="2.229"></feGaussianBlur><feColorMatrix values="0 0 0 0 0 0 0 0 0 0 0 0 0 0 0 0 0 0 0.02 0"></feColorMatrix><feBlend in2="effect3_dropShadow_5782_105235" result="effect4_dropShadow_5782_105235"></feBlend><feColorMatrix in="SourceAlpha" result="hardAlpha" values="0 0 0 0 0 0 0 0 0 0 0 0 0 0 0 0 0 0 127 0"></feColorMatrix><feOffset dy="12.257"></feOffset><feGaussianBlur stdDeviation="2.507"></feGaussianBlur><feColorMatrix values="0 0 0 0 0 0 0 0 0 0 0 0 0 0 0 0 0 0 0.01 0"></feColorMatrix><feBlend in2="effect4_dropShadow_5782_105235" result="effect5_dropShadow_5782_105235"></feBlend><feBlend in="SourceGraphic" in2="effect5_dropShadow_5782_105235" result="shape"></feBlend></filter><filter id="ApiAccessHammerDark_svg__h" width="10.592" height="12.636" x="60.586" y="17.897" color-interpolation-filters="sRGB" filterUnits="userSpaceOnUse"><feFlood flood-opacity="0" result="BackgroundImageFix"></feFlood><feColorMatrix in="SourceAlpha" result="hardAlpha" values="0 0 0 0 0 0 0 0 0 0 0 0 0 0 0 0 0 0 127 0"></feColorMatrix><feOffset dx="-0.836"></feOffset><feGaussianBlur stdDeviation="0.279"></feGaussianBlur><feComposite in2="hardAlpha" operator="out"></feComposite><feColorMatrix values="0 0 0 0 0 0 0 0 0 0 0 0 0 0 0 0 0 0 0.1 0"></feColorMatrix><feBlend in2="BackgroundImageFix" result="effect1_dropShadow_5782_105235"></feBlend><feBlend in="SourceGraphic" in2="effect1_dropShadow_5782_105235" result="shape"></feBlend></filter><filter id="ApiAccessHammerDark_svg__i" width="35.769" height="50.213" x="30.342" y="5.707" color-interpolation-filters="sRGB" filterUnits="userSpaceOnUse"><feFlood flood-opacity="0" result="BackgroundImageFix"></feFlood><feColorMatrix in="SourceAlpha" result="hardAlpha" values="0 0 0 0 0 0 0 0 0 0 0 0 0 0 0 0 0 0 127 0"></feColorMatrix><feOffset dx="1.114"></feOffset><feGaussianBlur stdDeviation="1.114"></feGaussianBlur><feComposite in2="hardAlpha" operator="out"></feComposite><feColorMatrix values="0 0 0 0 1 0 0 0 0 1 0 0 0 0 1 0 0 0 0.1 0"></feColorMatrix><feBlend in2="BackgroundImageFix" result="effect1_dropShadow_5782_105235"></feBlend><feBlend in="SourceGraphic" in2="effect1_dropShadow_5782_105235" result="shape"></feBlend><feColorMatrix in="SourceAlpha" result="hardAlpha" values="0 0 0 0 0 0 0 0 0 0 0 0 0 0 0 0 0 0 127 0"></feColorMatrix><feOffset dx="0.557"></feOffset><feGaussianBlur stdDeviation="0.279"></feGaussianBlur><feComposite in2="hardAlpha" k2="-1" k3="1" operator="arithmetic"></feComposite><feColorMatrix values="0 0 0 0 0 0 0 0 0 0 0 0 0 0 0 0 0 0 0.5 0"></feColorMatrix><feBlend in2="shape" result="effect2_innerShadow_5782_105235"></feBlend><feColorMatrix in="SourceAlpha" result="hardAlpha" values="0 0 0 0 0 0 0 0 0 0 0 0 0 0 0 0 0 0 127 0"></feColorMatrix><feOffset dx="-0.557"></feOffset><feGaussianBlur stdDeviation="0.279"></feGaussianBlur><feComposite in2="hardAlpha" k2="-1" k3="1" operator="arithmetic"></feComposite><feColorMatrix values="0 0 0 0 0 0 0 0 0 0 0 0 0 0 0 0 0 0 0.5 0"></feColorMatrix><feBlend in2="effect2_innerShadow_5782_105235" result="effect3_innerShadow_5782_105235"></feBlend><feColorMatrix in="SourceAlpha" result="hardAlpha" values="0 0 0 0 0 0 0 0 0 0 0 0 0 0 0 0 0 0 127 0"></feColorMatrix><feOffset dy="0.438"></feOffset><feGaussianBlur stdDeviation="0.219"></feGaussianBlur><feComposite in2="hardAlpha" k2="-1" k3="1" operator="arithmetic"></feComposite><feColorMatrix values="0 0 0 0 1 0 0 0 0 1 0 0 0 0 1 0 0 0 0.05 0"></feColorMatrix><feBlend in2="effect3_innerShadow_5782_105235" result="effect4_innerShadow_5782_105235"></feBlend></filter><filter id="ApiAccessHammerDark_svg__k" width="23.168" height="29.049" x="29.703" y="26.395" color-interpolation-filters="sRGB" filterUnits="userSpaceOnUse"><feFlood flood-opacity="0" result="BackgroundImageFix"></feFlood><feColorMatrix in="SourceAlpha" result="hardAlpha" values="0 0 0 0 0 0 0 0 0 0 0 0 0 0 0 0 0 0 127 0"></feColorMatrix><feOffset dy="-0.877"></feOffset><feGaussianBlur stdDeviation="0.877"></feGaussianBlur><feComposite in2="hardAlpha" operator="out"></feComposite><feColorMatrix values="0 0 0 0 0 0 0 0 0 0 0 0 0 0 0 0 0 0 0.08 0"></feColorMatrix><feBlend in2="BackgroundImageFix" result="effect1_dropShadow_5782_105235"></feBlend><feColorMatrix in="SourceAlpha" result="hardAlpha" values="0 0 0 0 0 0 0 0 0 0 0 0 0 0 0 0 0 0 127 0"></feColorMatrix><feOffset dx="0.438" dy="-0.438"></feOffset><feGaussianBlur stdDeviation="0.219"></feGaussianBlur><feComposite in2="hardAlpha" operator="out"></feComposite><feColorMatrix values="0 0 0 0 0 0 0 0 0 0 0 0 0 0 0 0 0 0 0.08 0"></feColorMatrix><feBlend in2="effect1_dropShadow_5782_105235" result="effect2_dropShadow_5782_105235"></feBlend><feBlend in="SourceGraphic" in2="effect2_dropShadow_5782_105235" result="shape"></feBlend><feColorMatrix in="SourceAlpha" result="hardAlpha" values="0 0 0 0 0 0 0 0 0 0 0 0 0 0 0 0 0 0 127 0"></feColorMatrix><feOffset dx="-0.657" dy="1.753"></feOffset><feGaussianBlur stdDeviation="1.315"></feGaussianBlur><feComposite in2="hardAlpha" k2="-1" k3="1" operator="arithmetic"></feComposite><feColorMatrix values="0 0 0 0 0 0 0 0 0 0 0 0 0 0 0 0 0 0 0.25 0"></feColorMatrix><feBlend in2="shape" result="effect3_innerShadow_5782_105235"></feBlend></filter><filter id="ApiAccessHammerDark_svg__n" width="10.314" height="11.521" x="61.422" y="18.454" color-interpolation-filters="sRGB" filterUnits="userSpaceOnUse"><feFlood flood-opacity="0" result="BackgroundImageFix"></feFlood><feBlend in="SourceGraphic" in2="BackgroundImageFix" result="shape"></feBlend><feColorMatrix in="SourceAlpha" result="hardAlpha" values="0 0 0 0 0 0 0 0 0 0 0 0 0 0 0 0 0 0 127 0"></feColorMatrix><feOffset dx="0.557"></feOffset><feGaussianBlur stdDeviation="0.279"></feGaussianBlur><feComposite in2="hardAlpha" k2="-1" k3="1" operator="arithmetic"></feComposite><feColorMatrix values="0 0 0 0 0 0 0 0 0 0 0 0 0 0 0 0 0 0 0.5 0"></feColorMatrix><feBlend in2="shape" result="effect1_innerShadow_5782_105235"></feBlend><feColorMatrix in="SourceAlpha" result="hardAlpha" values="0 0 0 0 0 0 0 0 0 0 0 0 0 0 0 0 0 0 127 0"></feColorMatrix><feOffset dx="-0.557"></feOffset><feGaussianBlur stdDeviation="0.279"></feGaussianBlur><feComposite in2="hardAlpha" k2="-1" k3="1" operator="arithmetic"></feComposite><feColorMatrix values="0 0 0 0 0 0 0 0 0 0 0 0 0 0 0 0 0 0 0.5 0"></feColorMatrix><feBlend in2="effect1_innerShadow_5782_105235" result="effect2_innerShadow_5782_105235"></feBlend></filter><linearGradient id="ApiAccessHammerDark_svg__b" x1="31.791" x2="31.791" y1="3.333" y2="48.915" gradientUnits="userSpaceOnUse"><stop stop-color="#3E3E3E"></stop><stop offset="1" stop-color="#333"></stop></linearGradient><linearGradient id="ApiAccessHammerDark_svg__j" x1="54.291" x2="41.477" y1="9.462" y2="31.656" gradientUnits="userSpaceOnUse"><stop stop-color="#545454"></stop><stop offset="0.299" stop-color="#363636"></stop><stop offset="0.399" stop-color="#2E2E2E"></stop><stop offset="0.552" stop-color="#1A1A1A"></stop><stop offset="0.676" stop-color="#363636"></stop><stop offset="0.999" stop-color="#525252"></stop></linearGradient><linearGradient id="ApiAccessHammerDark_svg__l" x1="47.769" x2="35.791" y1="30.786" y2="51.533" gradientUnits="userSpaceOnUse"><stop stop-color="#353535"></stop><stop offset="0.922" stop-color="#4B4B4B"></stop><stop offset="1" stop-color="#363636"></stop></linearGradient><linearGradient id="ApiAccessHammerDark_svg__m" x1="69.158" x2="63.603" y1="19.331" y2="28.99" gradientUnits="userSpaceOnUse"><stop stop-color="#fff"></stop><stop offset="0.369" stop-color="#F8F8F8"></stop><stop offset="0.455" stop-color="#DCDCDC"></stop><stop offset="0.552" stop-color="#E0E0E0"></stop><stop offset="0.895" stop-color="#F3F3F3"></stop><stop offset="1" stop-color="#E3E3E3"></stop></linearGradient><linearGradient id="ApiAccessHammerDark_svg__o" x1="69.158" x2="63.603" y1="19.331" y2="28.99" gradientUnits="userSpaceOnUse"><stop stop-color="#4D4D4D"></stop><stop offset="0.369" stop-color="#5B5B5B"></stop><stop offset="0.455" stop-color="#363636"></stop><stop offset="0.552" stop-color="#1C1C1C"></stop><stop offset="0.895" stop-color="#212121"></stop><stop offset="1" stop-color="#343434"></stop></linearGradient></defs></svg>