<svg xmlns="http://www.w3.org/2000/svg" width="76" height="73" fill="none"><g filter="url(#ApiAccessHammerLight_svg__a)"><rect width="45.581" height="45.581" x="8" y="2.333" fill="url(#ApiAccessHammerLight_svg__b)" rx="12.361"></rect><g filter="url(#ApiAccessHammerLight_svg__c)"><mask id="ApiAccessHammerLight_svg__d" fill="#fff"><path fill-rule="evenodd" d="M43.302 11.473c.763.763.763 2 0 2.762L18.296 39.243a1.954 1.954 0 0 1-2.763-2.763l25.006-25.006c.763-.763 2-.763 2.763 0m0 9.304c.762.763.762 2 0 2.763L27.6 39.242a1.954 1.954 0 0 1-2.763-2.763l15.701-15.702c.763-.763 2-.763 2.763 0m-9.305-6.542a1.954 1.954 0 0 0-2.763-2.762L15.533 27.174a1.953 1.953 0 1 0 2.763 2.763zm-9.305-2.762c.763.763.763 2 0 2.762l-6.396 6.397a1.954 1.954 0 0 1-2.763-2.762l6.397-6.397c.762-.763 2-.763 2.762 0M43.3 32.844a1.954 1.954 0 0 0-2.762-2.763l-6.397 6.397a1.954 1.954 0 0 0 2.763 2.763z" clip-rule="evenodd"></path></mask><path fill="#de3163" d="m43.302 14.236.707.707zm0-2.763.707-.707zM18.296 39.242l.707.707zm-2.763 0-.707.707zm0-2.763.707.707zm25.006-25.006.707.707zM43.3 23.54l.707.707zM27.6 39.242l.707.707zm-2.763-2.763.707.707zm15.701-15.702.708.707zm-6.541-9.304.707-.707zm0 2.762.707.708zm-2.763-2.762.707.707zM15.533 27.174l-.707-.707zm0 2.763-.707.707zm2.763 0 .707.707zm6.396-15.702.707.708zm-6.396 6.397-.708-.707zm-2.763-2.762.707.707zm6.397-6.397-.707-.707zM43.3 30.08l-.707.707zm0 2.763-.707-.707zm-6.396 6.397.707.707zm7.105-24.298a2.954 2.954 0 0 0 0-4.177l-1.415 1.414a.954.954 0 0 1 0 1.348zM19.003 39.949l25.006-25.006-1.415-1.415-25.006 25.007zm-4.177 0a2.954 2.954 0 0 0 4.177 0l-1.415-1.414a.954.954 0 0 1-1.348 0zm0-4.177a2.953 2.953 0 0 0 0 4.177l1.414-1.414a.954.954 0 0 1 0-1.35zm25.006-25.006L14.826 35.772l1.414 1.414L41.246 12.18zm4.177 0a2.954 2.954 0 0 0-4.177 0l1.414 1.414a.954.954 0 0 1 1.348 0zm0 13.481a2.954 2.954 0 0 0 0-4.177l-1.415 1.414a.953.953 0 0 1 0 1.349zM28.306 39.95l15.701-15.702-1.414-1.414-15.701 15.702zm-4.177 0a2.954 2.954 0 0 0 4.177 0l-1.414-1.414a.954.954 0 0 1-1.349 0zm0-4.177a2.954 2.954 0 0 0 0 4.177l1.414-1.414a.954.954 0 0 1 0-1.35zM39.83 20.07 24.13 35.772l1.414 1.414 15.702-15.702zm4.177 0a2.954 2.954 0 0 0-4.177 0l1.415 1.414a.953.953 0 0 1 1.348 0zM33.29 12.18a.954.954 0 0 1 0 1.348l1.414 1.415a2.954 2.954 0 0 0 0-4.177zm-1.349 0a.954.954 0 0 1 1.349 0l1.414-1.414a2.954 2.954 0 0 0-4.177 0zM16.24 27.88 31.94 12.18l-1.414-1.414-15.701 15.701zm0 1.349a.954.954 0 0 1 0-1.349l-1.414-1.414a2.953 2.953 0 0 0 0 4.177zm1.348 0a.954.954 0 0 1-1.348 0l-1.414 1.414a2.953 2.953 0 0 0 4.177 0zM33.29 13.528 17.588 29.23l1.415 1.414 15.701-15.701zm-7.89 1.415a2.954 2.954 0 0 0 0-4.177l-1.415 1.414a.954.954 0 0 1 0 1.348zm-6.397 6.397 6.397-6.397-1.415-1.415-6.397 6.397zm-4.177 0a2.953 2.953 0 0 0 4.177 0l-1.415-1.415a.954.954 0 0 1-1.348 0zm0-4.177a2.953 2.953 0 0 0 0 4.177l1.414-1.415a.954.954 0 0 1 0-1.348zm6.397-6.397-6.397 6.397 1.414 1.414 6.397-6.397zm4.177 0a2.954 2.954 0 0 0-4.177 0l1.414 1.414a.954.954 0 0 1 1.348 0zm17.193 20.022a.954.954 0 0 1 0 1.349l1.414 1.414a2.954 2.954 0 0 0 0-4.177zm-1.348 0a.954.954 0 0 1 1.348 0l1.414-1.414a2.954 2.954 0 0 0-4.176 0zm-6.397 6.397 6.397-6.397-1.414-1.414-6.398 6.397zm0 1.349a.954.954 0 0 1 0-1.349l-1.414-1.414a2.954 2.954 0 0 0 0 4.177zm1.348 0a.954.954 0 0 1-1.348 0l-1.414 1.414a2.954 2.954 0 0 0 4.177 0zm6.397-6.397-6.397 6.397 1.415 1.414 6.397-6.397z" mask="url(#ApiAccessHammerLight_svg__d)"></path></g><rect width="45.8" height="45.8" x="7.89" y="2.224" stroke="#000" stroke-opacity="0.05" stroke-width="0.219" rx="12.47"></rect></g><g filter="url(#ApiAccessHammerLight_svg__e)"><path fill="#fff" d="M47.673 20.98 30.848 45.481a2.23 2.23 0 0 0 .723 3.192l6.44 3.719a2.23 2.23 0 0 0 3.126-.97l12.51-26.2c.183-.381.567-.62.987-.662 2.813-.277 4.419-1.836 5.984-.933 1.688.975-.428 2.97.537 3.527l2.895 1.672a1.114 1.114 0 0 0 1.522-.408l4.457-7.72a1.114 1.114 0 0 0-.408-1.522l-2.895-1.672c-.965-.557-1.875 2.134-3.322 1.298s-.222-4.63-5.882-7.898C47.036 4.887 41.417 6.86 38.905 9.357c-.588.584-.12 1.48.703 1.573 11.03 1.238 10.06 7.123 8.066 10.05"></path><path stroke="#000" stroke-opacity="0.1" stroke-width="0.5" d="M57.648 10.688h-.001c-5.268-3.023-9.34-4.054-12.429-4-3.094.054-5.189 1.198-6.49 2.492a1.075 1.075 0 0 0-.228 1.255c.185.389.583.688 1.079.744 5.485.615 7.885 2.376 8.717 4.244.836 1.878.145 3.985-.83 5.415L30.642 45.341a2.48 2.48 0 0 0 .804 3.55l6.44 3.718a2.48 2.48 0 0 0 3.476-1.078l12.511-26.2c.14-.293.44-.487.786-.521 1.185-.117 2.167-.457 2.996-.744q.268-.094.517-.176c.946-.311 1.641-.438 2.32-.045.362.208.498.453.54.707.044.274-.017.586-.115.928q-.035.125-.077.258c-.077.249-.157.51-.187.736-.02.16-.02.33.035.49a.74.74 0 0 0 .342.408l2.895 1.671a1.364 1.364 0 0 0 1.864-.5l4.457-7.72a1.364 1.364 0 0 0-.5-1.863l-2.895-1.671c-.36-.209-.707-.09-.985.093-.216.142-.436.354-.644.554l-.148.14c-.264.25-.515.461-.772.568-.24.099-.485.11-.774-.057-.274-.159-.445-.469-.621-.99q-.083-.25-.174-.559c-.122-.406-.264-.876-.458-1.364-.602-1.511-1.746-3.322-4.627-4.986Z"></path></g><mask id="ApiAccessHammerLight_svg__f" width="41" height="47" x="30" y="6" maskUnits="userSpaceOnUse" style="mask-type:alpha"><path fill="#fff" d="M47.673 20.98 30.848 45.481a2.23 2.23 0 0 0 .723 3.192l6.44 3.719a2.23 2.23 0 0 0 3.126-.97l12.51-26.2c.183-.381.567-.62.987-.662 2.813-.277 4.419-1.836 5.984-.933 1.688.975-.428 2.97.537 3.527l2.895 1.672a1.114 1.114 0 0 0 1.522-.408l4.457-7.72a1.114 1.114 0 0 0-.408-1.522l-2.895-1.672c-.965-.557-1.875 2.134-3.322 1.298s-.222-4.63-5.882-7.898C47.036 4.887 41.417 6.86 38.905 9.357c-.588.584-.12 1.48.703 1.573 11.03 1.238 10.06 7.123 8.066 10.05"></path><path stroke="#000" stroke-opacity="0.05" stroke-width="0.279" d="M57.592 10.784c-5.258-3.017-9.31-4.04-12.372-3.985-3.066.053-5.133 1.186-6.414 2.46a.96.96 0 0 0-.206 1.129c.168.353.533.63.991.68 5.499.618 7.95 2.387 8.806 4.31.859 1.928.145 4.078-.84 5.522L30.733 45.405a2.37 2.37 0 0 0 .768 3.39l6.441 3.72a2.37 2.37 0 0 0 3.32-1.031l12.511-26.2c.159-.332.496-.546.875-.584 1.17-.115 2.139-.45 2.967-.737q.27-.094.522-.178c.947-.31 1.686-.454 2.411-.035.388.224.546.497.593.786.049.3-.019.632-.117.975l-.081.27c-.076.246-.152.493-.18.708a1 1 0 0 0 .03.44.63.63 0 0 0 .292.348l2.896 1.671c.6.347 1.366.14 1.712-.459l4.457-7.72c.346-.6.14-1.366-.46-1.712l-2.894-1.671c-.308-.178-.606-.084-.87.09-.205.135-.416.337-.623.537l-.153.145c-.264.25-.528.474-.806.59a.92.92 0 0 1-.87-.064c-.314-.181-.496-.528-.672-1.051a18 18 0 0 1-.178-.57c-.12-.403-.26-.863-.452-1.348-.593-1.489-1.721-3.28-4.58-4.93Z"></path></mask><g mask="url(#ApiAccessHammerLight_svg__f)"><g filter="url(#ApiAccessHammerLight_svg__g)"><path fill="#D9D9D9" fill-opacity="0.01" d="m64.05 28.826-2.895-1.671c-1.206-.697 4.124-10.486 5.572-9.65l2.895 1.671c.533.308.715.99.407 1.522l-4.457 7.72a1.114 1.114 0 0 1-1.521.408" shape-rendering="crispEdges"></path></g><g filter="url(#ApiAccessHammerLight_svg__h)"><path fill="url(#ApiAccessHammerLight_svg__i)" d="M47.673 20.98 30.848 45.481a2.23 2.23 0 0 0 .723 3.192l6.44 3.719a2.23 2.23 0 0 0 3.126-.97L53.65 25.215c.18-.377.557-.616.97-.683 1.616-.26 4.306-1.318 5.942-4.152 2.368-4.101 1.19-7.032-3.04-9.475-10.488-6.018-16.107-4.045-18.62-1.548-.587.584-.12 1.48.704 1.573 11.03 1.238 10.06 7.123 8.066 10.05"></path></g><g filter="url(#ApiAccessHammerLight_svg__j)"><path fill="url(#ApiAccessHammerLight_svg__k)" d="m31.57 48.673 6.441 3.72a2.23 2.23 0 0 0 3.126-.97l8.872-18.58a1.114 1.114 0 0 0-.448-1.446l-5.583-3.223a1.114 1.114 0 0 0-1.476.334L30.848 45.482a2.23 2.23 0 0 0 .723 3.191"></path></g></g><path fill="url(#ApiAccessHammerLight_svg__l)" d="m64.05 28.826-2.895-1.671c-1.206-.697 4.124-10.486 5.572-9.65l2.895 1.671c.533.308.715.99.407 1.522l-4.457 7.72a1.114 1.114 0 0 1-1.521.408"></path><path stroke="#000" stroke-opacity="0.05" stroke-width="0.219" d="m61.1 27.25 2.896 1.671a1.223 1.223 0 0 0 1.671-.448l4.457-7.72a1.224 1.224 0 0 0-.448-1.672l-2.895-1.671c-.24-.139-.533-.043-.82.15-.294.197-.624.523-.969.931-.69.819-1.459 1.992-2.142 3.21-.683 1.219-1.285 2.488-1.64 3.498-.177.504-.296.95-.33 1.296-.017.172-.014.327.017.453a.46.46 0 0 0 .203.301Z"></path><g filter="url(#ApiAccessHammerLight_svg__m)"><path fill="url(#ApiAccessHammerLight_svg__n)" d="m64.05 28.826-2.895-1.671c-1.206-.697 4.124-10.486 5.572-9.65l2.895 1.671c.533.308.715.99.407 1.522l-4.457 7.72a1.114 1.114 0 0 1-1.521.408"></path></g><defs><filter id="ApiAccessHammerLight_svg__a" width="59.926" height="71.514" x="0.828" y="0.569" color-interpolation-filters="sRGB" filterUnits="userSpaceOnUse"><feFlood flood-opacity="0" result="BackgroundImageFix"></feFlood><feColorMatrix in="SourceAlpha" result="hardAlpha" values="0 0 0 0 0 0 0 0 0 0 0 0 0 0 0 0 0 0 127 0"></feColorMatrix><feOffset></feOffset><feColorMatrix values="0 0 0 0 0 0 0 0 0 0 0 0 0 0 0 0 0 0 0.04 0"></feColorMatrix><feBlend in2="BackgroundImageFix" result="effect1_dropShadow_5734_108716"></feBlend><feColorMatrix in="SourceAlpha" result="hardAlpha" values="0 0 0 0 0 0 0 0 0 0 0 0 0 0 0 0 0 0 127 0"></feColorMatrix><feOffset dy="0.773"></feOffset><feGaussianBlur stdDeviation="1.159"></feGaussianBlur><feColorMatrix values="0 0 0 0 0 0 0 0 0 0 0 0 0 0 0 0 0 0 0.04 0"></feColorMatrix><feBlend in2="effect1_dropShadow_5734_108716" result="effect2_dropShadow_5734_108716"></feBlend><feColorMatrix in="SourceAlpha" result="hardAlpha" values="0 0 0 0 0 0 0 0 0 0 0 0 0 0 0 0 0 0 127 0"></feColorMatrix><feOffset dy="4.635"></feOffset><feGaussianBlur stdDeviation="2.318"></feGaussianBlur><feColorMatrix values="0 0 0 0 0 0 0 0 0 0 0 0 0 0 0 0 0 0 0.04 0"></feColorMatrix><feBlend in2="effect2_dropShadow_5734_108716" result="effect3_dropShadow_5734_108716"></feBlend><feColorMatrix in="SourceAlpha" result="hardAlpha" values="0 0 0 0 0 0 0 0 0 0 0 0 0 0 0 0 0 0 127 0"></feColorMatrix><feOffset dy="10.043"></feOffset><feGaussianBlur stdDeviation="3.09"></feGaussianBlur><feColorMatrix values="0 0 0 0 0 0 0 0 0 0 0 0 0 0 0 0 0 0 0.02 0"></feColorMatrix><feBlend in2="effect3_dropShadow_5734_108716" result="effect4_dropShadow_5734_108716"></feBlend><feColorMatrix in="SourceAlpha" result="hardAlpha" values="0 0 0 0 0 0 0 0 0 0 0 0 0 0 0 0 0 0 127 0"></feColorMatrix><feOffset dy="16.996"></feOffset><feGaussianBlur stdDeviation="3.477"></feGaussianBlur><feColorMatrix values="0 0 0 0 0 0 0 0 0 0 0 0 0 0 0 0 0 0 0.01 0"></feColorMatrix><feBlend in2="effect4_dropShadow_5734_108716" result="effect5_dropShadow_5734_108716"></feBlend><feBlend in="SourceGraphic" in2="effect5_dropShadow_5734_108716" result="shape"></feBlend><feColorMatrix in="SourceAlpha" result="hardAlpha" values="0 0 0 0 0 0 0 0 0 0 0 0 0 0 0 0 0 0 127 0"></feColorMatrix><feOffset dy="0.535"></feOffset><feGaussianBlur stdDeviation="0.535"></feGaussianBlur><feComposite in2="hardAlpha" k2="-1" k3="1" operator="arithmetic"></feComposite><feColorMatrix values="0 0 0 0 1 0 0 0 0 1 0 0 0 0 1 0 0 0 1 0"></feColorMatrix><feBlend in2="shape" result="effect6_innerShadow_5734_108716"></feBlend></filter><filter id="ApiAccessHammerLight_svg__c" width="33.197" height="33.197" x="12.819" y="9.294" color-interpolation-filters="sRGB" filterUnits="userSpaceOnUse"><feFlood flood-opacity="0" result="BackgroundImageFix"></feFlood><feColorMatrix in="SourceAlpha" result="hardAlpha" values="0 0 0 0 0 0 0 0 0 0 0 0 0 0 0 0 0 0 127 0"></feColorMatrix><feOffset dy="0.535"></feOffset><feGaussianBlur stdDeviation="1.071"></feGaussianBlur><feComposite in2="hardAlpha" operator="out"></feComposite><feColorMatrix values="0 0 0 0 0 0 0 0 0 0 0 0 0 0 0 0 0 0 0.05 0"></feColorMatrix><feBlend in2="BackgroundImageFix" result="effect1_dropShadow_5734_108716"></feBlend><feBlend in="SourceGraphic" in2="effect1_dropShadow_5734_108716" result="shape"></feBlend></filter><filter id="ApiAccessHammerLight_svg__e" width="50.751" height="65.142" x="24.942" y="5.322" color-interpolation-filters="sRGB" filterUnits="userSpaceOnUse"><feFlood flood-opacity="0" result="BackgroundImageFix"></feFlood><feColorMatrix in="SourceAlpha" result="hardAlpha" values="0 0 0 0 0 0 0 0 0 0 0 0 0 0 0 0 0 0 127 0"></feColorMatrix><feOffset></feOffset><feColorMatrix values="0 0 0 0 0 0 0 0 0 0 0 0 0 0 0 0 0 0 0.04 0"></feColorMatrix><feBlend in2="BackgroundImageFix" result="effect1_dropShadow_5734_108716"></feBlend><feColorMatrix in="SourceAlpha" result="hardAlpha" values="0 0 0 0 0 0 0 0 0 0 0 0 0 0 0 0 0 0 127 0"></feColorMatrix><feOffset dy="0.557"></feOffset><feGaussianBlur stdDeviation="0.836"></feGaussianBlur><feColorMatrix values="0 0 0 0 0 0 0 0 0 0 0 0 0 0 0 0 0 0 0.04 0"></feColorMatrix><feBlend in2="effect1_dropShadow_5734_108716" result="effect2_dropShadow_5734_108716"></feBlend><feColorMatrix in="SourceAlpha" result="hardAlpha" values="0 0 0 0 0 0 0 0 0 0 0 0 0 0 0 0 0 0 127 0"></feColorMatrix><feOffset dy="3.343"></feOffset><feGaussianBlur stdDeviation="1.671"></feGaussianBlur><feColorMatrix values="0 0 0 0 0 0 0 0 0 0 0 0 0 0 0 0 0 0 0.04 0"></feColorMatrix><feBlend in2="effect2_dropShadow_5734_108716" result="effect3_dropShadow_5734_108716"></feBlend><feColorMatrix in="SourceAlpha" result="hardAlpha" values="0 0 0 0 0 0 0 0 0 0 0 0 0 0 0 0 0 0 127 0"></feColorMatrix><feOffset dy="7.243"></feOffset><feGaussianBlur stdDeviation="2.229"></feGaussianBlur><feColorMatrix values="0 0 0 0 0 0 0 0 0 0 0 0 0 0 0 0 0 0 0.02 0"></feColorMatrix><feBlend in2="effect3_dropShadow_5734_108716" result="effect4_dropShadow_5734_108716"></feBlend><feColorMatrix in="SourceAlpha" result="hardAlpha" values="0 0 0 0 0 0 0 0 0 0 0 0 0 0 0 0 0 0 127 0"></feColorMatrix><feOffset dy="12.257"></feOffset><feGaussianBlur stdDeviation="2.507"></feGaussianBlur><feColorMatrix values="0 0 0 0 0 0 0 0 0 0 0 0 0 0 0 0 0 0 0.01 0"></feColorMatrix><feBlend in2="effect4_dropShadow_5734_108716" result="effect5_dropShadow_5734_108716"></feBlend><feBlend in="SourceGraphic" in2="effect5_dropShadow_5734_108716" result="shape"></feBlend></filter><filter id="ApiAccessHammerLight_svg__g" width="10.592" height="12.636" x="59.586" y="16.897" color-interpolation-filters="sRGB" filterUnits="userSpaceOnUse"><feFlood flood-opacity="0" result="BackgroundImageFix"></feFlood><feColorMatrix in="SourceAlpha" result="hardAlpha" values="0 0 0 0 0 0 0 0 0 0 0 0 0 0 0 0 0 0 127 0"></feColorMatrix><feOffset dx="-0.836"></feOffset><feGaussianBlur stdDeviation="0.279"></feGaussianBlur><feComposite in2="hardAlpha" operator="out"></feComposite><feColorMatrix values="0 0 0 0 0 0 0 0 0 0 0 0 0 0 0 0 0 0 0.1 0"></feColorMatrix><feBlend in2="BackgroundImageFix" result="effect1_dropShadow_5734_108716"></feBlend><feBlend in="SourceGraphic" in2="effect1_dropShadow_5734_108716" result="shape"></feBlend></filter><filter id="ApiAccessHammerLight_svg__h" width="35.769" height="50.213" x="29.342" y="4.707" color-interpolation-filters="sRGB" filterUnits="userSpaceOnUse"><feFlood flood-opacity="0" result="BackgroundImageFix"></feFlood><feColorMatrix in="SourceAlpha" result="hardAlpha" values="0 0 0 0 0 0 0 0 0 0 0 0 0 0 0 0 0 0 127 0"></feColorMatrix><feOffset dx="1.114"></feOffset><feGaussianBlur stdDeviation="1.114"></feGaussianBlur><feComposite in2="hardAlpha" operator="out"></feComposite><feColorMatrix values="0 0 0 0 0 0 0 0 0 0 0 0 0 0 0 0 0 0 0.1 0"></feColorMatrix><feBlend in2="BackgroundImageFix" result="effect1_dropShadow_5734_108716"></feBlend><feBlend in="SourceGraphic" in2="effect1_dropShadow_5734_108716" result="shape"></feBlend><feColorMatrix in="SourceAlpha" result="hardAlpha" values="0 0 0 0 0 0 0 0 0 0 0 0 0 0 0 0 0 0 127 0"></feColorMatrix><feOffset dx="0.557"></feOffset><feGaussianBlur stdDeviation="0.279"></feGaussianBlur><feComposite in2="hardAlpha" k2="-1" k3="1" operator="arithmetic"></feComposite><feColorMatrix values="0 0 0 0 1 0 0 0 0 1 0 0 0 0 1 0 0 0 0.5 0"></feColorMatrix><feBlend in2="shape" result="effect2_innerShadow_5734_108716"></feBlend><feColorMatrix in="SourceAlpha" result="hardAlpha" values="0 0 0 0 0 0 0 0 0 0 0 0 0 0 0 0 0 0 127 0"></feColorMatrix><feOffset dx="-0.557"></feOffset><feGaussianBlur stdDeviation="0.279"></feGaussianBlur><feComposite in2="hardAlpha" k2="-1" k3="1" operator="arithmetic"></feComposite><feColorMatrix values="0 0 0 0 1 0 0 0 0 1 0 0 0 0 1 0 0 0 0.5 0"></feColorMatrix><feBlend in2="effect2_innerShadow_5734_108716" result="effect3_innerShadow_5734_108716"></feBlend><feColorMatrix in="SourceAlpha" result="hardAlpha" values="0 0 0 0 0 0 0 0 0 0 0 0 0 0 0 0 0 0 127 0"></feColorMatrix><feOffset dy="0.438"></feOffset><feGaussianBlur stdDeviation="0.219"></feGaussianBlur><feComposite in2="hardAlpha" k2="-1" k3="1" operator="arithmetic"></feComposite><feColorMatrix values="0 0 0 0 0 0 0 0 0 0 0 0 0 0 0 0 0 0 0.05 0"></feColorMatrix><feBlend in2="effect3_innerShadow_5734_108716" result="effect4_innerShadow_5734_108716"></feBlend></filter><filter id="ApiAccessHammerLight_svg__j" width="21.196" height="27.296" x="29.798" y="27.148" color-interpolation-filters="sRGB" filterUnits="userSpaceOnUse"><feFlood flood-opacity="0" result="BackgroundImageFix"></feFlood><feColorMatrix in="SourceAlpha" result="hardAlpha" values="0 0 0 0 0 0 0 0 0 0 0 0 0 0 0 0 0 0 127 0"></feColorMatrix><feOffset dx="0.438" dy="-0.438"></feOffset><feGaussianBlur stdDeviation="0.219"></feGaussianBlur><feComposite in2="hardAlpha" operator="out"></feComposite><feColorMatrix values="0 0 0 0 0 0 0 0 0 0 0 0 0 0 0 0 0 0 0.08 0"></feColorMatrix><feBlend in2="BackgroundImageFix" result="effect1_dropShadow_5734_108716"></feBlend><feBlend in="SourceGraphic" in2="effect1_dropShadow_5734_108716" result="shape"></feBlend><feColorMatrix in="SourceAlpha" result="hardAlpha" values="0 0 0 0 0 0 0 0 0 0 0 0 0 0 0 0 0 0 127 0"></feColorMatrix><feOffset dx="-0.657" dy="1.753"></feOffset><feGaussianBlur stdDeviation="1.315"></feGaussianBlur><feComposite in2="hardAlpha" k2="-1" k3="1" operator="arithmetic"></feComposite><feColorMatrix values="0 0 0 0 0 0 0 0 0 0 0 0 0 0 0 0 0 0 0.02 0"></feColorMatrix><feBlend in2="shape" result="effect2_innerShadow_5734_108716"></feBlend><feColorMatrix in="SourceAlpha" result="hardAlpha" values="0 0 0 0 0 0 0 0 0 0 0 0 0 0 0 0 0 0 127 0"></feColorMatrix><feOffset dx="-0.088" dy="0.438"></feOffset><feGaussianBlur stdDeviation="0.219"></feGaussianBlur><feComposite in2="hardAlpha" k2="-1" k3="1" operator="arithmetic"></feComposite><feColorMatrix values="0 0 0 0 1 0 0 0 0 1 0 0 0 0 1 0 0 0 0.5 0"></feColorMatrix><feBlend in2="effect2_innerShadow_5734_108716" result="effect3_innerShadow_5734_108716"></feBlend></filter><filter id="ApiAccessHammerLight_svg__m" width="19.228" height="29.907" x="55.965" y="16.34" color-interpolation-filters="sRGB" filterUnits="userSpaceOnUse"><feFlood flood-opacity="0" result="BackgroundImageFix"></feFlood><feColorMatrix in="SourceAlpha" result="hardAlpha" values="0 0 0 0 0 0 0 0 0 0 0 0 0 0 0 0 0 0 127 0"></feColorMatrix><feOffset></feOffset><feColorMatrix values="0 0 0 0 0 0 0 0 0 0 0 0 0 0 0 0 0 0 0.04 0"></feColorMatrix><feBlend in2="BackgroundImageFix" result="effect1_dropShadow_5734_108716"></feBlend><feColorMatrix in="SourceAlpha" result="hardAlpha" values="0 0 0 0 0 0 0 0 0 0 0 0 0 0 0 0 0 0 127 0"></feColorMatrix><feOffset dy="0.557"></feOffset><feGaussianBlur stdDeviation="0.836"></feGaussianBlur><feColorMatrix values="0 0 0 0 0 0 0 0 0 0 0 0 0 0 0 0 0 0 0.04 0"></feColorMatrix><feBlend in2="effect1_dropShadow_5734_108716" result="effect2_dropShadow_5734_108716"></feBlend><feColorMatrix in="SourceAlpha" result="hardAlpha" values="0 0 0 0 0 0 0 0 0 0 0 0 0 0 0 0 0 0 127 0"></feColorMatrix><feOffset dy="3.343"></feOffset><feGaussianBlur stdDeviation="1.671"></feGaussianBlur><feColorMatrix values="0 0 0 0 0 0 0 0 0 0 0 0 0 0 0 0 0 0 0.04 0"></feColorMatrix><feBlend in2="effect2_dropShadow_5734_108716" result="effect3_dropShadow_5734_108716"></feBlend><feColorMatrix in="SourceAlpha" result="hardAlpha" values="0 0 0 0 0 0 0 0 0 0 0 0 0 0 0 0 0 0 127 0"></feColorMatrix><feOffset dy="7.243"></feOffset><feGaussianBlur stdDeviation="2.229"></feGaussianBlur><feColorMatrix values="0 0 0 0 0 0 0 0 0 0 0 0 0 0 0 0 0 0 0.02 0"></feColorMatrix><feBlend in2="effect3_dropShadow_5734_108716" result="effect4_dropShadow_5734_108716"></feBlend><feColorMatrix in="SourceAlpha" result="hardAlpha" values="0 0 0 0 0 0 0 0 0 0 0 0 0 0 0 0 0 0 127 0"></feColorMatrix><feOffset dy="12.257"></feOffset><feGaussianBlur stdDeviation="2.507"></feGaussianBlur><feColorMatrix values="0 0 0 0 0 0 0 0 0 0 0 0 0 0 0 0 0 0 0.01 0"></feColorMatrix><feBlend in2="effect4_dropShadow_5734_108716" result="effect5_dropShadow_5734_108716"></feBlend><feBlend in="SourceGraphic" in2="effect5_dropShadow_5734_108716" result="shape"></feBlend><feColorMatrix in="SourceAlpha" result="hardAlpha" values="0 0 0 0 0 0 0 0 0 0 0 0 0 0 0 0 0 0 127 0"></feColorMatrix><feOffset dx="0.557"></feOffset><feGaussianBlur stdDeviation="0.279"></feGaussianBlur><feComposite in2="hardAlpha" k2="-1" k3="1" operator="arithmetic"></feComposite><feColorMatrix values="0 0 0 0 1 0 0 0 0 1 0 0 0 0 1 0 0 0 0.5 0"></feColorMatrix><feBlend in2="shape" result="effect6_innerShadow_5734_108716"></feBlend><feColorMatrix in="SourceAlpha" result="hardAlpha" values="0 0 0 0 0 0 0 0 0 0 0 0 0 0 0 0 0 0 127 0"></feColorMatrix><feOffset dx="-0.557"></feOffset><feGaussianBlur stdDeviation="0.279"></feGaussianBlur><feComposite in2="hardAlpha" k2="-1" k3="1" operator="arithmetic"></feComposite><feColorMatrix values="0 0 0 0 1 0 0 0 0 1 0 0 0 0 1 0 0 0 0.5 0"></feColorMatrix><feBlend in2="effect6_innerShadow_5734_108716" result="effect7_innerShadow_5734_108716"></feBlend></filter><linearGradient id="ApiAccessHammerLight_svg__b" x1="30.791" x2="30.791" y1="2.333" y2="47.915" gradientUnits="userSpaceOnUse"><stop stop-color="#F0F0F0"></stop><stop offset="1" stop-color="#fff"></stop></linearGradient><linearGradient id="ApiAccessHammerLight_svg__i" x1="53.291" x2="40.477" y1="8.462" y2="30.656" gradientUnits="userSpaceOnUse"><stop stop-color="#fff"></stop><stop offset="0.299" stop-color="#F8F8F8"></stop><stop offset="0.399" stop-color="#D6D6D6"></stop><stop offset="0.552" stop-color="#E0E0E0"></stop><stop offset="0.676" stop-color="#ECECEC"></stop><stop offset="0.999" stop-color="#fff"></stop></linearGradient><linearGradient id="ApiAccessHammerLight_svg__k" x1="46.769" x2="34.791" y1="29.786" y2="50.533" gradientUnits="userSpaceOnUse"><stop stop-color="#fff"></stop><stop offset="1" stop-color="#E6E6E6"></stop></linearGradient><linearGradient id="ApiAccessHammerLight_svg__l" x1="68.158" x2="62.603" y1="18.331" y2="27.99" gradientUnits="userSpaceOnUse"><stop stop-color="#fff"></stop><stop offset="0.369" stop-color="#F8F8F8"></stop><stop offset="0.455" stop-color="#DCDCDC"></stop><stop offset="0.552" stop-color="#E0E0E0"></stop><stop offset="0.895" stop-color="#F3F3F3"></stop><stop offset="1" stop-color="#E3E3E3"></stop></linearGradient><linearGradient id="ApiAccessHammerLight_svg__n" x1="68.158" x2="62.603" y1="18.331" y2="27.99" gradientUnits="userSpaceOnUse"><stop stop-color="#fff"></stop><stop offset="0.369" stop-color="#F8F8F8"></stop><stop offset="0.455" stop-color="#DCDCDC"></stop><stop offset="0.552" stop-color="#E0E0E0"></stop><stop offset="0.895" stop-color="#F3F3F3"></stop><stop offset="1" stop-color="#E3E3E3"></stop></linearGradient></defs></svg>