<svg xmlns="http://www.w3.org/2000/svg" viewBox="0 0 66 69"><path fill="currentColor" d="M20.188 55.313c-7.313-4.157-12.47-12.407-12.47-21.876 0-14.03 11.22-25.312 25.282-25.312 14.031 0 25.344 11.281 25.344 25.313 0 2.312 1.781 3.78 3.75 3.78 1.906 0 3.562-1.5 3.562-3.78C65.656 15.53 50.875.78 33 .78 15.094.781.344 15.531.344 33.438c0 12.312 7 23.093 16.218 28.187 4.563 2.531 8.094-3.687 3.625-6.312m26.28 12.937 3.25-1.25c1.032-.406 1.094-1.5.75-2.219l-5.374-12.406 6.343-.094c1.563 0 2.313-1.562 1.22-2.718L35.03 31.625c-1.031-1.062-2.593-.437-2.625 1.031l-.375 25.438c-.031 1.593 1.813 2.187 2.844 1.062l4.344-4.5 5.031 12.532c.375.874 1.188 1.437 2.219 1.062"></path></svg>