<svg xmlns="http://www.w3.org/2000/svg" width="72" height="99" fill="none"><g filter="url(#CustomizableThemesLight_svg__a)"><rect width="48" height="48" x="16" y="1" fill="#fff" rx="7.245"></rect></g><g filter="url(#CustomizableThemesLight_svg__b)"><rect width="38.943" height="38.943" x="20.528" y="5.528" fill="url(#CustomizableThemesLight_svg__c)" rx="2.717"></rect><rect width="38.943" height="38.943" x="20.528" y="5.528" fill="url(#CustomizableThemesLight_svg__d)" rx="2.717"></rect></g><path fill="#F31A7C" fill-rule="evenodd" d="M56.091 8.909a2.264 2.264 0 0 1 0 3.202l-28.98 28.98a2.264 2.264 0 0 1-3.203-3.201L52.89 8.909a2.264 2.264 0 0 1 3.202 0m0 10.783a2.264 2.264 0 0 1 0 3.202L37.893 41.092a2.264 2.264 0 1 1-3.202-3.202L52.89 19.693a2.264 2.264 0 0 1 3.202 0m-10.783-7.581a2.264 2.264 0 1 0-3.202-3.202L23.908 27.106a2.264 2.264 0 0 0 3.202 3.202zM34.524 8.909a2.264 2.264 0 0 1 0 3.202l-7.414 7.413a2.264 2.264 0 0 1-3.202-3.202l7.414-7.413a2.264 2.264 0 0 1 3.202 0M56.09 33.678a2.264 2.264 0 0 0-3.202-3.202l-7.414 7.413a2.264 2.264 0 1 0 3.202 3.202z" clip-rule="evenodd"></path><path fill="url(#CustomizableThemesLight_svg__e)" d="m56.091 12.11-.16-.16zm0-3.201-.16.16zm-28.98 32.183-.16-.16zm-3.203 0 .16-.16zm0-3.202.16.16zM52.89 8.909l.16.16zm3.202 13.985.16.16zm0-3.201.16-.16zM37.893 41.092l.16.16zm-3.202 0-.16.16zm0-3.202-.16-.16zM52.89 19.693l-.16-.16zM45.308 8.908l.16-.16zm0 3.202.16.16zm-3.202-3.202-.16-.16zM23.908 27.106l-.16-.16zm0 3.202-.16.16zm3.202 0 .16.16zm7.414-18.197-.16-.16zm0-3.202-.16.16zM27.11 19.524l-.16-.16zm-3.202 0 .16-.16zm0-3.202.16.16zm7.414-7.413.16.16zM56.09 30.475l-.16.16zm0 3.203-.16-.16zM45.474 41.09l.16-.16zm3.202 0-.16-.16zm7.575-28.82a2.49 2.49 0 0 0 0-3.522l-.32.32a2.04 2.04 0 0 1 0 2.881zm-28.98 28.98 28.98-28.98-.32-.32-28.98 28.98zm-3.523 0a2.49 2.49 0 0 0 3.522 0l-.32-.32a2.04 2.04 0 0 1-2.882 0zm0-3.521a2.49 2.49 0 0 0 0 3.522l.32-.32a2.04 2.04 0 0 1 0-2.882zM52.73 8.749l-28.98 28.98.32.32 28.98-28.98zm3.523 0a2.49 2.49 0 0 0-3.523 0l.32.32a2.04 2.04 0 0 1 2.882 0zm-.001 14.306a2.49 2.49 0 0 0 0-3.523l-.32.32a2.04 2.04 0 0 1 0 2.882zM38.053 41.252l18.198-18.197-.32-.32-18.198 18.197zm-3.522 0a2.49 2.49 0 0 0 3.522 0l-.32-.32a2.04 2.04 0 0 1-2.881 0zm0-3.522a2.49 2.49 0 0 0 0 3.522l.32-.32a2.04 2.04 0 0 1 0-2.882zM52.73 19.532 34.53 37.73l.32.32L53.05 19.853zm3.522 0a2.49 2.49 0 0 0-3.522 0l.32.32a2.04 2.04 0 0 1 2.882 0zM45.148 9.07a2.04 2.04 0 0 1 0 2.881l.32.32a2.49 2.49 0 0 0 0-3.521zm-2.882 0a2.04 2.04 0 0 1 2.882 0l.32-.32a2.49 2.49 0 0 0-3.522 0zM24.068 27.266 42.266 9.07l-.32-.32-18.198 18.197zm0 2.882a2.04 2.04 0 0 1 0-2.882l-.32-.32a2.49 2.49 0 0 0 0 3.522zm2.882 0a2.04 2.04 0 0 1-2.882 0l-.32.32a2.49 2.49 0 0 0 3.522 0zm18.198-18.197L26.95 30.148l.32.32 18.198-18.197zm-10.464.32a2.49 2.49 0 0 0 0-3.522l-.32.32a2.04 2.04 0 0 1 0 2.881zm-7.414 7.413 7.414-7.413-.32-.32-7.414 7.413zm-3.522 0a2.49 2.49 0 0 0 3.522 0l-.32-.32a2.04 2.04 0 0 1-2.882 0zm0-3.522a2.49 2.49 0 0 0 0 3.523l.32-.32a2.04 2.04 0 0 1 0-2.882zm7.414-7.413-7.414 7.413.32.32 7.414-7.413zm3.522 0a2.49 2.49 0 0 0-3.522 0l.32.32a2.04 2.04 0 0 1 2.882 0zM55.93 30.636a2.04 2.04 0 0 1 0 2.881l.32.32a2.49 2.49 0 0 0 0-3.522zm-2.882 0a2.04 2.04 0 0 1 2.882 0l.32-.32a2.49 2.49 0 0 0-3.522 0zm-7.414 7.413 7.414-7.413-.32-.32-7.414 7.413zm0 2.882a2.04 2.04 0 0 1 0-2.882l-.32-.32a2.49 2.49 0 0 0 0 3.522zm2.882 0a2.04 2.04 0 0 1-2.882 0l-.32.32a2.49 2.49 0 0 0 3.522 0zm7.414-7.414-7.414 7.414.32.32 7.414-7.413z"></path><path fill="url(#CustomizableThemesLight_svg__f)" d="M59.021 35.535c.802.27.45 4.635.45 8.937h-5.594c-4.364 0-2.73-5.382-1.876-7.02.77-1.476 6.703-2.024 7.02-1.917"></path><g filter="url(#CustomizableThemesLight_svg__g)"><path fill="url(#CustomizableThemesLight_svg__h)" d="m14.439 40.676 31.068 14.655a2.72 2.72 0 0 0 3.598-1.255c2.531-5.128 6.48-13.078 8.329-16.623.77-1.477 1.268-2.025 1.585-1.918-12.227-2.833-37.087-8.588-38.717-8.95-2.038-.453-2.038.679-2.943 2.264-.56.979-2.595 4.99-4.188 8.157a2.71 2.71 0 0 0 1.268 3.67"></path><path fill="url(#CustomizableThemesLight_svg__i)" d="m14.439 40.676 31.068 14.655a2.72 2.72 0 0 0 3.598-1.255c2.531-5.128 6.48-13.078 8.329-16.623.77-1.477 1.268-2.025 1.585-1.918-12.227-2.833-37.087-8.588-38.717-8.95-2.038-.453-2.038.679-2.943 2.264-.56.979-2.595 4.99-4.188 8.157a2.71 2.71 0 0 0 1.268 3.67"></path><path stroke="url(#CustomizableThemesLight_svg__j)" stroke-width="0.226" d="m58.993 35.645.062-.218a.4.4 0 0 0-.062-.014c-12.244-2.837-37.038-8.577-38.666-8.939-.518-.115-.919-.132-1.242-.06a1.37 1.37 0 0 0-.765.464c-.194.225-.349.513-.508.834l-.106.217c-.13.267-.27.556-.446.864-.561.982-2.598 4.997-4.19 8.163a2.824 2.824 0 0 0 1.32 3.823L45.46 55.433a2.83 2.83 0 0 0 3.748-1.307c2.53-5.128 6.478-13.077 8.327-16.62.385-.737.697-1.234.949-1.533.126-.15.232-.243.32-.293.066-.038.114-.048.15-.044z"></path></g><defs><linearGradient id="CustomizableThemesLight_svg__c" x1="40" x2="40.679" y1="5.528" y2="33.151" gradientUnits="userSpaceOnUse"><stop stop-color="#F5F5F5"></stop><stop offset="1" stop-color="#ECECEC"></stop></linearGradient><linearGradient id="CustomizableThemesLight_svg__d" x1="38.415" x2="40.679" y1="31.793" y2="21.83" gradientUnits="userSpaceOnUse"><stop stop-opacity="0.79"></stop><stop offset="0.136" stop-opacity="0.12"></stop><stop offset="1" stop-opacity="0"></stop></linearGradient><linearGradient id="CustomizableThemesLight_svg__e" x1="40" x2="40" y1="8.245" y2="41.755" gradientUnits="userSpaceOnUse"><stop stop-color="#fff"></stop><stop offset="1" stop-color="#ECECEC"></stop></linearGradient><linearGradient id="CustomizableThemesLight_svg__f" x1="56.302" x2="57.887" y1="37.679" y2="44.472" gradientUnits="userSpaceOnUse"><stop stop-color="#D3D3D3"></stop><stop offset="1" stop-color="#F5F5F5"></stop></linearGradient><linearGradient id="CustomizableThemesLight_svg__h" x1="38.868" x2="34.718" y1="30.66" y2="46.349" gradientUnits="userSpaceOnUse"><stop stop-color="#fff"></stop><stop offset="0.217" stop-color="#E9E9E9"></stop><stop offset="1" stop-color="#fff"></stop></linearGradient><linearGradient id="CustomizableThemesLight_svg__i" x1="33.208" x2="52.453" y1="24.773" y2="46.509" gradientUnits="userSpaceOnUse"><stop stop-color="#E9E9E9" stop-opacity="0"></stop><stop offset="1" stop-color="#fff"></stop></linearGradient><linearGradient id="CustomizableThemesLight_svg__j" x1="40.679" x2="32.981" y1="35.189" y2="50.358" gradientUnits="userSpaceOnUse"><stop stop-opacity="0"></stop><stop offset="1" stop-opacity="0.03"></stop></linearGradient><filter id="CustomizableThemesLight_svg__a" width="56.151" height="62.943" x="11.925" y="0.094" color-interpolation-filters="sRGB" filterUnits="userSpaceOnUse"><feFlood flood-opacity="0" result="BackgroundImageFix"></feFlood><feColorMatrix in="SourceAlpha" result="hardAlpha" values="0 0 0 0 0 0 0 0 0 0 0 0 0 0 0 0 0 0 127 0"></feColorMatrix><feOffset></feOffset><feColorMatrix values="0 0 0 0 0 0 0 0 0 0 0 0 0 0 0 0 0 0 0.04 0"></feColorMatrix><feBlend in2="BackgroundImageFix" result="effect1_dropShadow_5734_108646"></feBlend><feColorMatrix in="SourceAlpha" result="hardAlpha" values="0 0 0 0 0 0 0 0 0 0 0 0 0 0 0 0 0 0 127 0"></feColorMatrix><feOffset dy="0.453"></feOffset><feGaussianBlur stdDeviation="0.679"></feGaussianBlur><feColorMatrix values="0 0 0 0 0 0 0 0 0 0 0 0 0 0 0 0 0 0 0.04 0"></feColorMatrix><feBlend in2="effect1_dropShadow_5734_108646" result="effect2_dropShadow_5734_108646"></feBlend><feColorMatrix in="SourceAlpha" result="hardAlpha" values="0 0 0 0 0 0 0 0 0 0 0 0 0 0 0 0 0 0 127 0"></feColorMatrix><feOffset dy="2.717"></feOffset><feGaussianBlur stdDeviation="1.358"></feGaussianBlur><feColorMatrix values="0 0 0 0 0 0 0 0 0 0 0 0 0 0 0 0 0 0 0.04 0"></feColorMatrix><feBlend in2="effect2_dropShadow_5734_108646" result="effect3_dropShadow_5734_108646"></feBlend><feColorMatrix in="SourceAlpha" result="hardAlpha" values="0 0 0 0 0 0 0 0 0 0 0 0 0 0 0 0 0 0 127 0"></feColorMatrix><feOffset dy="5.887"></feOffset><feGaussianBlur stdDeviation="1.811"></feGaussianBlur><feColorMatrix values="0 0 0 0 0 0 0 0 0 0 0 0 0 0 0 0 0 0 0.02 0"></feColorMatrix><feBlend in2="effect3_dropShadow_5734_108646" result="effect4_dropShadow_5734_108646"></feBlend><feColorMatrix in="SourceAlpha" result="hardAlpha" values="0 0 0 0 0 0 0 0 0 0 0 0 0 0 0 0 0 0 127 0"></feColorMatrix><feOffset dy="9.962"></feOffset><feGaussianBlur stdDeviation="2.038"></feGaussianBlur><feColorMatrix values="0 0 0 0 0 0 0 0 0 0 0 0 0 0 0 0 0 0 0.01 0"></feColorMatrix><feBlend in2="effect4_dropShadow_5734_108646" result="effect5_dropShadow_5734_108646"></feBlend><feColorMatrix in="SourceAlpha" result="hardAlpha" values="0 0 0 0 0 0 0 0 0 0 0 0 0 0 0 0 0 0 127 0"></feColorMatrix><feMorphology in="SourceAlpha" operator="dilate" radius="0.5" result="effect6_dropShadow_5734_108646"></feMorphology><feOffset></feOffset><feComposite in2="hardAlpha" operator="out"></feComposite><feColorMatrix values="0 0 0 0 0 0 0 0 0 0 0 0 0 0 0 0 0 0 0.05 0"></feColorMatrix><feBlend in2="effect5_dropShadow_5734_108646" result="effect6_dropShadow_5734_108646"></feBlend><feBlend in="SourceGraphic" in2="effect6_dropShadow_5734_108646" result="shape"></feBlend></filter><filter id="CustomizableThemesLight_svg__b" width="38.943" height="39.396" x="20.528" y="5.528" color-interpolation-filters="sRGB" filterUnits="userSpaceOnUse"><feFlood flood-opacity="0" result="BackgroundImageFix"></feFlood><feBlend in="SourceGraphic" in2="BackgroundImageFix" result="shape"></feBlend><feColorMatrix in="SourceAlpha" result="hardAlpha" values="0 0 0 0 0 0 0 0 0 0 0 0 0 0 0 0 0 0 127 0"></feColorMatrix><feOffset dy="0.453"></feOffset><feGaussianBlur stdDeviation="0.906"></feGaussianBlur><feComposite in2="hardAlpha" k2="-1" k3="1" operator="arithmetic"></feComposite><feColorMatrix values="0 0 0 0 0 0 0 0 0 0 0 0 0 0 0 0 0 0 0.05 0"></feColorMatrix><feBlend in2="shape" result="effect1_innerShadow_5734_108646"></feBlend></filter><filter id="CustomizableThemesLight_svg__g" width="70.889" height="74.391" x="0.428" y="23.993" color-interpolation-filters="sRGB" filterUnits="userSpaceOnUse"><feFlood flood-opacity="0" result="BackgroundImageFix"></feFlood><feColorMatrix in="SourceAlpha" result="hardAlpha" values="0 0 0 0 0 0 0 0 0 0 0 0 0 0 0 0 0 0 127 0"></feColorMatrix><feOffset></feOffset><feColorMatrix values="0 0 0 0 0 0 0 0 0 0 0 0 0 0 0 0 0 0 0.05 0"></feColorMatrix><feBlend in2="BackgroundImageFix" result="effect1_dropShadow_5734_108646"></feBlend><feColorMatrix in="SourceAlpha" result="hardAlpha" values="0 0 0 0 0 0 0 0 0 0 0 0 0 0 0 0 0 0 127 0"></feColorMatrix><feOffset dy="1.811"></feOffset><feGaussianBlur stdDeviation="2.038"></feGaussianBlur><feColorMatrix values="0 0 0 0 0 0 0 0 0 0 0 0 0 0 0 0 0 0 0.05 0"></feColorMatrix><feBlend in2="effect1_dropShadow_5734_108646" result="effect2_dropShadow_5734_108646"></feBlend><feColorMatrix in="SourceAlpha" result="hardAlpha" values="0 0 0 0 0 0 0 0 0 0 0 0 0 0 0 0 0 0 127 0"></feColorMatrix><feOffset dy="7.698"></feOffset><feGaussianBlur stdDeviation="3.849"></feGaussianBlur><feColorMatrix values="0 0 0 0 0 0 0 0 0 0 0 0 0 0 0 0 0 0 0.04 0"></feColorMatrix><feBlend in2="effect2_dropShadow_5734_108646" result="effect3_dropShadow_5734_108646"></feBlend><feColorMatrix in="SourceAlpha" result="hardAlpha" values="0 0 0 0 0 0 0 0 0 0 0 0 0 0 0 0 0 0 127 0"></feColorMatrix><feOffset dy="16.755"></feOffset><feGaussianBlur stdDeviation="4.981"></feGaussianBlur><feColorMatrix values="0 0 0 0 0 0 0 0 0 0 0 0 0 0 0 0 0 0 0.02 0"></feColorMatrix><feBlend in2="effect3_dropShadow_5734_108646" result="effect4_dropShadow_5734_108646"></feBlend><feColorMatrix in="SourceAlpha" result="hardAlpha" values="0 0 0 0 0 0 0 0 0 0 0 0 0 0 0 0 0 0 127 0"></feColorMatrix><feOffset dy="30.34"></feOffset><feGaussianBlur stdDeviation="6.113"></feGaussianBlur><feColorMatrix values="0 0 0 0 0 0 0 0 0 0 0 0 0 0 0 0 0 0 0.01 0"></feColorMatrix><feBlend in2="effect4_dropShadow_5734_108646" result="effect5_dropShadow_5734_108646"></feBlend><feBlend in="SourceGraphic" in2="effect5_dropShadow_5734_108646" result="shape"></feBlend></filter></defs></svg>