<svg xmlns="http://www.w3.org/2000/svg" width="73" height="101" fill="none"><g filter="url(#CustomizableThemesDark_svg__a)"><rect width="48" height="48" x="16" y="3" fill="url(#CustomizableThemesDark_svg__b)" rx="7.245"></rect><rect width="48.453" height="48.453" x="15.774" y="2.774" stroke="#000" stroke-opacity="0.1" stroke-width="0.453" rx="7.472"></rect></g><g filter="url(#CustomizableThemesDark_svg__c)"><rect width="38.943" height="38.943" x="20.528" y="7.528" fill="url(#CustomizableThemesDark_svg__d)" rx="2.717"></rect><rect width="38.943" height="38.943" x="20.528" y="7.528" fill="url(#CustomizableThemesDark_svg__e)" rx="2.717"></rect></g><path fill="#e6658a" fill-rule="evenodd" d="M56.091 10.909a2.264 2.264 0 0 1 0 3.202l-28.98 28.98a2.264 2.264 0 0 1-3.203-3.201L52.89 10.909a2.264 2.264 0 0 1 3.202 0m0 10.784a2.264 2.264 0 0 1 0 3.202L37.893 43.092a2.264 2.264 0 1 1-3.202-3.202L52.89 21.693a2.264 2.264 0 0 1 3.202 0M45.308 14.11a2.264 2.264 0 0 0-3.202-3.202L23.908 29.106a2.264 2.264 0 0 0 3.202 3.202zm-10.784-3.202a2.264 2.264 0 0 1 0 3.202l-7.414 7.413a2.264 2.264 0 0 1-3.202-3.201l7.414-7.414a2.264 2.264 0 0 1 3.202 0M56.09 35.678a2.264 2.264 0 1 0-3.202-3.202l-7.414 7.413a2.264 2.264 0 1 0 3.202 3.202z" clip-rule="evenodd"></path><path fill="url(#CustomizableThemesDark_svg__f)" d="m56.091 14.11-.16-.16zm0-3.201-.16.16zm-28.98 32.183-.16-.16zm-3.203 0 .16-.16zm0-3.202.16.16zM52.89 10.909l.16.16zm3.202 13.986.16.16zm0-3.202.16-.16zM37.893 43.092l.16.16zm-3.202 0-.16.16zm0-3.202-.16-.16zM52.89 21.693l-.16-.16zm-7.581-10.784.16-.16zm0 3.202.16.16zm-3.202-3.202-.16-.16zM23.908 29.106l-.16-.16zm0 3.202-.16.16zm3.202 0 .16.16zm7.414-18.197-.16-.16zm0-3.202-.16.16zM27.11 21.524l-.16-.16zm-3.202 0 .16-.16zm0-3.201.16.16zm7.414-7.414.16.16zM56.09 32.476l-.16.16zm0 3.202-.16-.16zM45.474 43.09l.16-.16zm3.202 0-.16-.16zm7.575-28.82a2.49 2.49 0 0 0 0-3.522l-.32.32a2.04 2.04 0 0 1 0 2.882zm-28.98 28.981 28.98-28.981-.32-.32-28.98 28.98zm-3.523 0a2.49 2.49 0 0 0 3.522 0l-.32-.32a2.04 2.04 0 0 1-2.882 0zm0-3.522a2.49 2.49 0 0 0 0 3.522l.32-.32a2.04 2.04 0 0 1 0-2.882zM52.73 10.749l-28.98 28.98.32.321 28.98-28.981zm3.523 0a2.49 2.49 0 0 0-3.523 0l.32.32a2.04 2.04 0 0 1 2.882 0zm-.001 14.306a2.49 2.49 0 0 0 0-3.523l-.32.32a2.04 2.04 0 0 1 0 2.883zM38.053 43.252l18.198-18.197-.32-.32-18.198 18.197zm-3.522 0a2.49 2.49 0 0 0 3.522 0l-.32-.32a2.04 2.04 0 0 1-2.881 0zm0-3.522a2.49 2.49 0 0 0 0 3.522l.32-.32a2.04 2.04 0 0 1 0-2.882zM52.73 21.533 34.53 39.73l.32.32L53.05 21.853zm3.522 0a2.49 2.49 0 0 0-3.522 0l.32.32a2.04 2.04 0 0 1 2.882 0zM45.148 11.068a2.04 2.04 0 0 1 0 2.882l.32.32a2.49 2.49 0 0 0 0-3.522zm-2.882 0a2.04 2.04 0 0 1 2.882 0l.32-.32a2.49 2.49 0 0 0-3.522 0zM24.068 29.266 42.266 11.07l-.32-.32-18.198 18.197zm0 2.882a2.04 2.04 0 0 1 0-2.882l-.32-.32a2.49 2.49 0 0 0 0 3.522zm2.882 0a2.04 2.04 0 0 1-2.882 0l-.32.32a2.49 2.49 0 0 0 3.522 0zm18.198-18.197L26.95 32.148l.32.32 18.198-18.197zm-10.464.32a2.49 2.49 0 0 0 0-3.522l-.32.32a2.04 2.04 0 0 1 0 2.882zm-7.414 7.414 7.414-7.414-.32-.32-7.414 7.413zm-3.522 0a2.49 2.49 0 0 0 3.522 0l-.32-.32a2.04 2.04 0 0 1-2.882 0zm0-3.523a2.49 2.49 0 0 0 0 3.523l.32-.32a2.04 2.04 0 0 1 0-2.882zm7.414-7.413-7.414 7.413.32.32 7.414-7.413zm3.522 0a2.49 2.49 0 0 0-3.522 0l.32.32a2.04 2.04 0 0 1 2.882 0zM55.93 32.636a2.04 2.04 0 0 1 0 2.881l.32.32a2.49 2.49 0 0 0 0-3.521zm-2.882 0a2.04 2.04 0 0 1 2.882 0l.32-.32a2.49 2.49 0 0 0-3.522 0zm-7.414 7.413 7.414-7.413-.32-.32-7.414 7.413zm0 2.882a2.04 2.04 0 0 1 0-2.881l-.32-.32a2.49 2.49 0 0 0 0 3.522zm2.882 0a2.04 2.04 0 0 1-2.882 0l-.32.32a2.49 2.49 0 0 0 3.522 0zm7.414-7.413-7.414 7.413.32.32 7.414-7.413z"></path><path fill="url(#CustomizableThemesDark_svg__g)" d="M59.021 37.535c.631.212.548 2.961.484 6.22-.03 1.5-1.25 2.717-2.75 2.717h-2.878c-4.364 0-2.73-5.382-1.876-7.02.77-1.476 6.703-2.024 7.02-1.917"></path><g filter="url(#CustomizableThemesDark_svg__h)"><path fill="url(#CustomizableThemesDark_svg__i)" d="m14.439 42.676 31.068 14.655a2.72 2.72 0 0 0 3.598-1.255c2.531-5.128 6.48-13.078 8.329-16.623.77-1.477 1.268-2.025 1.585-1.918-12.227-2.833-37.087-8.588-38.717-8.95-2.038-.453-2.038.679-2.943 2.264-.56.979-2.595 4.99-4.188 8.157a2.71 2.71 0 0 0 1.268 3.67"></path><path fill="url(#CustomizableThemesDark_svg__j)" fill-opacity="0.2" d="m14.439 42.676 31.068 14.655a2.72 2.72 0 0 0 3.598-1.255c2.531-5.128 6.48-13.078 8.329-16.623.77-1.477 1.268-2.025 1.585-1.918-12.227-2.833-37.087-8.588-38.717-8.95-2.038-.453-2.038.679-2.943 2.264-.56.979-2.595 4.99-4.188 8.157a2.71 2.71 0 0 0 1.268 3.67"></path><path stroke="url(#CustomizableThemesDark_svg__k)" stroke-width="0.226" d="m58.993 37.645.062-.218a.4.4 0 0 0-.062-.015c-12.244-2.836-37.038-8.576-38.666-8.938-.518-.115-.919-.132-1.242-.06a1.37 1.37 0 0 0-.765.464c-.194.225-.349.513-.508.834l-.106.217c-.13.267-.27.556-.446.864-.561.982-2.598 4.997-4.19 8.162a2.824 2.824 0 0 0 1.32 3.824L45.46 57.433a2.83 2.83 0 0 0 3.748-1.307c2.53-5.128 6.478-13.077 8.327-16.62.385-.737.697-1.234.949-1.533.126-.15.232-.243.32-.293.066-.038.114-.048.15-.044z"></path></g><defs><linearGradient id="CustomizableThemesDark_svg__b" x1="40" x2="40" y1="3" y2="51" gradientUnits="userSpaceOnUse"><stop stop-color="#4B4B4B"></stop><stop offset="1" stop-color="#303030"></stop></linearGradient><linearGradient id="CustomizableThemesDark_svg__d" x1="40" x2="40.679" y1="7.528" y2="35.151" gradientUnits="userSpaceOnUse"><stop stop-color="#121212"></stop><stop offset="1" stop-color="#2C2C2C"></stop></linearGradient><linearGradient id="CustomizableThemesDark_svg__e" x1="38.415" x2="40.679" y1="33.792" y2="23.83" gradientUnits="userSpaceOnUse"><stop stop-opacity="0.79"></stop><stop offset="0.136" stop-opacity="0.12"></stop><stop offset="1" stop-opacity="0"></stop></linearGradient><linearGradient id="CustomizableThemesDark_svg__f" x1="40" x2="40" y1="10.246" y2="43.755" gradientUnits="userSpaceOnUse"><stop stop-color="#6D6D6D"></stop><stop offset="1" stop-color="#373737"></stop></linearGradient><linearGradient id="CustomizableThemesDark_svg__g" x1="56.302" x2="57.887" y1="39.679" y2="46.472" gradientUnits="userSpaceOnUse"><stop></stop><stop offset="1" stop-color="#3E3E3E"></stop></linearGradient><linearGradient id="CustomizableThemesDark_svg__i" x1="38.868" x2="34.718" y1="32.66" y2="48.348" gradientUnits="userSpaceOnUse"><stop stop-color="#352D32"></stop><stop offset="0.217" stop-color="#5F5F5F"></stop><stop offset="1" stop-color="#3C3C3C"></stop></linearGradient><linearGradient id="CustomizableThemesDark_svg__j" x1="29.5" x2="52.453" y1="18" y2="48.509" gradientUnits="userSpaceOnUse"><stop stop-opacity="0"></stop><stop offset="1" stop-color="#858585"></stop></linearGradient><linearGradient id="CustomizableThemesDark_svg__k" x1="48.5" x2="39.5" y1="25.5" y2="55.5" gradientUnits="userSpaceOnUse"><stop stop-opacity="0"></stop><stop offset="1" stop-opacity="0.31"></stop></linearGradient><filter id="CustomizableThemesDark_svg__a" width="64.906" height="78.906" x="7.547" y="0.547" color-interpolation-filters="sRGB" filterUnits="userSpaceOnUse"><feFlood flood-opacity="0" result="BackgroundImageFix"></feFlood><feColorMatrix in="SourceAlpha" result="hardAlpha" values="0 0 0 0 0 0 0 0 0 0 0 0 0 0 0 0 0 0 127 0"></feColorMatrix><feOffset></feOffset><feColorMatrix values="0 0 0 0 0 0 0 0 0 0 0 0 0 0 0 0 0 0 0.1 0"></feColorMatrix><feBlend in2="BackgroundImageFix" result="effect1_dropShadow_5782_105165"></feBlend><feColorMatrix in="SourceAlpha" result="hardAlpha" values="0 0 0 0 0 0 0 0 0 0 0 0 0 0 0 0 0 0 127 0"></feColorMatrix><feOffset dy="1"></feOffset><feGaussianBlur stdDeviation="1.5"></feGaussianBlur><feColorMatrix values="0 0 0 0 0 0 0 0 0 0 0 0 0 0 0 0 0 0 0.1 0"></feColorMatrix><feBlend in2="effect1_dropShadow_5782_105165" result="effect2_dropShadow_5782_105165"></feBlend><feColorMatrix in="SourceAlpha" result="hardAlpha" values="0 0 0 0 0 0 0 0 0 0 0 0 0 0 0 0 0 0 127 0"></feColorMatrix><feOffset dy="5"></feOffset><feGaussianBlur stdDeviation="2.5"></feGaussianBlur><feColorMatrix values="0 0 0 0 0 0 0 0 0 0 0 0 0 0 0 0 0 0 0.09 0"></feColorMatrix><feBlend in2="effect2_dropShadow_5782_105165" result="effect3_dropShadow_5782_105165"></feBlend><feColorMatrix in="SourceAlpha" result="hardAlpha" values="0 0 0 0 0 0 0 0 0 0 0 0 0 0 0 0 0 0 127 0"></feColorMatrix><feOffset dy="11"></feOffset><feGaussianBlur stdDeviation="3.5"></feGaussianBlur><feColorMatrix values="0 0 0 0 0 0 0 0 0 0 0 0 0 0 0 0 0 0 0.05 0"></feColorMatrix><feBlend in2="effect3_dropShadow_5782_105165" result="effect4_dropShadow_5782_105165"></feBlend><feColorMatrix in="SourceAlpha" result="hardAlpha" values="0 0 0 0 0 0 0 0 0 0 0 0 0 0 0 0 0 0 127 0"></feColorMatrix><feOffset dy="20"></feOffset><feGaussianBlur stdDeviation="4"></feGaussianBlur><feColorMatrix values="0 0 0 0 0 0 0 0 0 0 0 0 0 0 0 0 0 0 0.01 0"></feColorMatrix><feBlend in2="effect4_dropShadow_5782_105165" result="effect5_dropShadow_5782_105165"></feBlend><feBlend in="SourceGraphic" in2="effect5_dropShadow_5782_105165" result="shape"></feBlend></filter><filter id="CustomizableThemesDark_svg__c" width="38.943" height="39.396" x="20.528" y="7.528" color-interpolation-filters="sRGB" filterUnits="userSpaceOnUse"><feFlood flood-opacity="0" result="BackgroundImageFix"></feFlood><feBlend in="SourceGraphic" in2="BackgroundImageFix" result="shape"></feBlend><feColorMatrix in="SourceAlpha" result="hardAlpha" values="0 0 0 0 0 0 0 0 0 0 0 0 0 0 0 0 0 0 127 0"></feColorMatrix><feOffset dy="0.453"></feOffset><feGaussianBlur stdDeviation="0.906"></feGaussianBlur><feComposite in2="hardAlpha" k2="-1" k3="1" operator="arithmetic"></feComposite><feColorMatrix values="0 0 0 0 0 0 0 0 0 0 0 0 0 0 0 0 0 0 0.05 0"></feColorMatrix><feBlend in2="shape" result="effect1_innerShadow_5782_105165"></feBlend></filter><filter id="CustomizableThemesDark_svg__h" width="70.889" height="74.391" x="0.428" y="25.993" color-interpolation-filters="sRGB" filterUnits="userSpaceOnUse"><feFlood flood-opacity="0" result="BackgroundImageFix"></feFlood><feColorMatrix in="SourceAlpha" result="hardAlpha" values="0 0 0 0 0 0 0 0 0 0 0 0 0 0 0 0 0 0 127 0"></feColorMatrix><feOffset></feOffset><feColorMatrix values="0 0 0 0 0 0 0 0 0 0 0 0 0 0 0 0 0 0 0.05 0"></feColorMatrix><feBlend in2="BackgroundImageFix" result="effect1_dropShadow_5782_105165"></feBlend><feColorMatrix in="SourceAlpha" result="hardAlpha" values="0 0 0 0 0 0 0 0 0 0 0 0 0 0 0 0 0 0 127 0"></feColorMatrix><feOffset dy="1.811"></feOffset><feGaussianBlur stdDeviation="2.038"></feGaussianBlur><feColorMatrix values="0 0 0 0 0 0 0 0 0 0 0 0 0 0 0 0 0 0 0.05 0"></feColorMatrix><feBlend in2="effect1_dropShadow_5782_105165" result="effect2_dropShadow_5782_105165"></feBlend><feColorMatrix in="SourceAlpha" result="hardAlpha" values="0 0 0 0 0 0 0 0 0 0 0 0 0 0 0 0 0 0 127 0"></feColorMatrix><feOffset dy="7.698"></feOffset><feGaussianBlur stdDeviation="3.849"></feGaussianBlur><feColorMatrix values="0 0 0 0 0 0 0 0 0 0 0 0 0 0 0 0 0 0 0.04 0"></feColorMatrix><feBlend in2="effect2_dropShadow_5782_105165" result="effect3_dropShadow_5782_105165"></feBlend><feColorMatrix in="SourceAlpha" result="hardAlpha" values="0 0 0 0 0 0 0 0 0 0 0 0 0 0 0 0 0 0 127 0"></feColorMatrix><feOffset dy="16.755"></feOffset><feGaussianBlur stdDeviation="4.981"></feGaussianBlur><feColorMatrix values="0 0 0 0 0 0 0 0 0 0 0 0 0 0 0 0 0 0 0.02 0"></feColorMatrix><feBlend in2="effect3_dropShadow_5782_105165" result="effect4_dropShadow_5782_105165"></feBlend><feColorMatrix in="SourceAlpha" result="hardAlpha" values="0 0 0 0 0 0 0 0 0 0 0 0 0 0 0 0 0 0 127 0"></feColorMatrix><feOffset dy="30.34"></feOffset><feGaussianBlur stdDeviation="6.113"></feGaussianBlur><feColorMatrix values="0 0 0 0 0 0 0 0 0 0 0 0 0 0 0 0 0 0 0.01 0"></feColorMatrix><feBlend in2="effect4_dropShadow_5782_105165" result="effect5_dropShadow_5782_105165"></feBlend><feBlend in="SourceGraphic" in2="effect5_dropShadow_5782_105165" result="shape"></feBlend></filter></defs></svg>