<svg xmlns="http://www.w3.org/2000/svg" width="85" height="73" fill="none"><g filter="url(#HelpChatBubblesLight_svg__a)"><mask id="HelpChatBubblesLight_svg__b" width="44" height="29" x="6" y="22.238" fill="#000" maskUnits="userSpaceOnUse"><path fill="#fff" d="M6 22.238h44v29H6z"></path><path fill-rule="evenodd" d="M26.764 23.238c-7.574 0-13.714 6.14-13.714 13.714 0 1.035.114 2.042.332 3.011a3.8 3.8 0 0 0-1.605.75 3.68 3.68 0 0 0-1.397 2.884c0 2.05 1.687 3.71 3.77 3.71a3.8 3.8 0 0 0 2.58-1.006 13.68 13.68 0 0 0 10.034 4.366h8.817c7.574 0 13.714-6.14 13.714-13.715 0-7.574-6.14-13.714-13.714-13.714zM8.95 50.123c1.077 0 1.95-.86 1.95-1.92s-.873-1.919-1.95-1.919-1.95.86-1.95 1.92.873 1.919 1.95 1.919" clip-rule="evenodd"></path></mask><path fill="#fff" fill-rule="evenodd" d="M26.764 23.238c-7.574 0-13.714 6.14-13.714 13.714 0 1.035.114 2.042.332 3.011a3.8 3.8 0 0 0-1.605.75 3.68 3.68 0 0 0-1.397 2.884c0 2.05 1.687 3.71 3.77 3.71a3.8 3.8 0 0 0 2.58-1.006 13.68 13.68 0 0 0 10.034 4.366h8.817c7.574 0 13.714-6.14 13.714-13.715 0-7.574-6.14-13.714-13.714-13.714zM8.95 50.123c1.077 0 1.95-.86 1.95-1.92s-.873-1.919-1.95-1.919-1.95.86-1.95 1.92.873 1.919 1.95 1.919" clip-rule="evenodd"></path><path fill="#000" fill-opacity="0.05" d="m13.382 39.963.068.335.34-.07-.075-.34zm-1.605.75-.213-.267zm4.953 5.588.25-.232-.232-.25-.25.232zm-3.339-9.349c0-7.386 5.987-13.373 13.373-13.373v-.682c-7.762 0-14.055 6.293-14.055 14.055zm.323 2.937a13.4 13.4 0 0 1-.323-2.937h-.682c0 1.06.117 2.093.34 3.086zm-1.724 1.09a3.44 3.44 0 0 1 1.46-.681l-.137-.669a4.1 4.1 0 0 0-1.749.817zm-1.27 2.618a3.34 3.34 0 0 1 1.27-2.617l-.426-.534a4.02 4.02 0 0 0-1.526 3.151zm3.43 3.37c-1.9 0-3.43-1.514-3.43-3.37h-.682c0 2.243 1.846 4.052 4.111 4.052zm2.349-.916a3.45 3.45 0 0 1-2.35.916v.682a4.13 4.13 0 0 0 2.813-1.097zm10.265 4.274a13.34 13.34 0 0 1-9.784-4.256l-.5.465a14.02 14.02 0 0 0 10.284 4.474zm8.817 0h-8.817v.683h8.817zm13.373-13.373c0 7.386-5.987 13.373-13.373 13.373v.683c7.762 0 14.055-6.293 14.055-14.056zM35.58 23.58c7.386 0 13.373 5.987 13.373 13.373h.682c0-7.762-6.293-14.055-14.055-14.055zm-8.817 0h8.817v-.682h-8.817zM10.558 48.203c0 .867-.715 1.578-1.608 1.578v.683c1.26 0 2.29-1.007 2.29-2.26zM8.95 46.625c.893 0 1.608.712 1.608 1.578h.683c0-1.253-1.031-2.26-2.291-2.26zM7.34 48.203c0-.866.715-1.578 1.609-1.578v-.682c-1.26 0-2.291 1.007-2.291 2.26zm1.609 1.578c-.894 0-1.609-.711-1.609-1.578H6.66c0 1.254 1.03 2.26 2.29 2.26z" mask="url(#HelpChatBubblesLight_svg__b)"></path></g><g filter="url(#HelpChatBubblesLight_svg__c)"><mask id="HelpChatBubblesLight_svg__e" width="47" height="29" x="31.598" y="1.667" fill="#000" maskUnits="userSpaceOnUse"><path fill="#fff" d="M31.598 1.667h47v29h-47z"></path><path fill-rule="evenodd" d="M58.134 2.667c7.574 0 13.714 6.14 13.714 13.714q0 .175-.004.35c.355.14.684.33.977.564a3.68 3.68 0 0 1 1.397 2.884c0 2.05-1.688 3.71-3.77 3.71q-.403 0-.784-.08a13.7 13.7 0 0 1-11.53 6.286H46.377c-7.574 0-13.714-6.14-13.714-13.714s6.14-13.715 13.714-13.715zm17.514 24.038c-1.077 0-1.95-.86-1.95-1.92s.873-1.92 1.95-1.92 1.95.86 1.95 1.92-.873 1.92-1.95 1.92" clip-rule="evenodd"></path></mask><path fill="url(#HelpChatBubblesLight_svg__d)" fill-rule="evenodd" d="M58.134 2.667c7.574 0 13.714 6.14 13.714 13.714q0 .175-.004.35c.355.14.684.33.977.564a3.68 3.68 0 0 1 1.397 2.884c0 2.05-1.688 3.71-3.77 3.71q-.403 0-.784-.08a13.7 13.7 0 0 1-11.53 6.286H46.377c-7.574 0-13.714-6.14-13.714-13.714s6.14-13.715 13.714-13.715zm17.514 24.038c-1.077 0-1.95-.86-1.95-1.92s.873-1.92 1.95-1.92 1.95.86 1.95 1.92-.873 1.92-1.95 1.92" clip-rule="evenodd"></path><path fill="#000" fill-opacity="0.05" d="m71.844 16.73-.125.318-.223-.087.006-.239zm.977.565.213-.267zm-3.157 6.514-.287-.185.127-.197.23.048zm1.843-7.428c0-7.386-5.988-13.373-13.374-13.373v-.683c7.763 0 14.056 6.293 14.056 14.056zm-.005.341q.005-.17.005-.341h.682q0 .18-.004.358zm1.106.84a3.4 3.4 0 0 0-.89-.514l.25-.635c.388.152.746.36 1.066.615zm1.269 2.617a3.34 3.34 0 0 0-1.27-2.617l.427-.534a4.02 4.02 0 0 1 1.525 3.15zm-3.428 3.37c1.898 0 3.428-1.514 3.428-3.37h.682c0 2.243-1.845 4.052-4.11 4.052zm-.715-.074q.346.072.715.073v.683q-.44 0-.855-.088zm-11.6 6.28c4.716 0 8.862-2.442 11.243-6.131l.574.37a14.05 14.05 0 0 1-11.818 6.442zm-11.756 0h11.755v.681H46.378zM33.005 16.38c0 7.386 5.987 13.373 13.373 13.373v.682c-7.762 0-14.055-6.292-14.055-14.055zM46.378 3.008c-7.385 0-13.373 5.987-13.373 13.373h-.682c0-7.763 6.293-14.056 14.055-14.056zm11.755 0H46.378v-.683h11.755zM74.04 24.785c0 .867.715 1.578 1.609 1.578v.683c-1.26 0-2.291-1.007-2.291-2.26zm1.609-1.578c-.894 0-1.609.712-1.609 1.578h-.682c0-1.253 1.03-2.26 2.29-2.26zm1.608 1.578c0-.866-.715-1.578-1.608-1.578v-.682c1.26 0 2.29 1.007 2.29 2.26zm-1.608 1.578c.893 0 1.608-.711 1.608-1.578h.683c0 1.254-1.03 2.26-2.291 2.26z" mask="url(#HelpChatBubblesLight_svg__e)"></path></g><g filter="url(#HelpChatBubblesLight_svg__f)"><path fill="#fff" d="M50.982 19.06h2.185v-.588q0-.537.147-.925.158-.4.536-.746.378-.357 1.05-.756a5.7 5.7 0 0 0 1.198-.935q.494-.525.757-1.177.262-.662.262-1.47v-.022q0-1.134-.588-2.006-.577-.872-1.629-1.376-1.04-.515-2.437-.515-1.513 0-2.553.546-1.04.547-1.596 1.471c-.34.575-.499 1.184-.582 1.828a.31.31 0 0 0 .31.347h1.552a.33.33 0 0 0 .323-.283 2.5 2.5 0 0 1 .33-.936q.315-.483.85-.756.537-.284 1.261-.284.705 0 1.23.263.534.263.83.735.293.462.293 1.061v.021q0 .525-.168.935a2.1 2.1 0 0 1-.535.767 6.8 6.8 0 0 1-1.009.735 6 6 0 0 0-1.177.904 3 3 0 0 0-.661 1.05 3.4 3.4 0 0 0-.19 1.282zm1.114 4.885q.588 0 .987-.389.4-.4.4-.977 0-.578-.4-.966a1.34 1.34 0 0 0-.987-.4q-.59 0-.988.4-.4.388-.4.966t.4.977q.399.39.988.389"></path></g><path fill="#C5C5C5" d="M26.29 38.614q.62 0 1.047-.427.428-.428.428-1.058 0-.62-.428-1.047a1.42 1.42 0 0 0-1.046-.428q-.63 0-1.058.428a1.42 1.42 0 0 0-.428 1.047q0 .63.428 1.058.427.427 1.058.427M31.1 38.614q.617 0 1.046-.427.428-.428.428-1.058 0-.62-.428-1.047a1.42 1.42 0 0 0-1.047-.428q-.63 0-1.058.428a1.42 1.42 0 0 0-.428 1.047q0 .63.428 1.058.428.427 1.058.427M35.908 38.614q.618 0 1.047-.427.427-.428.427-1.058 0-.62-.427-1.047a1.42 1.42 0 0 0-1.047-.428q-.63 0-1.058.428a1.42 1.42 0 0 0-.428 1.047q0 .63.428 1.058.427.427 1.058.427"></path><defs><filter id="HelpChatBubblesLight_svg__a" width="55.261" height="50.631" x="0.517" y="21.532" color-interpolation-filters="sRGB" filterUnits="userSpaceOnUse"><feFlood flood-opacity="0" result="BackgroundImageFix"></feFlood><feColorMatrix in="SourceAlpha" result="hardAlpha" values="0 0 0 0 0 0 0 0 0 0 0 0 0 0 0 0 0 0 127 0"></feColorMatrix><feOffset></feOffset><feColorMatrix values="0 0 0 0 0 0 0 0 0 0 0 0 0 0 0 0 0 0 0.04 0"></feColorMatrix><feBlend in2="BackgroundImageFix" result="effect1_dropShadow_5530_102507"></feBlend><feColorMatrix in="SourceAlpha" result="hardAlpha" values="0 0 0 0 0 0 0 0 0 0 0 0 0 0 0 0 0 0 127 0"></feColorMatrix><feOffset dy="0.682"></feOffset><feGaussianBlur stdDeviation="1.024"></feGaussianBlur><feColorMatrix values="0 0 0 0 0 0 0 0 0 0 0 0 0 0 0 0 0 0 0.04 0"></feColorMatrix><feBlend in2="effect1_dropShadow_5530_102507" result="effect2_dropShadow_5530_102507"></feBlend><feColorMatrix in="SourceAlpha" result="hardAlpha" values="0 0 0 0 0 0 0 0 0 0 0 0 0 0 0 0 0 0 127 0"></feColorMatrix><feOffset dy="4.095"></feOffset><feGaussianBlur stdDeviation="2.047"></feGaussianBlur><feColorMatrix values="0 0 0 0 0 0 0 0 0 0 0 0 0 0 0 0 0 0 0.04 0"></feColorMatrix><feBlend in2="effect2_dropShadow_5530_102507" result="effect3_dropShadow_5530_102507"></feBlend><feColorMatrix in="SourceAlpha" result="hardAlpha" values="0 0 0 0 0 0 0 0 0 0 0 0 0 0 0 0 0 0 127 0"></feColorMatrix><feOffset dy="8.871"></feOffset><feGaussianBlur stdDeviation="2.73"></feGaussianBlur><feColorMatrix values="0 0 0 0 0 0 0 0 0 0 0 0 0 0 0 0 0 0 0.02 0"></feColorMatrix><feBlend in2="effect3_dropShadow_5530_102507" result="effect4_dropShadow_5530_102507"></feBlend><feColorMatrix in="SourceAlpha" result="hardAlpha" values="0 0 0 0 0 0 0 0 0 0 0 0 0 0 0 0 0 0 127 0"></feColorMatrix><feOffset dy="15.013"></feOffset><feGaussianBlur stdDeviation="3.071"></feGaussianBlur><feColorMatrix values="0 0 0 0 0 0 0 0 0 0 0 0 0 0 0 0 0 0 0.01 0"></feColorMatrix><feBlend in2="effect4_dropShadow_5530_102507" result="effect5_dropShadow_5530_102507"></feBlend><feBlend in="SourceGraphic" in2="effect5_dropShadow_5530_102507" result="shape"></feBlend></filter><filter id="HelpChatBubblesLight_svg__c" width="57.9" height="50.631" x="26.181" y="0.96" color-interpolation-filters="sRGB" filterUnits="userSpaceOnUse"><feFlood flood-opacity="0" result="BackgroundImageFix"></feFlood><feColorMatrix in="SourceAlpha" result="hardAlpha" values="0 0 0 0 0 0 0 0 0 0 0 0 0 0 0 0 0 0 127 0"></feColorMatrix><feOffset></feOffset><feColorMatrix values="0 0 0 0 0 0 0 0 0 0 0 0 0 0 0 0 0 0 0.04 0"></feColorMatrix><feBlend in2="BackgroundImageFix" result="effect1_dropShadow_5530_102507"></feBlend><feColorMatrix in="SourceAlpha" result="hardAlpha" values="0 0 0 0 0 0 0 0 0 0 0 0 0 0 0 0 0 0 127 0"></feColorMatrix><feOffset dy="0.682"></feOffset><feGaussianBlur stdDeviation="1.024"></feGaussianBlur><feColorMatrix values="0 0 0 0 0 0 0 0 0 0 0 0 0 0 0 0 0 0 0.04 0"></feColorMatrix><feBlend in2="effect1_dropShadow_5530_102507" result="effect2_dropShadow_5530_102507"></feBlend><feColorMatrix in="SourceAlpha" result="hardAlpha" values="0 0 0 0 0 0 0 0 0 0 0 0 0 0 0 0 0 0 127 0"></feColorMatrix><feOffset dy="4.095"></feOffset><feGaussianBlur stdDeviation="2.047"></feGaussianBlur><feColorMatrix values="0 0 0 0 0 0 0 0 0 0 0 0 0 0 0 0 0 0 0.04 0"></feColorMatrix><feBlend in2="effect2_dropShadow_5530_102507" result="effect3_dropShadow_5530_102507"></feBlend><feColorMatrix in="SourceAlpha" result="hardAlpha" values="0 0 0 0 0 0 0 0 0 0 0 0 0 0 0 0 0 0 127 0"></feColorMatrix><feOffset dy="8.871"></feOffset><feGaussianBlur stdDeviation="2.73"></feGaussianBlur><feColorMatrix values="0 0 0 0 0 0 0 0 0 0 0 0 0 0 0 0 0 0 0.02 0"></feColorMatrix><feBlend in2="effect3_dropShadow_5530_102507" result="effect4_dropShadow_5530_102507"></feBlend><feColorMatrix in="SourceAlpha" result="hardAlpha" values="0 0 0 0 0 0 0 0 0 0 0 0 0 0 0 0 0 0 127 0"></feColorMatrix><feOffset dy="15.013"></feOffset><feGaussianBlur stdDeviation="3.071"></feGaussianBlur><feColorMatrix values="0 0 0 0 0 0 0 0 0 0 0 0 0 0 0 0 0 0 0.01 0"></feColorMatrix><feBlend in2="effect4_dropShadow_5530_102507" result="effect5_dropShadow_5530_102507"></feBlend><feBlend in="SourceGraphic" in2="effect5_dropShadow_5530_102507" result="shape"></feBlend></filter><filter id="HelpChatBubblesLight_svg__f" width="11.936" height="17.949" x="46.455" y="7.907" color-interpolation-filters="sRGB" filterUnits="userSpaceOnUse"><feFlood flood-opacity="0" result="BackgroundImageFix"></feFlood><feColorMatrix in="SourceAlpha" result="hardAlpha" values="0 0 0 0 0 0 0 0 0 0 0 0 0 0 0 0 0 0 127 0"></feColorMatrix><feOffset dy="0.637"></feOffset><feGaussianBlur stdDeviation="0.637"></feGaussianBlur><feComposite in2="hardAlpha" operator="out"></feComposite><feColorMatrix values="0 0 0 0 0 0 0 0 0 0 0 0 0 0 0 0 0 0 0.25 0"></feColorMatrix><feBlend in2="BackgroundImageFix" result="effect1_dropShadow_5530_102507"></feBlend><feBlend in="SourceGraphic" in2="effect1_dropShadow_5530_102507" result="shape"></feBlend><feColorMatrix in="SourceAlpha" result="hardAlpha" values="0 0 0 0 0 0 0 0 0 0 0 0 0 0 0 0 0 0 127 0"></feColorMatrix><feOffset dy="0.637"></feOffset><feGaussianBlur stdDeviation="0.318"></feGaussianBlur><feComposite in2="hardAlpha" k2="-1" k3="1" operator="arithmetic"></feComposite><feColorMatrix values="0 0 0 0 0.972549 0 0 0 0 0.352941 0 0 0 0 0.168627 0 0 0 0.33 0"></feColorMatrix><feBlend in2="shape" result="effect2_innerShadow_5530_102507"></feBlend></filter><linearGradient id="HelpChatBubblesLight_svg__d" x1="51.518" x2="51.518" y1="2.667" y2="29.963" gradientUnits="userSpaceOnUse"><stop offset="0.448" stop-color="#e6658a"></stop><stop offset="1" stop-color="#de3163"></stop></linearGradient></defs></svg>