<svg xmlns="http://www.w3.org/2000/svg" width="87" height="80" fill="none"><g filter="url(#HelpChatBubblesDark_svg__a)"><mask id="HelpChatBubblesDark_svg__c" width="44" height="29" x="8" y="22.238" fill="#000" maskUnits="userSpaceOnUse"><path fill="#fff" d="M8 22.238h44v29H8z"></path><path fill-rule="evenodd" d="M28.764 23.238c-7.574 0-13.714 6.14-13.714 13.715 0 1.034.114 2.042.332 3.01a3.8 3.8 0 0 0-1.605.75 3.68 3.68 0 0 0-1.397 2.884c0 2.05 1.687 3.711 3.77 3.711.998 0 1.906-.382 2.58-1.006a13.68 13.68 0 0 0 10.034 4.365h8.817c7.574 0 13.714-6.14 13.714-13.714s-6.14-13.715-13.714-13.715zM10.95 50.123c1.077 0 1.95-.86 1.95-1.92s-.873-1.919-1.95-1.919-1.95.86-1.95 1.92.873 1.92 1.95 1.92" clip-rule="evenodd"></path></mask><path fill="url(#HelpChatBubblesDark_svg__b)" fill-rule="evenodd" d="M28.764 23.238c-7.574 0-13.714 6.14-13.714 13.715 0 1.034.114 2.042.332 3.01a3.8 3.8 0 0 0-1.605.75 3.68 3.68 0 0 0-1.397 2.884c0 2.05 1.687 3.711 3.77 3.711.998 0 1.906-.382 2.58-1.006a13.68 13.68 0 0 0 10.034 4.365h8.817c7.574 0 13.714-6.14 13.714-13.714s-6.14-13.715-13.714-13.715zM10.95 50.123c1.077 0 1.95-.86 1.95-1.92s-.873-1.919-1.95-1.919-1.95.86-1.95 1.92.873 1.92 1.95 1.92" clip-rule="evenodd"></path><path fill="#000" fill-opacity="0.1" d="m15.382 39.964.09.444.452-.093-.1-.45zm-1.605.75-.282-.354zm4.953 5.588.332-.31-.308-.33-.331.307zm-3.227-9.35c0-7.323 5.937-13.26 13.261-13.26v-.907c-7.824 0-14.167 6.343-14.167 14.168zm.32 2.913c-.21-.937-.32-1.911-.32-2.912h-.906c0 1.068.118 2.108.343 3.11zm-1.764 1.203a3.3 3.3 0 0 1 1.413-.66l-.18-.888c-.672.137-1.284.43-1.797.84zm-1.227 2.53c0-1.02.477-1.931 1.227-2.53l-.564-.708a4.14 4.14 0 0 0-1.568 3.237zm3.317 3.257c-1.838 0-3.317-1.465-3.317-3.258h-.905c0 2.307 1.897 4.164 4.222 4.164zm2.274-.886a3.34 3.34 0 0 1-2.274.886v.906a4.24 4.24 0 0 0 2.889-1.127zm10.341 4.245c-3.83 0-7.28-1.623-9.702-4.221l-.663.617a14.13 14.13 0 0 0 10.365 4.51zm8.817 0h-8.817v.906h8.817zm13.261-13.261c0 7.324-5.937 13.261-13.261 13.261v.906c7.824 0 14.167-6.343 14.167-14.167zM37.581 23.69c7.324 0 13.261 5.938 13.261 13.262h.906c0-7.825-6.343-14.168-14.167-14.168zm-8.817 0h8.817v-.906h-8.817zM12.447 48.204c0 .803-.664 1.466-1.497 1.466v.906c1.32 0 2.402-1.055 2.402-2.372zm-1.497-1.467c.833 0 1.497.664 1.497 1.467h.905c0-1.317-1.082-2.372-2.402-2.372zm-1.497 1.467c0-.803.663-1.467 1.497-1.467v-.905c-1.32 0-2.403 1.055-2.403 2.372zm1.497 1.466c-.834 0-1.497-.663-1.497-1.466h-.906c0 1.317 1.083 2.372 2.403 2.372z" mask="url(#HelpChatBubblesDark_svg__c)"></path></g><g filter="url(#HelpChatBubblesDark_svg__d)"><mask id="HelpChatBubblesDark_svg__e" width="47" height="29" x="33.598" y="1.667" fill="#000" maskUnits="userSpaceOnUse"><path fill="#fff" d="M33.598 1.667h47v29h-47z"></path><path fill-rule="evenodd" d="M60.133 2.667c7.575 0 13.715 6.14 13.715 13.714q0 .176-.005.35c.356.14.685.33.978.564a3.68 3.68 0 0 1 1.397 2.884c0 2.05-1.688 3.711-3.77 3.711q-.404-.001-.784-.08a13.7 13.7 0 0 1-11.53 6.286H48.377c-7.574 0-13.714-6.14-13.714-13.715 0-7.574 6.14-13.714 13.714-13.714zm17.515 24.038c-1.077 0-1.95-.86-1.95-1.92s.873-1.919 1.95-1.919 1.95.86 1.95 1.92-.873 1.919-1.95 1.919" clip-rule="evenodd"></path></mask><path fill="#e6658a" fill-rule="evenodd" d="M60.133 2.667c7.575 0 13.715 6.14 13.715 13.714q0 .176-.005.35c.356.14.685.33.978.564a3.68 3.68 0 0 1 1.397 2.884c0 2.05-1.688 3.711-3.77 3.711q-.404-.001-.784-.08a13.7 13.7 0 0 1-11.53 6.286H48.377c-7.574 0-13.714-6.14-13.714-13.715 0-7.574 6.14-13.714 13.714-13.714zm17.515 24.038c-1.077 0-1.95-.86-1.95-1.92s.873-1.919 1.95-1.919 1.95.86 1.95 1.92-.873 1.919-1.95 1.919" clip-rule="evenodd"></path><path fill="#000" fill-opacity="0.05" d="m73.843 16.731-.124.318-.223-.088.006-.238zm.978.564.213-.266zm-3.157 6.514-.287-.185.127-.196.23.047zm1.843-7.428c0-7.385-5.988-13.373-13.374-13.373v-.682c7.763 0 14.056 6.293 14.056 14.055zm-.005.341q.005-.17.005-.34h.682q0 .179-.004.358zm1.106.84a3.4 3.4 0 0 0-.89-.513l.25-.636c.388.152.746.361 1.066.616zm1.269 2.617a3.34 3.34 0 0 0-1.27-2.617l.427-.533a4.02 4.02 0 0 1 1.525 3.15zm-3.428 3.37c1.898 0 3.428-1.514 3.428-3.37h.682c0 2.243-1.845 4.052-4.11 4.052zm-.715-.073q.346.072.715.073v.682q-.44 0-.855-.088zm-11.6 6.279c4.716 0 8.862-2.441 11.243-6.13l.574.37a14.05 14.05 0 0 1-11.818 6.442zm-11.756 0h11.755v.682H48.378zM35.005 16.38c0 7.386 5.987 13.374 13.373 13.374v.682c-7.763 0-14.055-6.293-14.055-14.056zM48.378 3.008c-7.386 0-13.373 5.988-13.373 13.373h-.682c0-7.762 6.292-14.055 14.055-14.055zm11.755 0H48.378v-.682h11.755zM76.04 24.786c0 .866.715 1.578 1.609 1.578v.682c-1.26 0-2.291-1.007-2.291-2.26zm1.609-1.578c-.894 0-1.609.711-1.609 1.578h-.682c0-1.254 1.03-2.26 2.29-2.26zm1.608 1.578c0-.867-.715-1.578-1.608-1.578v-.683c1.26 0 2.29 1.007 2.29 2.26zm-1.608 1.578c.893 0 1.608-.712 1.608-1.578h.683c0 1.253-1.031 2.26-2.291 2.26z" mask="url(#HelpChatBubblesDark_svg__e)"></path></g><g filter="url(#HelpChatBubblesDark_svg__f)"><path fill="#fff" d="M52.982 19.06h2.185v-.588q0-.535.147-.925.158-.399.536-.745.378-.357 1.05-.757a5.7 5.7 0 0 0 1.198-.935q.494-.525.757-1.176.262-.662.262-1.471v-.021q0-1.135-.588-2.007-.577-.871-1.629-1.376-1.04-.515-2.437-.515-1.513 0-2.553.547-1.04.546-1.596 1.47c-.34.575-.499 1.185-.582 1.828a.31.31 0 0 0 .31.347h1.552a.33.33 0 0 0 .323-.282c.054-.33.146-.645.33-.937q.315-.483.85-.756.537-.284 1.261-.284.705 0 1.23.263.534.263.83.735.293.463.293 1.062v.02q0 .525-.168.935a2.1 2.1 0 0 1-.535.767 6.8 6.8 0 0 1-1.009.736 6 6 0 0 0-1.177.903 3 3 0 0 0-.661 1.05 3.4 3.4 0 0 0-.19 1.282zm1.114 4.885q.588 0 .987-.388.4-.4.4-.977 0-.579-.4-.967a1.34 1.34 0 0 0-.987-.4q-.59 0-.988.4-.4.389-.4.967 0 .577.4.977.399.388.988.388"></path></g><path fill="#fff" d="M28.29 38.614q.62 0 1.047-.427.428-.428.428-1.058 0-.62-.428-1.047a1.42 1.42 0 0 0-1.046-.428q-.63 0-1.058.428a1.42 1.42 0 0 0-.428 1.047q0 .63.428 1.058.427.427 1.058.427M33.1 38.614q.617 0 1.046-.427.428-.428.428-1.058 0-.62-.428-1.047a1.42 1.42 0 0 0-1.047-.428q-.63 0-1.058.428a1.42 1.42 0 0 0-.427 1.047q0 .63.427 1.058.428.427 1.058.427M37.908 38.614q.618 0 1.047-.427.427-.428.427-1.058 0-.62-.427-1.047a1.42 1.42 0 0 0-1.047-.428q-.63 0-1.058.428a1.42 1.42 0 0 0-.428 1.047q0 .63.428 1.058.427.427 1.058.427"></path><defs><filter id="HelpChatBubblesDark_svg__a" width="59.201" height="58.334" x="0.547" y="20.785" color-interpolation-filters="sRGB" filterUnits="userSpaceOnUse"><feFlood flood-opacity="0" result="BackgroundImageFix"></feFlood><feColorMatrix in="SourceAlpha" result="hardAlpha" values="0 0 0 0 0 0 0 0 0 0 0 0 0 0 0 0 0 0 127 0"></feColorMatrix><feOffset></feOffset><feColorMatrix values="0 0 0 0 0 0 0 0 0 0 0 0 0 0 0 0 0 0 0.1 0"></feColorMatrix><feBlend in2="BackgroundImageFix" result="effect1_dropShadow_5782_105223"></feBlend><feColorMatrix in="SourceAlpha" result="hardAlpha" values="0 0 0 0 0 0 0 0 0 0 0 0 0 0 0 0 0 0 127 0"></feColorMatrix><feOffset dy="1"></feOffset><feGaussianBlur stdDeviation="1.5"></feGaussianBlur><feColorMatrix values="0 0 0 0 0 0 0 0 0 0 0 0 0 0 0 0 0 0 0.1 0"></feColorMatrix><feBlend in2="effect1_dropShadow_5782_105223" result="effect2_dropShadow_5782_105223"></feBlend><feColorMatrix in="SourceAlpha" result="hardAlpha" values="0 0 0 0 0 0 0 0 0 0 0 0 0 0 0 0 0 0 127 0"></feColorMatrix><feOffset dy="5"></feOffset><feGaussianBlur stdDeviation="2.5"></feGaussianBlur><feColorMatrix values="0 0 0 0 0 0 0 0 0 0 0 0 0 0 0 0 0 0 0.09 0"></feColorMatrix><feBlend in2="effect2_dropShadow_5782_105223" result="effect3_dropShadow_5782_105223"></feBlend><feColorMatrix in="SourceAlpha" result="hardAlpha" values="0 0 0 0 0 0 0 0 0 0 0 0 0 0 0 0 0 0 127 0"></feColorMatrix><feOffset dy="11"></feOffset><feGaussianBlur stdDeviation="3.5"></feGaussianBlur><feColorMatrix values="0 0 0 0 0 0 0 0 0 0 0 0 0 0 0 0 0 0 0.05 0"></feColorMatrix><feBlend in2="effect3_dropShadow_5782_105223" result="effect4_dropShadow_5782_105223"></feBlend><feColorMatrix in="SourceAlpha" result="hardAlpha" values="0 0 0 0 0 0 0 0 0 0 0 0 0 0 0 0 0 0 127 0"></feColorMatrix><feOffset dy="20"></feOffset><feGaussianBlur stdDeviation="4"></feGaussianBlur><feColorMatrix values="0 0 0 0 0 0 0 0 0 0 0 0 0 0 0 0 0 0 0.01 0"></feColorMatrix><feBlend in2="effect4_dropShadow_5782_105223" result="effect5_dropShadow_5782_105223"></feBlend><feBlend in="SourceGraphic" in2="effect5_dropShadow_5782_105223" result="shape"></feBlend></filter><filter id="HelpChatBubblesDark_svg__d" width="57.9" height="50.631" x="28.181" y="0.961" color-interpolation-filters="sRGB" filterUnits="userSpaceOnUse"><feFlood flood-opacity="0" result="BackgroundImageFix"></feFlood><feColorMatrix in="SourceAlpha" result="hardAlpha" values="0 0 0 0 0 0 0 0 0 0 0 0 0 0 0 0 0 0 127 0"></feColorMatrix><feOffset></feOffset><feColorMatrix values="0 0 0 0 0 0 0 0 0 0 0 0 0 0 0 0 0 0 0.04 0"></feColorMatrix><feBlend in2="BackgroundImageFix" result="effect1_dropShadow_5782_105223"></feBlend><feColorMatrix in="SourceAlpha" result="hardAlpha" values="0 0 0 0 0 0 0 0 0 0 0 0 0 0 0 0 0 0 127 0"></feColorMatrix><feOffset dy="0.682"></feOffset><feGaussianBlur stdDeviation="1.024"></feGaussianBlur><feColorMatrix values="0 0 0 0 0 0 0 0 0 0 0 0 0 0 0 0 0 0 0.04 0"></feColorMatrix><feBlend in2="effect1_dropShadow_5782_105223" result="effect2_dropShadow_5782_105223"></feBlend><feColorMatrix in="SourceAlpha" result="hardAlpha" values="0 0 0 0 0 0 0 0 0 0 0 0 0 0 0 0 0 0 127 0"></feColorMatrix><feOffset dy="4.095"></feOffset><feGaussianBlur stdDeviation="2.047"></feGaussianBlur><feColorMatrix values="0 0 0 0 0 0 0 0 0 0 0 0 0 0 0 0 0 0 0.04 0"></feColorMatrix><feBlend in2="effect2_dropShadow_5782_105223" result="effect3_dropShadow_5782_105223"></feBlend><feColorMatrix in="SourceAlpha" result="hardAlpha" values="0 0 0 0 0 0 0 0 0 0 0 0 0 0 0 0 0 0 127 0"></feColorMatrix><feOffset dy="8.871"></feOffset><feGaussianBlur stdDeviation="2.73"></feGaussianBlur><feColorMatrix values="0 0 0 0 0 0 0 0 0 0 0 0 0 0 0 0 0 0 0.02 0"></feColorMatrix><feBlend in2="effect3_dropShadow_5782_105223" result="effect4_dropShadow_5782_105223"></feBlend><feColorMatrix in="SourceAlpha" result="hardAlpha" values="0 0 0 0 0 0 0 0 0 0 0 0 0 0 0 0 0 0 127 0"></feColorMatrix><feOffset dy="15.013"></feOffset><feGaussianBlur stdDeviation="3.071"></feGaussianBlur><feColorMatrix values="0 0 0 0 0 0 0 0 0 0 0 0 0 0 0 0 0 0 0.01 0"></feColorMatrix><feBlend in2="effect4_dropShadow_5782_105223" result="effect5_dropShadow_5782_105223"></feBlend><feBlend in="SourceGraphic" in2="effect5_dropShadow_5782_105223" result="shape"></feBlend></filter><filter id="HelpChatBubblesDark_svg__f" width="11.936" height="17.949" x="48.455" y="7.907" color-interpolation-filters="sRGB" filterUnits="userSpaceOnUse"><feFlood flood-opacity="0" result="BackgroundImageFix"></feFlood><feColorMatrix in="SourceAlpha" result="hardAlpha" values="0 0 0 0 0 0 0 0 0 0 0 0 0 0 0 0 0 0 127 0"></feColorMatrix><feOffset dy="0.637"></feOffset><feGaussianBlur stdDeviation="0.637"></feGaussianBlur><feComposite in2="hardAlpha" operator="out"></feComposite><feColorMatrix values="0 0 0 0 0 0 0 0 0 0 0 0 0 0 0 0 0 0 0.25 0"></feColorMatrix><feBlend in2="BackgroundImageFix" result="effect1_dropShadow_5782_105223"></feBlend><feBlend in="SourceGraphic" in2="effect1_dropShadow_5782_105223" result="shape"></feBlend><feColorMatrix in="SourceAlpha" result="hardAlpha" values="0 0 0 0 0 0 0 0 0 0 0 0 0 0 0 0 0 0 127 0"></feColorMatrix><feOffset dy="0.637"></feOffset><feGaussianBlur stdDeviation="0.318"></feGaussianBlur><feComposite in2="hardAlpha" k2="-1" k3="1" operator="arithmetic"></feComposite><feColorMatrix values="0 0 0 0 0.819608 0 0 0 0 0.239216 0 0 0 0 0.568627 0 0 0 0.33 0"></feColorMatrix><feBlend in2="shape" result="effect2_innerShadow_5782_105223"></feBlend></filter><linearGradient id="HelpChatBubblesDark_svg__b" x1="30.148" x2="30.148" y1="23.238" y2="50.667" gradientUnits="userSpaceOnUse"><stop stop-color="#565656"></stop><stop offset="1" stop-color="#3D3D3D"></stop></linearGradient></defs></svg>