<svg xmlns="http://www.w3.org/2000/svg" width="83" height="99" fill="none"><g filter="url(#OpenMailLight_svg__a)"><path fill="url(#OpenMailLight_svg__b)" d="M16 22.575c0-.66 0-.99.088-1.293.077-.268.205-.518.375-.739.193-.248.46-.443.994-.832L36.33 5.964c.75-.546 1.124-.819 1.534-.924a2.2 2.2 0 0 1 1.103 0c.41.105.785.378 1.534.924l18.874 13.747c.533.39.8.584.993.832.17.22.298.471.376.739.087.302.087.632.087 1.293v22.883c0 1.24 0 1.86-.24 2.333a2.2 2.2 0 0 1-.968.968c-.474.24-1.094.24-2.334.24H19.542c-1.24 0-1.86 0-2.333-.24a2.2 2.2 0 0 1-.968-.968C16 47.318 16 46.698 16 45.458z"></path><path stroke="#000" stroke-opacity="0.05" stroke-width="0.5" d="M16.25 22.575c0-.675.002-.963.078-1.223.069-.238.182-.46.333-.656.166-.214.397-.385.943-.783L36.477 6.166c.767-.559 1.097-.794 1.45-.884.32-.083.657-.083.978 0 .352.09.682.325 1.45.884l18.873 13.747c.545.398.776.57.942.783.152.196.265.418.334.656.075.26.077.547.077 1.223v22.883c0 .624 0 1.077-.029 1.433-.029.354-.085.59-.185.787-.188.37-.488.67-.858.858-.196.1-.432.156-.786.185-.357.029-.81.029-1.434.029H19.542c-.624 0-1.077 0-1.434-.03-.353-.028-.59-.084-.786-.184a1.96 1.96 0 0 1-.858-.858c-.1-.196-.156-.433-.185-.787-.029-.356-.029-.81-.029-1.433z"></path></g><g filter="url(#OpenMailLight_svg__c)"><mask id="OpenMailLight_svg__e" width="35" height="44" x="21.153" y="0" fill="#000" maskUnits="userSpaceOnUse"><path fill="#fff" d="M21.153 0h35v44h-35z"></path><path fill-rule="evenodd" d="M41.548 1c1.87.005 3.659.76 4.966 2.098L52.7 9.426a6.97 6.97 0 0 1 1.987 4.874v27.277c0 .52 0 .78-.101.98a.93.93 0 0 1-.406.406c-.2.101-.46.101-.98.101H23.64c-.52 0-.781 0-.98-.101a.93.93 0 0 1-.406-.406c-.101-.2-.101-.46-.101-.98V2.487c0-.52 0-.78.1-.98a.93.93 0 0 1 .407-.406C22.86 1 23.12 1 23.64 1z" clip-rule="evenodd"></path></mask><path fill="url(#OpenMailLight_svg__d)" fill-rule="evenodd" d="M41.548 1c1.87.005 3.659.76 4.966 2.098L52.7 9.426a6.97 6.97 0 0 1 1.987 4.874v27.277c0 .52 0 .78-.101.98a.93.93 0 0 1-.406.406c-.2.101-.46.101-.98.101H23.64c-.52 0-.781 0-.98-.101a.93.93 0 0 1-.406-.406c-.101-.2-.101-.46-.101-.98V2.487c0-.52 0-.78.1-.98a.93.93 0 0 1 .407-.406C22.86 1 23.12 1 23.64 1z" clip-rule="evenodd"></path><path fill="#000" fill-opacity="0.1" d="m41.548 1 .001-.5zm4.966 2.098.357-.35zM52.7 9.426l.358-.35zm1.987 7.144h-.5v.5h.5zm0 0h.5v-.5h-.5zm-.101 25.987.445.227zm-.406.406.227.445zm-31.52 0-.228.445zm-.407-.406-.446.227zm0-41.05-.446-.227zm.406-.406-.227-.445zm18.887.399a6.47 6.47 0 0 1 4.61 1.947l.714-.699A7.47 7.47 0 0 0 41.55.5zm4.61 1.947 6.187 6.328.715-.699-6.188-6.328zm6.187 6.328a6.47 6.47 0 0 1 1.844 4.525h1a7.47 7.47 0 0 0-2.13-5.224zm1.844 4.525v2.27h1V14.3zm.5 2.77v-1zm-.5-.5v25.007h1V16.571zm0 25.007c0 .269 0 .44-.01.57a.5.5 0 0 1-.036.183l.89.454c.093-.182.127-.37.142-.556.015-.18.014-.399.014-.651zm-.047.753a.43.43 0 0 1-.187.188l.454.89a1.43 1.43 0 0 0 .624-.624zm-.187.188a.5.5 0 0 1-.183.035c-.13.01-.302.011-.57.011v1c.252 0 .471 0 .651-.014.186-.015.374-.049.556-.142zm-.753.046H23.64v1H53.2zm-29.561 0c-.269 0-.44 0-.57-.01a.5.5 0 0 1-.183-.037l-.454.891c.182.093.37.127.556.142.18.015.399.014.65.014zm-.753-.047a.43.43 0 0 1-.188-.187l-.89.454c.136.269.355.487.624.624zm-.188-.187a.5.5 0 0 1-.035-.183 8 8 0 0 1-.011-.57h-1c0 .252 0 .471.014.651.015.186.049.374.141.556zm-.046-.753V2.487h-1v39.09zm0-39.09c0-.268 0-.44.01-.57a.5.5 0 0 1 .036-.183l-.89-.454c-.093.182-.127.37-.142.556-.015.18-.014.4-.014.651zm.046-.753a.43.43 0 0 1 .188-.187l-.454-.891a1.43 1.43 0 0 0-.625.624zm.188-.187a.5.5 0 0 1 .183-.036c.13-.01.301-.011.57-.011v-1c-.252 0-.471 0-.651.014a1.5 1.5 0 0 0-.556.142zm.753-.047h17.908v-1H23.64z" mask="url(#OpenMailLight_svg__e)"></path></g><rect width="6.75" height="3" x="24.679" y="7.75" fill="#de3163" rx="1.5"></rect><rect width="26.25" height="3" x="24.679" y="13" fill="#de3163" rx="1.5"></rect><rect width="18.75" height="3" x="24.679" y="18.25" fill="#de3163" rx="1.5"></rect><g filter="url(#OpenMailLight_svg__f)"><path fill="#fff" fill-rule="evenodd" d="M44.47 1.652a7 7 0 0 1 2.043 1.446L52.7 9.426c.446.456.823.967 1.125 1.517A3.71 3.71 0 0 0 51.026 9.6H47.48c-.77 0-1.394-.624-1.394-1.394V4.719c0-1.273-.64-2.397-1.616-3.067" clip-rule="evenodd"></path></g><g clip-path="url(#OpenMailLight_svg__g)"><g filter="url(#OpenMailLight_svg__h)"><path fill="url(#OpenMailLight_svg__i)" d="M15.999 49 33.77 37.59c1.545-.991 2.318-1.487 2.584-2.118a2.21 2.21 0 0 0 0-1.724c-.266-.631-1.039-1.127-2.584-2.12l-15.044-9.657c-.89-.571-1.334-.856-1.7-.83-.321.023-.615.184-.808.441-.22.295-.22.823-.22 1.879z"></path></g><g filter="url(#OpenMailLight_svg__j)"><path fill="url(#OpenMailLight_svg__k)" d="M60.83 49 43.057 37.59c-1.545-.991-2.317-1.487-2.584-2.118a2.21 2.21 0 0 1 0-1.724c.267-.631 1.04-1.127 2.584-2.12l15.045-9.657c.889-.571 1.333-.856 1.7-.83.32.023.615.184.807.441.22.295.22.823.22 1.879z"></path></g><g filter="url(#OpenMailLight_svg__l)"><path fill="url(#OpenMailLight_svg__m)" d="m15.999 49 19.91-19.911c.877-.877 1.316-1.315 1.821-1.48a2.2 2.2 0 0 1 1.368 0c.506.165.944.603 1.821 1.48L60.829 49z"></path></g><path fill="url(#OpenMailLight_svg__n)" d="M15.999 49V30.127c0-1.24 0-1.86.24-2.334.213-.417.552-.755.968-.967.474-.242 1.094-.242 2.334-.242h37.747c1.24 0 1.86 0 2.333.242.417.212.755.55.968.967.24.474.24 1.094.24 2.333V49z"></path></g><defs><filter id="OpenMailLight_svg__a" width="89.109" height="93.843" x="-6.139" y="4.97" color-interpolation-filters="sRGB" filterUnits="userSpaceOnUse"><feFlood flood-opacity="0" result="BackgroundImageFix"></feFlood><feColorMatrix in="SourceAlpha" result="hardAlpha" values="0 0 0 0 0 0 0 0 0 0 0 0 0 0 0 0 0 0 127 0"></feColorMatrix><feOffset dy="0.766"></feOffset><feGaussianBlur stdDeviation="0.306"></feGaussianBlur><feColorMatrix values="0 0 0 0 0.388235 0 0 0 0 0.388235 0 0 0 0 0.388235 0 0 0 0.07 0"></feColorMatrix><feBlend in2="BackgroundImageFix" result="effect1_dropShadow_5734_108659"></feBlend><feColorMatrix in="SourceAlpha" result="hardAlpha" values="0 0 0 0 0 0 0 0 0 0 0 0 0 0 0 0 0 0 127 0"></feColorMatrix><feOffset dy="1.84"></feOffset><feGaussianBlur stdDeviation="0.736"></feGaussianBlur><feColorMatrix values="0 0 0 0 0.388235 0 0 0 0 0.388235 0 0 0 0 0.388235 0 0 0 0.0503198 0"></feColorMatrix><feBlend in2="effect1_dropShadow_5734_108659" result="effect2_dropShadow_5734_108659"></feBlend><feColorMatrix in="SourceAlpha" result="hardAlpha" values="0 0 0 0 0 0 0 0 0 0 0 0 0 0 0 0 0 0 127 0"></feColorMatrix><feOffset dy="3.465"></feOffset><feGaussianBlur stdDeviation="1.386"></feGaussianBlur><feColorMatrix values="0 0 0 0 0.388235 0 0 0 0 0.388235 0 0 0 0 0.388235 0 0 0 0.0417275 0"></feColorMatrix><feBlend in2="effect2_dropShadow_5734_108659" result="effect3_dropShadow_5734_108659"></feBlend><feColorMatrix in="SourceAlpha" result="hardAlpha" values="0 0 0 0 0 0 0 0 0 0 0 0 0 0 0 0 0 0 127 0"></feColorMatrix><feOffset dy="6.181"></feOffset><feGaussianBlur stdDeviation="2.473"></feGaussianBlur><feColorMatrix values="0 0 0 0 0.388235 0 0 0 0 0.388235 0 0 0 0 0.388235 0 0 0 0.035 0"></feColorMatrix><feBlend in2="effect3_dropShadow_5734_108659" result="effect4_dropShadow_5734_108659"></feBlend><feColorMatrix in="SourceAlpha" result="hardAlpha" values="0 0 0 0 0 0 0 0 0 0 0 0 0 0 0 0 0 0 127 0"></feColorMatrix><feOffset dy="11.562"></feOffset><feGaussianBlur stdDeviation="4.625"></feGaussianBlur><feColorMatrix values="0 0 0 0 0.388235 0 0 0 0 0.388235 0 0 0 0 0.388235 0 0 0 0.0282725 0"></feColorMatrix><feBlend in2="effect4_dropShadow_5734_108659" result="effect5_dropShadow_5734_108659"></feBlend><feColorMatrix in="SourceAlpha" result="hardAlpha" values="0 0 0 0 0 0 0 0 0 0 0 0 0 0 0 0 0 0 127 0"></feColorMatrix><feOffset dy="27.674"></feOffset><feGaussianBlur stdDeviation="11.069"></feGaussianBlur><feColorMatrix values="0 0 0 0 0.388235 0 0 0 0 0.388235 0 0 0 0 0.388235 0 0 0 0.0196802 0"></feColorMatrix><feBlend in2="effect5_dropShadow_5734_108659" result="effect6_dropShadow_5734_108659"></feBlend><feBlend in="SourceGraphic" in2="effect6_dropShadow_5734_108659" result="shape"></feBlend></filter><filter id="OpenMailLight_svg__c" width="70.719" height="84.896" x="3.061" y="0.5" color-interpolation-filters="sRGB" filterUnits="userSpaceOnUse"><feFlood flood-opacity="0" result="BackgroundImageFix"></feFlood><feColorMatrix in="SourceAlpha" result="hardAlpha" values="0 0 0 0 0 0 0 0 0 0 0 0 0 0 0 0 0 0 127 0"></feColorMatrix><feOffset dy="0.643"></feOffset><feGaussianBlur stdDeviation="0.257"></feGaussianBlur><feColorMatrix values="0 0 0 0 0.388235 0 0 0 0 0.388235 0 0 0 0 0.388235 0 0 0 0.07 0"></feColorMatrix><feBlend in2="BackgroundImageFix" result="effect1_dropShadow_5734_108659"></feBlend><feColorMatrix in="SourceAlpha" result="hardAlpha" values="0 0 0 0 0 0 0 0 0 0 0 0 0 0 0 0 0 0 127 0"></feColorMatrix><feOffset dy="1.545"></feOffset><feGaussianBlur stdDeviation="0.618"></feGaussianBlur><feColorMatrix values="0 0 0 0 0.388235 0 0 0 0 0.388235 0 0 0 0 0.388235 0 0 0 0.0503198 0"></feColorMatrix><feBlend in2="effect1_dropShadow_5734_108659" result="effect2_dropShadow_5734_108659"></feBlend><feColorMatrix in="SourceAlpha" result="hardAlpha" values="0 0 0 0 0 0 0 0 0 0 0 0 0 0 0 0 0 0 127 0"></feColorMatrix><feOffset dy="2.91"></feOffset><feGaussianBlur stdDeviation="1.164"></feGaussianBlur><feColorMatrix values="0 0 0 0 0.388235 0 0 0 0 0.388235 0 0 0 0 0.388235 0 0 0 0.0417275 0"></feColorMatrix><feBlend in2="effect2_dropShadow_5734_108659" result="effect3_dropShadow_5734_108659"></feBlend><feColorMatrix in="SourceAlpha" result="hardAlpha" values="0 0 0 0 0 0 0 0 0 0 0 0 0 0 0 0 0 0 127 0"></feColorMatrix><feOffset dy="5.191"></feOffset><feGaussianBlur stdDeviation="2.076"></feGaussianBlur><feColorMatrix values="0 0 0 0 0.388235 0 0 0 0 0.388235 0 0 0 0 0.388235 0 0 0 0.035 0"></feColorMatrix><feBlend in2="effect3_dropShadow_5734_108659" result="effect4_dropShadow_5734_108659"></feBlend><feColorMatrix in="SourceAlpha" result="hardAlpha" values="0 0 0 0 0 0 0 0 0 0 0 0 0 0 0 0 0 0 127 0"></feColorMatrix><feOffset dy="9.709"></feOffset><feGaussianBlur stdDeviation="3.884"></feGaussianBlur><feColorMatrix values="0 0 0 0 0.388235 0 0 0 0 0.388235 0 0 0 0 0.388235 0 0 0 0.0282725 0"></feColorMatrix><feBlend in2="effect4_dropShadow_5734_108659" result="effect5_dropShadow_5734_108659"></feBlend><feColorMatrix in="SourceAlpha" result="hardAlpha" values="0 0 0 0 0 0 0 0 0 0 0 0 0 0 0 0 0 0 127 0"></feColorMatrix><feOffset dy="23.24"></feOffset><feGaussianBlur stdDeviation="9.296"></feGaussianBlur><feColorMatrix values="0 0 0 0 0.388235 0 0 0 0 0.388235 0 0 0 0 0.388235 0 0 0 0.0196802 0"></feColorMatrix><feBlend in2="effect5_dropShadow_5734_108659" result="effect6_dropShadow_5734_108659"></feBlend><feBlend in="SourceGraphic" in2="effect6_dropShadow_5734_108659" result="shape"></feBlend><feColorMatrix in="SourceAlpha" result="hardAlpha" values="0 0 0 0 0 0 0 0 0 0 0 0 0 0 0 0 0 0 127 0"></feColorMatrix><feOffset dy="0.232"></feOffset><feGaussianBlur stdDeviation="0.465"></feGaussianBlur><feComposite in2="hardAlpha" k2="-1" k3="1" operator="arithmetic"></feComposite><feColorMatrix values="0 0 0 0 1 0 0 0 0 1 0 0 0 0 1 0 0 0 1 0"></feColorMatrix><feBlend in2="shape" result="effect7_innerShadow_5734_108659"></feBlend></filter><filter id="OpenMailLight_svg__f" width="21.905" height="20.678" x="32.85" y="0.722" color-interpolation-filters="sRGB" filterUnits="userSpaceOnUse"><feFlood flood-opacity="0" result="BackgroundImageFix"></feFlood><feColorMatrix in="SourceAlpha" result="hardAlpha" values="0 0 0 0 0 0 0 0 0 0 0 0 0 0 0 0 0 0 127 0"></feColorMatrix><feOffset></feOffset><feColorMatrix values="0 0 0 0 0.294118 0 0 0 0 0.294118 0 0 0 0 0.294118 0 0 0 0.12 0"></feColorMatrix><feBlend in2="BackgroundImageFix" result="effect1_dropShadow_5734_108659"></feBlend><feColorMatrix in="SourceAlpha" result="hardAlpha" values="0 0 0 0 0 0 0 0 0 0 0 0 0 0 0 0 0 0 127 0"></feColorMatrix><feOffset dx="-0.465" dy="0.465"></feOffset><feGaussianBlur stdDeviation="0.697"></feGaussianBlur><feColorMatrix values="0 0 0 0 0.294118 0 0 0 0 0.294118 0 0 0 0 0.294118 0 0 0 0.11 0"></feColorMatrix><feBlend in2="effect1_dropShadow_5734_108659" result="effect2_dropShadow_5734_108659"></feBlend><feColorMatrix in="SourceAlpha" result="hardAlpha" values="0 0 0 0 0 0 0 0 0 0 0 0 0 0 0 0 0 0 127 0"></feColorMatrix><feOffset dx="-1.859" dy="1.627"></feOffset><feGaussianBlur stdDeviation="1.278"></feGaussianBlur><feColorMatrix values="0 0 0 0 0.294118 0 0 0 0 0.294118 0 0 0 0 0.294118 0 0 0 0.1 0"></feColorMatrix><feBlend in2="effect2_dropShadow_5734_108659" result="effect3_dropShadow_5734_108659"></feBlend><feColorMatrix in="SourceAlpha" result="hardAlpha" values="0 0 0 0 0 0 0 0 0 0 0 0 0 0 0 0 0 0 127 0"></feColorMatrix><feOffset dx="-4.416" dy="3.718"></feOffset><feGaussianBlur stdDeviation="1.743"></feGaussianBlur><feColorMatrix values="0 0 0 0 0.294118 0 0 0 0 0.294118 0 0 0 0 0.294118 0 0 0 0.06 0"></feColorMatrix><feBlend in2="effect3_dropShadow_5734_108659" result="effect4_dropShadow_5734_108659"></feBlend><feColorMatrix in="SourceAlpha" result="hardAlpha" values="0 0 0 0 0 0 0 0 0 0 0 0 0 0 0 0 0 0 127 0"></feColorMatrix><feOffset dx="-7.669" dy="6.507"></feOffset><feGaussianBlur stdDeviation="1.975"></feGaussianBlur><feColorMatrix values="0 0 0 0 0.294118 0 0 0 0 0.294118 0 0 0 0 0.294118 0 0 0 0.02 0"></feColorMatrix><feBlend in2="effect4_dropShadow_5734_108659" result="effect5_dropShadow_5734_108659"></feBlend><feBlend in="SourceGraphic" in2="effect5_dropShadow_5734_108659" result="shape"></feBlend></filter><filter id="OpenMailLight_svg__h" width="64.81" height="80.164" x="-6.141" y="18.649" color-interpolation-filters="sRGB" filterUnits="userSpaceOnUse"><feFlood flood-opacity="0" result="BackgroundImageFix"></feFlood><feColorMatrix in="SourceAlpha" result="hardAlpha" values="0 0 0 0 0 0 0 0 0 0 0 0 0 0 0 0 0 0 127 0"></feColorMatrix><feOffset dy="0.766"></feOffset><feGaussianBlur stdDeviation="0.306"></feGaussianBlur><feColorMatrix values="0 0 0 0 0.509804 0 0 0 0 0.509804 0 0 0 0 0.509804 0 0 0 0.07 0"></feColorMatrix><feBlend in2="BackgroundImageFix" result="effect1_dropShadow_5734_108659"></feBlend><feColorMatrix in="SourceAlpha" result="hardAlpha" values="0 0 0 0 0 0 0 0 0 0 0 0 0 0 0 0 0 0 127 0"></feColorMatrix><feOffset dy="1.84"></feOffset><feGaussianBlur stdDeviation="0.736"></feGaussianBlur><feColorMatrix values="0 0 0 0 0.509804 0 0 0 0 0.509804 0 0 0 0 0.509804 0 0 0 0.0503198 0"></feColorMatrix><feBlend in2="effect1_dropShadow_5734_108659" result="effect2_dropShadow_5734_108659"></feBlend><feColorMatrix in="SourceAlpha" result="hardAlpha" values="0 0 0 0 0 0 0 0 0 0 0 0 0 0 0 0 0 0 127 0"></feColorMatrix><feOffset dy="3.465"></feOffset><feGaussianBlur stdDeviation="1.386"></feGaussianBlur><feColorMatrix values="0 0 0 0 0.509804 0 0 0 0 0.509804 0 0 0 0 0.509804 0 0 0 0.0417275 0"></feColorMatrix><feBlend in2="effect2_dropShadow_5734_108659" result="effect3_dropShadow_5734_108659"></feBlend><feColorMatrix in="SourceAlpha" result="hardAlpha" values="0 0 0 0 0 0 0 0 0 0 0 0 0 0 0 0 0 0 127 0"></feColorMatrix><feOffset dy="6.181"></feOffset><feGaussianBlur stdDeviation="2.473"></feGaussianBlur><feColorMatrix values="0 0 0 0 0.509804 0 0 0 0 0.509804 0 0 0 0 0.509804 0 0 0 0.035 0"></feColorMatrix><feBlend in2="effect3_dropShadow_5734_108659" result="effect4_dropShadow_5734_108659"></feBlend><feColorMatrix in="SourceAlpha" result="hardAlpha" values="0 0 0 0 0 0 0 0 0 0 0 0 0 0 0 0 0 0 127 0"></feColorMatrix><feOffset dy="11.562"></feOffset><feGaussianBlur stdDeviation="4.625"></feGaussianBlur><feColorMatrix values="0 0 0 0 0.509804 0 0 0 0 0.509804 0 0 0 0 0.509804 0 0 0 0.0282725 0"></feColorMatrix><feBlend in2="effect4_dropShadow_5734_108659" result="effect5_dropShadow_5734_108659"></feBlend><feColorMatrix in="SourceAlpha" result="hardAlpha" values="0 0 0 0 0 0 0 0 0 0 0 0 0 0 0 0 0 0 127 0"></feColorMatrix><feOffset dy="27.674"></feOffset><feGaussianBlur stdDeviation="11.069"></feGaussianBlur><feColorMatrix values="0 0 0 0 0.509804 0 0 0 0 0.509804 0 0 0 0 0.509804 0 0 0 0.0196802 0"></feColorMatrix><feBlend in2="effect5_dropShadow_5734_108659" result="effect6_dropShadow_5734_108659"></feBlend><feColorMatrix in="SourceAlpha" result="hardAlpha" values="0 0 0 0 0 0 0 0 0 0 0 0 0 0 0 0 0 0 127 0"></feColorMatrix><feOffset></feOffset><feColorMatrix values="0 0 0 0 0.509804 0 0 0 0 0.509804 0 0 0 0 0.509804 0 0 0 0.1 0"></feColorMatrix><feBlend in2="effect6_dropShadow_5734_108659" result="effect7_dropShadow_5734_108659"></feBlend><feColorMatrix in="SourceAlpha" result="hardAlpha" values="0 0 0 0 0 0 0 0 0 0 0 0 0 0 0 0 0 0 127 0"></feColorMatrix><feOffset dy="-0.83"></feOffset><feGaussianBlur stdDeviation="0.83"></feGaussianBlur><feColorMatrix values="0 0 0 0 0.509804 0 0 0 0 0.509804 0 0 0 0 0.509804 0 0 0 0.1 0"></feColorMatrix><feBlend in2="effect7_dropShadow_5734_108659" result="effect8_dropShadow_5734_108659"></feBlend><feBlend in="SourceGraphic" in2="effect8_dropShadow_5734_108659" result="shape"></feBlend></filter><filter id="OpenMailLight_svg__j" width="64.81" height="80.164" x="18.159" y="18.649" color-interpolation-filters="sRGB" filterUnits="userSpaceOnUse"><feFlood flood-opacity="0" result="BackgroundImageFix"></feFlood><feColorMatrix in="SourceAlpha" result="hardAlpha" values="0 0 0 0 0 0 0 0 0 0 0 0 0 0 0 0 0 0 127 0"></feColorMatrix><feOffset dy="0.766"></feOffset><feGaussianBlur stdDeviation="0.306"></feGaussianBlur><feColorMatrix values="0 0 0 0 0.509804 0 0 0 0 0.509804 0 0 0 0 0.509804 0 0 0 0.07 0"></feColorMatrix><feBlend in2="BackgroundImageFix" result="effect1_dropShadow_5734_108659"></feBlend><feColorMatrix in="SourceAlpha" result="hardAlpha" values="0 0 0 0 0 0 0 0 0 0 0 0 0 0 0 0 0 0 127 0"></feColorMatrix><feOffset dy="1.84"></feOffset><feGaussianBlur stdDeviation="0.736"></feGaussianBlur><feColorMatrix values="0 0 0 0 0.509804 0 0 0 0 0.509804 0 0 0 0 0.509804 0 0 0 0.0503198 0"></feColorMatrix><feBlend in2="effect1_dropShadow_5734_108659" result="effect2_dropShadow_5734_108659"></feBlend><feColorMatrix in="SourceAlpha" result="hardAlpha" values="0 0 0 0 0 0 0 0 0 0 0 0 0 0 0 0 0 0 127 0"></feColorMatrix><feOffset dy="3.465"></feOffset><feGaussianBlur stdDeviation="1.386"></feGaussianBlur><feColorMatrix values="0 0 0 0 0.509804 0 0 0 0 0.509804 0 0 0 0 0.509804 0 0 0 0.0417275 0"></feColorMatrix><feBlend in2="effect2_dropShadow_5734_108659" result="effect3_dropShadow_5734_108659"></feBlend><feColorMatrix in="SourceAlpha" result="hardAlpha" values="0 0 0 0 0 0 0 0 0 0 0 0 0 0 0 0 0 0 127 0"></feColorMatrix><feOffset dy="6.181"></feOffset><feGaussianBlur stdDeviation="2.473"></feGaussianBlur><feColorMatrix values="0 0 0 0 0.509804 0 0 0 0 0.509804 0 0 0 0 0.509804 0 0 0 0.035 0"></feColorMatrix><feBlend in2="effect3_dropShadow_5734_108659" result="effect4_dropShadow_5734_108659"></feBlend><feColorMatrix in="SourceAlpha" result="hardAlpha" values="0 0 0 0 0 0 0 0 0 0 0 0 0 0 0 0 0 0 127 0"></feColorMatrix><feOffset dy="11.562"></feOffset><feGaussianBlur stdDeviation="4.625"></feGaussianBlur><feColorMatrix values="0 0 0 0 0.509804 0 0 0 0 0.509804 0 0 0 0 0.509804 0 0 0 0.0282725 0"></feColorMatrix><feBlend in2="effect4_dropShadow_5734_108659" result="effect5_dropShadow_5734_108659"></feBlend><feColorMatrix in="SourceAlpha" result="hardAlpha" values="0 0 0 0 0 0 0 0 0 0 0 0 0 0 0 0 0 0 127 0"></feColorMatrix><feOffset dy="27.674"></feOffset><feGaussianBlur stdDeviation="11.069"></feGaussianBlur><feColorMatrix values="0 0 0 0 0.509804 0 0 0 0 0.509804 0 0 0 0 0.509804 0 0 0 0.0196802 0"></feColorMatrix><feBlend in2="effect5_dropShadow_5734_108659" result="effect6_dropShadow_5734_108659"></feBlend><feColorMatrix in="SourceAlpha" result="hardAlpha" values="0 0 0 0 0 0 0 0 0 0 0 0 0 0 0 0 0 0 127 0"></feColorMatrix><feOffset></feOffset><feColorMatrix values="0 0 0 0 0.509804 0 0 0 0 0.509804 0 0 0 0 0.509804 0 0 0 0.1 0"></feColorMatrix><feBlend in2="effect6_dropShadow_5734_108659" result="effect7_dropShadow_5734_108659"></feBlend><feColorMatrix in="SourceAlpha" result="hardAlpha" values="0 0 0 0 0 0 0 0 0 0 0 0 0 0 0 0 0 0 127 0"></feColorMatrix><feOffset dy="-0.83"></feOffset><feGaussianBlur stdDeviation="0.83"></feGaussianBlur><feColorMatrix values="0 0 0 0 0.509804 0 0 0 0 0.509804 0 0 0 0 0.509804 0 0 0 0.1 0"></feColorMatrix><feBlend in2="effect7_dropShadow_5734_108659" result="effect8_dropShadow_5734_108659"></feBlend><feBlend in="SourceGraphic" in2="effect8_dropShadow_5734_108659" result="shape"></feBlend></filter><filter id="OpenMailLight_svg__l" width="54.24" height="38.657" x="11.294" y="11.174" color-interpolation-filters="sRGB" filterUnits="userSpaceOnUse"><feFlood flood-opacity="0" result="BackgroundImageFix"></feFlood><feColorMatrix in="SourceAlpha" result="hardAlpha" values="0 0 0 0 0 0 0 0 0 0 0 0 0 0 0 0 0 0 127 0"></feColorMatrix><feOffset></feOffset><feColorMatrix values="0 0 0 0 0.509804 0 0 0 0 0.509804 0 0 0 0 0.509804 0 0 0 0.1 0"></feColorMatrix><feBlend in2="BackgroundImageFix" result="effect1_dropShadow_5734_108659"></feBlend><feColorMatrix in="SourceAlpha" result="hardAlpha" values="0 0 0 0 0 0 0 0 0 0 0 0 0 0 0 0 0 0 127 0"></feColorMatrix><feOffset dy="-0.83"></feOffset><feGaussianBlur stdDeviation="0.83"></feGaussianBlur><feColorMatrix values="0 0 0 0 0.509804 0 0 0 0 0.509804 0 0 0 0 0.509804 0 0 0 0.1 0"></feColorMatrix><feBlend in2="effect1_dropShadow_5734_108659" result="effect2_dropShadow_5734_108659"></feBlend><feColorMatrix in="SourceAlpha" result="hardAlpha" values="0 0 0 0 0 0 0 0 0 0 0 0 0 0 0 0 0 0 127 0"></feColorMatrix><feOffset dy="-3.044"></feOffset><feGaussianBlur stdDeviation="1.522"></feGaussianBlur><feColorMatrix values="0 0 0 0 0.509804 0 0 0 0 0.509804 0 0 0 0 0.509804 0 0 0 0.09 0"></feColorMatrix><feBlend in2="effect2_dropShadow_5734_108659" result="effect3_dropShadow_5734_108659"></feBlend><feColorMatrix in="SourceAlpha" result="hardAlpha" values="0 0 0 0 0 0 0 0 0 0 0 0 0 0 0 0 0 0 127 0"></feColorMatrix><feOffset dy="-6.642"></feOffset><feGaussianBlur stdDeviation="1.937"></feGaussianBlur><feColorMatrix values="0 0 0 0 0.509804 0 0 0 0 0.509804 0 0 0 0 0.509804 0 0 0 0.05 0"></feColorMatrix><feBlend in2="effect3_dropShadow_5734_108659" result="effect4_dropShadow_5734_108659"></feBlend><feColorMatrix in="SourceAlpha" result="hardAlpha" values="0 0 0 0 0 0 0 0 0 0 0 0 0 0 0 0 0 0 127 0"></feColorMatrix><feOffset dy="-11.623"></feOffset><feGaussianBlur stdDeviation="2.352"></feGaussianBlur><feColorMatrix values="0 0 0 0 0.509804 0 0 0 0 0.509804 0 0 0 0 0.509804 0 0 0 0.01 0"></feColorMatrix><feBlend in2="effect4_dropShadow_5734_108659" result="effect5_dropShadow_5734_108659"></feBlend><feBlend in="SourceGraphic" in2="effect5_dropShadow_5734_108659" result="shape"></feBlend></filter><linearGradient id="OpenMailLight_svg__b" x1="38.416" x2="38.416" y1="13.577" y2="32.257" gradientUnits="userSpaceOnUse"><stop stop-color="#F1F1F1"></stop><stop offset="1" stop-color="#D0D0D0"></stop></linearGradient><linearGradient id="OpenMailLight_svg__d" x1="38.42" x2="38.42" y1="1" y2="43.064" gradientUnits="userSpaceOnUse"><stop stop-color="#FAFAFA"></stop><stop offset="1" stop-color="#FDFDFD"></stop></linearGradient><linearGradient id="OpenMailLight_svg__i" x1="38.414" x2="38.414" y1="49" y2="20.219" gradientUnits="userSpaceOnUse"><stop stop-color="#FAFAFA"></stop><stop offset="1" stop-color="#fff"></stop></linearGradient><linearGradient id="OpenMailLight_svg__k" x1="38.414" x2="38.414" y1="49" y2="20.219" gradientUnits="userSpaceOnUse"><stop stop-color="#FAFAFA"></stop><stop offset="1" stop-color="#fff"></stop></linearGradient><linearGradient id="OpenMailLight_svg__m" x1="15.998" x2="60.83" y1="26.584" y2="26.584" gradientUnits="userSpaceOnUse"><stop stop-color="#FAFAFA"></stop><stop offset="1" stop-color="#fff"></stop></linearGradient><radialGradient id="OpenMailLight_svg__n" cx="0" cy="0" r="1" gradientTransform="matrix(0 -22.4159 54.2705 0 38.414 49)" gradientUnits="userSpaceOnUse"><stop offset="0.16" stop-color="#fff"></stop><stop offset="1" stop-color="#fff" stop-opacity="0"></stop></radialGradient><clipPath id="OpenMailLight_svg__g"><path fill="#fff" d="M16 20.219h44.831v26.567A2.214 2.214 0 0 1 58.617 49H18.215A2.214 2.214 0 0 1 16 46.786z"></path></clipPath></defs></svg>