<svg xmlns="http://www.w3.org/2000/svg" width="61" height="82" fill="none"><g filter="url(#OpenMailDark_svg__a)"><path fill="url(#OpenMailDark_svg__b)" d="M8 27.575c0-.66 0-.99.088-1.293.078-.268.205-.518.376-.739.192-.248.46-.443.993-.832L28.33 10.964c.75-.546 1.125-.819 1.534-.924a2.2 2.2 0 0 1 1.104 0c.41.105.784.378 1.534.924l18.873 13.747c.534.39.8.584.993.832.17.22.298.471.376.739.088.302.088.632.088 1.293v22.883c0 1.24 0 1.86-.242 2.333-.212.417-.55.755-.967.968-.474.24-1.094.24-2.334.24H11.543c-1.24 0-1.86 0-2.334-.24a2.2 2.2 0 0 1-.967-.968C8 52.318 8 51.698 8 50.458z"></path><path stroke="#fff" stroke-opacity="0.2" stroke-width="0.5" d="M8.25 27.575c0-.675.003-.963.078-1.223.069-.238.182-.46.333-.656.166-.214.397-.385.943-.783l18.874-13.747c.766-.559 1.096-.793 1.449-.884.32-.083.657-.083.978 0 .353.09.682.325 1.45.884l18.873 13.747c.545.398.777.57.942.783.152.196.265.418.334.656.075.26.078.547.078 1.223v22.883c0 .624 0 1.077-.03 1.433-.029.354-.085.59-.184.787-.189.37-.49.67-.859.858-.195.1-.432.156-.786.185-.356.029-.81.029-1.434.029H11.543c-.625 0-1.078 0-1.434-.03-.354-.028-.59-.084-.786-.184a1.96 1.96 0 0 1-.859-.858c-.1-.196-.156-.433-.184-.787-.03-.356-.03-.81-.03-1.433z"></path></g><g filter="url(#OpenMailDark_svg__c)"><path fill="url(#OpenMailDark_svg__d)" fill-rule="evenodd" d="M30.929 2h2.895c2.055 0 4.023.828 5.46 2.297l6.775 6.93a7.64 7.64 0 0 1 2.176 5.338v29.871c0 .57 0 .855-.11 1.073a1 1 0 0 1-.446.444c-.217.111-.502.111-1.073.111H14.234c-.57 0-.855 0-1.072-.11a1 1 0 0 1-.445-.445c-.111-.218-.111-.503-.111-1.073V3.629c0-.57 0-.855.11-1.073.098-.192.254-.347.446-.445C13.379 2 13.664 2 14.234 2z" clip-rule="evenodd"></path></g><mask id="OpenMailDark_svg__f" width="31" height="17" x="14.372" y="8.392" fill="#000" maskUnits="userSpaceOnUse"><path fill="#fff" d="M14.372 8.392h31v17h-31z"></path><path fill-rule="evenodd" d="M15.372 11.035c0-.908.736-1.643 1.643-1.643h4.107a1.643 1.643 0 0 1 0 3.285h-4.107a1.643 1.643 0 0 1-1.643-1.642m0 5.749c0-.907.735-1.643 1.643-1.643h25.46a1.643 1.643 0 1 1 0 3.285h-25.46a1.643 1.643 0 0 1-1.643-1.642m1.643 4.106a1.643 1.643 0 0 0 0 3.286h17.247a1.643 1.643 0 1 0 0-3.286z" clip-rule="evenodd"></path></mask><path fill="#e6658a" fill-rule="evenodd" d="M15.372 11.035c0-.908.736-1.643 1.643-1.643h4.107a1.643 1.643 0 0 1 0 3.285h-4.107a1.643 1.643 0 0 1-1.643-1.642m0 5.749c0-.907.735-1.643 1.643-1.643h25.46a1.643 1.643 0 1 1 0 3.285h-25.46a1.643 1.643 0 0 1-1.643-1.642m1.643 4.106a1.643 1.643 0 0 0 0 3.286h17.247a1.643 1.643 0 1 0 0-3.286z" clip-rule="evenodd"></path><path fill="url(#OpenMailDark_svg__e)" d="M17.015 8.825c-1.22 0-2.21.99-2.21 2.21h1.134c0-.595.482-1.076 1.076-1.076zm4.107 0h-4.107V9.96h4.107zm2.209 2.21c0-1.22-.99-2.21-2.21-2.21V9.96c.595 0 1.077.481 1.077 1.076zm-2.21 2.209c1.22 0 2.21-.99 2.21-2.21h-1.133c0 .595-.482 1.076-1.076 1.076zm-4.106 0h4.107V12.11h-4.107zm-2.21-2.21c0 1.22.99 2.21 2.21 2.21V12.11a1.076 1.076 0 0 1-1.076-1.075zm2.21 3.54c-1.22 0-2.21.99-2.21 2.21h1.134c0-.594.481-1.076 1.076-1.076zm25.46 0h-25.46v1.134h25.46zm2.21 2.21c0-1.22-.99-2.21-2.21-2.21v1.134c.595 0 1.076.481 1.076 1.076zm-2.21 2.21c1.22 0 2.21-.99 2.21-2.21H43.55c0 .594-.481 1.076-1.076 1.076zm-25.46 0h25.46V17.86h-25.46zm-2.21-2.21c0 1.22.99 2.21 2.21 2.21V17.86a1.076 1.076 0 0 1-1.076-1.076zm1.134 5.749c0-.594.481-1.076 1.076-1.076v-1.133c-1.22 0-2.21.989-2.21 2.209zm1.076 1.076a1.076 1.076 0 0 1-1.076-1.076h-1.134c0 1.22.99 2.21 2.21 2.21zm17.247 0H17.015v1.133h17.247zm1.076-1.076c0 .594-.482 1.076-1.076 1.076v1.133c1.22 0 2.21-.989 2.21-2.209zm-1.076-1.076c.594 0 1.076.482 1.076 1.076h1.134c0-1.22-.99-2.21-2.21-2.21zm-17.247 0h17.247v-1.133H17.015z" mask="url(#OpenMailDark_svg__f)"></path><g filter="url(#OpenMailDark_svg__g)"><path fill="#6F6F6F" fill-rule="evenodd" d="M37.044 2.713c.828.385 1.588.92 2.239 1.585l6.775 6.93c.49.5.903 1.06 1.234 1.664a4.06 4.06 0 0 0-3.08-1.473h-3.87a1.527 1.527 0 0 1-1.527-1.527V6.073a4.07 4.07 0 0 0-1.771-3.36" clip-rule="evenodd"></path></g><g clip-path="url(#OpenMailDark_svg__h)"><path fill="url(#OpenMailDark_svg__i)" stroke="url(#OpenMailDark_svg__j)" stroke-width="0.5" d="M8.249 28.46v25.082L25.636 42.38c.777-.499 1.344-.863 1.753-1.182s.628-.567.736-.824a1.96 1.96 0 0 0 0-1.53c-.108-.256-.328-.505-.736-.823-.409-.319-.976-.683-1.753-1.182l-15.045-9.658c-.448-.288-.77-.495-1.025-.627-.258-.134-.41-.172-.522-.164a.86.86 0 0 0-.625.342l-.2-.15.2.15c-.067.09-.117.238-.144.527-.026.287-.026.669-.026 1.202Z"></path><path fill="url(#OpenMailDark_svg__k)" stroke="url(#OpenMailDark_svg__l)" stroke-width="0.5" d="M52.58 28.46v25.082L35.192 42.38c-.776-.499-1.344-.863-1.752-1.182-.409-.318-.628-.567-.737-.824a1.96 1.96 0 0 1 0-1.53c.109-.256.328-.505.736-.823.409-.319.977-.683 1.753-1.182l15.045-9.658c.448-.288.77-.495 1.026-.627.257-.134.409-.172.521-.164a.86.86 0 0 1 .625.342l.2-.15-.2.15c.068.09.118.238.144.527.027.287.027.669.027 1.202Z"></path><g filter="url(#OpenMailDark_svg__m)"><path fill="url(#OpenMailDark_svg__n)" d="m7.999 54 19.91-19.911c.877-.877 1.316-1.315 1.821-1.48a2.2 2.2 0 0 1 1.368 0c.506.165.944.603 1.821 1.48L52.829 54z"></path><path stroke="url(#OpenMailDark_svg__o)" stroke-width="0.5" d="M52.226 53.75H8.602l19.484-19.484c.442-.442.762-.762 1.035-.993.27-.23.478-.358.686-.426.395-.128.82-.128 1.214 0 .209.068.416.196.687.426.272.231.593.551 1.034.993z"></path></g><path fill="url(#OpenMailDark_svg__p)" d="M7.999 54V35.126c0-1.24 0-1.86.24-2.333.213-.417.552-.755.968-.968.474-.24 1.094-.24 2.334-.24h37.747c1.24 0 1.86 0 2.333.24.417.213.755.551.968.968.24.474.24 1.093.24 2.333V54z"></path></g><path fill="#000" fill-opacity="0.3" d="M8 25.219h44.831zm44.831 26.567a2.714 2.714 0 0 1-2.714 2.714H10.715A2.714 2.714 0 0 1 8 51.786c0 .946.991 1.714 2.214 1.714h40.403c1.223 0 2.214-.768 2.214-1.714M8 54V25.219zm44.831-28.781v28.78z" mask="url(#OpenMailDark_svg__path-7-outside-2_5782_105178)"></path><defs><linearGradient id="OpenMailDark_svg__b" x1="30.416" x2="31.188" y1="9.445" y2="41.048" gradientUnits="userSpaceOnUse"><stop stop-color="#121212"></stop><stop offset="1" stop-color="#2C2C2C"></stop></linearGradient><linearGradient id="OpenMailDark_svg__d" x1="30.421" x2="29.96" y1="2" y2="37.043" gradientUnits="userSpaceOnUse"><stop stop-color="#383838"></stop><stop offset="0.615" stop-color="#2D2D2D"></stop><stop offset="1" stop-color="#171717"></stop></linearGradient><linearGradient id="OpenMailDark_svg__e" x1="29.745" x2="29.745" y1="9.392" y2="24.176" gradientUnits="userSpaceOnUse"><stop stop-color="#555"></stop><stop offset="1" stop-color="#464646"></stop></linearGradient><linearGradient id="OpenMailDark_svg__i" x1="8" x2="24.5" y1="26" y2="38.5" gradientUnits="userSpaceOnUse"><stop stop-color="#474747"></stop><stop offset="1" stop-color="#151515"></stop></linearGradient><linearGradient id="OpenMailDark_svg__j" x1="19.206" x2="19.206" y1="54" y2="25.219" gradientUnits="userSpaceOnUse"><stop stop-color="#fff" stop-opacity="0"></stop><stop offset="1" stop-color="#fff" stop-opacity="0.05"></stop></linearGradient><linearGradient id="OpenMailDark_svg__k" x1="38" x2="53" y1="40" y2="25" gradientUnits="userSpaceOnUse"><stop stop-color="#151515"></stop><stop offset="1" stop-color="#4B4B4B"></stop></linearGradient><linearGradient id="OpenMailDark_svg__l" x1="41.622" x2="41.622" y1="54" y2="25.219" gradientUnits="userSpaceOnUse"><stop stop-color="#fff" stop-opacity="0"></stop><stop offset="1" stop-color="#fff" stop-opacity="0.05"></stop></linearGradient><linearGradient id="OpenMailDark_svg__n" x1="30.5" x2="30" y1="32.5" y2="55" gradientUnits="userSpaceOnUse"><stop stop-color="#515151"></stop><stop offset="1" stop-color="#434343"></stop></linearGradient><linearGradient id="OpenMailDark_svg__o" x1="7.999" x2="52.83" y1="42.792" y2="42.792" gradientUnits="userSpaceOnUse"><stop stop-color="#fff" stop-opacity="0"></stop><stop offset="1" stop-color="#fff" stop-opacity="0.05"></stop></linearGradient><filter id="OpenMailDark_svg__a" width="60.831" height="74.03" x="0" y="7.97" color-interpolation-filters="sRGB" filterUnits="userSpaceOnUse"><feFlood flood-opacity="0" result="BackgroundImageFix"></feFlood><feColorMatrix in="SourceAlpha" result="hardAlpha" values="0 0 0 0 0 0 0 0 0 0 0 0 0 0 0 0 0 0 127 0"></feColorMatrix><feOffset></feOffset><feColorMatrix values="0 0 0 0 0 0 0 0 0 0 0 0 0 0 0 0 0 0 0.1 0"></feColorMatrix><feBlend in2="BackgroundImageFix" result="effect1_dropShadow_5782_105178"></feBlend><feColorMatrix in="SourceAlpha" result="hardAlpha" values="0 0 0 0 0 0 0 0 0 0 0 0 0 0 0 0 0 0 127 0"></feColorMatrix><feOffset dy="1"></feOffset><feGaussianBlur stdDeviation="1.5"></feGaussianBlur><feColorMatrix values="0 0 0 0 0 0 0 0 0 0 0 0 0 0 0 0 0 0 0.1 0"></feColorMatrix><feBlend in2="effect1_dropShadow_5782_105178" result="effect2_dropShadow_5782_105178"></feBlend><feColorMatrix in="SourceAlpha" result="hardAlpha" values="0 0 0 0 0 0 0 0 0 0 0 0 0 0 0 0 0 0 127 0"></feColorMatrix><feOffset dy="5"></feOffset><feGaussianBlur stdDeviation="2.5"></feGaussianBlur><feColorMatrix values="0 0 0 0 0 0 0 0 0 0 0 0 0 0 0 0 0 0 0.09 0"></feColorMatrix><feBlend in2="effect2_dropShadow_5782_105178" result="effect3_dropShadow_5782_105178"></feBlend><feColorMatrix in="SourceAlpha" result="hardAlpha" values="0 0 0 0 0 0 0 0 0 0 0 0 0 0 0 0 0 0 127 0"></feColorMatrix><feOffset dy="11"></feOffset><feGaussianBlur stdDeviation="3.5"></feGaussianBlur><feColorMatrix values="0 0 0 0 0 0 0 0 0 0 0 0 0 0 0 0 0 0 0.05 0"></feColorMatrix><feBlend in2="effect3_dropShadow_5782_105178" result="effect4_dropShadow_5782_105178"></feBlend><feColorMatrix in="SourceAlpha" result="hardAlpha" values="0 0 0 0 0 0 0 0 0 0 0 0 0 0 0 0 0 0 127 0"></feColorMatrix><feOffset dy="20"></feOffset><feGaussianBlur stdDeviation="4"></feGaussianBlur><feColorMatrix values="0 0 0 0 0 0 0 0 0 0 0 0 0 0 0 0 0 0 0.01 0"></feColorMatrix><feBlend in2="effect4_dropShadow_5782_105178" result="effect5_dropShadow_5782_105178"></feBlend><feBlend in="SourceGraphic" in2="effect5_dropShadow_5782_105178" result="shape"></feBlend></filter><filter id="OpenMailDark_svg__c" width="35.63" height="46.319" x="12.606" y="2" color-interpolation-filters="sRGB" filterUnits="userSpaceOnUse"><feFlood flood-opacity="0" result="BackgroundImageFix"></feFlood><feBlend in="SourceGraphic" in2="BackgroundImageFix" result="shape"></feBlend><feColorMatrix in="SourceAlpha" result="hardAlpha" values="0 0 0 0 0 0 0 0 0 0 0 0 0 0 0 0 0 0 127 0"></feColorMatrix><feOffset dy="0.254"></feOffset><feGaussianBlur stdDeviation="0.509"></feGaussianBlur><feComposite in2="hardAlpha" k2="-1" k3="1" operator="arithmetic"></feComposite><feColorMatrix values="0 0 0 0 1 0 0 0 0 1 0 0 0 0 1 0 0 0 0.1 0"></feColorMatrix><feBlend in2="shape" result="effect1_innerShadow_5782_105178"></feBlend></filter><filter id="OpenMailDark_svg__g" width="17.883" height="17.813" x="31.227" y="0.896" color-interpolation-filters="sRGB" filterUnits="userSpaceOnUse"><feFlood flood-opacity="0" result="BackgroundImageFix"></feFlood><feColorMatrix in="SourceAlpha" result="hardAlpha" values="0 0 0 0 0 0 0 0 0 0 0 0 0 0 0 0 0 0 127 0"></feColorMatrix><feOffset></feOffset><feColorMatrix values="0 0 0 0 0.294118 0 0 0 0 0.294118 0 0 0 0 0.294118 0 0 0 0.12 0"></feColorMatrix><feBlend in2="BackgroundImageFix" result="effect1_dropShadow_5782_105178"></feBlend><feColorMatrix in="SourceAlpha" result="hardAlpha" values="0 0 0 0 0 0 0 0 0 0 0 0 0 0 0 0 0 0 127 0"></feColorMatrix><feOffset dx="-0.509" dy="0.509"></feOffset><feGaussianBlur stdDeviation="0.763"></feGaussianBlur><feColorMatrix values="0 0 0 0 0.294118 0 0 0 0 0.294118 0 0 0 0 0.294118 0 0 0 0.11 0"></feColorMatrix><feBlend in2="effect1_dropShadow_5782_105178" result="effect2_dropShadow_5782_105178"></feBlend><feColorMatrix in="SourceAlpha" result="hardAlpha" values="0 0 0 0 0 0 0 0 0 0 0 0 0 0 0 0 0 0 127 0"></feColorMatrix><feOffset dx="-2.036" dy="1.781"></feOffset><feGaussianBlur stdDeviation="1.4"></feGaussianBlur><feColorMatrix values="0 0 0 0 0.294118 0 0 0 0 0.294118 0 0 0 0 0.294118 0 0 0 0.1 0"></feColorMatrix><feBlend in2="effect2_dropShadow_5782_105178" result="effect3_dropShadow_5782_105178"></feBlend><feColorMatrix in="SourceAlpha" result="hardAlpha" values="0 0 0 0 0 0 0 0 0 0 0 0 0 0 0 0 0 0 127 0"></feColorMatrix><feOffset dx="-2" dy="2"></feOffset><feGaussianBlur stdDeviation="1.909"></feGaussianBlur><feColorMatrix values="0 0 0 0 0 0 0 0 0 0 0 0 0 0 0 0 0 0 0.26 0"></feColorMatrix><feBlend in2="effect3_dropShadow_5782_105178" result="effect4_dropShadow_5782_105178"></feBlend><feBlend in="SourceGraphic" in2="effect4_dropShadow_5782_105178" result="shape"></feBlend><feColorMatrix in="SourceAlpha" result="hardAlpha" values="0 0 0 0 0 0 0 0 0 0 0 0 0 0 0 0 0 0 127 0"></feColorMatrix><feOffset dy="4.38"></feOffset><feGaussianBlur stdDeviation="2.19"></feGaussianBlur><feComposite in2="hardAlpha" k2="-1" k3="1" operator="arithmetic"></feComposite><feColorMatrix values="0 0 0 0 0 0 0 0 0 0 0 0 0 0 0 0 0 0 0.25 0"></feColorMatrix><feBlend in2="shape" result="effect5_innerShadow_5782_105178"></feBlend></filter><filter id="OpenMailDark_svg__m" width="54.24" height="38.657" x="3.294" y="16.174" color-interpolation-filters="sRGB" filterUnits="userSpaceOnUse"><feFlood flood-opacity="0" result="BackgroundImageFix"></feFlood><feColorMatrix in="SourceAlpha" result="hardAlpha" values="0 0 0 0 0 0 0 0 0 0 0 0 0 0 0 0 0 0 127 0"></feColorMatrix><feOffset></feOffset><feColorMatrix values="0 0 0 0 0 0 0 0 0 0 0 0 0 0 0 0 0 0 0.1 0"></feColorMatrix><feBlend in2="BackgroundImageFix" result="effect1_dropShadow_5782_105178"></feBlend><feColorMatrix in="SourceAlpha" result="hardAlpha" values="0 0 0 0 0 0 0 0 0 0 0 0 0 0 0 0 0 0 127 0"></feColorMatrix><feOffset dy="-0.83"></feOffset><feGaussianBlur stdDeviation="0.83"></feGaussianBlur><feColorMatrix values="0 0 0 0 0 0 0 0 0 0 0 0 0 0 0 0 0 0 0.1 0"></feColorMatrix><feBlend in2="effect1_dropShadow_5782_105178" result="effect2_dropShadow_5782_105178"></feBlend><feColorMatrix in="SourceAlpha" result="hardAlpha" values="0 0 0 0 0 0 0 0 0 0 0 0 0 0 0 0 0 0 127 0"></feColorMatrix><feOffset dy="-3.044"></feOffset><feGaussianBlur stdDeviation="1.522"></feGaussianBlur><feColorMatrix values="0 0 0 0 0 0 0 0 0 0 0 0 0 0 0 0 0 0 0.09 0"></feColorMatrix><feBlend in2="effect2_dropShadow_5782_105178" result="effect3_dropShadow_5782_105178"></feBlend><feColorMatrix in="SourceAlpha" result="hardAlpha" values="0 0 0 0 0 0 0 0 0 0 0 0 0 0 0 0 0 0 127 0"></feColorMatrix><feOffset dy="-6.642"></feOffset><feGaussianBlur stdDeviation="1.937"></feGaussianBlur><feColorMatrix values="0 0 0 0 0 0 0 0 0 0 0 0 0 0 0 0 0 0 0.05 0"></feColorMatrix><feBlend in2="effect3_dropShadow_5782_105178" result="effect4_dropShadow_5782_105178"></feBlend><feColorMatrix in="SourceAlpha" result="hardAlpha" values="0 0 0 0 0 0 0 0 0 0 0 0 0 0 0 0 0 0 127 0"></feColorMatrix><feOffset dy="-11.623"></feOffset><feGaussianBlur stdDeviation="2.352"></feGaussianBlur><feColorMatrix values="0 0 0 0 0 0 0 0 0 0 0 0 0 0 0 0 0 0 0.01 0"></feColorMatrix><feBlend in2="effect4_dropShadow_5782_105178" result="effect5_dropShadow_5782_105178"></feBlend><feBlend in="SourceGraphic" in2="effect5_dropShadow_5782_105178" result="shape"></feBlend></filter><radialGradient id="OpenMailDark_svg__p" cx="0" cy="0" r="1" gradientTransform="matrix(0 -22.4159 54.2705 0 30.414 54)" gradientUnits="userSpaceOnUse"><stop offset="0.352" stop-color="#434343"></stop><stop offset="1" stop-color="#565656" stop-opacity="0"></stop></radialGradient><clipPath id="OpenMailDark_svg__h"><path fill="#fff" d="M8 25.219h44.831v26.567A2.214 2.214 0 0 1 50.617 54H10.215A2.214 2.214 0 0 1 8 51.786z"></path></clipPath></defs></svg>