<svg xmlns="http://www.w3.org/2000/svg" width="88" height="74" fill="none"><g filter="url(#ZeroDollarsPennyDark_svg__a)"><rect width="69.612" height="13.791" x="9" y="30.876" fill="url(#ZeroDollarsPennyDark_svg__b)" rx="6.896"></rect><rect width="70.065" height="14.244" x="8.774" y="30.65" stroke="#000" stroke-opacity="0.1" stroke-width="0.453" rx="7.122"></rect></g><g filter="url(#ZeroDollarsPennyDark_svg__c)"><rect width="56.478" height="4.597" x="15.567" y="35.472" fill="#000" rx="2.299"></rect></g><mask id="ZeroDollarsPennyDark_svg__d" width="58" height="41" x="15" y="0" maskUnits="userSpaceOnUse" style="mask-type:alpha"><path fill="#EAEAEA" d="M15.564.667H72.04v36.776a2.627 2.627 0 0 1-2.627 2.627H18.19a2.627 2.627 0 0 1-2.627-2.627z"></path></mask><g mask="url(#ZeroDollarsPennyDark_svg__d)"><g filter="url(#ZeroDollarsPennyDark_svg__e)"><circle cx="43.803" cy="30.801" r="26.925" fill="url(#ZeroDollarsPennyDark_svg__f)"></circle><circle cx="43.803" cy="30.801" r="27.152" stroke="#000" stroke-opacity="0.1" stroke-width="0.453"></circle></g><g filter="url(#ZeroDollarsPennyDark_svg__g)"><circle cx="43.801" cy="30.801" r="22.985" fill="url(#ZeroDollarsPennyDark_svg__h)"></circle></g><path fill="url(#ZeroDollarsPennyDark_svg__i)" stroke="url(#ZeroDollarsPennyDark_svg__j)" stroke-width="0.458" d="M38.821 38.012h.002c1.067-.434 1.914-1.06 2.53-1.879.631-.835.942-1.84.942-3v-.026c0-1.415-.457-2.55-1.388-3.375-.908-.81-2.264-1.394-4.04-1.768l-.815-.17v-3.92q.347.06.639.165c.439.157.782.388 1.038.69l.002.002c.254.291.414.652.476 1.092l.001.01.002.008.025.114.04.18h3.809l-.03-.257-.025-.21Q41.9 24.046 41 22.89c-.592-.777-1.396-1.363-2.404-1.763q-1.135-.464-2.543-.574v-2.13h-1.72v2.12q-1.508.104-2.736.623c-1.025.435-1.834 1.056-2.417 1.868-.585.808-.875 1.756-.875 2.833v.025c0 .925.196 1.74.598 2.436q.605 1.031 1.786 1.71l.002.002c.782.443 1.744.782 2.878 1.021l.764.163v4.082a4 4 0 0 1-.89-.207c-.475-.174-.829-.41-1.075-.7a2.4 2.4 0 0 1-.481-1.044l-.025-.138-.034-.188h-3.804l.016.245.013.189v.001c.079 1.084.425 2.024 1.045 2.812l.002.002q.94 1.161 2.503 1.772h.002q1.225.47 2.728.569v2.121h1.72v-2.124q1.52-.107 2.77-.604Zm-5.308-13.95q.355-.146.82-.21v3.573a5.2 5.2 0 0 1-1.102-.398c-.355-.19-.592-.4-.733-.625a1.45 1.45 0 0 1-.217-.787v-.025c0-.32.096-.607.294-.871.204-.27.51-.491.934-.656zm2.539 11.265v-3.73c.88.216 1.451.463 1.752.724l.004.004c.34.281.51.652.51 1.135v.025c0 .367-.1.685-.297.964-.194.265-.505.49-.955.663q-.418.155-1.014.215Zm22.31-.642q.915-2.173.913-5.097v-.025c0-1.957-.302-3.658-.914-5.097-.611-1.439-1.49-2.556-2.641-3.34-1.145-.796-2.512-1.189-4.09-1.189-1.579 0-2.95.393-4.103 1.188-1.15.785-2.03 1.902-2.642 3.34v.002c-.603 1.439-.9 3.14-.9 5.096v.025c0 1.948.297 3.649.9 5.096v.001c.612 1.439 1.491 2.56 2.642 3.353 1.153.795 2.524 1.188 4.103 1.188s2.945-.393 4.09-1.188c1.15-.793 2.03-1.914 2.641-3.353Zm-9.666-8.475v-.001c.27-.924.657-1.607 1.148-2.066.494-.464 1.085-.695 1.786-.695.7 0 1.286.231 1.771.693l.002.002c.49.46.877 1.142 1.147 2.066v.002q.419 1.37.42 3.352v.025q-.002 1.97-.42 3.352v.002c-.27.925-.657 1.612-1.149 2.08-.485.463-1.071.694-1.771.694s-1.291-.231-1.785-.694c-.492-.469-.879-1.156-1.149-2.08q-.406-1.384-.407-3.354v-.025q.002-1.982.407-3.353Z"></path></g><defs><linearGradient id="ZeroDollarsPennyDark_svg__b" x1="43.806" x2="43.806" y1="30.876" y2="44.667" gradientUnits="userSpaceOnUse"><stop stop-color="#494949"></stop><stop offset="1" stop-color="#3A3A3A"></stop></linearGradient><linearGradient id="ZeroDollarsPennyDark_svg__f" x1="43.803" x2="43" y1="3.875" y2="39.834" gradientUnits="userSpaceOnUse"><stop stop-color="#474747"></stop><stop offset="0.89" stop-color="#3D3D3D"></stop><stop offset="1" stop-color="#020202"></stop></linearGradient><linearGradient id="ZeroDollarsPennyDark_svg__h" x1="43.801" x2="43.804" y1="7.816" y2="40.313" gradientUnits="userSpaceOnUse"><stop stop-color="#333"></stop><stop offset="0.867" stop-color="#232323"></stop><stop offset="1"></stop></linearGradient><linearGradient id="ZeroDollarsPennyDark_svg__i" x1="43.657" x2="43.657" y1="18.653" y2="40.511" gradientUnits="userSpaceOnUse"><stop stop-color="#e6658a"></stop><stop offset="0.714" stop-color="#724f59"></stop><stop offset="1" stop-color="#72404e"></stop></linearGradient><linearGradient id="ZeroDollarsPennyDark_svg__j" x1="43.657" x2="43.657" y1="18.653" y2="40.511" gradientUnits="userSpaceOnUse"><stop stop-color="#323232"></stop><stop offset="1"></stop></linearGradient><filter id="ZeroDollarsPennyDark_svg__a" width="86.518" height="44.697" x="0.547" y="28.423" color-interpolation-filters="sRGB" filterUnits="userSpaceOnUse"><feFlood flood-opacity="0" result="BackgroundImageFix"></feFlood><feColorMatrix in="SourceAlpha" result="hardAlpha" values="0 0 0 0 0 0 0 0 0 0 0 0 0 0 0 0 0 0 127 0"></feColorMatrix><feOffset></feOffset><feColorMatrix values="0 0 0 0 0 0 0 0 0 0 0 0 0 0 0 0 0 0 0.1 0"></feColorMatrix><feBlend in2="BackgroundImageFix" result="effect1_dropShadow_5782_105212"></feBlend><feColorMatrix in="SourceAlpha" result="hardAlpha" values="0 0 0 0 0 0 0 0 0 0 0 0 0 0 0 0 0 0 127 0"></feColorMatrix><feOffset dy="1"></feOffset><feGaussianBlur stdDeviation="1.5"></feGaussianBlur><feColorMatrix values="0 0 0 0 0 0 0 0 0 0 0 0 0 0 0 0 0 0 0.1 0"></feColorMatrix><feBlend in2="effect1_dropShadow_5782_105212" result="effect2_dropShadow_5782_105212"></feBlend><feColorMatrix in="SourceAlpha" result="hardAlpha" values="0 0 0 0 0 0 0 0 0 0 0 0 0 0 0 0 0 0 127 0"></feColorMatrix><feOffset dy="5"></feOffset><feGaussianBlur stdDeviation="2.5"></feGaussianBlur><feColorMatrix values="0 0 0 0 0 0 0 0 0 0 0 0 0 0 0 0 0 0 0.09 0"></feColorMatrix><feBlend in2="effect2_dropShadow_5782_105212" result="effect3_dropShadow_5782_105212"></feBlend><feColorMatrix in="SourceAlpha" result="hardAlpha" values="0 0 0 0 0 0 0 0 0 0 0 0 0 0 0 0 0 0 127 0"></feColorMatrix><feOffset dy="11"></feOffset><feGaussianBlur stdDeviation="3.5"></feGaussianBlur><feColorMatrix values="0 0 0 0 0 0 0 0 0 0 0 0 0 0 0 0 0 0 0.05 0"></feColorMatrix><feBlend in2="effect3_dropShadow_5782_105212" result="effect4_dropShadow_5782_105212"></feBlend><feColorMatrix in="SourceAlpha" result="hardAlpha" values="0 0 0 0 0 0 0 0 0 0 0 0 0 0 0 0 0 0 127 0"></feColorMatrix><feOffset dy="20"></feOffset><feGaussianBlur stdDeviation="4"></feGaussianBlur><feColorMatrix values="0 0 0 0 0 0 0 0 0 0 0 0 0 0 0 0 0 0 0.01 0"></feColorMatrix><feBlend in2="effect4_dropShadow_5782_105212" result="effect5_dropShadow_5782_105212"></feBlend><feBlend in="SourceGraphic" in2="effect5_dropShadow_5782_105212" result="shape"></feBlend></filter><filter id="ZeroDollarsPennyDark_svg__c" width="56.478" height="7.224" x="15.567" y="35.472" color-interpolation-filters="sRGB" filterUnits="userSpaceOnUse"><feFlood flood-opacity="0" result="BackgroundImageFix"></feFlood><feBlend in="SourceGraphic" in2="BackgroundImageFix" result="shape"></feBlend><feColorMatrix in="SourceAlpha" result="hardAlpha" values="0 0 0 0 0 0 0 0 0 0 0 0 0 0 0 0 0 0 127 0"></feColorMatrix><feOffset dy="2.627"></feOffset><feGaussianBlur stdDeviation="3.284"></feGaussianBlur><feComposite in2="hardAlpha" k2="-1" k3="1" operator="arithmetic"></feComposite><feColorMatrix values="0 0 0 0 0 0 0 0 0 0 0 0 0 0 0 0 0 0 0.1 0"></feColorMatrix><feBlend in2="shape" result="effect1_innerShadow_5782_105212"></feBlend></filter><filter id="ZeroDollarsPennyDark_svg__e" width="70.757" height="84.757" x="8.425" y="1.423" color-interpolation-filters="sRGB" filterUnits="userSpaceOnUse"><feFlood flood-opacity="0" result="BackgroundImageFix"></feFlood><feColorMatrix in="SourceAlpha" result="hardAlpha" values="0 0 0 0 0 0 0 0 0 0 0 0 0 0 0 0 0 0 127 0"></feColorMatrix><feOffset></feOffset><feColorMatrix values="0 0 0 0 0 0 0 0 0 0 0 0 0 0 0 0 0 0 0.1 0"></feColorMatrix><feBlend in2="BackgroundImageFix" result="effect1_dropShadow_5782_105212"></feBlend><feColorMatrix in="SourceAlpha" result="hardAlpha" values="0 0 0 0 0 0 0 0 0 0 0 0 0 0 0 0 0 0 127 0"></feColorMatrix><feOffset dy="1"></feOffset><feGaussianBlur stdDeviation="1.5"></feGaussianBlur><feColorMatrix values="0 0 0 0 0 0 0 0 0 0 0 0 0 0 0 0 0 0 0.1 0"></feColorMatrix><feBlend in2="effect1_dropShadow_5782_105212" result="effect2_dropShadow_5782_105212"></feBlend><feColorMatrix in="SourceAlpha" result="hardAlpha" values="0 0 0 0 0 0 0 0 0 0 0 0 0 0 0 0 0 0 127 0"></feColorMatrix><feOffset dy="5"></feOffset><feGaussianBlur stdDeviation="2.5"></feGaussianBlur><feColorMatrix values="0 0 0 0 0 0 0 0 0 0 0 0 0 0 0 0 0 0 0.09 0"></feColorMatrix><feBlend in2="effect2_dropShadow_5782_105212" result="effect3_dropShadow_5782_105212"></feBlend><feColorMatrix in="SourceAlpha" result="hardAlpha" values="0 0 0 0 0 0 0 0 0 0 0 0 0 0 0 0 0 0 127 0"></feColorMatrix><feOffset dy="11"></feOffset><feGaussianBlur stdDeviation="3.5"></feGaussianBlur><feColorMatrix values="0 0 0 0 0 0 0 0 0 0 0 0 0 0 0 0 0 0 0.05 0"></feColorMatrix><feBlend in2="effect3_dropShadow_5782_105212" result="effect4_dropShadow_5782_105212"></feBlend><feColorMatrix in="SourceAlpha" result="hardAlpha" values="0 0 0 0 0 0 0 0 0 0 0 0 0 0 0 0 0 0 127 0"></feColorMatrix><feOffset dy="20"></feOffset><feGaussianBlur stdDeviation="4"></feGaussianBlur><feColorMatrix values="0 0 0 0 0 0 0 0 0 0 0 0 0 0 0 0 0 0 0.01 0"></feColorMatrix><feBlend in2="effect4_dropShadow_5782_105212" result="effect5_dropShadow_5782_105212"></feBlend><feBlend in="SourceGraphic" in2="effect5_dropShadow_5782_105212" result="shape"></feBlend></filter><filter id="ZeroDollarsPennyDark_svg__g" width="45.97" height="45.97" x="20.816" y="7.816" color-interpolation-filters="sRGB" filterUnits="userSpaceOnUse"><feFlood flood-opacity="0" result="BackgroundImageFix"></feFlood><feBlend in="SourceGraphic" in2="BackgroundImageFix" result="shape"></feBlend><feColorMatrix in="SourceAlpha" result="hardAlpha" values="0 0 0 0 0 0 0 0 0 0 0 0 0 0 0 0 0 0 127 0"></feColorMatrix><feOffset dy="1.313"></feOffset><feComposite in2="hardAlpha" k2="-1" k3="1" operator="arithmetic"></feComposite><feColorMatrix values="0 0 0 0 0 0 0 0 0 0 0 0 0 0 0 0 0 0 0.05 0"></feColorMatrix><feBlend in2="shape" result="effect1_innerShadow_5782_105212"></feBlend></filter></defs></svg>