<svg xmlns="http://www.w3.org/2000/svg" width="82" height="66" fill="none"><g filter="url(#ZeroDollarsPennyLight_svg__a)"><rect width="69.612" height="13.791" x="6" y="30.876" fill="#fff" rx="6.896"></rect></g><g filter="url(#ZeroDollarsPennyLight_svg__b)"><rect width="56.478" height="4.597" x="12.567" y="35.472" fill="url(#ZeroDollarsPennyLight_svg__c)" rx="2.299"></rect></g><mask id="ZeroDollarsPennyLight_svg__d" width="58" height="41" x="12" y="0" maskUnits="userSpaceOnUse" style="mask-type:alpha"><path fill="#EAEAEA" d="M12.564.667H69.04v36.776a2.627 2.627 0 0 1-2.627 2.627H15.19a2.627 2.627 0 0 1-2.626-2.627z"></path></mask><g mask="url(#ZeroDollarsPennyLight_svg__d)"><g filter="url(#ZeroDollarsPennyLight_svg__e)"><circle cx="40.803" cy="30.801" r="26.925" fill="url(#ZeroDollarsPennyLight_svg__f)"></circle></g><g filter="url(#ZeroDollarsPennyLight_svg__g)"><circle cx="40.801" cy="30.801" r="22.985" fill="url(#ZeroDollarsPennyLight_svg__h)"></circle></g><path fill="url(#ZeroDollarsPennyLight_svg__i)" d="M32.18 38.417q2.005 0 3.556-.618 1.552-.63 2.435-1.804.895-1.185.895-2.863v-.025q0-2.043-1.312-3.204-1.298-1.16-3.935-1.715l-2.17-.454q-.945-.202-1.525-.505-.568-.302-.82-.706a1.7 1.7 0 0 1-.252-.908v-.025q0-.555.34-1.01.354-.465 1.034-.73.682-.279 1.69-.278.96 0 1.653.252.706.252 1.135.757.429.492.53 1.21l.025.114h3.367l-.025-.214q-.126-1.564-.983-2.662-.845-1.11-2.309-1.69-1.45-.593-3.392-.593-1.943 0-3.431.631-1.489.63-2.32 1.791-.833 1.148-.833 2.7v.024q0 1.337.567 2.321.568.972 1.703 1.627 1.135.644 2.813.997l2.131.454q1.627.353 2.207.857.593.492.593 1.312v.025q0 .618-.34 1.098-.34.466-1.06.744-.72.264-1.866.265-1.16 0-1.918-.278-.756-.277-1.173-.77a2.6 2.6 0 0 1-.53-1.147l-.025-.139h-3.367l.012.19q.114 1.564.997 2.686.895 1.11 2.409 1.703 1.514.58 3.494.58m-.618 2.094h1.26V18.653h-1.26z"></path><path fill="url(#ZeroDollarsPennyLight_svg__j)" d="M48.63 38.997q2.307 0 3.96-1.148 1.665-1.148 2.56-3.254.896-2.118.896-5.007v-.025q0-2.901-.896-5.007-.895-2.107-2.56-3.242-1.653-1.148-3.96-1.148-2.31 0-3.974 1.148-1.665 1.135-2.56 3.241-.883 2.107-.883 5.008v.025q0 2.888.883 5.007.895 2.107 2.56 3.254 1.665 1.149 3.974 1.148m0-3.052q-1.136 0-1.943-.757-.795-.757-1.21-2.182-.417-1.425-.417-3.418v-.025q0-2.006.416-3.418.416-1.425 1.211-2.17.807-.757 1.943-.757 1.134 0 1.93.757.794.744 1.21 2.17.429 1.411.429 3.418v.025q0 1.992-.429 3.418-.416 1.425-1.21 2.182-.796.757-1.93.757"></path></g><defs><linearGradient id="ZeroDollarsPennyLight_svg__f" x1="40.805" x2="40.803" y1="40.313" y2="3.875" gradientUnits="userSpaceOnUse"><stop stop-color="#DDD"></stop><stop offset="0.208" stop-color="#fff"></stop><stop offset="1" stop-color="#fff"></stop></linearGradient><linearGradient id="ZeroDollarsPennyLight_svg__h" x1="40.801" x2="40.804" y1="7.816" y2="40.313" gradientUnits="userSpaceOnUse"><stop stop-color="#FBFBFB"></stop><stop offset="0.867" stop-color="#EEE"></stop><stop offset="1" stop-color="#D7D7D7"></stop></linearGradient><linearGradient id="ZeroDollarsPennyLight_svg__i" x1="43.131" x2="43.131" y1="18.653" y2="40.405" gradientUnits="userSpaceOnUse"><stop offset="0.448" stop-color="#de3163"></stop><stop offset="1" stop-color="#c22b57"></stop></linearGradient><linearGradient id="ZeroDollarsPennyLight_svg__j" x1="43.131" x2="43.131" y1="18.653" y2="40.405" gradientUnits="userSpaceOnUse"><stop offset="0.448" stop-color="#de3163"></stop><stop offset="1" stop-color="#c22b57"></stop></linearGradient><filter id="ZeroDollarsPennyLight_svg__a" width="81.433" height="35.463" x="0.09" y="29.562" color-interpolation-filters="sRGB" filterUnits="userSpaceOnUse"><feFlood flood-opacity="0" result="BackgroundImageFix"></feFlood><feColorMatrix in="SourceAlpha" result="hardAlpha" values="0 0 0 0 0 0 0 0 0 0 0 0 0 0 0 0 0 0 127 0"></feColorMatrix><feOffset></feOffset><feColorMatrix values="0 0 0 0 0 0 0 0 0 0 0 0 0 0 0 0 0 0 0.04 0"></feColorMatrix><feBlend in2="BackgroundImageFix" result="effect1_dropShadow_5734_108693"></feBlend><feColorMatrix in="SourceAlpha" result="hardAlpha" values="0 0 0 0 0 0 0 0 0 0 0 0 0 0 0 0 0 0 127 0"></feColorMatrix><feOffset dy="0.657"></feOffset><feGaussianBlur stdDeviation="0.985"></feGaussianBlur><feColorMatrix values="0 0 0 0 0 0 0 0 0 0 0 0 0 0 0 0 0 0 0.04 0"></feColorMatrix><feBlend in2="effect1_dropShadow_5734_108693" result="effect2_dropShadow_5734_108693"></feBlend><feColorMatrix in="SourceAlpha" result="hardAlpha" values="0 0 0 0 0 0 0 0 0 0 0 0 0 0 0 0 0 0 127 0"></feColorMatrix><feOffset dy="3.94"></feOffset><feGaussianBlur stdDeviation="1.97"></feGaussianBlur><feColorMatrix values="0 0 0 0 0 0 0 0 0 0 0 0 0 0 0 0 0 0 0.04 0"></feColorMatrix><feBlend in2="effect2_dropShadow_5734_108693" result="effect3_dropShadow_5734_108693"></feBlend><feColorMatrix in="SourceAlpha" result="hardAlpha" values="0 0 0 0 0 0 0 0 0 0 0 0 0 0 0 0 0 0 127 0"></feColorMatrix><feOffset dy="8.537"></feOffset><feGaussianBlur stdDeviation="2.627"></feGaussianBlur><feColorMatrix values="0 0 0 0 0 0 0 0 0 0 0 0 0 0 0 0 0 0 0.02 0"></feColorMatrix><feBlend in2="effect3_dropShadow_5734_108693" result="effect4_dropShadow_5734_108693"></feBlend><feColorMatrix in="SourceAlpha" result="hardAlpha" values="0 0 0 0 0 0 0 0 0 0 0 0 0 0 0 0 0 0 127 0"></feColorMatrix><feOffset dy="14.448"></feOffset><feGaussianBlur stdDeviation="2.955"></feGaussianBlur><feColorMatrix values="0 0 0 0 0 0 0 0 0 0 0 0 0 0 0 0 0 0 0.01 0"></feColorMatrix><feBlend in2="effect4_dropShadow_5734_108693" result="effect5_dropShadow_5734_108693"></feBlend><feColorMatrix in="SourceAlpha" result="hardAlpha" values="0 0 0 0 0 0 0 0 0 0 0 0 0 0 0 0 0 0 127 0"></feColorMatrix><feMorphology in="SourceAlpha" operator="dilate" radius="0.657" result="effect6_dropShadow_5734_108693"></feMorphology><feOffset></feOffset><feComposite in2="hardAlpha" operator="out"></feComposite><feColorMatrix values="0 0 0 0 0 0 0 0 0 0 0 0 0 0 0 0 0 0 0.05 0"></feColorMatrix><feBlend in2="effect5_dropShadow_5734_108693" result="effect6_dropShadow_5734_108693"></feBlend><feBlend in="SourceGraphic" in2="effect6_dropShadow_5734_108693" result="shape"></feBlend></filter><filter id="ZeroDollarsPennyLight_svg__b" width="56.478" height="7.224" x="12.567" y="35.472" color-interpolation-filters="sRGB" filterUnits="userSpaceOnUse"><feFlood flood-opacity="0" result="BackgroundImageFix"></feFlood><feBlend in="SourceGraphic" in2="BackgroundImageFix" result="shape"></feBlend><feColorMatrix in="SourceAlpha" result="hardAlpha" values="0 0 0 0 0 0 0 0 0 0 0 0 0 0 0 0 0 0 127 0"></feColorMatrix><feOffset dy="2.627"></feOffset><feGaussianBlur stdDeviation="3.284"></feGaussianBlur><feComposite in2="hardAlpha" k2="-1" k3="1" operator="arithmetic"></feComposite><feColorMatrix values="0 0 0 0 0 0 0 0 0 0 0 0 0 0 0 0 0 0 0.1 0"></feColorMatrix><feBlend in2="shape" result="effect1_innerShadow_5734_108693"></feBlend></filter><filter id="ZeroDollarsPennyLight_svg__e" width="158.926" height="172.717" x="-38.66" y="3.219" color-interpolation-filters="sRGB" filterUnits="userSpaceOnUse"><feFlood flood-opacity="0" result="BackgroundImageFix"></feFlood><feColorMatrix in="SourceAlpha" result="hardAlpha" values="0 0 0 0 0 0 0 0 0 0 0 0 0 0 0 0 0 0 127 0"></feColorMatrix><feOffset dy="1.817"></feOffset><feGaussianBlur stdDeviation="0.727"></feGaussianBlur><feColorMatrix values="0 0 0 0 0.388235 0 0 0 0 0.388235 0 0 0 0 0.388235 0 0 0 0.07 0"></feColorMatrix><feBlend in2="BackgroundImageFix" result="effect1_dropShadow_5734_108693"></feBlend><feColorMatrix in="SourceAlpha" result="hardAlpha" values="0 0 0 0 0 0 0 0 0 0 0 0 0 0 0 0 0 0 127 0"></feColorMatrix><feOffset dy="4.367"></feOffset><feGaussianBlur stdDeviation="1.747"></feGaussianBlur><feColorMatrix values="0 0 0 0 0.388235 0 0 0 0 0.388235 0 0 0 0 0.388235 0 0 0 0.0503198 0"></feColorMatrix><feBlend in2="effect1_dropShadow_5734_108693" result="effect2_dropShadow_5734_108693"></feBlend><feColorMatrix in="SourceAlpha" result="hardAlpha" values="0 0 0 0 0 0 0 0 0 0 0 0 0 0 0 0 0 0 127 0"></feColorMatrix><feOffset dy="8.223"></feOffset><feGaussianBlur stdDeviation="3.289"></feGaussianBlur><feColorMatrix values="0 0 0 0 0.388235 0 0 0 0 0.388235 0 0 0 0 0.388235 0 0 0 0.0417275 0"></feColorMatrix><feBlend in2="effect2_dropShadow_5734_108693" result="effect3_dropShadow_5734_108693"></feBlend><feColorMatrix in="SourceAlpha" result="hardAlpha" values="0 0 0 0 0 0 0 0 0 0 0 0 0 0 0 0 0 0 127 0"></feColorMatrix><feOffset dy="14.669"></feOffset><feGaussianBlur stdDeviation="5.867"></feGaussianBlur><feColorMatrix values="0 0 0 0 0.388235 0 0 0 0 0.388235 0 0 0 0 0.388235 0 0 0 0.035 0"></feColorMatrix><feBlend in2="effect3_dropShadow_5734_108693" result="effect4_dropShadow_5734_108693"></feBlend><feColorMatrix in="SourceAlpha" result="hardAlpha" values="0 0 0 0 0 0 0 0 0 0 0 0 0 0 0 0 0 0 127 0"></feColorMatrix><feOffset dy="27.436"></feOffset><feGaussianBlur stdDeviation="10.974"></feGaussianBlur><feColorMatrix values="0 0 0 0 0.388235 0 0 0 0 0.388235 0 0 0 0 0.388235 0 0 0 0.0282725 0"></feColorMatrix><feBlend in2="effect4_dropShadow_5734_108693" result="effect5_dropShadow_5734_108693"></feBlend><feColorMatrix in="SourceAlpha" result="hardAlpha" values="0 0 0 0 0 0 0 0 0 0 0 0 0 0 0 0 0 0 127 0"></feColorMatrix><feOffset dy="65.672"></feOffset><feGaussianBlur stdDeviation="26.269"></feGaussianBlur><feColorMatrix values="0 0 0 0 0.388235 0 0 0 0 0.388235 0 0 0 0 0.388235 0 0 0 0.0196802 0"></feColorMatrix><feBlend in2="effect5_dropShadow_5734_108693" result="effect6_dropShadow_5734_108693"></feBlend><feColorMatrix in="SourceAlpha" result="hardAlpha" values="0 0 0 0 0 0 0 0 0 0 0 0 0 0 0 0 0 0 127 0"></feColorMatrix><feMorphology in="SourceAlpha" operator="dilate" radius="0.657" result="effect7_dropShadow_5734_108693"></feMorphology><feOffset></feOffset><feComposite in2="hardAlpha" operator="out"></feComposite><feColorMatrix values="0 0 0 0 0 0 0 0 0 0 0 0 0 0 0 0 0 0 0.05 0"></feColorMatrix><feBlend in2="effect6_dropShadow_5734_108693" result="effect7_dropShadow_5734_108693"></feBlend><feBlend in="SourceGraphic" in2="effect7_dropShadow_5734_108693" result="shape"></feBlend></filter><filter id="ZeroDollarsPennyLight_svg__g" width="45.97" height="45.97" x="17.816" y="7.816" color-interpolation-filters="sRGB" filterUnits="userSpaceOnUse"><feFlood flood-opacity="0" result="BackgroundImageFix"></feFlood><feBlend in="SourceGraphic" in2="BackgroundImageFix" result="shape"></feBlend><feColorMatrix in="SourceAlpha" result="hardAlpha" values="0 0 0 0 0 0 0 0 0 0 0 0 0 0 0 0 0 0 127 0"></feColorMatrix><feOffset dy="1.313"></feOffset><feComposite in2="hardAlpha" k2="-1" k3="1" operator="arithmetic"></feComposite><feColorMatrix values="0 0 0 0 0 0 0 0 0 0 0 0 0 0 0 0 0 0 0.05 0"></feColorMatrix><feBlend in2="shape" result="effect1_innerShadow_5734_108693"></feBlend></filter><radialGradient id="ZeroDollarsPennyLight_svg__c" cx="0" cy="0" r="1" gradientTransform="matrix(0 -4.59702 27.4699 0 40.806 40.07)" gradientUnits="userSpaceOnUse"><stop stop-color="#E9E9E9"></stop><stop offset="1" stop-color="#DADADA"></stop></radialGradient></defs></svg>