<svg xmlns="http://www.w3.org/2000/svg" fill="none" viewBox="0 0 180 180"><g filter="url(#ExplainerPageLight_svg__a)"><g clip-path="url(#ExplainerPageLight_svg__b)"><g filter="url(#ExplainerPageLight_svg__c)"><rect width="107" height="88" x="36" y="37.889" fill="url(#ExplainerPageLight_svg__d)" rx="16"></rect><rect width="107.5" height="88.5" x="35.75" y="37.639" stroke="url(#ExplainerPageLight_svg__e)" stroke-opacity="0.1" stroke-width="0.5" rx="16.25"></rect></g><mask id="ExplainerPageLight_svg__h" fill="#fff"><path fill-rule="evenodd" d="M44 65.074c0-1.693 0-2.54.32-3.19.304-.615.8-1.112 1.415-1.415.65-.32 1.497-.32 3.19-.32h80.89c1.693 0 2.54 0 3.191.32.614.303 1.111.8 1.414 1.414.321.65.321 1.498.321 3.191 0 1.694 0 2.54-.321 3.19a3.1 3.1 0 0 1-1.414 1.415c-.651.321-1.498.321-3.191.321h-80.89c-1.693 0-2.54 0-3.19-.32a3.1 3.1 0 0 1-1.414-1.415C44 67.615 44 66.768 44 65.075m0 13.904c0-1.743 0-2.614.34-3.28a3.1 3.1 0 0 1 1.359-1.359C46.364 74 47.235 74 48.978 74h80.785c1.742 0 2.614 0 3.279.34a3.1 3.1 0 0 1 1.36 1.359c.339.665.339 1.536.339 3.279v10.044c0 1.743 0 2.614-.339 3.28a3.1 3.1 0 0 1-1.36 1.359c-.665.339-1.537.339-3.279.339H48.978c-1.743 0-2.614 0-3.28-.34a3.1 3.1 0 0 1-1.359-1.359C44 91.636 44 90.765 44 89.022zm.34 20.72c-.34.666-.34 1.537-.34 3.28v1.748c0 4.646 0 6.969.904 8.744a8.3 8.3 0 0 0 3.626 3.626c1.774.904 4.098.904 8.744.904h64.193c4.646 0 6.969 0 8.744-.904a8.3 8.3 0 0 0 3.625-3.626c.905-1.775.905-4.098.905-8.744v-1.748c0-1.743 0-2.614-.339-3.28a3.1 3.1 0 0 0-1.36-1.359c-.665-.339-1.537-.339-3.279-.339H48.978c-1.743 0-2.614 0-3.28.34a3.1 3.1 0 0 0-1.359 1.359" clip-rule="evenodd"></path></mask><g filter="url(#ExplainerPageLight_svg__f)"><path fill="url(#ExplainerPageLight_svg__g)" fill-rule="evenodd" d="M44 65.074c0-1.693 0-2.54.32-3.19.304-.615.8-1.112 1.415-1.415.65-.32 1.497-.32 3.19-.32h80.89c1.693 0 2.54 0 3.191.32.614.303 1.111.8 1.414 1.414.321.65.321 1.498.321 3.191 0 1.694 0 2.54-.321 3.19a3.1 3.1 0 0 1-1.414 1.415c-.651.321-1.498.321-3.191.321h-80.89c-1.693 0-2.54 0-3.19-.32a3.1 3.1 0 0 1-1.414-1.415C44 67.615 44 66.768 44 65.075m0 13.904c0-1.743 0-2.614.34-3.28a3.1 3.1 0 0 1 1.359-1.359C46.364 74 47.235 74 48.978 74h80.785c1.742 0 2.614 0 3.279.34a3.1 3.1 0 0 1 1.36 1.359c.339.665.339 1.536.339 3.279v10.044c0 1.743 0 2.614-.339 3.28a3.1 3.1 0 0 1-1.36 1.359c-.665.339-1.537.339-3.279.339H48.978c-1.743 0-2.614 0-3.28-.34a3.1 3.1 0 0 1-1.359-1.359C44 91.636 44 90.765 44 89.022zm.34 20.72c-.34.666-.34 1.537-.34 3.28v1.748c0 4.646 0 6.969.904 8.744a8.3 8.3 0 0 0 3.626 3.626c1.774.904 4.098.904 8.744.904h64.193c4.646 0 6.969 0 8.744-.904a8.3 8.3 0 0 0 3.625-3.626c.905-1.775.905-4.098.905-8.744v-1.748c0-1.743 0-2.614-.339-3.28a3.1 3.1 0 0 0-1.36-1.359c-.665-.339-1.537-.339-3.279-.339H48.978c-1.743 0-2.614 0-3.28.34a3.1 3.1 0 0 0-1.359 1.359" clip-rule="evenodd"></path></g><path fill="#000" fill-opacity="0.05" d="m44.32 61.883.233.115zm1.415-1.414.115.233zm87.271 0 .114-.233zm1.414 1.414.232-.114zm0 6.382.232.115zm-1.414 1.414.114.233zm-87.27 0-.116.233zm-1.415-1.414-.233.115zm.018 7.434.231.117zm1.36-1.36-.118-.23zm87.343 0 .118-.23zm1.36 1.36.231-.118zm0 16.602.231.118zm-1.36 1.36.118.23zm-87.343 0 .117-.231zm-1.36-1.36-.23.118zm0 7.398-.23-.118zm.565 13.771.231-.118zm3.626 3.626.118-.231zm81.681 0 .118.231zm3.625-3.626-.231-.118zm.566-13.771.231-.118zm-1.36-1.36.118-.23zm-87.343 0 .117.231zm-1.61-36.57c-.182.367-.266.778-.307 1.298-.041.517-.041 1.164-.041 2.007h.518c0-.85 0-1.474.04-1.966.038-.489.114-.826.254-1.11zm1.531-1.532a3.37 3.37 0 0 0-1.532 1.532l.465.229a2.85 2.85 0 0 1 1.297-1.296zm3.306-.348c-.843 0-1.49 0-2.007.04-.52.042-.931.127-1.299.307l.23.466c.283-.14.62-.216 1.11-.255.492-.04 1.115-.04 1.966-.04zm80.889 0h-80.89v.518h80.89zm3.305.347c-.367-.18-.778-.265-1.298-.306-.518-.041-1.165-.041-2.007-.041v.518c.851 0 1.474 0 1.966.04.489.039.826.115 1.11.255zm1.532 1.533a3.37 3.37 0 0 0-1.532-1.532l-.229.465a2.85 2.85 0 0 1 1.296 1.296zm.348 3.305c0-.843 0-1.49-.041-2.007-.041-.52-.126-.931-.307-1.298l-.465.229c.14.284.216.621.255 1.11.039.492.039 1.115.039 1.966zm-.348 3.306c.181-.367.266-.779.307-1.299.041-.517.041-1.164.041-2.007h-.519c0 .851 0 1.474-.039 1.966-.039.49-.115.827-.255 1.11zm-1.532 1.532a3.37 3.37 0 0 0 1.532-1.532l-.465-.23a2.85 2.85 0 0 1-1.296 1.297zm-3.305.347c.842 0 1.489 0 2.007-.04.52-.042.931-.126 1.298-.307l-.229-.465c-.284.14-.621.216-1.11.254-.492.04-1.115.04-1.966.04zm-80.89 0h80.89v-.518h-80.89zm-3.305-.347c.367.18.779.265 1.299.306.517.041 1.164.041 2.007.041v-.518c-.851 0-1.474 0-1.966-.04-.49-.038-.827-.114-1.11-.254zm-1.532-1.532a3.37 3.37 0 0 0 1.532 1.532l.23-.465a2.85 2.85 0 0 1-1.297-1.297zm-.347-3.306c0 .843 0 1.49.04 2.007.042.52.126.932.307 1.299l.465-.23c-.14-.283-.216-.62-.255-1.11-.039-.492-.039-1.115-.039-1.966zm.367 10.507c-.191.375-.28.797-.324 1.332-.044.532-.043 1.198-.043 2.065h.518c0-.876 0-1.517.042-2.022.04-.503.121-.85.27-1.14zm1.473-1.473a3.37 3.37 0 0 0-1.473 1.473l.462.235c.273-.536.71-.972 1.246-1.246zm3.397-.367c-.867 0-1.533 0-2.065.043-.534.044-.957.133-1.332.324l.235.462c.29-.148.637-.228 1.14-.27.505-.04 1.146-.04 2.022-.04zm80.785 0H48.978v.518h80.785zm3.397.367c-.376-.191-.798-.28-1.333-.324-.531-.044-1.197-.043-2.064-.043v.518c.875 0 1.516 0 2.022.042.503.04.849.121 1.139.27zm1.473 1.473a3.37 3.37 0 0 0-1.473-1.473l-.236.462c.537.274.973.71 1.247 1.246zm.367 3.397c0-.867 0-1.533-.043-2.065-.044-.534-.133-.957-.324-1.332l-.462.235c.147.29.228.637.269 1.14.041.505.041 1.146.041 2.022zm0 10.044V78.978h-.519v10.044zm-.367 3.397c.191-.375.28-.797.324-1.332.043-.532.043-1.198.043-2.065h-.519c0 .876 0 1.517-.041 2.022-.041.503-.122.85-.269 1.14zm-1.473 1.473a3.37 3.37 0 0 0 1.473-1.473l-.462-.235c-.274.536-.71.972-1.247 1.246zm-3.397.367c.867 0 1.533 0 2.064-.043.535-.044.957-.133 1.333-.324l-.236-.462c-.29.148-.636.228-1.139.27-.506.04-1.147.04-2.022.04zm-80.785 0h80.785v-.518H48.978zm-3.397-.367c.375.191.797.28 1.332.324.532.044 1.198.043 2.065.043v-.518c-.876 0-1.517 0-2.023-.042-.502-.04-.849-.121-1.139-.27zm-1.473-1.473a3.37 3.37 0 0 0 1.473 1.473l.235-.462a2.85 2.85 0 0 1-1.246-1.246zm-.367-3.397c0 .867 0 1.533.043 2.065.044.534.133.957.324 1.332l.462-.235c-.148-.29-.228-.637-.27-1.14-.04-.505-.04-1.146-.04-2.022zm0-10.044v10.044h.518V78.978zm.518 24c0-.876 0-1.517.042-2.022.04-.503.121-.849.27-1.14l-.463-.235c-.191.375-.28.797-.324 1.332-.044.532-.043 1.198-.043 2.065zm0 1.748v-1.748h-.518v1.748zm.876 8.626c-.43-.844-.652-1.831-.764-3.198-.111-1.371-.112-3.101-.112-5.428h-.518c0 2.319 0 4.074.114 5.47.114 1.399.344 2.462.818 3.392zm3.513 3.513a8.04 8.04 0 0 1-3.513-3.513l-.462.236a8.55 8.55 0 0 0 3.74 3.739zm8.626.876c-2.327 0-4.057 0-5.428-.112-1.367-.112-2.354-.334-3.198-.764l-.236.462c.93.474 1.992.704 3.392.818 1.396.114 3.151.114 5.47.114zm64.193 0H57.274v.518h64.193zm8.626-.876c-.845.43-1.831.652-3.198.764-1.371.112-3.101.112-5.428.112v.518c2.319 0 4.073 0 5.47-.114 1.399-.114 2.462-.344 3.392-.818zm3.512-3.513a8.04 8.04 0 0 1-3.512 3.513l.236.462a8.56 8.56 0 0 0 3.738-3.739zm.876-8.626c0 2.327 0 4.057-.112 5.428-.111 1.367-.333 2.354-.764 3.198l.462.236c.474-.93.705-1.993.819-3.392.114-1.396.114-3.151.114-5.47zm0-1.748v1.748H135v-1.748zm-.31-3.162c.147.291.228.637.269 1.14.041.505.041 1.146.041 2.022H135c0-.867 0-1.533-.043-2.065-.044-.535-.133-.957-.324-1.332zm-1.247-1.246c.537.274.973.71 1.247 1.246l.462-.235a3.37 3.37 0 0 0-1.473-1.473zm-3.161-.31c.875 0 1.516 0 2.022.04.503.042.849.122 1.139.27l.236-.462c-.376-.191-.798-.28-1.333-.324-.531-.044-1.197-.043-2.064-.043zm-80.785 0h80.785v-.52H48.978zm-3.162.31c.29-.148.637-.228 1.14-.27.505-.04 1.146-.04 2.022-.04v-.52c-.867 0-1.533 0-2.065.044-.534.044-.957.133-1.332.324zm-1.246 1.246c.273-.536.71-.972 1.246-1.246l-.235-.462a3.37 3.37 0 0 0-1.473 1.473z" mask="url(#ExplainerPageLight_svg__h)"></path><g filter="url(#ExplainerPageLight_svg__i)"><rect width="24.889" height="24.889" x="46.889" y="28" fill="url(#ExplainerPageLight_svg__j)" rx="6.222"></rect><rect width="25.389" height="25.389" x="46.639" y="27.75" stroke="url(#ExplainerPageLight_svg__k)" stroke-opacity="0.1" stroke-width="0.5" rx="6.472"></rect></g><g filter="url(#ExplainerPageLight_svg__l)"><rect width="15.556" height="2.593" x="51.555" y="35.778" fill="url(#ExplainerPageLight_svg__m)" rx="1.296"></rect></g><rect width="15.056" height="2.093" x="51.805" y="36.028" stroke="#000" stroke-opacity="0.05" stroke-width="0.5" rx="1.046"></rect><rect width="3.111" height="6.741" x="51.555" y="24.889" fill="url(#ExplainerPageLight_svg__n)" rx="1.556"></rect><rect width="3.611" height="7.241" x="51.305" y="24.639" stroke="url(#ExplainerPageLight_svg__o)" stroke-opacity="0.1" stroke-width="0.5" rx="1.806"></rect><rect width="3.111" height="6.741" x="64" y="24.889" fill="url(#ExplainerPageLight_svg__p)" rx="1.556"></rect><rect width="3.611" height="7.241" x="63.75" y="24.639" stroke="url(#ExplainerPageLight_svg__q)" stroke-opacity="0.1" stroke-width="0.5" rx="1.806"></rect><path fill="url(#ExplainerPageLight_svg__r)" fill-rule="evenodd" d="M48.377 131.889h82.246c1.912 0 3.481.371 4.784 1.068a7.27 7.27 0 0 1 3.024 3.025c.698 1.303 1.069 2.872 1.069 4.784v.246c0 1.912-.371 3.481-1.069 4.784a7.26 7.26 0 0 1-3.024 3.024c-1.303.698-2.872 1.069-4.784 1.069H48.377c-1.912 0-3.48-.371-4.784-1.069a7.27 7.27 0 0 1-3.025-3.024c-.697-1.303-1.068-2.872-1.068-4.784v-.246c0-1.912.371-3.481 1.069-4.784a7.28 7.28 0 0 1 3.024-3.025c1.303-.697 2.872-1.068 4.784-1.068" clip-rule="evenodd"></path><path stroke="#000" stroke-opacity="0.1" stroke-width="0.5" d="M48.377 132.139h82.246c1.879 0 3.406.365 4.666 1.039a7 7 0 0 1 2.922 2.921c.674 1.261 1.039 2.788 1.039 4.667v.246c0 1.879-.365 3.406-1.039 4.666a7 7 0 0 1-2.922 2.922c-1.26.674-2.787 1.039-4.666 1.039H48.377c-1.879 0-3.406-.365-4.666-1.039a7 7 0 0 1-2.922-2.922c-.674-1.26-1.039-2.787-1.039-4.666v-.246c0-1.879.365-3.406 1.039-4.667a7 7 0 0 1 2.922-2.921c1.26-.674 2.787-1.039 4.666-1.039Z"></path><g clip-path="url(#ExplainerPageLight_svg__s)"><path fill="#fff" fill-opacity="0.7" fill-rule="evenodd" d="M56.843 143.696c-.358.716-.698.841-.826.841s-.468-.125-.826-.841c-.291-.582-.504-1.403-.553-2.353h2.757c-.049.949-.261 1.771-.552 2.353m.552-3.187h-2.757c.05-.95.262-1.771.553-2.353.358-.716.698-.841.826-.841s.468.125.826.841c.29.582.503 1.403.552 2.353m.834.834c-.053 1.134-.319 2.146-.717 2.871a3.61 3.61 0 0 0 2.102-2.965.42.42 0 0 1-.264.094zm1.385-.74a.4.4 0 0 0-.264-.094h-1.12c-.053-1.135-.32-2.146-.718-2.871a3.61 3.61 0 0 1 2.102 2.965m-5.81-.094c.053-1.135.319-2.146.718-2.871a3.61 3.61 0 0 0-2.102 2.965.4.4 0 0 1 .263-.094zm-1.384.74a3.61 3.61 0 0 0 2.102 2.965c-.399-.725-.665-1.737-.718-2.871h-1.12a.42.42 0 0 1-.264-.094m8.041-.323a4.445 4.445 0 1 0-8.89 0 4.445 4.445 0 0 0 8.89 0" clip-rule="evenodd"></path></g><path fill="#fff" fill-opacity="0.7" d="M65.627 144v-6.562h.942V144zm3.88.091q-.53 0-.895-.204a1.3 1.3 0 0 1-.542-.599q-.179-.395-.178-.95v-3.052h.941v2.83q0 .582.23.873t.751.291q.278 0 .495-.083a1 1 0 0 0 .365-.247 1 1 0 0 0 .217-.387q.073-.225.073-.512v-2.765h.947V144h-.947v-.712h-.069a1.3 1.3 0 0 1-.308.434q-.195.178-.469.274a1.8 1.8 0 0 1-.612.095m4.447-.022a.62.62 0 0 1-.456-.186.62.62 0 0 1-.182-.447q0-.27.182-.452a.63.63 0 0 1 .456-.182.62.62 0 0 1 .638.634.62.62 0 0 1-.182.447.61.61 0 0 1-.456.186m2.044-.069v-4.714h.941v.725h.074q.156-.39.486-.603.335-.213.799-.213.32 0 .577.104.256.105.439.296.185.186.29.442h.074q.117-.255.33-.442a1.5 1.5 0 0 1 .495-.296q.285-.104.607-.104.478 0 .816.187.339.182.517.529.177.348.178.838V144h-.942v-3.025q0-.326-.1-.538a.68.68 0 0 0-.304-.326 1.05 1.05 0 0 0-.503-.108q-.3 0-.525.138a.96.96 0 0 0-.348.365 1.06 1.06 0 0 0-.121.512V144h-.942v-3.121a.9.9 0 0 0-.113-.464.72.72 0 0 0-.312-.304 1 1 0 0 0-.482-.108.9.9 0 0 0-.508.147 1.06 1.06 0 0 0-.352.399q-.13.248-.13.556V144zm9.2.078q-.447 0-.803-.169a1.36 1.36 0 0 1-.555-.491 1.34 1.34 0 0 1-.204-.742v-.008q0-.426.204-.725.207-.3.599-.469.395-.174.954-.208l1.74-.105v.665l-1.61.104q-.485.03-.716.208a.58.58 0 0 0-.23.49v.009q0 .322.248.508.247.182.625.182.35 0 .625-.139.278-.142.434-.382a1 1 0 0 0 .156-.546v-1.485q0-.39-.243-.594-.239-.209-.712-.209-.395 0-.646.139a.68.68 0 0 0-.33.391l-.009.013h-.907l.004-.031q.056-.39.308-.677.257-.29.669-.451a2.6 2.6 0 0 1 .95-.161q.595 0 1.007.191.417.188.63.543.216.351.217.846V144h-.938v-.668h-.07a1.5 1.5 0 0 1-.347.408q-.208.165-.473.251a1.8 1.8 0 0 1-.577.087m5.841-6.64-1.918 8.133h-.886l1.915-8.133zm2.625 6.653q-.686 0-1.185-.295-.495-.3-.763-.851-.27-.551-.27-1.315v-.008q0-.751.265-1.294a1.97 1.97 0 0 1 .764-.838q.5-.294 1.185-.295.594 0 1.02.209.429.204.681.564.256.356.322.812l.004.021h-.907l-.005-.008a1 1 0 0 0-.36-.578q-.282-.234-.75-.234-.391 0-.674.2-.282.195-.433.564a2.4 2.4 0 0 0-.148.877v.008q0 .52.152.894t.434.578q.282.2.668.199.443 0 .716-.195.279-.196.391-.577l.009-.022.903-.004-.01.039a1.94 1.94 0 0 1-.333.807 1.73 1.73 0 0 1-.673.547q-.417.195-1.003.195m4.344-.013q-.447 0-.803-.169a1.36 1.36 0 0 1-.555-.491 1.34 1.34 0 0 1-.204-.742v-.008q0-.426.204-.725.207-.3.599-.469.395-.174.954-.208l1.74-.105v.665l-1.61.104q-.485.03-.716.208a.58.58 0 0 0-.23.49v.009q0 .322.248.508.247.182.625.182.35 0 .625-.139.278-.142.434-.382a1 1 0 0 0 .156-.546v-1.485q0-.39-.243-.594-.239-.209-.712-.209-.395 0-.646.139a.68.68 0 0 0-.33.391l-.009.013h-.907l.004-.031q.056-.39.308-.677.257-.29.669-.451a2.6 2.6 0 0 1 .95-.161q.595 0 1.007.191.417.188.63.543.216.351.217.846V144h-.938v-.668h-.07a1.5 1.5 0 0 1-.347.408q-.208.165-.473.251a1.8 1.8 0 0 1-.577.087m3.741-.078v-6.562h.941V144zm4.287.091q-.69 0-1.185-.295-.495-.3-.764-.846-.264-.547-.265-1.294v-.004q0-.738.265-1.289a2.07 2.07 0 0 1 .755-.86 2.1 2.1 0 0 1 1.146-.308q.66 0 1.133.295.478.296.733.829.257.53.257 1.242v.33H104.3v-.673h3.342l-.452.625v-.378q0-.503-.156-.833a1.1 1.1 0 0 0-.421-.499 1.16 1.16 0 0 0-.621-.165q-.351 0-.629.173a1.17 1.17 0 0 0-.434.504q-.156.334-.156.82v.378q0 .464.156.794t.443.504q.29.173.686.173.303 0 .52-.082.222-.087.361-.213a.7.7 0 0 0 .195-.247l.017-.035h.912l-.009.039q-.06.234-.213.469a1.7 1.7 0 0 1-.403.421q-.248.19-.599.308a2.5 2.5 0 0 1-.803.117m3.159-.091v-4.714h.942v.712h.073q.174-.377.513-.59.337-.213.855-.213.793 0 1.215.456.421.455.421 1.298V144h-.946v-2.83q0-.59-.248-.877-.242-.29-.764-.29-.342 0-.594.152a1 1 0 0 0-.391.425q-.135.274-.134.655V144zm7.013.078q-.59 0-1.033-.295-.438-.3-.682-.846-.238-.548-.238-1.289v-.009q0-.747.238-1.294.24-.546.678-.842a1.8 1.8 0 0 1 1.037-.299q.325 0 .607.104.283.1.5.287.217.181.342.438h.07v-2.595h.946V144h-.946v-.742h-.07a1.6 1.6 0 0 1-.351.443 1.6 1.6 0 0 1-.491.282 1.9 1.9 0 0 1-.607.095m.269-.807q.39 0 .677-.195a1.23 1.23 0 0 0 .438-.56 2.3 2.3 0 0 0 .152-.868v-.009q0-.504-.156-.868a1.22 1.22 0 0 0-.438-.56 1.14 1.14 0 0 0-.673-.2q-.39 0-.677.2-.282.195-.434.56-.148.36-.148.868v.009q0 .503.148.868.152.364.434.56.287.195.677.195m4.852.807q-.447 0-.803-.169a1.36 1.36 0 0 1-.556-.491 1.34 1.34 0 0 1-.204-.742v-.008q0-.426.204-.725.209-.3.599-.469.395-.174.955-.208l1.74-.105v.665l-1.61.104q-.486.03-.716.208a.58.58 0 0 0-.23.49v.009q0 .322.247.508.248.182.625.182.352 0 .625-.139.278-.142.434-.382a1 1 0 0 0 .157-.546v-1.485q0-.39-.244-.594-.239-.209-.711-.209-.395 0-.647.139a.68.68 0 0 0-.33.391l-.009.013h-.907l.005-.031q.056-.39.308-.677.256-.29.668-.451.417-.16.951-.161.594 0 1.007.191.416.188.629.543.217.351.217.846V144h-.937v-.668h-.07a1.5 1.5 0 0 1-.347.408q-.209.165-.473.251a1.8 1.8 0 0 1-.577.087m3.697-.078v-4.714h.941v.712h.074q.126-.377.443-.586.32-.208.79-.208a2 2 0 0 1 .412.043v.868a2.7 2.7 0 0 0-.508-.052q-.36 0-.633.139-.27.14-.426.391a1.1 1.1 0 0 0-.152.59V144z"></path></g></g><defs><linearGradient id="ExplainerPageLight_svg__d" x1="89.5" x2="89.5" y1="37.889" y2="125.889" gradientUnits="userSpaceOnUse"><stop stop-color="#fff"></stop><stop offset="1" stop-color="#F8F8F8"></stop></linearGradient><linearGradient id="ExplainerPageLight_svg__e" x1="89.5" x2="89.5" y1="37.889" y2="125.889" gradientUnits="userSpaceOnUse"><stop></stop><stop offset="1" stop-opacity="0"></stop></linearGradient><linearGradient id="ExplainerPageLight_svg__g" x1="68.889" x2="69.558" y1="58.054" y2="132.925" gradientUnits="userSpaceOnUse"><stop stop-color="#DEDEDE"></stop><stop offset="1" stop-color="#F2F2F2"></stop></linearGradient><linearGradient id="ExplainerPageLight_svg__j" x1="59.333" x2="59.333" y1="28" y2="52.889" gradientUnits="userSpaceOnUse"><stop stop-color="#FAFAFA"></stop><stop offset="1" stop-color="#fff"></stop></linearGradient><linearGradient id="ExplainerPageLight_svg__k" x1="59.333" x2="59.333" y1="28" y2="52.889" gradientUnits="userSpaceOnUse"><stop></stop><stop offset="1" stop-opacity="0.5"></stop></linearGradient><linearGradient id="ExplainerPageLight_svg__m" x1="55.821" x2="55.826" y1="35.778" y2="38.371" gradientUnits="userSpaceOnUse"><stop stop-color="#DEDEDE"></stop><stop offset="1" stop-color="#F2F2F2"></stop></linearGradient><linearGradient id="ExplainerPageLight_svg__n" x1="53.11" x2="53.11" y1="24.889" y2="31.63" gradientUnits="userSpaceOnUse"><stop stop-color="#FAFAFA"></stop><stop offset="1" stop-color="#fff"></stop></linearGradient><linearGradient id="ExplainerPageLight_svg__o" x1="53.11" x2="53.11" y1="24.889" y2="31.63" gradientUnits="userSpaceOnUse"><stop></stop><stop offset="1"></stop></linearGradient><linearGradient id="ExplainerPageLight_svg__p" x1="65.556" x2="65.556" y1="24.889" y2="31.63" gradientUnits="userSpaceOnUse"><stop stop-color="#FAFAFA"></stop><stop offset="1" stop-color="#fff"></stop></linearGradient><linearGradient id="ExplainerPageLight_svg__q" x1="65.556" x2="65.556" y1="24.889" y2="31.63" gradientUnits="userSpaceOnUse"><stop></stop><stop offset="1"></stop></linearGradient><linearGradient id="ExplainerPageLight_svg__r" x1="89.5" x2="89.5" y1="131.889" y2="149.889" gradientUnits="userSpaceOnUse"><stop stop-color="#1884E8"></stop><stop offset="0.979" stop-color="#5DA5E7"></stop></linearGradient><filter id="ExplainerPageLight_svg__a" width="228" height="228" x="-24" y="-24" color-interpolation-filters="sRGB" filterUnits="userSpaceOnUse"><feFlood flood-opacity="0" result="BackgroundImageFix"></feFlood><feGaussianBlur in="BackgroundImageFix" stdDeviation="12"></feGaussianBlur><feComposite in2="SourceAlpha" operator="in" result="effect1_backgroundBlur_10400_180916"></feComposite><feBlend in="SourceGraphic" in2="effect1_backgroundBlur_10400_180916" result="shape"></feBlend></filter><filter id="ExplainerPageLight_svg__c" width="190.963" height="182.333" x="-5.981" y="37.389" color-interpolation-filters="sRGB" filterUnits="userSpaceOnUse"><feFlood flood-opacity="0" result="BackgroundImageFix"></feFlood><feColorMatrix in="SourceAlpha" result="hardAlpha" values="0 0 0 0 0 0 0 0 0 0 0 0 0 0 0 0 0 0 127 0"></feColorMatrix><feOffset dy="1.435"></feOffset><feGaussianBlur stdDeviation="0.574"></feGaussianBlur><feColorMatrix values="0 0 0 0 0.388235 0 0 0 0 0.388235 0 0 0 0 0.388235 0 0 0 0.07 0"></feColorMatrix><feBlend in2="BackgroundImageFix" result="effect1_dropShadow_10400_180916"></feBlend><feColorMatrix in="SourceAlpha" result="hardAlpha" values="0 0 0 0 0 0 0 0 0 0 0 0 0 0 0 0 0 0 127 0"></feColorMatrix><feOffset dy="3.448"></feOffset><feGaussianBlur stdDeviation="1.379"></feGaussianBlur><feColorMatrix values="0 0 0 0 0.388235 0 0 0 0 0.388235 0 0 0 0 0.388235 0 0 0 0.0503198 0"></feColorMatrix><feBlend in2="effect1_dropShadow_10400_180916" result="effect2_dropShadow_10400_180916"></feBlend><feColorMatrix in="SourceAlpha" result="hardAlpha" values="0 0 0 0 0 0 0 0 0 0 0 0 0 0 0 0 0 0 127 0"></feColorMatrix><feOffset dy="6.493"></feOffset><feGaussianBlur stdDeviation="2.597"></feGaussianBlur><feColorMatrix values="0 0 0 0 0.388235 0 0 0 0 0.388235 0 0 0 0 0.388235 0 0 0 0.0417275 0"></feColorMatrix><feBlend in2="effect2_dropShadow_10400_180916" result="effect3_dropShadow_10400_180916"></feBlend><feColorMatrix in="SourceAlpha" result="hardAlpha" values="0 0 0 0 0 0 0 0 0 0 0 0 0 0 0 0 0 0 127 0"></feColorMatrix><feOffset dy="11.582"></feOffset><feGaussianBlur stdDeviation="4.633"></feGaussianBlur><feColorMatrix values="0 0 0 0 0.388235 0 0 0 0 0.388235 0 0 0 0 0.388235 0 0 0 0.035 0"></feColorMatrix><feBlend in2="effect3_dropShadow_10400_180916" result="effect4_dropShadow_10400_180916"></feBlend><feColorMatrix in="SourceAlpha" result="hardAlpha" values="0 0 0 0 0 0 0 0 0 0 0 0 0 0 0 0 0 0 127 0"></feColorMatrix><feOffset dy="21.663"></feOffset><feGaussianBlur stdDeviation="8.665"></feGaussianBlur><feColorMatrix values="0 0 0 0 0.388235 0 0 0 0 0.388235 0 0 0 0 0.388235 0 0 0 0.0282725 0"></feColorMatrix><feBlend in2="effect4_dropShadow_10400_180916" result="effect5_dropShadow_10400_180916"></feBlend><feColorMatrix in="SourceAlpha" result="hardAlpha" values="0 0 0 0 0 0 0 0 0 0 0 0 0 0 0 0 0 0 127 0"></feColorMatrix><feOffset dy="51.852"></feOffset><feGaussianBlur stdDeviation="20.741"></feGaussianBlur><feColorMatrix values="0 0 0 0 0.388235 0 0 0 0 0.388235 0 0 0 0 0.388235 0 0 0 0.0196802 0"></feColorMatrix><feBlend in2="effect5_dropShadow_10400_180916" result="effect6_dropShadow_10400_180916"></feBlend><feBlend in="SourceGraphic" in2="effect6_dropShadow_10400_180916" result="shape"></feBlend></filter><filter id="ExplainerPageLight_svg__f" width="90.74" height="58.37" x="44" y="60.148" color-interpolation-filters="sRGB" filterUnits="userSpaceOnUse"><feFlood flood-opacity="0" result="BackgroundImageFix"></feFlood><feBlend in="SourceGraphic" in2="BackgroundImageFix" result="shape"></feBlend><feColorMatrix in="SourceAlpha" result="hardAlpha" values="0 0 0 0 0 0 0 0 0 0 0 0 0 0 0 0 0 0 127 0"></feColorMatrix><feOffset dy="0.519"></feOffset><feGaussianBlur stdDeviation="0.259"></feGaussianBlur><feComposite in2="hardAlpha" k2="-1" k3="1" operator="arithmetic"></feComposite><feColorMatrix values="0 0 0 0 0 0 0 0 0 0 0 0 0 0 0 0 0 0 0.05 0"></feColorMatrix><feBlend in2="shape" result="effect1_innerShadow_10400_180916"></feBlend></filter><filter id="ExplainerPageLight_svg__i" width="39.37" height="51.296" x="39.648" y="25.944" color-interpolation-filters="sRGB" filterUnits="userSpaceOnUse"><feFlood flood-opacity="0" result="BackgroundImageFix"></feFlood><feColorMatrix in="SourceAlpha" result="hardAlpha" values="0 0 0 0 0 0 0 0 0 0 0 0 0 0 0 0 0 0 127 0"></feColorMatrix><feOffset></feOffset><feColorMatrix values="0 0 0 0 0 0 0 0 0 0 0 0 0 0 0 0 0 0 0.04 0"></feColorMatrix><feBlend in2="BackgroundImageFix" result="effect1_dropShadow_10400_180916"></feBlend><feColorMatrix in="SourceAlpha" result="hardAlpha" values="0 0 0 0 0 0 0 0 0 0 0 0 0 0 0 0 0 0 127 0"></feColorMatrix><feOffset dy="1.037"></feOffset><feGaussianBlur stdDeviation="1.296"></feGaussianBlur><feColorMatrix values="0 0 0 0 0 0 0 0 0 0 0 0 0 0 0 0 0 0 0.04 0"></feColorMatrix><feBlend in2="effect1_dropShadow_10400_180916" result="effect2_dropShadow_10400_180916"></feBlend><feColorMatrix in="SourceAlpha" result="hardAlpha" values="0 0 0 0 0 0 0 0 0 0 0 0 0 0 0 0 0 0 127 0"></feColorMatrix><feOffset dy="4.148"></feOffset><feGaussianBlur stdDeviation="2.074"></feGaussianBlur><feColorMatrix values="0 0 0 0 0 0 0 0 0 0 0 0 0 0 0 0 0 0 0.04 0"></feColorMatrix><feBlend in2="effect2_dropShadow_10400_180916" result="effect3_dropShadow_10400_180916"></feBlend><feColorMatrix in="SourceAlpha" result="hardAlpha" values="0 0 0 0 0 0 0 0 0 0 0 0 0 0 0 0 0 0 127 0"></feColorMatrix><feOffset dy="9.852"></feOffset><feGaussianBlur stdDeviation="2.852"></feGaussianBlur><feColorMatrix values="0 0 0 0 0 0 0 0 0 0 0 0 0 0 0 0 0 0 0.02 0"></feColorMatrix><feBlend in2="effect3_dropShadow_10400_180916" result="effect4_dropShadow_10400_180916"></feBlend><feColorMatrix in="SourceAlpha" result="hardAlpha" values="0 0 0 0 0 0 0 0 0 0 0 0 0 0 0 0 0 0 127 0"></feColorMatrix><feOffset dy="17.111"></feOffset><feGaussianBlur stdDeviation="3.37"></feGaussianBlur><feColorMatrix values="0 0 0 0 0 0 0 0 0 0 0 0 0 0 0 0 0 0 0.01 0"></feColorMatrix><feBlend in2="effect4_dropShadow_10400_180916" result="effect5_dropShadow_10400_180916"></feBlend><feBlend in="SourceGraphic" in2="effect5_dropShadow_10400_180916" result="shape"></feBlend></filter><filter id="ExplainerPageLight_svg__l" width="15.555" height="3.111" x="51.555" y="35.778" color-interpolation-filters="sRGB" filterUnits="userSpaceOnUse"><feFlood flood-opacity="0" result="BackgroundImageFix"></feFlood><feBlend in="SourceGraphic" in2="BackgroundImageFix" result="shape"></feBlend><feColorMatrix in="SourceAlpha" result="hardAlpha" values="0 0 0 0 0 0 0 0 0 0 0 0 0 0 0 0 0 0 127 0"></feColorMatrix><feOffset dy="0.519"></feOffset><feGaussianBlur stdDeviation="0.259"></feGaussianBlur><feComposite in2="hardAlpha" k2="-1" k3="1" operator="arithmetic"></feComposite><feColorMatrix values="0 0 0 0 0 0 0 0 0 0 0 0 0 0 0 0 0 0 0.05 0"></feColorMatrix><feBlend in2="shape" result="effect1_innerShadow_10400_180916"></feBlend></filter><clipPath id="ExplainerPageLight_svg__b"><rect width="180" height="180" fill="#fff" rx="16"></rect></clipPath><clipPath id="ExplainerPageLight_svg__s"><path fill="#fff" d="M51.572 136.481h8.89v8.889h-8.89z"></path></clipPath></defs></svg>