<svg xmlns="http://www.w3.org/2000/svg" fill="none" viewBox="0 0 180 180"><g filter="url(#ExplainerTeamLight_svg__a)"><g clip-path="url(#ExplainerTeamLight_svg__b)"><g filter="url(#ExplainerTeamLight_svg__c)"><path fill="url(#ExplainerTeamLight_svg__d)" d="M50.536 108.7c.602.177 1.18-.314 1.18-.941 0-9.017 7.684-13.136 12.154-15.322.895-.438 1.692-.812 2.41-1.15 1.482-.695 2.631-1.234 3.631-1.86a.344.344 0 0 0 .091-.501c-.173-.23-.38-.492-.64-.815l-.138-.173a56 56 0 0 1-1.29-1.654c-2.242-3.018-4.557-7.237-4.557-13.96 0-6.02 2.253-11.621 6.003-15.81.491-.548.273-1.435-.45-1.573a14 14 0 0 0-2.638-.248c-8.106 0-14.575 6.895-14.575 15.27 0 5.513 2.24 8.305 3.981 10.477 1.107 1.38 2.013 2.51 2.015 3.929l.002.02c-.004 2.27-2.876 3.62-6.163 5.164C47.15 91.622 42 94.04 42 99.49c0 5.136 3.786 7.814 8.536 9.209"></path><path fill="url(#ExplainerTeamLight_svg__e)" d="M113.533 89.184c1.48-.495 1.826-3.234 1.823-4.794l.002-.021c.003-1.419.908-2.549 2.016-3.929 1.741-2.172 3.981-4.964 3.981-10.478 0-8.374-6.469-15.27-14.576-15.27-.901 0-1.783.086-2.638.25-.723.137-.941 1.024-.45 1.573 3.75 4.188 6.003 9.79 6.003 15.808 0 6.724-2.315 10.944-4.556 13.96-.457.616-.915 1.187-1.29 1.655l-.139.173c-.259.323-.466.586-.64.815a.344.344 0 0 0 .092.501c.999.626 2.149 1.165 3.63 1.86.802.377 1.739.293 2.501-.16a21.8 21.8 0 0 1 4.241-1.943"></path></g><path stroke="#000" stroke-opacity="0.05" d="M58.216 84.39v-.024l-.003-.023c-.013-1.583-1.014-2.831-2.06-4.136l-.065-.08-.001-.001c-1.721-2.146-3.87-4.826-3.87-10.164 0-8.122 6.269-14.77 14.075-14.77.87 0 1.72.083 2.544.24.156.03.254.132.292.273.04.15.009.332-.12.476-3.83 4.279-6.13 9.998-6.13 16.142 0 6.86 2.368 11.18 4.654 14.259a56 56 0 0 0 1.3 1.667l.002.002.138.173c.208.26.381.477.529.669-.936.57-2.018 1.077-3.433 1.742-.719.337-1.519.713-2.418 1.153-4.443 2.173-12.433 6.413-12.433 15.771 0 .34-.301.532-.54.462-2.334-.686-4.383-1.674-5.843-3.083-1.446-1.394-2.334-3.219-2.334-5.647 0-2.538 1.188-4.376 2.947-5.854 1.778-1.496 4.103-2.591 6.318-3.632l.033-.015c1.618-.76 3.192-1.5 4.36-2.341 1.173-.847 2.055-1.881 2.057-3.258Zm58.703-4.183c-1.047 1.305-2.048 2.553-2.061 4.136l-.002.023v.025c.002.752-.082 1.776-.336 2.657-.265.92-.66 1.5-1.146 1.662a22.3 22.3 0 0 0-4.338 1.987c-.634.377-1.395.437-2.032.138-1.416-.665-2.497-1.173-3.433-1.742.148-.192.32-.41.528-.67l.139-.172.001-.002c.375-.467.838-1.044 1.301-1.667 2.286-3.078 4.654-7.4 4.654-14.258 0-6.145-2.3-11.864-6.13-16.143a.51.51 0 0 1-.12-.476.36.36 0 0 1 .291-.273l-.094-.49.094.49c.824-.157 1.674-.24 2.544-.24 7.807 0 14.076 6.648 14.076 14.77 0 5.338-2.149 8.018-3.87 10.164l-.002.001z"></path><g filter="url(#ExplainerTeamLight_svg__f)"><mask id="ExplainerTeamLight_svg__i" width="49" height="69" x="57.195" y="53" fill="#000" maskUnits="userSpaceOnUse"><path fill="#fff" d="M57.195 53h49v69h-49z"></path><path fill-rule="evenodd" d="M77.053 89.624v.013c-.005 2.723-3.45 4.342-7.395 6.195-5.284 2.483-11.463 5.386-11.463 11.926 0 12.89 19.875 12.878 28.643 12.872h1.017c1.565.001 3.484.003 5.581-.069 2.28-.079 3.419-.118 4.158-.554.743-.439 1.112-.872 1.426-1.676.313-.799.112-2.384-.29-5.553a22 22 0 0 1-.176-2.788c0-3.027.613-5.911 1.722-8.534.839-1.982 1.258-2.974 1.31-3.47.09-.84.12-.499-.118-1.308-.141-.48-1.184-2.07-3.271-5.251-.358-.546-.558-1.136-.559-1.79l.001-.013.002-.013c.002-1.702 1.09-3.058 2.418-4.714 2.09-2.606 4.777-5.957 4.777-12.574 0-10.048-7.762-18.323-17.49-18.323s-17.49 8.275-17.49 18.323c0 6.617 2.687 9.968 4.777 12.574 1.329 1.656 2.416 3.012 2.418 4.714q0 .006.002.013" clip-rule="evenodd"></path></mask><path fill="url(#ExplainerTeamLight_svg__g)" fill-rule="evenodd" d="M77.053 89.624v.013c-.005 2.723-3.45 4.342-7.395 6.195-5.284 2.483-11.463 5.386-11.463 11.926 0 12.89 19.875 12.878 28.643 12.872h1.017c1.565.001 3.484.003 5.581-.069 2.28-.079 3.419-.118 4.158-.554.743-.439 1.112-.872 1.426-1.676.313-.799.112-2.384-.29-5.553a22 22 0 0 1-.176-2.788c0-3.027.613-5.911 1.722-8.534.839-1.982 1.258-2.974 1.31-3.47.09-.84.12-.499-.118-1.308-.141-.48-1.184-2.07-3.271-5.251-.358-.546-.558-1.136-.559-1.79l.001-.013.002-.013c.002-1.702 1.09-3.058 2.418-4.714 2.09-2.606 4.777-5.957 4.777-12.574 0-10.048-7.762-18.323-17.49-18.323s-17.49 8.275-17.49 18.323c0 6.617 2.687 9.968 4.777 12.574 1.329 1.656 2.416 3.012 2.418 4.714q0 .006.002.013" clip-rule="evenodd"></path><path fill="url(#ExplainerTeamLight_svg__h)" fill-opacity="0.1" d="m77.054 89.637-.74-.002zm-.001-.013-.727.144zm-7.395 6.208.315.67zm17.18 24.798v.741zm1.017 0v.741zm9.783-30.993-.74.001zm.001-.013-.726-.146v.002zm.001-.006.737.075zm0-.007.741.001zm2.419-4.714-.578-.463zM69.856 72.323h.74zm4.777 12.574.578-.464zm2.418 4.714-.74.001zm24.535 8.375-.736-.078zm-3.389-6.56-.62.407zm3.271 5.252.711-.21zm-8.032 23.883.026.74zm4.158-.554.376.638zm1.135-7.229-.734.093zm.291 5.553.69.27zM77.795 89.638a1 1 0 0 0-.016-.16l-1.453.29a.7.7 0 0 1-.013-.133zm-7.822 6.864c1.952-.917 3.87-1.815 5.293-2.84 1.421-1.025 2.525-2.303 2.529-4.024l-1.482-.003c-.002 1.002-.624 1.895-1.913 2.824-1.287.928-3.064 1.766-5.057 2.702zm-11.037 11.256c0-2.993 1.397-5.162 3.486-6.918 2.117-1.78 4.89-3.087 7.551-4.338l-.63-1.34c-2.622 1.231-5.582 2.617-7.875 4.544-2.321 1.952-4.013 4.504-4.013 8.052zm27.901 12.132c-4.4.002-11.463.003-17.419-1.576-2.975-.789-5.606-1.955-7.483-3.655-1.853-1.678-2.999-3.897-2.999-6.901h-1.481c0 3.442 1.338 6.054 3.486 7.999 2.123 1.923 5.008 3.17 8.098 3.989 6.173 1.636 13.432 1.628 17.799 1.625zm.509 0h-.509l.001 1.481h.508zm.51 0h-.51v1.481h.508zm5.555-.07c-2.082.072-3.99.071-5.556.07v1.481c1.564.001 3.495.002 5.607-.07zm6.053-7.135a21 21 0 0 1-.17-2.695h-1.48q0 1.464.18 2.881zm-.17-2.695c0-2.926.593-5.712 1.665-8.246l-1.365-.576a22.6 22.6 0 0 0-1.78 8.822zm-2.397-20.352c.002.816.254 1.545.68 2.195l1.24-.813c-.29-.44-.437-.892-.438-1.385zm.016-.159a1 1 0 0 0-.016.159l1.482-.003a.7.7 0 0 1-.013.133zm-.01.063.01-.064 1.453.291.011-.076zm-.003.068q0-.034.003-.067l1.474.15a1 1 0 0 0 .004-.08zm2.581-5.176C98.2 86.03 96.903 87.598 96.9 89.61l1.481.002c.003-1.392.88-2.536 2.256-4.251zm4.615-12.11c0 6.358-2.555 9.541-4.615 12.11l1.156.927c2.12-2.645 4.94-6.163 4.94-13.038zM87.346 54.74c9.283 0 16.75 7.906 16.75 17.582h1.481c0-10.42-8.058-19.064-18.231-19.064zm-16.75 17.582c0-9.676 7.467-17.582 16.75-17.582v-1.482c-10.173 0-18.231 8.643-18.231 19.064zm4.615 12.11c-2.06-2.568-4.615-5.751-4.615-12.11h-1.481c0 6.875 2.82 10.393 4.94 13.037zm2.581 5.177c-.003-2.012-1.3-3.579-2.581-5.177l-1.156.927c1.376 1.716 2.253 2.86 2.256 4.252zm-.013-.131a.7.7 0 0 1 .013.13l-1.481.003q0 .076.015.156zm23.18 12.265a97 97 0 0 0 .958-2.312c.212-.549.368-1.008.406-1.368l-1.473-.156c-.015.136-.095.42-.315.988-.211.545-.52 1.276-.94 2.272zm-3.381-9.911a282 282 0 0 1 2.358 3.628c.267.424.468.755.61 1.006a5 5 0 0 1 .2.39l.011.03 1.422-.418c-.062-.21-.195-.467-.343-.73a28 28 0 0 0-.647-1.068c-.544-.863-1.331-2.063-2.373-3.65zm4.745 6.231c.022-.205.038-.321.052-.435.012-.1.026-.23.013-.375s-.051-.27-.08-.366c-.034-.11-.071-.221-.129-.42l-1.422.42c.061.206.11.356.135.436.028.093.022.088.02.064s.003-.031-.009.066c-.009.083-.03.24-.053.454zm-8.861 23.237c1.127-.039 2.016-.069 2.713-.147s1.291-.212 1.795-.509l-.753-1.276c-.235.139-.58.243-1.207.313s-1.448.099-2.599.138zm4.533-8.43c.202 1.594.349 2.757.409 3.623.061.894.016 1.338-.074 1.567l1.38.54c.223-.57.233-1.318.172-2.209-.064-.918-.218-2.132-.418-3.707zm-.025 7.774c.419-.247.769-.514 1.062-.859s.501-.733.678-1.185l-1.38-.54c-.137.352-.27.582-.426.765-.155.182-.361.351-.687.543z" mask="url(#ExplainerTeamLight_svg__i)"></path></g><mask id="ExplainerTeamLight_svg__k" fill="#fff"><path fill-rule="evenodd" d="M120.483 93.12a4.22 4.22 0 0 1 4.144 3.431c.933.287 1.824.669 2.663 1.133a4.218 4.218 0 0 1 5.75 5.971q.531 1.05.884 2.191a4.219 4.219 0 0 1 0 8.288 14 14 0 0 1-.988 2.392 4.217 4.217 0 0 1-5.918 5.916c-.759.399-1.558.731-2.391.987a4.219 4.219 0 0 1-8.289-.002 14 14 0 0 1-2.184-.882 4.22 4.22 0 0 1-5.973-5.75 14 14 0 0 1-1.132-2.66 4.218 4.218 0 0 1 0-8.29c.266-.863.613-1.691 1.031-2.474a4.22 4.22 0 0 1 5.781-5.784c.784-.42 1.613-.767 2.477-1.033a4.22 4.22 0 0 1 4.145-3.434m.001 21.088a4.217 4.217 0 1 0 0-8.434 4.217 4.217 0 0 0 0 8.434" clip-rule="evenodd"></path></mask><path fill="url(#ExplainerTeamLight_svg__j)" fill-rule="evenodd" d="M120.483 93.12a4.22 4.22 0 0 1 4.144 3.431c.933.287 1.824.669 2.663 1.133a4.218 4.218 0 0 1 5.75 5.971q.531 1.05.884 2.191a4.219 4.219 0 0 1 0 8.288 14 14 0 0 1-.988 2.392 4.217 4.217 0 0 1-5.918 5.916c-.759.399-1.558.731-2.391.987a4.219 4.219 0 0 1-8.289-.002 14 14 0 0 1-2.184-.882 4.22 4.22 0 0 1-5.973-5.75 14 14 0 0 1-1.132-2.66 4.218 4.218 0 0 1 0-8.29c.266-.863.613-1.691 1.031-2.474a4.22 4.22 0 0 1 5.781-5.784c.784-.42 1.613-.767 2.477-1.033a4.22 4.22 0 0 1 4.145-3.434m.001 21.088a4.217 4.217 0 1 0 0-8.434 4.217 4.217 0 0 0 0 8.434" clip-rule="evenodd"></path><path fill="#000" fill-opacity="0.1" d="m124.627 96.551-1.036.196.118.625.608.187zm2.663 1.133-.511.923.557.308.532-.349zm5.292.548-.745.745zm.458 5.423-.859-.611-.369.519.287.568zm.884 2.191-1.008.311.187.607.625.118zm0 8.288-.196-1.036-.625.118-.187.608zm-.988 2.392-.933-.491-.316.601.416.536zm-5.918 5.916.647-.833-.536-.416-.601.316zm-2.391.987-.31-1.008-.608.187-.118.626zm-8.289-.002 1.036-.195-.117-.626-.608-.187zm-2.184-.882.475-.941-.568-.287-.519.37zm-5.427-.455.746-.746zm-.546-5.295.882.579.349-.533-.308-.557zm-1.132-2.66 1.007-.31-.187-.609-.626-.117zm0-8.29.194 1.036.626-.117.187-.608zm1.031-2.474.93.497.281-.526-.305-.511zm.644-5.14.745.746zm5.137-.644-.539.906.512.305.525-.281zm2.477-1.033.311 1.007.608-.187.117-.626zm9.325-.198a5.27 5.27 0 0 0-5.18-4.29v2.108a3.164 3.164 0 0 1 3.108 2.573zm2.138.406c-.902-.5-1.861-.91-2.864-1.218l-.62 2.015c.862.265 1.686.618 2.462 1.048zm5.527.724a5.274 5.274 0 0 0-6.617-.683l1.157 1.763a3.165 3.165 0 0 1 3.969.411zm.571 6.781a5.274 5.274 0 0 0-.571-6.78l-1.491 1.49a3.165 3.165 0 0 1 .344 4.067zm1.033 1.269a15 15 0 0 0-.951-2.356l-1.882.951q.492.97.817 2.026zm3.476 4.454a5.274 5.274 0 0 0-4.288-5.18l-.392 2.072a3.165 3.165 0 0 1 2.571 3.108zm-4.288 5.18a5.27 5.27 0 0 0 4.288-5.18h-2.109a3.164 3.164 0 0 1-2.571 3.108zm-.25 1.846c.429-.815.786-1.675 1.062-2.571l-2.016-.621c-.237.77-.544 1.509-.913 2.211zm-.541 5.819a5.27 5.27 0 0 0 .44-6.956l-1.666 1.293a3.16 3.16 0 0 1-.265 4.172zm-6.957.44a5.27 5.27 0 0 0 6.957-.44l-1.491-1.491a3.164 3.164 0 0 1-4.173.265zm-1.435 1.162a15 15 0 0 0 2.572-1.061l-.981-1.867q-1.055.555-2.211.912zm-4.454 3.478a5.27 5.27 0 0 0 5.18-4.291l-2.072-.39a3.165 3.165 0 0 1-3.108 2.572zm-5.181-4.294a5.27 5.27 0 0 0 5.181 4.294v-2.109a3.165 3.165 0 0 1-3.109-2.574zm-1.624-.135c.749.379 1.535.697 2.349.948l.622-2.015q-1.051-.325-2.02-.815zm-5.697-.651a5.274 5.274 0 0 0 6.785.569l-1.224-1.717a3.164 3.164 0 0 1-4.069-.343zm-.681-6.619a5.27 5.27 0 0 0 .681 6.619l1.492-1.491a3.16 3.16 0 0 1-.41-3.97zm-1.259-1.77a15 15 0 0 0 1.218 2.86l1.845-1.022a13 13 0 0 1-1.048-2.459zm-3.482-4.456a5.274 5.274 0 0 0 4.295 5.182l.389-2.073a3.164 3.164 0 0 1-2.575-3.109zm4.295-5.181a5.27 5.27 0 0 0-4.295 5.181h2.109a3.165 3.165 0 0 1 2.575-3.109zm.297-1.936a15 15 0 0 0-1.11 2.662l2.015.621c.246-.798.567-1.564.954-2.288zm.827-5.387a5.27 5.27 0 0 0-.803 6.424l1.811-1.079a3.165 3.165 0 0 1 .483-3.854zm6.423-.805a5.275 5.275 0 0 0-6.423.805l1.491 1.49a3.166 3.166 0 0 1 3.853-.483zm1.626-1.135c-.929.287-1.82.66-2.663 1.112l.995 1.859c.725-.388 1.491-.71 2.29-.956zm4.456-3.48a5.27 5.27 0 0 0-5.181 4.293l2.072.39a3.165 3.165 0 0 1 3.109-2.575zm3.164 17.924a3.163 3.163 0 0 1-3.163 3.163v2.109a5.27 5.27 0 0 0 5.272-5.272zm-3.163-3.163a3.163 3.163 0 0 1 3.163 3.163h2.109a5.273 5.273 0 0 0-5.272-5.272zm-3.164 3.163a3.164 3.164 0 0 1 3.164-3.163v-2.109a5.27 5.27 0 0 0-5.272 5.272zm3.164 3.163a3.164 3.164 0 0 1-3.164-3.163h-2.108a5.27 5.27 0 0 0 5.272 5.272z" mask="url(#ExplainerTeamLight_svg__k)"></path></g></g><defs><linearGradient id="ExplainerTeamLight_svg__d" x1="52.528" x2="52.528" y1="54.776" y2="108.69" gradientUnits="userSpaceOnUse"><stop stop-color="#D1D1D1"></stop><stop offset="1" stop-color="#E7E7E7"></stop></linearGradient><linearGradient id="ExplainerTeamLight_svg__e" x1="52.528" x2="52.528" y1="54.776" y2="108.69" gradientUnits="userSpaceOnUse"><stop stop-color="#D1D1D1"></stop><stop offset="1" stop-color="#E7E7E7"></stop></linearGradient><linearGradient id="ExplainerTeamLight_svg__g" x1="81.516" x2="81.516" y1="54" y2="120.631" gradientUnits="userSpaceOnUse"><stop stop-color="#FAFAFA"></stop><stop offset="1" stop-color="#fff"></stop></linearGradient><linearGradient id="ExplainerTeamLight_svg__h" x1="81.516" x2="81.516" y1="54" y2="120.631" gradientUnits="userSpaceOnUse"><stop></stop><stop offset="1" stop-opacity="0"></stop></linearGradient><linearGradient id="ExplainerTeamLight_svg__j" x1="120.484" x2="120.484" y1="93.12" y2="126.86" gradientUnits="userSpaceOnUse"><stop stop-color="#8C18E8"></stop><stop offset="1" stop-color="#C35DE7"></stop></linearGradient><filter id="ExplainerTeamLight_svg__a" width="228" height="228" x="-24" y="-24" color-interpolation-filters="sRGB" filterUnits="userSpaceOnUse"><feFlood flood-opacity="0" result="BackgroundImageFix"></feFlood><feGaussianBlur in="BackgroundImageFix" stdDeviation="12"></feGaussianBlur><feComposite in2="SourceAlpha" operator="in" result="effect1_backgroundBlur_10400_181015"></feComposite><feBlend in="SourceGraphic" in2="effect1_backgroundBlur_10400_181015" result="shape"></feBlend></filter><filter id="ExplainerTeamLight_svg__c" width="79.356" height="55.504" x="42" y="54.693" color-interpolation-filters="sRGB" filterUnits="userSpaceOnUse"><feFlood flood-opacity="0" result="BackgroundImageFix"></feFlood><feBlend in="SourceGraphic" in2="BackgroundImageFix" result="shape"></feBlend><feColorMatrix in="SourceAlpha" result="hardAlpha" values="0 0 0 0 0 0 0 0 0 0 0 0 0 0 0 0 0 0 127 0"></feColorMatrix><feOffset dy="1.46"></feOffset><feGaussianBlur stdDeviation="0.73"></feGaussianBlur><feComposite in2="hardAlpha" k2="-1" k3="1" operator="arithmetic"></feComposite><feColorMatrix values="0 0 0 0 0 0 0 0 0 0 0 0 0 0 0 0 0 0 0.05 0"></feColorMatrix><feBlend in2="shape" result="effect1_innerShadow_10400_181015"></feBlend></filter><filter id="ExplainerTeamLight_svg__f" width="166.642" height="201.446" x="-1.804" y="53.259" color-interpolation-filters="sRGB" filterUnits="userSpaceOnUse"><feFlood flood-opacity="0" result="BackgroundImageFix"></feFlood><feColorMatrix in="SourceAlpha" result="hardAlpha" values="0 0 0 0 0 0 0 0 0 0 0 0 0 0 0 0 0 0 127 0"></feColorMatrix><feOffset dy="2.05"></feOffset><feGaussianBlur stdDeviation="0.82"></feGaussianBlur><feColorMatrix values="0 0 0 0 0.388235 0 0 0 0 0.388235 0 0 0 0 0.388235 0 0 0 0.07 0"></feColorMatrix><feBlend in2="BackgroundImageFix" result="effect1_dropShadow_10400_181015"></feBlend><feColorMatrix in="SourceAlpha" result="hardAlpha" values="0 0 0 0 0 0 0 0 0 0 0 0 0 0 0 0 0 0 127 0"></feColorMatrix><feOffset dy="4.926"></feOffset><feGaussianBlur stdDeviation="1.97"></feGaussianBlur><feColorMatrix values="0 0 0 0 0.388235 0 0 0 0 0.388235 0 0 0 0 0.388235 0 0 0 0.0503198 0"></feColorMatrix><feBlend in2="effect1_dropShadow_10400_181015" result="effect2_dropShadow_10400_181015"></feBlend><feColorMatrix in="SourceAlpha" result="hardAlpha" values="0 0 0 0 0 0 0 0 0 0 0 0 0 0 0 0 0 0 127 0"></feColorMatrix><feOffset dy="9.275"></feOffset><feGaussianBlur stdDeviation="3.71"></feGaussianBlur><feColorMatrix values="0 0 0 0 0.388235 0 0 0 0 0.388235 0 0 0 0 0.388235 0 0 0 0.0417275 0"></feColorMatrix><feBlend in2="effect2_dropShadow_10400_181015" result="effect3_dropShadow_10400_181015"></feBlend><feColorMatrix in="SourceAlpha" result="hardAlpha" values="0 0 0 0 0 0 0 0 0 0 0 0 0 0 0 0 0 0 127 0"></feColorMatrix><feOffset dy="16.545"></feOffset><feGaussianBlur stdDeviation="6.618"></feGaussianBlur><feColorMatrix values="0 0 0 0 0.388235 0 0 0 0 0.388235 0 0 0 0 0.388235 0 0 0 0.035 0"></feColorMatrix><feBlend in2="effect3_dropShadow_10400_181015" result="effect4_dropShadow_10400_181015"></feBlend><feColorMatrix in="SourceAlpha" result="hardAlpha" values="0 0 0 0 0 0 0 0 0 0 0 0 0 0 0 0 0 0 127 0"></feColorMatrix><feOffset dy="30.946"></feOffset><feGaussianBlur stdDeviation="12.379"></feGaussianBlur><feColorMatrix values="0 0 0 0 0.388235 0 0 0 0 0.388235 0 0 0 0 0.388235 0 0 0 0.0282725 0"></feColorMatrix><feBlend in2="effect4_dropShadow_10400_181015" result="effect5_dropShadow_10400_181015"></feBlend><feColorMatrix in="SourceAlpha" result="hardAlpha" values="0 0 0 0 0 0 0 0 0 0 0 0 0 0 0 0 0 0 127 0"></feColorMatrix><feOffset dy="74.074"></feOffset><feGaussianBlur stdDeviation="29.63"></feGaussianBlur><feColorMatrix values="0 0 0 0 0.388235 0 0 0 0 0.388235 0 0 0 0 0.388235 0 0 0 0.0196802 0"></feColorMatrix><feBlend in2="effect5_dropShadow_10400_181015" result="effect6_dropShadow_10400_181015"></feBlend><feBlend in="SourceGraphic" in2="effect6_dropShadow_10400_181015" result="shape"></feBlend></filter><clipPath id="ExplainerTeamLight_svg__b"><rect width="180" height="180" fill="#fff" rx="16"></rect></clipPath></defs></svg>