<svg xmlns="http://www.w3.org/2000/svg" fill="none" viewBox="0 0 180 180"><g filter="url(#ExplainerPageDark_svg__a)"><g clip-path="url(#ExplainerPageDark_svg__b)"><g filter="url(#ExplainerPageDark_svg__c)"><rect width="107" height="88" x="36" y="37.889" fill="url(#ExplainerPageDark_svg__d)" rx="16"></rect><rect width="106.5" height="87.5" x="36.25" y="38.139" stroke="#fff" stroke-opacity="0.1" stroke-width="0.5" rx="15.75"></rect></g><mask id="ExplainerPageDark_svg__f" fill="#fff"><path fill-rule="evenodd" d="M44 65.074c0-1.693 0-2.54.32-3.19.304-.615.8-1.112 1.415-1.415.65-.32 1.497-.32 3.19-.32h80.89c1.693 0 2.54 0 3.191.32.614.303 1.111.8 1.414 1.414.321.65.321 1.498.321 3.191 0 1.694 0 2.54-.321 3.19a3.1 3.1 0 0 1-1.414 1.415c-.651.321-1.498.321-3.191.321h-80.89c-1.693 0-2.54 0-3.19-.32a3.1 3.1 0 0 1-1.414-1.415C44 67.615 44 66.768 44 65.075m0 13.904c0-1.743 0-2.614.34-3.28a3.1 3.1 0 0 1 1.359-1.359C46.364 74 47.235 74 48.978 74h80.785c1.742 0 2.614 0 3.279.34a3.1 3.1 0 0 1 1.36 1.359c.339.665.339 1.536.339 3.279v10.044c0 1.743 0 2.614-.339 3.28a3.1 3.1 0 0 1-1.36 1.359c-.665.339-1.537.339-3.279.339H48.978c-1.743 0-2.614 0-3.28-.34a3.1 3.1 0 0 1-1.359-1.359C44 91.636 44 90.765 44 89.022zm.34 20.72c-.34.666-.34 1.537-.34 3.28v1.748c0 4.646 0 6.969.904 8.744a8.3 8.3 0 0 0 3.626 3.626c1.774.904 4.098.904 8.744.904h64.193c4.646 0 6.969 0 8.744-.904a8.3 8.3 0 0 0 3.625-3.626c.905-1.775.905-4.098.905-8.744v-1.748c0-1.743 0-2.614-.339-3.28a3.1 3.1 0 0 0-1.36-1.359c-.665-.339-1.537-.339-3.279-.339H48.978c-1.743 0-2.614 0-3.28.34a3.1 3.1 0 0 0-1.359 1.359" clip-rule="evenodd"></path></mask><path fill="url(#ExplainerPageDark_svg__e)" fill-rule="evenodd" d="M44 65.074c0-1.693 0-2.54.32-3.19.304-.615.8-1.112 1.415-1.415.65-.32 1.497-.32 3.19-.32h80.89c1.693 0 2.54 0 3.191.32.614.303 1.111.8 1.414 1.414.321.65.321 1.498.321 3.191 0 1.694 0 2.54-.321 3.19a3.1 3.1 0 0 1-1.414 1.415c-.651.321-1.498.321-3.191.321h-80.89c-1.693 0-2.54 0-3.19-.32a3.1 3.1 0 0 1-1.414-1.415C44 67.615 44 66.768 44 65.075m0 13.904c0-1.743 0-2.614.34-3.28a3.1 3.1 0 0 1 1.359-1.359C46.364 74 47.235 74 48.978 74h80.785c1.742 0 2.614 0 3.279.34a3.1 3.1 0 0 1 1.36 1.359c.339.665.339 1.536.339 3.279v10.044c0 1.743 0 2.614-.339 3.28a3.1 3.1 0 0 1-1.36 1.359c-.665.339-1.537.339-3.279.339H48.978c-1.743 0-2.614 0-3.28-.34a3.1 3.1 0 0 1-1.359-1.359C44 91.636 44 90.765 44 89.022zm.34 20.72c-.34.666-.34 1.537-.34 3.28v1.748c0 4.646 0 6.969.904 8.744a8.3 8.3 0 0 0 3.626 3.626c1.774.904 4.098.904 8.744.904h64.193c4.646 0 6.969 0 8.744-.904a8.3 8.3 0 0 0 3.625-3.626c.905-1.775.905-4.098.905-8.744v-1.748c0-1.743 0-2.614-.339-3.28a3.1 3.1 0 0 0-1.36-1.359c-.665-.339-1.537-.339-3.279-.339H48.978c-1.743 0-2.614 0-3.28.34a3.1 3.1 0 0 0-1.359 1.359" clip-rule="evenodd"></path><path fill="#000" fill-opacity="0.1" d="m44.32 61.883.45.221zm1.415-1.414.221.448zm87.271 0 .221-.448zm1.414 1.414.448-.22zm0 6.382.448.221zm-1.414 1.414.221.449zm-87.27 0-.222.449zm-1.415-1.414-.449.221zm.018 7.434.446.227zm1.36-1.36-.227-.445zm87.343 0 .227-.445zm1.36 1.36.445-.227zm0 16.602.445.227zm-1.36 1.36.227.445zm-87.343 0 .227-.446zm-1.36-1.36-.445.227zm0 7.398-.445-.227zm.565 13.771.446-.227zm3.626 3.626.227-.446zm81.681 0 .227.445zm3.625-3.626-.445-.227zm.566-13.771.445-.227zm-1.36-1.36.227-.445zm-87.343 0 .227.446zm-1.827-36.677c-.2.406-.288.851-.33 1.386-.042.53-.042 1.187-.042 2.026h1c0-.855 0-1.466.038-1.947.038-.474.11-.778.231-1.023zm1.642-1.641a3.6 3.6 0 0 0-1.642 1.641l.897.442a2.6 2.6 0 0 1 1.187-1.187zm3.412-.373c-.839 0-1.497 0-2.026.042-.535.042-.98.13-1.386.33l.442.897c.245-.12.548-.193 1.023-.23.48-.038 1.092-.039 1.947-.039zm80.889 0h-80.89v1h80.89zm3.412.373c-.406-.2-.851-.289-1.386-.331-.529-.042-1.187-.042-2.026-.042v1c.855 0 1.466 0 1.947.039.474.037.778.11 1.022.23zm1.641 1.641a3.6 3.6 0 0 0-1.641-1.641l-.443.896c.516.255.933.672 1.187 1.187zm.373 3.412c0-.839 0-1.497-.042-2.026-.042-.535-.131-.98-.331-1.386l-.897.442c.121.245.193.549.231 1.023.038.48.039 1.092.039 1.947zm-.373 3.412c.2-.406.289-.851.331-1.386.042-.529.042-1.187.042-2.026h-1c0 .855-.001 1.467-.039 1.947-.038.475-.11.778-.231 1.023zm-1.641 1.642a3.6 3.6 0 0 0 1.641-1.642l-.897-.442a2.6 2.6 0 0 1-1.187 1.187zm-3.412.372c.839 0 1.497 0 2.026-.042.535-.042.98-.13 1.386-.33l-.443-.897c-.244.12-.548.193-1.022.23-.481.039-1.092.039-1.947.039zm-80.89 0h80.89v-1h-80.89zm-3.411-.372c.406.2.851.288 1.386.33.529.042 1.187.042 2.026.042v-1c-.855 0-1.467 0-1.947-.038-.475-.038-.778-.11-1.023-.231zm-1.642-1.642a3.6 3.6 0 0 0 1.642 1.642l.442-.897a2.6 2.6 0 0 1-1.187-1.187zm-.372-3.412c0 .839 0 1.497.042 2.026.042.535.13.98.33 1.386l.897-.442c-.12-.245-.193-.548-.23-1.023-.039-.48-.039-1.092-.039-1.947zm.394 10.398c-.212.415-.305.872-.35 1.422-.044.544-.044 1.22-.044 2.084h1c0-.88 0-1.51.04-2.003.04-.488.117-.799.245-1.05zm1.578-1.578a3.6 3.6 0 0 0-1.578 1.578l.89.454c.25-.492.65-.891 1.142-1.141zm3.506-.394c-.863 0-1.54 0-2.084.044-.55.045-1.007.138-1.422.35l.454.89c.25-.127.561-.203 1.05-.243.493-.04 1.122-.041 2.002-.041zm80.785 0H48.978v1h80.785zm3.506.394c-.415-.212-.872-.305-1.422-.35-.544-.044-1.221-.044-2.084-.044v1c.879 0 1.509 0 2.003.04.487.04.799.117 1.049.245zm1.578 1.578a3.6 3.6 0 0 0-1.578-1.578l-.454.89c.491.25.891.65 1.141 1.142zm.394 3.506c0-.863 0-1.54-.044-2.084-.045-.55-.138-1.007-.35-1.422l-.891.454c.128.25.204.561.244 1.05.04.493.041 1.122.041 2.002zm0 10.044V78.978h-1v10.044zm-.394 3.506c.212-.415.305-.872.35-1.422.044-.544.044-1.22.044-2.084h-1c0 .88-.001 1.51-.041 2.003-.04.488-.116.799-.244 1.05zm-1.578 1.578a3.6 3.6 0 0 0 1.578-1.578l-.891-.454c-.25.492-.65.891-1.141 1.141zm-3.506.394c.863 0 1.54 0 2.084-.044.55-.045 1.007-.138 1.422-.35l-.454-.89c-.25.127-.562.203-1.049.243-.494.04-1.124.041-2.003.041zm-80.785 0h80.785v-1H48.978zm-3.506-.394c.415.212.872.305 1.422.35.544.044 1.22.044 2.084.044v-1c-.88 0-1.51 0-2.003-.04-.488-.04-.799-.117-1.05-.245zm-1.578-1.578a3.6 3.6 0 0 0 1.578 1.578l.454-.89a2.6 2.6 0 0 1-1.141-1.142zm-.394-3.506c0 .863 0 1.54.044 2.084.045.55.138 1.007.35 1.422l.89-.454c-.127-.25-.203-.561-.243-1.05-.04-.493-.041-1.122-.041-2.002zm0-10.044v10.044h1V78.978zm1 24c0-.88 0-1.509.04-2.003.04-.488.117-.799.245-1.05l-.891-.453c-.212.415-.305.872-.35 1.422-.044.544-.044 1.221-.044 2.084zm0 1.748v-1.748h-1v1.748zm.85 8.517c-.41-.805-.628-1.756-.739-3.109-.11-1.358-.111-3.077-.111-5.408h-1c0 2.315 0 4.081.115 5.49.115 1.414.35 2.512.844 3.481zm3.407 3.407a7.8 7.8 0 0 1-3.407-3.407l-.891.454a8.8 8.8 0 0 0 3.844 3.844zm8.517.85c-2.331 0-4.05 0-5.408-.111-1.353-.111-2.304-.329-3.11-.739l-.453.891c.97.494 2.067.729 3.481.844 1.409.115 3.175.115 5.49.115zm64.193 0H57.274v1h64.193zm8.517-.85c-.805.41-1.757.628-3.109.739-1.358.111-3.077.111-5.408.111v1c2.315 0 4.081 0 5.489-.115 1.415-.115 2.512-.35 3.482-.844zm3.407-3.407a7.8 7.8 0 0 1-3.407 3.407l.454.891a8.8 8.8 0 0 0 3.844-3.844zm.85-8.517c0 2.331-.001 4.05-.112 5.408-.11 1.353-.328 2.304-.738 3.109l.891.454c.494-.969.728-2.067.844-3.481.115-1.409.115-3.175.115-5.49zm0-1.748v1.748h1v-1.748zm-.285-3.052c.128.25.204.561.244 1.049.04.494.041 1.123.041 2.003h1c0-.863 0-1.54-.044-2.084-.045-.55-.138-1.007-.35-1.422zm-1.141-1.141c.491.25.891.65 1.141 1.14l.891-.453a3.6 3.6 0 0 0-1.578-1.578zm-3.052-.285c.879 0 1.509 0 2.003.04.487.04.799.117 1.049.245l.454-.891c-.415-.212-.872-.305-1.422-.35-.544-.044-1.221-.044-2.084-.044zm-80.785 0h80.785v-1H48.978zm-3.052.285c.25-.128.561-.204 1.05-.244.493-.04 1.122-.041 2.002-.041v-1c-.863 0-1.54 0-2.084.044-.55.045-1.007.138-1.422.35zm-1.141 1.14c.25-.49.65-.89 1.14-1.14l-.453-.891a3.6 3.6 0 0 0-1.578 1.578z" mask="url(#ExplainerPageDark_svg__f)"></path><g filter="url(#ExplainerPageDark_svg__g)"><rect width="24.889" height="24.889" x="46.889" y="28" fill="url(#ExplainerPageDark_svg__h)" rx="6.222"></rect><rect width="24.389" height="24.389" x="47.139" y="28.25" stroke="#fff" stroke-opacity="0.1" stroke-width="0.5" rx="5.972"></rect></g><mask id="ExplainerPageDark_svg__j" fill="#fff"><path fill-rule="evenodd" d="M51.555 26.445a1.556 1.556 0 1 1 3.11 0v3.63a1.556 1.556 0 1 1-3.11 0zm0 10.63c0-.717.58-1.297 1.296-1.297h12.963a1.296 1.296 0 1 1 0 2.592H52.85c-.716 0-1.296-.58-1.296-1.296m14-12.186c-.859 0-1.555.696-1.555 1.556v3.63a1.556 1.556 0 1 0 3.111 0v-3.63c0-.86-.696-1.556-1.555-1.556" clip-rule="evenodd"></path></mask><path fill="url(#ExplainerPageDark_svg__i)" fill-rule="evenodd" d="M51.555 26.445a1.556 1.556 0 1 1 3.11 0v3.63a1.556 1.556 0 1 1-3.11 0zm0 10.63c0-.717.58-1.297 1.296-1.297h12.963a1.296 1.296 0 1 1 0 2.592H52.85c-.716 0-1.296-.58-1.296-1.296m14-12.186c-.859 0-1.555.696-1.555 1.556v3.63a1.556 1.556 0 1 0 3.111 0v-3.63c0-.86-.696-1.556-1.555-1.556" clip-rule="evenodd"></path><path fill="#fff" fill-opacity="0.1" d="M53.11 24.389c-1.135 0-2.055.92-2.055 2.056h1c0-.584.472-1.056 1.055-1.056zm2.056 2.056c0-1.136-.92-2.056-2.056-2.056v1c.583 0 1.056.473 1.056 1.056zm0 3.63v-3.63h-1v3.63zM53.11 32.13c1.136 0 2.056-.92 2.056-2.056h-1c0 .583-.473 1.056-1.056 1.056zm-2.055-2.056c0 1.135.92 2.056 2.055 2.056v-1a1.056 1.056 0 0 1-1.055-1.056zm0-3.63v3.63h1v-3.63zm1.796 8.834c-.992 0-1.796.804-1.796 1.796h1c0-.44.356-.796.796-.796zm12.963 0H52.85v1h12.963zm1.796 1.796c0-.992-.804-1.796-1.796-1.796v1c.44 0 .796.356.796.796zm-1.796 1.796c.992 0 1.796-.804 1.796-1.796h-1c0 .44-.356.796-.796.796zm-12.963 0h12.963v-1H52.85zm-1.796-1.796c0 .992.804 1.796 1.796 1.796v-1a.796.796 0 0 1-.796-.796zM64.5 26.444c0-.582.473-1.055 1.056-1.055v-1c-1.136 0-2.056.92-2.056 2.056zm0 3.63v-3.63h-1v3.63zm1.056 1.056a1.056 1.056 0 0 1-1.056-1.056h-1c0 1.135.92 2.056 2.056 2.056zm1.055-1.056c0 .583-.473 1.056-1.055 1.056v1c1.135 0 2.055-.92 2.055-2.056zm0-3.63v3.63h1v-3.63zm-1.055-1.055c.582 0 1.055.473 1.055 1.056h1c0-1.136-.92-2.056-2.055-2.056z" mask="url(#ExplainerPageDark_svg__j)"></path><path fill="url(#ExplainerPageDark_svg__k)" fill-rule="evenodd" d="M48.377 131.889h82.246c1.912 0 3.481.371 4.784 1.068a7.27 7.27 0 0 1 3.024 3.025c.698 1.303 1.069 2.872 1.069 4.784v.246c0 1.912-.371 3.481-1.069 4.784a7.26 7.26 0 0 1-3.024 3.024c-1.303.698-2.872 1.069-4.784 1.069H48.377c-1.912 0-3.48-.371-4.784-1.069a7.27 7.27 0 0 1-3.025-3.024c-.697-1.303-1.068-2.872-1.068-4.784v-.246c0-1.912.371-3.481 1.069-4.784a7.28 7.28 0 0 1 3.024-3.025c1.303-.697 2.872-1.068 4.784-1.068" clip-rule="evenodd"></path><path fill="#000" fill-opacity="0.2" fill-rule="evenodd" d="M48.377 131.889h82.246c1.912 0 3.481.371 4.784 1.068a7.27 7.27 0 0 1 3.024 3.025c.698 1.303 1.069 2.872 1.069 4.784v.246c0 1.912-.371 3.481-1.069 4.784a7.26 7.26 0 0 1-3.024 3.024c-1.303.698-2.872 1.069-4.784 1.069H48.377c-1.912 0-3.48-.371-4.784-1.069a7.27 7.27 0 0 1-3.025-3.024c-.697-1.303-1.068-2.872-1.068-4.784v-.246c0-1.912.371-3.481 1.069-4.784a7.28 7.28 0 0 1 3.024-3.025c1.303-.697 2.872-1.068 4.784-1.068" clip-rule="evenodd"></path><path stroke="#fff" stroke-opacity="0.2" stroke-width="0.5" d="M48.377 132.139h82.246c1.879 0 3.406.365 4.666 1.039a7 7 0 0 1 2.922 2.921c.674 1.261 1.039 2.788 1.039 4.667v.246c0 1.879-.365 3.406-1.039 4.666a7 7 0 0 1-2.922 2.922c-1.26.674-2.787 1.039-4.666 1.039H48.377c-1.879 0-3.406-.365-4.666-1.039a7 7 0 0 1-2.922-2.922c-.674-1.26-1.039-2.787-1.039-4.666v-.246c0-1.879.365-3.406 1.039-4.667a7 7 0 0 1 2.922-2.921c1.26-.674 2.787-1.039 4.666-1.039Z"></path><g clip-path="url(#ExplainerPageDark_svg__l)"><path fill="#8BC3F7" fill-rule="evenodd" d="M56.843 143.696c-.358.716-.698.841-.826.841s-.468-.125-.826-.841c-.291-.582-.504-1.403-.553-2.353h2.757c-.049.949-.261 1.771-.552 2.353m.552-3.187h-2.757c.05-.95.262-1.771.553-2.353.358-.716.698-.841.826-.841s.468.125.826.841c.29.582.503 1.403.552 2.353m.834.834c-.053 1.134-.319 2.146-.717 2.871a3.61 3.61 0 0 0 2.102-2.965.42.42 0 0 1-.264.094zm1.385-.74a.4.4 0 0 0-.264-.094h-1.12c-.053-1.135-.32-2.146-.718-2.871a3.61 3.61 0 0 1 2.102 2.965m-5.81-.094c.053-1.135.319-2.146.718-2.871a3.61 3.61 0 0 0-2.102 2.965.4.4 0 0 1 .263-.094zm-1.384.74a3.61 3.61 0 0 0 2.102 2.965c-.399-.725-.665-1.737-.718-2.871h-1.12a.42.42 0 0 1-.264-.094m8.041-.323a4.445 4.445 0 1 0-8.89 0 4.445 4.445 0 0 0 8.89 0" clip-rule="evenodd"></path></g><path fill="#8BC3F7" d="M65.627 144v-6.562h.942V144zm3.88.091q-.53 0-.895-.204a1.3 1.3 0 0 1-.542-.599q-.179-.395-.178-.95v-3.052h.941v2.83q0 .582.23.873t.751.291q.278 0 .495-.083a1 1 0 0 0 .365-.247 1 1 0 0 0 .217-.387q.073-.225.073-.512v-2.765h.947V144h-.947v-.712h-.069a1.3 1.3 0 0 1-.308.434q-.195.178-.469.274a1.8 1.8 0 0 1-.612.095m4.447-.022a.62.62 0 0 1-.456-.186.62.62 0 0 1-.182-.447q0-.27.182-.452a.63.63 0 0 1 .456-.182.62.62 0 0 1 .638.634.62.62 0 0 1-.182.447.61.61 0 0 1-.456.186m2.044-.069v-4.714h.941v.725h.074q.156-.39.486-.603.335-.213.799-.213.32 0 .577.104.256.105.439.296.185.186.29.442h.074q.117-.255.33-.442a1.5 1.5 0 0 1 .495-.296q.285-.104.607-.104.478 0 .816.187.339.182.517.529.177.348.178.838V144h-.942v-3.025q0-.326-.1-.538a.68.68 0 0 0-.304-.326 1.05 1.05 0 0 0-.503-.108q-.3 0-.525.138a.96.96 0 0 0-.348.365 1.06 1.06 0 0 0-.121.512V144h-.942v-3.121a.9.9 0 0 0-.113-.464.72.72 0 0 0-.312-.304 1 1 0 0 0-.482-.108.9.9 0 0 0-.508.147 1.06 1.06 0 0 0-.352.399q-.13.248-.13.556V144zm9.2.078q-.447 0-.803-.169a1.36 1.36 0 0 1-.555-.491 1.34 1.34 0 0 1-.204-.742v-.008q0-.426.204-.725.207-.3.599-.469.395-.174.954-.208l1.74-.105v.665l-1.61.104q-.485.03-.716.208a.58.58 0 0 0-.23.49v.009q0 .322.248.508.247.182.625.182.35 0 .625-.139.278-.142.434-.382a1 1 0 0 0 .156-.546v-1.485q0-.39-.243-.594-.239-.209-.712-.209-.395 0-.646.139a.68.68 0 0 0-.33.391l-.009.013h-.907l.004-.031q.056-.39.308-.677.257-.29.669-.451a2.6 2.6 0 0 1 .95-.161q.595 0 1.007.191.417.188.63.543.216.351.217.846V144h-.938v-.668h-.07a1.5 1.5 0 0 1-.347.408q-.208.165-.473.251a1.8 1.8 0 0 1-.577.087m5.841-6.64-1.918 8.133h-.886l1.915-8.133zm2.625 6.653q-.686 0-1.185-.295-.495-.3-.763-.851-.27-.551-.27-1.315v-.008q0-.751.265-1.294a1.97 1.97 0 0 1 .764-.838q.5-.294 1.185-.295.594 0 1.02.209.429.204.681.564.256.356.322.812l.004.021h-.907l-.005-.008a1 1 0 0 0-.36-.578q-.282-.234-.75-.234-.391 0-.674.2-.282.195-.433.564a2.4 2.4 0 0 0-.148.877v.008q0 .52.152.894t.434.578q.282.2.668.199.443 0 .716-.195.279-.196.391-.577l.009-.022.903-.004-.01.039a1.94 1.94 0 0 1-.333.807 1.73 1.73 0 0 1-.673.547q-.417.195-1.003.195m4.344-.013q-.447 0-.803-.169a1.36 1.36 0 0 1-.555-.491 1.34 1.34 0 0 1-.204-.742v-.008q0-.426.204-.725.207-.3.599-.469.395-.174.954-.208l1.74-.105v.665l-1.61.104q-.485.03-.716.208a.58.58 0 0 0-.23.49v.009q0 .322.248.508.247.182.625.182.35 0 .625-.139.278-.142.434-.382a1 1 0 0 0 .156-.546v-1.485q0-.39-.243-.594-.239-.209-.712-.209-.395 0-.646.139a.68.68 0 0 0-.33.391l-.009.013h-.907l.004-.031q.056-.39.308-.677.257-.29.669-.451a2.6 2.6 0 0 1 .95-.161q.595 0 1.007.191.417.188.63.543.216.351.217.846V144h-.938v-.668h-.07a1.5 1.5 0 0 1-.347.408q-.208.165-.473.251a1.8 1.8 0 0 1-.577.087m3.741-.078v-6.562h.941V144zm4.287.091q-.69 0-1.185-.295-.495-.3-.764-.846-.264-.547-.265-1.294v-.004q0-.738.265-1.289a2.07 2.07 0 0 1 .755-.86 2.1 2.1 0 0 1 1.146-.308q.66 0 1.133.295.478.296.733.829.257.53.257 1.242v.33H104.3v-.673h3.342l-.452.625v-.378q0-.503-.156-.833a1.1 1.1 0 0 0-.421-.499 1.16 1.16 0 0 0-.621-.165q-.351 0-.629.173a1.17 1.17 0 0 0-.434.504q-.156.334-.156.82v.378q0 .464.156.794t.443.504q.29.173.686.173.303 0 .52-.082.222-.087.361-.213a.7.7 0 0 0 .195-.247l.017-.035h.912l-.009.039q-.06.234-.213.469a1.7 1.7 0 0 1-.403.421q-.248.19-.599.308a2.5 2.5 0 0 1-.803.117m3.159-.091v-4.714h.942v.712h.073q.174-.377.513-.59.337-.213.855-.213.793 0 1.215.456.421.455.421 1.298V144h-.946v-2.83q0-.59-.248-.877-.242-.29-.764-.29-.342 0-.594.152a1 1 0 0 0-.391.425q-.135.274-.134.655V144zm7.013.078q-.59 0-1.033-.295-.438-.3-.682-.846-.238-.548-.238-1.289v-.009q0-.747.238-1.294.24-.546.678-.842a1.8 1.8 0 0 1 1.037-.299q.325 0 .607.104.283.1.5.287.217.181.342.438h.07v-2.595h.946V144h-.946v-.742h-.07a1.6 1.6 0 0 1-.351.443 1.6 1.6 0 0 1-.491.282 1.9 1.9 0 0 1-.607.095m.269-.807q.39 0 .677-.195a1.23 1.23 0 0 0 .438-.56 2.3 2.3 0 0 0 .152-.868v-.009q0-.504-.156-.868a1.22 1.22 0 0 0-.438-.56 1.14 1.14 0 0 0-.673-.2q-.39 0-.677.2-.282.195-.434.56-.148.36-.148.868v.009q0 .503.148.868.152.364.434.56.287.195.677.195m4.852.807q-.447 0-.803-.169a1.36 1.36 0 0 1-.556-.491 1.34 1.34 0 0 1-.204-.742v-.008q0-.426.204-.725.209-.3.599-.469.395-.174.955-.208l1.74-.105v.665l-1.61.104q-.486.03-.716.208a.58.58 0 0 0-.23.49v.009q0 .322.247.508.248.182.625.182.352 0 .625-.139.278-.142.434-.382a1 1 0 0 0 .157-.546v-1.485q0-.39-.244-.594-.239-.209-.711-.209-.395 0-.647.139a.68.68 0 0 0-.33.391l-.009.013h-.907l.005-.031q.056-.39.308-.677.256-.29.668-.451.417-.16.951-.161.594 0 1.007.191.416.188.629.543.217.351.217.846V144h-.937v-.668h-.07a1.5 1.5 0 0 1-.347.408q-.209.165-.473.251a1.8 1.8 0 0 1-.577.087m3.697-.078v-4.714h.941v.712h.074q.126-.377.443-.586.32-.208.79-.208a2 2 0 0 1 .412.043v.868a2.7 2.7 0 0 0-.508-.052q-.36 0-.633.139-.27.14-.426.391a1.1 1.1 0 0 0-.152.59V144z"></path></g></g><defs><linearGradient id="ExplainerPageDark_svg__d" x1="89.5" x2="89.5" y1="37.889" y2="125.889" gradientUnits="userSpaceOnUse"><stop stop-color="#343434"></stop><stop offset="1" stop-color="#383838"></stop></linearGradient><linearGradient id="ExplainerPageDark_svg__e" x1="88.504" x2="89.678" y1="60.544" y2="118.609" gradientUnits="userSpaceOnUse"><stop stop-color="#252525"></stop><stop offset="1" stop-color="#2B2B2B"></stop></linearGradient><linearGradient id="ExplainerPageDark_svg__h" x1="59.333" x2="59.333" y1="28" y2="52.889" gradientUnits="userSpaceOnUse"><stop stop-color="#2E2E2E"></stop><stop offset="1" stop-color="#404040"></stop></linearGradient><linearGradient id="ExplainerPageDark_svg__i" x1="59.333" x2="59.333" y1="24.889" y2="38.37" gradientUnits="userSpaceOnUse"><stop stop-color="#525252"></stop><stop offset="1" stop-color="#535353"></stop></linearGradient><linearGradient id="ExplainerPageDark_svg__k" x1="89.5" x2="89.5" y1="131.889" y2="149.889" gradientUnits="userSpaceOnUse"><stop stop-color="#1884E8"></stop><stop offset="0.979" stop-color="#5DA5E7"></stop></linearGradient><filter id="ExplainerPageDark_svg__a" width="228" height="228" x="-24" y="-24" color-interpolation-filters="sRGB" filterUnits="userSpaceOnUse"><feFlood flood-opacity="0" result="BackgroundImageFix"></feFlood><feGaussianBlur in="BackgroundImageFix" stdDeviation="12"></feGaussianBlur><feComposite in2="SourceAlpha" operator="in" result="effect1_backgroundBlur_10465_188227"></feComposite><feBlend in="SourceGraphic" in2="effect1_backgroundBlur_10465_188227" result="shape"></feBlend></filter><filter id="ExplainerPageDark_svg__c" width="189.963" height="181.333" x="-5.481" y="37.889" color-interpolation-filters="sRGB" filterUnits="userSpaceOnUse"><feFlood flood-opacity="0" result="BackgroundImageFix"></feFlood><feColorMatrix in="SourceAlpha" result="hardAlpha" values="0 0 0 0 0 0 0 0 0 0 0 0 0 0 0 0 0 0 127 0"></feColorMatrix><feOffset dy="1.435"></feOffset><feGaussianBlur stdDeviation="0.574"></feGaussianBlur><feColorMatrix values="0 0 0 0 0 0 0 0 0 0 0 0 0 0 0 0 0 0 0.07 0"></feColorMatrix><feBlend in2="BackgroundImageFix" result="effect1_dropShadow_10465_188227"></feBlend><feColorMatrix in="SourceAlpha" result="hardAlpha" values="0 0 0 0 0 0 0 0 0 0 0 0 0 0 0 0 0 0 127 0"></feColorMatrix><feOffset dy="3.448"></feOffset><feGaussianBlur stdDeviation="1.379"></feGaussianBlur><feColorMatrix values="0 0 0 0 0 0 0 0 0 0 0 0 0 0 0 0 0 0 0.0503198 0"></feColorMatrix><feBlend in2="effect1_dropShadow_10465_188227" result="effect2_dropShadow_10465_188227"></feBlend><feColorMatrix in="SourceAlpha" result="hardAlpha" values="0 0 0 0 0 0 0 0 0 0 0 0 0 0 0 0 0 0 127 0"></feColorMatrix><feOffset dy="6.493"></feOffset><feGaussianBlur stdDeviation="2.597"></feGaussianBlur><feColorMatrix values="0 0 0 0 0 0 0 0 0 0 0 0 0 0 0 0 0 0 0.0417275 0"></feColorMatrix><feBlend in2="effect2_dropShadow_10465_188227" result="effect3_dropShadow_10465_188227"></feBlend><feColorMatrix in="SourceAlpha" result="hardAlpha" values="0 0 0 0 0 0 0 0 0 0 0 0 0 0 0 0 0 0 127 0"></feColorMatrix><feOffset dy="11.582"></feOffset><feGaussianBlur stdDeviation="4.633"></feGaussianBlur><feColorMatrix values="0 0 0 0 0 0 0 0 0 0 0 0 0 0 0 0 0 0 0.035 0"></feColorMatrix><feBlend in2="effect3_dropShadow_10465_188227" result="effect4_dropShadow_10465_188227"></feBlend><feColorMatrix in="SourceAlpha" result="hardAlpha" values="0 0 0 0 0 0 0 0 0 0 0 0 0 0 0 0 0 0 127 0"></feColorMatrix><feOffset dy="21.663"></feOffset><feGaussianBlur stdDeviation="8.665"></feGaussianBlur><feColorMatrix values="0 0 0 0 0 0 0 0 0 0 0 0 0 0 0 0 0 0 0.0282725 0"></feColorMatrix><feBlend in2="effect4_dropShadow_10465_188227" result="effect5_dropShadow_10465_188227"></feBlend><feColorMatrix in="SourceAlpha" result="hardAlpha" values="0 0 0 0 0 0 0 0 0 0 0 0 0 0 0 0 0 0 127 0"></feColorMatrix><feOffset dy="51.852"></feOffset><feGaussianBlur stdDeviation="20.741"></feGaussianBlur><feColorMatrix values="0 0 0 0 0 0 0 0 0 0 0 0 0 0 0 0 0 0 0.0196802 0"></feColorMatrix><feBlend in2="effect5_dropShadow_10465_188227" result="effect6_dropShadow_10465_188227"></feBlend><feBlend in="SourceGraphic" in2="effect6_dropShadow_10465_188227" result="shape"></feBlend></filter><filter id="ExplainerPageDark_svg__g" width="38.37" height="50.296" x="40.148" y="26.444" color-interpolation-filters="sRGB" filterUnits="userSpaceOnUse"><feFlood flood-opacity="0" result="BackgroundImageFix"></feFlood><feColorMatrix in="SourceAlpha" result="hardAlpha" values="0 0 0 0 0 0 0 0 0 0 0 0 0 0 0 0 0 0 127 0"></feColorMatrix><feOffset></feOffset><feColorMatrix values="0 0 0 0 0 0 0 0 0 0 0 0 0 0 0 0 0 0 0.04 0"></feColorMatrix><feBlend in2="BackgroundImageFix" result="effect1_dropShadow_10465_188227"></feBlend><feColorMatrix in="SourceAlpha" result="hardAlpha" values="0 0 0 0 0 0 0 0 0 0 0 0 0 0 0 0 0 0 127 0"></feColorMatrix><feOffset dy="1.037"></feOffset><feGaussianBlur stdDeviation="1.296"></feGaussianBlur><feColorMatrix values="0 0 0 0 0 0 0 0 0 0 0 0 0 0 0 0 0 0 0.04 0"></feColorMatrix><feBlend in2="effect1_dropShadow_10465_188227" result="effect2_dropShadow_10465_188227"></feBlend><feColorMatrix in="SourceAlpha" result="hardAlpha" values="0 0 0 0 0 0 0 0 0 0 0 0 0 0 0 0 0 0 127 0"></feColorMatrix><feOffset dy="4.148"></feOffset><feGaussianBlur stdDeviation="2.074"></feGaussianBlur><feColorMatrix values="0 0 0 0 0 0 0 0 0 0 0 0 0 0 0 0 0 0 0.04 0"></feColorMatrix><feBlend in2="effect2_dropShadow_10465_188227" result="effect3_dropShadow_10465_188227"></feBlend><feColorMatrix in="SourceAlpha" result="hardAlpha" values="0 0 0 0 0 0 0 0 0 0 0 0 0 0 0 0 0 0 127 0"></feColorMatrix><feOffset dy="9.852"></feOffset><feGaussianBlur stdDeviation="2.852"></feGaussianBlur><feColorMatrix values="0 0 0 0 0 0 0 0 0 0 0 0 0 0 0 0 0 0 0.02 0"></feColorMatrix><feBlend in2="effect3_dropShadow_10465_188227" result="effect4_dropShadow_10465_188227"></feBlend><feColorMatrix in="SourceAlpha" result="hardAlpha" values="0 0 0 0 0 0 0 0 0 0 0 0 0 0 0 0 0 0 127 0"></feColorMatrix><feOffset dy="17.111"></feOffset><feGaussianBlur stdDeviation="3.37"></feGaussianBlur><feColorMatrix values="0 0 0 0 0 0 0 0 0 0 0 0 0 0 0 0 0 0 0.01 0"></feColorMatrix><feBlend in2="effect4_dropShadow_10465_188227" result="effect5_dropShadow_10465_188227"></feBlend><feBlend in="SourceGraphic" in2="effect5_dropShadow_10465_188227" result="shape"></feBlend></filter><clipPath id="ExplainerPageDark_svg__b"><rect width="180" height="180" fill="#fff" rx="16"></rect></clipPath><clipPath id="ExplainerPageDark_svg__l"><path fill="#fff" d="M51.572 136.481h8.89v8.889h-8.89z"></path></clipPath></defs></svg>