<svg xmlns="http://www.w3.org/2000/svg" fill="none" viewBox="0 0 180 180"><g clip-path="url(#ExplainerWelcomeLight_svg__a)"><rect width="95.407" height="51.333" x="42.668" y="38.815" fill="url(#ExplainerWelcomeLight_svg__b)" rx="13"></rect><rect width="95.907" height="51.833" x="42.418" y="38.565" stroke="url(#ExplainerWelcomeLight_svg__c)" stroke-opacity="0.1" stroke-width="0.5" rx="13.25"></rect><rect width="100.593" height="53.407" x="40.076" y="44" fill="url(#ExplainerWelcomeLight_svg__d)" rx="14"></rect><rect width="101.093" height="53.907" x="39.826" y="43.75" stroke="url(#ExplainerWelcomeLight_svg__e)" stroke-opacity="0.1" stroke-width="0.5" rx="14.25"></rect><g filter="url(#ExplainerWelcomeLight_svg__f)"><rect width="107.852" height="91.259" x="36.445" y="50.222" fill="url(#ExplainerWelcomeLight_svg__g)" rx="16"></rect><rect width="107.352" height="90.759" x="36.695" y="50.472" stroke="url(#ExplainerWelcomeLight_svg__h)" stroke-width="0.5" rx="15.75"></rect></g><g filter="url(#ExplainerWelcomeLight_svg__i)"><path fill="url(#ExplainerWelcomeLight_svg__j)" fill-rule="evenodd" d="M45.063 94.476c-.32.65-.32 1.497-.32 3.19 0 1.694 0 2.541.32 3.191a3.1 3.1 0 0 0 1.414 1.415c.65.321 1.498.321 3.191.321h66.889c1.693 0 2.54 0 3.191-.321a3.1 3.1 0 0 0 1.414-1.415c.321-.65.321-1.497.321-3.19 0-1.694 0-2.54-.321-3.191a3.1 3.1 0 0 0-1.414-1.414c-.651-.321-1.498-.321-3.191-.321H49.668c-1.693 0-2.54 0-3.19.32-.615.303-1.112.8-1.415 1.415m-.215 12.497c-.106.395-.106.877-.106 1.842 0 .964 0 1.446.106 1.842a3.11 3.11 0 0 0 2.2 2.2c.396.106.878.106 1.842.106h21.778c.964 0 1.447 0 1.842-.106a3.11 3.11 0 0 0 2.2-2.2c.106-.396.106-.878.106-1.842s0-1.447-.106-1.842a3.11 3.11 0 0 0-2.2-2.2c-.395-.106-.878-.106-1.842-.106H48.89c-.964 0-1.446 0-1.842.106a3.11 3.11 0 0 0-2.2 2.2m-.106 19.731c0-.723 0-1.085.06-1.385a3.11 3.11 0 0 1 2.444-2.444c.3-.06.662-.06 1.385-.06h57.037c.723 0 1.084 0 1.385.06a3.11 3.11 0 0 1 2.444 2.444c.06.3.06.662.06 1.385 0 .722 0 1.084-.06 1.384a3.11 3.11 0 0 1-2.444 2.445c-.301.06-.662.06-1.385.06H48.631c-.723 0-1.084 0-1.385-.06a3.11 3.11 0 0 1-2.444-2.445c-.06-.3-.06-.662-.06-1.384m83.541-1.385c-.06.301-.06.662-.06 1.385s0 1.084.06 1.384a3.11 3.11 0 0 0 2.444 2.445c.301.06.662.06 1.385.06s1.084 0 1.385-.06a3.11 3.11 0 0 0 2.444-2.445c.06-.3.06-.661.06-1.384s0-1.084-.06-1.385a3.11 3.11 0 0 0-2.444-2.444c-.301-.06-.662-.06-1.385-.06s-1.084 0-1.385.06a3.11 3.11 0 0 0-2.444 2.444" clip-rule="evenodd"></path></g><mask id="ExplainerWelcomeLight_svg__k" width="26" height="26" x="44" y="58" maskUnits="userSpaceOnUse" style="mask-type:alpha"><path fill="red" fill-rule="evenodd" d="M52.436 58.518h9.617c2.674 0 3.644.278 4.622.801a5.45 5.45 0 0 1 2.268 2.268c.523.978.801 1.948.801 4.623v9.616c0 2.675-.278 3.645-.801 4.622a5.45 5.45 0 0 1-2.268 2.268c-.978.523-1.948.802-4.622.802h-9.617c-2.675 0-3.645-.279-4.622-.802a5.45 5.45 0 0 1-2.269-2.268c-.522-.977-.8-1.947-.8-4.622V66.21c0-2.675.278-3.645.8-4.623a5.45 5.45 0 0 1 2.269-2.268c.977-.523 1.947-.801 4.622-.801" clip-rule="evenodd"></path></mask><g mask="url(#ExplainerWelcomeLight_svg__k)"><path fill="#FF66B1" d="M44.744 58.518h25v25h-25z"></path><g filter="url(#ExplainerWelcomeLight_svg__l)"><circle cx="50.744" cy="58.518" r="10" fill="#F97EFF"></circle></g><g filter="url(#ExplainerWelcomeLight_svg__m)"><circle cx="48.744" cy="81.518" r="10" fill="#FF53C7"></circle></g><g filter="url(#ExplainerWelcomeLight_svg__n)"><circle cx="45.744" cy="72.518" r="10" fill="#FF42C1"></circle></g><g filter="url(#ExplainerWelcomeLight_svg__o)"><circle cx="72.244" cy="73.018" r="14.5" fill="#FF819C"></circle></g><g filter="url(#ExplainerWelcomeLight_svg__p)"><circle cx="72.744" cy="72.518" r="8" fill="#FF9AB0"></circle></g></g><rect width="3.111" height="6.741" x="49.408" y="55.407" fill="url(#ExplainerWelcomeLight_svg__q)" rx="1.556"></rect><rect width="3.37" height="7" x="49.279" y="55.278" stroke="#000" stroke-opacity="0.1" stroke-width="0.259" rx="1.685"></rect><rect width="15.556" height="2.593" x="49.408" y="66.296" fill="#fff" fill-opacity="0.44" rx="1.296" style="mix-blend-mode:luminosity"></rect><rect width="15.556" height="2.593" x="49.408" y="66.296" fill="url(#ExplainerWelcomeLight_svg__r)" rx="1.296"></rect><rect width="15.815" height="2.852" x="49.279" y="66.167" stroke="#000" stroke-opacity="0.1" stroke-width="0.259" rx="1.426"></rect><rect width="3.111" height="6.741" x="61.852" y="55.407" fill="url(#ExplainerWelcomeLight_svg__s)" rx="1.556"></rect><rect width="3.37" height="7" x="61.722" y="55.278" stroke="#000" stroke-opacity="0.1" stroke-width="0.259" rx="1.685"></rect></g><defs><linearGradient id="ExplainerWelcomeLight_svg__b" x1="90.372" x2="90.372" y1="38.815" y2="43.481" gradientUnits="userSpaceOnUse"><stop stop-color="#fff"></stop><stop offset="1" stop-color="#F2F2F2"></stop></linearGradient><linearGradient id="ExplainerWelcomeLight_svg__c" x1="90.372" x2="90.372" y1="38.815" y2="90.148" gradientUnits="userSpaceOnUse"><stop></stop><stop offset="1" stop-opacity="0"></stop></linearGradient><linearGradient id="ExplainerWelcomeLight_svg__d" x1="90.373" x2="90.373" y1="44" y2="50.222" gradientUnits="userSpaceOnUse"><stop stop-color="#fff"></stop><stop offset="1" stop-color="#F3F3F3"></stop></linearGradient><linearGradient id="ExplainerWelcomeLight_svg__e" x1="90.373" x2="90.373" y1="44" y2="97.407" gradientUnits="userSpaceOnUse"><stop></stop><stop offset="1" stop-opacity="0"></stop></linearGradient><linearGradient id="ExplainerWelcomeLight_svg__g" x1="90.371" x2="90.371" y1="50.222" y2="141.482" gradientUnits="userSpaceOnUse"><stop stop-color="#FAFAFA"></stop><stop offset="1" stop-color="#fff"></stop></linearGradient><linearGradient id="ExplainerWelcomeLight_svg__h" x1="90.371" x2="90.371" y1="50.222" y2="141.482" gradientUnits="userSpaceOnUse"><stop stop-color="#DBDBDB"></stop><stop offset="1" stop-color="silver"></stop></linearGradient><linearGradient id="ExplainerWelcomeLight_svg__j" x1="90" x2="90" y1="93" y2="131" gradientUnits="userSpaceOnUse"><stop stop-color="#DEDEDE"></stop><stop offset="1" stop-color="#EEE"></stop></linearGradient><linearGradient id="ExplainerWelcomeLight_svg__q" x1="50.964" x2="50.964" y1="55.407" y2="62.148" gradientUnits="userSpaceOnUse"><stop stop-color="#EFEFEF"></stop><stop offset="1" stop-color="#fff"></stop></linearGradient><linearGradient id="ExplainerWelcomeLight_svg__r" x1="57.186" x2="57.186" y1="66.296" y2="68.889" gradientUnits="userSpaceOnUse"><stop stop-color="#EFEFEF"></stop><stop offset="1" stop-color="#fff"></stop></linearGradient><linearGradient id="ExplainerWelcomeLight_svg__s" x1="63.407" x2="63.407" y1="55.407" y2="62.148" gradientUnits="userSpaceOnUse"><stop stop-color="#EFEFEF"></stop><stop offset="1" stop-color="#fff"></stop></linearGradient><filter id="ExplainerWelcomeLight_svg__f" width="190.815" height="184.593" x="-5.036" y="50.222" color-interpolation-filters="sRGB" filterUnits="userSpaceOnUse"><feFlood flood-opacity="0" result="BackgroundImageFix"></feFlood><feColorMatrix in="SourceAlpha" result="hardAlpha" values="0 0 0 0 0 0 0 0 0 0 0 0 0 0 0 0 0 0 127 0"></feColorMatrix><feOffset dy="1.435"></feOffset><feGaussianBlur stdDeviation="0.574"></feGaussianBlur><feColorMatrix values="0 0 0 0 0.388235 0 0 0 0 0.388235 0 0 0 0 0.388235 0 0 0 0.07 0"></feColorMatrix><feBlend in2="BackgroundImageFix" result="effect1_dropShadow_10400_180914"></feBlend><feColorMatrix in="SourceAlpha" result="hardAlpha" values="0 0 0 0 0 0 0 0 0 0 0 0 0 0 0 0 0 0 127 0"></feColorMatrix><feOffset dy="3.448"></feOffset><feGaussianBlur stdDeviation="1.379"></feGaussianBlur><feColorMatrix values="0 0 0 0 0.388235 0 0 0 0 0.388235 0 0 0 0 0.388235 0 0 0 0.0503198 0"></feColorMatrix><feBlend in2="effect1_dropShadow_10400_180914" result="effect2_dropShadow_10400_180914"></feBlend><feColorMatrix in="SourceAlpha" result="hardAlpha" values="0 0 0 0 0 0 0 0 0 0 0 0 0 0 0 0 0 0 127 0"></feColorMatrix><feOffset dy="6.493"></feOffset><feGaussianBlur stdDeviation="2.597"></feGaussianBlur><feColorMatrix values="0 0 0 0 0.388235 0 0 0 0 0.388235 0 0 0 0 0.388235 0 0 0 0.0417275 0"></feColorMatrix><feBlend in2="effect2_dropShadow_10400_180914" result="effect3_dropShadow_10400_180914"></feBlend><feColorMatrix in="SourceAlpha" result="hardAlpha" values="0 0 0 0 0 0 0 0 0 0 0 0 0 0 0 0 0 0 127 0"></feColorMatrix><feOffset dy="11.582"></feOffset><feGaussianBlur stdDeviation="4.633"></feGaussianBlur><feColorMatrix values="0 0 0 0 0.388235 0 0 0 0 0.388235 0 0 0 0 0.388235 0 0 0 0.035 0"></feColorMatrix><feBlend in2="effect3_dropShadow_10400_180914" result="effect4_dropShadow_10400_180914"></feBlend><feColorMatrix in="SourceAlpha" result="hardAlpha" values="0 0 0 0 0 0 0 0 0 0 0 0 0 0 0 0 0 0 127 0"></feColorMatrix><feOffset dy="21.663"></feOffset><feGaussianBlur stdDeviation="8.665"></feGaussianBlur><feColorMatrix values="0 0 0 0 0.388235 0 0 0 0 0.388235 0 0 0 0 0.388235 0 0 0 0.0282725 0"></feColorMatrix><feBlend in2="effect4_dropShadow_10400_180914" result="effect5_dropShadow_10400_180914"></feBlend><feColorMatrix in="SourceAlpha" result="hardAlpha" values="0 0 0 0 0 0 0 0 0 0 0 0 0 0 0 0 0 0 127 0"></feColorMatrix><feOffset dy="51.852"></feOffset><feGaussianBlur stdDeviation="20.741"></feGaussianBlur><feColorMatrix values="0 0 0 0 0.388235 0 0 0 0 0.388235 0 0 0 0 0.388235 0 0 0 0.0196802 0"></feColorMatrix><feBlend in2="effect5_dropShadow_10400_180914" result="effect6_dropShadow_10400_180914"></feBlend><feBlend in="SourceGraphic" in2="effect6_dropShadow_10400_180914" result="shape"></feBlend></filter><filter id="ExplainerWelcomeLight_svg__i" width="91.258" height="38.37" x="44.742" y="92.741" color-interpolation-filters="sRGB" filterUnits="userSpaceOnUse"><feFlood flood-opacity="0" result="BackgroundImageFix"></feFlood><feBlend in="SourceGraphic" in2="BackgroundImageFix" result="shape"></feBlend><feColorMatrix in="SourceAlpha" result="hardAlpha" values="0 0 0 0 0 0 0 0 0 0 0 0 0 0 0 0 0 0 127 0"></feColorMatrix><feOffset dy="0.519"></feOffset><feGaussianBlur stdDeviation="0.259"></feGaussianBlur><feComposite in2="hardAlpha" k2="-1" k3="1" operator="arithmetic"></feComposite><feColorMatrix values="0 0 0 0 0 0 0 0 0 0 0 0 0 0 0 0 0 0 0.05 0"></feColorMatrix><feBlend in2="shape" result="effect1_innerShadow_10400_180914"></feBlend></filter><filter id="ExplainerWelcomeLight_svg__l" width="34" height="34" x="33.744" y="41.518" color-interpolation-filters="sRGB" filterUnits="userSpaceOnUse"><feFlood flood-opacity="0" result="BackgroundImageFix"></feFlood><feBlend in="SourceGraphic" in2="BackgroundImageFix" result="shape"></feBlend><feGaussianBlur result="effect1_foregroundBlur_10400_180914" stdDeviation="3.5"></feGaussianBlur></filter><filter id="ExplainerWelcomeLight_svg__m" width="28" height="28" x="34.744" y="67.518" color-interpolation-filters="sRGB" filterUnits="userSpaceOnUse"><feFlood flood-opacity="0" result="BackgroundImageFix"></feFlood><feBlend in="SourceGraphic" in2="BackgroundImageFix" result="shape"></feBlend><feGaussianBlur result="effect1_foregroundBlur_10400_180914" stdDeviation="2"></feGaussianBlur></filter><filter id="ExplainerWelcomeLight_svg__n" width="50" height="50" x="20.744" y="47.518" color-interpolation-filters="sRGB" filterUnits="userSpaceOnUse"><feFlood flood-opacity="0" result="BackgroundImageFix"></feFlood><feBlend in="SourceGraphic" in2="BackgroundImageFix" result="shape"></feBlend><feGaussianBlur result="effect1_foregroundBlur_10400_180914" stdDeviation="7.5"></feGaussianBlur></filter><filter id="ExplainerWelcomeLight_svg__o" width="49" height="49" x="47.744" y="48.518" color-interpolation-filters="sRGB" filterUnits="userSpaceOnUse"><feFlood flood-opacity="0" result="BackgroundImageFix"></feFlood><feBlend in="SourceGraphic" in2="BackgroundImageFix" result="shape"></feBlend><feGaussianBlur result="effect1_foregroundBlur_10400_180914" stdDeviation="5"></feGaussianBlur></filter><filter id="ExplainerWelcomeLight_svg__p" width="28" height="28" x="58.744" y="58.518" color-interpolation-filters="sRGB" filterUnits="userSpaceOnUse"><feFlood flood-opacity="0" result="BackgroundImageFix"></feFlood><feBlend in="SourceGraphic" in2="BackgroundImageFix" result="shape"></feBlend><feGaussianBlur result="effect1_foregroundBlur_10400_180914" stdDeviation="3"></feGaussianBlur></filter><clipPath id="ExplainerWelcomeLight_svg__a"><rect width="180" height="180" fill="#fff" rx="16"></rect></clipPath></defs></svg>