<svg xmlns="http://www.w3.org/2000/svg" fill="none" viewBox="0 0 180 180"><g filter="url(#ExplainerCommunityDark_svg__a)"><g clip-path="url(#ExplainerCommunityDark_svg__b)"><g filter="url(#ExplainerCommunityDark_svg__c)"><path fill="url(#ExplainerCommunityDark_svg__d)" d="M38.744 52.736C37 56.16 37 60.64 37 69.6v36.8c0 8.961 0 13.441 1.744 16.864a16 16 0 0 0 6.992 6.992C49.16 132 53.64 132 62.6 132c17.002 0 34.003.011 51.005.004 2.168-.001 3.252-.002 3.985-.305.78-.322 1.124-.584 1.639-1.253.485-.628.861-2.008 1.612-4.768a24.05 24.05 0 0 1 16.837-16.837c2.76-.751 4.14-1.127 4.768-1.612.668-.516.931-.859 1.253-1.639.303-.733.303-1.817.304-3.985.004-10.668-.003-21.337-.003-32.005 0-8.96 0-13.441-1.744-16.864a16 16 0 0 0-6.992-6.992C131.841 44 127.361 44 118.4 44H62.6c-8.96 0-13.441 0-16.864 1.744a16 16 0 0 0-6.992 6.992"></path><path stroke="url(#ExplainerCommunityDark_svg__e)" d="M37.5 69.6c0-4.489 0-7.825.216-10.468.216-2.637.643-4.54 1.473-6.169a15.5 15.5 0 0 1 6.774-6.774c1.63-.83 3.532-1.257 6.169-1.473 2.643-.216 5.98-.216 10.468-.216h55.8c4.489 0 7.825 0 10.468.216 2.637.216 4.54.643 6.169 1.473a15.5 15.5 0 0 1 6.774 6.774c.83 1.63 1.257 3.532 1.473 6.169.216 2.643.216 5.98.216 10.468l.002 12.62q.003 9.692.001 19.385c0 1.09-.001 1.885-.038 2.501s-.108 1.004-.228 1.293c-.153.371-.28.607-.432.806s-.347.383-.664.628c-.239.185-.666.378-1.433.626-.755.244-1.776.523-3.161.9a24.55 24.55 0 0 0-17.188 17.188c-.377 1.385-.656 2.406-.9 3.161-.248.767-.441 1.194-.625 1.433-.246.317-.43.512-.629.664s-.435.279-.806.432c-.289.12-.677.191-1.293.228s-1.411.038-2.501.039q-16.024.006-32.05-.001-9.477-.002-18.955-.003c-4.489 0-7.825 0-10.468-.216-2.637-.216-4.54-.643-6.169-1.473a15.5 15.5 0 0 1-6.774-6.774c-.83-1.629-1.257-3.532-1.473-6.169-.216-2.643-.216-5.979-.216-10.468z"></path></g><mask id="ExplainerCommunityDark_svg__g" fill="#fff"><path fill-rule="evenodd" d="M144.006 150.013c9.945 0 18.007-8.062 18.007-18.007 0-9.944-8.062-18.006-18.007-18.006-9.944 0-18.006 8.062-18.006 18.006s8.062 18.007 18.006 18.007m-.001-28.598a2.25 2.25 0 0 1 2.251 2.251v6.09h6.089a2.25 2.25 0 1 1 0 4.501h-6.089v6.09a2.25 2.25 0 0 1-4.502 0v-6.09h-6.089a2.251 2.251 0 0 1 0-4.501h6.089v-6.09a2.25 2.25 0 0 1 2.251-2.251" clip-rule="evenodd"></path></mask><path fill="url(#ExplainerCommunityDark_svg__f)" fill-rule="evenodd" d="M144.006 150.013c9.945 0 18.007-8.062 18.007-18.007 0-9.944-8.062-18.006-18.007-18.006-9.944 0-18.006 8.062-18.006 18.006s8.062 18.007 18.006 18.007m-.001-28.598a2.25 2.25 0 0 1 2.251 2.251v6.09h6.089a2.25 2.25 0 1 1 0 4.501h-6.089v6.09a2.25 2.25 0 0 1-4.502 0v-6.09h-6.089a2.251 2.251 0 0 1 0-4.501h6.089v-6.09a2.25 2.25 0 0 1 2.251-2.251" clip-rule="evenodd"></path><path fill="#fff" fill-opacity="0.1" d="M146.256 129.756h-1v1h1zm0 4.501v-1h-1v1zm-4.502 0h1v-1h-1zm0-4.501v1h1v-1zm19.259 2.25c0 9.393-7.614 17.007-17.007 17.007v2c10.497 0 19.007-8.51 19.007-19.007zM144.006 115c9.393 0 17.007 7.614 17.007 17.006h2c0-10.497-8.51-19.006-19.007-19.006zM127 132.006c0-9.392 7.614-17.006 17.006-17.006v-2C133.509 113 125 121.509 125 132.006zm17.006 17.007c-9.392 0-17.006-7.614-17.006-17.007h-2c0 10.497 8.509 19.007 19.006 19.007zm3.25-25.347a3.25 3.25 0 0 0-3.251-3.251v2c.691 0 1.251.56 1.251 1.251zm0 6.09v-6.09h-2v6.09zm5.089-1h-6.089v2h6.089zm3.251 3.25a3.25 3.25 0 0 0-3.251-3.25v2c.691 0 1.251.56 1.251 1.25zm-3.251 3.251a3.25 3.25 0 0 0 3.251-3.251h-2a1.25 1.25 0 0 1-1.251 1.251zm-6.089 0h6.089v-2h-6.089zm1 5.09v-6.09h-2v6.09zm-3.251 3.25a3.25 3.25 0 0 0 3.251-3.25h-2c0 .69-.56 1.25-1.251 1.25zm-3.251-3.25a3.25 3.25 0 0 0 3.251 3.25v-2a1.25 1.25 0 0 1-1.251-1.25zm0-6.09v6.09h2v-6.09zm-5.089 1h6.089v-2h-6.089zm-3.251-3.251a3.25 3.25 0 0 0 3.251 3.251v-2a1.25 1.25 0 0 1-1.251-1.251zm3.251-3.25a3.25 3.25 0 0 0-3.251 3.25h2c0-.69.56-1.25 1.251-1.25zm6.089 0h-6.089v2h6.089zm-1-5.09v6.09h2v-6.09zm3.251-3.251a3.25 3.25 0 0 0-3.251 3.251h2c0-.691.56-1.251 1.251-1.251z" mask="url(#ExplainerCommunityDark_svg__g)"></path><mask id="ExplainerCommunityDark_svg__j" fill="#fff"><path fill-rule="evenodd" d="M45 64.8c0-4.48 0-6.72.872-8.432a8 8 0 0 1 3.496-3.496C51.08 52 53.32 52 57.8 52h65.4c4.48 0 6.721 0 8.432.872a8 8 0 0 1 3.496 3.496C136 58.08 136 60.32 136 64.8v20.8c0 2.24 0 3.36-.436 4.216a4 4 0 0 1-1.748 1.748C132.96 92 131.84 92 129.6 92H51.4c-2.24 0-3.36 0-4.216-.436a4 4 0 0 1-1.748-1.748C45 88.96 45 87.84 45 85.6zm.304 33.67C45 99.203 45 100.135 45 102s0 2.796.304 3.531a4 4 0 0 0 2.165 2.165c.735.304 1.667.304 3.531.304h67a8 8 0 0 0 8-8 4 4 0 0 0-4-4H51c-1.864 0-2.796 0-3.53.305a4 4 0 0 0-2.166 2.164m3.03 13.53A3.333 3.333 0 0 0 45 115.333 6.667 6.667 0 0 0 51.667 122H89a5 5 0 0 0 0-10z" clip-rule="evenodd"></path></mask><g filter="url(#ExplainerCommunityDark_svg__h)"><path fill="url(#ExplainerCommunityDark_svg__i)" fill-rule="evenodd" d="M45 64.8c0-4.48 0-6.72.872-8.432a8 8 0 0 1 3.496-3.496C51.08 52 53.32 52 57.8 52h65.4c4.48 0 6.721 0 8.432.872a8 8 0 0 1 3.496 3.496C136 58.08 136 60.32 136 64.8v20.8c0 2.24 0 3.36-.436 4.216a4 4 0 0 1-1.748 1.748C132.96 92 131.84 92 129.6 92H51.4c-2.24 0-3.36 0-4.216-.436a4 4 0 0 1-1.748-1.748C45 88.96 45 87.84 45 85.6zm.304 33.67C45 99.203 45 100.135 45 102s0 2.796.304 3.531a4 4 0 0 0 2.165 2.165c.735.304 1.667.304 3.531.304h67a8 8 0 0 0 8-8 4 4 0 0 0-4-4H51c-1.864 0-2.796 0-3.53.305a4 4 0 0 0-2.166 2.164m3.03 13.53A3.333 3.333 0 0 0 45 115.333 6.667 6.667 0 0 0 51.667 122H89a5 5 0 0 0 0-10z" clip-rule="evenodd"></path></g><path fill="#000" fill-opacity="0.05" d="m45.872 56.368-.446-.227zm3.496-3.496-.227-.446zm82.264 0 .227-.446zm3.496 3.496-.445.227zm.436 33.448-.445-.227zm-1.748 1.748.227.446zm-86.632 0 .227-.445zm-1.748-1.748-.446.227zm-.132 8.653-.462-.191zm0 7.062-.462.191zm2.165 2.165-.191.461zm0-11.391-.191-.463zM45.426 56.14c-.477.938-.704 1.999-.815 3.364-.111 1.359-.111 3.063-.111 5.295h1c0-2.248 0-3.905.107-5.214.107-1.303.316-2.218.71-2.99zm3.715-3.715a8.5 8.5 0 0 0-3.715 3.715l.892.454a7.5 7.5 0 0 1 3.277-3.277zM57.8 51.5c-2.232 0-3.936 0-5.295.11-1.365.112-2.426.339-3.364.816l.454.892c.773-.395 1.688-.604 2.991-.71 1.31-.108 2.965-.108 5.214-.108zm65.4 0H57.8v1h65.4zm8.659.926c-.938-.477-1.999-.704-3.364-.815-1.359-.111-3.063-.111-5.295-.111v1c2.248 0 3.905 0 5.214.107 1.303.107 2.218.316 2.991.71zm3.715 3.715a8.5 8.5 0 0 0-3.715-3.715l-.454.892a7.5 7.5 0 0 1 3.278 3.277zm.926 8.659c0-2.232 0-3.936-.111-5.295-.111-1.365-.338-2.426-.815-3.364l-.891.454c.394.773.603 1.688.71 2.991.107 1.31.107 2.965.107 5.214zm0 20.8V64.8h-1v20.8zm-.49 4.443c.259-.51.377-1.077.434-1.775.056-.692.056-1.556.056-2.668h-1c0 1.128 0 1.945-.053 2.587-.052.636-.152 1.056-.328 1.402zm-1.967 1.966a4.5 4.5 0 0 0 1.967-1.966l-.891-.454a3.5 3.5 0 0 1-1.53 1.53zm-4.443.491c1.112 0 1.976 0 2.668-.056.698-.057 1.265-.175 1.775-.434l-.454-.892c-.346.177-.766.277-1.403.33-.641.052-1.458.052-2.586.052zm-78.2 0h78.2v-1H51.4zm-4.443-.49c.51.26 1.077.377 1.775.434.692.056 1.556.056 2.668.056v-1c-1.128 0-1.945 0-2.587-.053-.636-.052-1.056-.152-1.402-.329zm-1.967-1.967a4.5 4.5 0 0 0 1.967 1.966l.454-.89a3.5 3.5 0 0 1-1.53-1.53zM44.5 85.6c0 1.112 0 1.976.056 2.668.057.698.175 1.265.434 1.775l.892-.454c-.177-.346-.277-.766-.33-1.403-.052-.641-.052-1.458-.052-2.586zm0-20.8v20.8h1V64.8zm1 37.2c0-.939 0-1.618.037-2.155.036-.532.107-.888.23-1.184l-.925-.383c-.181.438-.263.916-.303 1.5-.04.578-.039 1.297-.039 2.222zm.266 3.339c-.122-.296-.193-.652-.23-1.184-.036-.537-.036-1.216-.036-2.155h-1c0 .925 0 1.644.04 2.223.039.583.12 1.06.303 1.499zm1.895 1.895a3.5 3.5 0 0 1-1.895-1.895l-.923.383a4.5 4.5 0 0 0 2.435 2.435zM51 107.5c-.939 0-1.618 0-2.155-.037-.532-.036-.888-.107-1.184-.229l-.383.923c.439.182.916.264 1.5.304.578.039 1.297.039 2.222.039zm67 0H51v1h67zm7.5-7.5a7.5 7.5 0 0 1-7.5 7.5v1a8.5 8.5 0 0 0 8.5-8.5zm-3.5-3.5a3.5 3.5 0 0 1 3.5 3.5h1a4.5 4.5 0 0 0-4.5-4.5zm-71 0h71v-1H51zm-3.34.266c.297-.122.653-.193 1.185-.23.537-.036 1.216-.036 2.155-.036v-1c-.925 0-1.644 0-2.223.04-.583.039-1.06.12-1.5.302zm-1.894 1.895a3.5 3.5 0 0 1 1.895-1.895l-.383-.924a4.5 4.5 0 0 0-2.435 2.436zm-.266 16.672a2.834 2.834 0 0 1 2.833-2.833v-1a3.833 3.833 0 0 0-3.833 3.833zm6.167 6.167a6.167 6.167 0 0 1-6.167-6.167h-1a7.167 7.167 0 0 0 7.167 7.167zm37.333 0H51.667v1H89zm4.5-4.5a4.5 4.5 0 0 1-4.5 4.5v1a5.5 5.5 0 0 0 5.5-5.5zm-4.5-4.5a4.5 4.5 0 0 1 4.5 4.5h1a5.5 5.5 0 0 0-5.5-5.5zm-40.667 0H89v-1H48.333z" mask="url(#ExplainerCommunityDark_svg__j)"></path></g></g><defs><linearGradient id="ExplainerCommunityDark_svg__d" x1="90.502" x2="90.502" y1="44" y2="132.006" gradientUnits="userSpaceOnUse"><stop stop-color="#343434"></stop><stop offset="1" stop-color="#383838"></stop></linearGradient><linearGradient id="ExplainerCommunityDark_svg__e" x1="90.502" x2="90.502" y1="44" y2="132.006" gradientUnits="userSpaceOnUse"><stop stop-color="#505050"></stop><stop offset="1" stop-color="#484848"></stop></linearGradient><linearGradient id="ExplainerCommunityDark_svg__f" x1="144.006" x2="144.006" y1="114" y2="150.013" gradientUnits="userSpaceOnUse"><stop stop-color="#E86F18"></stop><stop offset="1" stop-color="#EE9D6F"></stop></linearGradient><linearGradient id="ExplainerCommunityDark_svg__i" x1="89.631" x2="91.345" y1="52.48" y2="122.724" gradientUnits="userSpaceOnUse"><stop stop-color="#252525"></stop><stop offset="1" stop-color="#2B2B2B"></stop></linearGradient><filter id="ExplainerCommunityDark_svg__a" width="228" height="228" x="-24" y="-24" color-interpolation-filters="sRGB" filterUnits="userSpaceOnUse"><feFlood flood-opacity="0" result="BackgroundImageFix"></feFlood><feGaussianBlur in="BackgroundImageFix" stdDeviation="12"></feGaussianBlur><feComposite in2="SourceAlpha" operator="in" result="effect1_backgroundBlur_10487_187094"></feComposite><feBlend in="SourceGraphic" in2="effect1_backgroundBlur_10487_187094" result="shape"></feBlend></filter><filter id="ExplainerCommunityDark_svg__c" width="189.967" height="181.34" x="-4.481" y="44" color-interpolation-filters="sRGB" filterUnits="userSpaceOnUse"><feFlood flood-opacity="0" result="BackgroundImageFix"></feFlood><feColorMatrix in="SourceAlpha" result="hardAlpha" values="0 0 0 0 0 0 0 0 0 0 0 0 0 0 0 0 0 0 127 0"></feColorMatrix><feOffset dy="1.435"></feOffset><feGaussianBlur stdDeviation="0.574"></feGaussianBlur><feColorMatrix values="0 0 0 0 0 0 0 0 0 0 0 0 0 0 0 0 0 0 0.07 0"></feColorMatrix><feBlend in2="BackgroundImageFix" result="effect1_dropShadow_10487_187094"></feBlend><feColorMatrix in="SourceAlpha" result="hardAlpha" values="0 0 0 0 0 0 0 0 0 0 0 0 0 0 0 0 0 0 127 0"></feColorMatrix><feOffset dy="3.448"></feOffset><feGaussianBlur stdDeviation="1.379"></feGaussianBlur><feColorMatrix values="0 0 0 0 0 0 0 0 0 0 0 0 0 0 0 0 0 0 0.0503198 0"></feColorMatrix><feBlend in2="effect1_dropShadow_10487_187094" result="effect2_dropShadow_10487_187094"></feBlend><feColorMatrix in="SourceAlpha" result="hardAlpha" values="0 0 0 0 0 0 0 0 0 0 0 0 0 0 0 0 0 0 127 0"></feColorMatrix><feOffset dy="6.493"></feOffset><feGaussianBlur stdDeviation="2.597"></feGaussianBlur><feColorMatrix values="0 0 0 0 0 0 0 0 0 0 0 0 0 0 0 0 0 0 0.0417275 0"></feColorMatrix><feBlend in2="effect2_dropShadow_10487_187094" result="effect3_dropShadow_10487_187094"></feBlend><feColorMatrix in="SourceAlpha" result="hardAlpha" values="0 0 0 0 0 0 0 0 0 0 0 0 0 0 0 0 0 0 127 0"></feColorMatrix><feOffset dy="11.582"></feOffset><feGaussianBlur stdDeviation="4.633"></feGaussianBlur><feColorMatrix values="0 0 0 0 0 0 0 0 0 0 0 0 0 0 0 0 0 0 0.035 0"></feColorMatrix><feBlend in2="effect3_dropShadow_10487_187094" result="effect4_dropShadow_10487_187094"></feBlend><feColorMatrix in="SourceAlpha" result="hardAlpha" values="0 0 0 0 0 0 0 0 0 0 0 0 0 0 0 0 0 0 127 0"></feColorMatrix><feOffset dy="21.663"></feOffset><feGaussianBlur stdDeviation="8.665"></feGaussianBlur><feColorMatrix values="0 0 0 0 0 0 0 0 0 0 0 0 0 0 0 0 0 0 0.0282725 0"></feColorMatrix><feBlend in2="effect4_dropShadow_10487_187094" result="effect5_dropShadow_10487_187094"></feBlend><feColorMatrix in="SourceAlpha" result="hardAlpha" values="0 0 0 0 0 0 0 0 0 0 0 0 0 0 0 0 0 0 127 0"></feColorMatrix><feOffset dy="51.852"></feOffset><feGaussianBlur stdDeviation="20.741"></feGaussianBlur><feColorMatrix values="0 0 0 0 0 0 0 0 0 0 0 0 0 0 0 0 0 0 0.0196802 0"></feColorMatrix><feBlend in2="effect5_dropShadow_10487_187094" result="effect6_dropShadow_10487_187094"></feBlend><feBlend in="SourceGraphic" in2="effect6_dropShadow_10487_187094" result="shape"></feBlend></filter><filter id="ExplainerCommunityDark_svg__h" width="91" height="70.519" x="45" y="52" color-interpolation-filters="sRGB" filterUnits="userSpaceOnUse"><feFlood flood-opacity="0" result="BackgroundImageFix"></feFlood><feBlend in="SourceGraphic" in2="BackgroundImageFix" result="shape"></feBlend><feColorMatrix in="SourceAlpha" result="hardAlpha" values="0 0 0 0 0 0 0 0 0 0 0 0 0 0 0 0 0 0 127 0"></feColorMatrix><feOffset dy="0.519"></feOffset><feGaussianBlur stdDeviation="0.259"></feGaussianBlur><feComposite in2="hardAlpha" k2="-1" k3="1" operator="arithmetic"></feComposite><feColorMatrix values="0 0 0 0 0 0 0 0 0 0 0 0 0 0 0 0 0 0 0.05 0"></feColorMatrix><feBlend in2="shape" result="effect1_innerShadow_10487_187094"></feBlend></filter><clipPath id="ExplainerCommunityDark_svg__b"><rect width="180" height="180" fill="#fff" rx="16"></rect></clipPath></defs></svg>