<svg xmlns="http://www.w3.org/2000/svg" fill="none" viewBox="0 0 180 180"><g filter="url(#ExplainerWelcomeDark_svg__a)"><g clip-path="url(#ExplainerWelcomeDark_svg__b)"><g filter="url(#ExplainerWelcomeDark_svg__c)"><rect width="95.407" height="51.333" x="42.668" y="38.815" fill="url(#ExplainerWelcomeDark_svg__d)" rx="13"></rect><rect width="94.907" height="50.833" x="42.918" y="39.065" stroke="#fff" stroke-opacity="0.1" stroke-width="0.5" rx="12.75"></rect></g><g filter="url(#ExplainerWelcomeDark_svg__e)"><rect width="100.593" height="53.407" x="40.076" y="44" fill="url(#ExplainerWelcomeDark_svg__f)" rx="14"></rect><rect width="100.093" height="52.907" x="40.326" y="44.25" stroke="#fff" stroke-opacity="0.1" stroke-width="0.5" rx="13.75"></rect></g><g filter="url(#ExplainerWelcomeDark_svg__g)"><rect width="107.852" height="91.259" x="36.445" y="50.222" fill="url(#ExplainerWelcomeDark_svg__h)" rx="16"></rect><rect width="107.352" height="90.759" x="36.695" y="50.472" stroke="#fff" stroke-opacity="0.1" stroke-width="0.5" rx="15.75"></rect></g><mask id="ExplainerWelcomeDark_svg__j" fill="#fff"><path fill-rule="evenodd" d="M45.063 94.476c-.32.65-.32 1.497-.32 3.19 0 1.694 0 2.541.32 3.191a3.1 3.1 0 0 0 1.414 1.415c.65.321 1.498.321 3.191.321h66.889c1.693 0 2.54 0 3.191-.321a3.1 3.1 0 0 0 1.414-1.415c.321-.65.321-1.497.321-3.19 0-1.694 0-2.54-.321-3.191a3.1 3.1 0 0 0-1.414-1.414c-.651-.321-1.498-.321-3.191-.321H49.668c-1.693 0-2.54 0-3.19.32-.615.303-1.112.8-1.415 1.415m-.215 12.497c-.106.395-.106.877-.106 1.842 0 .964 0 1.446.106 1.842a3.11 3.11 0 0 0 2.2 2.2c.396.106.878.106 1.842.106h21.778c.964 0 1.447 0 1.842-.106a3.11 3.11 0 0 0 2.2-2.2c.106-.396.106-.878.106-1.842s0-1.447-.106-1.842a3.11 3.11 0 0 0-2.2-2.2c-.395-.106-.878-.106-1.842-.106H48.89c-.964 0-1.446 0-1.842.106a3.11 3.11 0 0 0-2.2 2.2m-.106 19.731c0-.723 0-1.085.06-1.385a3.11 3.11 0 0 1 2.444-2.444c.3-.06.662-.06 1.385-.06h57.037c.723 0 1.084 0 1.385.06a3.11 3.11 0 0 1 2.444 2.444c.06.3.06.662.06 1.385 0 .722 0 1.084-.06 1.384a3.11 3.11 0 0 1-2.444 2.445c-.301.06-.662.06-1.385.06H48.631c-.723 0-1.084 0-1.385-.06a3.11 3.11 0 0 1-2.444-2.445c-.06-.3-.06-.662-.06-1.384m83.541-1.385c-.06.301-.06.662-.06 1.385s0 1.084.06 1.384a3.11 3.11 0 0 0 2.444 2.445c.301.06.662.06 1.385.06s1.084 0 1.385-.06a3.11 3.11 0 0 0 2.444-2.445c.06-.3.06-.661.06-1.384s0-1.084-.06-1.385a3.11 3.11 0 0 0-2.444-2.444c-.301-.06-.662-.06-1.385-.06s-1.084 0-1.385.06a3.11 3.11 0 0 0-2.444 2.444" clip-rule="evenodd"></path></mask><path fill="url(#ExplainerWelcomeDark_svg__i)" fill-rule="evenodd" d="M45.063 94.476c-.32.65-.32 1.497-.32 3.19 0 1.694 0 2.541.32 3.191a3.1 3.1 0 0 0 1.414 1.415c.65.321 1.498.321 3.191.321h66.889c1.693 0 2.54 0 3.191-.321a3.1 3.1 0 0 0 1.414-1.415c.321-.65.321-1.497.321-3.19 0-1.694 0-2.54-.321-3.191a3.1 3.1 0 0 0-1.414-1.414c-.651-.321-1.498-.321-3.191-.321H49.668c-1.693 0-2.54 0-3.19.32-.615.303-1.112.8-1.415 1.415m-.215 12.497c-.106.395-.106.877-.106 1.842 0 .964 0 1.446.106 1.842a3.11 3.11 0 0 0 2.2 2.2c.396.106.878.106 1.842.106h21.778c.964 0 1.447 0 1.842-.106a3.11 3.11 0 0 0 2.2-2.2c.106-.396.106-.878.106-1.842s0-1.447-.106-1.842a3.11 3.11 0 0 0-2.2-2.2c-.395-.106-.878-.106-1.842-.106H48.89c-.964 0-1.446 0-1.842.106a3.11 3.11 0 0 0-2.2 2.2m-.106 19.731c0-.723 0-1.085.06-1.385a3.11 3.11 0 0 1 2.444-2.444c.3-.06.662-.06 1.385-.06h57.037c.723 0 1.084 0 1.385.06a3.11 3.11 0 0 1 2.444 2.444c.06.3.06.662.06 1.385 0 .722 0 1.084-.06 1.384a3.11 3.11 0 0 1-2.444 2.445c-.301.06-.662.06-1.385.06H48.631c-.723 0-1.084 0-1.385-.06a3.11 3.11 0 0 1-2.444-2.445c-.06-.3-.06-.662-.06-1.384m83.541-1.385c-.06.301-.06.662-.06 1.385s0 1.084.06 1.384a3.11 3.11 0 0 0 2.444 2.445c.301.06.662.06 1.385.06s1.084 0 1.385-.06a3.11 3.11 0 0 0 2.444-2.445c.06-.3.06-.661.06-1.384s0-1.084-.06-1.385a3.11 3.11 0 0 0-2.444-2.444c-.301-.06-.662-.06-1.385-.06s-1.084 0-1.385.06a3.11 3.11 0 0 0-2.444 2.444" clip-rule="evenodd"></path><path fill="#000" fill-opacity="0.1" d="m45.063 94.476.448.221zm0 6.381-.448.222zm1.414 1.415-.22.448zm73.271 0 .221.448zm1.414-1.415.449.222zm0-6.381.449-.221zm-1.414-1.414.221-.449zm-73.27 0 .22.448zm-1.63 13.911-.483-.13zm0 3.684-.483.129zm2.2 2.2.13-.483zm25.462 0-.129-.483zm2.2-2.2.483.129zm0-3.684.483-.13zm-2.2-2.2-.129.483zm-25.462 0-.13-.483zm-2.246 20.546.49.098zm2.444-2.444-.097-.491zm59.807 0 .097-.491zm2.444 2.444-.49.098zm0 2.769-.49-.097zm-2.444 2.445-.098-.491zm-59.807 0 .098-.491zm-2.444-2.445.49-.097zm83.481-2.769-.491-.098zm0 2.769-.491.098zm2.444 2.445.098-.491zm2.77 0-.098-.491zm2.444-2.445.49.098zm0-2.769.49-.098zm-2.444-2.444.097-.491zm-2.77 0-.097-.491zM45.242 97.667c0-.855 0-1.467.039-1.947.037-.475.11-.778.23-1.023l-.896-.442c-.2.406-.289.85-.331 1.386-.042.529-.042 1.187-.042 2.026zm.27 2.969c-.121-.244-.194-.548-.231-1.022-.038-.48-.039-1.093-.039-1.947h-1c0 .838 0 1.497.042 2.026.042.534.13.98.33 1.386zm1.186 1.187a2.6 2.6 0 0 1-1.187-1.187l-.896.443c.351.713.928 1.29 1.641 1.641zm2.97.27c-.855 0-1.466-.001-1.947-.039-.474-.038-.778-.11-1.023-.231l-.442.897c.406.2.851.288 1.386.331.53.042 1.187.042 2.026.042zm66.889 0H49.668v1h66.889zm2.97-.27c-.245.121-.548.193-1.023.231-.48.038-1.092.039-1.947.039v1c.839 0 1.497 0 2.026-.042.535-.043.98-.131 1.386-.331zm1.187-1.187a2.6 2.6 0 0 1-1.187 1.187l.442.897a3.6 3.6 0 0 0 1.642-1.641zm.269-2.97c0 .855 0 1.467-.039 1.948-.037.474-.11.778-.23 1.022l.897.443c.2-.406.288-.852.33-1.386.042-.53.042-1.188.042-2.026zm-.269-2.969c.12.245.193.548.23 1.023.039.48.039 1.092.039 1.947h1c0-.84 0-1.497-.042-2.026-.042-.535-.13-.98-.33-1.386zm-1.187-1.187c.515.254.932.671 1.187 1.187l.897-.442a3.6 3.6 0 0 0-1.642-1.642zm-2.97-.27c.855 0 1.467.001 1.947.04.475.037.778.11 1.023.23l.442-.897c-.406-.2-.851-.288-1.386-.33-.529-.043-1.187-.042-2.026-.042zm-66.889 0h66.889v-1H49.668zm-2.97.27c.245-.12.548-.193 1.023-.23.48-.039 1.092-.04 1.947-.04v-1c-.839 0-1.497 0-2.026.042-.535.043-.98.131-1.386.331zm-1.187 1.187a2.6 2.6 0 0 1 1.187-1.187l-.442-.897a3.6 3.6 0 0 0-1.641 1.642zm-.269 14.118c0-.997.005-1.397.09-1.713l-.967-.259c-.127.475-.123 1.04-.123 1.972zm.09 1.713c-.086-.316-.09-.717-.09-1.713h-1c0 .932-.004 1.496.123 1.971zm1.846 1.846a2.61 2.61 0 0 1-1.847-1.846l-.966.258a3.61 3.61 0 0 0 2.554 2.554zm1.712.089c-.996 0-1.397-.004-1.712-.089l-.26.966c.476.127 1.04.123 1.972.123zm21.778 0H48.89v1h21.778zm1.713-.089c-.316.085-.716.089-1.713.089v1c.932 0 1.496.004 1.972-.123zm1.846-1.846a2.61 2.61 0 0 1-1.846 1.846l.259.966a3.61 3.61 0 0 0 2.553-2.554zm.09-1.713c0 .996-.005 1.397-.09 1.713l.966.258c.128-.475.123-1.039.123-1.971zm-.09-1.713c.085.316.09.716.09 1.713h1c0-.932.004-1.497-.124-1.972zm-1.846-1.846a2.61 2.61 0 0 1 1.846 1.846l.966-.259a3.61 3.61 0 0 0-2.553-2.553zm-1.713-.089c.997 0 1.397.004 1.713.089l.259-.966c-.475-.128-1.04-.123-1.972-.123zm-21.778 0h21.778v-1H48.89zm-1.712.089c.316-.085.716-.089 1.712-.089v-1c-.932 0-1.496-.005-1.971.123zm-1.847 1.846a2.61 2.61 0 0 1 1.846-1.846l-.258-.966a3.61 3.61 0 0 0-2.554 2.553zm-1.02 18.119c-.071.361-.069.784-.069 1.483h1c0-.747.003-1.047.05-1.287zm2.838-2.837a3.61 3.61 0 0 0-2.837 2.837l.98.196a2.61 2.61 0 0 1 2.052-2.052zm1.482-.069c-.699 0-1.121-.003-1.482.069l.195.981c.24-.048.54-.05 1.287-.05zm57.037 0H48.631v1h57.037zm1.482.069c-.361-.072-.783-.069-1.482-.069v1c.747 0 1.047.002 1.287.05zm2.838 2.837a3.61 3.61 0 0 0-2.838-2.837l-.195.981a2.61 2.61 0 0 1 2.052 2.052zm.069 1.483c0-.699.002-1.122-.069-1.483l-.981.196c.048.24.05.54.05 1.287zm-.069 1.482c.071-.361.069-.783.069-1.482h-1c0 .746-.002 1.047-.05 1.287zm-2.838 2.837a3.61 3.61 0 0 0 2.838-2.837l-.981-.195a2.61 2.61 0 0 1-2.052 2.051zm-1.482.07c.699 0 1.121.002 1.482-.07l-.195-.981c-.24.048-.54.051-1.287.051zm-57.037 0h57.037v-1H48.631zm-1.482-.07c.36.072.783.07 1.482.07v-1c-.747 0-1.047-.003-1.287-.051zm-2.837-2.837a3.61 3.61 0 0 0 2.837 2.837l.195-.981a2.61 2.61 0 0 1-2.052-2.051zm-.07-1.482c0 .699-.002 1.121.07 1.482l.98-.195c-.047-.24-.05-.541-.05-1.287zm84.481 0c0-.747.003-1.047.05-1.287l-.981-.196c-.071.361-.069.784-.069 1.483zm.05 1.287c-.047-.24-.05-.54-.05-1.287h-1c0 .699-.002 1.121.069 1.482zm2.052 2.051a2.61 2.61 0 0 1-2.052-2.051l-.981.195a3.61 3.61 0 0 0 2.838 2.837zm1.287.051c-.747 0-1.047-.003-1.287-.051l-.195.981c.361.072.783.07 1.482.07zm1.287-.051c-.24.048-.54.051-1.287.051v1c.699 0 1.121.002 1.482-.07zm2.052-2.051a2.61 2.61 0 0 1-2.052 2.051l.195.981a3.61 3.61 0 0 0 2.837-2.837zm.05-1.287c0 .747-.003 1.047-.05 1.287l.98.195c.072-.361.07-.783.07-1.482zm-.05-1.287c.047.24.05.54.05 1.287h1c0-.699.002-1.122-.07-1.483zm-2.052-2.052a2.61 2.61 0 0 1 2.052 2.052l.98-.196a3.61 3.61 0 0 0-2.837-2.837zm-1.287-.05c.747 0 1.047.002 1.287.05l.195-.981c-.361-.072-.783-.069-1.482-.069zm-1.287.05c.24-.048.54-.05 1.287-.05v-1c-.699 0-1.121-.003-1.482.069zm-2.052 2.052a2.61 2.61 0 0 1 2.052-2.052l-.195-.981a3.61 3.61 0 0 0-2.838 2.837z" mask="url(#ExplainerWelcomeDark_svg__j)"></path><mask id="ExplainerWelcomeDark_svg__k" width="26" height="26" x="44" y="58" maskUnits="userSpaceOnUse" style="mask-type:alpha"><path fill="red" fill-rule="evenodd" d="M52.436 58.518h9.617c2.674 0 3.644.278 4.622.801a5.45 5.45 0 0 1 2.268 2.268c.523.978.801 1.948.801 4.623v9.616c0 2.675-.278 3.645-.801 4.622a5.45 5.45 0 0 1-2.268 2.268c-.978.523-1.948.802-4.622.802h-9.617c-2.675 0-3.645-.279-4.622-.802a5.45 5.45 0 0 1-2.269-2.268c-.522-.977-.8-1.947-.8-4.622V66.21c0-2.675.278-3.645.8-4.623a5.45 5.45 0 0 1 2.269-2.268c.977-.523 1.947-.801 4.622-.801" clip-rule="evenodd"></path></mask><g mask="url(#ExplainerWelcomeDark_svg__k)"><path fill="#FF66B1" d="M44.744 58.518h25v25h-25z"></path><g filter="url(#ExplainerWelcomeDark_svg__l)"><circle cx="50.744" cy="58.518" r="10" fill="#F97EFF"></circle></g><g filter="url(#ExplainerWelcomeDark_svg__m)"><circle cx="48.744" cy="81.518" r="10" fill="#FF53C7"></circle></g><g filter="url(#ExplainerWelcomeDark_svg__n)"><circle cx="45.744" cy="72.518" r="10" fill="#FF42C1"></circle></g><g filter="url(#ExplainerWelcomeDark_svg__o)"><circle cx="72.244" cy="73.018" r="14.5" fill="#FF819C"></circle></g><g filter="url(#ExplainerWelcomeDark_svg__p)"><circle cx="72.744" cy="72.518" r="8" fill="#FF9AB0"></circle></g><path fill="#000" fill-opacity="0.2" d="M44.744 58.518h25v25h-25z"></path></g><rect width="15.556" height="2.593" x="49.408" y="66.296" fill="url(#ExplainerWelcomeDark_svg__q)" rx="1.296"></rect><rect width="16.056" height="3.093" x="49.158" y="66.046" stroke="#000" stroke-opacity="0.1" stroke-width="0.5" rx="1.546"></rect><mask id="ExplainerWelcomeDark_svg__s" width="18" height="9" x="48.408" y="54.407" fill="#000" maskUnits="userSpaceOnUse"><path fill="#fff" d="M48.408 54.407h18v9h-18z"></path><path fill-rule="evenodd" d="M50.964 55.408c-.86 0-1.556.696-1.556 1.555v3.63a1.555 1.555 0 1 0 3.111 0v-3.63c0-.86-.696-1.556-1.555-1.556m12.443 0c-.859 0-1.555.696-1.555 1.555v3.63a1.555 1.555 0 1 0 3.11 0v-3.63c0-.86-.696-1.556-1.555-1.556" clip-rule="evenodd"></path></mask><path fill="url(#ExplainerWelcomeDark_svg__r)" fill-rule="evenodd" d="M50.964 55.408c-.86 0-1.556.696-1.556 1.555v3.63a1.555 1.555 0 1 0 3.111 0v-3.63c0-.86-.696-1.556-1.555-1.556m12.443 0c-.859 0-1.555.696-1.555 1.555v3.63a1.555 1.555 0 1 0 3.11 0v-3.63c0-.86-.696-1.556-1.555-1.556" clip-rule="evenodd"></path><path fill="#000" fill-opacity="0.1" d="M49.908 56.963c0-.583.473-1.056 1.056-1.056v-1c-1.136 0-2.056.92-2.056 2.056zm0 3.63v-3.63h-1v3.63zm1.056 1.055a1.056 1.056 0 0 1-1.056-1.055h-1c0 1.135.92 2.055 2.056 2.055zm1.055-1.055c0 .583-.472 1.055-1.055 1.055v1c1.135 0 2.055-.92 2.055-2.055zm0-3.63v3.63h1v-3.63zm-1.055-1.056c.583 0 1.055.473 1.055 1.056h1c0-1.135-.92-2.056-2.055-2.056zm11.388 1.056c0-.583.472-1.056 1.055-1.056v-1c-1.135 0-2.055.92-2.055 2.056zm0 3.63v-3.63h-1v3.63zm1.055 1.055a1.056 1.056 0 0 1-1.055-1.055h-1c0 1.135.92 2.055 2.055 2.055zm1.056-1.055c0 .583-.473 1.055-1.056 1.055v1c1.135 0 2.056-.92 2.056-2.055zm0-3.63v3.63h1v-3.63zm-1.056-1.056c.583 0 1.056.473 1.056 1.056h1c0-1.135-.92-2.056-2.056-2.056z" mask="url(#ExplainerWelcomeDark_svg__s)"></path></g></g><defs><filter id="ExplainerWelcomeDark_svg__a" width="228" height="228" x="-24" y="-24" color-interpolation-filters="sRGB" filterUnits="userSpaceOnUse"><feFlood flood-opacity="0" result="BackgroundImageFix"></feFlood><feGaussianBlur in="BackgroundImageFix" stdDeviation="12"></feGaussianBlur><feComposite in2="SourceAlpha" operator="in" result="effect1_backgroundBlur_10465_187797"></feComposite><feBlend in="SourceGraphic" in2="effect1_backgroundBlur_10465_187797" result="shape"></feBlend></filter><filter id="ExplainerWelcomeDark_svg__c" width="103.408" height="59.333" x="38.668" y="34.815" color-interpolation-filters="sRGB" filterUnits="userSpaceOnUse"><feFlood flood-opacity="0" result="BackgroundImageFix"></feFlood><feGaussianBlur in="BackgroundImageFix" stdDeviation="2"></feGaussianBlur><feComposite in2="SourceAlpha" operator="in" result="effect1_backgroundBlur_10465_187797"></feComposite><feBlend in="SourceGraphic" in2="effect1_backgroundBlur_10465_187797" result="shape"></feBlend></filter><filter id="ExplainerWelcomeDark_svg__e" width="108.592" height="61.407" x="36.076" y="40" color-interpolation-filters="sRGB" filterUnits="userSpaceOnUse"><feFlood flood-opacity="0" result="BackgroundImageFix"></feFlood><feGaussianBlur in="BackgroundImageFix" stdDeviation="2"></feGaussianBlur><feComposite in2="SourceAlpha" operator="in" result="effect1_backgroundBlur_10465_187797"></feComposite><feBlend in="SourceGraphic" in2="effect1_backgroundBlur_10465_187797" result="shape"></feBlend></filter><filter id="ExplainerWelcomeDark_svg__g" width="190.815" height="184.593" x="-5.036" y="50.222" color-interpolation-filters="sRGB" filterUnits="userSpaceOnUse"><feFlood flood-opacity="0" result="BackgroundImageFix"></feFlood><feColorMatrix in="SourceAlpha" result="hardAlpha" values="0 0 0 0 0 0 0 0 0 0 0 0 0 0 0 0 0 0 127 0"></feColorMatrix><feOffset dy="1.435"></feOffset><feGaussianBlur stdDeviation="0.574"></feGaussianBlur><feColorMatrix values="0 0 0 0 0 0 0 0 0 0 0 0 0 0 0 0 0 0 0.07 0"></feColorMatrix><feBlend in2="BackgroundImageFix" result="effect1_dropShadow_10465_187797"></feBlend><feColorMatrix in="SourceAlpha" result="hardAlpha" values="0 0 0 0 0 0 0 0 0 0 0 0 0 0 0 0 0 0 127 0"></feColorMatrix><feOffset dy="3.448"></feOffset><feGaussianBlur stdDeviation="1.379"></feGaussianBlur><feColorMatrix values="0 0 0 0 0 0 0 0 0 0 0 0 0 0 0 0 0 0 0.0503198 0"></feColorMatrix><feBlend in2="effect1_dropShadow_10465_187797" result="effect2_dropShadow_10465_187797"></feBlend><feColorMatrix in="SourceAlpha" result="hardAlpha" values="0 0 0 0 0 0 0 0 0 0 0 0 0 0 0 0 0 0 127 0"></feColorMatrix><feOffset dy="6.493"></feOffset><feGaussianBlur stdDeviation="2.597"></feGaussianBlur><feColorMatrix values="0 0 0 0 0 0 0 0 0 0 0 0 0 0 0 0 0 0 0.0417275 0"></feColorMatrix><feBlend in2="effect2_dropShadow_10465_187797" result="effect3_dropShadow_10465_187797"></feBlend><feColorMatrix in="SourceAlpha" result="hardAlpha" values="0 0 0 0 0 0 0 0 0 0 0 0 0 0 0 0 0 0 127 0"></feColorMatrix><feOffset dy="11.582"></feOffset><feGaussianBlur stdDeviation="4.633"></feGaussianBlur><feColorMatrix values="0 0 0 0 0 0 0 0 0 0 0 0 0 0 0 0 0 0 0.035 0"></feColorMatrix><feBlend in2="effect3_dropShadow_10465_187797" result="effect4_dropShadow_10465_187797"></feBlend><feColorMatrix in="SourceAlpha" result="hardAlpha" values="0 0 0 0 0 0 0 0 0 0 0 0 0 0 0 0 0 0 127 0"></feColorMatrix><feOffset dy="21.663"></feOffset><feGaussianBlur stdDeviation="8.665"></feGaussianBlur><feColorMatrix values="0 0 0 0 0 0 0 0 0 0 0 0 0 0 0 0 0 0 0.0282725 0"></feColorMatrix><feBlend in2="effect4_dropShadow_10465_187797" result="effect5_dropShadow_10465_187797"></feBlend><feColorMatrix in="SourceAlpha" result="hardAlpha" values="0 0 0 0 0 0 0 0 0 0 0 0 0 0 0 0 0 0 127 0"></feColorMatrix><feOffset dy="51.852"></feOffset><feGaussianBlur stdDeviation="20.741"></feGaussianBlur><feColorMatrix values="0 0 0 0 0 0 0 0 0 0 0 0 0 0 0 0 0 0 0.0196802 0"></feColorMatrix><feBlend in2="effect5_dropShadow_10465_187797" result="effect6_dropShadow_10465_187797"></feBlend><feBlend in="SourceGraphic" in2="effect6_dropShadow_10465_187797" result="shape"></feBlend></filter><filter id="ExplainerWelcomeDark_svg__l" width="34" height="34" x="33.744" y="41.518" color-interpolation-filters="sRGB" filterUnits="userSpaceOnUse"><feFlood flood-opacity="0" result="BackgroundImageFix"></feFlood><feBlend in="SourceGraphic" in2="BackgroundImageFix" result="shape"></feBlend><feGaussianBlur result="effect1_foregroundBlur_10465_187797" stdDeviation="3.5"></feGaussianBlur></filter><filter id="ExplainerWelcomeDark_svg__m" width="28" height="28" x="34.744" y="67.518" color-interpolation-filters="sRGB" filterUnits="userSpaceOnUse"><feFlood flood-opacity="0" result="BackgroundImageFix"></feFlood><feBlend in="SourceGraphic" in2="BackgroundImageFix" result="shape"></feBlend><feGaussianBlur result="effect1_foregroundBlur_10465_187797" stdDeviation="2"></feGaussianBlur></filter><filter id="ExplainerWelcomeDark_svg__n" width="50" height="50" x="20.744" y="47.518" color-interpolation-filters="sRGB" filterUnits="userSpaceOnUse"><feFlood flood-opacity="0" result="BackgroundImageFix"></feFlood><feBlend in="SourceGraphic" in2="BackgroundImageFix" result="shape"></feBlend><feGaussianBlur result="effect1_foregroundBlur_10465_187797" stdDeviation="7.5"></feGaussianBlur></filter><filter id="ExplainerWelcomeDark_svg__o" width="49" height="49" x="47.744" y="48.518" color-interpolation-filters="sRGB" filterUnits="userSpaceOnUse"><feFlood flood-opacity="0" result="BackgroundImageFix"></feFlood><feBlend in="SourceGraphic" in2="BackgroundImageFix" result="shape"></feBlend><feGaussianBlur result="effect1_foregroundBlur_10465_187797" stdDeviation="5"></feGaussianBlur></filter><filter id="ExplainerWelcomeDark_svg__p" width="28" height="28" x="58.744" y="58.518" color-interpolation-filters="sRGB" filterUnits="userSpaceOnUse"><feFlood flood-opacity="0" result="BackgroundImageFix"></feFlood><feBlend in="SourceGraphic" in2="BackgroundImageFix" result="shape"></feBlend><feGaussianBlur result="effect1_foregroundBlur_10465_187797" stdDeviation="3"></feGaussianBlur></filter><linearGradient id="ExplainerWelcomeDark_svg__d" x1="90.018" x2="90.018" y1="38.815" y2="45.062" gradientUnits="userSpaceOnUse"><stop stop-color="#333"></stop><stop offset="1" stop-color="#424242" stop-opacity="0.01"></stop></linearGradient><linearGradient id="ExplainerWelcomeDark_svg__f" x1="90" x2="90" y1="44" y2="50.5" gradientUnits="userSpaceOnUse"><stop stop-color="#333"></stop><stop offset="1" stop-color="#424242" stop-opacity="0.01"></stop></linearGradient><linearGradient id="ExplainerWelcomeDark_svg__h" x1="90.371" x2="90.371" y1="50.222" y2="141.482" gradientUnits="userSpaceOnUse"><stop stop-color="#343434"></stop><stop offset="1" stop-color="#383838"></stop></linearGradient><linearGradient id="ExplainerWelcomeDark_svg__i" x1="89.5" x2="90" y1="93" y2="131" gradientUnits="userSpaceOnUse"><stop stop-color="#252525"></stop><stop offset="1" stop-color="#2B2B2B"></stop></linearGradient><linearGradient id="ExplainerWelcomeDark_svg__q" x1="57.186" x2="57.186" y1="66.296" y2="68.889" gradientUnits="userSpaceOnUse"><stop stop-color="#2C2C2C"></stop><stop offset="1" stop-color="#3E3E3E"></stop></linearGradient><linearGradient id="ExplainerWelcomeDark_svg__r" x1="63.407" x2="63.407" y1="55.407" y2="62.148" gradientUnits="userSpaceOnUse"><stop stop-color="#454545"></stop><stop offset="1" stop-color="#3E3E3E"></stop></linearGradient><clipPath id="ExplainerWelcomeDark_svg__b"><rect width="180" height="180" fill="#fff" rx="16"></rect></clipPath></defs></svg>