<svg xmlns="http://www.w3.org/2000/svg" fill="none" viewBox="0 0 180 180"><g filter="url(#ExplainerCommunityLight_svg__a)"><g clip-path="url(#ExplainerCommunityLight_svg__b)"><g filter="url(#ExplainerCommunityLight_svg__c)"><path fill="url(#ExplainerCommunityLight_svg__d)" d="M38.744 52.736C37 56.16 37 60.64 37 69.6v36.8c0 8.961 0 13.441 1.744 16.864a16 16 0 0 0 6.992 6.992C49.16 132 53.64 132 62.6 132c17.002 0 34.003.011 51.005.004 2.168-.001 3.252-.002 3.985-.305.78-.322 1.124-.584 1.639-1.253.485-.628.861-2.008 1.612-4.768a24.05 24.05 0 0 1 16.837-16.837c2.76-.751 4.14-1.127 4.768-1.612.668-.516.931-.859 1.253-1.639.303-.733.303-1.817.304-3.985.004-10.668-.003-21.337-.003-32.005 0-8.96 0-13.441-1.744-16.864a16 16 0 0 0-6.992-6.992C131.841 44 127.361 44 118.4 44H62.6c-8.96 0-13.441 0-16.864 1.744a16 16 0 0 0-6.992 6.992"></path><path stroke="url(#ExplainerCommunityLight_svg__e)" stroke-opacity="0.1" stroke-width="0.5" d="M38.521 52.623c-.893 1.752-1.333 3.764-1.552 6.448-.219 2.678-.219 6.047-.219 10.517v36.824c0 4.47 0 7.839.219 10.517.22 2.684.66 4.696 1.552 6.448a16.25 16.25 0 0 0 7.102 7.102c1.752.893 3.764 1.333 6.448 1.552 2.678.219 6.047.219 10.517.219h.012l18.955.003q16.026.006 32.05.001h.009c1.077-.001 1.896-.001 2.537-.04.642-.038 1.129-.116 1.534-.284.4-.165.703-.321.976-.529.272-.208.502-.46.766-.802.272-.352.497-.891.746-1.66.25-.774.533-1.814.907-3.188l.003-.007a23.79 23.79 0 0 1 16.661-16.661l.007-.002c1.374-.375 2.414-.658 3.188-.908.769-.249 1.308-.475 1.66-.746.342-.264.594-.494.802-.766.208-.273.364-.576.529-.976.168-.405.245-.892.284-1.534.038-.641.039-1.461.039-2.537v-.009q.002-9.692-.001-19.385l-.002-12.62v-.012c0-4.47 0-7.839-.219-10.517-.219-2.684-.659-4.696-1.552-6.448a16.25 16.25 0 0 0-7.102-7.102c-1.752-.893-3.764-1.333-6.448-1.552-2.678-.219-6.047-.219-10.517-.219H62.588c-4.47 0-7.839 0-10.517.219-2.684.22-4.696.66-6.448 1.552a16.25 16.25 0 0 0-7.102 7.102Z"></path></g><mask id="ExplainerCommunityLight_svg__g" fill="#fff"><path fill-rule="evenodd" d="M144.006 150.013c9.945 0 18.007-8.062 18.007-18.007 0-9.944-8.062-18.006-18.007-18.006-9.944 0-18.006 8.062-18.006 18.006s8.062 18.007 18.006 18.007m-.001-28.598a2.25 2.25 0 0 1 2.251 2.251v6.09h6.089a2.25 2.25 0 1 1 0 4.501h-6.089v6.09a2.25 2.25 0 0 1-4.502 0v-6.09h-6.089a2.251 2.251 0 0 1 0-4.501h6.089v-6.09a2.25 2.25 0 0 1 2.251-2.251" clip-rule="evenodd"></path></mask><path fill="url(#ExplainerCommunityLight_svg__f)" fill-rule="evenodd" d="M144.006 150.013c9.945 0 18.007-8.062 18.007-18.007 0-9.944-8.062-18.006-18.007-18.006-9.944 0-18.006 8.062-18.006 18.006s8.062 18.007 18.006 18.007m-.001-28.598a2.25 2.25 0 0 1 2.251 2.251v6.09h6.089a2.25 2.25 0 1 1 0 4.501h-6.089v6.09a2.25 2.25 0 0 1-4.502 0v-6.09h-6.089a2.251 2.251 0 0 1 0-4.501h6.089v-6.09a2.25 2.25 0 0 1 2.251-2.251" clip-rule="evenodd"></path><path fill="#000" fill-opacity="0.1" d="M146.256 129.756h-.9v.9h.9zm0 4.501v-.9h-.9v.9zm-4.502 0h.901v-.9h-.901zm0-4.501v.9h.901v-.9zm19.358 2.25c0 9.448-7.658 17.106-17.106 17.106v1.801c10.442 0 18.907-8.465 18.907-18.907zM144.006 114.9c9.448 0 17.106 7.659 17.106 17.106h1.801c0-10.442-8.465-18.906-18.907-18.906zM126.9 132.006c0-9.447 7.659-17.106 17.106-17.106v-1.8c-10.442 0-18.906 8.464-18.906 18.906zm17.106 17.106c-9.447 0-17.106-7.658-17.106-17.106h-1.8c0 10.442 8.464 18.907 18.906 18.907zm3.15-25.446a3.15 3.15 0 0 0-3.151-3.151v1.801a1.35 1.35 0 0 1 1.351 1.35zm0 6.09v-6.09h-1.8v6.09zm5.189-.901h-6.089v1.801h6.089zm3.151 3.151a3.15 3.15 0 0 0-3.151-3.151v1.801c.746 0 1.351.605 1.351 1.35zm-3.151 3.151a3.15 3.15 0 0 0 3.151-3.151h-1.8c0 .746-.605 1.351-1.351 1.351zm-6.089 0h6.089v-1.8h-6.089zm.9 5.19v-6.09h-1.8v6.09zm-3.151 3.151a3.15 3.15 0 0 0 3.151-3.151h-1.8c0 .745-.605 1.35-1.351 1.35zm-3.151-3.151a3.15 3.15 0 0 0 3.151 3.151v-1.801a1.35 1.35 0 0 1-1.35-1.35zm0-6.09v6.09h1.801v-6.09zm-5.189.9h6.089v-1.8h-6.089zm-3.151-3.151a3.15 3.15 0 0 0 3.151 3.151v-1.8a1.35 1.35 0 0 1-1.351-1.351zm3.151-3.151a3.15 3.15 0 0 0-3.151 3.151h1.8c0-.745.605-1.35 1.351-1.35zm6.089 0h-6.089v1.801h6.089zm-.9-5.189v6.09h1.801v-6.09zm3.151-3.151a3.15 3.15 0 0 0-3.151 3.151h1.801c0-.746.604-1.35 1.35-1.35z" mask="url(#ExplainerCommunityLight_svg__g)"></path><mask id="ExplainerCommunityLight_svg__j" fill="#fff"><path fill-rule="evenodd" d="M45 64.8c0-4.48 0-6.72.872-8.432a8 8 0 0 1 3.496-3.496C51.08 52 53.32 52 57.8 52h65.4c4.48 0 6.721 0 8.432.872a8 8 0 0 1 3.496 3.496C136 58.08 136 60.32 136 64.8v20.8c0 2.24 0 3.36-.436 4.216a4 4 0 0 1-1.748 1.748C132.96 92 131.84 92 129.6 92H51.4c-2.24 0-3.36 0-4.216-.436a4 4 0 0 1-1.748-1.748C45 88.96 45 87.84 45 85.6zm.304 33.67C45 99.203 45 100.135 45 102s0 2.796.304 3.531a4 4 0 0 0 2.165 2.165c.735.304 1.667.304 3.531.304h67a8 8 0 0 0 8-8 4 4 0 0 0-4-4H51c-1.864 0-2.796 0-3.53.305a4 4 0 0 0-2.166 2.164m3.03 13.53A3.333 3.333 0 0 0 45 115.333 6.667 6.667 0 0 0 51.667 122H89a5 5 0 0 0 0-10z" clip-rule="evenodd"></path></mask><g filter="url(#ExplainerCommunityLight_svg__h)"><path fill="url(#ExplainerCommunityLight_svg__i)" fill-rule="evenodd" d="M45 64.8c0-4.48 0-6.72.872-8.432a8 8 0 0 1 3.496-3.496C51.08 52 53.32 52 57.8 52h65.4c4.48 0 6.721 0 8.432.872a8 8 0 0 1 3.496 3.496C136 58.08 136 60.32 136 64.8v20.8c0 2.24 0 3.36-.436 4.216a4 4 0 0 1-1.748 1.748C132.96 92 131.84 92 129.6 92H51.4c-2.24 0-3.36 0-4.216-.436a4 4 0 0 1-1.748-1.748C45 88.96 45 87.84 45 85.6zm.304 33.67C45 99.203 45 100.135 45 102s0 2.796.304 3.531a4 4 0 0 0 2.165 2.165c.735.304 1.667.304 3.531.304h67a8 8 0 0 0 8-8 4 4 0 0 0-4-4H51c-1.864 0-2.796 0-3.53.305a4 4 0 0 0-2.166 2.164m3.03 13.53A3.333 3.333 0 0 0 45 115.333 6.667 6.667 0 0 0 51.667 122H89a5 5 0 0 0 0-10z" clip-rule="evenodd"></path></g><path fill="#000" fill-opacity="0.05" d="m45.872 56.368-.231-.118zm3.496-3.496-.118-.231zm82.264 0 .118-.231zm3.496 3.496-.231.118zm.436 33.448-.231-.118zm-1.748 1.748.118.231zm-86.632 0 .118-.231zm-1.748-1.748-.231.118zm-.132 8.653-.239-.099zm0 7.062-.239.099zm2.165 2.165-.099.239zm0-11.391-.099-.24zM45.641 56.25c-.458.899-.68 1.925-.79 3.275-.11 1.346-.11 3.04-.11 5.275h.518c0-2.244 0-3.912.108-5.233.108-1.318.322-2.268.736-3.081zm3.61-3.61a8.26 8.26 0 0 0-3.61 3.61l.462.236a7.74 7.74 0 0 1 3.383-3.383zm8.549-.9c-2.236 0-3.928 0-5.275.11-1.35.11-2.376.333-3.275.79l.236.463c.813-.414 1.763-.628 3.08-.736 1.322-.107 2.99-.108 5.234-.108zm65.4 0H57.8v.52h65.4zm8.55.9c-.899-.457-1.924-.68-3.275-.79-1.347-.11-3.039-.11-5.275-.11v.52c2.244 0 3.912 0 5.233.107 1.318.108 2.268.322 3.081.736zm3.609 3.61a8.26 8.26 0 0 0-3.609-3.61l-.236.463a7.74 7.74 0 0 1 3.383 3.383zm.9 8.55c0-2.236 0-3.928-.11-5.275-.11-1.35-.332-2.376-.79-3.275l-.462.236c.414.813.628 1.763.736 3.08.108 1.322.108 2.99.108 5.234zm0 20.8V64.8h-.518v20.8zm-.464 4.334c.24-.47.353-1.003.409-1.686.055-.68.055-1.532.055-2.648h-.518c0 1.124 0 1.952-.054 2.606-.053.651-.158 1.107-.354 1.492zm-1.861 1.861a4.26 4.26 0 0 0 1.861-1.861l-.462-.236a3.74 3.74 0 0 1-1.635 1.635zm-4.334.464c1.116 0 1.968 0 2.648-.055.683-.056 1.215-.17 1.686-.409l-.236-.462c-.385.196-.841.3-1.492.354-.654.053-1.482.054-2.606.054zm-78.2 0h78.2v-.518H51.4zm-4.334-.464c.47.24 1.003.353 1.686.409.68.056 1.532.055 2.648.055v-.518c-1.124 0-1.952 0-2.606-.054-.651-.053-1.107-.158-1.492-.354zm-1.861-1.861a4.26 4.26 0 0 0 1.861 1.861l.236-.462a3.74 3.74 0 0 1-1.635-1.635zm-.464-4.334c0 1.116 0 1.968.055 2.648.056.683.17 1.215.409 1.686l.462-.236c-.196-.385-.3-.84-.354-1.492-.053-.654-.054-1.482-.054-2.606zm0-20.8v20.8h.518V64.8zm.518 37.2c0-.935 0-1.624.038-2.171.037-.545.11-.93.247-1.26l-.479-.199c-.167.404-.247.853-.286 1.424-.038.568-.038 1.278-.038 2.206zm.285 3.432c-.137-.331-.21-.716-.247-1.261-.038-.547-.038-1.236-.038-2.171h-.518c0 .928 0 1.638.038 2.206.04.571.118 1.02.286 1.424zm2.025 2.024a3.74 3.74 0 0 1-2.025-2.024l-.479.198a4.26 4.26 0 0 0 2.305 2.305zm3.431.285c-.935 0-1.624 0-2.171-.038-.545-.037-.93-.11-1.26-.247l-.199.479c.404.168.853.247 1.424.286.568.038 1.278.038 2.206.038zm67 0H51v.518h67zm7.741-7.741a7.74 7.74 0 0 1-7.741 7.741v.518a8.26 8.26 0 0 0 8.259-8.259zM122 96.26a3.74 3.74 0 0 1 3.741 3.74h.518A4.26 4.26 0 0 0 122 95.74zm-71 0h71v-.52H51zm-3.431.284c.33-.137.715-.21 1.26-.247.547-.038 1.236-.038 2.171-.038v-.518c-.928 0-1.638 0-2.206.038-.571.04-1.02.118-1.424.286zm-2.025 2.025a3.74 3.74 0 0 1 2.025-2.025l-.199-.479a4.26 4.26 0 0 0-2.305 2.305zm-.285 16.764a3.074 3.074 0 0 1 3.074-3.074v-.518a3.59 3.59 0 0 0-3.592 3.592zm6.408 6.408a6.41 6.41 0 0 1-6.408-6.408h-.518c0 3.825 3.1 6.926 6.926 6.926zm37.333 0H51.667v.518H89zM93.74 117a4.74 4.74 0 0 1-4.74 4.741v.518A5.26 5.26 0 0 0 94.26 117zM89 112.259A4.74 4.74 0 0 1 93.74 117h.52a5.26 5.26 0 0 0-5.26-5.259zm-40.667 0H89v-.518H48.333z" mask="url(#ExplainerCommunityLight_svg__j)"></path></g></g><defs><linearGradient id="ExplainerCommunityLight_svg__d" x1="90.5" x2="90.5" y1="44" y2="132" gradientUnits="userSpaceOnUse"><stop stop-color="#FAFAFA"></stop><stop offset="1" stop-color="#fff"></stop></linearGradient><linearGradient id="ExplainerCommunityLight_svg__e" x1="90.5" x2="90.5" y1="44" y2="132" gradientUnits="userSpaceOnUse"><stop></stop><stop offset="1" stop-opacity="0"></stop></linearGradient><linearGradient id="ExplainerCommunityLight_svg__f" x1="144.006" x2="144.006" y1="114" y2="150.013" gradientUnits="userSpaceOnUse"><stop stop-color="#E86F18"></stop><stop offset="1" stop-color="#EE9D6F"></stop></linearGradient><linearGradient id="ExplainerCommunityLight_svg__i" x1="91" x2="89.914" y1="54" y2="121.983" gradientUnits="userSpaceOnUse"><stop stop-color="#DCDCDC"></stop><stop offset="1" stop-color="#F2F2F2"></stop></linearGradient><filter id="ExplainerCommunityLight_svg__a" width="228" height="228" x="-24" y="-24" color-interpolation-filters="sRGB" filterUnits="userSpaceOnUse"><feFlood flood-opacity="0" result="BackgroundImageFix"></feFlood><feGaussianBlur in="BackgroundImageFix" stdDeviation="12"></feGaussianBlur><feComposite in2="SourceAlpha" operator="in" result="effect1_backgroundBlur_10400_181081"></feComposite><feBlend in="SourceGraphic" in2="effect1_backgroundBlur_10400_181081" result="shape"></feBlend></filter><filter id="ExplainerCommunityLight_svg__c" width="190.967" height="182.34" x="-4.981" y="43.5" color-interpolation-filters="sRGB" filterUnits="userSpaceOnUse"><feFlood flood-opacity="0" result="BackgroundImageFix"></feFlood><feColorMatrix in="SourceAlpha" result="hardAlpha" values="0 0 0 0 0 0 0 0 0 0 0 0 0 0 0 0 0 0 127 0"></feColorMatrix><feOffset dy="1.435"></feOffset><feGaussianBlur stdDeviation="0.574"></feGaussianBlur><feColorMatrix values="0 0 0 0 0.388235 0 0 0 0 0.388235 0 0 0 0 0.388235 0 0 0 0.07 0"></feColorMatrix><feBlend in2="BackgroundImageFix" result="effect1_dropShadow_10400_181081"></feBlend><feColorMatrix in="SourceAlpha" result="hardAlpha" values="0 0 0 0 0 0 0 0 0 0 0 0 0 0 0 0 0 0 127 0"></feColorMatrix><feOffset dy="3.448"></feOffset><feGaussianBlur stdDeviation="1.379"></feGaussianBlur><feColorMatrix values="0 0 0 0 0.388235 0 0 0 0 0.388235 0 0 0 0 0.388235 0 0 0 0.0503198 0"></feColorMatrix><feBlend in2="effect1_dropShadow_10400_181081" result="effect2_dropShadow_10400_181081"></feBlend><feColorMatrix in="SourceAlpha" result="hardAlpha" values="0 0 0 0 0 0 0 0 0 0 0 0 0 0 0 0 0 0 127 0"></feColorMatrix><feOffset dy="6.493"></feOffset><feGaussianBlur stdDeviation="2.597"></feGaussianBlur><feColorMatrix values="0 0 0 0 0.388235 0 0 0 0 0.388235 0 0 0 0 0.388235 0 0 0 0.0417275 0"></feColorMatrix><feBlend in2="effect2_dropShadow_10400_181081" result="effect3_dropShadow_10400_181081"></feBlend><feColorMatrix in="SourceAlpha" result="hardAlpha" values="0 0 0 0 0 0 0 0 0 0 0 0 0 0 0 0 0 0 127 0"></feColorMatrix><feOffset dy="11.582"></feOffset><feGaussianBlur stdDeviation="4.633"></feGaussianBlur><feColorMatrix values="0 0 0 0 0.388235 0 0 0 0 0.388235 0 0 0 0 0.388235 0 0 0 0.035 0"></feColorMatrix><feBlend in2="effect3_dropShadow_10400_181081" result="effect4_dropShadow_10400_181081"></feBlend><feColorMatrix in="SourceAlpha" result="hardAlpha" values="0 0 0 0 0 0 0 0 0 0 0 0 0 0 0 0 0 0 127 0"></feColorMatrix><feOffset dy="21.663"></feOffset><feGaussianBlur stdDeviation="8.665"></feGaussianBlur><feColorMatrix values="0 0 0 0 0.388235 0 0 0 0 0.388235 0 0 0 0 0.388235 0 0 0 0.0282725 0"></feColorMatrix><feBlend in2="effect4_dropShadow_10400_181081" result="effect5_dropShadow_10400_181081"></feBlend><feColorMatrix in="SourceAlpha" result="hardAlpha" values="0 0 0 0 0 0 0 0 0 0 0 0 0 0 0 0 0 0 127 0"></feColorMatrix><feOffset dy="51.852"></feOffset><feGaussianBlur stdDeviation="20.741"></feGaussianBlur><feColorMatrix values="0 0 0 0 0.388235 0 0 0 0 0.388235 0 0 0 0 0.388235 0 0 0 0.0196802 0"></feColorMatrix><feBlend in2="effect5_dropShadow_10400_181081" result="effect6_dropShadow_10400_181081"></feBlend><feBlend in="SourceGraphic" in2="effect6_dropShadow_10400_181081" result="shape"></feBlend></filter><filter id="ExplainerCommunityLight_svg__h" width="91" height="70.519" x="45" y="52" color-interpolation-filters="sRGB" filterUnits="userSpaceOnUse"><feFlood flood-opacity="0" result="BackgroundImageFix"></feFlood><feBlend in="SourceGraphic" in2="BackgroundImageFix" result="shape"></feBlend><feColorMatrix in="SourceAlpha" result="hardAlpha" values="0 0 0 0 0 0 0 0 0 0 0 0 0 0 0 0 0 0 127 0"></feColorMatrix><feOffset dy="0.519"></feOffset><feGaussianBlur stdDeviation="0.259"></feGaussianBlur><feComposite in2="hardAlpha" k2="-1" k3="1" operator="arithmetic"></feComposite><feColorMatrix values="0 0 0 0 0 0 0 0 0 0 0 0 0 0 0 0 0 0 0.05 0"></feColorMatrix><feBlend in2="shape" result="effect1_innerShadow_10400_181081"></feBlend></filter><clipPath id="ExplainerCommunityLight_svg__b"><rect width="180" height="180" fill="#fff" rx="16"></rect></clipPath></defs></svg>