<svg xmlns="http://www.w3.org/2000/svg" fill="none" viewBox="0 0 180 180"><g filter="url(#ExplainerTeamDark_svg__a)"><g clip-path="url(#ExplainerTeamDark_svg__b)"><g filter="url(#ExplainerTeamDark_svg__c)"><path fill="url(#ExplainerTeamDark_svg__d)" d="M50.536 108.7c.602.177 1.18-.314 1.18-.941 0-9.017 7.684-13.136 12.154-15.322.895-.438 1.692-.812 2.41-1.15 1.482-.695 2.631-1.234 3.631-1.86a.344.344 0 0 0 .091-.501c-.173-.23-.38-.492-.64-.815l-.138-.173a56 56 0 0 1-1.29-1.654c-2.242-3.018-4.557-7.237-4.557-13.96 0-6.02 2.253-11.621 6.003-15.81.491-.548.273-1.435-.45-1.573a14 14 0 0 0-2.638-.248c-8.106 0-14.575 6.895-14.575 15.27 0 5.513 2.24 8.305 3.981 10.477 1.107 1.38 2.013 2.51 2.015 3.929l.002.02c-.004 2.27-2.876 3.62-6.163 5.164C47.15 91.622 42 94.04 42 99.49c0 5.136 3.786 7.814 8.536 9.209"></path><path fill="url(#ExplainerTeamDark_svg__e)" d="M113.533 89.184c1.48-.495 1.826-3.234 1.823-4.794l.002-.021c.003-1.419.908-2.549 2.016-3.929 1.741-2.172 3.981-4.964 3.981-10.478 0-8.374-6.469-15.27-14.576-15.27-.901 0-1.783.086-2.638.25-.723.137-.941 1.024-.45 1.573 3.75 4.188 6.003 9.79 6.003 15.808 0 6.724-2.315 10.944-4.556 13.96-.457.616-.915 1.187-1.29 1.655l-.139.173c-.259.323-.466.586-.64.815a.344.344 0 0 0 .092.501c.999.626 2.149 1.165 3.63 1.86.802.377 1.739.293 2.501-.16a21.8 21.8 0 0 1 4.241-1.943"></path></g><path stroke="url(#ExplainerTeamDark_svg__f)" stroke-width="0.5" d="M57.966 84.39v-.012l-.002-.013v-.01c-.008-1.5-.962-2.688-2.035-4.027l-.036-.044v-.001c-1.732-2.159-3.926-4.895-3.926-10.32 0-8.25 6.369-15.02 14.325-15.02.886 0 1.752.084 2.591.244.259.05.425.228.486.453.062.228.012.499-.175.708-3.79 4.233-6.067 9.894-6.067 15.975 0 6.792 2.342 11.062 4.605 14.11.46.619.921 1.193 1.296 1.66l.001.002.138.172c.259.323.465.583.636.81a.094.094 0 0 1-.024.138c-.985.616-2.12 1.149-3.605 1.846-.718.337-1.517.712-2.414 1.151-4.457 2.18-12.293 6.36-12.293 15.547 0 .484-.44.825-.86.702-2.355-.692-4.447-1.696-5.947-3.143-1.493-1.44-2.41-3.329-2.41-5.827 0-2.631 1.237-4.534 3.036-6.046 1.808-1.52 4.164-2.629 6.373-3.666l.017-.008c1.63-.766 3.187-1.498 4.335-2.325 1.152-.83 1.952-1.8 1.954-3.056Zm57.141-.025-.001.013v.012c.002.766-.083 1.816-.346 2.727-.268.931-.693 1.625-1.306 1.83a22 22 0 0 0-4.29 1.965c-.698.415-1.547.487-2.266.15-1.486-.698-2.62-1.231-3.605-1.847a.094.094 0 0 1-.024-.138c.171-.227.377-.487.635-.81l.139-.172v-.001c.375-.468.836-1.042 1.296-1.661 2.264-3.048 4.605-7.318 4.605-14.11 0-6.081-2.276-11.742-6.066-15.975a.76.76 0 0 1-.176-.708.61.61 0 0 1 .486-.453c.839-.16 1.705-.244 2.591-.244 7.957 0 14.326 6.77 14.326 15.02 0 5.425-2.194 8.161-3.926 10.32h-.001l-.035.045c-1.074 1.339-2.027 2.527-2.035 4.028z"></path><g filter="url(#ExplainerTeamDark_svg__g)"><mask id="ExplainerTeamDark_svg__i" fill="#fff"><path fill-rule="evenodd" d="M77.053 89.624v.013c-.005 2.723-3.45 4.342-7.395 6.195-5.284 2.483-11.463 5.386-11.463 11.926 0 12.89 19.875 12.878 28.643 12.872h1.017c1.565.001 3.484.003 5.581-.069 2.28-.079 3.419-.118 4.158-.554.743-.439 1.112-.872 1.426-1.676.313-.799.112-2.384-.29-5.553a22 22 0 0 1-.176-2.788c0-3.027.613-5.911 1.722-8.534.839-1.982 1.258-2.974 1.31-3.47.09-.84.12-.499-.118-1.308-.141-.48-1.184-2.07-3.271-5.251-.358-.546-.558-1.136-.559-1.79l.001-.013.002-.013c.002-1.702 1.09-3.058 2.418-4.714 2.09-2.606 4.777-5.957 4.777-12.574 0-10.048-7.762-18.323-17.49-18.323s-17.49 8.275-17.49 18.323c0 6.617 2.687 9.968 4.777 12.574 1.329 1.656 2.416 3.012 2.418 4.714q0 .006.002.013" clip-rule="evenodd"></path></mask><path fill="url(#ExplainerTeamDark_svg__h)" fill-rule="evenodd" d="M77.053 89.624v.013c-.005 2.723-3.45 4.342-7.395 6.195-5.284 2.483-11.463 5.386-11.463 11.926 0 12.89 19.875 12.878 28.643 12.872h1.017c1.565.001 3.484.003 5.581-.069 2.28-.079 3.419-.118 4.158-.554.743-.439 1.112-.872 1.426-1.676.313-.799.112-2.384-.29-5.553a22 22 0 0 1-.176-2.788c0-3.027.613-5.911 1.722-8.534.839-1.982 1.258-2.974 1.31-3.47.09-.84.12-.499-.118-1.308-.141-.48-1.184-2.07-3.271-5.251-.358-.546-.558-1.136-.559-1.79l.001-.013.002-.013c.002-1.702 1.09-3.058 2.418-4.714 2.09-2.606 4.777-5.957 4.777-12.574 0-10.048-7.762-18.323-17.49-18.323s-17.49 8.275-17.49 18.323c0 6.617 2.687 9.968 4.777 12.574 1.329 1.656 2.416 3.012 2.418 4.714q0 .006.002.013" clip-rule="evenodd"></path><path fill="#fff" fill-opacity="0.05" d="m77.054 89.637-1-.003zm-.001-.013-.981.195zm-7.395 6.208.425.905zm17.18 24.798v1zm1.017 0v1zm9.783-30.993-1 .001zm.001-.013-.98-.197v.002zm.001-.006.995.102v-.001zm0-.007 1 .002zm2.419-4.714-.78-.626zM69.856 72.323h1zm4.777 12.574.78-.626zm2.418 4.714-1 .002zm24.535 8.375-.994-.106zm-3.389-6.56-.836.549zm3.271 5.252.959-.282zm-8.032 23.883.035.999zm4.158-.554.508.861zm1.136-7.229-.993.126zm.29 5.553.931.364zM78.054 89.639q0-.105-.02-.211l-1.962.392a1 1 0 0 1-.018-.186zm-7.97 7.098c1.944-.914 3.887-1.823 5.334-2.865 1.444-1.041 2.632-2.387 2.636-4.234l-2-.004c-.002.877-.54 1.703-1.806 2.615-1.263.91-3.015 1.738-5.015 2.678zm-10.889 11.021c0-2.895 1.346-4.998 3.394-6.719 2.087-1.755 4.826-3.048 7.494-4.302l-.85-1.81c-2.615 1.229-5.608 2.628-7.931 4.58-2.363 1.987-4.107 4.606-4.107 8.251zm27.642 11.872c-4.406.003-11.435.002-17.352-1.567-2.956-.783-5.542-1.935-7.376-3.596-1.801-1.631-2.914-3.782-2.914-6.709h-2c0 3.518 1.372 6.2 3.572 8.191 2.166 1.962 5.096 3.224 8.205 4.048 6.212 1.646 13.505 1.636 17.866 1.633zm.509 0h-.51l.002 2h.508zm.51 0h-.51v2h.508zm5.546-.069c-2.077.072-3.98.07-5.547.069v2c1.563.001 3.499.003 5.616-.07zm6.32-6.909a21 21 0 0 1-.168-2.662h-2q0 1.481.183 2.914zm-.168-2.662c0-2.891.585-5.642 1.643-8.145l-1.842-.778a22.9 22.9 0 0 0-1.801 8.923zm-2.916-20.351c.002.871.272 1.649.723 2.336l1.672-1.097c-.265-.403-.394-.807-.395-1.243zm.02-.21q-.02.105-.02.21l2-.004q0 .09-.018.184zm-.013.087a1 1 0 0 1 .014-.089l1.96.393q.012-.053.016-.1zm-.004.093q0-.045.004-.092l1.99.202q.005-.052.006-.106zm2.638-5.338c-1.265 1.578-2.635 3.218-2.638 5.338l2 .004c.002-1.284.806-2.355 2.198-4.09zm4.557-11.948c0 6.268-2.508 9.393-4.557 11.948l1.56 1.252c2.131-2.658 4.997-6.234 4.997-13.2zM87.346 55c9.127 0 16.49 7.777 16.49 17.323h2c0-10.551-8.162-19.323-18.49-19.323zm-16.49 17.323c0-9.546 7.363-17.323 16.49-17.323v-2c-10.329 0-18.49 8.772-18.49 19.323zm4.557 11.948c-2.049-2.555-4.557-5.68-4.557-11.948h-2c0 6.966 2.866 10.542 4.997 13.2zm2.638 5.338c-.003-2.12-1.373-3.76-2.638-5.338l-1.56 1.252c1.392 1.735 2.196 2.806 2.198 4.09zm-.018-.18a1 1 0 0 1 .018.18l-2 .004q0 .1.02.206zm23.164 12.416c.417-.984.738-1.745.961-2.32.211-.544.38-1.034.423-1.433l-1.989-.212c-.01.098-.077.352-.298.922-.21.54-.517 1.267-.939 2.265zm-3.836-9.87a281 281 0 0 1 2.355 3.624c.267.423.466.75.604.995.153.27.19.37.189.366l1.918-.564c-.071-.243-.217-.523-.365-.785a29 29 0 0 0-.654-1.079c-.545-.864-1.334-2.067-2.375-3.654zm5.22 6.117c.021-.204.037-.313.051-.433.012-.1.03-.254.014-.428a2 2 0 0 0-.091-.42c-.035-.114-.07-.22-.128-.416l-1.918.565c.061.209.112.365.135.44.029.093.015.064.01.011s.003-.084-.008.013c-.009.077-.031.24-.054.456zm-9.11 23.468c1.123-.039 2.023-.069 2.733-.148.71-.08 1.347-.219 1.898-.544l-1.016-1.722c-.188.11-.49.209-1.105.278-.614.069-1.423.097-2.579.137zm4.266-8.656c.203 1.597.349 2.751.408 3.608.062.894.01 1.285-.056 1.455l1.862.728c.247-.63.251-1.431.189-2.321-.064-.927-.22-2.15-.418-3.722zm.365 7.964c.435-.256.81-.541 1.127-.914.318-.373.539-.789.722-1.259l-1.862-.728c-.131.334-.251.537-.383.691-.13.154-.311.305-.62.488z" mask="url(#ExplainerTeamDark_svg__i)"></path></g><mask id="ExplainerTeamDark_svg__k" fill="#fff"><path fill-rule="evenodd" d="M120.483 93.12a4.22 4.22 0 0 1 4.144 3.431c.933.287 1.824.669 2.663 1.133a4.218 4.218 0 0 1 5.75 5.971q.531 1.05.884 2.191a4.219 4.219 0 0 1 0 8.288 14 14 0 0 1-.988 2.392 4.217 4.217 0 0 1-5.918 5.916c-.759.399-1.558.731-2.391.987a4.219 4.219 0 0 1-8.289-.002 14 14 0 0 1-2.184-.882 4.22 4.22 0 0 1-5.973-5.75 14 14 0 0 1-1.132-2.66 4.218 4.218 0 0 1 0-8.29c.266-.863.613-1.691 1.031-2.474a4.22 4.22 0 0 1 5.781-5.784c.784-.42 1.613-.767 2.477-1.033a4.22 4.22 0 0 1 4.145-3.434m.001 21.088a4.217 4.217 0 1 0 0-8.434 4.217 4.217 0 0 0 0 8.434" clip-rule="evenodd"></path></mask><path fill="url(#ExplainerTeamDark_svg__j)" fill-rule="evenodd" d="M120.483 93.12a4.22 4.22 0 0 1 4.144 3.431c.933.287 1.824.669 2.663 1.133a4.218 4.218 0 0 1 5.75 5.971q.531 1.05.884 2.191a4.219 4.219 0 0 1 0 8.288 14 14 0 0 1-.988 2.392 4.217 4.217 0 0 1-5.918 5.916c-.759.399-1.558.731-2.391.987a4.219 4.219 0 0 1-8.289-.002 14 14 0 0 1-2.184-.882 4.22 4.22 0 0 1-5.973-5.75 14 14 0 0 1-1.132-2.66 4.218 4.218 0 0 1 0-8.29c.266-.863.613-1.691 1.031-2.474a4.22 4.22 0 0 1 5.781-5.784c.784-.42 1.613-.767 2.477-1.033a4.22 4.22 0 0 1 4.145-3.434m.001 21.088a4.217 4.217 0 1 0 0-8.434 4.217 4.217 0 0 0 0 8.434" clip-rule="evenodd"></path><path fill="#000" fill-opacity="0.1" d="m124.627 96.551-1.036.196.118.625.608.187zm2.663 1.133-.511.923.557.308.532-.349zm5.292.548-.745.745zm.458 5.423-.859-.611-.369.519.287.568zm.884 2.191-1.008.311.187.607.625.118zm0 8.288-.196-1.036-.625.118-.187.608zm-.988 2.392-.933-.491-.316.601.416.536zm-5.918 5.916.647-.833-.536-.416-.601.316zm-2.391.987-.31-1.008-.608.187-.118.626zm-8.289-.002 1.036-.195-.117-.626-.608-.187zm-2.184-.882.475-.941-.568-.287-.519.37zm-5.427-.455.746-.746zm-.546-5.295.882.579.349-.533-.308-.557zm-1.132-2.66 1.007-.31-.187-.609-.626-.117zm0-8.29.194 1.036.626-.117.187-.608zm1.031-2.474.93.497.281-.526-.305-.511zm.644-5.14.745.746zm5.137-.644-.539.906.512.305.525-.281zm2.477-1.033.311 1.007.608-.187.117-.626zm9.325-.198a5.27 5.27 0 0 0-5.18-4.29v2.108a3.164 3.164 0 0 1 3.108 2.573zm2.138.406c-.902-.5-1.861-.91-2.864-1.218l-.62 2.015c.862.265 1.686.618 2.462 1.048zm5.527.724a5.274 5.274 0 0 0-6.617-.683l1.157 1.763a3.165 3.165 0 0 1 3.969.411zm.571 6.781a5.274 5.274 0 0 0-.571-6.78l-1.491 1.49a3.165 3.165 0 0 1 .344 4.067zm1.033 1.269a15 15 0 0 0-.951-2.356l-1.882.951q.492.97.817 2.026zm3.476 4.454a5.274 5.274 0 0 0-4.288-5.18l-.392 2.072a3.165 3.165 0 0 1 2.571 3.108zm-4.288 5.18a5.27 5.27 0 0 0 4.288-5.18h-2.109a3.164 3.164 0 0 1-2.571 3.108zm-.25 1.846c.429-.815.786-1.675 1.062-2.571l-2.016-.621c-.237.77-.544 1.509-.913 2.211zm-.541 5.819a5.27 5.27 0 0 0 .44-6.956l-1.666 1.293a3.16 3.16 0 0 1-.265 4.172zm-6.957.44a5.27 5.27 0 0 0 6.957-.44l-1.491-1.491a3.164 3.164 0 0 1-4.173.265zm-1.435 1.162a15 15 0 0 0 2.572-1.061l-.981-1.867q-1.055.555-2.211.912zm-4.454 3.478a5.27 5.27 0 0 0 5.18-4.291l-2.072-.39a3.165 3.165 0 0 1-3.108 2.572zm-5.181-4.294a5.27 5.27 0 0 0 5.181 4.294v-2.109a3.165 3.165 0 0 1-3.109-2.574zm-1.624-.135c.749.379 1.535.697 2.349.948l.622-2.015q-1.051-.325-2.02-.815zm-5.697-.651a5.274 5.274 0 0 0 6.785.569l-1.224-1.717a3.164 3.164 0 0 1-4.069-.343zm-.681-6.619a5.27 5.27 0 0 0 .681 6.619l1.492-1.491a3.16 3.16 0 0 1-.41-3.97zm-1.259-1.77a15 15 0 0 0 1.218 2.86l1.845-1.022a13 13 0 0 1-1.048-2.459zm-3.482-4.456a5.274 5.274 0 0 0 4.295 5.182l.389-2.073a3.164 3.164 0 0 1-2.575-3.109zm4.295-5.181a5.27 5.27 0 0 0-4.295 5.181h2.109a3.165 3.165 0 0 1 2.575-3.109zm.297-1.936a15 15 0 0 0-1.11 2.662l2.015.621c.246-.798.567-1.564.954-2.288zm.827-5.387a5.27 5.27 0 0 0-.803 6.424l1.811-1.079a3.165 3.165 0 0 1 .483-3.854zm6.423-.805a5.275 5.275 0 0 0-6.423.805l1.491 1.49a3.166 3.166 0 0 1 3.853-.483zm1.626-1.135c-.929.287-1.82.66-2.663 1.112l.995 1.859c.725-.388 1.491-.71 2.29-.956zm4.456-3.48a5.27 5.27 0 0 0-5.181 4.293l2.072.39a3.165 3.165 0 0 1 3.109-2.575zm3.164 17.924a3.163 3.163 0 0 1-3.163 3.163v2.109a5.27 5.27 0 0 0 5.272-5.272zm-3.163-3.163a3.163 3.163 0 0 1 3.163 3.163h2.109a5.273 5.273 0 0 0-5.272-5.272zm-3.164 3.163a3.164 3.164 0 0 1 3.164-3.163v-2.109a5.27 5.27 0 0 0-5.272 5.272zm3.164 3.163a3.164 3.164 0 0 1-3.164-3.163h-2.108a5.27 5.27 0 0 0 5.272 5.272z" mask="url(#ExplainerTeamDark_svg__k)"></path></g></g><defs><linearGradient id="ExplainerTeamDark_svg__d" x1="52.528" x2="52.528" y1="54.776" y2="108.69" gradientUnits="userSpaceOnUse"><stop stop-color="#303030"></stop><stop offset="1" stop-color="#2C2C2C"></stop></linearGradient><linearGradient id="ExplainerTeamDark_svg__e" x1="52.528" x2="52.528" y1="54.776" y2="108.69" gradientUnits="userSpaceOnUse"><stop stop-color="#303030"></stop><stop offset="1" stop-color="#2C2C2C"></stop></linearGradient><linearGradient id="ExplainerTeamDark_svg__f" x1="81.677" x2="81.677" y1="54.693" y2="108.737" gradientUnits="userSpaceOnUse"><stop stop-color="#464646"></stop><stop offset="1" stop-color="#3D3D3D"></stop></linearGradient><linearGradient id="ExplainerTeamDark_svg__h" x1="81.516" x2="81.516" y1="54" y2="120.631" gradientUnits="userSpaceOnUse"><stop stop-color="#2E2E2E"></stop><stop offset="1" stop-color="#404040"></stop></linearGradient><linearGradient id="ExplainerTeamDark_svg__j" x1="120.484" x2="120.484" y1="93.12" y2="126.86" gradientUnits="userSpaceOnUse"><stop stop-color="#8C18E8"></stop><stop offset="1" stop-color="#C35DE7"></stop></linearGradient><filter id="ExplainerTeamDark_svg__a" width="228" height="228" x="-24" y="-24" color-interpolation-filters="sRGB" filterUnits="userSpaceOnUse"><feFlood flood-opacity="0" result="BackgroundImageFix"></feFlood><feGaussianBlur in="BackgroundImageFix" stdDeviation="12"></feGaussianBlur><feComposite in2="SourceAlpha" operator="in" result="effect1_backgroundBlur_10472_187001"></feComposite><feBlend in="SourceGraphic" in2="effect1_backgroundBlur_10472_187001" result="shape"></feBlend></filter><filter id="ExplainerTeamDark_svg__c" width="79.356" height="55.504" x="42" y="54.693" color-interpolation-filters="sRGB" filterUnits="userSpaceOnUse"><feFlood flood-opacity="0" result="BackgroundImageFix"></feFlood><feBlend in="SourceGraphic" in2="BackgroundImageFix" result="shape"></feBlend><feColorMatrix in="SourceAlpha" result="hardAlpha" values="0 0 0 0 0 0 0 0 0 0 0 0 0 0 0 0 0 0 127 0"></feColorMatrix><feOffset dy="1.46"></feOffset><feGaussianBlur stdDeviation="0.73"></feGaussianBlur><feComposite in2="hardAlpha" k2="-1" k3="1" operator="arithmetic"></feComposite><feColorMatrix values="0 0 0 0 0 0 0 0 0 0 0 0 0 0 0 0 0 0 0.05 0"></feColorMatrix><feBlend in2="shape" result="effect1_innerShadow_10472_187001"></feBlend></filter><filter id="ExplainerTeamDark_svg__g" width="165.159" height="199.964" x="-1.064" y="54" color-interpolation-filters="sRGB" filterUnits="userSpaceOnUse"><feFlood flood-opacity="0" result="BackgroundImageFix"></feFlood><feColorMatrix in="SourceAlpha" result="hardAlpha" values="0 0 0 0 0 0 0 0 0 0 0 0 0 0 0 0 0 0 127 0"></feColorMatrix><feOffset dy="2.05"></feOffset><feGaussianBlur stdDeviation="0.82"></feGaussianBlur><feColorMatrix values="0 0 0 0 0 0 0 0 0 0 0 0 0 0 0 0 0 0 0.07 0"></feColorMatrix><feBlend in2="BackgroundImageFix" result="effect1_dropShadow_10472_187001"></feBlend><feColorMatrix in="SourceAlpha" result="hardAlpha" values="0 0 0 0 0 0 0 0 0 0 0 0 0 0 0 0 0 0 127 0"></feColorMatrix><feOffset dy="4.926"></feOffset><feGaussianBlur stdDeviation="1.97"></feGaussianBlur><feColorMatrix values="0 0 0 0 0 0 0 0 0 0 0 0 0 0 0 0 0 0 0.0503198 0"></feColorMatrix><feBlend in2="effect1_dropShadow_10472_187001" result="effect2_dropShadow_10472_187001"></feBlend><feColorMatrix in="SourceAlpha" result="hardAlpha" values="0 0 0 0 0 0 0 0 0 0 0 0 0 0 0 0 0 0 127 0"></feColorMatrix><feOffset dy="9.275"></feOffset><feGaussianBlur stdDeviation="3.71"></feGaussianBlur><feColorMatrix values="0 0 0 0 0 0 0 0 0 0 0 0 0 0 0 0 0 0 0.0417275 0"></feColorMatrix><feBlend in2="effect2_dropShadow_10472_187001" result="effect3_dropShadow_10472_187001"></feBlend><feColorMatrix in="SourceAlpha" result="hardAlpha" values="0 0 0 0 0 0 0 0 0 0 0 0 0 0 0 0 0 0 127 0"></feColorMatrix><feOffset dy="16.545"></feOffset><feGaussianBlur stdDeviation="6.618"></feGaussianBlur><feColorMatrix values="0 0 0 0 0 0 0 0 0 0 0 0 0 0 0 0 0 0 0.035 0"></feColorMatrix><feBlend in2="effect3_dropShadow_10472_187001" result="effect4_dropShadow_10472_187001"></feBlend><feColorMatrix in="SourceAlpha" result="hardAlpha" values="0 0 0 0 0 0 0 0 0 0 0 0 0 0 0 0 0 0 127 0"></feColorMatrix><feOffset dy="30.946"></feOffset><feGaussianBlur stdDeviation="12.379"></feGaussianBlur><feColorMatrix values="0 0 0 0 0 0 0 0 0 0 0 0 0 0 0 0 0 0 0.0282725 0"></feColorMatrix><feBlend in2="effect4_dropShadow_10472_187001" result="effect5_dropShadow_10472_187001"></feBlend><feColorMatrix in="SourceAlpha" result="hardAlpha" values="0 0 0 0 0 0 0 0 0 0 0 0 0 0 0 0 0 0 127 0"></feColorMatrix><feOffset dy="74.074"></feOffset><feGaussianBlur stdDeviation="29.63"></feGaussianBlur><feColorMatrix values="0 0 0 0 0 0 0 0 0 0 0 0 0 0 0 0 0 0 0.0196802 0"></feColorMatrix><feBlend in2="effect5_dropShadow_10472_187001" result="effect6_dropShadow_10472_187001"></feBlend><feBlend in="SourceGraphic" in2="effect6_dropShadow_10472_187001" result="shape"></feBlend></filter><clipPath id="ExplainerTeamDark_svg__b"><rect width="180" height="180" fill="#fff" rx="16"></rect></clipPath></defs></svg>