<svg xmlns="http://www.w3.org/2000/svg" fill="none" viewBox="0 0 58 54"><g filter="url(#FeatureCommunityDark_svg__a)"><path fill="url(#FeatureCommunityDark_svg__b)" fill-rule="evenodd" d="M9.09 11.46C8 13.6 8 16.4 8 22v10c0 5.6 0 8.4 1.09 10.54a10 10 0 0 0 4.37 4.37C15.6 48 18.4 48 24 48h4.195c1.575 0 2.363 0 2.796-.225.472-.244.644-.42.877-.898.214-.439.188-1.475.136-3.547Q32 43.165 32 43c0-7.18 5.82-13 13-13q.165 0 .33.004c2.072.052 3.108.078 3.547-.136.477-.233.654-.405.898-.877.225-.433.225-1.22.225-2.796V22c0-5.6 0-8.4-1.09-10.54a10 10 0 0 0-4.37-4.37C42.4 6 39.6 6 34 6H24c-5.6 0-8.4 0-10.54 1.09a10 10 0 0 0-4.37 4.37" clip-rule="evenodd"></path></g><mask id="FeatureCommunityDark_svg__d" width="42" height="42" x="8" y="6" maskUnits="userSpaceOnUse" style="mask-type:alpha"><path fill="url(#FeatureCommunityDark_svg__c)" fill-rule="evenodd" d="M9.09 11.46C8 13.6 8 16.4 8 22v10c0 5.6 0 8.4 1.09 10.54a10 10 0 0 0 4.37 4.37C15.6 48 18.4 48 24 48h4.195c1.575 0 2.363 0 2.796-.225.472-.244.644-.42.877-.898.214-.439.188-1.475.136-3.547Q32 43.165 32 43c0-7.18 5.82-13 13-13q.165 0 .33.004c2.072.052 3.108.078 3.547-.136.477-.233.654-.405.898-.877.225-.433.225-1.22.225-2.796V22c0-5.6 0-8.4-1.09-10.54a10 10 0 0 0-4.37-4.37C42.4 6 39.6 6 34 6H24c-5.6 0-8.4 0-10.54 1.09a10 10 0 0 0-4.37 4.37" clip-rule="evenodd"></path></mask><g mask="url(#FeatureCommunityDark_svg__d)"><g filter="url(#FeatureCommunityDark_svg__e)"><rect width="34" height="22" x="12" y="10" fill="url(#FeatureCommunityDark_svg__f)" rx="6"></rect><rect width="33.5" height="21.5" x="12.25" y="10.25" stroke="#fff" stroke-opacity="0.1" stroke-width="0.5" rx="5.75"></rect></g><g filter="url(#FeatureCommunityDark_svg__g)"><rect width="34" height="22" x="12" y="37" fill="url(#FeatureCommunityDark_svg__h)" rx="6"></rect><rect width="33.5" height="21.5" x="12.25" y="37.25" stroke="#fff" stroke-opacity="0.1" stroke-width="0.5" rx="5.75"></rect></g><mask id="FeatureCommunityDark_svg__j" fill="#fff"><path fill-rule="evenodd" d="M9.09 11.46C8 13.6 8 16.4 8 22v10c0 5.6 0 8.4 1.09 10.54a10 10 0 0 0 4.37 4.37C15.6 48 18.4 48 24 48h4.195c1.575 0 2.363 0 2.796-.225.472-.244.644-.42.877-.898.214-.439.188-1.475.136-3.547Q32 43.165 32 43c0-7.18 5.82-13 13-13q.165 0 .33.004c2.072.052 3.108.078 3.547-.136.477-.233.654-.405.898-.877.225-.433.225-1.22.225-2.796V22c0-5.6 0-8.4-1.09-10.54a10 10 0 0 0-4.37-4.37C42.4 6 39.6 6 34 6H24c-5.6 0-8.4 0-10.54 1.09a10 10 0 0 0-4.37 4.37" clip-rule="evenodd"></path></mask><g filter="url(#FeatureCommunityDark_svg__i)"><path fill="#D9D9D9" fill-opacity="0.01" fill-rule="evenodd" d="M9.09 11.46C8 13.6 8 16.4 8 22v10c0 5.6 0 8.4 1.09 10.54a10 10 0 0 0 4.37 4.37C15.6 48 18.4 48 24 48h4.195c1.575 0 2.363 0 2.796-.225.472-.244.644-.42.877-.898.214-.439.188-1.475.136-3.547Q32 43.165 32 43c0-7.18 5.82-13 13-13q.165 0 .33.004c2.072.052 3.108.078 3.547-.136.477-.233.654-.405.898-.877.225-.433.225-1.22.225-2.796V22c0-5.6 0-8.4-1.09-10.54a10 10 0 0 0-4.37-4.37C42.4 6 39.6 6 34 6H24c-5.6 0-8.4 0-10.54 1.09a10 10 0 0 0-4.37 4.37" clip-rule="evenodd"></path></g><path fill="#fff" fill-opacity="0.1" d="m9.09 11.46.445.227zm0 31.08-.446.227zm4.37 4.37.227-.445zm35.45-35.45-.445.227zm-4.37-4.37.227-.446zm-31.08 0 .227.445zm35.417 22.778.219.449zm.898-.877.444.23zM30.991 47.775l-.23-.444zm1.013-4.445-.5.013zm-.136 3.547-.45-.22zM8.5 22c0-2.808 0-4.885.135-6.527.133-1.637.397-2.799.9-3.786l-.89-.454c-.587 1.152-.868 2.46-1.007 4.158C7.5 17.084 7.5 19.208 7.5 22zm0 10V22h-1v10zm1.035 10.313c-.503-.987-.767-2.15-.9-3.786C8.5 36.885 8.5 34.81 8.5 32h-1c0 2.792 0 4.916.138 6.609.139 1.698.42 3.006 1.006 4.158zm4.152 4.152a9.5 9.5 0 0 1-4.152-4.152l-.89.454a10.5 10.5 0 0 0 4.588 4.589zM24 47.5c-2.808 0-4.885 0-6.527-.135-1.637-.133-2.799-.397-3.786-.9l-.454.89c1.152.587 2.46.868 4.158 1.007 1.693.138 3.817.138 6.609.138zm4.195 0H24v1h4.195zm4.309-4.182A12 12 0 0 1 32.5 43h-1q0 .171.004.343zM32.5 43c0-6.904 5.596-12.5 12.5-12.5v-1c-7.456 0-13.5 6.044-13.5 13.5zM45 30.5q.159 0 .318.004l.025-1A14 14 0 0 0 45 29.5zm4.5-8.5v4.195h1V22zm-1.035-10.313c.503.987.767 2.15.9 3.786.135 1.642.135 3.719.135 6.527h1c0-2.792 0-4.916-.138-6.609-.139-1.698-.42-3.006-1.006-4.158zm-4.152-4.152a9.5 9.5 0 0 1 4.152 4.152l.89-.454a10.5 10.5 0 0 0-4.588-4.589zM34 6.5c2.809 0 4.885 0 6.527.135 1.637.133 2.799.397 3.786.9l.454-.89c-1.152-.587-2.46-.868-4.158-1.007C38.916 5.5 36.792 5.5 34 5.5zm-10 0h10v-1H24zM13.687 7.535c.987-.503 2.15-.767 3.786-.9C19.115 6.5 21.192 6.5 24 6.5v-1c-2.792 0-4.916 0-6.609.138-1.698.139-3.006.42-4.158 1.006zm-4.152 4.152a9.5 9.5 0 0 1 4.152-4.152l-.454-.89a10.5 10.5 0 0 0-4.589 4.588zm35.783 18.817c1.03.026 1.822.045 2.41.031.562-.013 1.037-.057 1.368-.218l-.438-.899c-.108.053-.37.104-.954.118-.558.013-1.32-.006-2.361-.032zm4.182-4.31c0 .795 0 1.367-.027 1.796-.028.439-.08.653-.142.771l.888.46c.164-.315.223-.71.252-1.168.03-.468.029-1.077.029-1.858zm-.404 4.123c.258-.126.476-.255.666-.44.19-.186.325-.4.457-.655l-.888-.461c-.112.217-.188.323-.267.4-.078.077-.187.15-.406.257zM28.195 48.5c.78 0 1.39 0 1.858-.03.457-.028.853-.087 1.169-.251l-.461-.888c-.118.061-.332.114-.77.142-.43.027-1.002.027-1.796.027zm3.31-5.157c.025 1.041.044 1.803.03 2.36-.014.585-.064.847-.117.955l.899.438c.161-.331.205-.806.218-1.368.015-.588-.005-1.38-.031-2.41zm-.283 4.876c.254-.132.47-.267.655-.457s.314-.408.44-.666l-.899-.438c-.107.22-.18.328-.257.406s-.183.155-.4.267z" mask="url(#FeatureCommunityDark_svg__j)"></path></g><circle cx="45" cy="43" r="10" fill="url(#FeatureCommunityDark_svg__k)"></circle><circle cx="45" cy="43" r="9.75" stroke="#fff" stroke-opacity="0.1" stroke-width="0.5"></circle><mask id="FeatureCommunityDark_svg__l" width="17" height="17" x="36.45" y="34.45" fill="#000" maskUnits="userSpaceOnUse"><path fill="#fff" d="M36.45 34.45h17v17h-17z"></path><path fill-rule="evenodd" d="M46.25 36.7a1.25 1.25 0 1 0-2.5 0v5.05H38.7a1.25 1.25 0 1 0 0 2.5h5.05v5.05a1.25 1.25 0 0 0 2.5 0v-5.05h5.05a1.25 1.25 0 0 0 0-2.5h-5.05z" clip-rule="evenodd"></path></mask><path fill="#282B2C" fill-rule="evenodd" d="M46.25 36.7a1.25 1.25 0 1 0-2.5 0v5.05H38.7a1.25 1.25 0 1 0 0 2.5h5.05v5.05a1.25 1.25 0 0 0 2.5 0v-5.05h5.05a1.25 1.25 0 0 0 0-2.5h-5.05z" clip-rule="evenodd"></path><path fill="#fff" fill-opacity="0.1" d="M43.75 41.75v.5h.5v-.5zm0 2.5h.5v-.5h-.5zm2.5 0v-.5h-.5v.5zm0-2.5h-.5v.5h.5zM45 35.95a.75.75 0 0 1 .75.75h1A1.75 1.75 0 0 0 45 34.95zm-.75.75a.75.75 0 0 1 .75-.75v-1a1.75 1.75 0 0 0-1.75 1.75zm0 5.05V36.7h-1v5.05zm-5.55.5h5.05v-1H38.7zm-.75.75a.75.75 0 0 1 .75-.75v-1A1.75 1.75 0 0 0 36.95 43zm.75.75a.75.75 0 0 1-.75-.75h-1c0 .966.784 1.75 1.75 1.75zm5.05 0H38.7v1h5.05zm.5 5.55v-5.05h-1v5.05zm.75.75a.75.75 0 0 1-.75-.75h-1c0 .966.784 1.75 1.75 1.75zm.75-.75a.75.75 0 0 1-.75.75v1a1.75 1.75 0 0 0 1.75-1.75zm0-5.05v5.05h1v-5.05zm5.55-.5h-5.05v1h5.05zm.75-.75a.75.75 0 0 1-.75.75v1A1.75 1.75 0 0 0 53.05 43zm-.75-.75a.75.75 0 0 1 .75.75h1a1.75 1.75 0 0 0-1.75-1.75zm-5.05 0h5.05v-1h-5.05zm-.5-5.55v5.05h1V36.7z" mask="url(#FeatureCommunityDark_svg__l)"></path><defs><linearGradient id="FeatureCommunityDark_svg__b" x1="29" x2="29" y1="6" y2="48" gradientUnits="userSpaceOnUse"><stop stop-color="#353535"></stop><stop offset="1" stop-color="#484848"></stop></linearGradient><linearGradient id="FeatureCommunityDark_svg__c" x1="28.999" x2="28.999" y1="6.064" y2="47.964" gradientUnits="userSpaceOnUse"><stop stop-color="#E2E2E2"></stop><stop offset="1" stop-color="#E7E7E7"></stop></linearGradient><linearGradient id="FeatureCommunityDark_svg__f" x1="29" x2="29" y1="10" y2="32" gradientUnits="userSpaceOnUse"><stop stop-color="#5B5B5B"></stop><stop offset="1" stop-color="#474747"></stop></linearGradient><linearGradient id="FeatureCommunityDark_svg__h" x1="29" x2="29" y1="37" y2="59" gradientUnits="userSpaceOnUse"><stop stop-color="#5B5B5B"></stop><stop offset="1" stop-color="#474747"></stop></linearGradient><linearGradient id="FeatureCommunityDark_svg__k" x1="45" x2="45" y1="33" y2="53" gradientUnits="userSpaceOnUse"><stop stop-color="#C7641C"></stop><stop offset="1" stop-color="#D87A45"></stop></linearGradient><filter id="FeatureCommunityDark_svg__a" width="42" height="42.865" x="8" y="6" color-interpolation-filters="sRGB" filterUnits="userSpaceOnUse"><feFlood flood-opacity="0" result="BackgroundImageFix"></feFlood><feBlend in="SourceGraphic" in2="BackgroundImageFix" result="shape"></feBlend><feColorMatrix in="SourceAlpha" result="hardAlpha" values="0 0 0 0 0 0 0 0 0 0 0 0 0 0 0 0 0 0 127 0"></feColorMatrix><feOffset dy="0.865"></feOffset><feGaussianBlur stdDeviation="0.433"></feGaussianBlur><feComposite in2="hardAlpha" k2="-1" k3="1" operator="arithmetic"></feComposite><feColorMatrix values="0 0 0 0 0 0 0 0 0 0 0 0 0 0 0 0 0 0 0.05 0"></feColorMatrix><feBlend in2="shape" result="effect1_innerShadow_10293_181447"></feBlend></filter><filter id="FeatureCommunityDark_svg__e" width="35" height="23" x="11.5" y="9.5" color-interpolation-filters="sRGB" filterUnits="userSpaceOnUse"><feFlood flood-opacity="0" result="BackgroundImageFix"></feFlood><feColorMatrix in="SourceAlpha" result="hardAlpha" values="0 0 0 0 0 0 0 0 0 0 0 0 0 0 0 0 0 0 127 0"></feColorMatrix><feMorphology in="SourceAlpha" operator="dilate" radius="0.5" result="effect1_dropShadow_10293_181447"></feMorphology><feOffset></feOffset><feComposite in2="hardAlpha" operator="out"></feComposite><feColorMatrix values="0 0 0 0 0 0 0 0 0 0 0 0 0 0 0 0 0 0 0.04 0"></feColorMatrix><feBlend in2="BackgroundImageFix" result="effect1_dropShadow_10293_181447"></feBlend><feBlend in="SourceGraphic" in2="effect1_dropShadow_10293_181447" result="shape"></feBlend><feColorMatrix in="SourceAlpha" result="hardAlpha" values="0 0 0 0 0 0 0 0 0 0 0 0 0 0 0 0 0 0 127 0"></feColorMatrix><feOffset dy="0.5"></feOffset><feComposite in2="hardAlpha" k2="-1" k3="1" operator="arithmetic"></feComposite><feColorMatrix values="0 0 0 0 1 0 0 0 0 1 0 0 0 0 1 0 0 0 0.1 0"></feColorMatrix><feBlend in2="shape" result="effect2_innerShadow_10293_181447"></feBlend></filter><filter id="FeatureCommunityDark_svg__g" width="35" height="23" x="11.5" y="36.5" color-interpolation-filters="sRGB" filterUnits="userSpaceOnUse"><feFlood flood-opacity="0" result="BackgroundImageFix"></feFlood><feColorMatrix in="SourceAlpha" result="hardAlpha" values="0 0 0 0 0 0 0 0 0 0 0 0 0 0 0 0 0 0 127 0"></feColorMatrix><feMorphology in="SourceAlpha" operator="dilate" radius="0.5" result="effect1_dropShadow_10293_181447"></feMorphology><feOffset></feOffset><feComposite in2="hardAlpha" operator="out"></feComposite><feColorMatrix values="0 0 0 0 0 0 0 0 0 0 0 0 0 0 0 0 0 0 0.04 0"></feColorMatrix><feBlend in2="BackgroundImageFix" result="effect1_dropShadow_10293_181447"></feBlend><feBlend in="SourceGraphic" in2="effect1_dropShadow_10293_181447" result="shape"></feBlend><feColorMatrix in="SourceAlpha" result="hardAlpha" values="0 0 0 0 0 0 0 0 0 0 0 0 0 0 0 0 0 0 127 0"></feColorMatrix><feOffset dy="0.5"></feOffset><feComposite in2="hardAlpha" k2="-1" k3="1" operator="arithmetic"></feComposite><feColorMatrix values="0 0 0 0 1 0 0 0 0 1 0 0 0 0 1 0 0 0 0.1 0"></feColorMatrix><feBlend in2="shape" result="effect2_innerShadow_10293_181447"></feBlend></filter><filter id="FeatureCommunityDark_svg__i" width="42" height="46" x="8" y="2" color-interpolation-filters="sRGB" filterUnits="userSpaceOnUse"><feFlood flood-opacity="0" result="BackgroundImageFix"></feFlood><feBlend in="SourceGraphic" in2="BackgroundImageFix" result="shape"></feBlend><feColorMatrix in="SourceAlpha" result="hardAlpha" values="0 0 0 0 0 0 0 0 0 0 0 0 0 0 0 0 0 0 127 0"></feColorMatrix><feOffset dy="-4"></feOffset><feGaussianBlur stdDeviation="2"></feGaussianBlur><feComposite in2="hardAlpha" k2="-1" k3="1" operator="arithmetic"></feComposite><feColorMatrix values="0 0 0 0 0 0 0 0 0 0 0 0 0 0 0 0 0 0 0.05 0"></feColorMatrix><feBlend in2="shape" result="effect1_innerShadow_10293_181447"></feBlend></filter></defs></svg>