<svg xmlns="http://www.w3.org/2000/svg" fill="none" viewBox="0 0 58 54"><g clip-path="url(#FeaturePageDark_svg__a)"><mask id="FeaturePageDark_svg__d" fill="#fff"><path fill-rule="evenodd" d="M9.095 11.057C8.05 13.111 8.05 15.8 8.05 21.176v10.818c0 5.377 0 8.065 1.046 10.118a9.6 9.6 0 0 0 4.195 4.196c2.054 1.046 4.742 1.046 10.119 1.046h4.78c1.622 0 2.433 0 2.87-.23.477-.25.646-.427.877-.915.211-.446.166-1.515.076-3.652Q32 42.28 32 42c0-7.18 5.82-13 13-13h.06c2 .01 3 .014 3.43-.203.465-.236.64-.41.878-.875.22-.429.22-1.191.22-2.717v-4.03c0-5.376 0-8.064-1.047-10.118a9.6 9.6 0 0 0-4.195-4.195c-2.054-1.046-4.742-1.046-10.119-1.046H23.41c-5.377 0-8.065 0-10.118 1.046a9.6 9.6 0 0 0-4.196 4.195" clip-rule="evenodd"></path></mask><g filter="url(#FeaturePageDark_svg__b)"><path fill="url(#FeaturePageDark_svg__c)" fill-rule="evenodd" d="M9.095 11.057C8.05 13.111 8.05 15.8 8.05 21.176v10.818c0 5.377 0 8.065 1.046 10.118a9.6 9.6 0 0 0 4.195 4.196c2.054 1.046 4.742 1.046 10.119 1.046h4.78c1.622 0 2.433 0 2.87-.23.477-.25.646-.427.877-.915.211-.446.166-1.515.076-3.652Q32 42.28 32 42c0-7.18 5.82-13 13-13h.06c2 .01 3 .014 3.43-.203.465-.236.64-.41.878-.875.22-.429.22-1.191.22-2.717v-4.03c0-5.376 0-8.064-1.047-10.118a9.6 9.6 0 0 0-4.195-4.195c-2.054-1.046-4.742-1.046-10.119-1.046H23.41c-5.377 0-8.065 0-10.118 1.046a9.6 9.6 0 0 0-4.196 4.195" clip-rule="evenodd"></path></g><path fill="#fff" fill-opacity="0.1" d="m9.095 11.057-.445-.227zm0 31.055.446-.227zm4.195 4.196.228-.446zm35.251-35.25-.445.226zm-4.195-4.196-.227.445zm-31.055 0-.228-.446zM48.49 28.797l-.226-.447zm.878-.875-.445-.228zm-18.31 19.202-.232-.442zm.954-4.567-.5.021zm-.076 3.652.452.214zM8.549 21.176c0-2.697 0-4.69.129-6.265.128-1.57.381-2.682.863-3.627l-.891-.454c-.565 1.11-.835 2.368-.969 4-.133 1.626-.132 3.666-.132 6.346zm0 10.818V21.176h-1v10.818zm.992 9.891c-.482-.944-.735-2.057-.863-3.626-.129-1.576-.13-3.568-.13-6.265h-1c0 2.68 0 4.72.133 6.346.134 1.632.404 2.89.969 4zm3.976 3.977a9.1 9.1 0 0 1-3.976-3.977l-.891.454a10.1 10.1 0 0 0 4.413 4.414zm9.892.992c-2.697 0-4.689 0-6.265-.13-1.57-.127-2.682-.38-3.626-.862l-.455.891c1.11.565 2.368.835 4 .968 1.626.133 3.666.133 6.346.133zm4.78 0h-4.78v1h4.78zm4.322-4.318a13 13 0 0 1-.01-.536h-1q0 .29.011.578zm-.01-.536c0-6.904 5.596-12.5 12.5-12.5v-1c-7.457 0-13.5 6.044-13.5 13.5zM45 29.5h.057l.005-1H45zm4.086-8.324v4.03h1v-4.03zm-.992-9.892c.482.945.735 2.057.863 3.627.129 1.576.13 3.568.13 6.265h1c0-2.68 0-4.72-.133-6.346-.133-1.632-.404-2.89-.968-4zM44.12 7.307a9.1 9.1 0 0 1 3.977 3.977l.89-.454a10.1 10.1 0 0 0-4.413-4.414zm-9.892-.991c2.697 0 4.69 0 6.265.129 1.57.128 2.682.381 3.627.862l.454-.89c-1.11-.566-2.368-.836-4-.969-1.626-.133-3.666-.132-6.346-.132zm-10.818 0h10.818v-1H23.41zm-9.891.991c.944-.48 2.056-.734 3.626-.862 1.576-.13 3.568-.13 6.265-.13v-1c-2.68 0-4.72 0-6.346.133-1.632.133-2.89.403-4 .968zM9.54 11.284a9.1 9.1 0 0 1 3.976-3.977l-.453-.89A10.1 10.1 0 0 0 8.65 10.83zM45.058 29.5c.995.005 1.76.008 2.328-.017.544-.025 1.006-.077 1.33-.24l-.452-.893c-.106.054-.36.108-.923.134-.538.024-1.273.02-2.278.016zm4.03-4.295c0 .77 0 1.323-.027 1.738-.027.424-.078.634-.138.751l.89.456c.16-.312.218-.698.246-1.144.029-.454.028-1.045.028-1.8zm-.373 4.038c.252-.128.466-.258.652-.444.186-.184.318-.398.446-.65l-.89-.455c-.109.213-.184.32-.261.397s-.185.151-.398.26zM28.19 47.854c.804 0 1.43 0 1.91-.03.468-.029.872-.09 1.191-.257l-.465-.885c-.118.062-.337.116-.789.144-.44.028-1.03.028-1.847.028zm3.322-5.276c.046 1.074.079 1.861.075 2.436-.004.603-.052.872-.103.981l.904.428c.16-.338.195-.826.199-1.403.004-.605-.03-1.421-.076-2.484zm-.22 4.989c.256-.135.473-.272.659-.465.185-.194.313-.417.437-.68l-.904-.427c-.107.226-.18.335-.255.414-.076.08-.183.157-.403.273z" mask="url(#FeaturePageDark_svg__d)"></path><g filter="url(#FeaturePageDark_svg__e)"><mask id="FeaturePageDark_svg__g" fill="#fff"><path fill-rule="evenodd" d="M15.835 3.22a2.596 2.596 0 0 1 5.193 0v6.057a2.596 2.596 0 0 1-5.193 0zm20.77 0a2.596 2.596 0 0 1 5.193 0v6.057a2.596 2.596 0 1 1-5.192 0zM19.4 18.9a2.7 2.7 0 0 0 0 5.4h18a2.7 2.7 0 1 0 0-5.4z" clip-rule="evenodd"></path></mask><path fill="url(#FeaturePageDark_svg__f)" fill-rule="evenodd" d="M15.835 3.22a2.596 2.596 0 0 1 5.193 0v6.057a2.596 2.596 0 0 1-5.193 0zm20.77 0a2.596 2.596 0 0 1 5.193 0v6.057a2.596 2.596 0 1 1-5.192 0zM19.4 18.9a2.7 2.7 0 0 0 0 5.4h18a2.7 2.7 0 1 0 0-5.4z" clip-rule="evenodd"></path><path fill="#fff" fill-opacity="0.1" d="M18.432.123a3.096 3.096 0 0 0-3.097 3.096h1c0-1.157.939-2.096 2.097-2.096zm3.096 3.096A3.096 3.096 0 0 0 18.432.123v1c1.157 0 2.096.939 2.096 2.096zm0 6.058V3.219h-1v6.058zm-3.096 3.096a3.096 3.096 0 0 0 3.096-3.096h-1a2.096 2.096 0 0 1-2.096 2.096zm-3.097-3.096a3.096 3.096 0 0 0 3.097 3.096v-1a2.096 2.096 0 0 1-2.097-2.096zm0-6.058v6.058h1V3.219zM39.202.123a3.096 3.096 0 0 0-3.096 3.096h1c0-1.157.938-2.096 2.096-2.096zm3.096 3.096A3.096 3.096 0 0 0 39.202.123v1c1.157 0 2.096.939 2.096 2.096zm0 6.058V3.219h-1v6.058zm-3.096 3.096a3.096 3.096 0 0 0 3.096-3.096h-1a2.096 2.096 0 0 1-2.096 2.096zm-3.096-3.096a3.096 3.096 0 0 0 3.096 3.096v-1a2.096 2.096 0 0 1-2.096-2.096zm0-6.058v6.058h1V3.219zM17.2 21.6a2.2 2.2 0 0 1 2.2-2.2v-1a3.2 3.2 0 0 0-3.2 3.2zm2.2 2.2a2.2 2.2 0 0 1-2.2-2.2h-1a3.2 3.2 0 0 0 3.2 3.2zm18 0h-18v1h18zm2.2-2.2a2.2 2.2 0 0 1-2.2 2.2v1a3.2 3.2 0 0 0 3.2-3.2zm-2.2-2.2a2.2 2.2 0 0 1 2.2 2.2h1a3.2 3.2 0 0 0-3.2-3.2zm-18 0h18v-1h-18z" mask="url(#FeaturePageDark_svg__g)"></path></g><mask id="FeaturePageDark_svg__i" fill="#fff"><path fill-rule="evenodd" d="M45.014 49.498 45 49.5l-.014-.002a.3.3 0 0 1-.047-.015 1 1 0 0 1-.27-.177c-.27-.229-.62-.656-.968-1.353-.576-1.151-1.02-2.785-1.157-4.703h4.912c-.137 1.918-.58 3.552-1.157 4.703-.348.697-.698 1.124-.967 1.352-.13.11-.222.158-.271.178a.3.3 0 0 1-.047.015m2.442-8.748h-4.912c.137-1.918.58-3.552 1.157-4.703.348-.697.698-1.124.967-1.352.13-.11.222-.158.271-.178A.3.3 0 0 1 45 34.5l.014.002a.3.3 0 0 1 .047.015c.05.02.142.068.27.177.27.228.62.656.968 1.353.576 1.151 1.02 2.785 1.157 4.703m2.505 2.5c-.123 1.971-.532 3.764-1.143 5.207a7.5 7.5 0 0 0 3.578-5.207zm2.435-2.5h-2.435c-.123-1.971-.532-3.764-1.143-5.207a7.5 7.5 0 0 1 3.578 5.207m-12.357 0c.123-1.971.532-3.764 1.143-5.207a7.5 7.5 0 0 0-3.578 5.207zm-2.435 2.5a7.5 7.5 0 0 0 3.578 5.207c-.61-1.443-1.02-3.236-1.143-5.207zM55 42c0-5.523-4.477-10-10-10s-10 4.477-10 10 4.477 10 10 10 10-4.477 10-10" clip-rule="evenodd"></path></mask><path fill="url(#FeaturePageDark_svg__h)" fill-rule="evenodd" d="M45.014 49.498 45 49.5l-.014-.002a.3.3 0 0 1-.047-.015 1 1 0 0 1-.27-.177c-.27-.229-.62-.656-.968-1.353-.576-1.151-1.02-2.785-1.157-4.703h4.912c-.137 1.918-.58 3.552-1.157 4.703-.348.697-.698 1.124-.967 1.352-.13.11-.222.158-.271.178a.3.3 0 0 1-.047.015m2.442-8.748h-4.912c.137-1.918.58-3.552 1.157-4.703.348-.697.698-1.124.967-1.352.13-.11.222-.158.271-.178A.3.3 0 0 1 45 34.5l.014.002a.3.3 0 0 1 .047.015c.05.02.142.068.27.177.27.228.62.656.968 1.353.576 1.151 1.02 2.785 1.157 4.703m2.505 2.5c-.123 1.971-.532 3.764-1.143 5.207a7.5 7.5 0 0 0 3.578-5.207zm2.435-2.5h-2.435c-.123-1.971-.532-3.764-1.143-5.207a7.5 7.5 0 0 1 3.578 5.207m-12.357 0c.123-1.971.532-3.764 1.143-5.207a7.5 7.5 0 0 0-3.578 5.207zm-2.435 2.5a7.5 7.5 0 0 0 3.578 5.207c-.61-1.443-1.02-3.236-1.143-5.207zM55 42c0-5.523-4.477-10-10-10s-10 4.477-10 10 4.477 10 10 10 10-4.477 10-10" clip-rule="evenodd"></path><path fill="#fff" fill-opacity="0.2" d="m45.014 49.498-.1-.49zm-.028 0 .1-.49zm-.047-.015.19-.463zm-.27-.177-.323.381zm-.968-1.353.447-.224zm-1.157-4.703v-.5h-.537l.038.536zm4.912 0 .498.036.039-.536h-.537zm-2.124 6.056.322.381zm-.271.177.19.463zm-2.517-8.733-.498-.036-.039.536h.537zm4.912 0v.5h.537l-.038-.536zM43.7 36.047l.448.224zm.968-1.352-.322-.382zm.271-.178.19.463zm.047-.015.1.49zm.028 0-.1.49zm.047.015-.19.463zm.27.177.323-.381zm.968 1.353-.447.224zm3.662 7.203v-.5h-.47l-.029.469zm-1.143 5.207-.46-.195-.593 1.4 1.308-.775zm3.578-5.207.493.083.098-.583h-.59zm-2.435-2.5-.499.031.03.469h.47zm2.435 0v.5h.591l-.098-.583zm-3.578-5.207.255-.43-1.308-.775.593 1.4zm-7.636 0 .46.195.593-1.4-1.308.775zm-1.143 5.207v.5h.47l.029-.469zm-2.435 0-.493-.083-.098.583h.59zm3.578 7.707-.255.43 1.308.775-.593-1.4zm-3.578-5.207v-.5h-.591l.098.583zm2.435 0 .499-.031-.03-.469h-.47zM45 50a.6.6 0 0 0 .113-.012l-.199-.98A.4.4 0 0 1 45 49zm-.113-.012Q44.946 50 45 50v-1a.5.5 0 0 1 .086.008zm-.137-.042a1 1 0 0 0 .137.042l.199-.98q.038.009.043.012zm-.404-.259c.163.138.3.216.404.259l.379-.926c.005.003-.043-.016-.138-.096zm-1.093-1.51c.37.738.757 1.227 1.093 1.51l.645-.763c-.204-.173-.516-.54-.843-1.195zm-1.208-4.891c.141 1.969.597 3.669 1.208 4.89l.895-.447c-.54-1.08-.972-2.648-1.105-4.515zm5.41-.536h-4.91v1h4.91zm-.708 5.427c.61-1.222 1.067-2.922 1.208-4.891l-.998-.072c-.133 1.867-.564 3.434-1.105 4.515zm-1.093 1.51c.336-.283.724-.772 1.093-1.51l-.895-.448c-.327.655-.64 1.022-.843 1.195zm-.404.259a1.6 1.6 0 0 0 .404-.259l-.645-.763c-.095.08-.143.099-.138.096zm-.137.042a1 1 0 0 0 .137-.042l-.379-.926a.3.3 0 0 1 .043-.012zm-2.569-8.738h4.912v-1h-4.912zm.71-5.427c-.612 1.222-1.068 2.922-1.209 4.891l.998.072c.133-1.867.564-3.434 1.105-4.515zm1.092-1.51c-.336.283-.724.772-1.093 1.51l.895.448c.327-.655.64-1.022.843-1.195zm.404-.259a1.6 1.6 0 0 0-.404.259l.645.763c.095-.08.143-.099.138-.096zm.137-.042a1 1 0 0 0-.137.042l.379.926a.3.3 0 0 1-.043.012zM45 34a.6.6 0 0 0-.113.012l.199.98A.4.4 0 0 1 45 35zm.113.012A.6.6 0 0 0 45 34v1a.5.5 0 0 1-.086-.008zm.137.042a1 1 0 0 0-.137-.042l-.199.98a.3.3 0 0 1-.043-.012zm.404.259a1.6 1.6 0 0 0-.404-.259l-.379.926c-.005-.003.043.016.138.096zm1.093 1.51c-.37-.738-.757-1.227-1.093-1.51l-.645.763c.204.173.516.54.843 1.195zm1.208 4.891c-.141-1.969-.597-3.669-1.208-4.89l-.895.447c.54 1.08.972 2.648 1.105 4.515zm1.507 2.505c-.12 1.924-.52 3.66-1.104 5.043l.92.39c.636-1.503 1.056-3.352 1.182-5.37zm-.389 5.668a8 8 0 0 0 3.816-5.554l-.986-.166a7 7 0 0 1-3.34 4.86zm3.323-6.137h-2.435v1h2.435zm-2.435-1.5h2.435v-1h-2.435zm-1.603-5.512c.585 1.383.984 3.12 1.104 5.043l.998-.062c-.126-2.019-.546-3.868-1.181-5.37zm4.531 4.93a8 8 0 0 0-3.816-5.555l-.51.86a7 7 0 0 1 3.34 4.86zm-12.168-5.32c-.635 1.503-1.055 3.352-1.181 5.37l.998.063c.12-1.924.52-3.66 1.104-5.043zm-2.624 5.485a7 7 0 0 1 3.34-4.86l-.51-.86a8 8 0 0 0-3.816 5.554zm-.493.417h2.435v-1h-2.435zm3.833 6.776a7 7 0 0 1-3.34-4.859l-.986.166a8 8 0 0 0 3.816 5.554zm-1.897-4.745c.126 2.019.546 3.868 1.181 5.37l.921-.39c-.585-1.382-.984-3.118-1.104-5.042zm.499-.531h-2.435v1h2.435zM45 32.5a9.5 9.5 0 0 1 9.5 9.5h1c0-5.799-4.701-10.5-10.5-10.5zM35.5 42a9.5 9.5 0 0 1 9.5-9.5v-1c-5.799 0-10.5 4.701-10.5 10.5zm9.5 9.5a9.5 9.5 0 0 1-9.5-9.5h-1c0 5.799 4.701 10.5 10.5 10.5zm9.5-9.5a9.5 9.5 0 0 1-9.5 9.5v1c5.799 0 10.5-4.701 10.5-10.5z" mask="url(#FeaturePageDark_svg__i)"></path></g><defs><linearGradient id="FeaturePageDark_svg__c" x1="28.818" x2="28.818" y1="5.815" y2="47.354" gradientUnits="userSpaceOnUse"><stop stop-color="#353535"></stop><stop offset="1" stop-color="#484848"></stop></linearGradient><linearGradient id="FeaturePageDark_svg__f" x1="28.817" x2="28.817" y1="0.623" y2="24.3" gradientUnits="userSpaceOnUse"><stop stop-color="#606060"></stop><stop offset="1" stop-color="#575757"></stop></linearGradient><linearGradient id="FeaturePageDark_svg__h" x1="45" x2="45" y1="32" y2="52" gradientUnits="userSpaceOnUse"><stop stop-color="#20B014"></stop><stop offset="1" stop-color="#3BDE4C"></stop></linearGradient><filter id="FeaturePageDark_svg__b" width="41.539" height="42.404" x="8.049" y="5.816" color-interpolation-filters="sRGB" filterUnits="userSpaceOnUse"><feFlood flood-opacity="0" result="BackgroundImageFix"></feFlood><feBlend in="SourceGraphic" in2="BackgroundImageFix" result="shape"></feBlend><feColorMatrix in="SourceAlpha" result="hardAlpha" values="0 0 0 0 0 0 0 0 0 0 0 0 0 0 0 0 0 0 127 0"></feColorMatrix><feOffset dy="0.865"></feOffset><feGaussianBlur stdDeviation="0.433"></feGaussianBlur><feComposite in2="hardAlpha" k2="-1" k3="1" operator="arithmetic"></feComposite><feColorMatrix values="0 0 0 0 0 0 0 0 0 0 0 0 0 0 0 0 0 0 0.05 0"></feColorMatrix><feBlend in2="shape" result="effect1_innerShadow_10293_181385"></feBlend></filter><filter id="FeaturePageDark_svg__e" width="32.886" height="30.6" x="12.374" y="-1.973" color-interpolation-filters="sRGB" filterUnits="userSpaceOnUse"><feFlood flood-opacity="0" result="BackgroundImageFix"></feFlood><feColorMatrix in="SourceAlpha" result="hardAlpha" values="0 0 0 0 0 0 0 0 0 0 0 0 0 0 0 0 0 0 127 0"></feColorMatrix><feOffset dy="0.865"></feOffset><feGaussianBlur stdDeviation="1.731"></feGaussianBlur><feComposite in2="hardAlpha" operator="out"></feComposite><feColorMatrix values="0 0 0 0 0 0 0 0 0 0 0 0 0 0 0 0 0 0 0.05 0"></feColorMatrix><feBlend in2="BackgroundImageFix" result="effect1_dropShadow_10293_181385"></feBlend><feBlend in="SourceGraphic" in2="effect1_dropShadow_10293_181385" result="shape"></feBlend></filter><clipPath id="FeaturePageDark_svg__a"><path fill="#fff" d="M0 0h58v54H0z"></path></clipPath></defs></svg>