<svg xmlns="http://www.w3.org/2000/svg" fill="none" viewBox="0 0 58 54"><path fill="url(#FeatureTeamDark_svg__a)" d="M6.06 39.424c.357.105.7-.186.7-.558 0-5.345 4.554-7.786 7.203-9.082.531-.26 1.003-.482 1.43-.681.877-.413 1.559-.733 2.152-1.103a.204.204 0 0 0 .054-.297 23 23 0 0 0-.38-.483l-.082-.103c-.222-.277-.494-.616-.765-.98-1.328-1.789-2.7-4.29-2.7-8.276 0-3.568 1.335-6.888 3.558-9.37.291-.325.162-.851-.267-.933a8.3 8.3 0 0 0-1.564-.147c-4.805 0-8.64 4.087-8.64 9.05 0 3.27 1.328 4.924 2.36 6.212.657.818 1.194 1.488 1.195 2.328l.002.013c-.003 1.345-1.705 2.145-3.654 3.06C4.052 29.3 1 30.734 1 33.965c0 3.045 2.244 4.632 5.06 5.46"></path><path fill="url(#FeatureTeamDark_svg__b)" d="M43.402 27.856c.877-.294 1.082-1.917 1.08-2.842l.002-.013c.001-.84.538-1.51 1.194-2.328 1.033-1.288 2.36-2.943 2.36-6.211 0-4.964-3.834-9.051-8.64-9.051q-.802 0-1.563.147c-.429.082-.558.608-.267.933a14.05 14.05 0 0 1 3.559 9.37c0 3.986-1.373 6.487-2.701 8.276a33 33 0 0 1-.765.98l-.082.103c-.154.191-.277.347-.38.483a.204.204 0 0 0 .055.297c.592.37 1.274.69 2.152 1.102.475.224 1.03.174 1.482-.095.788-.468 1.63-.856 2.514-1.151"></path><path stroke="#fff" stroke-opacity="0.05" stroke-width="0.5" d="M10.566 25.014v-.012l-.002-.013c-.007-.924-.591-1.652-1.216-2.431l-.033-.042C8.291 21.24 7.01 19.642 7.01 16.462c0-4.838 3.734-8.801 8.39-8.801q.778.001 1.516.143a.26.26 0 0 1 .21.195.35.35 0 0 1-.082.325 14.3 14.3 0 0 0-3.623 9.538c0 4.052 1.4 6.605 2.75 8.424.274.368.548.71.77.987h.001l.082.103c.139.173.25.314.345.438-.567.35-1.222.658-2.083 1.062-.426.2-.9.422-1.432.683-2.637 1.29-7.344 3.792-7.344 9.307 0 .228-.204.37-.38.318-1.387-.407-2.61-.996-3.482-1.838-.866-.835-1.398-1.928-1.398-3.38 0-1.522.713-2.624 1.763-3.507 1.06-.89 2.444-1.542 3.756-2.159l.016-.008c.962-.451 1.891-.888 2.58-1.384.691-.499 1.199-1.1 1.2-1.894Zm33.668-.025-.002.013v.012c.002.449-.048 1.06-.2 1.588-.158.548-.398.912-.71 1.017a13.2 13.2 0 0 0-2.562 1.174c-.387.23-.855.268-1.248.083-.86-.404-1.516-.712-2.083-1.062.094-.123.206-.265.345-.438l.082-.102v-.001c.223-.277.497-.619.77-.988 1.352-1.819 2.75-4.37 2.75-8.423 0-3.631-1.358-7.01-3.622-9.538a.35.35 0 0 1-.081-.325.26.26 0 0 1 .209-.195 8 8 0 0 1 1.517-.143c4.655 0 8.39 3.963 8.39 8.8 0 3.181-1.283 4.78-2.305 6.055l-.034.042c-.625.779-1.21 1.507-1.216 2.43z"></path><mask id="FeatureTeamDark_svg__d" fill="#fff"><path fill-rule="evenodd" d="M21.778 28.116v.008c-.003 1.614-2.046 2.574-4.384 3.672-3.132 1.472-6.794 3.193-6.794 7.07 0 7.64 11.78 7.633 16.978 7.63h.602c1.33 0 3.093.002 4.977-.125 1.367-.092 2.132-1.566 1.786-2.891a13 13 0 0 1-.42-3.291c0-2.363.63-4.58 1.733-6.489a2.607 2.607 0 0 0-.788-3.427c-.902-.61-1.487-1.286-1.488-2.149v-.008l.001-.007c.002-1.01.646-1.813 1.434-2.795 1.239-1.544 2.832-3.53 2.832-7.453C38.247 11.905 33.645 7 27.879 7s-10.368 4.905-10.368 10.861c0 3.922 1.593 5.909 2.832 7.453.788.982 1.432 1.786 1.434 2.795z" clip-rule="evenodd"></path></mask><path fill="url(#FeatureTeamDark_svg__c)" fill-rule="evenodd" d="M21.778 28.116v.008c-.003 1.614-2.046 2.574-4.384 3.672-3.132 1.472-6.794 3.193-6.794 7.07 0 7.64 11.78 7.633 16.978 7.63h.602c1.33 0 3.093.002 4.977-.125 1.367-.092 2.132-1.566 1.786-2.891a13 13 0 0 1-.42-3.291c0-2.363.63-4.58 1.733-6.489a2.607 2.607 0 0 0-.788-3.427c-.902-.61-1.487-1.286-1.488-2.149v-.008l.001-.007c.002-1.01.646-1.813 1.434-2.795 1.239-1.544 2.832-3.53 2.832-7.453C38.247 11.905 33.645 7 27.879 7s-10.368 4.905-10.368 10.861c0 3.922 1.593 5.909 2.832 7.453.788.982 1.432 1.786 1.434 2.795z" clip-rule="evenodd"></path><path fill="#fff" fill-opacity="0.1" d="M21.778 28.124h.5zm-4.384 3.672-.212-.452zm10.184 14.7v-.5zm.602 0v.5zm5.8-18.372.5-.001zm0-.005-.496-.06zm0-.003-.49-.097zm.001-.007-.5-.001zm1.434-2.795-.39-.312zM17.51 17.862h.5zm2.832 7.453.39-.312zm1.434 2.795h-.5zm13.69 2.164-.28.415zm-2.31 16.098-.033-.5zm1.786-2.891-.483.126zM22.278 28.125a.5.5 0 0 0-.01-.106l-.98.195a.5.5 0 0 1-.01-.091zm-4.671 4.124c1.155-.543 2.298-1.078 3.147-1.69s1.522-1.384 1.524-2.434l-1-.002c0 .564-.35 1.078-1.109 1.625-.757.546-1.804 1.04-2.987 1.596zM11.1 38.866c0-1.751.816-3.022 2.044-4.054 1.248-1.05 2.883-1.821 4.463-2.563l-.425-.905c-1.553.73-3.315 1.554-4.681 2.702-1.386 1.165-2.401 2.694-2.401 4.82zm16.477 7.13c-2.61.002-6.788.001-10.31-.932-1.758-.466-3.307-1.154-4.41-2.153-1.086-.983-1.757-2.283-1.757-4.045h-1c0 2.058.8 3.622 2.086 4.786 1.269 1.15 2.99 1.892 4.826 2.379 3.668.972 7.978.966 10.566.965zm.302 0h-.302v1h.302zm.302 0h-.302v1h.301zm4.943-.124c-1.866.126-3.612.125-4.943.124v1c1.329 0 3.106.002 5.01-.126zm2.303-2.519a12.5 12.5 0 0 1-.404-3.164h-1c0 1.18.152 2.325.437 3.417zm-.404-3.164c0-2.273.606-4.403 1.666-6.239l-.866-.5a13.44 13.44 0 0 0-1.8 6.739zM33.48 28.125c.002 1.122.771 1.928 1.708 2.563l.56-.829c-.866-.586-1.267-1.132-1.268-1.736zm.004-.065-.004.065 1-.002q0 .028-.004.056zm.006-.041-.006.04.992.12-.005.035zm-.009.09q0-.045.01-.09l.98.195a.6.6 0 0 0 .01-.104zm1.544-3.107c-.756.942-1.542 1.888-1.544 3.106l1 .002c.002-.8.505-1.461 1.324-2.483zm2.722-7.14c0 3.747-1.504 5.62-2.722 7.14l.78.625c1.26-1.57 2.942-3.67 2.942-7.766zM27.879 7.5c5.466 0 9.868 4.656 9.868 10.361h1c0-6.208-4.801-11.361-10.868-11.361zm-9.868 10.361c0-5.705 4.402-10.361 9.868-10.361v-1c-6.067 0-10.868 5.153-10.868 11.361zm2.722 7.14c-1.218-1.519-2.722-3.392-2.722-7.14h-1c0 4.097 1.683 6.196 2.942 7.766zm1.544 3.107c-.002-1.218-.788-2.164-1.544-3.106l-.78.625c.82 1.022 1.322 1.683 1.324 2.483zm-.01-.09q.01.047.01.09l-1 .002a.5.5 0 0 0 .01.104zM36.69 33.95c.798-1.383.382-3.195-.94-4.09l-.561.828a2.107 2.107 0 0 1 .635 2.762zM33.19 46.87c.872-.06 1.543-.563 1.933-1.23.386-.66.51-1.497.303-2.287l-.967.253c.14.535.053 1.099-.199 1.53-.248.423-.642.703-1.137.736z" mask="url(#FeatureTeamDark_svg__d)"></path><mask id="FeatureTeamDark_svg__f" fill="#fff"><path fill-rule="evenodd" d="M47.523 30.189a2.5 2.5 0 0 1 2.457 2.034c.553.17 1.08.397 1.577.672a2.501 2.501 0 0 1 3.409 3.54q.314.622.523 1.297a2.5 2.5 0 0 1 0 4.913 8.3 8.3 0 0 1-.585 1.416 2.5 2.5 0 0 1-3.508 3.508 8.3 8.3 0 0 1-1.416.585 2.5 2.5 0 0 1-4.913 0 8.3 8.3 0 0 1-1.297-.523 2.5 2.5 0 0 1-3.54-3.408 8.3 8.3 0 0 1-.672-1.578 2.5 2.5 0 0 1 0-4.913 8.3 8.3 0 0 1 .613-1.47 2.501 2.501 0 0 1 3.427-3.426 8.3 8.3 0 0 1 1.469-.613 2.5 2.5 0 0 1 2.456-2.034m0 12.5a2.5 2.5 0 1 0 0-5 2.5 2.5 0 0 0 0 5" clip-rule="evenodd"></path></mask><path fill="url(#FeatureTeamDark_svg__e)" fill-rule="evenodd" d="M47.523 30.189a2.5 2.5 0 0 1 2.457 2.034c.553.17 1.08.397 1.577.672a2.501 2.501 0 0 1 3.409 3.54q.314.622.523 1.297a2.5 2.5 0 0 1 0 4.913 8.3 8.3 0 0 1-.585 1.416 2.5 2.5 0 0 1-3.508 3.508 8.3 8.3 0 0 1-1.416.585 2.5 2.5 0 0 1-4.913 0 8.3 8.3 0 0 1-1.297-.523 2.5 2.5 0 0 1-3.54-3.408 8.3 8.3 0 0 1-.672-1.578 2.5 2.5 0 0 1 0-4.913 8.3 8.3 0 0 1 .613-1.47 2.501 2.501 0 0 1 3.427-3.426 8.3 8.3 0 0 1 1.469-.613 2.5 2.5 0 0 1 2.456-2.034m0 12.5a2.5 2.5 0 1 0 0-5 2.5 2.5 0 0 0 0 5" clip-rule="evenodd"></path><path fill="#fff" fill-opacity="0.1" d="m49.98 32.223-.491.093.056.296.288.09zm1.577.672-.242.437.264.147.253-.166zm3.139.324-.354.353zm.27 3.216-.407-.29-.176.246.136.27zm.523 1.297-.478.147.089.288.296.056zm0 4.913-.093-.49-.296.055-.09.288zm-.585 1.416-.442-.232-.15.285.197.254zm-3.508 3.508.307-.395-.254-.197-.285.15zm-1.416.585-.147-.478-.288.089-.056.297zm-4.913 0 .491-.093-.056-.296-.288-.089zm-1.297-.523.226-.446-.27-.137-.246.176zm-3.217-.27-.353.353zm-.323-3.138.418.274.166-.252-.147-.265zm-.672-1.578.478-.147-.089-.288-.296-.056zm0-4.913.093.491.296-.056.089-.288zm.613-1.47.44.237.134-.25-.144-.242zm.383-3.043-.354-.354zm3.044-.383-.256.43.243.144.248-.133zm1.469-.613.147.478.288-.089.056-.296zm5.405-.092a3 3 0 0 0-2.949-2.442v1a2 2 0 0 1 1.966 1.627zm1.328.327a8.8 8.8 0 0 0-1.673-.712l-.294.955c.519.16 1.015.373 1.482.631zm3.25.407a3 3 0 0 0-3.767-.388l.549.836a2 2 0 0 1 2.51.26zm.323 3.86a3 3 0 0 0-.324-3.86l-.707.707a2 2 0 0 1 .217 2.573zm.594.86a9 9 0 0 0-.555-1.375l-.893.45q.296.585.492 1.22zm2.056 2.604a3 3 0 0 0-2.442-2.948l-.185.982a2 2 0 0 1 1.627 1.966zm-2.442 2.948a3 3 0 0 0 2.442-2.948h-1a2 2 0 0 1-1.627 1.965zm-.234 1.157q.376-.715.62-1.501l-.956-.295a8 8 0 0 1-.55 1.33zm-.298 3.42a3 3 0 0 0 .25-3.96l-.79.614a2 2 0 0 1-.167 2.64zm-3.96.25a3 3 0 0 0 3.96-.25l-.707-.707a2 2 0 0 1-2.639.168zm-.962.668a9 9 0 0 0 1.502-.62l-.465-.885a8 8 0 0 1-1.331.55zm-2.604 2.057a3 3 0 0 0 2.949-2.443l-.983-.184a2 2 0 0 1-1.966 1.627zm-2.948-2.443a3 3 0 0 0 2.948 2.443v-1a2 2 0 0 1-1.965-1.627zm-1.03-.169q.659.334 1.374.555l.295-.956a8 8 0 0 1-1.218-.491zm-3.345-.363a3 3 0 0 0 3.86.324l-.58-.814a2 2 0 0 1-2.573-.217zm-.388-3.766a3 3 0 0 0 .388 3.766l.707-.707a2 2 0 0 1-.26-2.51zm-.732-1.155q.272.88.712 1.672l.875-.485a7.8 7.8 0 0 1-.631-1.482zm-2.057-2.604a3 3 0 0 0 2.443 2.948l.185-.983a2 2 0 0 1-1.628-1.965zm2.443-2.948a3 3 0 0 0-2.443 2.948h1a2 2 0 0 1 1.628-1.966zm.264-1.214a9 9 0 0 0-.65 1.558l.956.294q.224-.723.576-1.38zm.47-3.162a3 3 0 0 0-.459 3.653l.86-.51a2 2 0 0 1 .306-2.436zm3.653-.459a3 3 0 0 0-3.653.46l.707.706a2 2 0 0 1 2.435-.306zm1.066-.66a9 9 0 0 0-1.557.65l.471.881a8 8 0 0 1 1.38-.576zm2.604-2.057a3 3 0 0 0-2.948 2.442l.983.185a2 2 0 0 1 1.965-1.627zm2 10.5a2 2 0 0 1-2 2v1a3 3 0 0 0 3-3zm-2-2a2 2 0 0 1 2 2h1a3 3 0 0 0-3-3zm-2 2a2 2 0 0 1 2-2v-1a3 3 0 0 0-3 3zm2 2a2 2 0 0 1-2-2h-1a3 3 0 0 0 3 3z" mask="url(#FeatureTeamDark_svg__f)"></path><defs><linearGradient id="FeatureTeamDark_svg__a" x1="24.519" x2="24.519" y1="7.411" y2="39.446" gradientUnits="userSpaceOnUse"><stop stop-color="#353535"></stop><stop offset="1" stop-color="#484848"></stop></linearGradient><linearGradient id="FeatureTeamDark_svg__b" x1="24.519" x2="24.519" y1="7.411" y2="39.446" gradientUnits="userSpaceOnUse"><stop stop-color="#353535"></stop><stop offset="1" stop-color="#484848"></stop></linearGradient><linearGradient id="FeatureTeamDark_svg__c" x1="24.423" x2="24.423" y1="7" y2="46.496" gradientUnits="userSpaceOnUse"><stop stop-color="#5B5B5B"></stop><stop offset="1" stop-color="#474747"></stop></linearGradient><linearGradient id="FeatureTeamDark_svg__e" x1="47.523" x2="47.523" y1="30.189" y2="50.189" gradientUnits="userSpaceOnUse"><stop stop-color="#8C18E8"></stop><stop offset="0.979" stop-color="#C35DE7"></stop><stop offset="1" stop-color="#EE9D6F"></stop></linearGradient></defs></svg>