<svg xmlns="http://www.w3.org/2000/svg" fill="none" viewBox="0 0 34 39"><g filter="url(#BankCompactDark_svg__a)"><mask id="BankCompactDark_svg__c" width="30" height="29" x="2" y="1.172" fill="#000" maskUnits="userSpaceOnUse"><path fill="#fff" d="M2 1.172h30v29H2z"></path><path d="M30 27.828a1 1 0 0 1 0 2H4a1 1 0 0 1 0-2zm-2-3a1 1 0 0 1 0 2H6a1 1 0 0 1 0-2zm-17.25-12a.75.75 0 0 1 .75.75v.25a.5.5 0 0 1-.5.5.5.5 0 0 0-.5.5v6.5a.5.5 0 0 0 .5.5.5.5 0 0 1 .5.5v.25a.75.75 0 0 1-.75.75h-3.5a.75.75 0 0 1-.75-.75v-.25a.5.5 0 0 1 .5-.5.5.5 0 0 0 .5-.5v-6.5a.5.5 0 0 0-.5-.5.5.5 0 0 1-.5-.5v-.25a.75.75 0 0 1 .75-.75zm8 0a.75.75 0 0 1 .75.75v.25a.5.5 0 0 1-.5.5.5.5 0 0 0-.5.5v6.5a.5.5 0 0 0 .5.5.5.5 0 0 1 .5.5v.25a.75.75 0 0 1-.75.75h-3.5a.75.75 0 0 1-.75-.75v-.25a.5.5 0 0 1 .5-.5.5.5 0 0 0 .5-.5v-6.5a.5.5 0 0 0-.5-.5.5.5 0 0 1-.5-.5v-.25a.75.75 0 0 1 .75-.75zm8 0a.75.75 0 0 1 .75.75v.25a.5.5 0 0 1-.5.5.5.5 0 0 0-.5.5v6.5a.5.5 0 0 0 .5.5.5.5 0 0 1 .5.5v.25a.75.75 0 0 1-.75.75h-3.5a.75.75 0 0 1-.75-.75v-.25a.5.5 0 0 1 .5-.5.5.5 0 0 0 .5-.5v-6.5a.5.5 0 0 0-.5-.5.5.5 0 0 1-.5-.5v-.25a.75.75 0 0 1 .75-.75zM15.848 2.472c.716-.4 1.589-.4 2.305 0l11.92 6.66c1.053.59.635 2.196-.573 2.196h-25c-1.208 0-1.626-1.606-.571-2.196z"></path></mask><path fill="url(#BankCompactDark_svg__b)" d="M30 27.828a1 1 0 0 1 0 2H4a1 1 0 0 1 0-2zm-2-3a1 1 0 0 1 0 2H6a1 1 0 0 1 0-2zm-17.25-12a.75.75 0 0 1 .75.75v.25a.5.5 0 0 1-.5.5.5.5 0 0 0-.5.5v6.5a.5.5 0 0 0 .5.5.5.5 0 0 1 .5.5v.25a.75.75 0 0 1-.75.75h-3.5a.75.75 0 0 1-.75-.75v-.25a.5.5 0 0 1 .5-.5.5.5 0 0 0 .5-.5v-6.5a.5.5 0 0 0-.5-.5.5.5 0 0 1-.5-.5v-.25a.75.75 0 0 1 .75-.75zm8 0a.75.75 0 0 1 .75.75v.25a.5.5 0 0 1-.5.5.5.5 0 0 0-.5.5v6.5a.5.5 0 0 0 .5.5.5.5 0 0 1 .5.5v.25a.75.75 0 0 1-.75.75h-3.5a.75.75 0 0 1-.75-.75v-.25a.5.5 0 0 1 .5-.5.5.5 0 0 0 .5-.5v-6.5a.5.5 0 0 0-.5-.5.5.5 0 0 1-.5-.5v-.25a.75.75 0 0 1 .75-.75zm8 0a.75.75 0 0 1 .75.75v.25a.5.5 0 0 1-.5.5.5.5 0 0 0-.5.5v6.5a.5.5 0 0 0 .5.5.5.5 0 0 1 .5.5v.25a.75.75 0 0 1-.75.75h-3.5a.75.75 0 0 1-.75-.75v-.25a.5.5 0 0 1 .5-.5.5.5 0 0 0 .5-.5v-6.5a.5.5 0 0 0-.5-.5.5.5 0 0 1-.5-.5v-.25a.75.75 0 0 1 .75-.75zM15.848 2.472c.716-.4 1.589-.4 2.305 0l11.92 6.66c1.053.59.635 2.196-.573 2.196h-25c-1.208 0-1.626-1.606-.571-2.196z"></path><path fill="#000" d="M31 28.828h.3zm-27 1v.3zm-1-1h-.3zm1-1v-.3zm25-2h.3zm-23 1v.3zm-1-1h-.3zm1-1v-.3zm4.75-12v-.3zm.75.75h.3zm0 .25h.3zm-.5.5v-.3zm-.5.5h-.3zm0 6.5h-.3zm.5.5v.3zm.5.5h.3zm0 .25h.3zm-.75.75v.3zm-3.5 0v.3zm-.75-.75h-.3zm0-.25h-.3zm.5-.5v-.3zm.5-.5h.3zm0-6.5h.3zm-.5-.5v.3zm-.5-.5h-.3zm0-.25h-.3zm.75-.75v-.3zm12.25.75h.3zm0 .25h.3zm-.5.5v-.3zm-.5.5h-.3zm0 6.5h-.3zm.5.5v.3zm.5.5h.3zm0 .25h.3zm-.75.75v.3zm-3.5 0v.3zm-.75-.75h-.3zm0-.25h-.3zm.5-.5v-.3zm.5-.5h.3zm0-6.5h.3zm-.5-.5v.3zm-.5-.5h-.3zm0-.25h-.3zm.75-.75v-.3zm12.25.75h.3zm0 .25h.3zm-.5.5v-.3zm-.5.5h-.3zm0 6.5h-.3zm.5.5v.3zm.5.5h.3zm0 .25h.3zm-.75.75v.3zm-3.5 0v.3zm-.75-.75h-.3zm0-.25h-.3zm.5-.5v-.3zm.5-.5h.3zm0-6.5h.3zm-.5-.5v.3zm-.5-.5h-.3zm0-.25h-.3zm.75-.75v-.3zM15.848 2.472 15.7 2.21l.147.262Zm2.305 0-.146.262zm11.92 6.66.146-.262zm-.573 2.196v-.3zm-25 0v.3zm-.571-2.196-.147-.262zM30 27.828v.3a.7.7 0 0 1 .7.7h.6a1.3 1.3 0 0 0-1.3-1.3zm1 1h-.3a.7.7 0 0 1-.7.7v.6a1.3 1.3 0 0 0 1.3-1.3zm-1 1v-.3H4v.6h26zm-26 0v-.3a.7.7 0 0 1-.7-.7h-.6a1.3 1.3 0 0 0 1.3 1.3zm-1-1h.3a.7.7 0 0 1 .7-.7v-.6a1.3 1.3 0 0 0-1.3 1.3zm1-1v.3h26v-.6H4zm24-3v.3a.7.7 0 0 1 .7.7h.6a1.3 1.3 0 0 0-1.3-1.3zm1 1h-.3a.7.7 0 0 1-.7.7v.6a1.3 1.3 0 0 0 1.3-1.3zm-1 1v-.3H6v.6h22zm-22 0v-.3a.7.7 0 0 1-.7-.7h-.6a1.3 1.3 0 0 0 1.3 1.3zm-1-1h.3a.7.7 0 0 1 .7-.7v-.6a1.3 1.3 0 0 0-1.3 1.3zm1-1v.3h22v-.6H6zm4.75-12v.3a.45.45 0 0 1 .45.45h.6c0-.58-.47-1.05-1.05-1.05zm.75.75h-.3v.25h.6v-.25zm0 .25h-.3a.2.2 0 0 1-.2.2v.6a.8.8 0 0 0 .8-.8zm-.5.5v-.3a.8.8 0 0 0-.8.8h.6c0-.11.09-.2.2-.2zm-.5.5h-.3v6.5h.6v-6.5zm0 6.5h-.3a.8.8 0 0 0 .8.8v-.6a.2.2 0 0 1-.2-.2zm.5.5v.3c.11 0 .2.09.2.2h.6a.8.8 0 0 0-.8-.8zm.5.5h-.3v.25h.6v-.25zm0 .25h-.3a.45.45 0 0 1-.45.45v.6c.58 0 1.05-.47 1.05-1.05zm-.75.75v-.3h-3.5v.6h3.5zm-3.5 0v-.3a.45.45 0 0 1-.45-.45h-.6c0 .58.47 1.05 1.05 1.05zm-.75-.75h.3v-.25h-.6v.25zm0-.25h.3c0-.11.09-.2.2-.2v-.6a.8.8 0 0 0-.8.8zm.5-.5v.3a.8.8 0 0 0 .8-.8h-.6a.2.2 0 0 1-.2.2zm.5-.5h.3v-6.5h-.6v6.5zm0-6.5h.3a.8.8 0 0 0-.8-.8v.6c.11 0 .2.09.2.2zm-.5-.5v-.3a.2.2 0 0 1-.2-.2h-.6a.8.8 0 0 0 .8.8zm-.5-.5h.3v-.25h-.6v.25zm0-.25h.3a.45.45 0 0 1 .45-.45v-.6c-.58 0-1.05.47-1.05 1.05zm.75-.75v.3h3.5v-.6h-3.5zm11.5 0v.3a.45.45 0 0 1 .45.45h.6c0-.58-.47-1.05-1.05-1.05zm.75.75h-.3v.25h.6v-.25zm0 .25h-.3a.2.2 0 0 1-.2.2v.6a.8.8 0 0 0 .8-.8zm-.5.5v-.3a.8.8 0 0 0-.8.8h.6c0-.11.09-.2.2-.2zm-.5.5h-.3v6.5h.6v-6.5zm0 6.5h-.3a.8.8 0 0 0 .8.8v-.6a.2.2 0 0 1-.2-.2zm.5.5v.3c.11 0 .2.09.2.2h.6a.8.8 0 0 0-.8-.8zm.5.5h-.3v.25h.6v-.25zm0 .25h-.3a.45.45 0 0 1-.45.45v.6c.58 0 1.05-.47 1.05-1.05zm-.75.75v-.3h-3.5v.6h3.5zm-3.5 0v-.3a.45.45 0 0 1-.45-.45h-.6c0 .58.47 1.05 1.05 1.05zm-.75-.75h.3v-.25h-.6v.25zm0-.25h.3c0-.11.09-.2.2-.2v-.6a.8.8 0 0 0-.8.8zm.5-.5v.3a.8.8 0 0 0 .8-.8h-.6a.2.2 0 0 1-.2.2zm.5-.5h.3v-6.5h-.6v6.5zm0-6.5h.3a.8.8 0 0 0-.8-.8v.6c.11 0 .2.09.2.2zm-.5-.5v-.3a.2.2 0 0 1-.2-.2h-.6a.8.8 0 0 0 .8.8zm-.5-.5h.3v-.25h-.6v.25zm0-.25h.3a.45.45 0 0 1 .45-.45v-.6c-.58 0-1.05.47-1.05 1.05zm.75-.75v.3h3.5v-.6h-3.5zm11.5 0v.3a.45.45 0 0 1 .45.45h.6c0-.58-.47-1.05-1.05-1.05zm.75.75h-.3v.25h.6v-.25zm0 .25h-.3a.2.2 0 0 1-.2.2v.6a.8.8 0 0 0 .8-.8zm-.5.5v-.3a.8.8 0 0 0-.8.8h.6c0-.11.09-.2.2-.2zm-.5.5h-.3v6.5h.6v-6.5zm0 6.5h-.3a.8.8 0 0 0 .8.8v-.6a.2.2 0 0 1-.2-.2zm.5.5v.3c.11 0 .2.09.2.2h.6a.8.8 0 0 0-.8-.8zm.5.5h-.3v.25h.6v-.25zm0 .25h-.3a.45.45 0 0 1-.45.45v.6c.58 0 1.05-.47 1.05-1.05zm-.75.75v-.3h-3.5v.6h3.5zm-3.5 0v-.3a.45.45 0 0 1-.45-.45h-.6c0 .58.47 1.05 1.05 1.05zm-.75-.75h.3v-.25h-.6v.25zm0-.25h.3c0-.11.09-.2.2-.2v-.6a.8.8 0 0 0-.8.8zm.5-.5v.3a.8.8 0 0 0 .8-.8h-.6a.2.2 0 0 1-.2.2zm.5-.5h.3v-6.5h-.6v6.5zm0-6.5h.3a.8.8 0 0 0-.8-.8v.6c.11 0 .2.09.2.2zm-.5-.5v-.3a.2.2 0 0 1-.2-.2h-.6a.8.8 0 0 0 .8.8zm-.5-.5h.3v-.25h-.6v.25zm0-.25h.3a.45.45 0 0 1 .45-.45v-.6c-.58 0-1.05.47-1.05 1.05zm.75-.75v.3h3.5v-.6h-3.5zM15.848 2.472l.146.262a2.06 2.06 0 0 1 2.013 0l.146-.262.147-.262a2.66 2.66 0 0 0-2.599 0zm2.305 0-.146.262 11.919 6.66.146-.262.147-.262-11.92-6.66zm11.92 6.66-.147.262c.784.438.473 1.634-.426 1.634v.6c1.517 0 2.043-2.017.719-2.758zm-.573 2.196v-.3h-25v.6h25zm-25 0v-.3c-.898 0-1.21-1.195-.425-1.634l-.146-.262-.147-.262c-1.324.74-.799 2.757.718 2.758zm-.571-2.196.146.262 11.919-6.66-.146-.262-.147-.262L3.782 8.87z" mask="url(#BankCompactDark_svg__c)"></path></g><mask id="BankCompactDark_svg__e" fill="#fff"><path d="M30 27.828a1 1 0 0 1 0 2H4a1 1 0 0 1 0-2zm-2-3a1 1 0 0 1 0 2H6a1 1 0 0 1 0-2zm-17.25-12a.75.75 0 0 1 .75.75v.25a.5.5 0 0 1-.5.5.5.5 0 0 0-.5.5v6.5a.5.5 0 0 0 .5.5.5.5 0 0 1 .5.5v.25a.75.75 0 0 1-.75.75h-3.5a.75.75 0 0 1-.75-.75v-.25a.5.5 0 0 1 .5-.5.5.5 0 0 0 .5-.5v-6.5a.5.5 0 0 0-.5-.5.5.5 0 0 1-.5-.5v-.25a.75.75 0 0 1 .75-.75zm8 0a.75.75 0 0 1 .75.75v.25a.5.5 0 0 1-.5.5.5.5 0 0 0-.5.5v6.5a.5.5 0 0 0 .5.5.5.5 0 0 1 .5.5v.25a.75.75 0 0 1-.75.75h-3.5a.75.75 0 0 1-.75-.75v-.25a.5.5 0 0 1 .5-.5.5.5 0 0 0 .5-.5v-6.5a.5.5 0 0 0-.5-.5.5.5 0 0 1-.5-.5v-.25a.75.75 0 0 1 .75-.75zm8 0a.75.75 0 0 1 .75.75v.25a.5.5 0 0 1-.5.5.5.5 0 0 0-.5.5v6.5a.5.5 0 0 0 .5.5.5.5 0 0 1 .5.5v.25a.75.75 0 0 1-.75.75h-3.5a.75.75 0 0 1-.75-.75v-.25a.5.5 0 0 1 .5-.5.5.5 0 0 0 .5-.5v-6.5a.5.5 0 0 0-.5-.5.5.5 0 0 1-.5-.5v-.25a.75.75 0 0 1 .75-.75zM15.848 2.472c.716-.4 1.589-.4 2.305 0l11.92 6.66c1.053.59.635 2.196-.573 2.196h-25c-1.208 0-1.626-1.607-.571-2.196z"></path></mask><path fill="url(#BankCompactDark_svg__d)" fill-opacity="0.2" d="M31 28.828h.3zm-27 1v.3zm-1-1h-.3zm1-1v-.3zm25-2h.3zm-23 1v.3zm-1-1h-.3zm1-1v-.3zm4.75-12v-.3zm.75.75h.3zm0 .25h.3zm-.5.5v-.3zm-.5.5h-.3zm0 6.5h-.3zm.5.5v.3zm.5.5h.3zm0 .25h.3zm-.75.75v.3zm-3.5 0v.3zm-.75-.75h-.3zm0-.25h-.3zm.5-.5v-.3zm.5-.5h.3zm0-6.5h.3zm-.5-.5v.3zm-.5-.5h-.3zm0-.25h-.3zm.75-.75v-.3zm12.25.75h.3zm0 .25h.3zm-.5.5v-.3zm-.5.5h-.3zm0 6.5h-.3zm.5.5v.3zm.5.5h.3zm0 .25h.3zm-.75.75v.3zm-3.5 0v.3zm-.75-.75h-.3zm0-.25h-.3zm.5-.5v-.3zm.5-.5h.3zm0-6.5h.3zm-.5-.5v.3zm-.5-.5h-.3zm0-.25h-.3zm.75-.75v-.3zm12.25.75h.3zm0 .25h.3zm-.5.5v-.3zm-.5.5h-.3zm0 6.5h-.3zm.5.5v.3zm.5.5h.3zm0 .25h.3zm-.75.75v.3zm-3.5 0v.3zm-.75-.75h-.3zm0-.25h-.3zm.5-.5v-.3zm.5-.5h.3zm0-6.5h.3zm-.5-.5v.3zm-.5-.5h-.3zm0-.25h-.3zm.75-.75v-.3zM15.848 2.472 15.7 2.21l.147.262Zm2.305 0-.146.262zm11.92 6.66.146-.262zm-.573 2.196v-.3zm-25 0v.3zm-.571-2.196-.147-.262zM30 27.828v.3a.7.7 0 0 1 .7.7h.6a1.3 1.3 0 0 0-1.3-1.3zm1 1h-.3a.7.7 0 0 1-.7.7v.6a1.3 1.3 0 0 0 1.3-1.3zm-1 1v-.3H4v.6h26zm-26 0v-.3a.7.7 0 0 1-.7-.7h-.6a1.3 1.3 0 0 0 1.3 1.3zm-1-1h.3a.7.7 0 0 1 .7-.7v-.6a1.3 1.3 0 0 0-1.3 1.3zm1-1v.3h26v-.6H4zm24-3v.3a.7.7 0 0 1 .7.7h.6a1.3 1.3 0 0 0-1.3-1.3zm1 1h-.3a.7.7 0 0 1-.7.7v.6a1.3 1.3 0 0 0 1.3-1.3zm-1 1v-.3H6v.6h22zm-22 0v-.3a.7.7 0 0 1-.7-.7h-.6a1.3 1.3 0 0 0 1.3 1.3zm-1-1h.3a.7.7 0 0 1 .7-.7v-.6a1.3 1.3 0 0 0-1.3 1.3zm1-1v.3h22v-.6H6zm4.75-12v.3a.45.45 0 0 1 .45.45h.6c0-.58-.47-1.05-1.05-1.05zm.75.75h-.3v.25h.6v-.25zm0 .25h-.3a.2.2 0 0 1-.2.2v.6a.8.8 0 0 0 .8-.8zm-.5.5v-.3a.8.8 0 0 0-.8.8h.6c0-.11.09-.2.2-.2zm-.5.5h-.3v6.5h.6v-6.5zm0 6.5h-.3a.8.8 0 0 0 .8.8v-.6a.2.2 0 0 1-.2-.2zm.5.5v.3c.11 0 .2.09.2.2h.6a.8.8 0 0 0-.8-.8zm.5.5h-.3v.25h.6v-.25zm0 .25h-.3a.45.45 0 0 1-.45.45v.6c.58 0 1.05-.47 1.05-1.05zm-.75.75v-.3h-3.5v.6h3.5zm-3.5 0v-.3a.45.45 0 0 1-.45-.45h-.6c0 .58.47 1.05 1.05 1.05zm-.75-.75h.3v-.25h-.6v.25zm0-.25h.3c0-.11.09-.2.2-.2v-.6a.8.8 0 0 0-.8.8zm.5-.5v.3a.8.8 0 0 0 .8-.8h-.6a.2.2 0 0 1-.2.2zm.5-.5h.3v-6.5h-.6v6.5zm0-6.5h.3a.8.8 0 0 0-.8-.8v.6c.11 0 .2.09.2.2zm-.5-.5v-.3a.2.2 0 0 1-.2-.2h-.6a.8.8 0 0 0 .8.8zm-.5-.5h.3v-.25h-.6v.25zm0-.25h.3a.45.45 0 0 1 .45-.45v-.6c-.58 0-1.05.47-1.05 1.05zm.75-.75v.3h3.5v-.6h-3.5zm11.5 0v.3a.45.45 0 0 1 .45.45h.6c0-.58-.47-1.05-1.05-1.05zm.75.75h-.3v.25h.6v-.25zm0 .25h-.3a.2.2 0 0 1-.2.2v.6a.8.8 0 0 0 .8-.8zm-.5.5v-.3a.8.8 0 0 0-.8.8h.6c0-.11.09-.2.2-.2zm-.5.5h-.3v6.5h.6v-6.5zm0 6.5h-.3a.8.8 0 0 0 .8.8v-.6a.2.2 0 0 1-.2-.2zm.5.5v.3c.11 0 .2.09.2.2h.6a.8.8 0 0 0-.8-.8zm.5.5h-.3v.25h.6v-.25zm0 .25h-.3a.45.45 0 0 1-.45.45v.6c.58 0 1.05-.47 1.05-1.05zm-.75.75v-.3h-3.5v.6h3.5zm-3.5 0v-.3a.45.45 0 0 1-.45-.45h-.6c0 .58.47 1.05 1.05 1.05zm-.75-.75h.3v-.25h-.6v.25zm0-.25h.3c0-.11.09-.2.2-.2v-.6a.8.8 0 0 0-.8.8zm.5-.5v.3a.8.8 0 0 0 .8-.8h-.6a.2.2 0 0 1-.2.2zm.5-.5h.3v-6.5h-.6v6.5zm0-6.5h.3a.8.8 0 0 0-.8-.8v.6c.11 0 .2.09.2.2zm-.5-.5v-.3a.2.2 0 0 1-.2-.2h-.6a.8.8 0 0 0 .8.8zm-.5-.5h.3v-.25h-.6v.25zm0-.25h.3a.45.45 0 0 1 .45-.45v-.6c-.58 0-1.05.47-1.05 1.05zm.75-.75v.3h3.5v-.6h-3.5zm11.5 0v.3a.45.45 0 0 1 .45.45h.6c0-.58-.47-1.05-1.05-1.05zm.75.75h-.3v.25h.6v-.25zm0 .25h-.3a.2.2 0 0 1-.2.2v.6a.8.8 0 0 0 .8-.8zm-.5.5v-.3a.8.8 0 0 0-.8.8h.6c0-.11.09-.2.2-.2zm-.5.5h-.3v6.5h.6v-6.5zm0 6.5h-.3a.8.8 0 0 0 .8.8v-.6a.2.2 0 0 1-.2-.2zm.5.5v.3c.11 0 .2.09.2.2h.6a.8.8 0 0 0-.8-.8zm.5.5h-.3v.25h.6v-.25zm0 .25h-.3a.45.45 0 0 1-.45.45v.6c.58 0 1.05-.47 1.05-1.05zm-.75.75v-.3h-3.5v.6h3.5zm-3.5 0v-.3a.45.45 0 0 1-.45-.45h-.6c0 .58.47 1.05 1.05 1.05zm-.75-.75h.3v-.25h-.6v.25zm0-.25h.3c0-.11.09-.2.2-.2v-.6a.8.8 0 0 0-.8.8zm.5-.5v.3a.8.8 0 0 0 .8-.8h-.6a.2.2 0 0 1-.2.2zm.5-.5h.3v-6.5h-.6v6.5zm0-6.5h.3a.8.8 0 0 0-.8-.8v.6c.11 0 .2.09.2.2zm-.5-.5v-.3a.2.2 0 0 1-.2-.2h-.6a.8.8 0 0 0 .8.8zm-.5-.5h.3v-.25h-.6v.25zm0-.25h.3a.45.45 0 0 1 .45-.45v-.6c-.58 0-1.05.47-1.05 1.05zm.75-.75v.3h3.5v-.6h-3.5zM15.848 2.472l.146.262a2.06 2.06 0 0 1 2.013 0l.146-.262.147-.262a2.66 2.66 0 0 0-2.599 0zm2.305 0-.146.262 11.919 6.66.146-.262.147-.262-11.92-6.66zm11.92 6.66-.147.262c.784.438.473 1.634-.426 1.634v.6c1.517 0 2.043-2.017.719-2.758zm-.573 2.196v-.3h-25v.6h25zm-25 0v-.3c-.898 0-1.21-1.195-.425-1.634l-.146-.262-.147-.262c-1.324.74-.799 2.757.718 2.758zm-.571-2.196.146.262 11.919-6.66-.146-.262-.147-.262L3.782 8.87z" mask="url(#BankCompactDark_svg__e)"></path><defs><linearGradient id="BankCompactDark_svg__b" x1="17" x2="17" y1="2.172" y2="29.828" gradientUnits="userSpaceOnUse"><stop stop-color="#4F4F4F"></stop><stop offset="1" stop-color="#363636"></stop></linearGradient><linearGradient id="BankCompactDark_svg__d" x1="17" x2="17" y1="2.172" y2="30.172" gradientUnits="userSpaceOnUse"><stop stop-color="#fff"></stop><stop offset="1" stop-color="#fff" stop-opacity="0.5"></stop></linearGradient><filter id="BankCompactDark_svg__a" width="32.6" height="37.255" x="0.7" y="0.872" color-interpolation-filters="sRGB" filterUnits="userSpaceOnUse"><feFlood flood-opacity="0" result="BackgroundImageFix"></feFlood><feColorMatrix in="SourceAlpha" result="hardAlpha" values="0 0 0 0 0 0 0 0 0 0 0 0 0 0 0 0 0 0 127 0"></feColorMatrix><feOffset></feOffset><feGaussianBlur stdDeviation="0.5"></feGaussianBlur><feColorMatrix values="0 0 0 0 0 0 0 0 0 0 0 0 0 0 0 0 0 0 0.07 0"></feColorMatrix><feBlend in2="BackgroundImageFix" result="effect1_dropShadow_8840_2536"></feBlend><feColorMatrix in="SourceAlpha" result="hardAlpha" values="0 0 0 0 0 0 0 0 0 0 0 0 0 0 0 0 0 0 127 0"></feColorMatrix><feOffset dy="1"></feOffset><feGaussianBlur stdDeviation="0.5"></feGaussianBlur><feColorMatrix values="0 0 0 0 0 0 0 0 0 0 0 0 0 0 0 0 0 0 0.06 0"></feColorMatrix><feBlend in2="effect1_dropShadow_8840_2536" result="effect2_dropShadow_8840_2536"></feBlend><feColorMatrix in="SourceAlpha" result="hardAlpha" values="0 0 0 0 0 0 0 0 0 0 0 0 0 0 0 0 0 0 127 0"></feColorMatrix><feOffset dy="3"></feOffset><feGaussianBlur stdDeviation="1"></feGaussianBlur><feColorMatrix values="0 0 0 0 0 0 0 0 0 0 0 0 0 0 0 0 0 0 0.04 0"></feColorMatrix><feBlend in2="effect2_dropShadow_8840_2536" result="effect3_dropShadow_8840_2536"></feBlend><feColorMatrix in="SourceAlpha" result="hardAlpha" values="0 0 0 0 0 0 0 0 0 0 0 0 0 0 0 0 0 0 127 0"></feColorMatrix><feOffset dy="6"></feOffset><feGaussianBlur stdDeviation="1"></feGaussianBlur><feColorMatrix values="0 0 0 0 0 0 0 0 0 0 0 0 0 0 0 0 0 0 0.01 0"></feColorMatrix><feBlend in2="effect3_dropShadow_8840_2536" result="effect4_dropShadow_8840_2536"></feBlend><feBlend in="SourceGraphic" in2="effect4_dropShadow_8840_2536" result="shape"></feBlend></filter></defs></svg>