<svg xmlns="http://www.w3.org/2000/svg" fill="none" viewBox="0 0 50 56"><g filter="url(#CalendarCardDark_svg__a)"><rect width="48" height="48" x="1" y="7" fill="url(#CalendarCardDark_svg__b)" rx="12"></rect><rect width="48" height="48" x="1" y="7" fill="url(#CalendarCardDark_svg__c)" rx="12"></rect></g><rect width="48.5" height="48.5" x="0.75" y="6.75" stroke="url(#CalendarCardDark_svg__d)" stroke-opacity="0.2" stroke-width="0.5" rx="12.25"></rect><path fill="url(#CalendarCardDark_svg__e)" d="M24.5 45q-3.276-.012-5.637-1.617-2.349-1.604-3.619-4.646-1.257-3.042-1.244-7.32 0-4.264 1.257-7.269 1.27-3.004 3.618-4.57Q21.237 18 24.5 18t5.612 1.578q2.362 1.579 3.63 4.583 1.27 2.992 1.258 7.256 0 4.29-1.27 7.333-1.257 3.042-3.605 4.646Q27.776 45.001 24.5 45m0-4.57q2.235 0 3.568-2.253t1.32-6.76q0-2.965-.61-4.939-.596-1.973-1.7-2.966a3.7 3.7 0 0 0-2.578-.993q-2.222 0-3.555 2.228-1.333 2.227-1.346 6.67 0 3.005.597 5.016.61 1.999 1.714 3.004a3.75 3.75 0 0 0 2.59.993"></path><rect width="6" height="13" x="10" y="1" fill="url(#CalendarCardDark_svg__f)" rx="3"></rect><rect width="6.5" height="13.5" x="9.75" y="0.75" stroke="#000" stroke-opacity="0.1" stroke-width="0.5" rx="3.25"></rect><rect width="6" height="13" x="34" y="1" fill="url(#CalendarCardDark_svg__g)" rx="3"></rect><rect width="6.5" height="13.5" x="33.75" y="0.75" stroke="#000" stroke-opacity="0.1" stroke-width="0.5" rx="3.25"></rect><defs><linearGradient id="CalendarCardDark_svg__b" x1="24.454" x2="24.454" y1="12.87" y2="49.82" gradientUnits="userSpaceOnUse"><stop stop-color="#DEDEDE"></stop><stop offset="1" stop-color="#EDEDED"></stop></linearGradient><linearGradient id="CalendarCardDark_svg__c" x1="25" x2="25" y1="7" y2="55" gradientUnits="userSpaceOnUse"><stop stop-color="#353535"></stop><stop offset="1" stop-color="#484848"></stop></linearGradient><linearGradient id="CalendarCardDark_svg__d" x1="25" x2="25" y1="7" y2="55" gradientUnits="userSpaceOnUse"><stop stop-opacity="0.5"></stop><stop offset="1"></stop></linearGradient><linearGradient id="CalendarCardDark_svg__e" x1="24.5" x2="24.5" y1="18" y2="45" gradientUnits="userSpaceOnUse"><stop stop-color="#111"></stop><stop offset="1" stop-color="#1F1F1F"></stop></linearGradient><linearGradient id="CalendarCardDark_svg__f" x1="13" x2="13" y1="1" y2="14" gradientUnits="userSpaceOnUse"><stop stop-color="#5B5B5B"></stop><stop offset="1" stop-color="#474747"></stop></linearGradient><linearGradient id="CalendarCardDark_svg__g" x1="37" x2="37" y1="1" y2="14" gradientUnits="userSpaceOnUse"><stop stop-color="#5B5B5B"></stop><stop offset="1" stop-color="#474747"></stop></linearGradient><filter id="CalendarCardDark_svg__a" width="49" height="51" x="0.5" y="5.5" color-interpolation-filters="sRGB" filterUnits="userSpaceOnUse"><feFlood flood-opacity="0" result="BackgroundImageFix"></feFlood><feBlend in="SourceGraphic" in2="BackgroundImageFix" result="shape"></feBlend><feColorMatrix in="SourceAlpha" result="hardAlpha" values="0 0 0 0 0 0 0 0 0 0 0 0 0 0 0 0 0 0 127 0"></feColorMatrix><feOffset dy="1"></feOffset><feGaussianBlur stdDeviation="0.5"></feGaussianBlur><feComposite in2="hardAlpha" k2="-1" k3="1" operator="arithmetic"></feComposite><feColorMatrix values="0 0 0 0 0 0 0 0 0 0 0 0 0 0 0 0 0 0 0.05 0"></feColorMatrix><feBlend in2="shape" result="effect1_innerShadow_7935_150746"></feBlend><feColorMatrix in="SourceAlpha" result="hardAlpha" values="0 0 0 0 0 0 0 0 0 0 0 0 0 0 0 0 0 0 127 0"></feColorMatrix><feOffset dy="-1"></feOffset><feGaussianBlur stdDeviation="2"></feGaussianBlur><feComposite in2="hardAlpha" k2="-1" k3="1" operator="arithmetic"></feComposite><feColorMatrix values="0 0 0 0 1 0 0 0 0 1 0 0 0 0 1 0 0 0 0.1 0"></feColorMatrix><feBlend in2="effect1_innerShadow_7935_150746" result="effect2_innerShadow_7935_150746"></feBlend></filter></defs></svg>