<svg xmlns="http://www.w3.org/2000/svg" fill="none" viewBox="0 0 50 56"><g filter="url(#CalendarCardLight_svg__a)"><rect width="48" height="48" x="1" y="7" fill="url(#CalendarCardLight_svg__b)" rx="12"></rect></g><rect width="48.5" height="48.5" x="0.75" y="6.75" stroke="url(#CalendarCardLight_svg__c)" stroke-opacity="0.2" stroke-width="0.5" rx="12.25"></rect><g filter="url(#CalendarCardLight_svg__d)" shape-rendering="crispEdges"><path fill="#fff" d="M24.5 45q-3.276-.012-5.637-1.617-2.349-1.604-3.619-4.646-1.257-3.042-1.244-7.32 0-4.264 1.257-7.269 1.27-3.004 3.618-4.57Q21.237 18 24.5 18t5.612 1.578q2.362 1.579 3.63 4.583 1.27 2.992 1.258 7.256 0 4.29-1.27 7.333-1.257 3.042-3.605 4.646Q27.776 45.001 24.5 45m0-4.57q2.235 0 3.568-2.253t1.32-6.76q0-2.965-.61-4.939-.596-1.973-1.7-2.966a3.7 3.7 0 0 0-2.578-.993q-2.222 0-3.555 2.228-1.333 2.227-1.346 6.67 0 3.005.597 5.016.61 1.999 1.714 3.004a3.75 3.75 0 0 0 2.59.993"></path><path stroke="url(#CalendarCardLight_svg__e)" stroke-opacity="0.1" stroke-width="0.5" d="M33.973 24.064c-.862-2.041-2.101-3.61-3.722-4.693-1.613-1.084-3.534-1.621-5.751-1.621s-4.142.537-5.763 1.62c-1.613 1.076-2.848 2.64-3.71 4.681v.001c-.855 2.041-1.277 4.499-1.277 7.365-.008 2.875.41 5.349 1.263 7.415v.001c.863 2.066 2.097 3.656 3.709 4.757 1.622 1.101 3.551 1.651 5.777 1.66h.001c2.226 0 4.152-.546 5.765-1.648 1.613-1.1 2.843-2.69 3.696-4.756q1.291-3.102 1.289-7.429m-1.277-7.353c.863 2.033 1.285 4.487 1.277 7.353m-1.277-7.353-.23.097.23-.097Zm1.277 7.353H35l.25.001Zm-6.112 0v.001c.008 2.988-.43 5.187-1.286 6.632-.852 1.441-1.967 2.13-3.352 2.13a3.5 3.5 0 0 1-2.422-.928c-.692-.63-1.245-1.586-1.643-2.891q-.584-1.964-.586-4.943c.009-2.945.456-5.115 1.31-6.543.853-1.424 1.964-2.106 3.341-2.106.929 0 1.728.308 2.41.928.692.623 1.24 1.566 1.63 2.853v.002q.596 1.924.598 4.865Z"></path></g><g filter="url(#CalendarCardLight_svg__f)"><rect width="6" height="13" x="10" y="1" fill="url(#CalendarCardLight_svg__g)" rx="3"></rect></g><rect width="6.5" height="13.5" x="9.75" y="0.75" stroke="#000" stroke-opacity="0.1" stroke-width="0.5" rx="3.25"></rect><g filter="url(#CalendarCardLight_svg__h)"><rect width="6" height="13" x="34" y="1" fill="url(#CalendarCardLight_svg__i)" rx="3"></rect></g><rect width="6.5" height="13.5" x="33.75" y="0.75" stroke="#000" stroke-opacity="0.1" stroke-width="0.5" rx="3.25"></rect><defs><linearGradient id="CalendarCardLight_svg__b" x1="24.454" x2="24.454" y1="12.87" y2="49.82" gradientUnits="userSpaceOnUse"><stop stop-color="#DEDEDE"></stop><stop offset="1" stop-color="#EDEDED"></stop></linearGradient><linearGradient id="CalendarCardLight_svg__c" x1="25" x2="25" y1="7" y2="55" gradientUnits="userSpaceOnUse"><stop stop-opacity="0.5"></stop><stop offset="1"></stop></linearGradient><linearGradient id="CalendarCardLight_svg__e" x1="24.5" x2="24.5" y1="18" y2="45" gradientUnits="userSpaceOnUse"><stop></stop><stop offset="1" stop-opacity="0.5"></stop></linearGradient><linearGradient id="CalendarCardLight_svg__g" x1="13" x2="13" y1="1" y2="14" gradientUnits="userSpaceOnUse"><stop stop-color="#EFEFEF"></stop><stop offset="1" stop-color="#fff"></stop></linearGradient><linearGradient id="CalendarCardLight_svg__i" x1="37" x2="37" y1="1" y2="14" gradientUnits="userSpaceOnUse"><stop stop-color="#EFEFEF"></stop><stop offset="1" stop-color="#fff"></stop></linearGradient><filter id="CalendarCardLight_svg__a" width="49" height="51" x="0.5" y="5.5" color-interpolation-filters="sRGB" filterUnits="userSpaceOnUse"><feFlood flood-opacity="0" result="BackgroundImageFix"></feFlood><feBlend in="SourceGraphic" in2="BackgroundImageFix" result="shape"></feBlend><feColorMatrix in="SourceAlpha" result="hardAlpha" values="0 0 0 0 0 0 0 0 0 0 0 0 0 0 0 0 0 0 127 0"></feColorMatrix><feOffset dy="1"></feOffset><feGaussianBlur stdDeviation="0.5"></feGaussianBlur><feComposite in2="hardAlpha" k2="-1" k3="1" operator="arithmetic"></feComposite><feColorMatrix values="0 0 0 0 0 0 0 0 0 0 0 0 0 0 0 0 0 0 0.05 0"></feColorMatrix><feBlend in2="shape" result="effect1_innerShadow_7935_146890"></feBlend><feColorMatrix in="SourceAlpha" result="hardAlpha" values="0 0 0 0 0 0 0 0 0 0 0 0 0 0 0 0 0 0 127 0"></feColorMatrix><feOffset dy="-1"></feOffset><feGaussianBlur stdDeviation="2"></feGaussianBlur><feComposite in2="hardAlpha" k2="-1" k3="1" operator="arithmetic"></feComposite><feColorMatrix values="0 0 0 0 1 0 0 0 0 1 0 0 0 0 1 0 0 0 1 0"></feColorMatrix><feBlend in2="effect1_innerShadow_7935_146890" result="effect2_innerShadow_7935_146890"></feBlend></filter><filter id="CalendarCardLight_svg__d" width="30" height="36" x="9.5" y="14.5" color-interpolation-filters="sRGB" filterUnits="userSpaceOnUse"><feFlood flood-opacity="0" result="BackgroundImageFix"></feFlood><feColorMatrix in="SourceAlpha" result="hardAlpha" values="0 0 0 0 0 0 0 0 0 0 0 0 0 0 0 0 0 0 127 0"></feColorMatrix><feOffset dy="1"></feOffset><feGaussianBlur stdDeviation="2"></feGaussianBlur><feComposite in2="hardAlpha" operator="out"></feComposite><feColorMatrix values="0 0 0 0 0 0 0 0 0 0 0 0 0 0 0 0 0 0 0.05 0"></feColorMatrix><feBlend in2="BackgroundImageFix" result="effect1_dropShadow_7935_146890"></feBlend><feBlend in="SourceGraphic" in2="effect1_dropShadow_7935_146890" result="shape"></feBlend></filter><filter id="CalendarCardLight_svg__f" width="7" height="14" x="9.5" y="0.5" color-interpolation-filters="sRGB" filterUnits="userSpaceOnUse"><feFlood flood-opacity="0" result="BackgroundImageFix"></feFlood><feBlend in="SourceGraphic" in2="BackgroundImageFix" result="shape"></feBlend><feColorMatrix in="SourceAlpha" result="hardAlpha" values="0 0 0 0 0 0 0 0 0 0 0 0 0 0 0 0 0 0 127 0"></feColorMatrix><feOffset dy="1"></feOffset><feComposite in2="hardAlpha" k2="-1" k3="1" operator="arithmetic"></feComposite><feColorMatrix values="0 0 0 0 1 0 0 0 0 1 0 0 0 0 1 0 0 0 1 0"></feColorMatrix><feBlend in2="shape" result="effect1_innerShadow_7935_146890"></feBlend></filter><filter id="CalendarCardLight_svg__h" width="7" height="14" x="33.5" y="0.5" color-interpolation-filters="sRGB" filterUnits="userSpaceOnUse"><feFlood flood-opacity="0" result="BackgroundImageFix"></feFlood><feBlend in="SourceGraphic" in2="BackgroundImageFix" result="shape"></feBlend><feColorMatrix in="SourceAlpha" result="hardAlpha" values="0 0 0 0 0 0 0 0 0 0 0 0 0 0 0 0 0 0 127 0"></feColorMatrix><feOffset dy="1"></feOffset><feComposite in2="hardAlpha" k2="-1" k3="1" operator="arithmetic"></feComposite><feColorMatrix values="0 0 0 0 1 0 0 0 0 1 0 0 0 0 1 0 0 0 1 0"></feColorMatrix><feBlend in2="shape" result="effect1_innerShadow_7935_146890"></feBlend></filter></defs></svg>