<svg xmlns="http://www.w3.org/2000/svg" fill="none" viewBox="0 0 420 380"><g filter="url(#CalendarLight_svg__a)"><rect width="236" height="236" x="80" y="33" fill="url(#CalendarLight_svg__b)" rx="32"></rect></g><path fill="url(#CalendarLight_svg__c)" fill-rule="evenodd" d="M115 57c-6.075 0-11 4.925-11 11s4.925 11 11 11h166c6.075 0 11-4.925 11-11s-4.925-11-11-11zm-10.232 62.58c-.768 1.624-.768 3.722-.768 7.92s0 6.296.768 7.92a8 8 0 0 0 3.812 3.812c1.624.768 3.722.768 7.92.768h33c4.198 0 6.296 0 7.92-.768a8 8 0 0 0 3.812-3.812c.768-1.624.768-3.722.768-7.92s0-6.296-.768-7.92a8 8 0 0 0-3.812-3.812c-1.624-.768-3.722-.768-7.92-.768h-33c-4.198 0-6.296 0-7.92.768a8 8 0 0 0-3.812 3.812M104 198.8c0-4.48 0-6.721.872-8.432a8 8 0 0 1 3.496-3.496c1.711-.872 3.952-.872 8.432-.872h32.4c4.48 0 6.721 0 8.432.872a8 8 0 0 1 3.496 3.496c.872 1.711.872 3.952.872 8.432v33.4c0 4.48 0 6.721-.872 8.432a8 8 0 0 1-3.496 3.496c-1.711.872-3.952.872-8.432.872h-32.4c-4.48 0-6.721 0-8.432-.872a8 8 0 0 1-3.496-3.496C104 238.921 104 236.68 104 232.2zm68.872-100.432C172 100.08 172 102.32 172 106.8v34.4c0 4.48 0 6.721.872 8.432a8 8 0 0 0 3.496 3.496c1.711.872 3.952.872 8.432.872h32.4c4.48 0 6.721 0 8.432-.872a8 8 0 0 0 3.496-3.496c.872-1.711.872-3.952.872-8.432v-34.4c0-4.48 0-6.721-.872-8.432a8 8 0 0 0-3.496-3.496C223.921 94 221.68 94 217.2 94h-32.4c-4.48 0-6.721 0-8.432.872a8 8 0 0 0-3.496 3.496M172 232.5c0-4.198 0-6.296.768-7.92a8 8 0 0 1 3.812-3.812c1.624-.768 3.722-.768 7.92-.768h33c4.198 0 6.296 0 7.92.768a8 8 0 0 1 3.812 3.812c.768 1.624.768 3.722.768 7.92s0 6.296-.768 7.92a8 8 0 0 1-3.812 3.812c-1.624.768-3.722.768-7.92.768h-33c-4.198 0-6.296 0-7.92-.768a8 8 0 0 1-3.812-3.812c-.768-1.624-.768-3.722-.768-7.92m68.872-74.132C240 160.079 240 162.32 240 166.8v29.4c0 4.48 0 6.721.872 8.432a8 8 0 0 0 3.496 3.496c1.711.872 3.952.872 8.432.872h32.4c4.48 0 6.721 0 8.432-.872a8 8 0 0 0 3.496-3.496c.872-1.711.872-3.952.872-8.432v-29.4c0-4.48 0-6.721-.872-8.432a8 8 0 0 0-3.496-3.496C291.921 154 289.68 154 285.2 154h-32.4c-4.48 0-6.721 0-8.432.872a8 8 0 0 0-3.496 3.496" clip-rule="evenodd"></path><g filter="url(#CalendarLight_svg__d)"><rect width="100" height="100" x="258" fill="url(#CalendarLight_svg__e)" rx="32"></rect></g><g filter="url(#CalendarLight_svg__f)"><path fill="#E0E0E0" d="M308.11 82.398q-7.833-.03-13.481-3.856-5.617-3.825-8.653-11.082-3.006-7.257-2.976-17.458 0-10.171 3.006-17.337 3.036-7.165 8.653-10.9Q300.307 18 308.11 18t13.42 3.765q5.647 3.765 8.684 10.93 3.036 7.135 3.005 17.307 0 10.231-3.036 17.488-3.006 7.257-8.623 11.083-5.617 3.825-13.45 3.825m0-10.9q5.343 0 8.532-5.374t3.157-16.122q0-7.075-1.457-11.78-1.427-4.707-4.069-7.075-2.61-2.368-6.163-2.368-5.313 0-8.502 5.313-3.188 5.314-3.218 15.91 0 7.165 1.427 11.962 1.458 4.767 4.099 7.166 2.642 2.368 6.194 2.368"></path></g><defs><linearGradient id="CalendarLight_svg__b" x1="198" x2="198" y1="33" y2="269" gradientUnits="userSpaceOnUse"><stop stop-color="#FAFAFA"></stop><stop offset="1" stop-color="#fff"></stop></linearGradient><linearGradient id="CalendarLight_svg__c" x1="201" x2="201" y1="57" y2="245" gradientUnits="userSpaceOnUse"><stop stop-color="#DEDEDE"></stop><stop offset="1" stop-color="#F2F2F2"></stop></linearGradient><linearGradient id="CalendarLight_svg__e" x1="308" x2="308" y1="0" y2="100" gradientUnits="userSpaceOnUse"><stop stop-color="#F7F7F7"></stop><stop offset="1" stop-color="#fff"></stop></linearGradient><filter id="CalendarLight_svg__a" width="396" height="444" x="0" y="5" color-interpolation-filters="sRGB" filterUnits="userSpaceOnUse"><feFlood flood-opacity="0" result="BackgroundImageFix"></feFlood><feGaussianBlur in="BackgroundImageFix" stdDeviation="14"></feGaussianBlur><feComposite in2="SourceAlpha" operator="in" result="effect1_backgroundBlur_1534_31596"></feComposite><feColorMatrix in="SourceAlpha" result="hardAlpha" values="0 0 0 0 0 0 0 0 0 0 0 0 0 0 0 0 0 0 127 0"></feColorMatrix><feOffset dy="2.767"></feOffset><feGaussianBlur stdDeviation="1.107"></feGaussianBlur><feColorMatrix values="0 0 0 0 0.388235 0 0 0 0 0.388235 0 0 0 0 0.388235 0 0 0 0.07 0"></feColorMatrix><feBlend in2="effect1_backgroundBlur_1534_31596" result="effect2_dropShadow_1534_31596"></feBlend><feColorMatrix in="SourceAlpha" result="hardAlpha" values="0 0 0 0 0 0 0 0 0 0 0 0 0 0 0 0 0 0 127 0"></feColorMatrix><feOffset dy="6.65"></feOffset><feGaussianBlur stdDeviation="2.66"></feGaussianBlur><feColorMatrix values="0 0 0 0 0.388235 0 0 0 0 0.388235 0 0 0 0 0.388235 0 0 0 0.0503198 0"></feColorMatrix><feBlend in2="effect2_dropShadow_1534_31596" result="effect3_dropShadow_1534_31596"></feBlend><feColorMatrix in="SourceAlpha" result="hardAlpha" values="0 0 0 0 0 0 0 0 0 0 0 0 0 0 0 0 0 0 127 0"></feColorMatrix><feOffset dy="12.522"></feOffset><feGaussianBlur stdDeviation="5.009"></feGaussianBlur><feColorMatrix values="0 0 0 0 0.388235 0 0 0 0 0.388235 0 0 0 0 0.388235 0 0 0 0.0417275 0"></feColorMatrix><feBlend in2="effect3_dropShadow_1534_31596" result="effect4_dropShadow_1534_31596"></feBlend><feColorMatrix in="SourceAlpha" result="hardAlpha" values="0 0 0 0 0 0 0 0 0 0 0 0 0 0 0 0 0 0 127 0"></feColorMatrix><feOffset dy="22.336"></feOffset><feGaussianBlur stdDeviation="8.935"></feGaussianBlur><feColorMatrix values="0 0 0 0 0.388235 0 0 0 0 0.388235 0 0 0 0 0.388235 0 0 0 0.035 0"></feColorMatrix><feBlend in2="effect4_dropShadow_1534_31596" result="effect5_dropShadow_1534_31596"></feBlend><feColorMatrix in="SourceAlpha" result="hardAlpha" values="0 0 0 0 0 0 0 0 0 0 0 0 0 0 0 0 0 0 127 0"></feColorMatrix><feOffset dy="41.778"></feOffset><feGaussianBlur stdDeviation="16.711"></feGaussianBlur><feColorMatrix values="0 0 0 0 0.388235 0 0 0 0 0.388235 0 0 0 0 0.388235 0 0 0 0.0282725 0"></feColorMatrix><feBlend in2="effect5_dropShadow_1534_31596" result="effect6_dropShadow_1534_31596"></feBlend><feColorMatrix in="SourceAlpha" result="hardAlpha" values="0 0 0 0 0 0 0 0 0 0 0 0 0 0 0 0 0 0 127 0"></feColorMatrix><feOffset dy="100"></feOffset><feGaussianBlur stdDeviation="40"></feGaussianBlur><feColorMatrix values="0 0 0 0 0.388235 0 0 0 0 0.388235 0 0 0 0 0.388235 0 0 0 0.0196802 0"></feColorMatrix><feBlend in2="effect6_dropShadow_1534_31596" result="effect7_dropShadow_1534_31596"></feBlend><feBlend in="SourceGraphic" in2="effect7_dropShadow_1534_31596" result="shape"></feBlend><feColorMatrix in="SourceAlpha" result="hardAlpha" values="0 0 0 0 0 0 0 0 0 0 0 0 0 0 0 0 0 0 127 0"></feColorMatrix><feOffset dy="1"></feOffset><feGaussianBlur stdDeviation="2"></feGaussianBlur><feComposite in2="hardAlpha" k2="-1" k3="1" operator="arithmetic"></feComposite><feColorMatrix values="0 0 0 0 1 0 0 0 0 1 0 0 0 0 1 0 0 0 1 0"></feColorMatrix><feBlend in2="shape" result="effect8_innerShadow_1534_31596"></feBlend></filter><filter id="CalendarLight_svg__d" width="260" height="308" x="178" y="-28" color-interpolation-filters="sRGB" filterUnits="userSpaceOnUse"><feFlood flood-opacity="0" result="BackgroundImageFix"></feFlood><feGaussianBlur in="BackgroundImageFix" stdDeviation="14"></feGaussianBlur><feComposite in2="SourceAlpha" operator="in" result="effect1_backgroundBlur_1534_31596"></feComposite><feColorMatrix in="SourceAlpha" result="hardAlpha" values="0 0 0 0 0 0 0 0 0 0 0 0 0 0 0 0 0 0 127 0"></feColorMatrix><feOffset dy="2.767"></feOffset><feGaussianBlur stdDeviation="1.107"></feGaussianBlur><feColorMatrix values="0 0 0 0 0.388235 0 0 0 0 0.388235 0 0 0 0 0.388235 0 0 0 0.07 0"></feColorMatrix><feBlend in2="effect1_backgroundBlur_1534_31596" result="effect2_dropShadow_1534_31596"></feBlend><feColorMatrix in="SourceAlpha" result="hardAlpha" values="0 0 0 0 0 0 0 0 0 0 0 0 0 0 0 0 0 0 127 0"></feColorMatrix><feOffset dy="6.65"></feOffset><feGaussianBlur stdDeviation="2.66"></feGaussianBlur><feColorMatrix values="0 0 0 0 0.388235 0 0 0 0 0.388235 0 0 0 0 0.388235 0 0 0 0.0503198 0"></feColorMatrix><feBlend in2="effect2_dropShadow_1534_31596" result="effect3_dropShadow_1534_31596"></feBlend><feColorMatrix in="SourceAlpha" result="hardAlpha" values="0 0 0 0 0 0 0 0 0 0 0 0 0 0 0 0 0 0 127 0"></feColorMatrix><feOffset dy="12.522"></feOffset><feGaussianBlur stdDeviation="5.009"></feGaussianBlur><feColorMatrix values="0 0 0 0 0.388235 0 0 0 0 0.388235 0 0 0 0 0.388235 0 0 0 0.0417275 0"></feColorMatrix><feBlend in2="effect3_dropShadow_1534_31596" result="effect4_dropShadow_1534_31596"></feBlend><feColorMatrix in="SourceAlpha" result="hardAlpha" values="0 0 0 0 0 0 0 0 0 0 0 0 0 0 0 0 0 0 127 0"></feColorMatrix><feOffset dy="22.336"></feOffset><feGaussianBlur stdDeviation="8.935"></feGaussianBlur><feColorMatrix values="0 0 0 0 0.388235 0 0 0 0 0.388235 0 0 0 0 0.388235 0 0 0 0.035 0"></feColorMatrix><feBlend in2="effect4_dropShadow_1534_31596" result="effect5_dropShadow_1534_31596"></feBlend><feColorMatrix in="SourceAlpha" result="hardAlpha" values="0 0 0 0 0 0 0 0 0 0 0 0 0 0 0 0 0 0 127 0"></feColorMatrix><feOffset dy="41.778"></feOffset><feGaussianBlur stdDeviation="16.711"></feGaussianBlur><feColorMatrix values="0 0 0 0 0.388235 0 0 0 0 0.388235 0 0 0 0 0.388235 0 0 0 0.0282725 0"></feColorMatrix><feBlend in2="effect5_dropShadow_1534_31596" result="effect6_dropShadow_1534_31596"></feBlend><feColorMatrix in="SourceAlpha" result="hardAlpha" values="0 0 0 0 0 0 0 0 0 0 0 0 0 0 0 0 0 0 127 0"></feColorMatrix><feOffset dy="100"></feOffset><feGaussianBlur stdDeviation="40"></feGaussianBlur><feColorMatrix values="0 0 0 0 0.388235 0 0 0 0 0.388235 0 0 0 0 0.388235 0 0 0 0.0196802 0"></feColorMatrix><feBlend in2="effect6_dropShadow_1534_31596" result="effect7_dropShadow_1534_31596"></feBlend><feBlend in="SourceGraphic" in2="effect7_dropShadow_1534_31596" result="shape"></feBlend><feColorMatrix in="SourceAlpha" result="hardAlpha" values="0 0 0 0 0 0 0 0 0 0 0 0 0 0 0 0 0 0 127 0"></feColorMatrix><feOffset dy="1"></feOffset><feGaussianBlur stdDeviation="2"></feGaussianBlur><feComposite in2="hardAlpha" k2="-1" k3="1" operator="arithmetic"></feComposite><feColorMatrix values="0 0 0 0 1 0 0 0 0 1 0 0 0 0 1 0 0 0 1 0"></feColorMatrix><feBlend in2="shape" result="effect8_innerShadow_1534_31596"></feBlend></filter><filter id="CalendarLight_svg__f" width="58.22" height="72.398" x="279" y="18" color-interpolation-filters="sRGB" filterUnits="userSpaceOnUse"><feFlood flood-opacity="0" result="BackgroundImageFix"></feFlood><feColorMatrix in="SourceAlpha" result="hardAlpha" values="0 0 0 0 0 0 0 0 0 0 0 0 0 0 0 0 0 0 127 0"></feColorMatrix><feOffset dy="4"></feOffset><feGaussianBlur stdDeviation="2"></feGaussianBlur><feComposite in2="hardAlpha" operator="out"></feComposite><feColorMatrix values="0 0 0 0 1 0 0 0 0 1 0 0 0 0 1 0 0 0 0.25 0"></feColorMatrix><feBlend in2="BackgroundImageFix" result="effect1_dropShadow_1534_31596"></feBlend><feBlend in="SourceGraphic" in2="effect1_dropShadow_1534_31596" result="shape"></feBlend><feColorMatrix in="SourceAlpha" result="hardAlpha" values="0 0 0 0 0 0 0 0 0 0 0 0 0 0 0 0 0 0 127 0"></feColorMatrix><feOffset dy="1"></feOffset><feGaussianBlur stdDeviation="5"></feGaussianBlur><feComposite in2="hardAlpha" k2="-1" k3="1" operator="arithmetic"></feComposite><feColorMatrix values="0 0 0 0 0.804167 0 0 0 0 0.804167 0 0 0 0 0.804167 0 0 0 1 0"></feColorMatrix><feBlend in2="shape" result="effect2_innerShadow_1534_31596"></feBlend></filter></defs></svg>