<svg xmlns="http://www.w3.org/2000/svg" fill="none" viewBox="0 0 340 352"><g filter="url(#CalendarBlockedDark_svg__a)"><path fill="url(#CalendarBlockedDark_svg__b)" d="M188.8 22c17.921 0 26.882 0 33.727 3.487a32 32 0 0 1 13.986 13.986C240 46.318 240 55.279 240 73.2v57.6c0 17.921 0 26.882-3.487 33.727a32 32 0 0 1-13.986 13.986C215.682 182 206.721 182 188.8 182h-57.6c-17.921 0-26.882 0-33.727-3.487a32 32 0 0 1-13.986-13.986C80 157.682 80 148.721 80 130.8V73.2c0-17.921 0-26.882 3.487-33.727a32 32 0 0 1 13.986-13.986C104.318 22 113.279 22 131.2 22z"></path></g><g filter="url(#CalendarBlockedDark_svg__c)"><path fill="url(#CalendarBlockedDark_svg__d)" d="M115 2c.4 0 1.8 0 3.686.749a9.32 9.32 0 0 1 5.565 5.565c.749 2.37.749 4.57.749 8.972v9.428c0 4.401 0 6.602-.749 8.971a9.32 9.32 0 0 1-5.565 5.566C116.8 42.001 115.4 42 115 42s-1.8 0-3.686-.749a9.32 9.32 0 0 1-5.565-5.566c-.749-2.369-.749-4.57-.749-8.971v-9.428c0-4.401 0-6.603.749-8.972a9.32 9.32 0 0 1 5.565-5.565C113.2 1.999 114.6 2 115 2m90 0c.4 0 1.8 0 3.686.749a9.32 9.32 0 0 1 5.565 5.565c.749 2.37.749 4.57.749 8.972v9.428c0 4.401 0 6.602-.749 8.971a9.32 9.32 0 0 1-5.565 5.566C206.8 42.001 205.4 42 205 42s-1.8 0-3.686-.749a9.32 9.32 0 0 1-5.565-5.566c-.749-2.369-.749-4.57-.749-8.971v-9.428c0-4.401 0-6.603.749-8.972a9.32 9.32 0 0 1 5.565-5.565C203.2 1.999 204.6 2 205 2"></path></g><g filter="url(#CalendarBlockedDark_svg__e)"><path fill="url(#CalendarBlockedDark_svg__f)" d="M119.2 130c4.48 0 6.721 0 8.432.872a8 8 0 0 1 3.496 3.496c.872 1.711.872 3.952.872 8.432v10.4c0 4.48 0 6.721-.872 8.432a8 8 0 0 1-3.496 3.496c-1.711.872-3.952.872-8.432.872h-10.4c-4.48 0-6.721 0-8.432-.872a8 8 0 0 1-3.496-3.496C96 159.921 96 157.68 96 153.2v-10.4c0-4.48 0-6.721.872-8.432a8 8 0 0 1 3.496-3.496c1.711-.872 3.952-.872 8.432-.872zm46-50c4.48 0 6.721 0 8.432.872a8 8 0 0 1 3.496 3.496C178 86.08 178 88.32 178 92.8v39.4c0 4.48 0 6.721-.872 8.432a8 8 0 0 1-3.496 3.496c-1.711.872-3.952.872-8.432.872h-10.4c-4.48 0-6.721 0-8.432-.872a8 8 0 0 1-3.496-3.496C142 138.921 142 136.68 142 132.2V92.8c0-4.48 0-6.72.872-8.432a8 8 0 0 1 3.496-3.496C148.079 80 150.32 80 154.8 80zm46 29c4.48 0 6.721 0 8.432.872a8 8 0 0 1 3.496 3.496c.872 1.711.872 3.952.872 8.432v10.4c0 4.48 0 6.721-.872 8.432a8 8 0 0 1-3.496 3.496c-1.711.872-3.952.872-8.432.872h-10.4c-4.48 0-6.721 0-8.432-.872a8 8 0 0 1-3.496-3.496C188 138.921 188 136.68 188 132.2v-10.4c0-4.48 0-6.721.872-8.432a8 8 0 0 1 3.496-3.496c1.711-.872 3.952-.872 8.432-.872zm-91.429-29c3.521 0 5.282 0 7.177.6a7.45 7.45 0 0 1 4.452 4.452c.6 1.508.6 2.628.6 2.948s0 1.44-.6 2.948a7.45 7.45 0 0 1-4.452 4.452c-1.895.6-3.656.6-7.177.6h-11.542c-3.521 0-5.282 0-7.177-.6a7.45 7.45 0 0 1-4.452-4.452C96 89.44 96 88.32 96 88s0-1.44.6-2.948a7.45 7.45 0 0 1 4.452-4.452c1.895-.6 3.656-.6 7.177-.6zm98.114-22c1.761 0 2.641 0 3.589.3a3.72 3.72 0 0 1 2.226 2.226c.3.754.3 1.314.3 1.474s0 .72-.3 1.474a3.72 3.72 0 0 1-2.226 2.226c-.948.3-1.828.3-3.589.3H102.114c-1.76 0-2.64 0-3.588-.3a3.73 3.73 0 0 1-2.226-2.226C96 62.72 96 62.16 96 62s0-.72.3-1.474a3.73 3.73 0 0 1 2.226-2.226c.948-.3 1.828-.3 3.588-.3z" shape-rendering="crispEdges"></path></g><g filter="url(#CalendarBlockedDark_svg__g)"><circle cx="228" cy="154" r="32" fill="url(#CalendarBlockedDark_svg__h)"></circle></g><g filter="url(#CalendarBlockedDark_svg__i)"><path fill="url(#CalendarBlockedDark_svg__j)" d="M228 131.8c12.261 0 22.201 9.94 22.201 22.2-.001 12.261-9.94 22.2-22.201 22.201-12.26 0-22.2-9.94-22.2-22.201 0-12.26 9.94-22.2 22.2-22.2m-12.016 14.427c-.46-.46-.69-.689-.971-.753a1.07 1.07 0 0 0-.724.111c-.25.145-.387.407-.66.931A16.1 16.1 0 0 0 211.8 154c0 8.947 7.254 16.201 16.2 16.201 2.7 0 5.246-.662 7.484-1.831.524-.273.786-.41.931-.66.119-.204.163-.493.111-.724-.064-.282-.294-.511-.753-.971zM228 137.8c-2.7 0-5.246.661-7.484 1.829-.524.273-.786.41-.931.66a1.06 1.06 0 0 0-.111.724c.064.282.293.511.753.971l19.788 19.789c.46.459.689.689.971.753.231.052.52.008.724-.111.25-.145.387-.407.66-.931a16.1 16.1 0 0 0 1.831-7.484c0-8.946-7.254-16.2-16.201-16.2" shape-rendering="crispEdges"></path></g><defs><linearGradient id="CalendarBlockedDark_svg__b" x1="160" x2="160" y1="21.5" y2="182.5" gradientUnits="userSpaceOnUse"><stop stop-color="#4A4A4A"></stop><stop offset="1" stop-color="#313131"></stop></linearGradient><linearGradient id="CalendarBlockedDark_svg__d" x1="160" x2="160" y1="1.875" y2="42.125" gradientUnits="userSpaceOnUse"><stop stop-color="#4A4A4A"></stop><stop offset="1" stop-color="#313131"></stop></linearGradient><linearGradient id="CalendarBlockedDark_svg__f" x1="160" x2="160" y1="58" y2="166" gradientUnits="userSpaceOnUse"><stop stop-opacity="0.6"></stop><stop offset="1" stop-opacity="0.35"></stop></linearGradient><linearGradient id="CalendarBlockedDark_svg__h" x1="228" x2="228" y1="121.8" y2="186.2" gradientUnits="userSpaceOnUse"><stop stop-color="#4A4A4A"></stop><stop offset="1" stop-color="#313131"></stop></linearGradient><linearGradient id="CalendarBlockedDark_svg__j" x1="228" x2="228" y1="131.8" y2="176.201" gradientUnits="userSpaceOnUse"><stop stop-opacity="0.6"></stop><stop offset="1" stop-opacity="0.35"></stop></linearGradient><filter id="CalendarBlockedDark_svg__a" width="320" height="341" x="0" y="21" color-interpolation-filters="sRGB" filterUnits="userSpaceOnUse"><feFlood flood-opacity="0" result="BackgroundImageFix"></feFlood><feColorMatrix in="SourceAlpha" result="hardAlpha" values="0 0 0 0 0 0 0 0 0 0 0 0 0 0 0 0 0 0 127 0"></feColorMatrix><feOffset dy="2.767"></feOffset><feGaussianBlur stdDeviation="1.107"></feGaussianBlur><feColorMatrix values="0 0 0 0 0 0 0 0 0 0 0 0 0 0 0 0 0 0 0.07 0"></feColorMatrix><feBlend in2="BackgroundImageFix" result="effect1_dropShadow_9013_1384"></feBlend><feColorMatrix in="SourceAlpha" result="hardAlpha" values="0 0 0 0 0 0 0 0 0 0 0 0 0 0 0 0 0 0 127 0"></feColorMatrix><feOffset dy="6.65"></feOffset><feGaussianBlur stdDeviation="2.66"></feGaussianBlur><feColorMatrix values="0 0 0 0 0 0 0 0 0 0 0 0 0 0 0 0 0 0 0.0503198 0"></feColorMatrix><feBlend in2="effect1_dropShadow_9013_1384" result="effect2_dropShadow_9013_1384"></feBlend><feColorMatrix in="SourceAlpha" result="hardAlpha" values="0 0 0 0 0 0 0 0 0 0 0 0 0 0 0 0 0 0 127 0"></feColorMatrix><feOffset dy="12.522"></feOffset><feGaussianBlur stdDeviation="5.009"></feGaussianBlur><feColorMatrix values="0 0 0 0 0 0 0 0 0 0 0 0 0 0 0 0 0 0 0.0417275 0"></feColorMatrix><feBlend in2="effect2_dropShadow_9013_1384" result="effect3_dropShadow_9013_1384"></feBlend><feColorMatrix in="SourceAlpha" result="hardAlpha" values="0 0 0 0 0 0 0 0 0 0 0 0 0 0 0 0 0 0 127 0"></feColorMatrix><feOffset dy="22.336"></feOffset><feGaussianBlur stdDeviation="8.935"></feGaussianBlur><feColorMatrix values="0 0 0 0 0 0 0 0 0 0 0 0 0 0 0 0 0 0 0.035 0"></feColorMatrix><feBlend in2="effect3_dropShadow_9013_1384" result="effect4_dropShadow_9013_1384"></feBlend><feColorMatrix in="SourceAlpha" result="hardAlpha" values="0 0 0 0 0 0 0 0 0 0 0 0 0 0 0 0 0 0 127 0"></feColorMatrix><feOffset dy="41.778"></feOffset><feGaussianBlur stdDeviation="16.711"></feGaussianBlur><feColorMatrix values="0 0 0 0 0 0 0 0 0 0 0 0 0 0 0 0 0 0 0.0282725 0"></feColorMatrix><feBlend in2="effect4_dropShadow_9013_1384" result="effect5_dropShadow_9013_1384"></feBlend><feColorMatrix in="SourceAlpha" result="hardAlpha" values="0 0 0 0 0 0 0 0 0 0 0 0 0 0 0 0 0 0 127 0"></feColorMatrix><feOffset dy="100"></feOffset><feGaussianBlur stdDeviation="40"></feGaussianBlur><feColorMatrix values="0 0 0 0 0 0 0 0 0 0 0 0 0 0 0 0 0 0 0.0196802 0"></feColorMatrix><feBlend in2="effect5_dropShadow_9013_1384" result="effect6_dropShadow_9013_1384"></feBlend><feColorMatrix in="SourceAlpha" result="hardAlpha" values="0 0 0 0 0 0 0 0 0 0 0 0 0 0 0 0 0 0 127 0"></feColorMatrix><feOffset></feOffset><feGaussianBlur stdDeviation="0.5"></feGaussianBlur><feComposite in2="hardAlpha" operator="out"></feComposite><feColorMatrix values="0 0 0 0 0 0 0 0 0 0 0 0 0 0 0 0 0 0 1 0"></feColorMatrix><feBlend in2="effect6_dropShadow_9013_1384" result="effect7_dropShadow_9013_1384"></feBlend><feBlend in="SourceGraphic" in2="effect7_dropShadow_9013_1384" result="shape"></feBlend><feColorMatrix in="SourceAlpha" result="hardAlpha" values="0 0 0 0 0 0 0 0 0 0 0 0 0 0 0 0 0 0 127 0"></feColorMatrix><feOffset dy="2"></feOffset><feGaussianBlur stdDeviation="4"></feGaussianBlur><feComposite in2="hardAlpha" k2="-1" k3="1" operator="arithmetic"></feComposite><feColorMatrix values="0 0 0 0 1 0 0 0 0 1 0 0 0 0 1 0 0 0 0.1 0"></feColorMatrix><feBlend in2="shape" result="effect8_innerShadow_9013_1384"></feBlend><feColorMatrix in="SourceAlpha" result="hardAlpha" values="0 0 0 0 0 0 0 0 0 0 0 0 0 0 0 0 0 0 127 0"></feColorMatrix><feOffset></feOffset><feGaussianBlur stdDeviation="1"></feGaussianBlur><feComposite in2="hardAlpha" k2="-1" k3="1" operator="arithmetic"></feComposite><feColorMatrix values="0 0 0 0 1 0 0 0 0 1 0 0 0 0 1 0 0 0 0.3 0"></feColorMatrix><feBlend in2="effect8_innerShadow_9013_1384" result="effect9_innerShadow_9013_1384"></feBlend></filter><filter id="CalendarBlockedDark_svg__c" width="130" height="64" x="95" y="0" color-interpolation-filters="sRGB" filterUnits="userSpaceOnUse"><feFlood flood-opacity="0" result="BackgroundImageFix"></feFlood><feColorMatrix in="SourceAlpha" result="hardAlpha" values="0 0 0 0 0 0 0 0 0 0 0 0 0 0 0 0 0 0 127 0"></feColorMatrix><feOffset dy="3"></feOffset><feGaussianBlur stdDeviation="2.5"></feGaussianBlur><feColorMatrix values="0 0 0 0 0 0 0 0 0 0 0 0 0 0 0 0 0 0 0.03 0"></feColorMatrix><feBlend in2="BackgroundImageFix" result="effect1_dropShadow_9013_1384"></feBlend><feColorMatrix in="SourceAlpha" result="hardAlpha" values="0 0 0 0 0 0 0 0 0 0 0 0 0 0 0 0 0 0 127 0"></feColorMatrix><feOffset dy="12"></feOffset><feGaussianBlur stdDeviation="5"></feGaussianBlur><feColorMatrix values="0 0 0 0 0 0 0 0 0 0 0 0 0 0 0 0 0 0 0.03 0"></feColorMatrix><feBlend in2="effect1_dropShadow_9013_1384" result="effect2_dropShadow_9013_1384"></feBlend><feColorMatrix in="SourceAlpha" result="hardAlpha" values="0 0 0 0 0 0 0 0 0 0 0 0 0 0 0 0 0 0 127 0"></feColorMatrix><feOffset></feOffset><feGaussianBlur stdDeviation="0.5"></feGaussianBlur><feComposite in2="hardAlpha" operator="out"></feComposite><feColorMatrix values="0 0 0 0 0 0 0 0 0 0 0 0 0 0 0 0 0 0 0.6 0"></feColorMatrix><feBlend in2="effect2_dropShadow_9013_1384" result="effect3_dropShadow_9013_1384"></feBlend><feBlend in="SourceGraphic" in2="effect3_dropShadow_9013_1384" result="shape"></feBlend><feColorMatrix in="SourceAlpha" result="hardAlpha" values="0 0 0 0 0 0 0 0 0 0 0 0 0 0 0 0 0 0 127 0"></feColorMatrix><feOffset dy="2"></feOffset><feGaussianBlur stdDeviation="4"></feGaussianBlur><feComposite in2="hardAlpha" k2="-1" k3="1" operator="arithmetic"></feComposite><feColorMatrix values="0 0 0 0 1 0 0 0 0 1 0 0 0 0 1 0 0 0 0.1 0"></feColorMatrix><feBlend in2="shape" result="effect4_innerShadow_9013_1384"></feBlend><feColorMatrix in="SourceAlpha" result="hardAlpha" values="0 0 0 0 0 0 0 0 0 0 0 0 0 0 0 0 0 0 127 0"></feColorMatrix><feOffset></feOffset><feGaussianBlur stdDeviation="1"></feGaussianBlur><feComposite in2="hardAlpha" k2="-1" k3="1" operator="arithmetic"></feComposite><feColorMatrix values="0 0 0 0 1 0 0 0 0 1 0 0 0 0 1 0 0 0 0.3 0"></feColorMatrix><feBlend in2="effect4_innerShadow_9013_1384" result="effect5_innerShadow_9013_1384"></feBlend></filter><filter id="CalendarBlockedDark_svg__e" width="130" height="115" x="95" y="57" color-interpolation-filters="sRGB" filterUnits="userSpaceOnUse"><feFlood flood-opacity="0" result="BackgroundImageFix"></feFlood><feColorMatrix in="SourceAlpha" result="hardAlpha" values="0 0 0 0 0 0 0 0 0 0 0 0 0 0 0 0 0 0 127 0"></feColorMatrix><feOffset></feOffset><feGaussianBlur stdDeviation="0.5"></feGaussianBlur><feComposite in2="hardAlpha" operator="out"></feComposite><feColorMatrix values="0 0 0 0 1 0 0 0 0 1 0 0 0 0 1 0 0 0 0.2 0"></feColorMatrix><feBlend in2="BackgroundImageFix" result="effect1_dropShadow_9013_1384"></feBlend><feBlend in="SourceGraphic" in2="effect1_dropShadow_9013_1384" result="shape"></feBlend><feColorMatrix in="SourceAlpha" result="hardAlpha" values="0 0 0 0 0 0 0 0 0 0 0 0 0 0 0 0 0 0 127 0"></feColorMatrix><feOffset dy="6"></feOffset><feGaussianBlur stdDeviation="5"></feGaussianBlur><feComposite in2="hardAlpha" k2="-1" k3="1" operator="arithmetic"></feComposite><feColorMatrix values="0 0 0 0 0 0 0 0 0 0 0 0 0 0 0 0 0 0 0.05 0"></feColorMatrix><feBlend in2="shape" result="effect2_innerShadow_9013_1384"></feBlend><feColorMatrix in="SourceAlpha" result="hardAlpha" values="0 0 0 0 0 0 0 0 0 0 0 0 0 0 0 0 0 0 127 0"></feColorMatrix><feOffset></feOffset><feGaussianBlur stdDeviation="0.5"></feGaussianBlur><feComposite in2="hardAlpha" k2="-1" k3="1" operator="arithmetic"></feComposite><feColorMatrix values="0 0 0 0 0 0 0 0 0 0 0 0 0 0 0 0 0 0 0.2 0"></feColorMatrix><feBlend in2="effect2_innerShadow_9013_1384" result="effect3_innerShadow_9013_1384"></feBlend></filter><filter id="CalendarBlockedDark_svg__g" width="224" height="245" x="116" y="121" color-interpolation-filters="sRGB" filterUnits="userSpaceOnUse"><feFlood flood-opacity="0" result="BackgroundImageFix"></feFlood><feColorMatrix in="SourceAlpha" result="hardAlpha" values="0 0 0 0 0 0 0 0 0 0 0 0 0 0 0 0 0 0 127 0"></feColorMatrix><feOffset dy="2.767"></feOffset><feGaussianBlur stdDeviation="1.107"></feGaussianBlur><feColorMatrix values="0 0 0 0 0 0 0 0 0 0 0 0 0 0 0 0 0 0 0.07 0"></feColorMatrix><feBlend in2="BackgroundImageFix" result="effect1_dropShadow_9013_1384"></feBlend><feColorMatrix in="SourceAlpha" result="hardAlpha" values="0 0 0 0 0 0 0 0 0 0 0 0 0 0 0 0 0 0 127 0"></feColorMatrix><feOffset dy="6.65"></feOffset><feGaussianBlur stdDeviation="2.66"></feGaussianBlur><feColorMatrix values="0 0 0 0 0 0 0 0 0 0 0 0 0 0 0 0 0 0 0.0503198 0"></feColorMatrix><feBlend in2="effect1_dropShadow_9013_1384" result="effect2_dropShadow_9013_1384"></feBlend><feColorMatrix in="SourceAlpha" result="hardAlpha" values="0 0 0 0 0 0 0 0 0 0 0 0 0 0 0 0 0 0 127 0"></feColorMatrix><feOffset dy="12.522"></feOffset><feGaussianBlur stdDeviation="5.009"></feGaussianBlur><feColorMatrix values="0 0 0 0 0 0 0 0 0 0 0 0 0 0 0 0 0 0 0.0417275 0"></feColorMatrix><feBlend in2="effect2_dropShadow_9013_1384" result="effect3_dropShadow_9013_1384"></feBlend><feColorMatrix in="SourceAlpha" result="hardAlpha" values="0 0 0 0 0 0 0 0 0 0 0 0 0 0 0 0 0 0 127 0"></feColorMatrix><feOffset dy="22.336"></feOffset><feGaussianBlur stdDeviation="8.935"></feGaussianBlur><feColorMatrix values="0 0 0 0 0 0 0 0 0 0 0 0 0 0 0 0 0 0 0.035 0"></feColorMatrix><feBlend in2="effect3_dropShadow_9013_1384" result="effect4_dropShadow_9013_1384"></feBlend><feColorMatrix in="SourceAlpha" result="hardAlpha" values="0 0 0 0 0 0 0 0 0 0 0 0 0 0 0 0 0 0 127 0"></feColorMatrix><feOffset dy="41.778"></feOffset><feGaussianBlur stdDeviation="16.711"></feGaussianBlur><feColorMatrix values="0 0 0 0 0 0 0 0 0 0 0 0 0 0 0 0 0 0 0.0282725 0"></feColorMatrix><feBlend in2="effect4_dropShadow_9013_1384" result="effect5_dropShadow_9013_1384"></feBlend><feColorMatrix in="SourceAlpha" result="hardAlpha" values="0 0 0 0 0 0 0 0 0 0 0 0 0 0 0 0 0 0 127 0"></feColorMatrix><feOffset dy="100"></feOffset><feGaussianBlur stdDeviation="40"></feGaussianBlur><feColorMatrix values="0 0 0 0 0 0 0 0 0 0 0 0 0 0 0 0 0 0 0.0196802 0"></feColorMatrix><feBlend in2="effect5_dropShadow_9013_1384" result="effect6_dropShadow_9013_1384"></feBlend><feColorMatrix in="SourceAlpha" result="hardAlpha" values="0 0 0 0 0 0 0 0 0 0 0 0 0 0 0 0 0 0 127 0"></feColorMatrix><feOffset></feOffset><feGaussianBlur stdDeviation="0.5"></feGaussianBlur><feComposite in2="hardAlpha" operator="out"></feComposite><feColorMatrix values="0 0 0 0 0 0 0 0 0 0 0 0 0 0 0 0 0 0 1 0"></feColorMatrix><feBlend in2="effect6_dropShadow_9013_1384" result="effect7_dropShadow_9013_1384"></feBlend><feBlend in="SourceGraphic" in2="effect7_dropShadow_9013_1384" result="shape"></feBlend><feColorMatrix in="SourceAlpha" result="hardAlpha" values="0 0 0 0 0 0 0 0 0 0 0 0 0 0 0 0 0 0 127 0"></feColorMatrix><feOffset dy="2"></feOffset><feGaussianBlur stdDeviation="4"></feGaussianBlur><feComposite in2="hardAlpha" k2="-1" k3="1" operator="arithmetic"></feComposite><feColorMatrix values="0 0 0 0 1 0 0 0 0 1 0 0 0 0 1 0 0 0 0.1 0"></feColorMatrix><feBlend in2="shape" result="effect8_innerShadow_9013_1384"></feBlend><feColorMatrix in="SourceAlpha" result="hardAlpha" values="0 0 0 0 0 0 0 0 0 0 0 0 0 0 0 0 0 0 127 0"></feColorMatrix><feOffset></feOffset><feGaussianBlur stdDeviation="1"></feGaussianBlur><feComposite in2="hardAlpha" k2="-1" k3="1" operator="arithmetic"></feComposite><feColorMatrix values="0 0 0 0 1 0 0 0 0 1 0 0 0 0 1 0 0 0 0.3 0"></feColorMatrix><feBlend in2="effect8_innerShadow_9013_1384" result="effect9_innerShadow_9013_1384"></feBlend></filter><filter id="CalendarBlockedDark_svg__i" width="46.4" height="51.4" x="204.8" y="130.8" color-interpolation-filters="sRGB" filterUnits="userSpaceOnUse"><feFlood flood-opacity="0" result="BackgroundImageFix"></feFlood><feColorMatrix in="SourceAlpha" result="hardAlpha" values="0 0 0 0 0 0 0 0 0 0 0 0 0 0 0 0 0 0 127 0"></feColorMatrix><feOffset></feOffset><feGaussianBlur stdDeviation="0.5"></feGaussianBlur><feComposite in2="hardAlpha" operator="out"></feComposite><feColorMatrix values="0 0 0 0 1 0 0 0 0 1 0 0 0 0 1 0 0 0 0.2 0"></feColorMatrix><feBlend in2="BackgroundImageFix" result="effect1_dropShadow_9013_1384"></feBlend><feBlend in="SourceGraphic" in2="effect1_dropShadow_9013_1384" result="shape"></feBlend><feColorMatrix in="SourceAlpha" result="hardAlpha" values="0 0 0 0 0 0 0 0 0 0 0 0 0 0 0 0 0 0 127 0"></feColorMatrix><feOffset dy="6"></feOffset><feGaussianBlur stdDeviation="5"></feGaussianBlur><feComposite in2="hardAlpha" k2="-1" k3="1" operator="arithmetic"></feComposite><feColorMatrix values="0 0 0 0 0 0 0 0 0 0 0 0 0 0 0 0 0 0 0.05 0"></feColorMatrix><feBlend in2="shape" result="effect2_innerShadow_9013_1384"></feBlend><feColorMatrix in="SourceAlpha" result="hardAlpha" values="0 0 0 0 0 0 0 0 0 0 0 0 0 0 0 0 0 0 127 0"></feColorMatrix><feOffset></feOffset><feGaussianBlur stdDeviation="0.5"></feGaussianBlur><feComposite in2="hardAlpha" k2="-1" k3="1" operator="arithmetic"></feComposite><feColorMatrix values="0 0 0 0 0 0 0 0 0 0 0 0 0 0 0 0 0 0 0.2 0"></feColorMatrix><feBlend in2="effect2_innerShadow_9013_1384" result="effect3_innerShadow_9013_1384"></feBlend></filter></defs></svg>