<svg xmlns="http://www.w3.org/2000/svg" fill="none" viewBox="0 0 29 35"><g filter="url(#CouponCompactDark_svg__a)"><path fill="url(#CouponCompactDark_svg__b)" d="M10 26.8H6c-2.1 0-3.15 0-3.952-.409a3.75 3.75 0 0 1-1.64-1.639C0 23.95 0 22.9 0 20.8v-7.333c0-.65 0-.975.072-1.198a1.5 1.5 0 0 1 1.657-1.024c.232.035.523.18 1.104.471.266.133.4.2.534.245a2 2 0 0 0 1.266 0c.135-.045.268-.112.534-.245l.25-.124c1.49-.746 2.236-1.119 2.842-1.04a2 2 0 0 1 1.399.865c.342.507.342 1.34.342 3.007z"></path><path fill="url(#CouponCompactDark_svg__c)" fill-opacity="0.05" d="M10 26.8H6c-2.1 0-3.15 0-3.952-.409a3.75 3.75 0 0 1-1.64-1.639C0 23.95 0 22.9 0 20.8v-7.333c0-.65 0-.975.072-1.198a1.5 1.5 0 0 1 1.657-1.024c.232.035.523.18 1.104.471.266.133.4.2.534.245a2 2 0 0 0 1.266 0c.135-.045.268-.112.534-.245l.25-.124c1.49-.746 2.236-1.119 2.842-1.04a2 2 0 0 1 1.399.865c.342.507.342 1.34.342 3.007z"></path></g><path stroke="#fff" stroke-opacity="0.1" stroke-width="0.3" d="M9.85 26.65H6c-1.053 0-1.833 0-2.45-.05s-1.058-.15-1.434-.343a3.6 3.6 0 0 1-1.574-1.573c-.191-.376-.291-.817-.341-1.433C.15 22.633.15 21.852.15 20.8v-7.333c0-.326 0-.566.009-.752a1.6 1.6 0 0 1 .055-.4 1.35 1.35 0 0 1 1.492-.922c.096.015.213.053.383.129.17.075.385.182.677.328l.012.007c.255.127.397.198.541.246.442.148.92.148 1.362 0 .144-.048.286-.12.541-.246l.012-.007.25-.124c.747-.374 1.3-.65 1.74-.824.441-.173.75-.235 1.016-.2.526.068.997.36 1.293.799.15.222.233.526.275.998s.042 1.09.042 1.925z"></path><g filter="url(#CouponCompactDark_svg__d)"><path fill="url(#CouponCompactDark_svg__e)" d="m13.128 3.112.807-.44c1.12-.611 1.68-.916 2.271-1.036a4 4 0 0 1 1.588 0c.591.12 1.151.425 2.27 1.036l.808.44c.584.319.876.478 1.183.537a2 2 0 0 0 .868-.026c.303-.077.585-.253 1.15-.606.78-.488 1.17-.732 1.493-.71a1 1 0 0 1 .745.413c.189.262.189.722.189 1.642V18.5c0 2.8 0 4.2-.545 5.27a5 5 0 0 1-2.185 2.185c-1.07.545-2.47.545-5.27.545H4A3.5 3.5 0 0 0 7.5 23V4.362c0-.92 0-1.38.189-1.642a1 1 0 0 1 .745-.414c.322-.02.713.223 1.493.711.565.353.847.53 1.15.606a2 2 0 0 0 .868.026c.307-.06.599-.218 1.183-.537"></path><path fill="url(#CouponCompactDark_svg__f)" d="m13.128 3.112.807-.44c1.12-.611 1.68-.916 2.271-1.036a4 4 0 0 1 1.588 0c.591.12 1.151.425 2.27 1.036l.808.44c.584.319.876.478 1.183.537a2 2 0 0 0 .868-.026c.303-.077.585-.253 1.15-.606.78-.488 1.17-.732 1.493-.71a1 1 0 0 1 .745.413c.189.262.189.722.189 1.642V18.5c0 2.8 0 4.2-.545 5.27a5 5 0 0 1-2.185 2.185c-1.07.545-2.47.545-5.27.545H4A3.5 3.5 0 0 0 7.5 23V4.362c0-.92 0-1.38.189-1.642a1 1 0 0 1 .745-.414c.322-.02.713.223 1.493.711.565.353.847.53 1.15.606a2 2 0 0 0 .868.026c.307-.06.599-.218 1.183-.537"></path><path stroke="url(#CouponCompactDark_svg__g)" stroke-linejoin="round" stroke-width="0.3" d="M4 26.35a.15.15 0 0 0 0 .3h14.507c1.394 0 2.45 0 3.29-.069.842-.069 1.482-.207 2.041-.492a5.15 5.15 0 0 0 2.25-2.25c.286-.56.424-1.2.493-2.043.069-.84.069-1.895.069-3.289V4.354c0-.453 0-.804-.024-1.073-.024-.27-.075-.484-.193-.649a1.15 1.15 0 0 0-.857-.475c-.203-.014-.41.057-.653.18-.241.122-.538.308-.923.549l-.007.004c-.573.358-.832.518-1.107.588a1.85 1.85 0 0 1-.802.023c-.28-.053-.547-.197-1.14-.52l-.808-.441-.027-.015c-1.094-.596-1.672-.912-2.286-1.036a4.15 4.15 0 0 0-1.646 0c-.614.124-1.193.44-2.286 1.036l-.027.015-.808.44c-.593.324-.861.468-1.14.521a1.85 1.85 0 0 1-.802-.023c-.275-.07-.534-.23-1.107-.588L10 2.886c-.385-.24-.682-.427-.923-.549-.242-.123-.45-.194-.653-.18a1.15 1.15 0 0 0-.857.475c-.119.165-.169.379-.193.649s-.024.62-.024 1.073V23c0 1.85-1.5 3.35-3.35 3.35Z"></path></g><path stroke="url(#CouponCompactDark_svg__h)" stroke-linejoin="round" stroke-opacity="0.2" stroke-width="0.3" d="m13.2 3.244.807-.44c1.128-.616 1.665-.907 2.23-1.021a3.9 3.9 0 0 1 1.527 0c.564.114 1.1.405 2.229 1.02l.807.44.027.015c.558.305.87.475 1.2.538.31.06.628.05.933-.028.326-.082.627-.27 1.166-.607l.026-.017c.393-.245.679-.424.907-.54.229-.115.377-.156.497-.148a.85.85 0 0 1 .634.351c.07.098.114.245.137.5s.023.592.023 1.055V18.5c0 1.403 0 2.445-.068 3.272-.067.824-.2 1.42-.46 1.93a4.85 4.85 0 0 1-2.12 2.12c-.51.26-1.106.393-1.93.46-.826.068-1.87.068-3.272.068H5.45A3.65 3.65 0 0 0 7.65 23V4.362c0-.463 0-.8.023-1.055s.067-.402.137-.5a.85.85 0 0 1 .634-.35c.12-.009.268.032.497.148s.514.294.907.54l.026.016c.54.337.84.525 1.166.607.305.078.624.087.933.028.33-.063.641-.233 1.2-.538z"></path><mask id="CouponCompactDark_svg__l" width="12" height="12" x="11" y="9.5" fill="#000" maskUnits="userSpaceOnUse"><path fill="#fff" d="M11 9.5h12v12H11z"></path><path fill-rule="evenodd" d="M15 12a1.5 1.5 0 1 1-3 0 1.5 1.5 0 0 1 3 0m6.207.707-7 7a1 1 0 0 1-1.414-1.414l7-7a1 1 0 0 1 1.414 1.414M20.5 20.5a1.5 1.5 0 1 0 0-3 1.5 1.5 0 0 0 0 3" clip-rule="evenodd"></path></mask><g fill-rule="evenodd" clip-rule="evenodd" filter="url(#CouponCompactDark_svg__i)"><path fill="url(#CouponCompactDark_svg__j)" d="M15 12a1.5 1.5 0 1 1-3 0 1.5 1.5 0 0 1 3 0m6.207.707-7 7a1 1 0 0 1-1.414-1.414l7-7a1 1 0 0 1 1.414 1.414M20.5 20.5a1.5 1.5 0 1 0 0-3 1.5 1.5 0 0 0 0 3"></path><path fill="url(#CouponCompactDark_svg__k)" fill-opacity="0.05" d="M15 12a1.5 1.5 0 1 1-3 0 1.5 1.5 0 0 1 3 0m6.207.707-7 7a1 1 0 0 1-1.414-1.414l7-7a1 1 0 0 1 1.414 1.414M20.5 20.5a1.5 1.5 0 1 0 0-3 1.5 1.5 0 0 0 0 3"></path></g><path fill="#fff" fill-opacity="0.1" d="m14.207 19.707-.212-.212zm7-7-.212-.212zm-8.414 7 .212-.212zm0-1.414.212.212zm7-7 .212.212zm1.414 0-.212.212zM13.5 13.8a1.8 1.8 0 0 0 1.8-1.8h-.6a1.2 1.2 0 0 1-1.2 1.2zM11.7 12a1.8 1.8 0 0 0 1.8 1.8v-.6a1.2 1.2 0 0 1-1.2-1.2zm1.8-1.8a1.8 1.8 0 0 0-1.8 1.8h.6a1.2 1.2 0 0 1 1.2-1.2zm1.8 1.8a1.8 1.8 0 0 0-1.8-1.8v.6a1.2 1.2 0 0 1 1.2 1.2zm-.88 7.92 7-7-.425-.425-7 7 .424.424Zm-1.84 0a1.3 1.3 0 0 0 1.84 0l-.425-.425a.7.7 0 0 1-.99 0l-.424.424Zm0-1.84a1.3 1.3 0 0 0 0 1.84l.425-.425a.7.7 0 0 1 0-.99l-.424-.424Zm7-7-7 7 .425.425 7-7-.424-.424Zm1.84 0a1.3 1.3 0 0 0-1.84 0l.425.425a.7.7 0 0 1 .99 0l.424-.424Zm0 1.84a1.3 1.3 0 0 0 0-1.84l-.425.425a.7.7 0 0 1 0 .99l.424.424ZM21.7 19a1.2 1.2 0 0 1-1.2 1.2v.6a1.8 1.8 0 0 0 1.8-1.8zm-1.2-1.2a1.2 1.2 0 0 1 1.2 1.2h.6a1.8 1.8 0 0 0-1.8-1.8zM19.3 19a1.2 1.2 0 0 1 1.2-1.2v-.6a1.8 1.8 0 0 0-1.8 1.8zm1.2 1.2a1.2 1.2 0 0 1-1.2-1.2h-.6a1.8 1.8 0 0 0 1.8 1.8z" mask="url(#CouponCompactDark_svg__l)"></path><defs><linearGradient id="CouponCompactDark_svg__c" x1="5" x2="5" y1="9.3" y2="26.8" gradientUnits="userSpaceOnUse"><stop stop-color="#fff" stop-opacity="0"></stop><stop offset="1" stop-color="#fff"></stop></linearGradient><linearGradient id="CouponCompactDark_svg__e" x1="6480.99" x2="6480.99" y1="-45.868" y2="22.512" gradientUnits="userSpaceOnUse"><stop stop-color="#FAFAFA"></stop><stop offset="1" stop-color="#fff"></stop></linearGradient><linearGradient id="CouponCompactDark_svg__f" x1="15.25" x2="15.25" y1="1" y2="26.5" gradientUnits="userSpaceOnUse"><stop stop-color="#4F4F4F"></stop><stop offset="1" stop-color="#363636"></stop></linearGradient><linearGradient id="CouponCompactDark_svg__g" x1="9" x2="4.5" y1="24" y2="26.5" gradientUnits="userSpaceOnUse"><stop></stop><stop offset="1" stop-opacity="0"></stop></linearGradient><linearGradient id="CouponCompactDark_svg__h" x1="15.25" x2="15.25" y1="1" y2="26.5" gradientUnits="userSpaceOnUse"><stop stop-color="#fff"></stop><stop offset="1" stop-color="#fff" stop-opacity="0.5"></stop></linearGradient><linearGradient id="CouponCompactDark_svg__k" x1="17" x2="17" y1="10.5" y2="20.5" gradientUnits="userSpaceOnUse"><stop stop-color="#fff" stop-opacity="0"></stop><stop offset="1" stop-color="#fff"></stop></linearGradient><filter id="CouponCompactDark_svg__a" width="10" height="17.257" x="0" y="10.543" color-interpolation-filters="sRGB" filterUnits="userSpaceOnUse"><feFlood flood-opacity="0" result="BackgroundImageFix"></feFlood><feBlend in="SourceGraphic" in2="BackgroundImageFix" result="shape"></feBlend><feColorMatrix in="SourceAlpha" result="hardAlpha" values="0 0 0 0 0 0 0 0 0 0 0 0 0 0 0 0 0 0 127 0"></feColorMatrix><feOffset dy="1"></feOffset><feGaussianBlur stdDeviation="0.75"></feGaussianBlur><feComposite in2="hardAlpha" k2="-1" k3="1" operator="arithmetic"></feComposite><feColorMatrix values="0 0 0 0 0 0 0 0 0 0 0 0 0 0 0 0 0 0 0.1 0"></feColorMatrix><feBlend in2="shape" result="effect1_innerShadow_5959_1585"></feBlend></filter><filter id="CouponCompactDark_svg__d" width="27.1" height="34.544" x="1.7" y="0.256" color-interpolation-filters="sRGB" filterUnits="userSpaceOnUse"><feFlood flood-opacity="0" result="BackgroundImageFix"></feFlood><feColorMatrix in="SourceAlpha" result="hardAlpha" values="0 0 0 0 0 0 0 0 0 0 0 0 0 0 0 0 0 0 127 0"></feColorMatrix><feOffset></feOffset><feGaussianBlur stdDeviation="0.5"></feGaussianBlur><feColorMatrix values="0 0 0 0 0 0 0 0 0 0 0 0 0 0 0 0 0 0 0.07 0"></feColorMatrix><feBlend in2="BackgroundImageFix" result="effect1_dropShadow_5959_1585"></feBlend><feColorMatrix in="SourceAlpha" result="hardAlpha" values="0 0 0 0 0 0 0 0 0 0 0 0 0 0 0 0 0 0 127 0"></feColorMatrix><feOffset dy="1"></feOffset><feGaussianBlur stdDeviation="0.5"></feGaussianBlur><feColorMatrix values="0 0 0 0 0 0 0 0 0 0 0 0 0 0 0 0 0 0 0.06 0"></feColorMatrix><feBlend in2="effect1_dropShadow_5959_1585" result="effect2_dropShadow_5959_1585"></feBlend><feColorMatrix in="SourceAlpha" result="hardAlpha" values="0 0 0 0 0 0 0 0 0 0 0 0 0 0 0 0 0 0 127 0"></feColorMatrix><feOffset dy="3"></feOffset><feGaussianBlur stdDeviation="1"></feGaussianBlur><feColorMatrix values="0 0 0 0 0 0 0 0 0 0 0 0 0 0 0 0 0 0 0.04 0"></feColorMatrix><feBlend in2="effect2_dropShadow_5959_1585" result="effect3_dropShadow_5959_1585"></feBlend><feColorMatrix in="SourceAlpha" result="hardAlpha" values="0 0 0 0 0 0 0 0 0 0 0 0 0 0 0 0 0 0 127 0"></feColorMatrix><feOffset dy="6"></feOffset><feGaussianBlur stdDeviation="1"></feGaussianBlur><feColorMatrix values="0 0 0 0 0 0 0 0 0 0 0 0 0 0 0 0 0 0 0.01 0"></feColorMatrix><feBlend in2="effect3_dropShadow_5959_1585" result="effect4_dropShadow_5959_1585"></feBlend><feBlend in="SourceGraphic" in2="effect4_dropShadow_5959_1585" result="shape"></feBlend></filter><filter id="CouponCompactDark_svg__i" width="10.6" height="11.6" x="11.7" y="10.2" color-interpolation-filters="sRGB" filterUnits="userSpaceOnUse"><feFlood flood-opacity="0" result="BackgroundImageFix"></feFlood><feBlend in="SourceGraphic" in2="BackgroundImageFix" result="shape"></feBlend><feColorMatrix in="SourceAlpha" result="hardAlpha" values="0 0 0 0 0 0 0 0 0 0 0 0 0 0 0 0 0 0 127 0"></feColorMatrix><feOffset dy="1"></feOffset><feGaussianBlur stdDeviation="0.75"></feGaussianBlur><feComposite in2="hardAlpha" k2="-1" k3="1" operator="arithmetic"></feComposite><feColorMatrix values="0 0 0 0 0 0 0 0 0 0 0 0 0 0 0 0 0 0 0.1 0"></feColorMatrix><feBlend in2="shape" result="effect1_innerShadow_5959_1585"></feBlend></filter><radialGradient id="CouponCompactDark_svg__b" cx="0" cy="0" r="1" gradientTransform="matrix(0 14 -9.00455 0 8 14)" gradientUnits="userSpaceOnUse"><stop stop-color="#111"></stop><stop offset="1" stop-color="#2E2E2E"></stop></radialGradient><radialGradient id="CouponCompactDark_svg__j" cx="0" cy="0" r="1" gradientTransform="matrix(0 9.5 -10.6929 0 17 11)" gradientUnits="userSpaceOnUse"><stop stop-color="#101010"></stop><stop offset="1" stop-color="#1E1E1E"></stop></radialGradient></defs></svg>