<svg xmlns="http://www.w3.org/2000/svg" fill="none" viewBox="0 0 30 39"><g filter="url(#EventCompactDark_svg__a)"><rect width="25" height="25" x="2.5" y="5" fill="url(#EventCompactDark_svg__b)" rx="6"></rect><rect width="25.3" height="25.3" x="2.35" y="4.85" stroke="#000" stroke-width="0.3" rx="6.15"></rect></g><rect width="24.7" height="24.7" x="2.65" y="5.15" stroke="url(#EventCompactDark_svg__c)" stroke-opacity="0.2" stroke-width="0.3" rx="5.85"></rect><g filter="url(#EventCompactDark_svg__d)"><rect width="3" height="6" x="7.5" y="2" fill="url(#EventCompactDark_svg__e)" rx="1.5"></rect><rect width="3.3" height="6.3" x="7.35" y="1.85" stroke="#000" stroke-width="0.3" rx="1.65"></rect></g><g filter="url(#EventCompactDark_svg__f)"><rect width="3" height="6" x="19.5" y="2" fill="url(#EventCompactDark_svg__g)" rx="1.5"></rect><rect width="3.3" height="6.3" x="19.35" y="1.85" stroke="#000" stroke-width="0.3" rx="1.65"></rect></g><rect width="2.7" height="5.7" x="7.65" y="2.15" stroke="url(#EventCompactDark_svg__h)" stroke-opacity="0.2" stroke-width="0.3" rx="1.35"></rect><rect width="2.7" height="5.7" x="19.65" y="2.15" stroke="url(#EventCompactDark_svg__i)" stroke-opacity="0.2" stroke-width="0.3" rx="1.35"></rect><g filter="url(#EventCompactDark_svg__j)"><mask id="EventCompactDark_svg__o" width="21" height="17" x="4.5" y="11" fill="#000" maskUnits="userSpaceOnUse"><path fill="#fff" d="M4.5 11h21v17h-21z"></path><path fill-rule="evenodd" d="M5.576 12.617c-.076.184-.076.417-.076.883s0 .699.076.883a1 1 0 0 0 .541.54C6.301 15 6.534 15 7 15h2c.466 0 .699 0 .883-.076a1 1 0 0 0 .54-.541c.077-.184.077-.417.077-.883s0-.699-.076-.883a1 1 0 0 0-.541-.54C9.699 12 9.466 12 9 12H7c-.466 0-.699 0-.883.076a1 1 0 0 0-.54.541Zm.033 9.929C5.5 22.76 5.5 23.04 5.5 23.6v1.8c0 .56 0 .84.109 1.054a1 1 0 0 0 .437.437C6.26 27 6.54 27 7.1 27h1.8c.56 0 .84 0 1.054-.109a1 1 0 0 0 .437-.437c.109-.214.109-.494.109-1.054v-1.8c0-.56 0-.84-.109-1.054a1 1 0 0 0-.437-.437C9.74 22 9.46 22 8.9 22H7.1c-.56 0-.84 0-1.054.109a1 1 0 0 0-.437.437M12.5 13.6c0-.56 0-.84.109-1.054a1 1 0 0 1 .437-.437C13.26 12 13.54 12 14.1 12h1.8c.56 0 .84 0 1.054.109a1 1 0 0 1 .437.437c.109.214.109.494.109 1.054v4.8c0 .56 0 .84-.109 1.054a1 1 0 0 1-.437.437C16.74 20 16.46 20 15.9 20h-1.8c-.56 0-.84 0-1.054-.109a1 1 0 0 1-.437-.437c-.109-.214-.109-.494-.109-1.054zm7.109 1.946c-.109.214-.109.494-.109 1.054v6.8c0 .56 0 .84.109 1.054a1 1 0 0 0 .437.437C20.26 25 20.54 25 21.1 25h1.8c.56 0 .84 0 1.054-.109a1 1 0 0 0 .437-.437c.109-.214.109-.494.109-1.054v-6.8c0-.56 0-.84-.109-1.054a1 1 0 0 0-.437-.437C23.74 15 23.46 15 22.9 15h-1.8c-.56 0-.84 0-1.054.109a1 1 0 0 0-.437.437" clip-rule="evenodd"></path></mask><g fill-rule="evenodd" clip-rule="evenodd" filter="url(#EventCompactDark_svg__k)"><path fill="url(#EventCompactDark_svg__l)" d="M5.576 12.617c-.076.184-.076.417-.076.883s0 .699.076.883a1 1 0 0 0 .541.54C6.301 15 6.534 15 7 15h2c.466 0 .699 0 .883-.076a1 1 0 0 0 .54-.541c.077-.184.077-.417.077-.883s0-.699-.076-.883a1 1 0 0 0-.541-.54C9.699 12 9.466 12 9 12H7c-.466 0-.699 0-.883.076a1 1 0 0 0-.54.541Zm.033 9.929C5.5 22.76 5.5 23.04 5.5 23.6v1.8c0 .56 0 .84.109 1.054a1 1 0 0 0 .437.437C6.26 27 6.54 27 7.1 27h1.8c.56 0 .84 0 1.054-.109a1 1 0 0 0 .437-.437c.109-.214.109-.494.109-1.054v-1.8c0-.56 0-.84-.109-1.054a1 1 0 0 0-.437-.437C9.74 22 9.46 22 8.9 22H7.1c-.56 0-.84 0-1.054.109a1 1 0 0 0-.437.437M12.5 13.6c0-.56 0-.84.109-1.054a1 1 0 0 1 .437-.437C13.26 12 13.54 12 14.1 12h1.8c.56 0 .84 0 1.054.109a1 1 0 0 1 .437.437c.109.214.109.494.109 1.054v4.8c0 .56 0 .84-.109 1.054a1 1 0 0 1-.437.437C16.74 20 16.46 20 15.9 20h-1.8c-.56 0-.84 0-1.054-.109a1 1 0 0 1-.437-.437c-.109-.214-.109-.494-.109-1.054zm7.109 1.946c-.109.214-.109.494-.109 1.054v6.8c0 .56 0 .84.109 1.054a1 1 0 0 0 .437.437C20.26 25 20.54 25 21.1 25h1.8c.56 0 .84 0 1.054-.109a1 1 0 0 0 .437-.437c.109-.214.109-.494.109-1.054v-6.8c0-.56 0-.84-.109-1.054a1 1 0 0 0-.437-.437C23.74 15 23.46 15 22.9 15h-1.8c-.56 0-.84 0-1.054.109a1 1 0 0 0-.437.437"></path><path fill="url(#EventCompactDark_svg__m)" fill-opacity="0.05" d="M5.576 12.617c-.076.184-.076.417-.076.883s0 .699.076.883a1 1 0 0 0 .541.54C6.301 15 6.534 15 7 15h2c.466 0 .699 0 .883-.076a1 1 0 0 0 .54-.541c.077-.184.077-.417.077-.883s0-.699-.076-.883a1 1 0 0 0-.541-.54C9.699 12 9.466 12 9 12H7c-.466 0-.699 0-.883.076a1 1 0 0 0-.54.541Zm.033 9.929C5.5 22.76 5.5 23.04 5.5 23.6v1.8c0 .56 0 .84.109 1.054a1 1 0 0 0 .437.437C6.26 27 6.54 27 7.1 27h1.8c.56 0 .84 0 1.054-.109a1 1 0 0 0 .437-.437c.109-.214.109-.494.109-1.054v-1.8c0-.56 0-.84-.109-1.054a1 1 0 0 0-.437-.437C9.74 22 9.46 22 8.9 22H7.1c-.56 0-.84 0-1.054.109a1 1 0 0 0-.437.437M12.5 13.6c0-.56 0-.84.109-1.054a1 1 0 0 1 .437-.437C13.26 12 13.54 12 14.1 12h1.8c.56 0 .84 0 1.054.109a1 1 0 0 1 .437.437c.109.214.109.494.109 1.054v4.8c0 .56 0 .84-.109 1.054a1 1 0 0 1-.437.437C16.74 20 16.46 20 15.9 20h-1.8c-.56 0-.84 0-1.054-.109a1 1 0 0 1-.437-.437c-.109-.214-.109-.494-.109-1.054zm7.109 1.946c-.109.214-.109.494-.109 1.054v6.8c0 .56 0 .84.109 1.054a1 1 0 0 0 .437.437C20.26 25 20.54 25 21.1 25h1.8c.56 0 .84 0 1.054-.109a1 1 0 0 0 .437-.437c.109-.214.109-.494.109-1.054v-6.8c0-.56 0-.84-.109-1.054a1 1 0 0 0-.437-.437C23.74 15 23.46 15 22.9 15h-1.8c-.56 0-.84 0-1.054.109a1 1 0 0 0-.437.437"></path></g><path fill="url(#EventCompactDark_svg__n)" d="m5.576 12.617-.277-.115zm0 1.766-.277.115zm.541.54-.114.278.114-.277Zm3.766 0 .114.278-.114-.277Zm.54-.54.278.115zm0-1.766.278-.115zm-.54-.54.114-.278zm-3.766 0-.114-.278zM5.61 22.545l-.267-.136zm0 3.908-.267.136zm.437.437.136-.267zm3.908 0-.136-.267zm.437-.437.267.136zm0-3.908.267-.136zm-.437-.437-.136.267zm-3.908 0 .136.267zm6.563-9.563.267.136zm.437-.437.136.267zm3.908 0 .136-.267zm.437.437-.267.136zm0 6.908-.267-.136zm-.437.437.136.267zm-3.908 0 .136-.267zm-.437-.437.267-.136zm7-3.908.267.136zm0 8.908.267-.136zm.437.437.136-.267zm3.908 0 .136.267zm.437-.437-.267-.136zm0-8.908-.267.136zm-.437-.437.136-.267zm-3.908 0-.136-.267zM5.8 13.5c0-.237 0-.4.009-.527a.8.8 0 0 1 .044-.24l-.554-.23a1.3 1.3 0 0 0-.089.43c-.01.152-.01.338-.01.567zm.053.768a.8.8 0 0 1-.044-.241A9 9 0 0 1 5.8 13.5h-.6c0 .229 0 .415.01.568.01.154.033.295.089.43zm.38.379a.7.7 0 0 1-.38-.38l-.554.23a1.3 1.3 0 0 0 .704.704zM7 14.7c-.237 0-.4 0-.527-.009a.8.8 0 0 1-.24-.044l-.23.554c.134.056.275.078.43.089.151.01.338.01.567.01zm2 0H7v.6h2zm.768-.053a.8.8 0 0 1-.241.044c-.127.009-.29.009-.527.009v.6c.229 0 .416 0 .568-.01.154-.01.295-.033.43-.089zm.379-.38a.7.7 0 0 1-.38.38l.23.554a1.3 1.3 0 0 0 .704-.704zm.053-.767c0 .237 0 .4-.009.527a.8.8 0 0 1-.044.24l.554.23c.056-.134.078-.275.089-.43.01-.152.01-.338.01-.567zm-.053-.768a.8.8 0 0 1 .044.241c.009.127.009.29.009.527h.6c0-.229 0-.415-.01-.568a1.3 1.3 0 0 0-.089-.43zm-.38-.379a.7.7 0 0 1 .38.38l.554-.23a1.3 1.3 0 0 0-.704-.704zM9 12.3c.237 0 .4 0 .527.009a.8.8 0 0 1 .24.044l.23-.554a1.3 1.3 0 0 0-.43-.089c-.151-.01-.338-.01-.567-.01zm-2 0h2v-.6H7zm-.768.053a.8.8 0 0 1 .241-.044c.127-.009.29-.009.527-.009v-.6c-.229 0-.416 0-.568.01-.154.01-.295.033-.43.089zm-.379.38a.7.7 0 0 1 .38-.38l-.23-.554a1.3 1.3 0 0 0-.704.704zM5.8 23.6c0-.285 0-.48.013-.632a.8.8 0 0 1 .063-.286l-.534-.272a1.3 1.3 0 0 0-.127.509c-.015.182-.015.406-.015.681zm0 1.8v-1.8h-.6v1.8zm.076.918a.8.8 0 0 1-.063-.286A9 9 0 0 1 5.8 25.4h-.6c0 .275 0 .5.015.681.015.186.047.353.127.51zm.306.306a.7.7 0 0 1-.306-.306l-.534.272a1.3 1.3 0 0 0 .568.568zm.918.076c-.285 0-.48 0-.632-.013a.8.8 0 0 1-.286-.063l-.272.534c.156.08.323.112.509.127.182.015.406.015.681.015zm1.8 0H7.1v.6h1.8zm.918-.076a.8.8 0 0 1-.286.063 9 9 0 0 1-.632.013v.6c.275 0 .5 0 .681-.015.186-.015.353-.047.51-.127zm.306-.306a.7.7 0 0 1-.306.306l.272.534a1.3 1.3 0 0 0 .568-.568zm.076-.918c0 .285 0 .48-.013.632a.8.8 0 0 1-.063.286l.534.272c.08-.156.112-.323.127-.509.015-.182.015-.406.015-.681zm0-1.8v1.8h.6v-1.8zm-.076-.918a.8.8 0 0 1 .063.286c.013.151.013.347.013.632h.6c0-.275 0-.5-.015-.681a1.3 1.3 0 0 0-.127-.51zm-.306-.306a.7.7 0 0 1 .306.306l.534-.272a1.3 1.3 0 0 0-.568-.568zM8.9 22.3c.285 0 .48 0 .632.013a.8.8 0 0 1 .286.063l.272-.534a1.3 1.3 0 0 0-.509-.127C9.4 21.7 9.175 21.7 8.9 21.7zm-1.8 0h1.8v-.6H7.1zm-.918.076a.8.8 0 0 1 .286-.063c.151-.013.347-.013.632-.013v-.6c-.275 0-.5 0-.681.015a1.3 1.3 0 0 0-.51.127zm-.306.306a.7.7 0 0 1 .306-.306l-.272-.534a1.3 1.3 0 0 0-.568.568zm6.466-10.272c-.08.156-.112.323-.127.509-.015.182-.015.406-.015.681h.6c0-.285 0-.48.013-.632a.8.8 0 0 1 .063-.286zm.568-.568a1.3 1.3 0 0 0-.568.568l.534.272a.7.7 0 0 1 .306-.306zm1.19-.142c-.275 0-.5 0-.681.015a1.3 1.3 0 0 0-.51.127l.273.534a.8.8 0 0 1 .286-.063c.151-.013.347-.013.632-.013zm1.8 0h-1.8v.6h1.8zm1.19.142a1.3 1.3 0 0 0-.509-.127c-.182-.015-.406-.015-.681-.015v.6c.285 0 .48 0 .632.013a.8.8 0 0 1 .286.063zm.568.568a1.3 1.3 0 0 0-.568-.568l-.272.534a.7.7 0 0 1 .306.306zm.142 1.19c0-.275 0-.5-.015-.681a1.3 1.3 0 0 0-.127-.51l-.534.273a.8.8 0 0 1 .063.286c.013.151.013.347.013.632zm0 4.8v-4.8h-.6v4.8zm-.142 1.19c.08-.156.112-.323.127-.509.015-.182.015-.406.015-.681h-.6c0 .285 0 .48-.013.632a.8.8 0 0 1-.063.286zm-.568.568a1.3 1.3 0 0 0 .568-.568l-.534-.272a.7.7 0 0 1-.306.306zm-1.19.142c.275 0 .5 0 .681-.015.186-.015.353-.047.51-.127l-.273-.534a.8.8 0 0 1-.286.063 9 9 0 0 1-.632.013zm-1.8 0h1.8v-.6h-1.8zm-1.19-.142c.156.08.323.112.509.127.182.015.406.015.681.015v-.6c-.285 0-.48 0-.632-.013a.8.8 0 0 1-.286-.063zm-.568-.568a1.3 1.3 0 0 0 .568.568l.272-.534a.7.7 0 0 1-.306-.306zM12.2 18.4c0 .275 0 .5.015.681.015.186.047.353.127.51l.534-.273a.8.8 0 0 1-.063-.286 9 9 0 0 1-.013-.632zm0-4.8v4.8h.6v-4.8zm7.6 3c0-.285 0-.48.013-.632a.8.8 0 0 1 .063-.286l-.534-.272c-.08.156-.112.323-.127.509-.015.182-.015.406-.015.681zm0 6.8v-6.8h-.6v6.8zm.076.918a.8.8 0 0 1-.063-.286 9 9 0 0 1-.013-.632h-.6c0 .275 0 .5.015.681.015.186.047.353.127.51zm.306.306a.7.7 0 0 1-.306-.306l-.534.272a1.3 1.3 0 0 0 .568.568zm.918.076c-.285 0-.48 0-.632-.013a.8.8 0 0 1-.286-.063l-.272.534c.156.08.323.112.509.127.182.015.406.015.681.015zm1.8 0h-1.8v.6h1.8zm.918-.076a.8.8 0 0 1-.286.063 9 9 0 0 1-.632.013v.6c.275 0 .5 0 .681-.015.186-.015.353-.047.51-.127zm.306-.306a.7.7 0 0 1-.306.306l.272.534a1.3 1.3 0 0 0 .568-.568zm.076-.918c0 .285 0 .48-.013.632a.8.8 0 0 1-.063.286l.534.272c.08-.156.112-.323.127-.509.015-.182.015-.406.015-.681zm0-6.8v6.8h.6v-6.8zm-.076-.918a.8.8 0 0 1 .063.286c.013.151.013.347.013.632h.6c0-.275 0-.5-.015-.681a1.3 1.3 0 0 0-.127-.51zm-.306-.306a.7.7 0 0 1 .306.306l.534-.272a1.3 1.3 0 0 0-.568-.568zM22.9 15.3c.285 0 .48 0 .632.013a.8.8 0 0 1 .286.063l.272-.534a1.3 1.3 0 0 0-.509-.127c-.182-.015-.406-.015-.681-.015zm-1.8 0h1.8v-.6h-1.8zm-.918.076a.8.8 0 0 1 .286-.063c.151-.013.347-.013.632-.013v-.6c-.275 0-.5 0-.681.015a1.3 1.3 0 0 0-.51.127zm-.306.306a.7.7 0 0 1 .306-.306l-.272-.534a1.3 1.3 0 0 0-.568.568z" mask="url(#EventCompactDark_svg__o)"></path></g><defs><linearGradient id="EventCompactDark_svg__b" x1="15" x2="15" y1="5" y2="30" gradientUnits="userSpaceOnUse"><stop stop-color="#4F4F4F"></stop><stop offset="1" stop-color="#363636"></stop></linearGradient><linearGradient id="EventCompactDark_svg__c" x1="15" x2="15" y1="5" y2="30" gradientUnits="userSpaceOnUse"><stop stop-color="#fff"></stop><stop offset="1" stop-color="#fff" stop-opacity="0.5"></stop></linearGradient><linearGradient id="EventCompactDark_svg__e" x1="9" x2="9" y1="2" y2="8" gradientUnits="userSpaceOnUse"><stop stop-color="#4F4F4F"></stop><stop offset="1" stop-color="#363636"></stop></linearGradient><linearGradient id="EventCompactDark_svg__g" x1="21" x2="21" y1="2" y2="8" gradientUnits="userSpaceOnUse"><stop stop-color="#4F4F4F"></stop><stop offset="1" stop-color="#363636"></stop></linearGradient><linearGradient id="EventCompactDark_svg__h" x1="9" x2="9" y1="2" y2="8" gradientUnits="userSpaceOnUse"><stop stop-color="#fff"></stop><stop offset="1" stop-color="#fff" stop-opacity="0.5"></stop></linearGradient><linearGradient id="EventCompactDark_svg__i" x1="21" x2="21" y1="2" y2="8" gradientUnits="userSpaceOnUse"><stop stop-color="#fff"></stop><stop offset="1" stop-color="#fff" stop-opacity="0.5"></stop></linearGradient><linearGradient id="EventCompactDark_svg__m" x1="22" x2="22" y1="15" y2="25" gradientUnits="userSpaceOnUse"><stop stop-color="#fff" stop-opacity="0"></stop><stop offset="1" stop-color="#fff"></stop></linearGradient><linearGradient id="EventCompactDark_svg__n" x1="15" x2="15" y1="12" y2="27" gradientUnits="userSpaceOnUse"><stop stop-color="#fff" stop-opacity="0.2"></stop><stop offset="1" stop-color="#fff" stop-opacity="0.1"></stop></linearGradient><filter id="EventCompactDark_svg__a" width="29.6" height="34.6" x="0.2" y="3.7" color-interpolation-filters="sRGB" filterUnits="userSpaceOnUse"><feFlood flood-opacity="0" result="BackgroundImageFix"></feFlood><feColorMatrix in="SourceAlpha" result="hardAlpha" values="0 0 0 0 0 0 0 0 0 0 0 0 0 0 0 0 0 0 127 0"></feColorMatrix><feOffset></feOffset><feGaussianBlur stdDeviation="0.5"></feGaussianBlur><feColorMatrix values="0 0 0 0 0 0 0 0 0 0 0 0 0 0 0 0 0 0 0.07 0"></feColorMatrix><feBlend in2="BackgroundImageFix" result="effect1_dropShadow_7638_1853"></feBlend><feColorMatrix in="SourceAlpha" result="hardAlpha" values="0 0 0 0 0 0 0 0 0 0 0 0 0 0 0 0 0 0 127 0"></feColorMatrix><feOffset dy="1"></feOffset><feGaussianBlur stdDeviation="0.5"></feGaussianBlur><feColorMatrix values="0 0 0 0 0 0 0 0 0 0 0 0 0 0 0 0 0 0 0.06 0"></feColorMatrix><feBlend in2="effect1_dropShadow_7638_1853" result="effect2_dropShadow_7638_1853"></feBlend><feColorMatrix in="SourceAlpha" result="hardAlpha" values="0 0 0 0 0 0 0 0 0 0 0 0 0 0 0 0 0 0 127 0"></feColorMatrix><feOffset dy="3"></feOffset><feGaussianBlur stdDeviation="1"></feGaussianBlur><feColorMatrix values="0 0 0 0 0 0 0 0 0 0 0 0 0 0 0 0 0 0 0.04 0"></feColorMatrix><feBlend in2="effect2_dropShadow_7638_1853" result="effect3_dropShadow_7638_1853"></feBlend><feColorMatrix in="SourceAlpha" result="hardAlpha" values="0 0 0 0 0 0 0 0 0 0 0 0 0 0 0 0 0 0 127 0"></feColorMatrix><feOffset dy="6"></feOffset><feGaussianBlur stdDeviation="1"></feGaussianBlur><feColorMatrix values="0 0 0 0 0 0 0 0 0 0 0 0 0 0 0 0 0 0 0.01 0"></feColorMatrix><feBlend in2="effect3_dropShadow_7638_1853" result="effect4_dropShadow_7638_1853"></feBlend><feBlend in="SourceGraphic" in2="effect4_dropShadow_7638_1853" result="shape"></feBlend></filter><filter id="EventCompactDark_svg__d" width="7.6" height="15.6" x="5.2" y="0.7" color-interpolation-filters="sRGB" filterUnits="userSpaceOnUse"><feFlood flood-opacity="0" result="BackgroundImageFix"></feFlood><feColorMatrix in="SourceAlpha" result="hardAlpha" values="0 0 0 0 0 0 0 0 0 0 0 0 0 0 0 0 0 0 127 0"></feColorMatrix><feOffset></feOffset><feGaussianBlur stdDeviation="0.5"></feGaussianBlur><feColorMatrix values="0 0 0 0 0 0 0 0 0 0 0 0 0 0 0 0 0 0 0.07 0"></feColorMatrix><feBlend in2="BackgroundImageFix" result="effect1_dropShadow_7638_1853"></feBlend><feColorMatrix in="SourceAlpha" result="hardAlpha" values="0 0 0 0 0 0 0 0 0 0 0 0 0 0 0 0 0 0 127 0"></feColorMatrix><feOffset dy="1"></feOffset><feGaussianBlur stdDeviation="0.5"></feGaussianBlur><feColorMatrix values="0 0 0 0 0 0 0 0 0 0 0 0 0 0 0 0 0 0 0.06 0"></feColorMatrix><feBlend in2="effect1_dropShadow_7638_1853" result="effect2_dropShadow_7638_1853"></feBlend><feColorMatrix in="SourceAlpha" result="hardAlpha" values="0 0 0 0 0 0 0 0 0 0 0 0 0 0 0 0 0 0 127 0"></feColorMatrix><feOffset dy="3"></feOffset><feGaussianBlur stdDeviation="1"></feGaussianBlur><feColorMatrix values="0 0 0 0 0 0 0 0 0 0 0 0 0 0 0 0 0 0 0.04 0"></feColorMatrix><feBlend in2="effect2_dropShadow_7638_1853" result="effect3_dropShadow_7638_1853"></feBlend><feColorMatrix in="SourceAlpha" result="hardAlpha" values="0 0 0 0 0 0 0 0 0 0 0 0 0 0 0 0 0 0 127 0"></feColorMatrix><feOffset dy="6"></feOffset><feGaussianBlur stdDeviation="1"></feGaussianBlur><feColorMatrix values="0 0 0 0 0 0 0 0 0 0 0 0 0 0 0 0 0 0 0.01 0"></feColorMatrix><feBlend in2="effect3_dropShadow_7638_1853" result="effect4_dropShadow_7638_1853"></feBlend><feBlend in="SourceGraphic" in2="effect4_dropShadow_7638_1853" result="shape"></feBlend></filter><filter id="EventCompactDark_svg__f" width="7.6" height="15.6" x="17.2" y="0.7" color-interpolation-filters="sRGB" filterUnits="userSpaceOnUse"><feFlood flood-opacity="0" result="BackgroundImageFix"></feFlood><feColorMatrix in="SourceAlpha" result="hardAlpha" values="0 0 0 0 0 0 0 0 0 0 0 0 0 0 0 0 0 0 127 0"></feColorMatrix><feOffset></feOffset><feGaussianBlur stdDeviation="0.5"></feGaussianBlur><feColorMatrix values="0 0 0 0 0 0 0 0 0 0 0 0 0 0 0 0 0 0 0.07 0"></feColorMatrix><feBlend in2="BackgroundImageFix" result="effect1_dropShadow_7638_1853"></feBlend><feColorMatrix in="SourceAlpha" result="hardAlpha" values="0 0 0 0 0 0 0 0 0 0 0 0 0 0 0 0 0 0 127 0"></feColorMatrix><feOffset dy="1"></feOffset><feGaussianBlur stdDeviation="0.5"></feGaussianBlur><feColorMatrix values="0 0 0 0 0 0 0 0 0 0 0 0 0 0 0 0 0 0 0.06 0"></feColorMatrix><feBlend in2="effect1_dropShadow_7638_1853" result="effect2_dropShadow_7638_1853"></feBlend><feColorMatrix in="SourceAlpha" result="hardAlpha" values="0 0 0 0 0 0 0 0 0 0 0 0 0 0 0 0 0 0 127 0"></feColorMatrix><feOffset dy="3"></feOffset><feGaussianBlur stdDeviation="1"></feGaussianBlur><feColorMatrix values="0 0 0 0 0 0 0 0 0 0 0 0 0 0 0 0 0 0 0.04 0"></feColorMatrix><feBlend in2="effect2_dropShadow_7638_1853" result="effect3_dropShadow_7638_1853"></feBlend><feColorMatrix in="SourceAlpha" result="hardAlpha" values="0 0 0 0 0 0 0 0 0 0 0 0 0 0 0 0 0 0 127 0"></feColorMatrix><feOffset dy="6"></feOffset><feGaussianBlur stdDeviation="1"></feGaussianBlur><feColorMatrix values="0 0 0 0 0 0 0 0 0 0 0 0 0 0 0 0 0 0 0.01 0"></feColorMatrix><feBlend in2="effect3_dropShadow_7638_1853" result="effect4_dropShadow_7638_1853"></feBlend><feBlend in="SourceGraphic" in2="effect4_dropShadow_7638_1853" result="shape"></feBlend></filter><filter id="EventCompactDark_svg__j" width="19.6" height="16.6" x="5.2" y="11.7" color-interpolation-filters="sRGB" filterUnits="userSpaceOnUse"><feFlood flood-opacity="0" result="BackgroundImageFix"></feFlood><feBlend in="SourceGraphic" in2="BackgroundImageFix" result="shape"></feBlend><feColorMatrix in="SourceAlpha" result="hardAlpha" values="0 0 0 0 0 0 0 0 0 0 0 0 0 0 0 0 0 0 127 0"></feColorMatrix><feOffset dy="1"></feOffset><feGaussianBlur stdDeviation="0.75"></feGaussianBlur><feComposite in2="hardAlpha" k2="-1" k3="1" operator="arithmetic"></feComposite><feColorMatrix values="0 0 0 0 0 0 0 0 0 0 0 0 0 0 0 0 0 0 0.1 0"></feColorMatrix><feBlend in2="shape" result="effect1_innerShadow_7638_1853"></feBlend></filter><filter id="EventCompactDark_svg__k" width="19.6" height="16.6" x="5.2" y="11.7" color-interpolation-filters="sRGB" filterUnits="userSpaceOnUse"><feFlood flood-opacity="0" result="BackgroundImageFix"></feFlood><feBlend in="SourceGraphic" in2="BackgroundImageFix" result="shape"></feBlend><feColorMatrix in="SourceAlpha" result="hardAlpha" values="0 0 0 0 0 0 0 0 0 0 0 0 0 0 0 0 0 0 127 0"></feColorMatrix><feOffset dy="1"></feOffset><feGaussianBlur stdDeviation="0.75"></feGaussianBlur><feComposite in2="hardAlpha" k2="-1" k3="1" operator="arithmetic"></feComposite><feColorMatrix values="0 0 0 0 0 0 0 0 0 0 0 0 0 0 0 0 0 0 0.1 0"></feColorMatrix><feBlend in2="shape" result="effect1_innerShadow_7638_1853"></feBlend></filter><radialGradient id="EventCompactDark_svg__l" cx="0" cy="0" r="1" gradientTransform="matrix(0 9.5 -5.34645 0 22 15.5)" gradientUnits="userSpaceOnUse"><stop stop-color="#101010"></stop><stop offset="1" stop-color="#1E1E1E"></stop></radialGradient></defs></svg>