<svg xmlns="http://www.w3.org/2000/svg" fill="none" viewBox="0 0 404 434"><g filter="url(#FeedbackGrayDark_svg__a)"><rect width="244" height="249" x="80" fill="#fff" rx="22"></rect><rect width="244" height="249" x="80" fill="url(#FeedbackGrayDark_svg__b)" rx="22"></rect><path fill="url(#FeedbackGrayDark_svg__c)" fill-rule="evenodd" d="M105 33.5a8.5 8.5 0 0 1 8.5-8.5h46a8.5 8.5 0 0 1 0 17h-46a8.5 8.5 0 0 1-8.5-8.5m179.008 99.054c-1.67-3.272-6.346-3.272-8.016 0l-1.131 2.216a1.5 1.5 0 0 1-1.1.799l-2.457.391c-3.628.577-5.073 5.024-2.477 7.624l1.758 1.76c.338.339.495.82.42 1.294l-.388 2.457c-.572 3.629 3.211 6.378 6.486 4.712l2.217-1.128a1.5 1.5 0 0 1 1.36 0l2.217 1.128c3.275 1.666 7.058-1.083 6.486-4.712l-.388-2.457a1.5 1.5 0 0 1 .42-1.294l1.758-1.76c2.596-2.6 1.151-7.047-2.477-7.624l-2.457-.391a1.5 1.5 0 0 1-1.1-.799zm-5.344 1.364c.557-1.091 2.115-1.091 2.672 0l1.131 2.215a4.5 4.5 0 0 0 3.301 2.399l2.457.391c1.209.192 1.691 1.675.825 2.541l-1.757 1.76a4.5 4.5 0 0 0-1.261 3.881l.387 2.457c.191 1.21-1.07 2.126-2.162 1.571l-2.217-1.128a4.5 4.5 0 0 0-4.08 0l-2.217 1.128c-1.092.555-2.353-.361-2.162-1.571l.387-2.457a4.5 4.5 0 0 0-1.261-3.881l-1.757-1.76c-.866-.866-.384-2.349.825-2.541l2.457-.391a4.5 4.5 0 0 0 3.301-2.399zm-156.883-2.427c-.742-1.455-2.82-1.455-3.562 0l-2.253 4.414a2 2 0 0 1-1.467 1.066l-4.894.778c-1.613.257-2.255 2.233-1.101 3.389l3.501 3.506c.452.452.661 1.093.561 1.725l-.772 4.895c-.255 1.613 1.427 2.835 2.882 2.094l4.417-2.247a2 2 0 0 1 1.814 0l4.417 2.247c1.455.741 3.137-.481 2.882-2.094l-.772-4.895c-.1-.632.109-1.273.561-1.725l3.501-3.506c1.154-1.156.512-3.132-1.101-3.389l-4.894-.778a2 2 0 0 1-1.467-1.066zM125.5 183c-11.322 0-20.5 9.178-20.5 20.5s9.178 20.5 20.5 20.5h95c11.322 0 20.5-9.178 20.5-20.5s-9.178-20.5-20.5-20.5zm32.719-51.509c.742-1.455 2.82-1.455 3.562 0l2.253 4.414c.291.569.836.965 1.467 1.066l4.894.778c1.613.257 2.255 2.233 1.101 3.389l-3.501 3.506a2 2 0 0 0-.561 1.725l.772 4.895c.255 1.613-1.427 2.835-2.882 2.094l-4.417-2.247a2 2 0 0 0-1.814 0l-4.417 2.247c-1.455.741-3.137-.481-2.882-2.094l.772-4.895a2 2 0 0 0-.561-1.725l-3.501-3.506c-1.154-1.156-.512-3.132 1.101-3.389l4.894-.778a2 2 0 0 0 1.467-1.066zm43.562 0c-.742-1.455-2.82-1.455-3.562 0l-2.253 4.414a2 2 0 0 1-1.467 1.066l-4.894.778c-1.613.257-2.255 2.233-1.101 3.389l3.501 3.506c.452.452.661 1.093.561 1.725l-.772 4.895c-.255 1.613 1.427 2.835 2.882 2.094l4.417-2.247a2 2 0 0 1 1.814 0l4.417 2.247c1.455.741 3.137-.481 2.882-2.094l-.772-4.895c-.1-.632.109-1.273.561-1.725l3.501-3.506c1.154-1.156.512-3.132-1.101-3.389l-4.894-.778a2 2 0 0 1-1.467-1.066zm36.438 0c.742-1.455 2.82-1.455 3.562 0l2.253 4.414c.291.569.836.965 1.467 1.066l4.894.778c1.613.257 2.255 2.233 1.101 3.389l-3.501 3.506a2 2 0 0 0-.561 1.725l.772 4.895c.255 1.613-1.427 2.835-2.882 2.094l-4.417-2.247a2 2 0 0 0-1.814 0l-4.417 2.247c-1.455.741-3.137-.481-2.882-2.094l.772-4.895a2 2 0 0 0-.561-1.725l-3.501-3.506c-1.154-1.156-.512-3.132 1.101-3.389l4.894-.778a2 2 0 0 0 1.467-1.066zM106.744 63.736C105 67.16 105 71.64 105 80.6v7.8c0 8.96 0 13.441 1.744 16.864a16 16 0 0 0 6.992 6.992C117.159 114 121.639 114 130.6 114h142.8c8.961 0 13.441 0 16.864-1.744a16 16 0 0 0 6.992-6.992C299 101.841 299 97.361 299 88.4v-7.8c0-8.96 0-13.441-1.744-16.864a16 16 0 0 0-6.992-6.992C286.841 55 282.361 55 273.4 55H130.6c-8.961 0-13.441 0-16.864 1.744a16 16 0 0 0-6.992 6.992" clip-rule="evenodd"></path></g><g filter="url(#FeedbackGrayDark_svg__d)"><path fill="url(#FeedbackGrayDark_svg__e)" d="M336.915 161.133c3.039-3.843 9.153-2.621 10.482 2.094l4.39 15.579a6 6 0 0 0 3.69 3.998l15.177 5.625c4.594 1.702 5.322 7.895 1.248 10.616l-13.46 8.989a6 6 0 0 0-2.662 4.745l-.66 16.173c-.199 4.895-5.864 7.5-9.71 4.467l-12.709-10.023a6 6 0 0 0-5.336-1.066l-15.585 4.37c-4.716 1.323-8.945-3.259-7.248-7.855l5.605-15.184a6 6 0 0 0-.635-5.404l-8.973-13.471c-2.715-4.078.336-9.515 5.231-9.322l16.173.639a6 6 0 0 0 4.943-2.274z"></path></g><g filter="url(#FeedbackGrayDark_svg__f)"><path fill="url(#FeedbackGrayDark_svg__g)" d="M62.82 34.443c.455-2.564 3.626-3.53 5.435-1.657l5.982 6.197a3.19 3.19 0 0 0 2.734.944l8.531-1.185c2.58-.36 4.48 2.358 3.256 4.657l-4.045 7.604a3.19 3.19 0 0 0-.053 2.893l3.764 7.747c1.138 2.343-.86 4.988-3.424 4.535l-8.482-1.497a3.19 3.19 0 0 0-2.767.843l-6.205 5.974c-1.876 1.806-5.01.725-5.372-1.855l-1.197-8.53a3.19 3.19 0 0 0-1.657-2.37l-7.599-4.056c-2.297-1.226-2.237-4.54.105-5.681l7.742-3.774a3.19 3.19 0 0 0 1.743-2.31z"></path></g><defs><linearGradient id="FeedbackGrayDark_svg__b" x1="202" x2="202" y1="0" y2="249" gradientUnits="userSpaceOnUse"><stop stop-color="#4A4A4A"></stop><stop offset="1" stop-color="#313131"></stop></linearGradient><linearGradient id="FeedbackGrayDark_svg__c" x1="202" x2="202" y1="25" y2="224" gradientUnits="userSpaceOnUse"><stop stop-color="#111"></stop><stop offset="1" stop-color="#1F1F1F"></stop></linearGradient><linearGradient id="FeedbackGrayDark_svg__e" x1="344.208" x2="325.792" y1="151.911" y2="244.089" gradientUnits="userSpaceOnUse"><stop stop-color="#5E5E5E"></stop><stop offset="1" stop-color="#1E1E1E"></stop></linearGradient><linearGradient id="FeedbackGrayDark_svg__g" x1="63.914" x2="78.491" y1="28.289" y2="76.117" gradientUnits="userSpaceOnUse"><stop stop-color="#5E5E5E"></stop><stop offset="1" stop-color="#1E1E1E"></stop></linearGradient><filter id="FeedbackGrayDark_svg__a" width="404" height="429" x="0" y="0" color-interpolation-filters="sRGB" filterUnits="userSpaceOnUse"><feFlood flood-opacity="0" result="BackgroundImageFix"></feFlood><feColorMatrix in="SourceAlpha" result="hardAlpha" values="0 0 0 0 0 0 0 0 0 0 0 0 0 0 0 0 0 0 127 0"></feColorMatrix><feOffset dy="2.767"></feOffset><feGaussianBlur stdDeviation="1.107"></feGaussianBlur><feColorMatrix values="0 0 0 0 0 0 0 0 0 0 0 0 0 0 0 0 0 0 0.07 0"></feColorMatrix><feBlend in2="BackgroundImageFix" result="effect1_dropShadow_1573_31869"></feBlend><feColorMatrix in="SourceAlpha" result="hardAlpha" values="0 0 0 0 0 0 0 0 0 0 0 0 0 0 0 0 0 0 127 0"></feColorMatrix><feOffset dy="6.65"></feOffset><feGaussianBlur stdDeviation="2.66"></feGaussianBlur><feColorMatrix values="0 0 0 0 0 0 0 0 0 0 0 0 0 0 0 0 0 0 0.0503198 0"></feColorMatrix><feBlend in2="effect1_dropShadow_1573_31869" result="effect2_dropShadow_1573_31869"></feBlend><feColorMatrix in="SourceAlpha" result="hardAlpha" values="0 0 0 0 0 0 0 0 0 0 0 0 0 0 0 0 0 0 127 0"></feColorMatrix><feOffset dy="12.522"></feOffset><feGaussianBlur stdDeviation="5.009"></feGaussianBlur><feColorMatrix values="0 0 0 0 0 0 0 0 0 0 0 0 0 0 0 0 0 0 0.0417275 0"></feColorMatrix><feBlend in2="effect2_dropShadow_1573_31869" result="effect3_dropShadow_1573_31869"></feBlend><feColorMatrix in="SourceAlpha" result="hardAlpha" values="0 0 0 0 0 0 0 0 0 0 0 0 0 0 0 0 0 0 127 0"></feColorMatrix><feOffset dy="22.336"></feOffset><feGaussianBlur stdDeviation="8.935"></feGaussianBlur><feColorMatrix values="0 0 0 0 0 0 0 0 0 0 0 0 0 0 0 0 0 0 0.035 0"></feColorMatrix><feBlend in2="effect3_dropShadow_1573_31869" result="effect4_dropShadow_1573_31869"></feBlend><feColorMatrix in="SourceAlpha" result="hardAlpha" values="0 0 0 0 0 0 0 0 0 0 0 0 0 0 0 0 0 0 127 0"></feColorMatrix><feOffset dy="41.778"></feOffset><feGaussianBlur stdDeviation="16.711"></feGaussianBlur><feColorMatrix values="0 0 0 0 0 0 0 0 0 0 0 0 0 0 0 0 0 0 0.0282725 0"></feColorMatrix><feBlend in2="effect4_dropShadow_1573_31869" result="effect5_dropShadow_1573_31869"></feBlend><feColorMatrix in="SourceAlpha" result="hardAlpha" values="0 0 0 0 0 0 0 0 0 0 0 0 0 0 0 0 0 0 127 0"></feColorMatrix><feOffset dy="100"></feOffset><feGaussianBlur stdDeviation="40"></feGaussianBlur><feColorMatrix values="0 0 0 0 0 0 0 0 0 0 0 0 0 0 0 0 0 0 0.0196802 0"></feColorMatrix><feBlend in2="effect5_dropShadow_1573_31869" result="effect6_dropShadow_1573_31869"></feBlend><feBlend in="SourceGraphic" in2="effect6_dropShadow_1573_31869" result="shape"></feBlend><feColorMatrix in="SourceAlpha" result="hardAlpha" values="0 0 0 0 0 0 0 0 0 0 0 0 0 0 0 0 0 0 127 0"></feColorMatrix><feMorphology in="SourceAlpha" radius="1" result="effect7_innerShadow_1573_31869"></feMorphology><feOffset></feOffset><feGaussianBlur stdDeviation="2"></feGaussianBlur><feComposite in2="hardAlpha" k2="-1" k3="1" operator="arithmetic"></feComposite><feColorMatrix values="0 0 0 0 1 0 0 0 0 1 0 0 0 0 1 0 0 0 0.1 0"></feColorMatrix><feBlend in2="shape" result="effect7_innerShadow_1573_31869"></feBlend></filter><filter id="FeedbackGrayDark_svg__d" width="75.059" height="81.865" x="299.511" y="156.852" color-interpolation-filters="sRGB" filterUnits="userSpaceOnUse"><feFlood flood-opacity="0" result="BackgroundImageFix"></feFlood><feBlend in="SourceGraphic" in2="BackgroundImageFix" result="shape"></feBlend><feColorMatrix in="SourceAlpha" result="hardAlpha" values="0 0 0 0 0 0 0 0 0 0 0 0 0 0 0 0 0 0 127 0"></feColorMatrix><feOffset dy="4"></feOffset><feGaussianBlur stdDeviation="2"></feGaussianBlur><feComposite in2="hardAlpha" k2="-1" k3="1" operator="arithmetic"></feComposite><feColorMatrix values="0 0 0 0 1 0 0 0 0 1 0 0 0 0 1 0 0 0 0.31 0"></feColorMatrix><feBlend in2="shape" mode="overlay" result="effect1_innerShadow_1573_31869"></feBlend><feColorMatrix in="SourceAlpha" result="hardAlpha" values="0 0 0 0 0 0 0 0 0 0 0 0 0 0 0 0 0 0 127 0"></feColorMatrix><feOffset dy="-2"></feOffset><feGaussianBlur stdDeviation="5"></feGaussianBlur><feComposite in2="hardAlpha" k2="-1" k3="1" operator="arithmetic"></feComposite><feColorMatrix values="0 0 0 0 1 0 0 0 0 1 0 0 0 0 1 0 0 0 0.1 0"></feColorMatrix><feBlend in2="effect1_innerShadow_1573_31869" result="effect2_innerShadow_1573_31869"></feBlend></filter><filter id="FeedbackGrayDark_svg__f" width="39.105" height="45.585" x="50.033" y="30.808" color-interpolation-filters="sRGB" filterUnits="userSpaceOnUse"><feFlood flood-opacity="0" result="BackgroundImageFix"></feFlood><feBlend in="SourceGraphic" in2="BackgroundImageFix" result="shape"></feBlend><feColorMatrix in="SourceAlpha" result="hardAlpha" values="0 0 0 0 0 0 0 0 0 0 0 0 0 0 0 0 0 0 127 0"></feColorMatrix><feOffset dy="4"></feOffset><feGaussianBlur stdDeviation="2"></feGaussianBlur><feComposite in2="hardAlpha" k2="-1" k3="1" operator="arithmetic"></feComposite><feColorMatrix values="0 0 0 0 1 0 0 0 0 1 0 0 0 0 1 0 0 0 0.31 0"></feColorMatrix><feBlend in2="shape" mode="overlay" result="effect1_innerShadow_1573_31869"></feBlend><feColorMatrix in="SourceAlpha" result="hardAlpha" values="0 0 0 0 0 0 0 0 0 0 0 0 0 0 0 0 0 0 127 0"></feColorMatrix><feOffset dy="-2"></feOffset><feGaussianBlur stdDeviation="0.5"></feGaussianBlur><feComposite in2="hardAlpha" k2="-1" k3="1" operator="arithmetic"></feComposite><feColorMatrix values="0 0 0 0 1 0 0 0 0 1 0 0 0 0 1 0 0 0 0.1 0"></feColorMatrix><feBlend in2="effect1_innerShadow_1573_31869" result="effect2_innerShadow_1573_31869"></feBlend></filter></defs></svg>