<svg xmlns="http://www.w3.org/2000/svg" fill="none" viewBox="0 0 33 36"><g filter="url(#FeedbackCompactDark_svg__a)"><path fill="url(#FeedbackCompactDark_svg__b)" d="M10 2C3 2 3 7.5 3 9v7c0 1.32 0 5.734 4.764 6.778.83.166 1.24.137 1.24 1.355L9 25.97c.004 1.06.985 2.126 2.435.808l2.95-2.654C14.94 23.651 15.52 23 16.676 23H23c7 0 7-5.5 7-7V9c0-1.5 0-7-7-7z"></path><path stroke="#000" stroke-width="0.3" d="M7.732 22.924h.003q.106.022.199.039.187.034.337.07a.85.85 0 0 1 .33.145c.149.119.253.351.253.955L8.85 25.97v.001c.002.568.265 1.16.753 1.427.505.277 1.182.175 1.933-.508l2.948-2.652q.1-.087.201-.176c.501-.443 1.03-.912 1.99-.912H23c1.77 0 3.108-.348 4.119-.901a5.35 5.35 0 0 0 2.137-2.113c.894-1.597.894-3.379.894-4.131v-7.01c0-.752 0-2.534-.894-4.13a5.35 5.35 0 0 0-2.137-2.114c-1.01-.553-2.35-.901-4.119-.901H10c-1.77 0-3.108.348-4.119.901a5.35 5.35 0 0 0-2.137 2.113C2.85 6.461 2.85 8.243 2.85 8.995v7.009c0 .661 0 2.12.607 3.547.613 1.439 1.84 2.84 4.275 3.373Z"></path></g><path stroke="url(#FeedbackCompactDark_svg__c)" stroke-opacity="0.2" stroke-width="0.3" d="M9.154 24.133c0-.615-.1-.977-.365-1.19a1.1 1.1 0 0 0-.444-.2 6 6 0 0 0-.367-.077l-.183-.035c-2.329-.51-3.483-1.839-4.061-3.198C3.15 18.065 3.15 16.66 3.15 16V9c0-.75.002-2.464.856-3.99a5.05 5.05 0 0 1 2.02-1.996C6.982 2.49 8.27 2.15 10 2.15h13c1.73 0 3.017.34 3.975.864a5.05 5.05 0 0 1 2.02 1.997c.853 1.525.855 3.238.855 3.989v7c0 .75-.002 2.464-.856 3.99a5.05 5.05 0 0 1-2.02 1.996c-.957.524-2.244.864-3.974.864h-6.325c-1.08 0-1.693.546-2.193.991q-.1.089-.194.17l-.003.003-2.95 2.653c-.7.637-1.239.66-1.588.468-.365-.2-.595-.672-.597-1.165z"></path><mask id="FeedbackCompactDark_svg__g" width="18" height="6" x="7.5" y="10" fill="#000" maskUnits="userSpaceOnUse"><path fill="#fff" d="M7.5 10h18v6h-18z"></path><path fill-rule="evenodd" d="M12.5 13a2 2 0 1 1-4 0 2 2 0 0 1 4 0m6 0a2 2 0 1 1-4 0 2 2 0 0 1 4 0m4 2a2 2 0 1 0 0-4 2 2 0 0 0 0 4" clip-rule="evenodd"></path></mask><g fill-rule="evenodd" clip-rule="evenodd" filter="url(#FeedbackCompactDark_svg__d)"><path fill="url(#FeedbackCompactDark_svg__e)" d="M12.5 13a2 2 0 1 1-4 0 2 2 0 0 1 4 0m6 0a2 2 0 1 1-4 0 2 2 0 0 1 4 0m4 2a2 2 0 1 0 0-4 2 2 0 0 0 0 4"></path><path fill="url(#FeedbackCompactDark_svg__f)" fill-opacity="0.05" d="M12.5 13a2 2 0 1 1-4 0 2 2 0 0 1 4 0m6 0a2 2 0 1 1-4 0 2 2 0 0 1 4 0m4 2a2 2 0 1 0 0-4 2 2 0 0 0 0 4"></path></g><path fill="#fff" fill-opacity="0.1" d="M10.5 15.3a2.3 2.3 0 0 0 2.3-2.3h-.6a1.7 1.7 0 0 1-1.7 1.7zM8.2 13a2.3 2.3 0 0 0 2.3 2.3v-.6A1.7 1.7 0 0 1 8.8 13zm2.3-2.3A2.3 2.3 0 0 0 8.2 13h.6a1.7 1.7 0 0 1 1.7-1.7zm2.3 2.3a2.3 2.3 0 0 0-2.3-2.3v.6a1.7 1.7 0 0 1 1.7 1.7zm3.7 2.3a2.3 2.3 0 0 0 2.3-2.3h-.6a1.7 1.7 0 0 1-1.7 1.7zM14.2 13a2.3 2.3 0 0 0 2.3 2.3v-.6a1.7 1.7 0 0 1-1.7-1.7zm2.3-2.3a2.3 2.3 0 0 0-2.3 2.3h.6a1.7 1.7 0 0 1 1.7-1.7zm2.3 2.3a2.3 2.3 0 0 0-2.3-2.3v.6a1.7 1.7 0 0 1 1.7 1.7zm5.4 0a1.7 1.7 0 0 1-1.7 1.7v.6a2.3 2.3 0 0 0 2.3-2.3zm-1.7-1.7a1.7 1.7 0 0 1 1.7 1.7h.6a2.3 2.3 0 0 0-2.3-2.3zM20.8 13a1.7 1.7 0 0 1 1.7-1.7v-.6a2.3 2.3 0 0 0-2.3 2.3zm1.7 1.7a1.7 1.7 0 0 1-1.7-1.7h-.6a2.3 2.3 0 0 0 2.3 2.3z" mask="url(#FeedbackCompactDark_svg__g)"></path><defs><linearGradient id="FeedbackCompactDark_svg__b" x1="16.5" x2="16.5" y1="2" y2="27.391" gradientUnits="userSpaceOnUse"><stop stop-color="#4F4F4F"></stop><stop offset="1" stop-color="#363636"></stop></linearGradient><linearGradient id="FeedbackCompactDark_svg__c" x1="16.5" x2="16.5" y1="2" y2="27.391" gradientUnits="userSpaceOnUse"><stop stop-color="#fff"></stop><stop offset="1" stop-color="#fff" stop-opacity="0.5"></stop></linearGradient><linearGradient id="FeedbackCompactDark_svg__f" x1="16.5" x2="16.5" y1="11" y2="15" gradientUnits="userSpaceOnUse"><stop stop-color="#fff" stop-opacity="0"></stop><stop offset="1" stop-color="#fff"></stop></linearGradient><filter id="FeedbackCompactDark_svg__a" width="31.6" height="34.991" x="0.7" y="0.7" color-interpolation-filters="sRGB" filterUnits="userSpaceOnUse"><feFlood flood-opacity="0" result="BackgroundImageFix"></feFlood><feColorMatrix in="SourceAlpha" result="hardAlpha" values="0 0 0 0 0 0 0 0 0 0 0 0 0 0 0 0 0 0 127 0"></feColorMatrix><feOffset></feOffset><feGaussianBlur stdDeviation="0.5"></feGaussianBlur><feColorMatrix values="0 0 0 0 0 0 0 0 0 0 0 0 0 0 0 0 0 0 0.07 0"></feColorMatrix><feBlend in2="BackgroundImageFix" result="effect1_dropShadow_5960_1656"></feBlend><feColorMatrix in="SourceAlpha" result="hardAlpha" values="0 0 0 0 0 0 0 0 0 0 0 0 0 0 0 0 0 0 127 0"></feColorMatrix><feOffset dy="1"></feOffset><feGaussianBlur stdDeviation="0.5"></feGaussianBlur><feColorMatrix values="0 0 0 0 0 0 0 0 0 0 0 0 0 0 0 0 0 0 0.06 0"></feColorMatrix><feBlend in2="effect1_dropShadow_5960_1656" result="effect2_dropShadow_5960_1656"></feBlend><feColorMatrix in="SourceAlpha" result="hardAlpha" values="0 0 0 0 0 0 0 0 0 0 0 0 0 0 0 0 0 0 127 0"></feColorMatrix><feOffset dy="3"></feOffset><feGaussianBlur stdDeviation="1"></feGaussianBlur><feColorMatrix values="0 0 0 0 0 0 0 0 0 0 0 0 0 0 0 0 0 0 0.04 0"></feColorMatrix><feBlend in2="effect2_dropShadow_5960_1656" result="effect3_dropShadow_5960_1656"></feBlend><feColorMatrix in="SourceAlpha" result="hardAlpha" values="0 0 0 0 0 0 0 0 0 0 0 0 0 0 0 0 0 0 127 0"></feColorMatrix><feOffset dy="6"></feOffset><feGaussianBlur stdDeviation="1"></feGaussianBlur><feColorMatrix values="0 0 0 0 0 0 0 0 0 0 0 0 0 0 0 0 0 0 0.01 0"></feColorMatrix><feBlend in2="effect3_dropShadow_5960_1656" result="effect4_dropShadow_5960_1656"></feBlend><feBlend in="SourceGraphic" in2="effect4_dropShadow_5960_1656" result="shape"></feBlend></filter><filter id="FeedbackCompactDark_svg__d" width="16.6" height="5.6" x="8.2" y="10.7" color-interpolation-filters="sRGB" filterUnits="userSpaceOnUse"><feFlood flood-opacity="0" result="BackgroundImageFix"></feFlood><feBlend in="SourceGraphic" in2="BackgroundImageFix" result="shape"></feBlend><feColorMatrix in="SourceAlpha" result="hardAlpha" values="0 0 0 0 0 0 0 0 0 0 0 0 0 0 0 0 0 0 127 0"></feColorMatrix><feOffset dy="1"></feOffset><feGaussianBlur stdDeviation="0.75"></feGaussianBlur><feComposite in2="hardAlpha" k2="-1" k3="1" operator="arithmetic"></feComposite><feColorMatrix values="0 0 0 0 0 0 0 0 0 0 0 0 0 0 0 0 0 0 0.1 0"></feColorMatrix><feBlend in2="shape" result="effect1_innerShadow_5960_1656"></feBlend></filter><radialGradient id="FeedbackCompactDark_svg__e" cx="0" cy="0" r="1" gradientTransform="matrix(0 3.8 -17.1086 0 16.5 11.2)" gradientUnits="userSpaceOnUse"><stop stop-color="#101010"></stop><stop offset="1" stop-color="#1E1E1E"></stop></radialGradient></defs></svg>