<svg xmlns="http://www.w3.org/2000/svg" fill="none" viewBox="0 0 33 36"><g filter="url(#FeedbackCompactLight_svg__a)"><path fill="url(#FeedbackCompactLight_svg__b)" d="M10 2C3 2 3 7.5 3 9v7c0 1.32 0 5.734 4.764 6.778.83.166 1.24.137 1.24 1.355L9 25.97c.004 1.06.985 2.126 2.435.808l2.95-2.654C14.94 23.651 15.52 23 16.676 23H23c7 0 7-5.5 7-7V9c0-1.5 0-7-7-7z"></path><path stroke="#000" stroke-opacity="0.1" stroke-width="0.3" d="M7.732 22.924h.003q.106.022.199.039.187.034.337.07a.85.85 0 0 1 .33.145c.149.119.253.351.253.955L8.85 25.97v.001c.002.568.265 1.16.753 1.427.505.277 1.182.175 1.933-.508l2.948-2.652q.1-.087.201-.176c.501-.443 1.03-.912 1.99-.912H23c1.77 0 3.108-.348 4.119-.901a5.35 5.35 0 0 0 2.137-2.113c.894-1.597.894-3.379.894-4.131v-7.01c0-.752 0-2.534-.894-4.13a5.35 5.35 0 0 0-2.137-2.114c-1.01-.553-2.35-.901-4.119-.901H10c-1.77 0-3.108.348-4.119.901a5.35 5.35 0 0 0-2.137 2.113C2.85 6.461 2.85 8.243 2.85 8.995v7.009c0 .661 0 2.12.607 3.547.613 1.439 1.84 2.84 4.275 3.373Z"></path></g><mask id="FeedbackCompactLight_svg__e" fill="#fff"><path fill-rule="evenodd" d="M12.5 13a2 2 0 1 1-4 0 2 2 0 0 1 4 0m6 0a2 2 0 1 1-4 0 2 2 0 0 1 4 0m4 2a2 2 0 1 0 0-4 2 2 0 0 0 0 4" clip-rule="evenodd"></path></mask><g fill-rule="evenodd" clip-rule="evenodd" filter="url(#FeedbackCompactLight_svg__c)"><path fill="#D9D9D9" d="M12.5 13a2 2 0 1 1-4 0 2 2 0 0 1 4 0m6 0a2 2 0 1 1-4 0 2 2 0 0 1 4 0m4 2a2 2 0 1 0 0-4 2 2 0 0 0 0 4"></path><path fill="url(#FeedbackCompactLight_svg__d)" d="M12.5 13a2 2 0 1 1-4 0 2 2 0 0 1 4 0m6 0a2 2 0 1 1-4 0 2 2 0 0 1 4 0m4 2a2 2 0 1 0 0-4 2 2 0 0 0 0 4"></path></g><path fill="#000" fill-opacity="0.1" d="M10.5 15.3a2.3 2.3 0 0 0 2.3-2.3h-.6a1.7 1.7 0 0 1-1.7 1.7zM8.2 13a2.3 2.3 0 0 0 2.3 2.3v-.6A1.7 1.7 0 0 1 8.8 13zm2.3-2.3A2.3 2.3 0 0 0 8.2 13h.6a1.7 1.7 0 0 1 1.7-1.7zm2.3 2.3a2.3 2.3 0 0 0-2.3-2.3v.6a1.7 1.7 0 0 1 1.7 1.7zm3.7 2.3a2.3 2.3 0 0 0 2.3-2.3h-.6a1.7 1.7 0 0 1-1.7 1.7zM14.2 13a2.3 2.3 0 0 0 2.3 2.3v-.6a1.7 1.7 0 0 1-1.7-1.7zm2.3-2.3a2.3 2.3 0 0 0-2.3 2.3h.6a1.7 1.7 0 0 1 1.7-1.7zm2.3 2.3a2.3 2.3 0 0 0-2.3-2.3v.6a1.7 1.7 0 0 1 1.7 1.7zm5.4 0a1.7 1.7 0 0 1-1.7 1.7v.6a2.3 2.3 0 0 0 2.3-2.3zm-1.7-1.7a1.7 1.7 0 0 1 1.7 1.7h.6a2.3 2.3 0 0 0-2.3-2.3zM20.8 13a1.7 1.7 0 0 1 1.7-1.7v-.6a2.3 2.3 0 0 0-2.3 2.3zm1.7 1.7a1.7 1.7 0 0 1-1.7-1.7h-.6a2.3 2.3 0 0 0 2.3 2.3z" mask="url(#FeedbackCompactLight_svg__e)"></path><defs><linearGradient id="FeedbackCompactLight_svg__b" x1="6606.28" x2="6606.28" y1="-44.668" y2="23.42" gradientUnits="userSpaceOnUse"><stop stop-color="#FAFAFA"></stop><stop offset="1" stop-color="#fff"></stop></linearGradient><linearGradient id="FeedbackCompactLight_svg__d" x1="16.438" x2="16.438" y1="10.91" y2="15.077" gradientUnits="userSpaceOnUse"><stop stop-color="#DCDCDC"></stop><stop offset="1" stop-color="#F1F1F1"></stop></linearGradient><filter id="FeedbackCompactLight_svg__a" width="31.6" height="34.991" x="0.7" y="0.7" color-interpolation-filters="sRGB" filterUnits="userSpaceOnUse"><feFlood flood-opacity="0" result="BackgroundImageFix"></feFlood><feColorMatrix in="SourceAlpha" result="hardAlpha" values="0 0 0 0 0 0 0 0 0 0 0 0 0 0 0 0 0 0 127 0"></feColorMatrix><feOffset></feOffset><feGaussianBlur stdDeviation="0.5"></feGaussianBlur><feColorMatrix values="0 0 0 0 0 0 0 0 0 0 0 0 0 0 0 0 0 0 0.07 0"></feColorMatrix><feBlend in2="BackgroundImageFix" result="effect1_dropShadow_5960_1650"></feBlend><feColorMatrix in="SourceAlpha" result="hardAlpha" values="0 0 0 0 0 0 0 0 0 0 0 0 0 0 0 0 0 0 127 0"></feColorMatrix><feOffset dy="1"></feOffset><feGaussianBlur stdDeviation="0.5"></feGaussianBlur><feColorMatrix values="0 0 0 0 0 0 0 0 0 0 0 0 0 0 0 0 0 0 0.06 0"></feColorMatrix><feBlend in2="effect1_dropShadow_5960_1650" result="effect2_dropShadow_5960_1650"></feBlend><feColorMatrix in="SourceAlpha" result="hardAlpha" values="0 0 0 0 0 0 0 0 0 0 0 0 0 0 0 0 0 0 127 0"></feColorMatrix><feOffset dy="3"></feOffset><feGaussianBlur stdDeviation="1"></feGaussianBlur><feColorMatrix values="0 0 0 0 0 0 0 0 0 0 0 0 0 0 0 0 0 0 0.04 0"></feColorMatrix><feBlend in2="effect2_dropShadow_5960_1650" result="effect3_dropShadow_5960_1650"></feBlend><feColorMatrix in="SourceAlpha" result="hardAlpha" values="0 0 0 0 0 0 0 0 0 0 0 0 0 0 0 0 0 0 127 0"></feColorMatrix><feOffset dy="6"></feOffset><feGaussianBlur stdDeviation="1"></feGaussianBlur><feColorMatrix values="0 0 0 0 0 0 0 0 0 0 0 0 0 0 0 0 0 0 0.01 0"></feColorMatrix><feBlend in2="effect3_dropShadow_5960_1650" result="effect4_dropShadow_5960_1650"></feBlend><feBlend in="SourceGraphic" in2="effect4_dropShadow_5960_1650" result="shape"></feBlend></filter><filter id="FeedbackCompactLight_svg__c" width="16" height="5" x="8.5" y="11" color-interpolation-filters="sRGB" filterUnits="userSpaceOnUse"><feFlood flood-opacity="0" result="BackgroundImageFix"></feFlood><feBlend in="SourceGraphic" in2="BackgroundImageFix" result="shape"></feBlend><feColorMatrix in="SourceAlpha" result="hardAlpha" values="0 0 0 0 0 0 0 0 0 0 0 0 0 0 0 0 0 0 127 0"></feColorMatrix><feOffset dy="1"></feOffset><feGaussianBlur stdDeviation="0.75"></feGaussianBlur><feComposite in2="hardAlpha" k2="-1" k3="1" operator="arithmetic"></feComposite><feColorMatrix values="0 0 0 0 0 0 0 0 0 0 0 0 0 0 0 0 0 0 0.1 0"></feColorMatrix><feBlend in2="shape" result="effect1_innerShadow_5960_1650"></feBlend></filter></defs></svg>