<svg xmlns="http://www.w3.org/2000/svg" fill="none" viewBox="0 0 80 80"><rect width="80" height="80" fill="#000" fill-opacity="0.03" rx="16"></rect><g filter="url(#InviteLight_svg__a)"><path fill="#fff" fill-rule="evenodd" d="M56.306 39.71 44.58 49.045c-1.448 1.083-3.095 1.623-4.737 1.623-1.633 0-3.26-.534-4.679-1.596L23.68 39.697a1.47 1.47 0 0 1-.537-1.13c0-5.672 3.797-9.337 9.674-9.337h14.368c5.877 0 9.67 3.665 9.67 9.338 0 .446-.202.864-.548 1.14Zm7.253-13.722-18.255-12.6c-.064-.038-.134-.065-.199-.103a9.5 9.5 0 0 0-5.103-1.418 9.5 9.5 0 0 0-5.104 1.418c-.068.038-.135.065-.203.102L16.442 25.989C13.604 28.104 12 31.188 12 34.483v17.218C12 60.523 17.728 66 26.953 66h26.094C62.272 66 68 60.523 68 51.7V34.484c0-3.294-1.603-6.379-4.441-8.495Z" clip-rule="evenodd"></path><path stroke="#EAEAED" stroke-width="0.5" d="M56.462 39.906v-.001a1.71 1.71 0 0 0 .642-1.336c0-2.894-.968-5.297-2.707-6.977-1.738-1.678-4.222-2.611-7.213-2.611H32.816c-2.99 0-5.476.933-7.214 2.611-1.74 1.68-2.71 4.083-2.71 6.977 0 .514.234.998.628 1.322l11.487 9.374.008.007c1.46 1.093 3.14 1.646 4.828 1.646 1.698 0 3.397-.559 4.887-1.673l.006-.004zM44.974 13.498l.004.003c.042.024.084.045.116.06l.003.001.074.037 18.242 12.593c2.777 2.072 4.337 5.083 4.337 8.291v17.218c0 4.355-1.413 7.86-3.94 10.277-2.529 2.418-6.2 3.772-10.764 3.772H26.954c-4.563 0-8.234-1.354-10.763-3.772-2.527-2.417-3.94-5.922-3.94-10.277V34.483c0-3.208 1.56-6.22 4.337-8.291L34.827 13.6l.077-.038.003-.001q.05-.022.113-.058l.009-.005a9.26 9.26 0 0 1 4.97-1.38h.005a9.27 9.27 0 0 1 4.97 1.38Z"></path></g><defs><filter id="InviteLight_svg__a" width="70.373" height="74.387" x="4.813" y="10.56" color-interpolation-filters="sRGB" filterUnits="userSpaceOnUse"><feFlood flood-opacity="0" result="BackgroundImageFix"></feFlood><feColorMatrix in="SourceAlpha" result="hardAlpha" values="0 0 0 0 0 0 0 0 0 0 0 0 0 0 0 0 0 0 127 0"></feColorMatrix><feOffset></feOffset><feColorMatrix values="0 0 0 0 0 0 0 0 0 0 0 0 0 0 0 0 0 0 0.02 0"></feColorMatrix><feBlend in2="BackgroundImageFix" result="effect1_dropShadow_927_3018"></feBlend><feColorMatrix in="SourceAlpha" result="hardAlpha" values="0 0 0 0 0 0 0 0 0 0 0 0 0 0 0 0 0 0 127 0"></feColorMatrix><feOffset dy="1.307"></feOffset><feGaussianBlur stdDeviation="1.307"></feGaussianBlur><feColorMatrix values="0 0 0 0 0 0 0 0 0 0 0 0 0 0 0 0 0 0 0.02 0"></feColorMatrix><feBlend in2="effect1_dropShadow_927_3018" result="effect2_dropShadow_927_3018"></feBlend><feColorMatrix in="SourceAlpha" result="hardAlpha" values="0 0 0 0 0 0 0 0 0 0 0 0 0 0 0 0 0 0 127 0"></feColorMatrix><feOffset dy="5.227"></feOffset><feGaussianBlur stdDeviation="2.613"></feGaussianBlur><feColorMatrix values="0 0 0 0 0 0 0 0 0 0 0 0 0 0 0 0 0 0 0.02 0"></feColorMatrix><feBlend in2="effect2_dropShadow_927_3018" result="effect3_dropShadow_927_3018"></feBlend><feColorMatrix in="SourceAlpha" result="hardAlpha" values="0 0 0 0 0 0 0 0 0 0 0 0 0 0 0 0 0 0 127 0"></feColorMatrix><feOffset dy="11.76"></feOffset><feGaussianBlur stdDeviation="3.593"></feGaussianBlur><feColorMatrix values="0 0 0 0 0 0 0 0 0 0 0 0 0 0 0 0 0 0 0.01 0"></feColorMatrix><feBlend in2="effect3_dropShadow_927_3018" result="effect4_dropShadow_927_3018"></feBlend><feColorMatrix in="SourceAlpha" result="hardAlpha" values="0 0 0 0 0 0 0 0 0 0 0 0 0 0 0 0 0 0 127 0"></feColorMatrix><feOffset dy="0.653"></feOffset><feGaussianBlur stdDeviation="0.327"></feGaussianBlur><feComposite in2="hardAlpha" operator="out"></feComposite><feColorMatrix values="0 0 0 0 0 0 0 0 0 0 0 0 0 0 0 0 0 0 0.05 0"></feColorMatrix><feBlend in2="effect4_dropShadow_927_3018" result="effect5_dropShadow_927_3018"></feBlend><feBlend in="SourceGraphic" in2="effect5_dropShadow_927_3018" result="shape"></feBlend></filter></defs></svg>