<svg xmlns="http://www.w3.org/2000/svg" fill="none" viewBox="0 0 356 376"><circle cx="178" cy="98" r="82" fill="url(#NetworkErrorDark_svg__a)"></circle><g filter="url(#NetworkErrorDark_svg__b)"><rect width="13" height="35" x="146" y="68" fill="url(#NetworkErrorDark_svg__c)" rx="4"></rect><rect width="12.5" height="34.5" x="146.25" y="68.25" stroke="#fff" stroke-opacity="0.1" stroke-width="0.5" rx="3.75"></rect></g><g filter="url(#NetworkErrorDark_svg__d)"><rect width="13" height="35" x="196" y="68" fill="url(#NetworkErrorDark_svg__e)" rx="4"></rect><rect width="12.5" height="34.5" x="196.25" y="68.25" stroke="#fff" stroke-opacity="0.1" stroke-width="0.5" rx="3.75"></rect></g><g filter="url(#NetworkErrorDark_svg__f)"><path fill="url(#NetworkErrorDark_svg__g)" d="M167 131.5c0-5.799 4.701-10.5 10.5-10.5s10.5 4.701 10.5 10.5v7.1c0 2.24 0 3.36-.436 4.216a4 4 0 0 1-1.748 1.748c-.856.436-1.976.436-4.216.436h-8.2c-2.24 0-3.36 0-4.216-.436a4 4 0 0 1-1.748-1.748C167 141.96 167 140.84 167 138.6z"></path><path stroke="#fff" stroke-opacity="0.1" stroke-width="0.5" d="M167.25 131.5c0-5.661 4.589-10.25 10.25-10.25s10.25 4.589 10.25 10.25v7.1c0 1.124 0 1.952-.054 2.607-.053.651-.158 1.109-.355 1.495a3.74 3.74 0 0 1-1.639 1.639c-.386.197-.844.302-1.495.355-.655.054-1.483.054-2.607.054h-8.2c-1.124 0-1.952 0-2.607-.054-.651-.053-1.109-.158-1.495-.355a3.74 3.74 0 0 1-1.639-1.639c-.197-.386-.302-.844-.355-1.495-.054-.655-.054-1.483-.054-2.607z"></path></g><g filter="url(#NetworkErrorDark_svg__h)"><path fill="url(#NetworkErrorDark_svg__i)" fill-rule="evenodd" d="M178 180c45.287 0 82-36.713 82-82s-36.713-82-82-82-82 36.713-82 82 36.713 82 82 82m0 15c53.572 0 97-43.428 97-97S231.572 1 178 1 81 44.428 81 98s43.428 97 97 97" clip-rule="evenodd"></path><path stroke="url(#NetworkErrorDark_svg__j)" stroke-opacity="0.01" d="M259.5 98c0 45.011-36.489 81.5-81.5 81.5S96.5 143.011 96.5 98s36.489-81.5 81.5-81.5 81.5 36.489 81.5 81.5ZM178 195.5c53.848 0 97.5-43.652 97.5-97.5S231.848.5 178 .5 80.5 44.152 80.5 98s43.652 97.5 97.5 97.5Z"></path></g><defs><linearGradient id="NetworkErrorDark_svg__a" x1="178" x2="178" y1="16" y2="180" gradientUnits="userSpaceOnUse"><stop stop-color="#222"></stop><stop offset="1" stop-color="#2C2C2C"></stop></linearGradient><linearGradient id="NetworkErrorDark_svg__c" x1="152.5" x2="152.5" y1="68" y2="103" gradientUnits="userSpaceOnUse"><stop></stop><stop offset="1" stop-color="#1C1C1C"></stop></linearGradient><linearGradient id="NetworkErrorDark_svg__e" x1="202.5" x2="202.5" y1="68" y2="103" gradientUnits="userSpaceOnUse"><stop></stop><stop offset="1" stop-color="#1C1C1C"></stop></linearGradient><linearGradient id="NetworkErrorDark_svg__g" x1="177.5" x2="177.5" y1="121" y2="145" gradientUnits="userSpaceOnUse"><stop></stop><stop offset="1" stop-color="#1C1C1C"></stop></linearGradient><linearGradient id="NetworkErrorDark_svg__i" x1="178" x2="178" y1="1" y2="195" gradientUnits="userSpaceOnUse"><stop stop-color="#4A4A4A"></stop><stop offset="1" stop-color="#313131"></stop></linearGradient><linearGradient id="NetworkErrorDark_svg__j" x1="178" x2="178" y1="1" y2="195" gradientUnits="userSpaceOnUse"><stop stop-color="#fff"></stop><stop offset="1" stop-color="#fff" stop-opacity="0"></stop></linearGradient><filter id="NetworkErrorDark_svg__b" width="21" height="45" x="142" y="62" color-interpolation-filters="sRGB" filterUnits="userSpaceOnUse"><feFlood flood-opacity="0" result="BackgroundImageFix"></feFlood><feColorMatrix in="SourceAlpha" result="hardAlpha" values="0 0 0 0 0 0 0 0 0 0 0 0 0 0 0 0 0 0 127 0"></feColorMatrix><feOffset dy="-2"></feOffset><feGaussianBlur stdDeviation="2"></feGaussianBlur><feComposite in2="hardAlpha" operator="out"></feComposite><feColorMatrix values="0 0 0 0 1 0 0 0 0 1 0 0 0 0 1 0 0 0 0.05 0"></feColorMatrix><feBlend in2="BackgroundImageFix" result="effect1_dropShadow_8190_145518"></feBlend><feBlend in="SourceGraphic" in2="effect1_dropShadow_8190_145518" result="shape"></feBlend><feColorMatrix in="SourceAlpha" result="hardAlpha" values="0 0 0 0 0 0 0 0 0 0 0 0 0 0 0 0 0 0 127 0"></feColorMatrix><feOffset dy="4"></feOffset><feGaussianBlur stdDeviation="2"></feGaussianBlur><feComposite in2="hardAlpha" k2="-1" k3="1" operator="arithmetic"></feComposite><feColorMatrix values="0 0 0 0 0 0 0 0 0 0 0 0 0 0 0 0 0 0 1 0"></feColorMatrix><feBlend in2="shape" result="effect2_innerShadow_8190_145518"></feBlend><feColorMatrix in="SourceAlpha" result="hardAlpha" values="0 0 0 0 0 0 0 0 0 0 0 0 0 0 0 0 0 0 127 0"></feColorMatrix><feOffset dy="-4"></feOffset><feGaussianBlur stdDeviation="2"></feGaussianBlur><feComposite in2="hardAlpha" k2="-1" k3="1" operator="arithmetic"></feComposite><feColorMatrix values="0 0 0 0 1 0 0 0 0 1 0 0 0 0 1 0 0 0 0.1 0"></feColorMatrix><feBlend in2="effect2_innerShadow_8190_145518" result="effect3_innerShadow_8190_145518"></feBlend></filter><filter id="NetworkErrorDark_svg__d" width="21" height="45" x="192" y="62" color-interpolation-filters="sRGB" filterUnits="userSpaceOnUse"><feFlood flood-opacity="0" result="BackgroundImageFix"></feFlood><feColorMatrix in="SourceAlpha" result="hardAlpha" values="0 0 0 0 0 0 0 0 0 0 0 0 0 0 0 0 0 0 127 0"></feColorMatrix><feOffset dy="-2"></feOffset><feGaussianBlur stdDeviation="2"></feGaussianBlur><feComposite in2="hardAlpha" operator="out"></feComposite><feColorMatrix values="0 0 0 0 1 0 0 0 0 1 0 0 0 0 1 0 0 0 0.05 0"></feColorMatrix><feBlend in2="BackgroundImageFix" result="effect1_dropShadow_8190_145518"></feBlend><feBlend in="SourceGraphic" in2="effect1_dropShadow_8190_145518" result="shape"></feBlend><feColorMatrix in="SourceAlpha" result="hardAlpha" values="0 0 0 0 0 0 0 0 0 0 0 0 0 0 0 0 0 0 127 0"></feColorMatrix><feOffset dy="4"></feOffset><feGaussianBlur stdDeviation="2"></feGaussianBlur><feComposite in2="hardAlpha" k2="-1" k3="1" operator="arithmetic"></feComposite><feColorMatrix values="0 0 0 0 0 0 0 0 0 0 0 0 0 0 0 0 0 0 1 0"></feColorMatrix><feBlend in2="shape" result="effect2_innerShadow_8190_145518"></feBlend><feColorMatrix in="SourceAlpha" result="hardAlpha" values="0 0 0 0 0 0 0 0 0 0 0 0 0 0 0 0 0 0 127 0"></feColorMatrix><feOffset dy="-4"></feOffset><feGaussianBlur stdDeviation="2"></feGaussianBlur><feComposite in2="hardAlpha" k2="-1" k3="1" operator="arithmetic"></feComposite><feColorMatrix values="0 0 0 0 1 0 0 0 0 1 0 0 0 0 1 0 0 0 0.1 0"></feColorMatrix><feBlend in2="effect2_innerShadow_8190_145518" result="effect3_innerShadow_8190_145518"></feBlend></filter><filter id="NetworkErrorDark_svg__f" width="29" height="34" x="163" y="115" color-interpolation-filters="sRGB" filterUnits="userSpaceOnUse"><feFlood flood-opacity="0" result="BackgroundImageFix"></feFlood><feColorMatrix in="SourceAlpha" result="hardAlpha" values="0 0 0 0 0 0 0 0 0 0 0 0 0 0 0 0 0 0 127 0"></feColorMatrix><feOffset dy="-2"></feOffset><feGaussianBlur stdDeviation="2"></feGaussianBlur><feComposite in2="hardAlpha" operator="out"></feComposite><feColorMatrix values="0 0 0 0 1 0 0 0 0 1 0 0 0 0 1 0 0 0 0.05 0"></feColorMatrix><feBlend in2="BackgroundImageFix" result="effect1_dropShadow_8190_145518"></feBlend><feBlend in="SourceGraphic" in2="effect1_dropShadow_8190_145518" result="shape"></feBlend><feColorMatrix in="SourceAlpha" result="hardAlpha" values="0 0 0 0 0 0 0 0 0 0 0 0 0 0 0 0 0 0 127 0"></feColorMatrix><feOffset dy="4"></feOffset><feGaussianBlur stdDeviation="2"></feGaussianBlur><feComposite in2="hardAlpha" k2="-1" k3="1" operator="arithmetic"></feComposite><feColorMatrix values="0 0 0 0 0 0 0 0 0 0 0 0 0 0 0 0 0 0 1 0"></feColorMatrix><feBlend in2="shape" result="effect2_innerShadow_8190_145518"></feBlend><feColorMatrix in="SourceAlpha" result="hardAlpha" values="0 0 0 0 0 0 0 0 0 0 0 0 0 0 0 0 0 0 127 0"></feColorMatrix><feOffset dy="-4"></feOffset><feGaussianBlur stdDeviation="2"></feGaussianBlur><feComposite in2="hardAlpha" k2="-1" k3="1" operator="arithmetic"></feComposite><feColorMatrix values="0 0 0 0 1 0 0 0 0 1 0 0 0 0 1 0 0 0 0.1 0"></feColorMatrix><feBlend in2="effect2_innerShadow_8190_145518" result="effect3_innerShadow_8190_145518"></feBlend></filter><filter id="NetworkErrorDark_svg__h" width="356" height="376" x="0" y="0" color-interpolation-filters="sRGB" filterUnits="userSpaceOnUse"><feFlood flood-opacity="0" result="BackgroundImageFix"></feFlood><feColorMatrix in="SourceAlpha" result="hardAlpha" values="0 0 0 0 0 0 0 0 0 0 0 0 0 0 0 0 0 0 127 0"></feColorMatrix><feOffset dy="2.767"></feOffset><feGaussianBlur stdDeviation="1.107"></feGaussianBlur><feColorMatrix values="0 0 0 0 0 0 0 0 0 0 0 0 0 0 0 0 0 0 0.07 0"></feColorMatrix><feBlend in2="BackgroundImageFix" result="effect1_dropShadow_8190_145518"></feBlend><feColorMatrix in="SourceAlpha" result="hardAlpha" values="0 0 0 0 0 0 0 0 0 0 0 0 0 0 0 0 0 0 127 0"></feColorMatrix><feOffset dy="6.65"></feOffset><feGaussianBlur stdDeviation="2.66"></feGaussianBlur><feColorMatrix values="0 0 0 0 0 0 0 0 0 0 0 0 0 0 0 0 0 0 0.0503198 0"></feColorMatrix><feBlend in2="effect1_dropShadow_8190_145518" result="effect2_dropShadow_8190_145518"></feBlend><feColorMatrix in="SourceAlpha" result="hardAlpha" values="0 0 0 0 0 0 0 0 0 0 0 0 0 0 0 0 0 0 127 0"></feColorMatrix><feOffset dy="12.522"></feOffset><feGaussianBlur stdDeviation="5.009"></feGaussianBlur><feColorMatrix values="0 0 0 0 0 0 0 0 0 0 0 0 0 0 0 0 0 0 0.0417275 0"></feColorMatrix><feBlend in2="effect2_dropShadow_8190_145518" result="effect3_dropShadow_8190_145518"></feBlend><feColorMatrix in="SourceAlpha" result="hardAlpha" values="0 0 0 0 0 0 0 0 0 0 0 0 0 0 0 0 0 0 127 0"></feColorMatrix><feOffset dy="22.336"></feOffset><feGaussianBlur stdDeviation="8.935"></feGaussianBlur><feColorMatrix values="0 0 0 0 0 0 0 0 0 0 0 0 0 0 0 0 0 0 0.035 0"></feColorMatrix><feBlend in2="effect3_dropShadow_8190_145518" result="effect4_dropShadow_8190_145518"></feBlend><feColorMatrix in="SourceAlpha" result="hardAlpha" values="0 0 0 0 0 0 0 0 0 0 0 0 0 0 0 0 0 0 127 0"></feColorMatrix><feOffset dy="41.778"></feOffset><feGaussianBlur stdDeviation="16.711"></feGaussianBlur><feColorMatrix values="0 0 0 0 0 0 0 0 0 0 0 0 0 0 0 0 0 0 0.0282725 0"></feColorMatrix><feBlend in2="effect4_dropShadow_8190_145518" result="effect5_dropShadow_8190_145518"></feBlend><feColorMatrix in="SourceAlpha" result="hardAlpha" values="0 0 0 0 0 0 0 0 0 0 0 0 0 0 0 0 0 0 127 0"></feColorMatrix><feOffset dy="100"></feOffset><feGaussianBlur stdDeviation="40"></feGaussianBlur><feColorMatrix values="0 0 0 0 0 0 0 0 0 0 0 0 0 0 0 0 0 0 0.0196802 0"></feColorMatrix><feBlend in2="effect5_dropShadow_8190_145518" result="effect6_dropShadow_8190_145518"></feBlend><feBlend in="SourceGraphic" in2="effect6_dropShadow_8190_145518" result="shape"></feBlend></filter></defs></svg>