<svg xmlns="http://www.w3.org/2000/svg" fill="none" viewBox="0 0 263 214"><mask id="NoAccessDark_svg__c" fill="#fff"><path fill-rule="evenodd" d="M63.872 4.368C63 6.08 63 8.32 63 12.8v115.4c0 4.48 0 6.721.872 8.432a8 8 0 0 0 3.496 3.496C69.08 141 71.32 141 75.8 141h2.4c4.48 0 6.72 0 8.432-.872a8 8 0 0 0 3.496-3.496C91 134.921 91 132.68 91 128.2V12.8c0-4.48 0-6.72-.872-8.432A8 8 0 0 0 86.632.872C84.92 0 82.68 0 78.2 0h-2.4c-4.48 0-6.72 0-8.432.872a8 8 0 0 0-3.496 3.496m111 0C174 6.08 174 8.32 174 12.8v115.4c0 4.48 0 6.721.872 8.432a8 8 0 0 0 3.496 3.496c1.711.872 3.952.872 8.432.872h2.4c4.48 0 6.721 0 8.432-.872a8 8 0 0 0 3.496-3.496c.872-1.711.872-3.952.872-8.432V12.8c0-4.48 0-6.72-.872-8.432a8 8 0 0 0-3.496-3.496C195.921 0 193.68 0 189.2 0h-2.4c-4.48 0-6.721 0-8.432.872a8 8 0 0 0-3.496 3.496" clip-rule="evenodd"></path></mask><path fill="url(#NoAccessDark_svg__a)" fill-rule="evenodd" d="M63.872 4.368C63 6.08 63 8.32 63 12.8v115.4c0 4.48 0 6.721.872 8.432a8 8 0 0 0 3.496 3.496C69.08 141 71.32 141 75.8 141h2.4c4.48 0 6.72 0 8.432-.872a8 8 0 0 0 3.496-3.496C91 134.921 91 132.68 91 128.2V12.8c0-4.48 0-6.72-.872-8.432A8 8 0 0 0 86.632.872C84.92 0 82.68 0 78.2 0h-2.4c-4.48 0-6.72 0-8.432.872a8 8 0 0 0-3.496 3.496m111 0C174 6.08 174 8.32 174 12.8v115.4c0 4.48 0 6.721.872 8.432a8 8 0 0 0 3.496 3.496c1.711.872 3.952.872 8.432.872h2.4c4.48 0 6.721 0 8.432-.872a8 8 0 0 0 3.496-3.496c.872-1.711.872-3.952.872-8.432V12.8c0-4.48 0-6.72-.872-8.432a8 8 0 0 0-3.496-3.496C195.921 0 193.68 0 189.2 0h-2.4c-4.48 0-6.721 0-8.432.872a8 8 0 0 0-3.496 3.496" clip-rule="evenodd"></path><path fill="url(#NoAccessDark_svg__b)" d="m63.872 4.368-.446-.227zm0 132.264-.446.227zm3.496 3.496.227-.445zm19.264 0-.227-.445zm3.496-3.496.446.227zm0-132.264-.445.227zM86.632.872l.227-.446zm-19.264 0-.227-.446zm107.504 3.496.445.227zm0 132.264-.446.227zm3.496 3.496.227-.445zm19.264 0 .227.446zm3.496-3.496.446.227zm0-132.264-.445.227zM197.632.872l.227-.446zm-19.264 0-.227-.446zM63.5 12.8c0-2.248 0-3.905.107-5.214.107-1.303.316-2.218.71-2.99l-.89-.455c-.478.938-.705 1.999-.816 3.364-.111 1.359-.111 3.063-.111 5.295zm0 115.4V12.8h-1v115.4zm.817 8.205c-.394-.773-.603-1.688-.71-2.991-.107-1.309-.107-2.966-.107-5.214h-1c0 2.232 0 3.936.11 5.295.112 1.365.339 2.426.816 3.364zm3.278 3.278a7.5 7.5 0 0 1-3.278-3.278l-.89.454a8.5 8.5 0 0 0 3.714 3.715zm8.205.817c-2.248 0-3.905 0-5.214-.107-1.303-.107-2.218-.316-2.99-.71l-.455.891c.938.477 1.999.704 3.364.815 1.359.111 3.063.111 5.295.111zm2.4 0h-2.4v1h2.4zm8.205-.817c-.773.394-1.688.603-2.991.71-1.31.107-2.966.107-5.214.107v1c2.232 0 3.936 0 5.295-.111 1.365-.111 2.426-.338 3.364-.815zm3.278-3.278a7.5 7.5 0 0 1-3.278 3.278l.454.891a8.5 8.5 0 0 0 3.715-3.715zm.817-8.205c0 2.248 0 3.905-.107 5.214-.107 1.303-.316 2.218-.71 2.991l.89.454c.478-.938.705-1.999.816-3.364.111-1.359.111-3.063.111-5.295zm0-115.4v115.4h1V12.8zm-.817-8.205c.394.773.603 1.688.71 2.991.107 1.31.107 2.966.107 5.214h1c0-2.232 0-3.936-.11-5.295-.112-1.365-.339-2.426-.816-3.364zm-3.278-3.278a7.5 7.5 0 0 1 3.278 3.278l.89-.454A8.5 8.5 0 0 0 86.86.426l-.454.891ZM78.2.5c2.248 0 3.905 0 5.214.107 1.303.107 2.218.316 2.99.71l.455-.89c-.938-.478-1.999-.705-3.364-.816C82.136-.5 80.432-.5 78.2-.5zm-2.4 0h2.4v-1h-2.4zm-8.205.817c.773-.394 1.688-.603 2.991-.71C71.896.5 73.552.5 75.8.5v-1c-2.232 0-3.936 0-5.295.11-1.365.112-2.426.339-3.364.816zm-3.278 3.278a7.5 7.5 0 0 1 3.278-3.278l-.454-.89a8.5 8.5 0 0 0-3.715 3.714zM174.5 12.8c0-2.248 0-3.905.107-5.214.107-1.303.316-2.218.71-2.99l-.891-.455c-.477.938-.704 1.999-.815 3.364-.111 1.359-.111 3.063-.111 5.295zm0 115.4V12.8h-1v115.4zm.817 8.205c-.394-.773-.603-1.688-.71-2.991-.107-1.309-.107-2.966-.107-5.214h-1c0 2.232 0 3.936.111 5.295.111 1.365.338 2.426.815 3.364zm3.278 3.278a7.5 7.5 0 0 1-3.278-3.278l-.891.454a8.5 8.5 0 0 0 3.715 3.715zm8.205.817c-2.248 0-3.905 0-5.214-.107-1.303-.107-2.218-.316-2.991-.71l-.454.891c.938.477 1.999.704 3.364.815 1.359.111 3.063.111 5.295.111zm2.4 0h-2.4v1h2.4zm8.205-.817c-.773.394-1.688.603-2.991.71-1.309.107-2.966.107-5.214.107v1c2.232 0 3.936 0 5.295-.111 1.365-.111 2.426-.338 3.364-.815zm3.278-3.278a7.5 7.5 0 0 1-3.278 3.278l.454.891a8.5 8.5 0 0 0 3.715-3.715zm.817-8.205c0 2.248 0 3.905-.107 5.214-.107 1.303-.316 2.218-.71 2.991l.891.454c.477-.938.704-1.999.815-3.364.111-1.359.111-3.063.111-5.295zm0-115.4v115.4h1V12.8zm-.817-8.205c.394.773.603 1.688.71 2.991.107 1.31.107 2.966.107 5.214h1c0-2.232 0-3.936-.111-5.295-.111-1.365-.338-2.426-.815-3.364zm-3.278-3.278a7.5 7.5 0 0 1 3.278 3.278l.891-.454a8.5 8.5 0 0 0-3.715-3.715zM189.2.5c2.248 0 3.905 0 5.214.107 1.303.107 2.218.316 2.991.71l.454-.89c-.938-.478-1.999-.705-3.364-.816C193.136-.5 191.432-.5 189.2-.5zm-2.4 0h2.4v-1h-2.4zm-8.205.817c.773-.394 1.688-.603 2.991-.71C182.895.5 184.552.5 186.8.5v-1c-2.232 0-3.936 0-5.295.11-1.365.112-2.426.339-3.364.816zm-3.278 3.278a7.5 7.5 0 0 1 3.278-3.278l-.454-.89a8.5 8.5 0 0 0-3.715 3.714z" mask="url(#NoAccessDark_svg__c)"></path><g filter="url(#NoAccessDark_svg__d)"><rect width="165" height="40" x="49" y="15" fill="url(#NoAccessDark_svg__e)" rx="8"></rect><rect width="164.5" height="39.5" x="49.25" y="15.25" stroke="url(#NoAccessDark_svg__f)" stroke-width="0.5" rx="7.75"></rect></g><g filter="url(#NoAccessDark_svg__g)"><rect width="165" height="40" x="49" y="65" fill="url(#NoAccessDark_svg__h)" rx="8"></rect><rect width="164.5" height="39.5" x="49.25" y="65.25" stroke="url(#NoAccessDark_svg__i)" stroke-width="0.5" rx="7.75"></rect></g><g filter="url(#NoAccessDark_svg__j)"><path fill="url(#NoAccessDark_svg__k)" d="M120.862 30.67c3.646-6.439 5.468-9.658 7.86-10.732a8 8 0 0 1 6.556 0c2.392 1.074 4.214 4.293 7.86 10.732l25.042 44.223c3.555 6.278 5.333 9.417 5.047 11.99a8 8 0 0 1-3.265 5.6C167.865 94 164.257 94 157.042 94h-50.084c-7.215 0-10.823 0-12.92-1.516a8 8 0 0 1-3.265-5.601c-.286-2.573 1.492-5.712 5.047-11.99z"></path><path stroke="url(#NoAccessDark_svg__l)" stroke-width="0.5" d="M121.079 30.793c1.826-3.224 3.186-5.626 4.389-7.358 1.203-1.734 2.224-2.76 3.356-3.269a7.75 7.75 0 0 1 6.352 0c1.132.509 2.153 1.535 3.356 3.269 1.203 1.732 2.563 4.134 4.389 7.358l25.042 44.223c1.78 3.143 3.106 5.486 3.953 7.364.848 1.88 1.198 3.257 1.063 4.475a7.75 7.75 0 0 1-3.163 5.426c-.994.718-2.365 1.092-4.418 1.28-2.052.189-4.744.189-8.356.189h-50.084c-3.612 0-6.304 0-8.356-.189-2.053-.188-3.425-.562-4.418-1.28a7.75 7.75 0 0 1-3.163-5.426c-.135-1.218.215-2.596 1.063-4.475.847-1.878 2.173-4.22 3.953-7.364z"></path></g><mask id="NoAccessDark_svg__o" fill="#fff"><path fill-rule="evenodd" d="M136.5 43a4.5 4.5 0 0 0-9 0v19a4.5 4.5 0 0 0 9 0zM132 83a5 5 0 1 0 0-10 5 5 0 0 0 0 10" clip-rule="evenodd"></path></mask><path fill="url(#NoAccessDark_svg__m)" fill-rule="evenodd" d="M136.5 43a4.5 4.5 0 0 0-9 0v19a4.5 4.5 0 0 0 9 0zM132 83a5 5 0 1 0 0-10 5 5 0 0 0 0 10" clip-rule="evenodd"></path><path fill="url(#NoAccessDark_svg__n)" d="M136.5 43h-.5zm-9 0h.5zm0 19h-.5zm9 0h.5zM132 39a4 4 0 0 1 4 4h1a5 5 0 0 0-5-5zm-4 4a4 4 0 0 1 4-4v-1a5 5 0 0 0-5 5zm0 19V43h-1v19zm4 4a4 4 0 0 1-4-4h-1a5 5 0 0 0 5 5zm4-4a4 4 0 0 1-4 4v1a5 5 0 0 0 5-5zm0-19v19h1V43zm.5 35a4.5 4.5 0 0 1-4.5 4.5v1a5.5 5.5 0 0 0 5.5-5.5zm-4.5-4.5a4.5 4.5 0 0 1 4.5 4.5h1a5.5 5.5 0 0 0-5.5-5.5zm-4.5 4.5a4.5 4.5 0 0 1 4.5-4.5v-1a5.5 5.5 0 0 0-5.5 5.5zm4.5 4.5a4.5 4.5 0 0 1-4.5-4.5h-1a5.5 5.5 0 0 0 5.5 5.5z" mask="url(#NoAccessDark_svg__o)"></path><defs><linearGradient id="NoAccessDark_svg__a" x1="132.5" x2="132.5" y1="0" y2="141" gradientUnits="userSpaceOnUse"><stop stop-color="#232323"></stop><stop offset="1" stop-color="#2E2E2E"></stop></linearGradient><linearGradient id="NoAccessDark_svg__b" x1="188" x2="188" y1="0" y2="141" gradientUnits="userSpaceOnUse"><stop stop-color="#4E4E4E"></stop><stop offset="1" stop-color="#424242"></stop></linearGradient><linearGradient id="NoAccessDark_svg__e" x1="131.5" x2="131.5" y1="15" y2="55" gradientUnits="userSpaceOnUse"><stop offset="0.005" stop-color="#2E2E2E"></stop><stop offset="1" stop-color="#393939"></stop></linearGradient><linearGradient id="NoAccessDark_svg__f" x1="131.5" x2="131.5" y1="15" y2="55" gradientUnits="userSpaceOnUse"><stop stop-color="#585858"></stop><stop offset="1" stop-color="#4D4D4D"></stop></linearGradient><linearGradient id="NoAccessDark_svg__h" x1="131.5" x2="131.5" y1="65" y2="105" gradientUnits="userSpaceOnUse"><stop offset="0.005" stop-color="#2E2E2E"></stop><stop offset="1" stop-color="#393939"></stop></linearGradient><linearGradient id="NoAccessDark_svg__i" x1="131.5" x2="131.5" y1="65" y2="105" gradientUnits="userSpaceOnUse"><stop stop-color="#585858"></stop><stop offset="1" stop-color="#4D4D4D"></stop></linearGradient><linearGradient id="NoAccessDark_svg__k" x1="132" x2="132" y1="11" y2="94" gradientUnits="userSpaceOnUse"><stop stop-color="#555"></stop><stop offset="1" stop-color="#424242"></stop></linearGradient><linearGradient id="NoAccessDark_svg__l" x1="132" x2="132" y1="11" y2="94" gradientUnits="userSpaceOnUse"><stop stop-color="#6A6A6A"></stop><stop offset="1" stop-color="#525252"></stop></linearGradient><linearGradient id="NoAccessDark_svg__m" x1="132" x2="132" y1="38.5" y2="83" gradientUnits="userSpaceOnUse"><stop stop-color="#111"></stop><stop offset="1" stop-color="#1F1F1F"></stop></linearGradient><linearGradient id="NoAccessDark_svg__n" x1="132" x2="132" y1="38.5" y2="83" gradientUnits="userSpaceOnUse"><stop stop-color="#555"></stop><stop offset="1" stop-color="#4B4B4B"></stop></linearGradient><filter id="NoAccessDark_svg__d" width="261.271" height="148.305" x="0.864" y="15" color-interpolation-filters="sRGB" filterUnits="userSpaceOnUse"><feFlood flood-opacity="0" result="BackgroundImageFix"></feFlood><feColorMatrix in="SourceAlpha" result="hardAlpha" values="0 0 0 0 0 0 0 0 0 0 0 0 0 0 0 0 0 0 127 0"></feColorMatrix><feOffset dy="1.665"></feOffset><feGaussianBlur stdDeviation="0.666"></feGaussianBlur><feColorMatrix values="0 0 0 0 0 0 0 0 0 0 0 0 0 0 0 0 0 0 0.07 0"></feColorMatrix><feBlend in2="BackgroundImageFix" result="effect1_dropShadow_10756_191243"></feBlend><feColorMatrix in="SourceAlpha" result="hardAlpha" values="0 0 0 0 0 0 0 0 0 0 0 0 0 0 0 0 0 0 127 0"></feColorMatrix><feOffset dy="4.001"></feOffset><feGaussianBlur stdDeviation="1.601"></feGaussianBlur><feColorMatrix values="0 0 0 0 0 0 0 0 0 0 0 0 0 0 0 0 0 0 0.0503198 0"></feColorMatrix><feBlend in2="effect1_dropShadow_10756_191243" result="effect2_dropShadow_10756_191243"></feBlend><feColorMatrix in="SourceAlpha" result="hardAlpha" values="0 0 0 0 0 0 0 0 0 0 0 0 0 0 0 0 0 0 127 0"></feColorMatrix><feOffset dy="7.534"></feOffset><feGaussianBlur stdDeviation="3.014"></feGaussianBlur><feColorMatrix values="0 0 0 0 0 0 0 0 0 0 0 0 0 0 0 0 0 0 0.0417275 0"></feColorMatrix><feBlend in2="effect2_dropShadow_10756_191243" result="effect3_dropShadow_10756_191243"></feBlend><feColorMatrix in="SourceAlpha" result="hardAlpha" values="0 0 0 0 0 0 0 0 0 0 0 0 0 0 0 0 0 0 127 0"></feColorMatrix><feOffset dy="13.44"></feOffset><feGaussianBlur stdDeviation="5.376"></feGaussianBlur><feColorMatrix values="0 0 0 0 0 0 0 0 0 0 0 0 0 0 0 0 0 0 0.035 0"></feColorMatrix><feBlend in2="effect3_dropShadow_10756_191243" result="effect4_dropShadow_10756_191243"></feBlend><feColorMatrix in="SourceAlpha" result="hardAlpha" values="0 0 0 0 0 0 0 0 0 0 0 0 0 0 0 0 0 0 127 0"></feColorMatrix><feOffset dy="25.137"></feOffset><feGaussianBlur stdDeviation="10.055"></feGaussianBlur><feColorMatrix values="0 0 0 0 0 0 0 0 0 0 0 0 0 0 0 0 0 0 0.0282725 0"></feColorMatrix><feBlend in2="effect4_dropShadow_10756_191243" result="effect5_dropShadow_10756_191243"></feBlend><feColorMatrix in="SourceAlpha" result="hardAlpha" values="0 0 0 0 0 0 0 0 0 0 0 0 0 0 0 0 0 0 127 0"></feColorMatrix><feOffset dy="60.169"></feOffset><feGaussianBlur stdDeviation="24.068"></feGaussianBlur><feColorMatrix values="0 0 0 0 0 0 0 0 0 0 0 0 0 0 0 0 0 0 0.0196802 0"></feColorMatrix><feBlend in2="effect5_dropShadow_10756_191243" result="effect6_dropShadow_10756_191243"></feBlend><feBlend in="SourceGraphic" in2="effect6_dropShadow_10756_191243" result="shape"></feBlend></filter><filter id="NoAccessDark_svg__g" width="261.271" height="148.305" x="0.864" y="65" color-interpolation-filters="sRGB" filterUnits="userSpaceOnUse"><feFlood flood-opacity="0" result="BackgroundImageFix"></feFlood><feColorMatrix in="SourceAlpha" result="hardAlpha" values="0 0 0 0 0 0 0 0 0 0 0 0 0 0 0 0 0 0 127 0"></feColorMatrix><feOffset dy="1.665"></feOffset><feGaussianBlur stdDeviation="0.666"></feGaussianBlur><feColorMatrix values="0 0 0 0 0 0 0 0 0 0 0 0 0 0 0 0 0 0 0.07 0"></feColorMatrix><feBlend in2="BackgroundImageFix" result="effect1_dropShadow_10756_191243"></feBlend><feColorMatrix in="SourceAlpha" result="hardAlpha" values="0 0 0 0 0 0 0 0 0 0 0 0 0 0 0 0 0 0 127 0"></feColorMatrix><feOffset dy="4.001"></feOffset><feGaussianBlur stdDeviation="1.601"></feGaussianBlur><feColorMatrix values="0 0 0 0 0 0 0 0 0 0 0 0 0 0 0 0 0 0 0.0503198 0"></feColorMatrix><feBlend in2="effect1_dropShadow_10756_191243" result="effect2_dropShadow_10756_191243"></feBlend><feColorMatrix in="SourceAlpha" result="hardAlpha" values="0 0 0 0 0 0 0 0 0 0 0 0 0 0 0 0 0 0 127 0"></feColorMatrix><feOffset dy="7.534"></feOffset><feGaussianBlur stdDeviation="3.014"></feGaussianBlur><feColorMatrix values="0 0 0 0 0 0 0 0 0 0 0 0 0 0 0 0 0 0 0.0417275 0"></feColorMatrix><feBlend in2="effect2_dropShadow_10756_191243" result="effect3_dropShadow_10756_191243"></feBlend><feColorMatrix in="SourceAlpha" result="hardAlpha" values="0 0 0 0 0 0 0 0 0 0 0 0 0 0 0 0 0 0 127 0"></feColorMatrix><feOffset dy="13.44"></feOffset><feGaussianBlur stdDeviation="5.376"></feGaussianBlur><feColorMatrix values="0 0 0 0 0 0 0 0 0 0 0 0 0 0 0 0 0 0 0.035 0"></feColorMatrix><feBlend in2="effect3_dropShadow_10756_191243" result="effect4_dropShadow_10756_191243"></feBlend><feColorMatrix in="SourceAlpha" result="hardAlpha" values="0 0 0 0 0 0 0 0 0 0 0 0 0 0 0 0 0 0 127 0"></feColorMatrix><feOffset dy="25.137"></feOffset><feGaussianBlur stdDeviation="10.055"></feGaussianBlur><feColorMatrix values="0 0 0 0 0 0 0 0 0 0 0 0 0 0 0 0 0 0 0.0282725 0"></feColorMatrix><feBlend in2="effect4_dropShadow_10756_191243" result="effect5_dropShadow_10756_191243"></feBlend><feColorMatrix in="SourceAlpha" result="hardAlpha" values="0 0 0 0 0 0 0 0 0 0 0 0 0 0 0 0 0 0 127 0"></feColorMatrix><feOffset dy="60.169"></feOffset><feGaussianBlur stdDeviation="24.068"></feGaussianBlur><feColorMatrix values="0 0 0 0 0 0 0 0 0 0 0 0 0 0 0 0 0 0 0.0196802 0"></feColorMatrix><feBlend in2="effect5_dropShadow_10756_191243" result="effect6_dropShadow_10756_191243"></feBlend><feBlend in="SourceGraphic" in2="effect6_dropShadow_10756_191243" result="shape"></feBlend></filter><filter id="NoAccessDark_svg__j" width="178.787" height="183.069" x="42.607" y="19.236" color-interpolation-filters="sRGB" filterUnits="userSpaceOnUse"><feFlood flood-opacity="0" result="BackgroundImageFix"></feFlood><feColorMatrix in="SourceAlpha" result="hardAlpha" values="0 0 0 0 0 0 0 0 0 0 0 0 0 0 0 0 0 0 127 0"></feColorMatrix><feOffset dy="1.665"></feOffset><feGaussianBlur stdDeviation="0.666"></feGaussianBlur><feColorMatrix values="0 0 0 0 0 0 0 0 0 0 0 0 0 0 0 0 0 0 0.07 0"></feColorMatrix><feBlend in2="BackgroundImageFix" result="effect1_dropShadow_10756_191243"></feBlend><feColorMatrix in="SourceAlpha" result="hardAlpha" values="0 0 0 0 0 0 0 0 0 0 0 0 0 0 0 0 0 0 127 0"></feColorMatrix><feOffset dy="4.001"></feOffset><feGaussianBlur stdDeviation="1.601"></feGaussianBlur><feColorMatrix values="0 0 0 0 0 0 0 0 0 0 0 0 0 0 0 0 0 0 0.0503198 0"></feColorMatrix><feBlend in2="effect1_dropShadow_10756_191243" result="effect2_dropShadow_10756_191243"></feBlend><feColorMatrix in="SourceAlpha" result="hardAlpha" values="0 0 0 0 0 0 0 0 0 0 0 0 0 0 0 0 0 0 127 0"></feColorMatrix><feOffset dy="7.534"></feOffset><feGaussianBlur stdDeviation="3.014"></feGaussianBlur><feColorMatrix values="0 0 0 0 0 0 0 0 0 0 0 0 0 0 0 0 0 0 0.0417275 0"></feColorMatrix><feBlend in2="effect2_dropShadow_10756_191243" result="effect3_dropShadow_10756_191243"></feBlend><feColorMatrix in="SourceAlpha" result="hardAlpha" values="0 0 0 0 0 0 0 0 0 0 0 0 0 0 0 0 0 0 127 0"></feColorMatrix><feOffset dy="13.44"></feOffset><feGaussianBlur stdDeviation="5.376"></feGaussianBlur><feColorMatrix values="0 0 0 0 0 0 0 0 0 0 0 0 0 0 0 0 0 0 0.035 0"></feColorMatrix><feBlend in2="effect3_dropShadow_10756_191243" result="effect4_dropShadow_10756_191243"></feBlend><feColorMatrix in="SourceAlpha" result="hardAlpha" values="0 0 0 0 0 0 0 0 0 0 0 0 0 0 0 0 0 0 127 0"></feColorMatrix><feOffset dy="25.137"></feOffset><feGaussianBlur stdDeviation="10.055"></feGaussianBlur><feColorMatrix values="0 0 0 0 0 0 0 0 0 0 0 0 0 0 0 0 0 0 0.0282725 0"></feColorMatrix><feBlend in2="effect4_dropShadow_10756_191243" result="effect5_dropShadow_10756_191243"></feBlend><feColorMatrix in="SourceAlpha" result="hardAlpha" values="0 0 0 0 0 0 0 0 0 0 0 0 0 0 0 0 0 0 127 0"></feColorMatrix><feOffset dy="60.169"></feOffset><feGaussianBlur stdDeviation="24.068"></feGaussianBlur><feColorMatrix values="0 0 0 0 0 0 0 0 0 0 0 0 0 0 0 0 0 0 0.0196802 0"></feColorMatrix><feBlend in2="effect5_dropShadow_10756_191243" result="effect6_dropShadow_10756_191243"></feBlend><feBlend in="SourceGraphic" in2="effect6_dropShadow_10756_191243" result="shape"></feBlend></filter></defs></svg>