<svg xmlns="http://www.w3.org/2000/svg" fill="none" viewBox="0 0 24 37"><g filter="url(#PaymentCompactLight_svg__a)"><path fill="url(#PaymentCompactLight_svg__b)" d="m8.128 3.112.807-.44c1.12-.611 1.68-.916 2.271-1.036a4 4 0 0 1 1.588 0c.591.12 1.151.425 2.27 1.036l.808.44c.584.319.876.478 1.183.537a2 2 0 0 0 .868-.026c.303-.077.585-.253 1.15-.606.78-.488 1.17-.732 1.493-.71a1 1 0 0 1 .745.413c.189.261.189.722.189 1.642v21.276c0 .92 0 1.38-.189 1.642a1 1 0 0 1-.745.414c-.322.02-.713-.223-1.493-.711-.565-.353-.847-.53-1.15-.606a2 2 0 0 0-.868-.026c-.307.06-.599.218-1.183.537l-.807.44c-1.12.611-1.68.916-2.271 1.036a4 4 0 0 1-1.588 0c-.591-.12-1.151-.425-2.27-1.036l-.808-.44c-.584-.319-.876-.478-1.183-.537a2 2 0 0 0-.868.026c-.303.077-.585.253-1.15.606-.78.488-1.17.732-1.493.71a1 1 0 0 1-.745-.413c-.189-.262-.189-.722-.189-1.642V4.362c0-.92 0-1.38.189-1.642a1 1 0 0 1 .745-.414c.322-.02.713.223 1.493.711.565.353.847.53 1.15.606a2 2 0 0 0 .868.026c.307-.06.599-.218 1.183-.537"></path><path stroke="url(#PaymentCompactLight_svg__c)" stroke-linejoin="round" stroke-opacity="0.1" stroke-width="0.3" d="m15.136 2.54-.027-.015c-1.093-.596-1.672-.912-2.286-1.036a4.15 4.15 0 0 0-1.646 0c-.614.124-1.193.44-2.286 1.036l-.027.015-.808.44c-.593.324-.86.468-1.14.521a1.85 1.85 0 0 1-.802-.023c-.275-.07-.534-.23-1.107-.588L5 2.886c-.385-.24-.682-.427-.923-.549-.242-.123-.45-.194-.653-.18a1.15 1.15 0 0 0-.857.475c-.119.165-.169.379-.193.649s-.024.62-.024 1.073v21.292c0 .453 0 .804.024 1.073.024.27.074.484.193.649.2.278.515.453.857.475.203.014.41-.057.653-.18.241-.122.538-.308.923-.549l.007-.004c.573-.358.832-.518 1.107-.588a1.85 1.85 0 0 1 .802-.023c.28.053.547.197 1.14.52l.808.441.027.015c1.093.596 1.672.912 2.286 1.036.543.11 1.103.11 1.646 0 .614-.124 1.193-.44 2.286-1.036l.027-.015.808-.44c.593-.324.86-.468 1.14-.521.266-.051.54-.043.802.023.275.07.534.23 1.107.588l.007.004c.385.24.682.427.923.549.242.123.45.194.653.18a1.15 1.15 0 0 0 .857-.475c.119-.165.169-.379.193-.649s.024-.62.024-1.073V4.354c0-.453 0-.804-.024-1.073-.024-.27-.074-.484-.193-.649a1.15 1.15 0 0 0-.857-.475c-.203-.014-.41.057-.653.18-.241.122-.538.308-.923.549l-.007.004-.005.003c-.57.356-.828.515-1.102.585a1.85 1.85 0 0 1-.802.023c-.28-.053-.547-.197-1.14-.52z"></path></g><mask id="PaymentCompactLight_svg__f" fill="#fff"><path fill-rule="evenodd" d="M6 9.5c0-.465 0-.697.051-.888a1.5 1.5 0 0 1 1.06-1.06C7.304 7.5 7.536 7.5 8 7.5s.697 0 .888.051a1.5 1.5 0 0 1 1.06 1.06c.052.192.052.424.052.889s0 .697-.051.888a1.5 1.5 0 0 1-1.06 1.06c-.192.052-.424.052-.889.052s-.697 0-.888-.051a1.5 1.5 0 0 1-1.06-1.06C6 10.197 6 9.964 6 9.5m0 7a1 1 0 0 1 1-1h10.5a1 1 0 1 1 0 2H7a1 1 0 0 1-1-1m1 3a1 1 0 1 0 0 2h6a1 1 0 1 0 0-2z" clip-rule="evenodd"></path></mask><g filter="url(#PaymentCompactLight_svg__d)"><path fill="url(#PaymentCompactLight_svg__e)" fill-rule="evenodd" d="M6 9.5c0-.465 0-.697.051-.888a1.5 1.5 0 0 1 1.06-1.06C7.304 7.5 7.536 7.5 8 7.5s.697 0 .888.051a1.5 1.5 0 0 1 1.06 1.06c.052.192.052.424.052.889s0 .697-.051.888a1.5 1.5 0 0 1-1.06 1.06c-.192.052-.424.052-.889.052s-.697 0-.888-.051a1.5 1.5 0 0 1-1.06-1.06C6 10.197 6 9.964 6 9.5m0 7a1 1 0 0 1 1-1h10.5a1 1 0 1 1 0 2H7a1 1 0 0 1-1-1m1 3a1 1 0 1 0 0 2h6a1 1 0 1 0 0-2z" clip-rule="evenodd"></path></g><path fill="#000" fill-opacity="0.1" d="m6.051 8.612.29.077zm1.06-1.06.078.289-.077-.29Zm1.777 0 .078-.29zm1.06 1.06.29-.078zm0 1.776.29.078zm-1.06 1.06.078.29zm-1.776 0-.078.29zm-1.06-1.06-.29.078zm-.29-1.854c-.065.239-.062.52-.062.966h.6c0-.484.003-.668.04-.81l-.579-.156Zm1.272-1.273a1.8 1.8 0 0 0-1.273 1.273l.58.155a1.2 1.2 0 0 1 .848-.848zM8 7.2c-.446 0-.727-.003-.966.061l.155.58c.143-.038.327-.041.811-.041zm.966.061C8.727 7.197 8.446 7.2 8 7.2v.6c.484 0 .668.003.81.04zm1.273 1.273a1.8 1.8 0 0 0-1.273-1.273l-.155.58a1.2 1.2 0 0 1 .848.848zm.061.966c0-.446.003-.727-.061-.966l-.58.155c.038.143.041.327.041.811zm-.061.966c.064-.239.061-.52.061-.966h-.6c0 .484-.003.668-.04.81zm-1.273 1.273a1.8 1.8 0 0 0 1.273-1.273l-.58-.155a1.2 1.2 0 0 1-.848.848zM8 11.8c.446 0 .727.003.966-.061l-.155-.58c-.143.038-.327.041-.811.041zm-.966-.061c.239.064.52.061.966.061v-.6c-.484 0-.668-.003-.81-.04zm-1.273-1.273a1.8 1.8 0 0 0 1.273 1.273l.155-.58a1.2 1.2 0 0 1-.848-.848zM5.7 9.5c0 .446-.003.727.061.966l.58-.155c-.038-.143-.041-.327-.041-.811zM7 15.2a1.3 1.3 0 0 0-1.3 1.3h.6a.7.7 0 0 1 .7-.7zm10.5 0H7v.6h10.5zm1.3 1.3a1.3 1.3 0 0 0-1.3-1.3v.6a.7.7 0 0 1 .7.7zm-1.3 1.3a1.3 1.3 0 0 0 1.3-1.3h-.6a.7.7 0 0 1-.7.7zM7 17.8h10.5v-.6H7zm-1.3-1.3A1.3 1.3 0 0 0 7 17.8v-.6a.7.7 0 0 1-.7-.7zm.6 4a.7.7 0 0 1 .7-.7v-.6a1.3 1.3 0 0 0-1.3 1.3zm.7.7a.7.7 0 0 1-.7-.7h-.6A1.3 1.3 0 0 0 7 21.8zm6 0H7v.6h6zm.7-.7a.7.7 0 0 1-.7.7v.6a1.3 1.3 0 0 0 1.3-1.3zm-.7-.7a.7.7 0 0 1 .7.7h.6a1.3 1.3 0 0 0-1.3-1.3zm-6 0h6v-.6H7z" mask="url(#PaymentCompactLight_svg__f)"></path><defs><linearGradient id="PaymentCompactLight_svg__b" x1="6475.99" x2="6475.99" y1="-45.168" y2="23.213" gradientUnits="userSpaceOnUse"><stop stop-color="#FAFAFA"></stop><stop offset="1" stop-color="#fff"></stop></linearGradient><linearGradient id="PaymentCompactLight_svg__c" x1="4" x2="-0.5" y1="24.7" y2="27.2" gradientUnits="userSpaceOnUse"><stop></stop><stop offset="1" stop-opacity="0"></stop></linearGradient><linearGradient id="PaymentCompactLight_svg__e" x1="12.714" x2="12.714" y1="6.163" y2="21.789" gradientUnits="userSpaceOnUse"><stop stop-color="#DCDCDC"></stop><stop offset="1" stop-color="#F1F1F1"></stop></linearGradient><filter id="PaymentCompactLight_svg__a" width="23.6" height="36.487" x="0.2" y="0.256" color-interpolation-filters="sRGB" filterUnits="userSpaceOnUse"><feFlood flood-opacity="0" result="BackgroundImageFix"></feFlood><feColorMatrix in="SourceAlpha" result="hardAlpha" values="0 0 0 0 0 0 0 0 0 0 0 0 0 0 0 0 0 0 127 0"></feColorMatrix><feOffset></feOffset><feGaussianBlur stdDeviation="0.5"></feGaussianBlur><feColorMatrix values="0 0 0 0 0 0 0 0 0 0 0 0 0 0 0 0 0 0 0.07 0"></feColorMatrix><feBlend in2="BackgroundImageFix" result="effect1_dropShadow_7638_1867"></feBlend><feColorMatrix in="SourceAlpha" result="hardAlpha" values="0 0 0 0 0 0 0 0 0 0 0 0 0 0 0 0 0 0 127 0"></feColorMatrix><feOffset dy="1"></feOffset><feGaussianBlur stdDeviation="0.5"></feGaussianBlur><feColorMatrix values="0 0 0 0 0 0 0 0 0 0 0 0 0 0 0 0 0 0 0.06 0"></feColorMatrix><feBlend in2="effect1_dropShadow_7638_1867" result="effect2_dropShadow_7638_1867"></feBlend><feColorMatrix in="SourceAlpha" result="hardAlpha" values="0 0 0 0 0 0 0 0 0 0 0 0 0 0 0 0 0 0 127 0"></feColorMatrix><feOffset dy="3"></feOffset><feGaussianBlur stdDeviation="1"></feGaussianBlur><feColorMatrix values="0 0 0 0 0 0 0 0 0 0 0 0 0 0 0 0 0 0 0.04 0"></feColorMatrix><feBlend in2="effect2_dropShadow_7638_1867" result="effect3_dropShadow_7638_1867"></feBlend><feColorMatrix in="SourceAlpha" result="hardAlpha" values="0 0 0 0 0 0 0 0 0 0 0 0 0 0 0 0 0 0 127 0"></feColorMatrix><feOffset dy="6"></feOffset><feGaussianBlur stdDeviation="1"></feGaussianBlur><feColorMatrix values="0 0 0 0 0 0 0 0 0 0 0 0 0 0 0 0 0 0 0.01 0"></feColorMatrix><feBlend in2="effect3_dropShadow_7638_1867" result="effect4_dropShadow_7638_1867"></feBlend><feBlend in="SourceGraphic" in2="effect4_dropShadow_7638_1867" result="shape"></feBlend></filter><filter id="PaymentCompactLight_svg__d" width="12.5" height="15" x="6" y="7.5" color-interpolation-filters="sRGB" filterUnits="userSpaceOnUse"><feFlood flood-opacity="0" result="BackgroundImageFix"></feFlood><feBlend in="SourceGraphic" in2="BackgroundImageFix" result="shape"></feBlend><feColorMatrix in="SourceAlpha" result="hardAlpha" values="0 0 0 0 0 0 0 0 0 0 0 0 0 0 0 0 0 0 127 0"></feColorMatrix><feOffset dy="1"></feOffset><feGaussianBlur stdDeviation="0.75"></feGaussianBlur><feComposite in2="hardAlpha" k2="-1" k3="1" operator="arithmetic"></feComposite><feColorMatrix values="0 0 0 0 0 0 0 0 0 0 0 0 0 0 0 0 0 0 0.1 0"></feColorMatrix><feBlend in2="shape" result="effect1_innerShadow_7638_1867"></feBlend></filter></defs></svg>