<svg xmlns="http://www.w3.org/2000/svg" fill="none" viewBox="0 0 24 37"><g filter="url(#PaymentCompactDark_svg__a)"><path fill="url(#PaymentCompactDark_svg__b)" d="m8.128 3.112.807-.44c1.12-.611 1.68-.916 2.271-1.036a4 4 0 0 1 1.588 0c.591.12 1.151.425 2.27 1.036l.808.44c.584.319.876.478 1.183.537a2 2 0 0 0 .868-.026c.303-.077.585-.253 1.15-.606.78-.488 1.17-.732 1.493-.71a1 1 0 0 1 .745.413c.189.261.189.722.189 1.642v21.276c0 .92 0 1.38-.189 1.642a1 1 0 0 1-.745.414c-.322.02-.713-.223-1.493-.711-.565-.353-.847-.53-1.15-.606a2 2 0 0 0-.868-.026c-.307.06-.599.218-1.183.537l-.807.44c-1.12.611-1.68.916-2.271 1.036a4 4 0 0 1-1.588 0c-.591-.12-1.151-.425-2.27-1.036l-.808-.44c-.584-.319-.876-.478-1.183-.537a2 2 0 0 0-.868.026c-.303.077-.585.253-1.15.606-.78.488-1.17.732-1.493.71a1 1 0 0 1-.745-.413c-.189-.262-.189-.722-.189-1.642V4.362c0-.92 0-1.38.189-1.642a1 1 0 0 1 .745-.414c.322-.02.713.223 1.493.711.565.353.847.53 1.15.606a2 2 0 0 0 .868.026c.307-.06.599-.218 1.183-.537"></path><path stroke="#000" stroke-linejoin="round" stroke-width="0.3" d="m15.136 2.54-.027-.015c-1.093-.596-1.672-.912-2.286-1.036a4.15 4.15 0 0 0-1.646 0c-.614.124-1.193.44-2.286 1.036l-.027.015-.808.44c-.593.324-.86.468-1.14.521a1.85 1.85 0 0 1-.802-.023c-.275-.07-.534-.23-1.107-.588L5 2.886c-.385-.24-.682-.427-.923-.549-.242-.123-.45-.194-.653-.18a1.15 1.15 0 0 0-.857.475c-.119.165-.169.379-.193.649s-.024.62-.024 1.073v21.292c0 .453 0 .804.024 1.073.024.27.074.484.193.649.2.278.515.453.857.475.203.014.41-.057.653-.18.241-.122.538-.308.923-.549l.007-.004c.573-.358.832-.518 1.107-.588a1.85 1.85 0 0 1 .802-.023c.28.053.547.197 1.14.52l.808.441.027.015c1.093.596 1.672.912 2.286 1.036.543.11 1.103.11 1.646 0 .614-.124 1.193-.44 2.286-1.036l.027-.015.808-.44c.593-.324.86-.468 1.14-.521.266-.051.54-.043.802.023.275.07.534.23 1.107.588l.007.004c.385.24.682.427.923.549.242.123.45.194.653.18a1.15 1.15 0 0 0 .857-.475c.119-.165.169-.379.193-.649s.024-.62.024-1.073V4.354c0-.453 0-.804-.024-1.073-.024-.27-.074-.484-.193-.649a1.15 1.15 0 0 0-.857-.475c-.203-.014-.41.057-.653.18-.241.122-.538.308-.923.549l-.007.004-.005.003c-.57.356-.828.515-1.102.585a1.85 1.85 0 0 1-.802.023c-.28-.053-.547-.197-1.14-.52z"></path></g><path stroke="url(#PaymentCompactDark_svg__c)" stroke-linejoin="round" stroke-opacity="0.2" stroke-width="0.3" d="m14.993 2.803.807.44.027.015c.559.305.87.475 1.2.538.31.06.628.05.933-.028.326-.082.627-.27 1.166-.607l.026-.017.006-.003c.39-.244.674-.421.901-.536.23-.116.377-.157.497-.149a.85.85 0 0 1 .634.351c.07.098.114.245.137.5s.023.592.023 1.055v21.276c0 .463 0 .8-.023 1.055s-.067.402-.137.5a.85.85 0 0 1-.634.35c-.12.009-.268-.031-.497-.148a13 13 0 0 1-.907-.54l-.026-.016c-.54-.337-.84-.525-1.166-.607a2.15 2.15 0 0 0-.933-.028c-.33.063-.642.233-1.2.538l-.027.014-.807.44c-1.128.616-1.665.907-2.23 1.021a3.85 3.85 0 0 1-1.527 0c-.564-.114-1.1-.405-2.229-1.02l-.807-.44-.027-.015c-.559-.305-.87-.475-1.2-.538a2.15 2.15 0 0 0-.933.028c-.326.082-.627.27-1.166.607l-.026.017c-.393.245-.68.424-.907.54-.229.116-.377.156-.497.148a.85.85 0 0 1-.634-.351l-.121.087.121-.087c-.07-.098-.114-.245-.137-.5a13 13 0 0 1-.023-1.055V4.362c0-.463 0-.8.023-1.055s.067-.402.137-.5a.85.85 0 0 1 .634-.35c.12-.009.268.032.497.148a13 13 0 0 1 .933.556c.54.337.84.525 1.166.607.305.078.624.087.933.028.33-.063.641-.233 1.2-.538l.027-.014.807-.44c1.128-.616 1.665-.907 2.23-1.021a3.9 3.9 0 0 1 1.527 0c.564.114 1.101.405 2.229 1.02Z"></path><mask id="PaymentCompactDark_svg__g" width="14" height="16" x="5" y="6.5" fill="#000" maskUnits="userSpaceOnUse"><path fill="#fff" d="M5 6.5h14v16H5z"></path><path fill-rule="evenodd" d="M6 9.5c0-.465 0-.697.051-.888a1.5 1.5 0 0 1 1.06-1.06C7.304 7.5 7.536 7.5 8 7.5s.697 0 .888.051a1.5 1.5 0 0 1 1.06 1.06c.052.192.052.424.052.889s0 .697-.051.888a1.5 1.5 0 0 1-1.06 1.06c-.192.052-.424.052-.889.052s-.697 0-.888-.051a1.5 1.5 0 0 1-1.06-1.06C6 10.197 6 9.964 6 9.5m0 7a1 1 0 0 1 1-1h10.5a1 1 0 1 1 0 2H7a1 1 0 0 1-1-1m1 3a1 1 0 1 0 0 2h6a1 1 0 1 0 0-2z" clip-rule="evenodd"></path></mask><g fill-rule="evenodd" clip-rule="evenodd" filter="url(#PaymentCompactDark_svg__d)"><path fill="url(#PaymentCompactDark_svg__e)" d="M6 9.5c0-.465 0-.697.051-.888a1.5 1.5 0 0 1 1.06-1.06C7.304 7.5 7.536 7.5 8 7.5s.697 0 .888.051a1.5 1.5 0 0 1 1.06 1.06c.052.192.052.424.052.889s0 .697-.051.888a1.5 1.5 0 0 1-1.06 1.06c-.192.052-.424.052-.889.052s-.697 0-.888-.051a1.5 1.5 0 0 1-1.06-1.06C6 10.197 6 9.964 6 9.5m0 7a1 1 0 0 1 1-1h10.5a1 1 0 1 1 0 2H7a1 1 0 0 1-1-1m1 3a1 1 0 1 0 0 2h6a1 1 0 1 0 0-2z"></path><path fill="url(#PaymentCompactDark_svg__f)" fill-opacity="0.05" d="M6 9.5c0-.465 0-.697.051-.888a1.5 1.5 0 0 1 1.06-1.06C7.304 7.5 7.536 7.5 8 7.5s.697 0 .888.051a1.5 1.5 0 0 1 1.06 1.06c.052.192.052.424.052.889s0 .697-.051.888a1.5 1.5 0 0 1-1.06 1.06c-.192.052-.424.052-.889.052s-.697 0-.888-.051a1.5 1.5 0 0 1-1.06-1.06C6 10.197 6 9.964 6 9.5m0 7a1 1 0 0 1 1-1h10.5a1 1 0 1 1 0 2H7a1 1 0 0 1-1-1m1 3a1 1 0 1 0 0 2h6a1 1 0 1 0 0-2z"></path></g><path fill="#fff" fill-opacity="0.1" d="m6.051 8.612.29.077zm1.06-1.06.078.289-.077-.29Zm1.777 0 .078-.29zm1.06 1.06.29-.078zm0 1.776.29.078zm-1.06 1.06.078.29zm-1.776 0-.078.29zm-1.06-1.06-.29.078zm-.29-1.854c-.065.239-.062.52-.062.966h.6c0-.484.003-.668.04-.81l-.579-.156Zm1.272-1.273a1.8 1.8 0 0 0-1.273 1.273l.58.155a1.2 1.2 0 0 1 .848-.848zM8 7.2c-.446 0-.727-.003-.966.061l.155.58c.143-.038.327-.041.811-.041zm.966.061C8.727 7.197 8.446 7.2 8 7.2v.6c.484 0 .668.003.81.04zm1.273 1.273a1.8 1.8 0 0 0-1.273-1.273l-.155.58a1.2 1.2 0 0 1 .848.848zm.061.966c0-.446.003-.727-.061-.966l-.58.155c.038.143.041.327.041.811zm-.061.966c.064-.239.061-.52.061-.966h-.6c0 .484-.003.668-.04.81zm-1.273 1.273a1.8 1.8 0 0 0 1.273-1.273l-.58-.155a1.2 1.2 0 0 1-.848.848zM8 11.8c.446 0 .727.003.966-.061l-.155-.58c-.143.038-.327.041-.811.041zm-.966-.061c.239.064.52.061.966.061v-.6c-.484 0-.668-.003-.81-.04zm-1.273-1.273a1.8 1.8 0 0 0 1.273 1.273l.155-.58a1.2 1.2 0 0 1-.848-.848zM5.7 9.5c0 .446-.003.727.061.966l.58-.155c-.038-.143-.041-.327-.041-.811zM7 15.2a1.3 1.3 0 0 0-1.3 1.3h.6a.7.7 0 0 1 .7-.7zm10.5 0H7v.6h10.5zm1.3 1.3a1.3 1.3 0 0 0-1.3-1.3v.6a.7.7 0 0 1 .7.7zm-1.3 1.3a1.3 1.3 0 0 0 1.3-1.3h-.6a.7.7 0 0 1-.7.7zM7 17.8h10.5v-.6H7zm-1.3-1.3A1.3 1.3 0 0 0 7 17.8v-.6a.7.7 0 0 1-.7-.7zm.6 4a.7.7 0 0 1 .7-.7v-.6a1.3 1.3 0 0 0-1.3 1.3zm.7.7a.7.7 0 0 1-.7-.7h-.6A1.3 1.3 0 0 0 7 21.8zm6 0H7v.6h6zm.7-.7a.7.7 0 0 1-.7.7v.6a1.3 1.3 0 0 0 1.3-1.3zm-.7-.7a.7.7 0 0 1 .7.7h.6a1.3 1.3 0 0 0-1.3-1.3zm-6 0h6v-.6H7z" mask="url(#PaymentCompactDark_svg__g)"></path><defs><linearGradient id="PaymentCompactDark_svg__b" x1="12" x2="12" y1="1" y2="29" gradientUnits="userSpaceOnUse"><stop stop-color="#4F4F4F"></stop><stop offset="1" stop-color="#363636"></stop></linearGradient><linearGradient id="PaymentCompactDark_svg__c" x1="12" x2="12" y1="1" y2="29" gradientUnits="userSpaceOnUse"><stop stop-color="#fff"></stop><stop offset="1" stop-color="#fff" stop-opacity="0"></stop></linearGradient><linearGradient id="PaymentCompactDark_svg__f" x1="12.25" x2="12.25" y1="7.5" y2="21.5" gradientUnits="userSpaceOnUse"><stop stop-color="#fff" stop-opacity="0"></stop><stop offset="1" stop-color="#fff"></stop></linearGradient><filter id="PaymentCompactDark_svg__a" width="23.6" height="36.487" x="0.2" y="0.256" color-interpolation-filters="sRGB" filterUnits="userSpaceOnUse"><feFlood flood-opacity="0" result="BackgroundImageFix"></feFlood><feColorMatrix in="SourceAlpha" result="hardAlpha" values="0 0 0 0 0 0 0 0 0 0 0 0 0 0 0 0 0 0 127 0"></feColorMatrix><feOffset></feOffset><feGaussianBlur stdDeviation="0.5"></feGaussianBlur><feColorMatrix values="0 0 0 0 0 0 0 0 0 0 0 0 0 0 0 0 0 0 0.07 0"></feColorMatrix><feBlend in2="BackgroundImageFix" result="effect1_dropShadow_7638_1874"></feBlend><feColorMatrix in="SourceAlpha" result="hardAlpha" values="0 0 0 0 0 0 0 0 0 0 0 0 0 0 0 0 0 0 127 0"></feColorMatrix><feOffset dy="1"></feOffset><feGaussianBlur stdDeviation="0.5"></feGaussianBlur><feColorMatrix values="0 0 0 0 0 0 0 0 0 0 0 0 0 0 0 0 0 0 0.06 0"></feColorMatrix><feBlend in2="effect1_dropShadow_7638_1874" result="effect2_dropShadow_7638_1874"></feBlend><feColorMatrix in="SourceAlpha" result="hardAlpha" values="0 0 0 0 0 0 0 0 0 0 0 0 0 0 0 0 0 0 127 0"></feColorMatrix><feOffset dy="3"></feOffset><feGaussianBlur stdDeviation="1"></feGaussianBlur><feColorMatrix values="0 0 0 0 0 0 0 0 0 0 0 0 0 0 0 0 0 0 0.04 0"></feColorMatrix><feBlend in2="effect2_dropShadow_7638_1874" result="effect3_dropShadow_7638_1874"></feBlend><feColorMatrix in="SourceAlpha" result="hardAlpha" values="0 0 0 0 0 0 0 0 0 0 0 0 0 0 0 0 0 0 127 0"></feColorMatrix><feOffset dy="6"></feOffset><feGaussianBlur stdDeviation="1"></feGaussianBlur><feColorMatrix values="0 0 0 0 0 0 0 0 0 0 0 0 0 0 0 0 0 0 0.01 0"></feColorMatrix><feBlend in2="effect3_dropShadow_7638_1874" result="effect4_dropShadow_7638_1874"></feBlend><feBlend in="SourceGraphic" in2="effect4_dropShadow_7638_1874" result="shape"></feBlend></filter><filter id="PaymentCompactDark_svg__d" width="13.1" height="15.6" x="5.7" y="7.2" color-interpolation-filters="sRGB" filterUnits="userSpaceOnUse"><feFlood flood-opacity="0" result="BackgroundImageFix"></feFlood><feBlend in="SourceGraphic" in2="BackgroundImageFix" result="shape"></feBlend><feColorMatrix in="SourceAlpha" result="hardAlpha" values="0 0 0 0 0 0 0 0 0 0 0 0 0 0 0 0 0 0 127 0"></feColorMatrix><feOffset dy="1"></feOffset><feGaussianBlur stdDeviation="0.75"></feGaussianBlur><feComposite in2="hardAlpha" k2="-1" k3="1" operator="arithmetic"></feComposite><feColorMatrix values="0 0 0 0 0 0 0 0 0 0 0 0 0 0 0 0 0 0 0.1 0"></feColorMatrix><feBlend in2="shape" result="effect1_innerShadow_7638_1874"></feBlend></filter><radialGradient id="PaymentCompactDark_svg__e" cx="0" cy="0" r="1" gradientTransform="matrix(0 13.3 -13.3661 0 12.25 8.2)" gradientUnits="userSpaceOnUse"><stop stop-color="#101010"></stop><stop offset="1" stop-color="#1E1E1E"></stop></radialGradient></defs></svg>