<svg xmlns="http://www.w3.org/2000/svg" fill="none" viewBox="0 0 32 35"><g filter="url(#PeopleCompactLight_svg__a)"><path fill="url(#PeopleCompactLight_svg__b)" d="M4.963 12.643c.402.502.73.913.73 1.428 0 .823-1.04 1.312-2.232 1.871C1.865 16.691 0 17.567 0 19.542c0 3.892 6.001 3.888 8.648 3.886h.308c1.78.001 5.075.003 7.044-1.178 1.969 1.181 5.265 1.18 7.044 1.178h.308c2.647.002 8.648.006 8.648-3.886 0-1.975-1.865-2.85-3.46-3.6-1.192-.56-2.234-1.048-2.234-1.871 0-.515.329-.926.73-1.428.632-.789 1.443-1.803 1.443-3.801 0-3.034-2.344-5.533-5.281-5.533s-5.281 2.499-5.281 5.533h-3.834c0-3.034-2.344-5.533-5.281-5.533S3.521 5.808 3.521 8.842c0 1.998.811 3.012 1.442 3.801"></path></g><path stroke="#000" stroke-opacity="0.1" stroke-width="0.3" d="M8.648 23.278c-1.327.001-3.469.002-5.278-.478-.904-.24-1.711-.596-2.29-1.12-.574-.52-.93-1.21-.93-2.138 0-.932.436-1.606 1.079-2.145.648-.544 1.494-.943 2.295-1.319l.01-.005c.589-.276 1.157-.543 1.578-.846.422-.304.732-.671.732-1.156 0-.568-.359-1.016-.744-1.497l-.02-.024c-.625-.782-1.41-1.763-1.41-3.708 0-2.959 2.285-5.383 5.132-5.383s5.131 2.424 5.131 5.383v.15h4.134v-.15c0-2.959 2.284-5.383 5.131-5.383s5.131 2.424 5.131 5.383c0 1.945-.784 2.926-1.41 3.707l-.02.025c-.384.481-.743.93-.743 1.497 0 .485.31.852.732 1.156.42.303.99.57 1.577.846l.01.005c.802.376 1.648.774 2.296 1.319.642.54 1.079 1.213 1.079 2.145 0 .928-.356 1.618-.93 2.138-.579.524-1.386.88-2.29 1.12-1.809.48-3.951.48-5.278.478h-.308c-.89 0-2.151.002-3.434-.144-1.286-.147-2.576-.439-3.533-1.013L16 22.075l-.077.046c-.957.574-2.247.866-3.533 1.013-1.283.145-2.544.145-3.434.144z"></path><g filter="url(#PeopleCompactLight_svg__c)"><path fill="url(#PeopleCompactLight_svg__d)" d="M12.34 14.94c0-1.592-2.613-2.357-2.613-6.288C9.727 5.004 12.545 2 16.077 2s6.35 3.004 6.35 6.652c0 3.931-2.613 4.696-2.613 6.287 0 2.316 6.846 2.43 6.846 6.578 0 4.773-7.505 4.673-10.583 4.673s-10.583.1-10.583-4.673c0-4.149 6.845-4.262 6.845-6.578Z"></path><path stroke="#000" stroke-opacity="0.1" stroke-width="0.3" d="M9.577 8.652c0 2.006.669 3.21 1.336 4.11q.222.297.431.554l.052.065a10 10 0 0 1 .411.542c.238.347.382.662.382 1.016 0 .495-.363.897-.999 1.294-.448.28-.999.539-1.59.816q-.367.172-.75.357c-1.703.833-3.506 1.935-3.506 4.111 0 1.239.49 2.168 1.271 2.856.777.684 1.837 1.127 2.979 1.416 2.192.554 4.737.552 6.295.551h.376c1.558.001 4.103.003 6.295-.551 1.142-.289 2.202-.732 2.979-1.416.782-.688 1.271-1.617 1.271-2.856 0-2.176-1.803-3.278-3.507-4.111a54 54 0 0 0-.75-.357c-.59-.277-1.142-.536-1.59-.816-.636-.397-.999-.8-.999-1.294 0-.354.145-.67.382-1.016a10 10 0 0 1 .463-.607c.138-.172.285-.356.432-.554.667-.9 1.336-2.104 1.336-4.11 0-3.723-2.878-6.802-6.5-6.802s-6.5 3.079-6.5 6.802Z"></path></g><defs><linearGradient id="PeopleCompactLight_svg__b" x1="15.876" x2="15.876" y1="2.857" y2="23.816" gradientUnits="userSpaceOnUse"><stop stop-color="#DCDCDC"></stop><stop offset="1" stop-color="#F1F1F1"></stop></linearGradient><linearGradient id="PeopleCompactLight_svg__d" x1="5182.08" x2="5182.08" y1="-42.462" y2="22.408" gradientUnits="userSpaceOnUse"><stop stop-color="#FAFAFA"></stop><stop offset="1" stop-color="#fff"></stop></linearGradient><filter id="PeopleCompactLight_svg__a" width="32" height="21.119" x="0" y="3.309" color-interpolation-filters="sRGB" filterUnits="userSpaceOnUse"><feFlood flood-opacity="0" result="BackgroundImageFix"></feFlood><feBlend in="SourceGraphic" in2="BackgroundImageFix" result="shape"></feBlend><feColorMatrix in="SourceAlpha" result="hardAlpha" values="0 0 0 0 0 0 0 0 0 0 0 0 0 0 0 0 0 0 127 0"></feColorMatrix><feOffset dy="1"></feOffset><feGaussianBlur stdDeviation="0.75"></feGaussianBlur><feComposite in2="hardAlpha" k2="-1" k3="1" operator="arithmetic"></feComposite><feColorMatrix values="0 0 0 0 0 0 0 0 0 0 0 0 0 0 0 0 0 0 0.1 0"></feColorMatrix><feBlend in2="shape" result="effect1_innerShadow_5886_2022"></feBlend></filter><filter id="PeopleCompactLight_svg__c" width="25.767" height="33.791" x="3.194" y="0.7" color-interpolation-filters="sRGB" filterUnits="userSpaceOnUse"><feFlood flood-opacity="0" result="BackgroundImageFix"></feFlood><feColorMatrix in="SourceAlpha" result="hardAlpha" values="0 0 0 0 0 0 0 0 0 0 0 0 0 0 0 0 0 0 127 0"></feColorMatrix><feOffset></feOffset><feGaussianBlur stdDeviation="0.5"></feGaussianBlur><feColorMatrix values="0 0 0 0 0 0 0 0 0 0 0 0 0 0 0 0 0 0 0.07 0"></feColorMatrix><feBlend in2="BackgroundImageFix" result="effect1_dropShadow_5886_2022"></feBlend><feColorMatrix in="SourceAlpha" result="hardAlpha" values="0 0 0 0 0 0 0 0 0 0 0 0 0 0 0 0 0 0 127 0"></feColorMatrix><feOffset dy="1"></feOffset><feGaussianBlur stdDeviation="0.5"></feGaussianBlur><feColorMatrix values="0 0 0 0 0 0 0 0 0 0 0 0 0 0 0 0 0 0 0.06 0"></feColorMatrix><feBlend in2="effect1_dropShadow_5886_2022" result="effect2_dropShadow_5886_2022"></feBlend><feColorMatrix in="SourceAlpha" result="hardAlpha" values="0 0 0 0 0 0 0 0 0 0 0 0 0 0 0 0 0 0 127 0"></feColorMatrix><feOffset dy="3"></feOffset><feGaussianBlur stdDeviation="1"></feGaussianBlur><feColorMatrix values="0 0 0 0 0 0 0 0 0 0 0 0 0 0 0 0 0 0 0.04 0"></feColorMatrix><feBlend in2="effect2_dropShadow_5886_2022" result="effect3_dropShadow_5886_2022"></feBlend><feColorMatrix in="SourceAlpha" result="hardAlpha" values="0 0 0 0 0 0 0 0 0 0 0 0 0 0 0 0 0 0 127 0"></feColorMatrix><feOffset dy="6"></feOffset><feGaussianBlur stdDeviation="1"></feGaussianBlur><feColorMatrix values="0 0 0 0 0 0 0 0 0 0 0 0 0 0 0 0 0 0 0.01 0"></feColorMatrix><feBlend in2="effect3_dropShadow_5886_2022" result="effect4_dropShadow_5886_2022"></feBlend><feBlend in="SourceGraphic" in2="effect4_dropShadow_5886_2022" result="shape"></feBlend></filter></defs></svg>