<svg xmlns="http://www.w3.org/2000/svg" fill="none" viewBox="0 0 33 36"><g filter="url(#QuestionCompactLight_svg__a)"><path fill="url(#QuestionCompactLight_svg__b)" d="M10 2C3 2 3 7.5 3 9v7c0 1.32 0 5.734 4.764 6.777.83.167 1.24.138 1.24 1.356L9 25.97c.004 1.06.985 2.126 2.435.808l2.95-2.654C14.94 23.651 15.52 23 16.675 23H23c7 0 7-5.5 7-7V9c0-1.5 0-7-7-7z"></path><path stroke="#000" stroke-opacity="0.1" stroke-width="0.3" d="M7.732 22.924h.003q.106.022.199.039.187.034.337.07a.85.85 0 0 1 .33.145c.149.119.253.351.253.955L8.85 25.97v.001c.002.568.265 1.16.753 1.427.505.277 1.182.175 1.933-.508l2.948-2.652q.1-.087.201-.176c.501-.443 1.03-.912 1.99-.912H23c1.77 0 3.108-.348 4.119-.901a5.35 5.35 0 0 0 2.137-2.113c.894-1.597.894-3.379.894-4.131v-7.01c0-.752 0-2.534-.894-4.13a5.35 5.35 0 0 0-2.137-2.114c-1.01-.553-2.35-.901-4.119-.901H10c-1.77 0-3.108.348-4.119.901a5.35 5.35 0 0 0-2.137 2.113C2.85 6.461 2.85 8.243 2.85 8.995v7.009c0 .661 0 2.12.607 3.547.613 1.439 1.84 2.84 4.275 3.373Z"></path></g><mask id="QuestionCompactLight_svg__e" fill="#fff"><path fill-rule="evenodd" d="M15.125 9.54c0-.561.217-.818.449-.976.29-.2.679-.28.926-.28s.635.08.926.28c.232.158.449.415.449.977 0 .346-.135.49-.857 1.11-.672.576-1.643 1.46-1.643 3.175a1.125 1.125 0 1 0 2.25 0c0-.666.28-.972.857-1.467l.128-.108c.56-.47 1.515-1.27 1.515-2.71 0-1.343-.616-2.277-1.426-2.833a4 4 0 0 0-2.199-.673c-.586 0-1.448.158-2.199.673-.81.556-1.426 1.49-1.426 2.833a1.125 1.125 0 0 0 2.25 0Zm1.375 9.786a1.5 1.5 0 1 0 0-3 1.5 1.5 0 0 0 0 3" clip-rule="evenodd"></path></mask><g fill-rule="evenodd" clip-rule="evenodd" filter="url(#QuestionCompactLight_svg__c)"><path fill="#D9D9D9" d="M15.125 9.54c0-.561.217-.818.449-.976.29-.2.679-.28.926-.28s.635.08.926.28c.232.158.449.415.449.977 0 .346-.135.49-.857 1.11-.672.576-1.643 1.46-1.643 3.175a1.125 1.125 0 1 0 2.25 0c0-.666.28-.972.857-1.467l.128-.108c.56-.47 1.515-1.27 1.515-2.71 0-1.343-.616-2.277-1.426-2.833a4 4 0 0 0-2.199-.673c-.586 0-1.448.158-2.199.673-.81.556-1.426 1.49-1.426 2.833a1.125 1.125 0 0 0 2.25 0Zm1.375 9.786a1.5 1.5 0 1 0 0-3 1.5 1.5 0 0 0 0 3"></path><path fill="url(#QuestionCompactLight_svg__d)" d="M15.125 9.54c0-.561.217-.818.449-.976.29-.2.679-.28.926-.28s.635.08.926.28c.232.158.449.415.449.977 0 .346-.135.49-.857 1.11-.672.576-1.643 1.46-1.643 3.175a1.125 1.125 0 1 0 2.25 0c0-.666.28-.972.857-1.467l.128-.108c.56-.47 1.515-1.27 1.515-2.71 0-1.343-.616-2.277-1.426-2.833a4 4 0 0 0-2.199-.673c-.586 0-1.448.158-2.199.673-.81.556-1.426 1.49-1.426 2.833a1.125 1.125 0 0 0 2.25 0Zm1.375 9.786a1.5 1.5 0 1 0 0-3 1.5 1.5 0 0 0 0 3"></path></g><path fill="#000" fill-opacity="0.1" d="m15.574 8.564-.17-.248zm1.852 0 .17-.248zm-.408 2.087-.195-.228zm1.464 1.708.195.228zm.128-.108.192.23zm0 0-.193-.23zm.089-5.543.17-.247zm-4.398 0-.17-.247zm1.103 1.608a1.25 1.25 0 0 0-.405.442c-.112.207-.174.462-.174.783h.6c0-.242.046-.396.102-.498a.65.65 0 0 1 .216-.232zm1.096-.331c-.293 0-.744.09-1.096.331l.34.495c.23-.157.554-.226.756-.226zm1.096.331a2.07 2.07 0 0 0-1.096-.331v.6c.202 0 .527.069.757.226zm.579 1.225c0-.32-.062-.576-.174-.783a1.25 1.25 0 0 0-.405-.442l-.34.495c.089.06.163.131.217.232.056.102.102.256.102.498zm-.962 1.338c.353-.303.594-.515.74-.7a1 1 0 0 0 .174-.311 1 1 0 0 0 .048-.327h-.6a.4.4 0 0 1-.017.138.4.4 0 0 1-.076.129c-.102.128-.29.299-.66.615zm-1.538 2.947c0-1.574.878-2.382 1.538-2.947l-.39-.456c-.685.587-1.748 1.549-1.748 3.403zm.825.825a.825.825 0 0 1-.825-.825h-.6c0 .787.638 1.425 1.425 1.425zm.825-.825c0 .456-.37.825-.825.825v.6c.787 0 1.425-.638 1.425-1.425zm.962-1.695c-.287.247-.534.472-.703.736-.177.276-.259.578-.259.96h.6c0-.285.058-.47.165-.637.115-.18.297-.354.587-.603zm.13-.11-.13.11.39.456.125-.106zm0 0 .386.46zm1.408-2.48c0 1.29-.845 2.008-1.408 2.48l.385.46c.559-.467 1.623-1.348 1.623-2.94zm-1.296-2.586c.733.503 1.296 1.347 1.296 2.586h.6c0-1.447-.67-2.472-1.557-3.08zm-2.029-.62c.54 0 1.34.148 2.03.62l.338-.494c-.812-.557-1.737-.726-2.368-.726zm-2.03.62a3.7 3.7 0 0 1 2.03-.62v-.6c-.631 0-1.556.169-2.368.726zm-1.295 2.586c0-1.239.563-2.083 1.296-2.586l-.34-.494c-.887.608-1.556 1.633-1.556 3.08zm.825.825a.825.825 0 0 1-.825-.825h-.6c0 .787.638 1.425 1.425 1.425zm.825-.825c0 .455-.37.825-.825.825v.6c.787 0 1.425-.638 1.425-1.425zm2.875 8.285a1.2 1.2 0 0 1-1.2 1.2v.6a1.8 1.8 0 0 0 1.8-1.8zm-1.2-1.2a1.2 1.2 0 0 1 1.2 1.2h.6a1.8 1.8 0 0 0-1.8-1.8zm-1.2 1.2a1.2 1.2 0 0 1 1.2-1.2v-.6a1.8 1.8 0 0 0-1.8 1.8zm1.2 1.2a1.2 1.2 0 0 1-1.2-1.2h-.6a1.8 1.8 0 0 0 1.8 1.8z" mask="url(#QuestionCompactLight_svg__e)"></path><defs><linearGradient id="QuestionCompactLight_svg__b" x1="6606.28" x2="6606.28" y1="-44.668" y2="23.42" gradientUnits="userSpaceOnUse"><stop stop-color="#FAFAFA"></stop><stop offset="1" stop-color="#fff"></stop></linearGradient><linearGradient id="QuestionCompactLight_svg__d" x1="16.972" x2="16.972" y1="5.736" y2="19.582" gradientUnits="userSpaceOnUse"><stop stop-color="#DCDCDC"></stop><stop offset="1" stop-color="#F1F1F1"></stop></linearGradient><filter id="QuestionCompactLight_svg__a" width="31.6" height="34.991" x="0.7" y="0.7" color-interpolation-filters="sRGB" filterUnits="userSpaceOnUse"><feFlood flood-opacity="0" result="BackgroundImageFix"></feFlood><feColorMatrix in="SourceAlpha" result="hardAlpha" values="0 0 0 0 0 0 0 0 0 0 0 0 0 0 0 0 0 0 127 0"></feColorMatrix><feOffset></feOffset><feGaussianBlur stdDeviation="0.5"></feGaussianBlur><feColorMatrix values="0 0 0 0 0 0 0 0 0 0 0 0 0 0 0 0 0 0 0.07 0"></feColorMatrix><feBlend in2="BackgroundImageFix" result="effect1_dropShadow_7354_747"></feBlend><feColorMatrix in="SourceAlpha" result="hardAlpha" values="0 0 0 0 0 0 0 0 0 0 0 0 0 0 0 0 0 0 127 0"></feColorMatrix><feOffset dy="1"></feOffset><feGaussianBlur stdDeviation="0.5"></feGaussianBlur><feColorMatrix values="0 0 0 0 0 0 0 0 0 0 0 0 0 0 0 0 0 0 0.06 0"></feColorMatrix><feBlend in2="effect1_dropShadow_7354_747" result="effect2_dropShadow_7354_747"></feBlend><feColorMatrix in="SourceAlpha" result="hardAlpha" values="0 0 0 0 0 0 0 0 0 0 0 0 0 0 0 0 0 0 127 0"></feColorMatrix><feOffset dy="3"></feOffset><feGaussianBlur stdDeviation="1"></feGaussianBlur><feColorMatrix values="0 0 0 0 0 0 0 0 0 0 0 0 0 0 0 0 0 0 0.04 0"></feColorMatrix><feBlend in2="effect2_dropShadow_7354_747" result="effect3_dropShadow_7354_747"></feBlend><feColorMatrix in="SourceAlpha" result="hardAlpha" values="0 0 0 0 0 0 0 0 0 0 0 0 0 0 0 0 0 0 127 0"></feColorMatrix><feOffset dy="6"></feOffset><feGaussianBlur stdDeviation="1"></feGaussianBlur><feColorMatrix values="0 0 0 0 0 0 0 0 0 0 0 0 0 0 0 0 0 0 0.01 0"></feColorMatrix><feBlend in2="effect3_dropShadow_7354_747" result="effect4_dropShadow_7354_747"></feBlend><feBlend in="SourceGraphic" in2="effect4_dropShadow_7354_747" result="shape"></feBlend></filter><filter id="QuestionCompactLight_svg__c" width="7.25" height="14.291" x="12.875" y="6.035" color-interpolation-filters="sRGB" filterUnits="userSpaceOnUse"><feFlood flood-opacity="0" result="BackgroundImageFix"></feFlood><feBlend in="SourceGraphic" in2="BackgroundImageFix" result="shape"></feBlend><feColorMatrix in="SourceAlpha" result="hardAlpha" values="0 0 0 0 0 0 0 0 0 0 0 0 0 0 0 0 0 0 127 0"></feColorMatrix><feOffset dy="1"></feOffset><feGaussianBlur stdDeviation="0.75"></feGaussianBlur><feComposite in2="hardAlpha" k2="-1" k3="1" operator="arithmetic"></feComposite><feColorMatrix values="0 0 0 0 0 0 0 0 0 0 0 0 0 0 0 0 0 0 0.1 0"></feColorMatrix><feBlend in2="shape" result="effect1_innerShadow_7354_747"></feBlend></filter></defs></svg>