<svg xmlns="http://www.w3.org/2000/svg" fill="none" viewBox="0 0 30 35"><g filter="url(#RefundCompactDark_svg__a)"><path fill="url(#RefundCompactDark_svg__b)" d="M10.719 26.8h-4c-2.1 0-3.15 0-3.953-.409a3.75 3.75 0 0 1-1.639-1.638C.72 23.95.72 22.9.72 20.8v-7.333c0-.65 0-.975.071-1.198a1.5 1.5 0 0 1 1.658-1.024c.232.036.522.18 1.103.471.267.134.4.2.534.245.411.137.856.137 1.267 0 .134-.045.267-.111.534-.245l.249-.124c1.49-.746 2.236-1.118 2.843-1.04a2 2 0 0 1 1.398.865c.343.507.343 1.34.343 3.008z"></path><path fill="url(#RefundCompactDark_svg__c)" fill-opacity="0.05" d="M10.719 26.8h-4c-2.1 0-3.15 0-3.953-.409a3.75 3.75 0 0 1-1.639-1.638C.72 23.95.72 22.9.72 20.8v-7.333c0-.65 0-.975.071-1.198a1.5 1.5 0 0 1 1.658-1.024c.232.036.522.18 1.103.471.267.134.4.2.534.245.411.137.856.137 1.267 0 .134-.045.267-.111.534-.245l.249-.124c1.49-.746 2.236-1.118 2.843-1.04a2 2 0 0 1 1.398.865c.343.507.343 1.34.343 3.008z"></path></g><path stroke="#fff" stroke-opacity="0.1" stroke-width="0.3" d="M10.569 26.65h-3.85c-1.053 0-1.833 0-2.451-.05-.616-.05-1.057-.15-1.434-.342a3.6 3.6 0 0 1-1.573-1.574c-.192-.376-.292-.817-.342-1.433-.05-.618-.05-1.398-.05-2.451v-7.333c0-.326 0-.566.008-.752.01-.186.026-.307.056-.4a1.35 1.35 0 0 1 1.492-.922c.096.015.212.054.383.13.17.075.384.182.676.328l.013.006c.254.127.396.198.54.246.443.148.92.148 1.362 0 .145-.048.287-.119.541-.246l.013-.006.249-.125c.748-.374 1.3-.65 1.74-.823.442-.174.751-.236 1.016-.201.526.068.997.36 1.294.8.15.22.232.525.274.997s.043 1.09.043 1.926z" style="stroke:#fff;stroke-opacity:0.1"></path><g filter="url(#RefundCompactDark_svg__d)"><path fill="url(#RefundCompactDark_svg__e)" d="m13.847 3.112.807-.44c1.12-.611 1.68-.916 2.27-1.036a4 4 0 0 1 1.588 0c.592.12 1.152.425 2.271 1.036l.807.44c.584.319.877.478 1.184.537a2 2 0 0 0 .867-.026c.304-.077.586-.253 1.15-.606.78-.488 1.171-.732 1.493-.71a1 1 0 0 1 .746.413c.188.262.188.722.188 1.642V18.5c0 2.8 0 4.2-.544 5.27a5 5 0 0 1-2.186 2.185c-1.07.545-2.47.545-5.27.545h-14.5a3.5 3.5 0 0 0 3.5-3.5V4.362c0-.92 0-1.38.19-1.642a1 1 0 0 1 .745-.414c.322-.02.712.223 1.493.711.564.353.846.53 1.15.606a2 2 0 0 0 .867.026c.307-.06.6-.218 1.184-.537"></path><path fill="url(#RefundCompactDark_svg__f)" d="m13.847 3.112.807-.44c1.12-.611 1.68-.916 2.27-1.036a4 4 0 0 1 1.588 0c.592.12 1.152.425 2.271 1.036l.807.44c.584.319.877.478 1.184.537a2 2 0 0 0 .867-.026c.304-.077.586-.253 1.15-.606.78-.488 1.171-.732 1.493-.71a1 1 0 0 1 .746.413c.188.262.188.722.188 1.642V18.5c0 2.8 0 4.2-.544 5.27a5 5 0 0 1-2.186 2.185c-1.07.545-2.47.545-5.27.545h-14.5a3.5 3.5 0 0 0 3.5-3.5V4.362c0-.92 0-1.38.19-1.642a1 1 0 0 1 .745-.414c.322-.02.712.223 1.493.711.564.353.846.53 1.15.606a2 2 0 0 0 .867.026c.307-.06.6-.218 1.184-.537"></path><path stroke="url(#RefundCompactDark_svg__g)" stroke-linejoin="round" stroke-width="0.3" d="M4.719 26.35a.15.15 0 0 0 0 .3h14.506c1.395 0 2.45 0 3.29-.069.843-.069 1.482-.207 2.041-.492a5.15 5.15 0 0 0 2.251-2.25c.285-.56.424-1.2.493-2.043.068-.84.068-1.895.068-3.289V4.354c0-.453 0-.804-.024-1.073-.024-.27-.074-.484-.193-.649a1.15 1.15 0 0 0-.857-.475c-.202-.014-.41.057-.652.18-.242.122-.539.308-.923.549l-.007.004c-.573.358-.832.518-1.107.588a1.85 1.85 0 0 1-.803.023c-.279-.053-.547-.197-1.14-.52l-.807-.441-.028-.015c-1.093-.596-1.671-.912-2.285-1.036a4.15 4.15 0 0 0-1.647 0c-.614.124-1.192.44-2.285 1.036l-.028.015-.807.44c-.593.324-.861.468-1.14.521a1.85 1.85 0 0 1-.803-.023c-.275-.07-.534-.23-1.107-.588l-.007-.004c-.384-.24-.681-.427-.923-.549s-.45-.194-.652-.18a1.15 1.15 0 0 0-.858.475c-.118.165-.168.379-.192.649-.025.27-.025.62-.025 1.073V23c0 1.85-1.5 3.35-3.35 3.35Z"></path></g><path stroke="url(#RefundCompactDark_svg__h)" stroke-linejoin="round" stroke-opacity="0.2" stroke-width="0.3" d="m13.918 3.244.808-.44c1.127-.616 1.664-.907 2.229-1.021a3.9 3.9 0 0 1 1.527 0c.565.114 1.101.405 2.23 1.02l.806.44.028.015c.558.305.87.475 1.2.538.309.06.627.05.932-.028.326-.082.627-.27 1.166-.607l.027-.017c.393-.245.678-.424.907-.54.229-.115.377-.156.496-.148a.85.85 0 0 1 .634.351c.07.098.114.245.137.5s.023.592.023 1.055V18.5c0 1.403 0 2.445-.067 3.272-.068.824-.201 1.42-.461 1.93a4.85 4.85 0 0 1-2.12 2.12c-.51.26-1.105.393-1.93.46-.826.068-1.869.068-3.272.068H6.17A3.65 3.65 0 0 0 8.368 23V4.362c0-.463 0-.8.023-1.055s.068-.402.138-.5a.85.85 0 0 1 .634-.35c.12-.009.267.032.496.148s.514.294.907.54l.026.016c.54.337.84.525 1.166.607.306.078.624.087.933.028.33-.063.642-.233 1.2-.538z"></path><mask id="RefundCompactDark_svg__l" width="14" height="16" x="10.219" y="7" fill="#000" maskUnits="userSpaceOnUse"><path fill="#fff" d="M10.219 7h14v16h-14z"></path><path fill-rule="evenodd" d="M11.219 10c0-.465 0-.697.05-.888a1.5 1.5 0 0 1 1.061-1.06C12.521 8 12.754 8 13.22 8s.697 0 .888.051a1.5 1.5 0 0 1 1.06 1.06c.052.192.052.424.052.889s0 .697-.052.888a1.5 1.5 0 0 1-1.06 1.06c-.191.052-.423.052-.888.052s-.698 0-.889-.051a1.5 1.5 0 0 1-1.06-1.06c-.051-.191-.051-.424-.051-.889Zm0 7a1 1 0 0 1 1-1h10.5a1 1 0 1 1 0 2h-10.5a1 1 0 0 1-1-1m1 3a1 1 0 1 0 0 2h6a1 1 0 1 0 0-2z" clip-rule="evenodd"></path></mask><g fill-rule="evenodd" clip-rule="evenodd" filter="url(#RefundCompactDark_svg__i)"><path fill="url(#RefundCompactDark_svg__j)" d="M11.219 10c0-.465 0-.697.05-.888a1.5 1.5 0 0 1 1.061-1.06C12.521 8 12.754 8 13.22 8s.697 0 .888.051a1.5 1.5 0 0 1 1.06 1.06c.052.192.052.424.052.889s0 .697-.052.888a1.5 1.5 0 0 1-1.06 1.06c-.191.052-.423.052-.888.052s-.698 0-.889-.051a1.5 1.5 0 0 1-1.06-1.06c-.051-.191-.051-.424-.051-.889Zm0 7a1 1 0 0 1 1-1h10.5a1 1 0 1 1 0 2h-10.5a1 1 0 0 1-1-1m1 3a1 1 0 1 0 0 2h6a1 1 0 1 0 0-2z"></path><path fill="url(#RefundCompactDark_svg__k)" fill-opacity="0.05" d="M11.219 10c0-.465 0-.697.05-.888a1.5 1.5 0 0 1 1.061-1.06C12.521 8 12.754 8 13.22 8s.697 0 .888.051a1.5 1.5 0 0 1 1.06 1.06c.052.192.052.424.052.889s0 .697-.052.888a1.5 1.5 0 0 1-1.06 1.06c-.191.052-.423.052-.888.052s-.698 0-.889-.051a1.5 1.5 0 0 1-1.06-1.06c-.051-.191-.051-.424-.051-.889Zm0 7a1 1 0 0 1 1-1h10.5a1 1 0 1 1 0 2h-10.5a1 1 0 0 1-1-1m1 3a1 1 0 1 0 0 2h6a1 1 0 1 0 0-2z"></path></g><path fill="#fff" fill-opacity="0.1" d="m11.27 9.112.29.077zm1.06-1.06.078.289zm1.777 0 .077-.29zm1.06 1.06.29-.078zm0 1.776.29.078zm-1.06 1.06.077.29zm-1.777 0-.077.29zm-1.06-1.06-.29.078zm-.29-1.854c-.064.239-.062.52-.062.966h.6c0-.484.003-.668.041-.81zm1.273-1.273a1.8 1.8 0 0 0-1.273 1.273l.58.155a1.2 1.2 0 0 1 .848-.848zm.966-.061c-.446 0-.728-.003-.966.061l.155.58c.143-.038.326-.041.81-.041zm.965.061c-.238-.064-.52-.061-.965-.061v.6c.484 0 .667.003.81.04zm1.273 1.273a1.8 1.8 0 0 0-1.273-1.273l-.155.58a1.2 1.2 0 0 1 .849.848zm.061.966c0-.446.003-.727-.06-.966l-.58.155c.038.143.04.327.04.811zm-.06.966c.063-.239.06-.52.06-.966h-.6c0 .484-.002.668-.04.81zm-1.274 1.273a1.8 1.8 0 0 0 1.273-1.273l-.58-.155a1.2 1.2 0 0 1-.848.848zm-.965.061c.445 0 .727.003.965-.061l-.155-.58c-.143.038-.326.041-.81.041zm-.966-.061c.238.064.52.061.966.061v-.6c-.485 0-.668-.003-.811-.04zm-1.273-1.273a1.8 1.8 0 0 0 1.273 1.273l.155-.58a1.2 1.2 0 0 1-.849-.848l-.58.155ZM10.918 10c0 .446-.002.727.062.966l.58-.155c-.039-.143-.042-.327-.042-.811zm1.3 5.7a1.3 1.3 0 0 0-1.3 1.3h.6a.7.7 0 0 1 .7-.7zm10.5 0h-10.5v.6h10.5zm1.3 1.3a1.3 1.3 0 0 0-1.3-1.3v.6a.7.7 0 0 1 .7.7zm-1.3 1.3a1.3 1.3 0 0 0 1.3-1.3h-.6a.7.7 0 0 1-.7.7zm-10.5 0h10.5v-.6h-10.5zm-1.3-1.3a1.3 1.3 0 0 0 1.3 1.3v-.6a.7.7 0 0 1-.7-.7zm.6 4a.7.7 0 0 1 .7-.7v-.6a1.3 1.3 0 0 0-1.3 1.3zm.7.7a.7.7 0 0 1-.7-.7h-.6a1.3 1.3 0 0 0 1.3 1.3zm6 0h-6v.6h6zm.7-.7a.7.7 0 0 1-.7.7v.6a1.3 1.3 0 0 0 1.3-1.3zm-.7-.7a.7.7 0 0 1 .7.7h.6a1.3 1.3 0 0 0-1.3-1.3zm-6 0h6v-.6h-6z" mask="url(#RefundCompactDark_svg__l)" style="fill:#fff;fill-opacity:0.1"></path><defs><linearGradient id="RefundCompactDark_svg__c" x1="5.719" x2="5.719" y1="9.3" y2="26.8" gradientUnits="userSpaceOnUse"><stop stop-color="#fff" stop-opacity="0" style="stop-color:none;stop-opacity:0"></stop><stop offset="1" stop-color="#fff" style="stop-color:white;stop-opacity:1"></stop></linearGradient><linearGradient id="RefundCompactDark_svg__e" x1="6481.71" x2="6481.71" y1="-45.868" y2="22.512" gradientUnits="userSpaceOnUse"><stop stop-color="#FAFAFA" style="stop-color:color(display-p3 .9792 .9792 .9792);stop-opacity:1"></stop><stop offset="1" stop-color="#fff" style="stop-color:white;stop-opacity:1"></stop></linearGradient><linearGradient id="RefundCompactDark_svg__f" x1="15.969" x2="15.969" y1="1" y2="26.5" gradientUnits="userSpaceOnUse"><stop stop-color="#4F4F4F" style="stop-color:color(display-p3 .3098 .3098 .3098);stop-opacity:1"></stop><stop offset="1" stop-color="#363636" style="stop-color:color(display-p3 .2118 .2118 .2118);stop-opacity:1"></stop></linearGradient><linearGradient id="RefundCompactDark_svg__g" x1="9.719" x2="5.219" y1="24" y2="26.5" gradientUnits="userSpaceOnUse"><stop style="stop-color:black;stop-opacity:1"></stop><stop offset="1" stop-opacity="0" style="stop-color:none;stop-opacity:0"></stop></linearGradient><linearGradient id="RefundCompactDark_svg__h" x1="15.969" x2="15.969" y1="1" y2="26.5" gradientUnits="userSpaceOnUse"><stop stop-color="#fff" style="stop-color:white;stop-opacity:1"></stop><stop offset="1" stop-color="#fff" stop-opacity="0.5" style="stop-color:white;stop-opacity:0.5"></stop></linearGradient><linearGradient id="RefundCompactDark_svg__k" x1="17.468" x2="17.468" y1="8" y2="22" gradientUnits="userSpaceOnUse"><stop stop-color="#fff" stop-opacity="0" style="stop-color:none;stop-opacity:0"></stop><stop offset="1" stop-color="#fff" style="stop-color:white;stop-opacity:1"></stop></linearGradient><filter id="RefundCompactDark_svg__a" width="10" height="17.258" x="0.719" y="10.542" color-interpolation-filters="sRGB" filterUnits="userSpaceOnUse"><feFlood flood-opacity="0" result="BackgroundImageFix"></feFlood><feBlend in="SourceGraphic" in2="BackgroundImageFix" result="shape"></feBlend><feColorMatrix in="SourceAlpha" result="hardAlpha" values="0 0 0 0 0 0 0 0 0 0 0 0 0 0 0 0 0 0 127 0"></feColorMatrix><feOffset dy="1"></feOffset><feGaussianBlur stdDeviation="0.75"></feGaussianBlur><feComposite in2="hardAlpha" k2="-1" k3="1" operator="arithmetic"></feComposite><feColorMatrix values="0 0 0 0 0 0 0 0 0 0 0 0 0 0 0 0 0 0 0.1 0"></feColorMatrix><feBlend in2="shape" result="effect1_innerShadow_4371_28357"></feBlend></filter><filter id="RefundCompactDark_svg__d" width="27.1" height="34.544" x="2.418" y="0.256" color-interpolation-filters="sRGB" filterUnits="userSpaceOnUse"><feFlood flood-opacity="0" result="BackgroundImageFix"></feFlood><feColorMatrix in="SourceAlpha" result="hardAlpha" values="0 0 0 0 0 0 0 0 0 0 0 0 0 0 0 0 0 0 127 0"></feColorMatrix><feOffset></feOffset><feGaussianBlur stdDeviation="0.5"></feGaussianBlur><feColorMatrix values="0 0 0 0 0 0 0 0 0 0 0 0 0 0 0 0 0 0 0.07 0"></feColorMatrix><feBlend in2="BackgroundImageFix" result="effect1_dropShadow_4371_28357"></feBlend><feColorMatrix in="SourceAlpha" result="hardAlpha" values="0 0 0 0 0 0 0 0 0 0 0 0 0 0 0 0 0 0 127 0"></feColorMatrix><feOffset dy="1"></feOffset><feGaussianBlur stdDeviation="0.5"></feGaussianBlur><feColorMatrix values="0 0 0 0 0 0 0 0 0 0 0 0 0 0 0 0 0 0 0.06 0"></feColorMatrix><feBlend in2="effect1_dropShadow_4371_28357" result="effect2_dropShadow_4371_28357"></feBlend><feColorMatrix in="SourceAlpha" result="hardAlpha" values="0 0 0 0 0 0 0 0 0 0 0 0 0 0 0 0 0 0 127 0"></feColorMatrix><feOffset dy="3"></feOffset><feGaussianBlur stdDeviation="1"></feGaussianBlur><feColorMatrix values="0 0 0 0 0 0 0 0 0 0 0 0 0 0 0 0 0 0 0.04 0"></feColorMatrix><feBlend in2="effect2_dropShadow_4371_28357" result="effect3_dropShadow_4371_28357"></feBlend><feColorMatrix in="SourceAlpha" result="hardAlpha" values="0 0 0 0 0 0 0 0 0 0 0 0 0 0 0 0 0 0 127 0"></feColorMatrix><feOffset dy="6"></feOffset><feGaussianBlur stdDeviation="1"></feGaussianBlur><feColorMatrix values="0 0 0 0 0 0 0 0 0 0 0 0 0 0 0 0 0 0 0.01 0"></feColorMatrix><feBlend in2="effect3_dropShadow_4371_28357" result="effect4_dropShadow_4371_28357"></feBlend><feBlend in="SourceGraphic" in2="effect4_dropShadow_4371_28357" result="shape"></feBlend></filter><filter id="RefundCompactDark_svg__i" width="13.1" height="15.6" x="10.918" y="7.7" color-interpolation-filters="sRGB" filterUnits="userSpaceOnUse"><feFlood flood-opacity="0" result="BackgroundImageFix"></feFlood><feBlend in="SourceGraphic" in2="BackgroundImageFix" result="shape"></feBlend><feColorMatrix in="SourceAlpha" result="hardAlpha" values="0 0 0 0 0 0 0 0 0 0 0 0 0 0 0 0 0 0 127 0"></feColorMatrix><feOffset dy="1"></feOffset><feGaussianBlur stdDeviation="0.75"></feGaussianBlur><feComposite in2="hardAlpha" k2="-1" k3="1" operator="arithmetic"></feComposite><feColorMatrix values="0 0 0 0 0 0 0 0 0 0 0 0 0 0 0 0 0 0 0.1 0"></feColorMatrix><feBlend in2="shape" result="effect1_innerShadow_4371_28357"></feBlend></filter><radialGradient id="RefundCompactDark_svg__b" cx="0" cy="0" r="1" gradientTransform="matrix(0 14 -9.00455 0 8.719 14)" gradientUnits="userSpaceOnUse"><stop stop-color="#262626" style="stop-color:color(display-p3 .15 .15 .15);stop-opacity:1"></stop><stop offset="1" stop-color="#2E2E2E" style="stop-color:color(display-p3 .18 .18 .18);stop-opacity:1"></stop></radialGradient><radialGradient id="RefundCompactDark_svg__j" cx="0" cy="0" r="1" gradientTransform="matrix(0 13.3 -13.3661 0 17.468 8.7)" gradientUnits="userSpaceOnUse"><stop stop-color="#101010" style="stop-color:color(display-p3 .0639 .0639 .0639);stop-opacity:1"></stop><stop offset="1" stop-color="#1E1E1E" style="stop-color:color(display-p3 .1185 .1185 .1185);stop-opacity:1"></stop></radialGradient></defs></svg>