<svg xmlns="http://www.w3.org/2000/svg" fill="none" viewBox="0 0 30 35"><g filter="url(#RefundCompactLight_svg__a)"><path fill="url(#RefundCompactLight_svg__b)" d="M10.719 26.8h-4c-2.1 0-3.15 0-3.953-.409a3.75 3.75 0 0 1-1.639-1.638C.72 23.95.72 22.9.72 20.8v-7.333c0-.65 0-.975.071-1.198a1.5 1.5 0 0 1 1.658-1.024c.232.036.522.18 1.103.471.267.134.4.2.534.245.411.137.856.137 1.267 0 .134-.045.267-.111.534-.245l.249-.124c1.49-.746 2.236-1.118 2.843-1.04a2 2 0 0 1 1.398.865c.343.507.343 1.34.343 3.008z"></path></g><path stroke="url(#RefundCompactLight_svg__c)" stroke-opacity="0.1" stroke-width="0.3" d="M10.569 26.65h-3.85c-1.053 0-1.833 0-2.451-.05-.616-.05-1.057-.15-1.434-.342a3.6 3.6 0 0 1-1.573-1.574c-.192-.376-.292-.817-.342-1.433-.05-.618-.05-1.398-.05-2.451v-7.333c0-.326 0-.566.008-.752.01-.186.026-.307.056-.4a1.35 1.35 0 0 1 1.492-.922c.096.015.212.054.383.13.17.075.384.182.676.328l.013.006c.254.127.396.198.54.246.443.148.92.148 1.362 0 .145-.048.287-.119.541-.246l.013-.006.249-.125c.748-.374 1.3-.65 1.74-.823.442-.174.751-.236 1.016-.201.526.068.997.36 1.294.8.15.22.232.525.274.997s.043 1.09.043 1.926z"></path><g filter="url(#RefundCompactLight_svg__d)"><path fill="url(#RefundCompactLight_svg__e)" d="m13.847 3.112.807-.44c1.12-.611 1.68-.916 2.27-1.036a4 4 0 0 1 1.588 0c.592.12 1.152.425 2.271 1.036l.807.44c.584.319.877.478 1.184.537a2 2 0 0 0 .867-.026c.304-.077.586-.253 1.15-.606.78-.488 1.171-.732 1.493-.71a1 1 0 0 1 .746.413c.188.262.188.722.188 1.642V18.5c0 2.8 0 4.2-.544 5.27a5 5 0 0 1-2.186 2.185c-1.07.545-2.47.545-5.27.545h-14.5a3.5 3.5 0 0 0 3.5-3.5V4.362c0-.92 0-1.38.19-1.642a1 1 0 0 1 .745-.414c.322-.02.712.223 1.493.711.564.353.846.53 1.15.606a2 2 0 0 0 .867.026c.307-.06.6-.218 1.184-.537"></path><path stroke="url(#RefundCompactLight_svg__f)" stroke-linejoin="round" stroke-opacity="0.1" stroke-width="0.3" d="M4.719 26.35a.15.15 0 0 0 0 .3h14.506c1.395 0 2.45 0 3.29-.069.843-.069 1.482-.207 2.041-.492a5.15 5.15 0 0 0 2.251-2.25c.285-.56.424-1.2.493-2.043.068-.84.068-1.895.068-3.289V4.354c0-.453 0-.804-.024-1.073-.024-.27-.074-.484-.193-.649a1.15 1.15 0 0 0-.857-.475c-.202-.014-.41.057-.652.18-.242.122-.539.308-.923.549l-.007.004c-.573.358-.832.518-1.107.588a1.85 1.85 0 0 1-.803.023c-.279-.053-.547-.197-1.14-.52l-.807-.441-.028-.015c-1.093-.596-1.671-.912-2.285-1.036a4.15 4.15 0 0 0-1.647 0c-.614.124-1.192.44-2.285 1.036l-.028.015-.807.44c-.593.324-.861.468-1.14.521a1.85 1.85 0 0 1-.803-.023c-.275-.07-.534-.23-1.107-.588l-.007-.004c-.384-.24-.681-.427-.923-.549s-.45-.194-.652-.18a1.15 1.15 0 0 0-.858.475c-.118.165-.168.379-.192.649-.025.27-.025.62-.025 1.073V23c0 1.85-1.5 3.35-3.35 3.35Z"></path></g><mask id="RefundCompactLight_svg__i" fill="#fff"><path fill-rule="evenodd" d="M11.219 10c0-.465 0-.697.05-.888a1.5 1.5 0 0 1 1.061-1.06C12.521 8 12.754 8 13.22 8s.697 0 .888.051a1.5 1.5 0 0 1 1.06 1.06c.052.192.052.424.052.889s0 .697-.052.888a1.5 1.5 0 0 1-1.06 1.06c-.191.052-.423.052-.888.052s-.698 0-.889-.051a1.5 1.5 0 0 1-1.06-1.06c-.051-.191-.051-.424-.051-.889Zm0 7a1 1 0 0 1 1-1h10.5a1 1 0 1 1 0 2h-10.5a1 1 0 0 1-1-1m1 3a1 1 0 1 0 0 2h6a1 1 0 1 0 0-2z" clip-rule="evenodd"></path></mask><g filter="url(#RefundCompactLight_svg__g)"><path fill="url(#RefundCompactLight_svg__h)" fill-rule="evenodd" d="M11.219 10c0-.465 0-.697.05-.888a1.5 1.5 0 0 1 1.061-1.06C12.521 8 12.754 8 13.22 8s.697 0 .888.051a1.5 1.5 0 0 1 1.06 1.06c.052.192.052.424.052.889s0 .697-.052.888a1.5 1.5 0 0 1-1.06 1.06c-.191.052-.423.052-.888.052s-.698 0-.889-.051a1.5 1.5 0 0 1-1.06-1.06c-.051-.191-.051-.424-.051-.889Zm0 7a1 1 0 0 1 1-1h10.5a1 1 0 1 1 0 2h-10.5a1 1 0 0 1-1-1m1 3a1 1 0 1 0 0 2h6a1 1 0 1 0 0-2z" clip-rule="evenodd"></path></g><path fill="#000" fill-opacity="0.1" d="m11.27 9.112.29.077zm1.06-1.06.078.289zm1.777 0 .077-.29zm1.06 1.06.29-.078zm0 1.776.29.078zm-1.06 1.06.077.29zm-1.777 0-.077.29zm-1.06-1.06-.29.078zm-.29-1.854c-.064.239-.062.52-.062.966h.6c0-.484.003-.668.041-.81zm1.273-1.273a1.8 1.8 0 0 0-1.273 1.273l.58.155a1.2 1.2 0 0 1 .848-.848zm.966-.061c-.446 0-.728-.003-.966.061l.155.58c.143-.038.326-.041.81-.041zm.965.061c-.238-.064-.52-.061-.965-.061v.6c.484 0 .667.003.81.04zm1.273 1.273a1.8 1.8 0 0 0-1.273-1.273l-.155.58a1.2 1.2 0 0 1 .849.848zm.061.966c0-.446.003-.727-.06-.966l-.58.155c.038.143.04.327.04.811zm-.06.966c.063-.239.06-.52.06-.966h-.6c0 .484-.002.668-.04.81zm-1.274 1.273a1.8 1.8 0 0 0 1.273-1.273l-.58-.155a1.2 1.2 0 0 1-.848.848zm-.965.061c.445 0 .727.003.965-.061l-.155-.58c-.143.038-.326.041-.81.041zm-.966-.061c.238.064.52.061.966.061v-.6c-.485 0-.668-.003-.811-.04zm-1.273-1.273a1.8 1.8 0 0 0 1.273 1.273l.155-.58a1.2 1.2 0 0 1-.849-.848l-.58.155ZM10.918 10c0 .446-.002.727.062.966l.58-.155c-.039-.143-.042-.327-.042-.811zm1.3 5.7a1.3 1.3 0 0 0-1.3 1.3h.6a.7.7 0 0 1 .7-.7zm10.5 0h-10.5v.6h10.5zm1.3 1.3a1.3 1.3 0 0 0-1.3-1.3v.6a.7.7 0 0 1 .7.7zm-1.3 1.3a1.3 1.3 0 0 0 1.3-1.3h-.6a.7.7 0 0 1-.7.7zm-10.5 0h10.5v-.6h-10.5zm-1.3-1.3a1.3 1.3 0 0 0 1.3 1.3v-.6a.7.7 0 0 1-.7-.7zm.6 4a.7.7 0 0 1 .7-.7v-.6a1.3 1.3 0 0 0-1.3 1.3zm.7.7a.7.7 0 0 1-.7-.7h-.6a1.3 1.3 0 0 0 1.3 1.3zm6 0h-6v.6h6zm.7-.7a.7.7 0 0 1-.7.7v.6a1.3 1.3 0 0 0 1.3-1.3zm-.7-.7a.7.7 0 0 1 .7.7h.6a1.3 1.3 0 0 0-1.3-1.3zm-6 0h6v-.6h-6z" mask="url(#RefundCompactLight_svg__i)" style="fill:#000;fill-opacity:0.1"></path><defs><linearGradient id="RefundCompactLight_svg__b" x1="5.68" x2="5.68" y1="8.907" y2="27.137" gradientUnits="userSpaceOnUse"><stop stop-color="#DCDCDC" style="stop-color:color(display-p3 .8626 .8626 .8626);stop-opacity:1"></stop><stop offset="1" stop-color="#F1F1F1" style="stop-color:color(display-p3 .9451 .9451 .9451);stop-opacity:1"></stop></linearGradient><linearGradient id="RefundCompactLight_svg__c" x1="6.219" x2="8.719" y1="26.5" y2="26.5" gradientUnits="userSpaceOnUse"><stop style="stop-color:black;stop-opacity:1"></stop><stop offset="1" stop-opacity="0" style="stop-color:none;stop-opacity:0"></stop></linearGradient><linearGradient id="RefundCompactLight_svg__e" x1="6481.71" x2="6481.71" y1="-45.868" y2="22.512" gradientUnits="userSpaceOnUse"><stop stop-color="#FAFAFA" style="stop-color:color(display-p3 .9792 .9792 .9792);stop-opacity:1"></stop><stop offset="1" stop-color="#fff" style="stop-color:white;stop-opacity:1"></stop></linearGradient><linearGradient id="RefundCompactLight_svg__f" x1="9.719" x2="5.219" y1="24" y2="26.5" gradientUnits="userSpaceOnUse"><stop style="stop-color:black;stop-opacity:1"></stop><stop offset="1" stop-opacity="0" style="stop-color:none;stop-opacity:0"></stop></linearGradient><linearGradient id="RefundCompactLight_svg__h" x1="17.933" x2="17.933" y1="6.663" y2="22.289" gradientUnits="userSpaceOnUse"><stop stop-color="#DCDCDC" style="stop-color:color(display-p3 .8626 .8626 .8626);stop-opacity:1"></stop><stop offset="1" stop-color="#F1F1F1" style="stop-color:color(display-p3 .9451 .9451 .9451);stop-opacity:1"></stop></linearGradient><filter id="RefundCompactLight_svg__a" width="10" height="17.258" x="0.719" y="10.542" color-interpolation-filters="sRGB" filterUnits="userSpaceOnUse"><feFlood flood-opacity="0" result="BackgroundImageFix"></feFlood><feBlend in="SourceGraphic" in2="BackgroundImageFix" result="shape"></feBlend><feColorMatrix in="SourceAlpha" result="hardAlpha" values="0 0 0 0 0 0 0 0 0 0 0 0 0 0 0 0 0 0 127 0"></feColorMatrix><feOffset dy="1"></feOffset><feGaussianBlur stdDeviation="0.75"></feGaussianBlur><feComposite in2="hardAlpha" k2="-1" k3="1" operator="arithmetic"></feComposite><feColorMatrix values="0 0 0 0 0 0 0 0 0 0 0 0 0 0 0 0 0 0 0.1 0"></feColorMatrix><feBlend in2="shape" result="effect1_innerShadow_4371_28297"></feBlend></filter><filter id="RefundCompactLight_svg__d" width="27.1" height="34.544" x="2.418" y="0.256" color-interpolation-filters="sRGB" filterUnits="userSpaceOnUse"><feFlood flood-opacity="0" result="BackgroundImageFix"></feFlood><feColorMatrix in="SourceAlpha" result="hardAlpha" values="0 0 0 0 0 0 0 0 0 0 0 0 0 0 0 0 0 0 127 0"></feColorMatrix><feOffset></feOffset><feGaussianBlur stdDeviation="0.5"></feGaussianBlur><feColorMatrix values="0 0 0 0 0 0 0 0 0 0 0 0 0 0 0 0 0 0 0.07 0"></feColorMatrix><feBlend in2="BackgroundImageFix" result="effect1_dropShadow_4371_28297"></feBlend><feColorMatrix in="SourceAlpha" result="hardAlpha" values="0 0 0 0 0 0 0 0 0 0 0 0 0 0 0 0 0 0 127 0"></feColorMatrix><feOffset dy="1"></feOffset><feGaussianBlur stdDeviation="0.5"></feGaussianBlur><feColorMatrix values="0 0 0 0 0 0 0 0 0 0 0 0 0 0 0 0 0 0 0.06 0"></feColorMatrix><feBlend in2="effect1_dropShadow_4371_28297" result="effect2_dropShadow_4371_28297"></feBlend><feColorMatrix in="SourceAlpha" result="hardAlpha" values="0 0 0 0 0 0 0 0 0 0 0 0 0 0 0 0 0 0 127 0"></feColorMatrix><feOffset dy="3"></feOffset><feGaussianBlur stdDeviation="1"></feGaussianBlur><feColorMatrix values="0 0 0 0 0 0 0 0 0 0 0 0 0 0 0 0 0 0 0.04 0"></feColorMatrix><feBlend in2="effect2_dropShadow_4371_28297" result="effect3_dropShadow_4371_28297"></feBlend><feColorMatrix in="SourceAlpha" result="hardAlpha" values="0 0 0 0 0 0 0 0 0 0 0 0 0 0 0 0 0 0 127 0"></feColorMatrix><feOffset dy="6"></feOffset><feGaussianBlur stdDeviation="1"></feGaussianBlur><feColorMatrix values="0 0 0 0 0 0 0 0 0 0 0 0 0 0 0 0 0 0 0.01 0"></feColorMatrix><feBlend in2="effect3_dropShadow_4371_28297" result="effect4_dropShadow_4371_28297"></feBlend><feBlend in="SourceGraphic" in2="effect4_dropShadow_4371_28297" result="shape"></feBlend></filter><filter id="RefundCompactLight_svg__g" width="12.5" height="15" x="11.219" y="8" color-interpolation-filters="sRGB" filterUnits="userSpaceOnUse"><feFlood flood-opacity="0" result="BackgroundImageFix"></feFlood><feBlend in="SourceGraphic" in2="BackgroundImageFix" result="shape"></feBlend><feColorMatrix in="SourceAlpha" result="hardAlpha" values="0 0 0 0 0 0 0 0 0 0 0 0 0 0 0 0 0 0 127 0"></feColorMatrix><feOffset dy="1"></feOffset><feGaussianBlur stdDeviation="0.75"></feGaussianBlur><feComposite in2="hardAlpha" k2="-1" k3="1" operator="arithmetic"></feComposite><feColorMatrix values="0 0 0 0 0 0 0 0 0 0 0 0 0 0 0 0 0 0 0.1 0"></feColorMatrix><feBlend in2="shape" result="effect1_innerShadow_4371_28297"></feBlend></filter></defs></svg>