<svg xmlns="http://www.w3.org/2000/svg" fill="none" viewBox="0 0 52 56"><g filter="url(#StarSquareLight_svg__a)"><rect width="48" height="48" x="2" y="1.5" fill="url(#StarSquareLight_svg__b)" rx="12"></rect><path fill="#000" fill-opacity="0.12" fill-rule="evenodd" d="M36.44 11.45a6.25 6.25 0 0 0 4.014 4.01.79.79 0 0 1 0 1.5 6.27 6.27 0 0 0-4.014 4.026.79.79 0 0 1-1.502 0 6.27 6.27 0 0 0-4.013-4.025.79.79 0 0 1 0-1.502 6.25 6.25 0 0 0 4.013-4.009c.21-.65 1.292-.65 1.502 0m-9.112 12.257 7.473 2.427a1.535 1.535 0 0 1 1.069 1.47c0 .675-.433 1.266-1.074 1.47l-7.485 2.43-2.408 7.466a1.52 1.52 0 0 1-1.469 1.068c-.684 0-1.26-.42-1.47-1.068l-2.428-7.484-7.467-2.414A1.53 1.53 0 0 1 11 27.604c0-.678.431-1.268 1.072-1.472l7.488-2.43 2.404-7.467a1.52 1.52 0 0 1 1.47-1.066c.682 0 1.26.419 1.469 1.066z" clip-rule="evenodd"></path></g><defs><linearGradient id="StarSquareLight_svg__b" x1="25.454" x2="26" y1="7.37" y2="49.5" gradientUnits="userSpaceOnUse"><stop stop-color="#F5F5F5"></stop><stop offset="1" stop-color="#fff"></stop></linearGradient><filter id="StarSquareLight_svg__a" width="52" height="55" x="0" y="0.5" color-interpolation-filters="sRGB" filterUnits="userSpaceOnUse"><feFlood flood-opacity="0" result="BackgroundImageFix"></feFlood><feColorMatrix in="SourceAlpha" result="hardAlpha" values="0 0 0 0 0 0 0 0 0 0 0 0 0 0 0 0 0 0 127 0"></feColorMatrix><feOffset></feOffset><feColorMatrix values="0 0 0 0 0 0 0 0 0 0 0 0 0 0 0 0 0 0 0.1 0"></feColorMatrix><feBlend in2="BackgroundImageFix" result="effect1_dropShadow_705_14808"></feBlend><feColorMatrix in="SourceAlpha" result="hardAlpha" values="0 0 0 0 0 0 0 0 0 0 0 0 0 0 0 0 0 0 127 0"></feColorMatrix><feOffset></feOffset><feGaussianBlur stdDeviation="0.5"></feGaussianBlur><feColorMatrix values="0 0 0 0 0 0 0 0 0 0 0 0 0 0 0 0 0 0 0.1 0"></feColorMatrix><feBlend in2="effect1_dropShadow_705_14808" result="effect2_dropShadow_705_14808"></feBlend><feColorMatrix in="SourceAlpha" result="hardAlpha" values="0 0 0 0 0 0 0 0 0 0 0 0 0 0 0 0 0 0 127 0"></feColorMatrix><feOffset dy="1"></feOffset><feGaussianBlur stdDeviation="0.5"></feGaussianBlur><feColorMatrix values="0 0 0 0 0 0 0 0 0 0 0 0 0 0 0 0 0 0 0.09 0"></feColorMatrix><feBlend in2="effect2_dropShadow_705_14808" result="effect3_dropShadow_705_14808"></feBlend><feColorMatrix in="SourceAlpha" result="hardAlpha" values="0 0 0 0 0 0 0 0 0 0 0 0 0 0 0 0 0 0 127 0"></feColorMatrix><feOffset dy="2"></feOffset><feGaussianBlur stdDeviation="0.5"></feGaussianBlur><feColorMatrix values="0 0 0 0 0 0 0 0 0 0 0 0 0 0 0 0 0 0 0.05 0"></feColorMatrix><feBlend in2="effect3_dropShadow_705_14808" result="effect4_dropShadow_705_14808"></feBlend><feColorMatrix in="SourceAlpha" result="hardAlpha" values="0 0 0 0 0 0 0 0 0 0 0 0 0 0 0 0 0 0 127 0"></feColorMatrix><feOffset dy="4"></feOffset><feGaussianBlur stdDeviation="1"></feGaussianBlur><feColorMatrix values="0 0 0 0 0 0 0 0 0 0 0 0 0 0 0 0 0 0 0.01 0"></feColorMatrix><feBlend in2="effect4_dropShadow_705_14808" result="effect5_dropShadow_705_14808"></feBlend><feBlend in="SourceGraphic" in2="effect5_dropShadow_705_14808" result="shape"></feBlend></filter></defs></svg>