<svg xmlns="http://www.w3.org/2000/svg" fill="none" viewBox="0 0 52 57"><g filter="url(#StarSquareDark_svg__a)"><rect width="48" height="48" x="2" y="1" fill="url(#StarSquareDark_svg__b)" rx="12"></rect><g filter="url(#StarSquareDark_svg__c)"><path fill="#fff" fill-opacity="0.33" fill-rule="evenodd" d="M36.44 10.95a6.25 6.25 0 0 0 4.014 4.01.79.79 0 0 1 0 1.5 6.27 6.27 0 0 0-4.014 4.026.79.79 0 0 1-1.501 0 6.27 6.27 0 0 0-4.014-4.025.79.79 0 0 1 0-1.502 6.25 6.25 0 0 0 4.014-4.009c.21-.65 1.291-.65 1.502 0m-9.112 12.256 7.473 2.427a1.54 1.54 0 0 1 1.069 1.47c0 .676-.433 1.267-1.074 1.47l-7.485 2.43-2.408 7.467a1.52 1.52 0 0 1-1.469 1.068c-.684 0-1.26-.42-1.47-1.068l-2.428-7.484-7.467-2.414A1.53 1.53 0 0 1 11 27.103c0-.677.431-1.268 1.072-1.471l7.488-2.43 2.404-7.467a1.52 1.52 0 0 1 1.47-1.066c.682 0 1.26.418 1.469 1.066z" clip-rule="evenodd"></path></g><rect width="47" height="47" x="2.5" y="1.5" stroke="url(#StarSquareDark_svg__d)" stroke-opacity="0.1" rx="11.5"></rect></g><defs><linearGradient id="StarSquareDark_svg__b" x1="26" x2="26" y1="1" y2="49" gradientUnits="userSpaceOnUse"><stop stop-color="#353536"></stop><stop offset="1" stop-color="#232324"></stop></linearGradient><linearGradient id="StarSquareDark_svg__d" x1="26" x2="26" y1="1" y2="49" gradientUnits="userSpaceOnUse"><stop stop-color="#fff"></stop><stop offset="1" stop-color="#fff" stop-opacity="0"></stop></linearGradient><filter id="StarSquareDark_svg__a" width="52" height="57" x="0" y="0" color-interpolation-filters="sRGB" filterUnits="userSpaceOnUse"><feFlood flood-opacity="0" result="BackgroundImageFix"></feFlood><feColorMatrix in="SourceAlpha" result="hardAlpha" values="0 0 0 0 0 0 0 0 0 0 0 0 0 0 0 0 0 0 127 0"></feColorMatrix><feOffset></feOffset><feColorMatrix values="0 0 0 0 0 0 0 0 0 0 0 0 0 0 0 0 0 0 0.3 0"></feColorMatrix><feBlend in2="BackgroundImageFix" result="effect1_dropShadow_732_2826"></feBlend><feColorMatrix in="SourceAlpha" result="hardAlpha" values="0 0 0 0 0 0 0 0 0 0 0 0 0 0 0 0 0 0 127 0"></feColorMatrix><feOffset></feOffset><feGaussianBlur stdDeviation="0.5"></feGaussianBlur><feColorMatrix values="0 0 0 0 0 0 0 0 0 0 0 0 0 0 0 0 0 0 0.2 0"></feColorMatrix><feBlend in2="effect1_dropShadow_732_2826" result="effect2_dropShadow_732_2826"></feBlend><feColorMatrix in="SourceAlpha" result="hardAlpha" values="0 0 0 0 0 0 0 0 0 0 0 0 0 0 0 0 0 0 127 0"></feColorMatrix><feOffset dy="1"></feOffset><feGaussianBlur stdDeviation="0.5"></feGaussianBlur><feColorMatrix values="0 0 0 0 0 0 0 0 0 0 0 0 0 0 0 0 0 0 0.2 0"></feColorMatrix><feBlend in2="effect2_dropShadow_732_2826" result="effect3_dropShadow_732_2826"></feBlend><feColorMatrix in="SourceAlpha" result="hardAlpha" values="0 0 0 0 0 0 0 0 0 0 0 0 0 0 0 0 0 0 127 0"></feColorMatrix><feOffset dy="2"></feOffset><feGaussianBlur stdDeviation="0.5"></feGaussianBlur><feColorMatrix values="0 0 0 0 0 0 0 0 0 0 0 0 0 0 0 0 0 0 0.15 0"></feColorMatrix><feBlend in2="effect3_dropShadow_732_2826" result="effect4_dropShadow_732_2826"></feBlend><feColorMatrix in="SourceAlpha" result="hardAlpha" values="0 0 0 0 0 0 0 0 0 0 0 0 0 0 0 0 0 0 127 0"></feColorMatrix><feOffset dy="4"></feOffset><feGaussianBlur stdDeviation="1"></feGaussianBlur><feColorMatrix values="0 0 0 0 0 0 0 0 0 0 0 0 0 0 0 0 0 0 0.1 0"></feColorMatrix><feBlend in2="effect4_dropShadow_732_2826" result="effect5_dropShadow_732_2826"></feBlend><feColorMatrix in="SourceAlpha" result="hardAlpha" values="0 0 0 0 0 0 0 0 0 0 0 0 0 0 0 0 0 0 127 0"></feColorMatrix><feOffset dy="6"></feOffset><feGaussianBlur stdDeviation="1"></feGaussianBlur><feColorMatrix values="0 0 0 0 0 0 0 0 0 0 0 0 0 0 0 0 0 0 0.05 0"></feColorMatrix><feBlend in2="effect5_dropShadow_732_2826" result="effect6_dropShadow_732_2826"></feBlend><feBlend in="SourceGraphic" in2="effect6_dropShadow_732_2826" result="shape"></feBlend></filter><filter id="StarSquareDark_svg__c" width="30" height="30.408" x="11" y="10.462" color-interpolation-filters="sRGB" filterUnits="userSpaceOnUse"><feFlood flood-opacity="0" result="BackgroundImageFix"></feFlood><feBlend in="SourceGraphic" in2="BackgroundImageFix" result="shape"></feBlend><feColorMatrix in="SourceAlpha" result="hardAlpha" values="0 0 0 0 0 0 0 0 0 0 0 0 0 0 0 0 0 0 127 0"></feColorMatrix><feOffset dy="1.333"></feOffset><feGaussianBlur stdDeviation="2"></feGaussianBlur><feComposite in2="hardAlpha" k2="-1" k3="1" operator="arithmetic"></feComposite><feColorMatrix values="0 0 0 0 1 0 0 0 0 1 0 0 0 0 1 0 0 0 0.4 0"></feColorMatrix><feBlend in2="shape" result="effect1_innerShadow_732_2826"></feBlend></filter></defs></svg>