<svg xmlns="http://www.w3.org/2000/svg" fill="none" viewBox="0 0 32 37"><g filter="url(#TagCompactDark_svg__a)"><mask id="TagCompactDark_svg__c" width="28" height="28" x="2" y="1" fill="#000" maskUnits="userSpaceOnUse"><path fill="#fff" d="M2 1h28v28H2z"></path><path fill-rule="evenodd" d="m5.283 21.526 3.949 3.948c1.584 1.585 2.376 2.377 3.29 2.673a4 4 0 0 0 2.471 0c.914-.296 1.706-1.088 3.29-2.672l8.131-8.132c.865-.865 1.297-1.297 1.606-1.802.275-.447.477-.935.6-1.445.137-.575.137-1.187.137-2.41V8.828c0-.337 0-.505-.009-.668a6 6 0 0 0-1.524-3.681A13 13 0 0 0 26.757 4c-.238-.238-.357-.358-.479-.466a6 6 0 0 0-3.68-1.525C22.434 2 22.265 2 21.927 2h-2.857c-1.223 0-1.834 0-2.41.138a5 5 0 0 0-1.445.599c-.505.309-.937.741-1.802 1.606l-8.131 8.132c-1.584 1.584-2.376 2.376-2.673 3.289a4 4 0 0 0 0 2.472c.297.913 1.089 1.705 2.673 3.29M21.257 12a2.5 2.5 0 1 0 0-5 2.5 2.5 0 0 0 0 5" clip-rule="evenodd"></path></mask><path fill="url(#TagCompactDark_svg__b)" fill-rule="evenodd" d="m5.283 21.526 3.949 3.948c1.584 1.585 2.376 2.377 3.29 2.673a4 4 0 0 0 2.471 0c.914-.296 1.706-1.088 3.29-2.672l8.131-8.132c.865-.865 1.297-1.297 1.606-1.802.275-.447.477-.935.6-1.445.137-.575.137-1.187.137-2.41V8.828c0-.337 0-.505-.009-.668a6 6 0 0 0-1.524-3.681A13 13 0 0 0 26.757 4c-.238-.238-.357-.358-.479-.466a6 6 0 0 0-3.68-1.525C22.434 2 22.265 2 21.927 2h-2.857c-1.223 0-1.834 0-2.41.138a5 5 0 0 0-1.445.599c-.505.309-.937.741-1.802 1.606l-8.131 8.132c-1.584 1.584-2.376 2.376-2.673 3.289a4 4 0 0 0 0 2.472c.297.913 1.089 1.705 2.673 3.29M21.257 12a2.5 2.5 0 1 0 0-5 2.5 2.5 0 0 0 0 5" clip-rule="evenodd"></path><path fill="#000" d="m9.232 25.475.212-.213zm-3.95-3.95.213-.212zm7.24 6.622.092-.285zm2.471 0-.092-.285zM28.02 15.541l-.255-.156zm.6-1.445-.293-.07zm.128-5.936-.3.016zM27.225 4.48l.223-.2zM26.757 4l-.214.21.002.002zm0 0 .214-.21-.007-.007zm0 0-.212.212.005.005zm-.479-.466-.2.223zm-3.68-1.525-.017.3zm-5.937.13.07.29zm-1.445.598.157.256zm-1.802 1.606-.212-.212-.006.006-.006.007zm0 0 .212.212.007-.006.005-.007zm-8.131 8.132-.212-.213zM2.61 15.764l-.285-.093zm0 2.472-.285.093zm6.834 7.026-3.95-3.949-.423.425 3.949 3.949zm3.17 2.6c-.404-.131-.796-.376-1.292-.797-.498-.423-1.082-1.007-1.878-1.803l-.424.425c.788.788 1.392 1.392 1.914 1.835.524.446.985.745 1.495.91zm2.287 0a3.7 3.7 0 0 1-2.287 0l-.185.57a4.3 4.3 0 0 0 2.657 0zm3.17-2.6c-.796.796-1.38 1.38-1.879 1.803-.496.421-.887.666-1.291.797l.185.57c.51-.165.97-.464 1.495-.91.521-.442 1.125-1.047 1.914-1.835zm8.131-8.131-8.131 8.131.424.425 8.131-8.132zm0 0 .424.424zm1.563-1.746c-.287.467-.688.871-1.563 1.746l.424.424c.855-.854 1.318-1.315 1.65-1.857zm.563-1.359c-.116.48-.306.938-.563 1.359l.511.313c.29-.474.505-.991.635-1.532zm.13-2.34c0 1.238-.003 1.807-.13 2.34l.583.14c.148-.618.146-1.271.146-2.48zm0-2.858v2.858h.6V8.828zm-.01-.652c.01.153.01.312.01.652h.6c0-.334 0-.512-.01-.684zM27 4.68a5.7 5.7 0 0 1 1.449 3.497l.6-.032a6.3 6.3 0 0 0-1.602-3.866zm-.455-.467c.24.24.353.353.455.467l.447-.4c-.115-.13-.241-.255-.477-.491zm-.002-.002.428-.42zm.007.007.414-.434zm-.472-.46c.114.102.226.214.467.455l.424-.424c-.236-.236-.362-.362-.49-.478zm-3.497-1.449a5.7 5.7 0 0 1 3.497 1.449l.4-.447a6.3 6.3 0 0 0-3.865-1.6zm-.652-.008c.34 0 .5 0 .652.008l.032-.599c-.172-.01-.35-.009-.684-.009zm-2.858 0h2.858v-.6H19.07zm-2.34.13c.533-.128 1.103-.13 2.34-.13v-.6c-1.209 0-1.862-.002-2.48.146zm-1.358.563c.42-.258.879-.448 1.358-.563l-.14-.584a5.3 5.3 0 0 0-1.532.635zm-1.747 1.562c.875-.875 1.28-1.276 1.747-1.562l-.314-.512c-.542.332-1.002.795-1.857 1.65zm.012-.013-.448-.398zm-8.143 8.145 8.131-8.132-.424-.424-8.131 8.131zm-2.6 3.17c.132-.404.376-.796.797-1.292.424-.499 1.007-1.083 1.803-1.878l-.424-.425c-.789.789-1.393 1.393-1.836 1.915-.445.524-.745.985-.91 1.494zm0 2.286a3.7 3.7 0 0 1 0-2.286l-.57-.186a4.3 4.3 0 0 0 0 2.658zm2.6 3.17c-.796-.795-1.38-1.38-1.803-1.878-.42-.496-.665-.888-.797-1.292l-.57.186c.165.51.465.97.91 1.494.443.522 1.047 1.126 1.836 1.915zM23.457 9.5a2.2 2.2 0 0 1-2.2 2.2v.6a2.8 2.8 0 0 0 2.8-2.8zm-2.2-2.2a2.2 2.2 0 0 1 2.2 2.2h.6a2.8 2.8 0 0 0-2.8-2.8zm-2.2 2.2a2.2 2.2 0 0 1 2.2-2.2v-.6a2.8 2.8 0 0 0-2.8 2.8zm2.2 2.2a2.2 2.2 0 0 1-2.2-2.2h-.6a2.8 2.8 0 0 0 2.8 2.8z" mask="url(#TagCompactDark_svg__c)"></path></g><defs><linearGradient id="TagCompactDark_svg__b" x1="15.379" x2="15.379" y1="2" y2="28.757" gradientUnits="userSpaceOnUse"><stop stop-color="#4F4F4F"></stop><stop offset="1" stop-color="#363636"></stop></linearGradient><filter id="TagCompactDark_svg__a" width="30.943" height="35.943" x="0.114" y="0.7" color-interpolation-filters="sRGB" filterUnits="userSpaceOnUse"><feFlood flood-opacity="0" result="BackgroundImageFix"></feFlood><feColorMatrix in="SourceAlpha" result="hardAlpha" values="0 0 0 0 0 0 0 0 0 0 0 0 0 0 0 0 0 0 127 0"></feColorMatrix><feOffset></feOffset><feGaussianBlur stdDeviation="0.5"></feGaussianBlur><feColorMatrix values="0 0 0 0 0 0 0 0 0 0 0 0 0 0 0 0 0 0 0.07 0"></feColorMatrix><feBlend in2="BackgroundImageFix" result="effect1_dropShadow_7286_134"></feBlend><feColorMatrix in="SourceAlpha" result="hardAlpha" values="0 0 0 0 0 0 0 0 0 0 0 0 0 0 0 0 0 0 127 0"></feColorMatrix><feOffset dy="1"></feOffset><feGaussianBlur stdDeviation="0.5"></feGaussianBlur><feColorMatrix values="0 0 0 0 0 0 0 0 0 0 0 0 0 0 0 0 0 0 0.06 0"></feColorMatrix><feBlend in2="effect1_dropShadow_7286_134" result="effect2_dropShadow_7286_134"></feBlend><feColorMatrix in="SourceAlpha" result="hardAlpha" values="0 0 0 0 0 0 0 0 0 0 0 0 0 0 0 0 0 0 127 0"></feColorMatrix><feOffset dy="3"></feOffset><feGaussianBlur stdDeviation="1"></feGaussianBlur><feColorMatrix values="0 0 0 0 0 0 0 0 0 0 0 0 0 0 0 0 0 0 0.04 0"></feColorMatrix><feBlend in2="effect2_dropShadow_7286_134" result="effect3_dropShadow_7286_134"></feBlend><feColorMatrix in="SourceAlpha" result="hardAlpha" values="0 0 0 0 0 0 0 0 0 0 0 0 0 0 0 0 0 0 127 0"></feColorMatrix><feOffset dy="6"></feOffset><feGaussianBlur stdDeviation="1"></feGaussianBlur><feColorMatrix values="0 0 0 0 0 0 0 0 0 0 0 0 0 0 0 0 0 0 0.01 0"></feColorMatrix><feBlend in2="effect3_dropShadow_7286_134" result="effect4_dropShadow_7286_134"></feBlend><feBlend in="SourceGraphic" in2="effect4_dropShadow_7286_134" result="shape"></feBlend></filter></defs></svg>