<svg xmlns="http://www.w3.org/2000/svg" fill="none" viewBox="0 0 25 37"><g filter="url(#TaxCompactLight_svg__a)"><path fill="url(#TaxCompactLight_svg__b)" d="m8.628 3.112.807-.44c1.12-.611 1.68-.916 2.271-1.036a4 4 0 0 1 1.588 0c.591.12 1.151.425 2.27 1.036l.808.44c.584.319.876.478 1.183.537a2 2 0 0 0 .868-.026c.303-.077.585-.253 1.15-.606.78-.488 1.17-.732 1.493-.71a1 1 0 0 1 .745.413C22 2.98 22 3.442 22 4.362v21.276c0 .92 0 1.38-.189 1.642a1 1 0 0 1-.745.414c-.322.02-.713-.223-1.493-.711-.565-.353-.847-.53-1.15-.606a2 2 0 0 0-.868-.026c-.307.06-.599.218-1.183.537l-.807.44c-1.12.611-1.68.916-2.271 1.036a4 4 0 0 1-1.588 0c-.591-.12-1.151-.425-2.27-1.036l-.808-.44c-.584-.319-.876-.478-1.183-.537a2 2 0 0 0-.868.026c-.303.077-.585.253-1.15.606-.78.488-1.17.732-1.493.71a1 1 0 0 1-.745-.413C3 27.018 3 26.558 3 25.638V4.362c0-.92 0-1.38.189-1.642a1 1 0 0 1 .745-.414c.322-.02.713.223 1.493.711.565.353.847.53 1.15.606a2 2 0 0 0 .868.026c.307-.06.599-.218 1.183-.537"></path><path stroke="url(#TaxCompactLight_svg__c)" stroke-linejoin="round" stroke-opacity="0.1" stroke-width="0.3" d="m15.636 2.54-.027-.015c-1.093-.596-1.672-.912-2.286-1.036a4.15 4.15 0 0 0-1.646 0c-.614.124-1.193.44-2.286 1.036l-.027.015-.808.44c-.593.324-.86.468-1.14.521a1.85 1.85 0 0 1-.802-.023c-.275-.07-.534-.23-1.107-.588L5.5 2.886c-.385-.24-.682-.427-.923-.549-.242-.123-.45-.194-.653-.18a1.15 1.15 0 0 0-.857.475c-.119.165-.169.379-.193.649s-.024.62-.024 1.073v21.292c0 .453 0 .804.024 1.073.024.27.074.484.193.649.2.278.515.453.857.475.203.014.41-.057.653-.18.241-.122.538-.308.923-.549l.007-.004c.573-.358.832-.518 1.107-.588a1.85 1.85 0 0 1 .802-.023c.28.053.547.197 1.14.52l.808.441.027.015c1.093.596 1.672.912 2.286 1.036.543.11 1.103.11 1.646 0 .614-.124 1.193-.44 2.286-1.036l.027-.015.808-.44c.593-.324.86-.468 1.14-.521.266-.051.54-.043.802.023.275.07.534.23 1.107.588l.007.004c.385.24.682.427.923.549.242.123.45.194.653.18a1.15 1.15 0 0 0 .857-.475c.119-.165.169-.379.193-.649s.024-.62.024-1.073V4.354c0-.453 0-.804-.024-1.073-.024-.27-.074-.484-.193-.649a1.15 1.15 0 0 0-.857-.475c-.203-.014-.41.057-.653.18-.241.122-.538.308-.923.549l-.007.004-.005.003c-.57.356-.828.515-1.102.585a1.85 1.85 0 0 1-.802.023c-.28-.053-.547-.197-1.14-.52l-.807-.441Z"></path></g><mask id="TaxCompactLight_svg__f" fill="#fff"><path fill-rule="evenodd" d="M10.5 11.5a1.5 1.5 0 1 1-3 0 1.5 1.5 0 0 1 3 0m6.207.707-7 7a1 1 0 0 1-1.414-1.414l7-7a1 1 0 0 1 1.414 1.414M16 20a1.5 1.5 0 1 0 0-3 1.5 1.5 0 0 0 0 3" clip-rule="evenodd"></path></mask><g filter="url(#TaxCompactLight_svg__d)"><path fill="url(#TaxCompactLight_svg__e)" fill-rule="evenodd" d="M10.5 11.5a1.5 1.5 0 1 1-3 0 1.5 1.5 0 0 1 3 0m6.207.707-7 7a1 1 0 0 1-1.414-1.414l7-7a1 1 0 0 1 1.414 1.414M16 20a1.5 1.5 0 1 0 0-3 1.5 1.5 0 0 0 0 3" clip-rule="evenodd"></path></g><path fill="#000" fill-opacity="0.1" d="m9.707 19.207-.212-.212zm7-7-.212-.212zm-8.414 7 .212-.212zm0-1.414.212.212zm7-7 .212.212zm1.414 0-.212.212zM9 13.3a1.8 1.8 0 0 0 1.8-1.8h-.6A1.2 1.2 0 0 1 9 12.7zm-1.8-1.8A1.8 1.8 0 0 0 9 13.3v-.6a1.2 1.2 0 0 1-1.2-1.2zM9 9.7a1.8 1.8 0 0 0-1.8 1.8h.6A1.2 1.2 0 0 1 9 10.3zm1.8 1.8A1.8 1.8 0 0 0 9 9.7v.6a1.2 1.2 0 0 1 1.2 1.2zm-.88 7.92 7-7-.425-.425-7 7zm-1.84 0a1.3 1.3 0 0 0 1.84 0l-.425-.425a.7.7 0 0 1-.99 0zm0-1.84a1.3 1.3 0 0 0 0 1.84l.425-.425a.7.7 0 0 1 0-.99zm7-7-7 7 .425.425 7-7zm1.84 0a1.3 1.3 0 0 0-1.84 0l.425.425a.7.7 0 0 1 .99 0zm0 1.84a1.3 1.3 0 0 0 0-1.84l-.425.425a.7.7 0 0 1 0 .99zm.28 6.08a1.2 1.2 0 0 1-1.2 1.2v.6a1.8 1.8 0 0 0 1.8-1.8zM16 17.3a1.2 1.2 0 0 1 1.2 1.2h.6a1.8 1.8 0 0 0-1.8-1.8zm-1.2 1.2a1.2 1.2 0 0 1 1.2-1.2v-.6a1.8 1.8 0 0 0-1.8 1.8zm1.2 1.2a1.2 1.2 0 0 1-1.2-1.2h-.6a1.8 1.8 0 0 0 1.8 1.8z" mask="url(#TaxCompactLight_svg__f)" style="fill:#000;fill-opacity:0.1"></path><defs><linearGradient id="TaxCompactLight_svg__b" x1="6476.49" x2="6476.49" y1="-45.168" y2="23.213" gradientUnits="userSpaceOnUse"><stop stop-color="#FAFAFA" style="stop-color:color(display-p3 .9792 .9792 .9792);stop-opacity:1"></stop><stop offset="1" stop-color="#fff" style="stop-color:white;stop-opacity:1"></stop></linearGradient><linearGradient id="TaxCompactLight_svg__c" x1="4.5" x2="0" y1="24.7" y2="27.2" gradientUnits="userSpaceOnUse"><stop style="stop-color:black;stop-opacity:1"></stop><stop offset="1" stop-opacity="0" style="stop-color:none;stop-opacity:0"></stop></linearGradient><linearGradient id="TaxCompactLight_svg__e" x1="12.461" x2="12.461" y1="9.775" y2="20.193" gradientUnits="userSpaceOnUse"><stop stop-color="#DCDCDC" style="stop-color:color(display-p3 .8626 .8626 .8626);stop-opacity:1"></stop><stop offset="1" stop-color="#F1F1F1" style="stop-color:color(display-p3 .9451 .9451 .9451);stop-opacity:1"></stop></linearGradient><filter id="TaxCompactLight_svg__a" width="23.6" height="36.487" x="0.7" y="0.256" color-interpolation-filters="sRGB" filterUnits="userSpaceOnUse"><feFlood flood-opacity="0" result="BackgroundImageFix"></feFlood><feColorMatrix in="SourceAlpha" result="hardAlpha" values="0 0 0 0 0 0 0 0 0 0 0 0 0 0 0 0 0 0 127 0"></feColorMatrix><feOffset></feOffset><feGaussianBlur stdDeviation="0.5"></feGaussianBlur><feColorMatrix values="0 0 0 0 0 0 0 0 0 0 0 0 0 0 0 0 0 0 0.07 0"></feColorMatrix><feBlend in2="BackgroundImageFix" result="effect1_dropShadow_4371_28351"></feBlend><feColorMatrix in="SourceAlpha" result="hardAlpha" values="0 0 0 0 0 0 0 0 0 0 0 0 0 0 0 0 0 0 127 0"></feColorMatrix><feOffset dy="1"></feOffset><feGaussianBlur stdDeviation="0.5"></feGaussianBlur><feColorMatrix values="0 0 0 0 0 0 0 0 0 0 0 0 0 0 0 0 0 0 0.06 0"></feColorMatrix><feBlend in2="effect1_dropShadow_4371_28351" result="effect2_dropShadow_4371_28351"></feBlend><feColorMatrix in="SourceAlpha" result="hardAlpha" values="0 0 0 0 0 0 0 0 0 0 0 0 0 0 0 0 0 0 127 0"></feColorMatrix><feOffset dy="3"></feOffset><feGaussianBlur stdDeviation="1"></feGaussianBlur><feColorMatrix values="0 0 0 0 0 0 0 0 0 0 0 0 0 0 0 0 0 0 0.04 0"></feColorMatrix><feBlend in2="effect2_dropShadow_4371_28351" result="effect3_dropShadow_4371_28351"></feBlend><feColorMatrix in="SourceAlpha" result="hardAlpha" values="0 0 0 0 0 0 0 0 0 0 0 0 0 0 0 0 0 0 127 0"></feColorMatrix><feOffset dy="6"></feOffset><feGaussianBlur stdDeviation="1"></feGaussianBlur><feColorMatrix values="0 0 0 0 0 0 0 0 0 0 0 0 0 0 0 0 0 0 0.01 0"></feColorMatrix><feBlend in2="effect3_dropShadow_4371_28351" result="effect4_dropShadow_4371_28351"></feBlend><feBlend in="SourceGraphic" in2="effect4_dropShadow_4371_28351" result="shape"></feBlend></filter><filter id="TaxCompactLight_svg__d" width="10" height="11" x="7.5" y="10" color-interpolation-filters="sRGB" filterUnits="userSpaceOnUse"><feFlood flood-opacity="0" result="BackgroundImageFix"></feFlood><feBlend in="SourceGraphic" in2="BackgroundImageFix" result="shape"></feBlend><feColorMatrix in="SourceAlpha" result="hardAlpha" values="0 0 0 0 0 0 0 0 0 0 0 0 0 0 0 0 0 0 127 0"></feColorMatrix><feOffset dy="1"></feOffset><feGaussianBlur stdDeviation="0.75"></feGaussianBlur><feComposite in2="hardAlpha" k2="-1" k3="1" operator="arithmetic"></feComposite><feColorMatrix values="0 0 0 0 0 0 0 0 0 0 0 0 0 0 0 0 0 0 0.1 0"></feColorMatrix><feBlend in2="shape" result="effect1_innerShadow_4371_28351"></feBlend></filter></defs></svg>