<svg xmlns="http://www.w3.org/2000/svg" fill="none" viewBox="0 0 337 331"><g filter="url(#UserDeletedDark_svg__a)"><path fill="url(#UserDeletedDark_svg__b)" d="M188.8 1c17.921 0 26.882 0 33.727 3.487a32 32 0 0 1 13.986 13.986C240 25.318 240 34.279 240 52.2v57.6c0 17.921 0 26.882-3.487 33.727a32 32 0 0 1-13.986 13.986C215.682 161 206.721 161 188.8 161h-57.6c-17.921 0-26.882 0-33.727-3.487a32 32 0 0 1-13.986-13.986C80 136.682 80 127.721 80 109.8V52.2c0-17.921 0-26.882 3.487-33.727A32 32 0 0 1 97.473 4.487C104.318 1 113.279 1 131.2 1z"></path></g><g filter="url(#UserDeletedDark_svg__c)"><path fill="url(#UserDeletedDark_svg__d)" d="M136.828 133c2.641 0 3.962 0 5.383.449a5.59 5.59 0 0 1 3.34 3.34C146 137.92 146 138.76 146 139s0 1.08-.449 2.211a5.59 5.59 0 0 1-3.34 3.34c-1.421.449-2.742.449-5.383.449h-31.656c-2.641 0-3.962 0-5.383-.449a5.59 5.59 0 0 1-3.34-3.34C96 140.08 96 139.24 96 139s0-1.08.45-2.211a5.59 5.59 0 0 1 3.34-3.34c1.42-.449 2.741-.449 5.382-.449zm36-22c2.641 0 3.962 0 5.383.449a5.59 5.59 0 0 1 3.34 3.34C182 115.92 182 116.76 182 117s0 1.08-.449 2.211a5.59 5.59 0 0 1-3.34 3.34c-1.421.449-2.742.449-5.383.449h-67.656c-2.641 0-3.962 0-5.383-.449a5.59 5.59 0 0 1-3.34-3.34C96 118.08 96 117.24 96 117s0-1.08.45-2.211a5.59 5.59 0 0 1 3.34-3.34c1.42-.449 2.741-.449 5.382-.449zm-52.766-94c8.03 0 14.438 6.83 14.438 15.125 0 8.937-5.866 10.656-5.866 14.275 0 5.264 15.491 5.542 15.491 14.975 0 10.172-14.997 10.61-22.639 10.625h-2.847C110.997 71.985 96 71.547 96 61.375c0-9.432 15.491-9.71 15.491-14.975 0-3.619-5.866-5.338-5.866-14.275 0-8.295 6.408-15.125 14.437-15.125" shape-rendering="crispEdges"></path></g><path fill="url(#UserDeletedDark_svg__e)" d="M203 105h26v9h-26z"></path><g filter="url(#UserDeletedDark_svg__f)"><path fill="url(#UserDeletedDark_svg__g)" d="M245.701 110.836c3.889 0 5.833 0 7.218.793a6 6 0 0 1 2.64 3.106c.558 1.495.245 3.414-.383 7.251l-4.541 27.75c-.936 5.719-1.405 8.578-2.825 10.724a12 12 0 0 1-5.084 4.32c-2.348 1.056-5.245 1.056-11.039 1.056h-7.374c-5.794 0-8.691 0-11.039-1.056a12 12 0 0 1-5.084-4.32c-1.42-2.146-1.889-5.005-2.825-10.724l-4.541-27.75c-.628-3.837-.941-5.756-.383-7.251a6 6 0 0 1 2.64-3.106c1.385-.793 3.329-.793 7.218-.793zm-22.617-13.918a7.26 7.26 0 0 1 9.832 0 7.26 7.26 0 0 0 4.916 1.918h14.157a5.01 5.01 0 0 1 5.011 5.011 3.76 3.76 0 0 1-3.758 3.757h-50.484a3.76 3.76 0 0 1-3.758-3.757 5.01 5.01 0 0 1 5.011-5.011h14.157a7.26 7.26 0 0 0 4.916-1.918"></path></g><g filter="url(#UserDeletedDark_svg__h)"><path fill="url(#UserDeletedDark_svg__i)" d="M214.734 122.853a2 2 0 0 1 2.211 1.515l.038.201 3.5 26 .017.204a2 2 0 0 1-3.982.33l-3.5-26-.016-.205a2 2 0 0 1 1.732-2.045m13.267-.017c1.104 0 1.999.896 2 2v26a2 2 0 0 1-4 0v-26a2 2 0 0 1 2-2m13.266.017a2 2 0 0 1 1.716 2.25l-3.5 26a2 2 0 0 1-3.965-.534l3.5-26a2 2 0 0 1 2.249-1.716" shape-rendering="crispEdges"></path></g><defs><linearGradient id="UserDeletedDark_svg__b" x1="160" x2="160" y1="0.5" y2="161.5" gradientUnits="userSpaceOnUse"><stop stop-color="#4A4A4A"></stop><stop offset="1" stop-color="#313131"></stop></linearGradient><linearGradient id="UserDeletedDark_svg__d" x1="139" x2="139" y1="17" y2="145" gradientUnits="userSpaceOnUse"><stop stop-opacity="0.6"></stop><stop offset="1" stop-opacity="0.35"></stop></linearGradient><linearGradient id="UserDeletedDark_svg__e" x1="203" x2="229" y1="109.5" y2="109.5" gradientUnits="userSpaceOnUse"><stop stop-color="#393939" stop-opacity="0"></stop><stop offset="0.782" stop-color="#393939"></stop></linearGradient><linearGradient id="UserDeletedDark_svg__g" x1="228" x2="228" y1="94.779" y2="166.057" gradientUnits="userSpaceOnUse"><stop stop-color="#4A4A4A"></stop><stop offset="1" stop-color="#313131"></stop></linearGradient><linearGradient id="UserDeletedDark_svg__i" x1="228.001" x2="228.001" y1="122.835" y2="152.836" gradientUnits="userSpaceOnUse"><stop stop-opacity="0.6"></stop><stop offset="1" stop-opacity="0.35"></stop></linearGradient><filter id="UserDeletedDark_svg__a" width="320" height="341" x="0" y="0" color-interpolation-filters="sRGB" filterUnits="userSpaceOnUse"><feFlood flood-opacity="0" result="BackgroundImageFix"></feFlood><feColorMatrix in="SourceAlpha" result="hardAlpha" values="0 0 0 0 0 0 0 0 0 0 0 0 0 0 0 0 0 0 127 0"></feColorMatrix><feOffset dy="2.767"></feOffset><feGaussianBlur stdDeviation="1.107"></feGaussianBlur><feColorMatrix values="0 0 0 0 0 0 0 0 0 0 0 0 0 0 0 0 0 0 0.07 0"></feColorMatrix><feBlend in2="BackgroundImageFix" result="effect1_dropShadow_9013_1873"></feBlend><feColorMatrix in="SourceAlpha" result="hardAlpha" values="0 0 0 0 0 0 0 0 0 0 0 0 0 0 0 0 0 0 127 0"></feColorMatrix><feOffset dy="6.65"></feOffset><feGaussianBlur stdDeviation="2.66"></feGaussianBlur><feColorMatrix values="0 0 0 0 0 0 0 0 0 0 0 0 0 0 0 0 0 0 0.0503198 0"></feColorMatrix><feBlend in2="effect1_dropShadow_9013_1873" result="effect2_dropShadow_9013_1873"></feBlend><feColorMatrix in="SourceAlpha" result="hardAlpha" values="0 0 0 0 0 0 0 0 0 0 0 0 0 0 0 0 0 0 127 0"></feColorMatrix><feOffset dy="12.522"></feOffset><feGaussianBlur stdDeviation="5.009"></feGaussianBlur><feColorMatrix values="0 0 0 0 0 0 0 0 0 0 0 0 0 0 0 0 0 0 0.0417275 0"></feColorMatrix><feBlend in2="effect2_dropShadow_9013_1873" result="effect3_dropShadow_9013_1873"></feBlend><feColorMatrix in="SourceAlpha" result="hardAlpha" values="0 0 0 0 0 0 0 0 0 0 0 0 0 0 0 0 0 0 127 0"></feColorMatrix><feOffset dy="22.336"></feOffset><feGaussianBlur stdDeviation="8.935"></feGaussianBlur><feColorMatrix values="0 0 0 0 0 0 0 0 0 0 0 0 0 0 0 0 0 0 0.035 0"></feColorMatrix><feBlend in2="effect3_dropShadow_9013_1873" result="effect4_dropShadow_9013_1873"></feBlend><feColorMatrix in="SourceAlpha" result="hardAlpha" values="0 0 0 0 0 0 0 0 0 0 0 0 0 0 0 0 0 0 127 0"></feColorMatrix><feOffset dy="41.778"></feOffset><feGaussianBlur stdDeviation="16.711"></feGaussianBlur><feColorMatrix values="0 0 0 0 0 0 0 0 0 0 0 0 0 0 0 0 0 0 0.0282725 0"></feColorMatrix><feBlend in2="effect4_dropShadow_9013_1873" result="effect5_dropShadow_9013_1873"></feBlend><feColorMatrix in="SourceAlpha" result="hardAlpha" values="0 0 0 0 0 0 0 0 0 0 0 0 0 0 0 0 0 0 127 0"></feColorMatrix><feOffset dy="100"></feOffset><feGaussianBlur stdDeviation="40"></feGaussianBlur><feColorMatrix values="0 0 0 0 0 0 0 0 0 0 0 0 0 0 0 0 0 0 0.0196802 0"></feColorMatrix><feBlend in2="effect5_dropShadow_9013_1873" result="effect6_dropShadow_9013_1873"></feBlend><feColorMatrix in="SourceAlpha" result="hardAlpha" values="0 0 0 0 0 0 0 0 0 0 0 0 0 0 0 0 0 0 127 0"></feColorMatrix><feOffset></feOffset><feGaussianBlur stdDeviation="0.5"></feGaussianBlur><feComposite in2="hardAlpha" operator="out"></feComposite><feColorMatrix values="0 0 0 0 0 0 0 0 0 0 0 0 0 0 0 0 0 0 1 0"></feColorMatrix><feBlend in2="effect6_dropShadow_9013_1873" result="effect7_dropShadow_9013_1873"></feBlend><feBlend in="SourceGraphic" in2="effect7_dropShadow_9013_1873" result="shape"></feBlend><feColorMatrix in="SourceAlpha" result="hardAlpha" values="0 0 0 0 0 0 0 0 0 0 0 0 0 0 0 0 0 0 127 0"></feColorMatrix><feOffset dy="2"></feOffset><feGaussianBlur stdDeviation="4"></feGaussianBlur><feComposite in2="hardAlpha" k2="-1" k3="1" operator="arithmetic"></feComposite><feColorMatrix values="0 0 0 0 1 0 0 0 0 1 0 0 0 0 1 0 0 0 0.1 0"></feColorMatrix><feBlend in2="shape" result="effect8_innerShadow_9013_1873"></feBlend><feColorMatrix in="SourceAlpha" result="hardAlpha" values="0 0 0 0 0 0 0 0 0 0 0 0 0 0 0 0 0 0 127 0"></feColorMatrix><feOffset></feOffset><feGaussianBlur stdDeviation="1"></feGaussianBlur><feComposite in2="hardAlpha" k2="-1" k3="1" operator="arithmetic"></feComposite><feColorMatrix values="0 0 0 0 1 0 0 0 0 1 0 0 0 0 1 0 0 0 0.3 0"></feColorMatrix><feBlend in2="effect8_innerShadow_9013_1873" result="effect9_innerShadow_9013_1873"></feBlend></filter><filter id="UserDeletedDark_svg__c" width="88" height="135" x="95" y="16" color-interpolation-filters="sRGB" filterUnits="userSpaceOnUse"><feFlood flood-opacity="0" result="BackgroundImageFix"></feFlood><feColorMatrix in="SourceAlpha" result="hardAlpha" values="0 0 0 0 0 0 0 0 0 0 0 0 0 0 0 0 0 0 127 0"></feColorMatrix><feOffset></feOffset><feGaussianBlur stdDeviation="0.5"></feGaussianBlur><feComposite in2="hardAlpha" operator="out"></feComposite><feColorMatrix values="0 0 0 0 1 0 0 0 0 1 0 0 0 0 1 0 0 0 0.2 0"></feColorMatrix><feBlend in2="BackgroundImageFix" result="effect1_dropShadow_9013_1873"></feBlend><feBlend in="SourceGraphic" in2="effect1_dropShadow_9013_1873" result="shape"></feBlend><feColorMatrix in="SourceAlpha" result="hardAlpha" values="0 0 0 0 0 0 0 0 0 0 0 0 0 0 0 0 0 0 127 0"></feColorMatrix><feOffset dy="6"></feOffset><feGaussianBlur stdDeviation="5"></feGaussianBlur><feComposite in2="hardAlpha" k2="-1" k3="1" operator="arithmetic"></feComposite><feColorMatrix values="0 0 0 0 0 0 0 0 0 0 0 0 0 0 0 0 0 0 0.05 0"></feColorMatrix><feBlend in2="shape" result="effect2_innerShadow_9013_1873"></feBlend><feColorMatrix in="SourceAlpha" result="hardAlpha" values="0 0 0 0 0 0 0 0 0 0 0 0 0 0 0 0 0 0 127 0"></feColorMatrix><feOffset></feOffset><feGaussianBlur stdDeviation="0.5"></feGaussianBlur><feComposite in2="hardAlpha" k2="-1" k3="1" operator="arithmetic"></feComposite><feColorMatrix values="0 0 0 0 0 0 0 0 0 0 0 0 0 0 0 0 0 0 0.2 0"></feColorMatrix><feBlend in2="effect2_innerShadow_9013_1873" result="effect3_innerShadow_9013_1873"></feBlend></filter><filter id="UserDeletedDark_svg__f" width="218" height="251.836" x="119" y="94" color-interpolation-filters="sRGB" filterUnits="userSpaceOnUse"><feFlood flood-opacity="0" result="BackgroundImageFix"></feFlood><feColorMatrix in="SourceAlpha" result="hardAlpha" values="0 0 0 0 0 0 0 0 0 0 0 0 0 0 0 0 0 0 127 0"></feColorMatrix><feOffset dy="2.767"></feOffset><feGaussianBlur stdDeviation="1.107"></feGaussianBlur><feColorMatrix values="0 0 0 0 0 0 0 0 0 0 0 0 0 0 0 0 0 0 0.07 0"></feColorMatrix><feBlend in2="BackgroundImageFix" result="effect1_dropShadow_9013_1873"></feBlend><feColorMatrix in="SourceAlpha" result="hardAlpha" values="0 0 0 0 0 0 0 0 0 0 0 0 0 0 0 0 0 0 127 0"></feColorMatrix><feOffset dy="6.65"></feOffset><feGaussianBlur stdDeviation="2.66"></feGaussianBlur><feColorMatrix values="0 0 0 0 0 0 0 0 0 0 0 0 0 0 0 0 0 0 0.0503198 0"></feColorMatrix><feBlend in2="effect1_dropShadow_9013_1873" result="effect2_dropShadow_9013_1873"></feBlend><feColorMatrix in="SourceAlpha" result="hardAlpha" values="0 0 0 0 0 0 0 0 0 0 0 0 0 0 0 0 0 0 127 0"></feColorMatrix><feOffset dy="12.522"></feOffset><feGaussianBlur stdDeviation="5.009"></feGaussianBlur><feColorMatrix values="0 0 0 0 0 0 0 0 0 0 0 0 0 0 0 0 0 0 0.0417275 0"></feColorMatrix><feBlend in2="effect2_dropShadow_9013_1873" result="effect3_dropShadow_9013_1873"></feBlend><feColorMatrix in="SourceAlpha" result="hardAlpha" values="0 0 0 0 0 0 0 0 0 0 0 0 0 0 0 0 0 0 127 0"></feColorMatrix><feOffset dy="22.336"></feOffset><feGaussianBlur stdDeviation="8.935"></feGaussianBlur><feColorMatrix values="0 0 0 0 0 0 0 0 0 0 0 0 0 0 0 0 0 0 0.035 0"></feColorMatrix><feBlend in2="effect3_dropShadow_9013_1873" result="effect4_dropShadow_9013_1873"></feBlend><feColorMatrix in="SourceAlpha" result="hardAlpha" values="0 0 0 0 0 0 0 0 0 0 0 0 0 0 0 0 0 0 127 0"></feColorMatrix><feOffset dy="41.778"></feOffset><feGaussianBlur stdDeviation="16.711"></feGaussianBlur><feColorMatrix values="0 0 0 0 0 0 0 0 0 0 0 0 0 0 0 0 0 0 0.0282725 0"></feColorMatrix><feBlend in2="effect4_dropShadow_9013_1873" result="effect5_dropShadow_9013_1873"></feBlend><feColorMatrix in="SourceAlpha" result="hardAlpha" values="0 0 0 0 0 0 0 0 0 0 0 0 0 0 0 0 0 0 127 0"></feColorMatrix><feOffset dy="100"></feOffset><feGaussianBlur stdDeviation="40"></feGaussianBlur><feColorMatrix values="0 0 0 0 0 0 0 0 0 0 0 0 0 0 0 0 0 0 0.0196802 0"></feColorMatrix><feBlend in2="effect5_dropShadow_9013_1873" result="effect6_dropShadow_9013_1873"></feBlend><feColorMatrix in="SourceAlpha" result="hardAlpha" values="0 0 0 0 0 0 0 0 0 0 0 0 0 0 0 0 0 0 127 0"></feColorMatrix><feOffset></feOffset><feGaussianBlur stdDeviation="0.5"></feGaussianBlur><feComposite in2="hardAlpha" operator="out"></feComposite><feColorMatrix values="0 0 0 0 0 0 0 0 0 0 0 0 0 0 0 0 0 0 1 0"></feColorMatrix><feBlend in2="effect6_dropShadow_9013_1873" result="effect7_dropShadow_9013_1873"></feBlend><feBlend in="SourceGraphic" in2="effect7_dropShadow_9013_1873" result="shape"></feBlend><feColorMatrix in="SourceAlpha" result="hardAlpha" values="0 0 0 0 0 0 0 0 0 0 0 0 0 0 0 0 0 0 127 0"></feColorMatrix><feOffset dy="2"></feOffset><feGaussianBlur stdDeviation="4"></feGaussianBlur><feComposite in2="hardAlpha" k2="-1" k3="1" operator="arithmetic"></feComposite><feColorMatrix values="0 0 0 0 1 0 0 0 0 1 0 0 0 0 1 0 0 0 0.1 0"></feColorMatrix><feBlend in2="shape" result="effect8_innerShadow_9013_1873"></feBlend><feColorMatrix in="SourceAlpha" result="hardAlpha" values="0 0 0 0 0 0 0 0 0 0 0 0 0 0 0 0 0 0 127 0"></feColorMatrix><feOffset></feOffset><feGaussianBlur stdDeviation="1"></feGaussianBlur><feComposite in2="hardAlpha" k2="-1" k3="1" operator="arithmetic"></feComposite><feColorMatrix values="0 0 0 0 1 0 0 0 0 1 0 0 0 0 1 0 0 0 0.3 0"></feColorMatrix><feBlend in2="effect8_innerShadow_9013_1873" result="effect9_innerShadow_9013_1873"></feBlend></filter><filter id="UserDeletedDark_svg__h" width="32.001" height="37.001" x="212" y="121.835" color-interpolation-filters="sRGB" filterUnits="userSpaceOnUse"><feFlood flood-opacity="0" result="BackgroundImageFix"></feFlood><feColorMatrix in="SourceAlpha" result="hardAlpha" values="0 0 0 0 0 0 0 0 0 0 0 0 0 0 0 0 0 0 127 0"></feColorMatrix><feOffset></feOffset><feGaussianBlur stdDeviation="0.5"></feGaussianBlur><feComposite in2="hardAlpha" operator="out"></feComposite><feColorMatrix values="0 0 0 0 1 0 0 0 0 1 0 0 0 0 1 0 0 0 0.2 0"></feColorMatrix><feBlend in2="BackgroundImageFix" result="effect1_dropShadow_9013_1873"></feBlend><feBlend in="SourceGraphic" in2="effect1_dropShadow_9013_1873" result="shape"></feBlend><feColorMatrix in="SourceAlpha" result="hardAlpha" values="0 0 0 0 0 0 0 0 0 0 0 0 0 0 0 0 0 0 127 0"></feColorMatrix><feOffset dy="6"></feOffset><feGaussianBlur stdDeviation="5"></feGaussianBlur><feComposite in2="hardAlpha" k2="-1" k3="1" operator="arithmetic"></feComposite><feColorMatrix values="0 0 0 0 0 0 0 0 0 0 0 0 0 0 0 0 0 0 0.05 0"></feColorMatrix><feBlend in2="shape" result="effect2_innerShadow_9013_1873"></feBlend><feColorMatrix in="SourceAlpha" result="hardAlpha" values="0 0 0 0 0 0 0 0 0 0 0 0 0 0 0 0 0 0 127 0"></feColorMatrix><feOffset></feOffset><feGaussianBlur stdDeviation="0.5"></feGaussianBlur><feComposite in2="hardAlpha" k2="-1" k3="1" operator="arithmetic"></feComposite><feColorMatrix values="0 0 0 0 0 0 0 0 0 0 0 0 0 0 0 0 0 0 0.2 0"></feColorMatrix><feBlend in2="effect2_innerShadow_9013_1873" result="effect3_innerShadow_9013_1873"></feBlend></filter></defs></svg>