<svg xmlns="http://www.w3.org/2000/svg" viewBox="0 0 32 32"><g fill="currentColor" fill-rule="evenodd"><path fill-opacity="0.133" d="M9.533 6.321A7 7 0 0 0 9 9s1 2 7 2 7-2 7-2a7.002 7.002 0 0 0-11.95-4.95 7 7 0 0 0-1.517 2.271m19.4 12.064.421.73v.006c.352.616.142 1.4-.47 1.759a1.288 1.288 0 0 0 0 2.235 1.29 1.29 0 0 1 .47 1.764l-.445.742a1.294 1.294 0 0 1-1.765.47 1.3 1.3 0 0 0-.619-.172 1.29 1.29 0 0 0-1.293 1.293 1.294 1.294 0 0 1-1.294 1.288h-.848c-.715 0-1.294-.58-1.294-1.294a1.24 1.24 0 0 0-.174-.619 1.28 1.28 0 0 0-1.758-.47 1.294 1.294 0 0 1-1.764-.502l-.427-.736a1.29 1.29 0 0 1 .47-1.759 1.294 1.294 0 0 0 0-2.24 1.294 1.294 0 0 1-.47-1.765l.452-.743a1.294 1.294 0 0 1 1.764-.476c.188.111.401.17.62.173.707 0 1.283-.568 1.293-1.275A1.29 1.29 0 0 1 23.09 15.5h.848a1.294 1.294 0 0 1 1.294 1.331c.002.218.062.431.173.619a1.29 1.29 0 0 0 1.764.458 1.294 1.294 0 0 1 1.764.477"></path><path d="M8 9c0-4.552 3.448-8 8-8s8 3.448 8 8c0 1.424-.338 2.539-.81 3.457a1 1 0 1 1-1.779-.914C21.75 10.886 22 10.083 22 9c0-3.448-2.552-6-6-6s-6 2.552-6 6c0 1.7.618 2.74 1.3 3.65q.151.2.328.425c.257.328.535.684.744 1.01.334.518.628 1.146.628 1.915 0 1.63-.77 2.723-1.82 3.483-.88.634-2.005 1.068-3 1.451l-.318.123c-1.14.444-2.105.859-2.8 1.463C4.429 23.072 4 23.8 4 25c0 .664.274 1.216.846 1.716.599.524 1.51.972 2.691 1.326C9.897 28.75 13.033 29 16 29a1 1 0 1 1 0 2c-3.033 0-6.398-.25-9.037-1.042-1.318-.396-2.533-.948-3.434-1.737C2.601 27.41 2 26.336 2 25c0-1.8.697-3.072 1.75-3.989.993-.864 2.279-1.387 3.388-1.818l.282-.11c1.057-.409 1.932-.748 2.588-1.222.636-.46.992-.992.992-1.861 0-.232-.081-.478-.31-.834a10 10 0 0 0-.555-.752 29 29 0 0 1-.435-.564C8.882 12.76 8 11.3 8 9m15.517 12.75a.25.25 0 1 0 0 .5.25.25 0 0 0 0-.5m-2.25.25a2.25 2.25 0 1 1 4.5 0 2.25 2.25 0 0 1-4.5 0m4.316-6.805a2.3 2.3 0 0 0-1.645-.695h-.848a2.29 2.29 0 0 0-2.288 2.285.294.294 0 0 1-.288.284.24.24 0 0 1-.114-.033l-.014-.008a2.294 2.294 0 0 0-3.12.833l-.447.735-.012.02a2.294 2.294 0 0 0 .834 3.128l.003.002a.294.294 0 0 1 0 .508h-.001a2.29 2.29 0 0 0-.836 3.124v.002l.424.73a2.294 2.294 0 0 0 3.122.879l.015-.009a.28.28 0 0 1 .387.104l.008.014a.24.24 0 0 1 .033.116A2.294 2.294 0 0 0 23.09 29.5h.848a2.294 2.294 0 0 0 2.294-2.283v-.01a.287.287 0 0 1 .278-.288.3.3 0 0 1 .138.041l.496-.868-.499.866c1.092.63 2.487.26 3.124-.827l.443-.738.006-.011a2.29 2.29 0 0 0-.835-3.135.29.29 0 0 1-.106-.394l.004-.006a.27.27 0 0 1 .1-.1l.008-.004a2.294 2.294 0 0 0 .879-3.034 1 1 0 0 0-.047-.093l-.421-.73a2.294 2.294 0 0 0-3.128-.846l-.01.007a.287.287 0 0 1-.395-.103l-.002-.004a.24.24 0 0 1-.033-.11 2.3 2.3 0 0 0-.649-1.635M23.938 16.5a.294.294 0 0 1 .294.302 2.24 2.24 0 0 0 .312 1.156 2.29 2.29 0 0 0 3.125.816.294.294 0 0 1 .398.11l.384.667q.017.034.035.066c.08.14.032.316-.105.398a2.288 2.288 0 0 0 .004 3.966.29.29 0 0 1 .107.39l-.44.736h-.001l-.007.012a.294.294 0 0 1-.4.106l-.003-.001a2.3 2.3 0 0 0-1.089-.305h-.022a2.287 2.287 0 0 0-2.299 2.291.294.294 0 0 1-.293.29h-.848a.294.294 0 0 1-.294-.294v-.01a2.24 2.24 0 0 0-.31-1.112 2.28 2.28 0 0 0-3.114-.837.294.294 0 0 1-.397-.116l-.01-.017-.426-.735a.29.29 0 0 1 .105-.393l-.5-.866.5.866a2.294 2.294 0 0 0 .002-3.971.294.294 0 0 1-.11-.394l.443-.729.012-.02a.294.294 0 0 1 .398-.11 2.24 2.24 0 0 0 1.109.307h.01a2.294 2.294 0 0 0 2.294-2.26v-.02a.29.29 0 0 1 .288-.289z"></path></g></svg>