<svg xmlns="http://www.w3.org/2000/svg" fill="none" viewBox="0 0 32 32"><path fill="currentColor" fill-opacity="0.133" d="M2 7.175c.14-1.128.211-1.692.435-2.138a2.9 2.9 0 0 1 1.623-1.433c.47-.167 1.038-.167 2.175-.167h19.534c1.137 0 1.705 0 2.175.167a2.9 2.9 0 0 1 1.623 1.433c.224.446.294 1.01.435 2.138.148 1.176.221 1.765.088 2.235-.2.707-.71 1.285-1.386 1.57-.45.19-1.044.19-2.23.19H5.528c-1.186 0-1.778 0-2.229-.19a2.42 2.42 0 0 1-1.386-1.57c-.133-.47-.06-1.059.088-2.235"></path><path fill="currentColor" d="M24.974 2.438c1.567 0 2.35 0 3.227.264a3.98 3.98 0 0 1 2.231 1.965c.319.69.431 1.351.578 2.52.153 1.226.208 1.92.055 2.644a2.96 2.96 0 0 1-1.827 2.063 5 5 0 0 1-.687.166l-.5 9.005c-.136 2.45-.205 3.674-.696 4.993a5.6 5.6 0 0 1-3.273 3.096c-1.343.417-2.57.416-5.023.416h-6.122c-2.452 0-3.679.001-5.022-.416a5.6 5.6 0 0 1-3.274-3.096c-.49-1.319-.558-2.544-.694-4.993l-.5-9.006a5 5 0 0 1-.684-.165A2.94 2.94 0 0 1 .934 9.83C.782 9.107.837 8.413.99 7.187c.146-1.169.26-1.83.577-2.52A4 4 0 0 1 3.8 2.702c.876-.264 1.66-.264 3.227-.264zM6.01 22.118c.087 1.57.13 2.355.445 3.2a3.6 3.6 0 0 0 2.099 1.986c.86.267 1.647.266 3.22.266h8.452c1.572 0 2.36 0 3.22-.266a3.6 3.6 0 0 0 2.099-1.986c.314-.845.358-1.63.445-3.2l.552-9.947H5.456zm11.649-6.634c.69 0 .66 0 .897.076.259.097.46.3.561.554a1 1 0 0 1 0 .74.96.96 0 0 1-.56.556c-.237.075-.208.074-.898.074H14.35c-.44 0-.66.001-.897-.074a.98.98 0 0 1-.56-.555 1 1 0 0 1 0-.74.96.96 0 0 1 .56-.555c.237-.075.457-.076.897-.076zM5.734 4.438c-.686 0-1.03 0-1.414.116a1.73 1.73 0 0 0-.975.861c-.163.367-.206.708-.291 1.39l-.092.73c-.095.759-.142 1.139-.063 1.547.108.446.418.798.847.96.395.13.778.129 1.543.129H26.71c.765 0 1.147 0 1.543-.129.429-.162.74-.514.847-.96.08-.408.032-.788-.063-1.547l-.092-.73c-.085-.682-.127-1.023-.29-1.39a1.73 1.73 0 0 0-.976-.861c-.384-.116-.728-.117-1.415-.117z"></path></svg>