<svg xmlns="http://www.w3.org/2000/svg" fill-rule="evenodd" viewBox="0 0 32 32"><path fill="currentColor" fill-opacity="0.133" fill-rule="nonzero" d="M7.5 6.2c0-1.12 0-1.68.218-2.108a2 2 0 0 1 .874-.874C9.02 3 9.58 3 10.7 3h11.6c1.12 0 1.68 0 2.108.218a2 2 0 0 1 .874.874c.218.428.218.988.218 2.108v15.6c0 1.12 0 1.68-.218 2.108a2 2 0 0 1-.874.874C23.98 25 23.42 25 22.3 25H10.7c-1.12 0-1.68 0-2.108-.218a2 2 0 0 1-.874-.874C7.5 23.48 7.5 22.92 7.5 21.8z"></path><path fill="currentColor" d="M14.357 1h4.286l2.666.058c.729.06 1.369.185 1.961.487a5 5 0 0 1 2.185 2.185c.302.592.428 1.232.487 1.961C26 6.399 26 7.273 26 8.357v15.286l-.058 2.666c-.06.729-.185 1.369-.487 1.961a5 5 0 0 1-2.185 2.185c-.592.302-1.233.428-1.961.487-.708.058-1.582.058-2.666.058h-4.286c-1.084 0-1.958 0-2.666-.058-.729-.06-1.369-.185-1.961-.487a5 5 0 0 1-2.185-2.185c-.302-.592-.428-1.232-.487-1.961C7 25.601 7 24.727 7 23.643V8.357l.058-2.666c.06-.729.185-1.369.487-1.961A5 5 0 0 1 9.73 1.545c.592-.302 1.232-.428 1.961-.487C12.399 1 13.273 1 14.357 1m-2.503 2.051c-.605.049-.953.142-1.216.276a3 3 0 0 0-1.311 1.311c-.134.263-.226.611-.276 1.216C9.001 6.471 9 7.263 9 8.4v15.2l.051 2.546c.049.605.142.953.276 1.216a3 3 0 0 0 1.311 1.311c.263.134.611.226 1.216.276.617.05 1.409.051 2.546.051h4.2l2.546-.051c.605-.049.953-.142 1.216-.276a3 3 0 0 0 1.311-1.311c.134-.263.226-.611.276-1.216.05-.617.051-1.409.051-2.546V8.4l-.051-2.546c-.049-.605-.142-.953-.276-1.216a3 3 0 0 0-1.311-1.311c-.263-.134-.611-.226-1.216-.276l-.644-.034c-.17-.005-.255-.008-.333.005a.81.81 0 0 0-.653.632c-.015.078-.015.168-.015.349l-.015.351a.8.8 0 0 1-.631.631C18.778 5 18.686 5 18.503 5h-4.006c-.183 0-.275 0-.351-.015a.8.8 0 0 1-.631-.631c-.015-.076-.015-.168-.015-.351l-.015-.349a.81.81 0 0 0-.653-.632c-.078-.013-.163-.01-.333-.005zM13.5 26a1 1 0 1 0 0 2h6a1 1 0 1 0 0-2z"></path></svg>