<svg xmlns="http://www.w3.org/2000/svg" fill="none" viewBox="0 0 32 32"><path fill="currentColor" fill-opacity="0.133" fill-rule="evenodd" d="M10 4a8 8 0 0 0-8 8h28a8 8 0 0 0-8-8zm10 20.667v5.666l10.333-11.666H26a6 6 0 0 0-6 6" clip-rule="evenodd"></path><path fill="currentColor" fill-rule="evenodd" d="M8 1a1 1 0 0 1 1 1v1.776c1.524-.11 3.366-.11 5.598-.11h2.804c2.232 0 4.074 0 5.598.11V2a1 1 0 1 1 2 0v2.023c1.3.252 2.388.69 3.312 1.48q.46.393.851.851c.978 1.145 1.418 2.54 1.63 4.28.207 1.704.207 3.87.207 6.631v.083c0 .164 0 .264-.003.363a7.67 7.67 0 0 1-1.978 4.948l-.01.011-2.95 3.405-.159.182c-1.791 2.068-2.897 3.345-4.4 4.038l-.054.025c-1.506.68-3.196.68-5.932.68h-.916c-2.762 0-4.926 0-6.63-.207-1.742-.211-3.135-.652-4.28-1.63a8 8 0 0 1-.851-.85c-.978-1.146-1.419-2.54-1.63-4.28C1 22.327 1 20.162 1 17.401v-.137c0-2.762 0-4.927.207-6.63.211-1.742.652-3.136 1.63-4.28q.391-.46.85-.851c.925-.79 2.012-1.23 3.313-1.48V2a1 1 0 0 1 1-1m13 23.667a5 5 0 0 1 5-5h2.575a5.7 5.7 0 0 1-.865 1.446c-.045.054-.093.11-.212.247l-2.951 3.405c-1.787 2.062-2.631 3.01-3.547 3.54zm5-7h2.998v-.008c.002-.07.002-.143.002-.326 0-1.71 0-3.13-.043-4.333H3.042C3.001 14.202 3 15.623 3 17.333c0 2.845.002 4.889.192 6.458.188 1.546.546 2.498 1.166 3.223q.29.339.628.628c.725.62 1.677.978 3.223 1.166 1.57.19 3.613.192 6.457.192h.607c1.726 0 2.868-.007 3.727-.099v-4.234a7 7 0 0 1 7-7M3.178 11h25.644l-.014-.124c-.188-1.546-.547-2.498-1.166-3.223a6 6 0 0 0-.629-.629c-.725-.619-1.676-.977-3.222-1.165-1.57-.19-3.613-.192-6.458-.192h-2.666c-2.845 0-4.889.001-6.458.192-1.546.188-2.498.546-3.223 1.165a6 6 0 0 0-.628.63c-.62.724-.978 1.676-1.166 3.222z" clip-rule="evenodd"></path><path stroke="currentColor" stroke-linecap="round" stroke-linejoin="round" stroke-width="2" d="m8 23.16 1.96 2.04L14 21"></path></svg>