<svg xmlns="http://www.w3.org/2000/svg" fill="currentColor" fill-rule="evenodd" viewBox="0 0 32 32"><path fill-opacity="0.133" d="M10 4a8 8 0 0 0-8 8h28a8 8 0 0 0-8-8zm10 20.667v5.667l10.333-11.667H26a6 6 0 0 0-6 6"></path><path d="M8 1a1 1 0 0 1 1 1v1.776c1.524-.109 3.366-.109 5.598-.109h2.803L23 3.776V2a1 1 0 1 1 2 0v2.023c1.301.251 2.388.69 3.313 1.48q.459.392.851.851c.978 1.145 1.418 2.539 1.63 4.28.207 1.704.207 3.869.207 6.631v.083l-.003.363a7.67 7.67 0 0 1-1.743 4.672l-.236.276-.01.011-2.951 3.405-.158.182c-1.791 2.068-2.898 3.345-4.4 4.038l-.054.025c-1.507.681-3.197.681-5.933.68h-.915c-2.762 0-4.927 0-6.631-.207-1.741-.212-3.135-.652-4.28-1.63a8 8 0 0 1-.851-.851c-.978-1.145-1.418-2.539-1.63-4.28C1 22.328 1 20.163 1 17.402v-.136l.207-6.631c.212-1.741.652-3.135 1.63-4.28q.392-.458.851-.851c.925-.79 2.011-1.229 3.312-1.48V2a1 1 0 0 1 1-1m13 23.667a5 5 0 0 1 5-5h2.575a5.7 5.7 0 0 1-.865 1.446l-.212.248-2.951 3.405c-1.787 2.062-2.631 3.011-3.547 3.539zm5-7h2.998v-.007l.002-.326L28.957 13H3.043L3 17.333l.192 6.458c.188 1.546.546 2.497 1.165 3.222a6 6 0 0 0 .629.629c.725.619 1.676.978 3.222 1.165 1.569.191 3.613.192 6.458.192h.606L19 28.901v-4.234a7 7 0 0 1 7-7M3.178 11l.015-.124c.188-1.546.546-2.497 1.165-3.222a6 6 0 0 1 .629-.629c.725-.619 1.676-.978 3.222-1.165 1.569-.191 3.613-.192 6.458-.192h2.667l6.458.192c1.546.188 2.497.546 3.222 1.165a6 6 0 0 1 .629.629c.619.725.977 1.676 1.165 3.222l.015.124zM7 22a1 1 0 0 1 1-1h2v-2a1 1 0 0 1 2 0v2h2a1 1 0 1 1 0 2h-2v2a1 1 0 0 1-2 0v-2H8a1 1 0 0 1-1-1"></path></svg>