<svg xmlns="http://www.w3.org/2000/svg" viewBox="0 0 32 32"><g fill="currentColor" fill-rule="evenodd"><path fill-opacity="0.133" fill-rule="nonzero" d="M24.592 26.563a7.55 7.55 0 0 1-8.53-1.518 7.586 7.586 0 0 1 0-10.712 7.553 7.553 0 0 1 10.69 0 7.595 7.595 0 0 1 1.514 8.549c-.166.414-.294.748-.294 1.07 0 .905.868 2.024.288 2.605-.579.582-1.697-.29-2.593-.296-.323.002-.662.135-1.075.302"></path><path d="M22.247 7.793c-3.843-3.851-9.84-4.244-14.122-1.18zM8.125 6.614l14.122 1.179a1 1 0 1 0 1.416-1.413c-5.06-5.071-13.281-5.071-18.34 0zm0 0L5.322 6.38c-3.958 3.965-4.815 9.833-2.61 14.636.275.685.387 1.022.387 1.3 0 .211-.053.48-.159.832-.052.172-.11.348-.176.539l-.017.051c-.058.17-.12.355-.177.536-.12.386-.246.859-.246 1.336 0 .513.147 1.076.608 1.538.462.463 1.025.61 1.538.61.477 0 .95-.128 1.335-.249.184-.057.37-.121.541-.18l.045-.016c.19-.065.366-.125.537-.177.35-.107.615-.16.823-.162.272 0 .608.117 1.302.395.826.381 1.684.67 2.558.87a1 1 0 0 0 .442-1.951 11 11 0 0 1-2.231-.765l-.079-.032c-.585-.235-1.285-.517-1.995-.517h-.005c-.502.002-.99.124-1.4.249a20 20 0 0 0-.603.199l-.04.014c-.177.06-.338.116-.495.165-.35.11-.58.157-.737.157-.068 0-.1-.01-.106-.012H4.36q-.003 0-.013-.01c-.01-.01-.01-.012-.011-.015v-.001a.3.3 0 0 1-.013-.11c0-.159.046-.39.155-.742.049-.154.103-.313.162-.489l.017-.049c.064-.19.134-.396.197-.606.124-.412.244-.902.244-1.407 0-.724-.281-1.425-.523-2.026l-.017-.043-.02-.047c-1.88-4.074-1.153-9.05 2.199-12.408q.655-.656 1.387-1.179m8.645 8.425a6.553 6.553 0 0 1 9.274 0 6.595 6.595 0 0 1 1.293 7.47l-.017.044c-.147.367-.349.869-.349 1.399 0 .373.088.724.17.994.041.14.087.277.128.396l.01.03c.038.11.07.206.099.298l-10.61-10.628zm-.003.003-1.412-1.415c-3.345 3.351-3.338 8.779 0 12.124a8.55 8.55 0 0 0 9.634 1.73c.436-.176.586-.218.677-.22.078.002.203.023.41.087.101.03.206.067.327.108l.027.01c.109.037.23.08.352.117.25.079.593.174.954.174.396 0 .855-.116 1.232-.493l-1.59-1.593v-.001l1.59 1.593c.376-.377.491-.835.492-1.23 0-.36-.094-.704-.172-.954-.037-.119-.078-.24-.114-.347l-.011-.033a10 10 0 0 1-.107-.327 1.6 1.6 0 0 1-.085-.42c0-.092.038-.235.214-.676 1.45-3.166.883-7.034-1.725-9.65a8.553 8.553 0 0 0-12.106 0zm0 0a6.586 6.586 0 0 0 .003 9.296 6.55 6.55 0 0 0 7.446 1.299l.049-.02c.363-.148.868-.354 1.398-.356h.01c.372.002.72.092.989.174.138.043.274.09.393.13l.022.008c.112.039.209.072.302.101v-.001l-.001-.002z"></path></g></svg>