<svg xmlns="http://www.w3.org/2000/svg" viewBox="0 0 32 32"><g fill="currentColor" fill-rule="evenodd"><path d="M16.038 3.124C15.516 3.006 14.953 3 13.519 3c-1.658 0-2.843 0-3.772.075-.919.073-1.501.214-1.97.446a5 5 0 0 0-2.256 2.256c-.232.469-.373 1.052-.446 1.97C5.001 8.677 5 9.86 5 11.519v6.484c0 2.856.002 4.898.21 6.45.206 1.523.593 2.423 1.254 3.085.662.662 1.563 1.049 3.086 1.254 1.551.208 3.593.21 6.45.21s4.899-.002 6.45-.21c1.523-.205 2.424-.592 3.086-1.254s1.049-1.562 1.253-3.085c.209-1.552.211-3.594.211-6.45v-.686c0-1.58-.007-2.577-.097-3.317H22.5a6 6 0 0 1-6-6V3.253a5 5 0 0 0-.462-.129M13.64 1c1.273 0 2.073 0 2.84.174a7 7 0 0 1 2.04.817c.675.404 1.253.956 2.174 1.835l.088.084 4.194 4.004.16.153c1.677 1.6 2.733 2.608 3.299 3.93.565 1.32.565 2.781.564 5.098v.984c0 2.764 0 4.94-.229 6.64-.234 1.745-.726 3.138-1.821 4.233-1.096 1.096-2.488 1.587-4.233 1.822-1.7.229-3.877.229-6.641.229h-.152c-2.764 0-4.94 0-6.64-.23-1.746-.234-3.138-.725-4.234-1.82-1.095-1.096-1.587-2.489-1.821-4.234C3 23.02 3 20.843 3 18.08v-6.603c0-1.606 0-2.87.081-3.889.083-1.038.256-1.907.649-2.699A7 7 0 0 1 6.888 1.73c.792-.393 1.66-.566 2.7-.649C10.605 1 11.87 1 13.475 1zm-3.483 25.667c-1.793 0-2.908-1.13-2.908-3.003 0-1.851 1.115-2.997 2.897-2.997 1.184 0 2.151.53 2.503 1.356.074.158.116.332.116.474 0 .447-.373.704-.8.704-.357 0-.583-.142-.762-.441-.268-.468-.568-.673-.988-.673-.684 0-1.078.562-1.078 1.577 0 1.025.384 1.588 1.067 1.588.474 0 .763-.252.978-.589.242-.352.447-.515.842-.515.415 0 .778.268.778.73 0 .143-.037.3-.131.485-.379.773-1.389 1.304-2.514 1.304m6.055 0c-1.462 0-2.377-.474-2.645-1.13a.9.9 0 0 1-.068-.316c0-.41.305-.7.726-.7.294 0 .541.121.81.384.315.347.673.505 1.193.505.484 0 .794-.184.794-.494 0-.253-.184-.39-.704-.495l-1-.2c-1.13-.22-1.714-.815-1.714-1.682 0-1.152.983-1.872 2.566-1.872 1.31 0 2.193.547 2.398 1.178a.8.8 0 0 1 .048.268c0 .357-.227.62-.71.62-.21 0-.479-.084-.637-.231l-.015-.016c-.28-.279-.563-.563-1.1-.563-.452 0-.757.2-.757.51 0 .248.174.405.72.516l.995.194c1.23.242 1.761.71 1.761 1.568 0 1.198-1.067 1.956-2.66 1.956m4.717-.973c.237.668.631.957 1.378.957.694 0 1.083-.295 1.315-.957l1.325-3.66c.052-.158.105-.358.105-.531 0-.463-.394-.82-.9-.82-.446 0-.762.23-.883.73l-.946 3.555h-.037l-.957-3.528c-.126-.516-.431-.758-.894-.758-.526 0-.936.327-.936.831 0 .2.047.4.105.568z"></path><path fill-opacity="0.133" fill-rule="nonzero" d="M4.5 4.095C4.5 3.49 4.99 3 5.595 3H12.5c2.475 0 3.942-1.062 6 0 4.83 2.492 9 9.19 9 15h-23z"></path></g></svg>