<svg xmlns="http://www.w3.org/2000/svg" viewBox="0 0 32 32"><g fill="currentColor" fill-rule="evenodd"><path fill-opacity="0.133" d="M5 19.5h22l3 4-1 6H3l-1-6z"></path><path d="M10 1.5a1 1 0 0 1 1-1h10a1 1 0 1 1 0 2H11a1 1 0 0 1-1-1M7 5a1 1 0 0 1 1-1h16a1 1 0 1 1 0 2H8a1 1 0 0 1-1-1M2.62 8.837C3.644 7.907 5.006 7.5 6.41 7.5h19.18c1.403 0 2.765.407 3.789 1.337 1.04.944 1.618 2.327 1.619 4.048v2.902c.001.14.001.308-.012.451a1.4 1.4 0 0 1-.237.692c-.206.297-.51.436-.628.49h-.002a9 9 0 0 1-.527.209l-.027.01c-.576.215-1.111.909-1.111 1.86 0 .954.535 1.647 1.111 1.862l.028.01c.19.07.378.141.526.209h.002c.117.054.422.193.628.49.183.262.222.536.237.691.013.144.013.31.013.451v2.902c0 1.722-.579 3.105-1.618 4.05-1.024.929-2.386 1.336-3.79 1.336H6.408c-1.403 0-2.765-.407-3.789-1.337C1.578 29.22 1 27.836 1 26.114v-2.902c0-.14 0-.307.013-.45.015-.156.054-.43.237-.693.206-.296.51-.435.628-.488l.002-.001c.148-.068.337-.138.526-.209l.028-.01c.576-.215 1.111-.909 1.111-1.861 0-.953-.535-1.646-1.111-1.861l-.027-.01c-.19-.071-.38-.142-.527-.21h-.002c-.117-.053-.422-.192-.628-.489a1.4 1.4 0 0 1-.237-.692C1 16.095 1 15.928 1 15.788v-.029l.001-2.873c0-1.722.58-3.105 1.62-4.05m1.345 1.48c-.557.506-.966 1.316-.966 2.57v2.691a.2.2 0 0 0 .132.188c1.469.548 2.412 2.072 2.412 3.735s-.943 3.187-2.412 3.735H3.13a.2.2 0 0 0-.13.188v2.691c0 1.255.407 2.064.963 2.569.571.519 1.412.817 2.444.817h19.186c1.032 0 1.873-.298 2.444-.817.556-.505.963-1.314.963-2.569v-2.691a.2.2 0 0 0-.13-.187l-.003-.001c-1.469-.548-2.412-2.072-2.412-3.735s.943-3.187 2.412-3.735h.003a.2.2 0 0 0 .13-.188l-.001-2.691c0-1.254-.408-2.064-.964-2.569-.571-.519-1.412-.817-2.444-.817H6.41c-1.032 0-1.873.298-2.444.817"></path><path d="M9 19.5c0-.552.348-1 .778-1h12.444c.43 0 .778.448.778 1s-.348 1-.778 1H9.778c-.43 0-.778-.448-.778-1"></path></g></svg>