<svg xmlns="http://www.w3.org/2000/svg" fill="none" viewBox="0 0 32 32"><path fill="currentColor" fill-opacity="0.133" d="M8.722 12.184a6 6 0 0 1 3.662-.042l6.797 2.091a6 6 0 0 0 4.447-.368l1.267-.634a1.125 1.125 0 0 1 1.628 1.007v4.512a1.5 1.5 0 0 1-.829 1.342l-2.066 1.033a6 6 0 0 1-4.447.368l-6.797-2.09a6 6 0 0 0-3.662.041L5.5 20.518V14.34a1.5 1.5 0 0 1 1.025-1.423z"></path><path fill="currentColor" d="M8.405 3.36a7 7 0 0 1 4.273-.05l6.797 2.09a5 5 0 0 0 3.706-.306l1.267-.634c1.413-.707 3.075.32 3.075 1.9v12.39a2.5 2.5 0 0 1-1.381 2.236l-2.067 1.033a7 7 0 0 1-5.19.43l-6.796-2.092a5 5 0 0 0-3.05.035L6.5 21.24v6.849a1 1 0 0 1-2 0V6.463a2.5 2.5 0 0 1 1.709-2.371zm3.684 1.862a5 5 0 0 0-3.05.035l-2.197.732a.5.5 0 0 0-.342.474V19.13l1.905-.635a7 7 0 0 1 4.273-.049l6.797 2.091a5 5 0 0 0 3.706-.307l2.066-1.033a.5.5 0 0 0 .276-.447V6.36a.125.125 0 0 0-.18-.111l-1.268.634a7 7 0 0 1-5.19.428z"></path></svg>