<svg xmlns="http://www.w3.org/2000/svg" fill="none" viewBox="0 0 32 32"><path stroke="currentColor" stroke-linecap="round" stroke-linejoin="round" stroke-width="2" d="M29.206 15.365a3.02 3.02 0 0 0 .265-3.75l-4.577-6.69a3.06 3.06 0 0 0-2.52-1.325H9.64a3.05 3.05 0 0 0-2.519 1.324l-4.59 6.69a3.02 3.02 0 0 0 .263 3.752l10.77 11.774a2 2 0 0 0 1.476.65h.245l-4.418-12.424c-.37-1.04-.412-2.592-.101-3.751L12.898 3.6M2.013 13.316h27.973M19.11 3.6 22 13.316"></path><path fill="currentColor" fill-opacity="0.133" d="M19.524 23.352c.043.058.097.121.207.246.463.53.695.795.908.988a5 5 0 0 0 6.722 0c.213-.193.445-.458.908-.988.11-.125.165-.187.207-.246a1.5 1.5 0 0 0 0-1.749 4 4 0 0 0-.207-.246c-.463-.53-.695-.795-.908-.988a5 5 0 0 0-6.722 0c-.213.193-.445.458-.908.988-.11.125-.165.187-.207.246a1.5 1.5 0 0 0 0 1.749"></path><path stroke="currentColor" stroke-linecap="round" stroke-linejoin="round" stroke-width="2" d="M18.885 23.476c.048.068.11.14.236.282h0c.53.606.795.909 1.037 1.13a5.714 5.714 0 0 0 7.684 0c.242-.221.507-.524 1.037-1.13.125-.143.188-.214.236-.282.428-.597.428-1.4 0-1.998a4 4 0 0 0-.236-.281c-.53-.606-.795-.909-1.037-1.13a5.714 5.714 0 0 0-7.684 0c-.242.221-.507.524-1.037 1.13h0a4 4 0 0 0-.236.281 1.715 1.715 0 0 0 0 1.998"></path><circle cx="24" cy="22.477" r="1.269" fill="currentColor"></circle></svg>