<svg xmlns="http://www.w3.org/2000/svg" fill="none" viewBox="0 0 32 32"><path fill="currentColor" fill-opacity="0.133" d="M30.5 23a6.5 6.5 0 1 1-13 0 6.5 6.5 0 0 1 13 0"></path><path stroke="currentColor" stroke-linecap="round" stroke-width="2" d="M29.75 23.3a6 6 0 1 1-12 0 6 6 0 0 1 12 0Zm-8.333 0h4.666"></path><path stroke="currentColor" stroke-linecap="round" stroke-linejoin="round" stroke-width="2" d="M29.206 15.365a3.02 3.02 0 0 0 .265-3.75l-4.577-6.69a3.06 3.06 0 0 0-2.52-1.325H9.64a3.05 3.05 0 0 0-2.519 1.324l-4.59 6.69a3.02 3.02 0 0 0 .263 3.752l10.77 11.774a2 2 0 0 0 1.476.65h.245l-4.418-12.424c-.37-1.04-.412-2.592-.101-3.751L12.898 3.6M2.013 13.316h27.973M19.11 3.6 22 13.316"></path></svg>