<svg xmlns="http://www.w3.org/2000/svg" viewBox="0 0 32 32"><g fill="none" fill-rule="evenodd"><path fill="currentColor" fill-opacity="0.133" fill-rule="nonzero" d="M30.5 22.4a6.5 6.5 0 1 1-13 0 6.5 6.5 0 0 1 13 0"></path><path stroke="currentColor" stroke-linecap="round" stroke-width="2" d="M29.75 22.7a6 6 0 1 1-12 0 6 6 0 0 1 12 0zm-8.333 0h4.666m-2.333 2.33v-4.66"></path><path stroke="currentColor" stroke-linecap="round" stroke-linejoin="round" stroke-width="2" d="M29.206 14.765a3.02 3.02 0 0 0 .265-3.75l-4.577-6.69A3.06 3.06 0 0 0 22.374 3H9.64a3.05 3.05 0 0 0-2.519 1.324l-4.59 6.69a3.02 3.02 0 0 0 .263 3.752l10.77 11.774a2 2 0 0 0 1.476.65h.245l-4.418-12.424c-.37-1.04-.412-2.592-.1-3.751L12.897 3M2.013 12.716h27.973M19.11 3 22 12.716"></path></g></svg>