<svg xmlns="http://www.w3.org/2000/svg" viewBox="0 0 32 32"><g fill="currentColor" fill-rule="evenodd" transform="translate(1 1)"><ellipse cx="15" cy="15" fill-opacity="0.133" fill-rule="nonzero" rx="7.5" ry="15"></ellipse><path d="M18.514 24.712C17.264 27.214 15.905 28 15 28s-2.264-.786-3.514-3.288C10.397 22.536 9.64 19.484 9.517 16h10.966c-.123 3.484-.88 6.536-1.969 8.712M20.483 14H9.518c.122-3.484.88-6.536 1.968-8.712C12.736 2.786 14.095 2 15 2s2.264.786 3.514 3.288c1.089 2.176 1.846 5.228 1.969 8.712m2 2c-.153 4.655-1.368 8.73-3.165 11.266 4.757-1.675 8.246-6.038 8.644-11.266zm5.48-2h-5.48c-.153-4.655-1.368-8.73-3.165-11.266C24.075 4.41 27.564 8.773 27.962 14M7.515 14c.154-4.655 1.369-8.73 3.166-11.266C5.925 4.41 2.436 8.773 2.038 14zm-5.478 2c.398 5.228 3.887 9.59 8.644 11.266C8.885 24.73 7.67 20.656 7.516 16zM30 15c0-8.284-6.716-15-15-15S0 6.716 0 15s6.716 15 15 15 15-6.716 15-15"></path></g></svg>