<svg xmlns="http://www.w3.org/2000/svg" viewBox="0 0 32 32"><g fill="currentColor" fill-rule="evenodd"><path fill-opacity="0.133" fill-rule="nonzero" d="M12.2 9.95a5.95 5.95 0 0 1 11.9 0s-.85 1.7-5.95 1.7-5.95-1.7-5.95-1.7"></path><path d="M11.2 9.95C11.2 5.998 14.198 3 18.15 3s6.95 2.998 6.95 6.95c0 1.236-.294 2.207-.705 3.007a1 1 0 1 1-1.779-.914c.277-.539.484-1.198.484-2.093C23.1 7.102 20.998 5 18.15 5S13.2 7.102 13.2 9.95c0 1.4.506 2.253 1.075 3.013.08.106.173.225.27.35.221.281.466.595.648.877.291.454.557 1.017.557 1.71 0 1.443-.685 2.414-1.61 3.082-.764.552-1.74.927-2.582 1.252l-.27.104c-.973.378-1.769.723-2.336 1.217-.508.442-.852 1.02-.852 1.995 0 .514.209.944.668 1.346.486.425 1.237.798 2.232 1.096 1.985.596 4.633.808 7.15.808a1 1 0 1 1 0 2c-2.583 0-5.46-.213-7.725-.892-1.13-.34-2.185-.817-2.974-1.507-.816-.714-1.35-1.665-1.35-2.851 0-1.576.611-2.697 1.538-3.503.867-.755 1.984-1.207 2.924-1.573l.234-.09c.905-.351 1.631-.633 2.172-1.024.51-.367.781-.778.781-1.46 0-.157-.053-.338-.24-.628-.133-.208-.277-.391-.457-.62-.11-.14-.235-.299-.378-.49-.706-.94-1.475-2.212-1.475-4.212M21 16.9a1 1 0 0 1 1-1h8a1 1 0 1 1 0 2h-8a1 1 0 0 1-1-1m0 4.5a1 1 0 0 1 1-1h8a1 1 0 1 1 0 2h-8a1 1 0 0 1-1-1m1 5.5h8a1 1 0 1 0 0-2h-8a1 1 0 1 0 0 2M10.5 4.275a1 1 0 1 1 0 2c-2.047 0-3.577 1.532-3.577 3.656 0 1.036.363 1.66.786 2.234q.085.115.196.259c.172.224.373.485.519.715.235.373.46.853.46 1.45 0 1.204-.567 2.024-1.327 2.582-.614.452-1.395.757-2.039 1.01l-.208.081c-.751.297-1.326.554-1.728.91-.343.304-.582.7-.582 1.403 0 .526.287.988.691 1.374a3.8 3.8 0 0 0 .755.556l.004.002h.002a1 1 0 0 1-.9 1.787L4 23.4l-.448.894-.002-.001-.004-.002-.01-.005-.027-.014-.087-.048a5.8 5.8 0 0 1-1.113-.83C1.713 22.825 1 21.875 1 20.576c0-1.292.497-2.227 1.257-2.9.7-.621 1.598-.988 2.317-1.273l.17-.067c.709-.28 1.238-.488 1.629-.775.343-.253.512-.514.512-.972 0-.069-.02-.171-.152-.38a6 6 0 0 0-.333-.459c-.085-.11-.183-.237-.301-.397-.558-.757-1.176-1.795-1.176-3.42 0-3.197 2.393-5.657 5.577-5.657"></path></g></svg>