<svg xmlns="http://www.w3.org/2000/svg" viewBox="0 0 32 32"><g fill="currentColor" fill-rule="evenodd"><path fill-opacity="0.133" fill-rule="nonzero" d="M21.316 12.073C21.316 9.174 19.142 7 16.244 7c-2.9 0-5.073 2.174-5.073 5.073 0 2.898 2.174 3.623 2.174 5.072 0 3.624-6.522 2.174-6.522 6.523 0 2.898 5.073 3.623 9.42 3.623 4.349 0 9.421-.725 9.421-3.623 0-4.349-6.522-2.9-6.522-6.523 0-1.449 2.174-2.174 2.174-5.072"></path><path d="M10.205 4a1 1 0 1 1 0 2C8.172 6 6.652 7.52 6.652 9.632c0 1.028.36 1.648.78 2.218q.085.115.196.257c.17.223.371.483.516.712.234.372.46.85.46 1.444 0 1.2-.566 2.018-1.323 2.574-.612.45-1.39.754-2.03 1.004l-.207.081c-.747.296-1.317.552-1.716.905-.341.301-.578.693-.578 1.391a1 1 0 1 1-2 0c0-1.287.495-2.218 1.252-2.889.698-.618 1.59-.983 2.307-1.266l.168-.067c.705-.278 1.231-.486 1.62-.77.34-.25.506-.51.506-.963 0-.067-.019-.168-.15-.375a6 6 0 0 0-.33-.456c-.085-.11-.183-.235-.3-.395-.556-.753-1.17-1.787-1.17-3.405C4.652 6.449 7.034 4 10.204 4M21.04 5a1 1 0 0 1 1-1c3.17 0 5.552 2.449 5.552 5.632 0 1.618-.615 2.652-1.17 3.405-.118.16-.215.286-.3.395-.132.171-.233.301-.33.456-.131.207-.15.308-.15.375 0 .454.166.712.506.962.388.285.914.493 1.619.771l.169.067c.716.283 1.609.648 2.307 1.267.757.67 1.252 1.601 1.252 2.888a1 1 0 1 1-2 0c0-.698-.237-1.09-.578-1.391-.399-.354-.97-.609-1.717-.905l-.207-.08c-.64-.251-1.418-.556-2.03-1.005-.756-.556-1.322-1.373-1.322-2.574 0-.594.225-1.072.46-1.444.145-.229.345-.49.516-.712.072-.094.14-.181.195-.257.42-.57.78-1.19.78-2.218C25.593 7.52 24.073 6 22.041 6a1 1 0 0 1-1-1m-10.87 6.918c0-3.45 2.622-6.072 6.073-6.072 3.45 0 6.072 2.621 6.072 6.072 0 1.75-.675 2.865-1.287 3.68-.127.17-.235.307-.33.427-.149.19-.265.338-.376.51-.151.236-.18.362-.18.456 0 .525.2.834.604 1.126.445.321 1.046.554 1.825.856l.194.075c.799.311 1.775.704 2.536 1.367.82.714 1.362 1.71 1.362 3.098 0 1.06-.48 1.91-1.202 2.542-.694.607-1.616 1.022-2.59 1.315-1.951.585-4.422.766-6.628.766s-4.677-.181-6.629-.766c-.974-.293-1.896-.708-2.59-1.315-.722-.632-1.202-1.481-1.202-2.542 0-1.388.541-2.384 1.362-3.098.762-.663 1.737-1.056 2.536-1.367l.194-.075c.779-.302 1.38-.535 1.825-.856.404-.292.605-.601.605-1.126 0-.094-.03-.22-.181-.456-.11-.172-.227-.32-.377-.51-.094-.12-.202-.257-.33-.427-.61-.815-1.286-1.93-1.286-3.68m6.073-4.072c-2.347 0-4.073 1.726-4.073 4.072 0 1.15.411 1.846.887 2.48q.097.13.223.288c.19.243.407.52.565.768.257.398.499.906.499 1.537 0 1.287-.615 2.155-1.434 2.747-.668.482-1.519.81-2.234 1.085l-.23.09c-.832.323-1.487.609-1.949 1.01-.402.35-.675.804-.675 1.59 0 .389.154.717.519 1.036.392.344 1.01.654 1.848.905 1.672.502 3.912.682 6.054.682 2.14 0 4.381-.18 6.053-.682.838-.251 1.456-.561 1.848-.905.365-.319.52-.647.52-1.036 0-.786-.274-1.24-.676-1.59-.462-.401-1.117-.687-1.948-1.01l-.23-.09c-.716-.275-1.567-.603-2.235-1.085-.82-.592-1.434-1.46-1.434-2.747 0-.63.243-1.139.499-1.537.159-.247.376-.525.566-.768.081-.104.158-.202.222-.288.476-.634.887-1.33.887-2.48 0-2.346-1.726-4.072-4.072-4.072"></path></g></svg>