<svg xmlns="http://www.w3.org/2000/svg" fill="none" viewBox="0 0 32 32"><path fill="currentColor" fill-opacity="0.133" d="M3.5 8a4 4 0 0 1 4-4h18a4 4 0 0 1 4 4v6h-26z"></path><path fill="currentColor" fill-rule="evenodd" d="M24.95 4.21C23.4 4.003 21.357 4 18.5 4H14c-2.612 0-4.479.002-5.908.179-1.406.173-2.251.503-2.889 1.062a5 5 0 0 0-.462.462c-.56.638-.889 1.483-1.062 2.889-.177 1.43-.179 3.296-.179 5.908v.5c0 2.369.001 4.062.149 5.368.145 1.285.42 2.071.884 2.676a5 5 0 0 0 .923.923c.605.464 1.39.74 2.677.884C9.438 25 11.13 25 13.5 25a1 1 0 1 1 0 2h-.062c-2.293 0-4.099 0-5.53-.161-1.464-.165-2.658-.51-3.67-1.285a7 7 0 0 1-1.291-1.293c-.776-1.01-1.12-2.206-1.286-3.67-.161-1.43-.161-3.236-.161-5.529v-.632c0-2.527 0-4.517.194-6.084.198-1.605.613-2.901 1.543-3.961a7 7 0 0 1 .648-.648c1.06-.93 2.356-1.345 3.961-1.543C9.413 2 11.403 2 13.931 2h4.645c2.764 0 4.94 0 6.64.229 1.746.234 3.138.726 4.234 1.821 1.095 1.096 1.587 2.488 1.821 4.233.229 1.7.229 3.877.229 6.641v.576a1 1 0 1 1-2 0V15c0-2.857-.002-4.899-.21-6.45-.206-1.523-.593-2.424-1.255-3.086s-1.562-1.048-3.085-1.253m-14.8 8.54a1.4 1.4 0 1 0 0 2.8 1.4 1.4 0 0 0 0-2.8m4.61 1.4a1.399 1.399 0 1 1 1.398 1.4 1.4 1.4 0 0 1-1.398-1.4m6.006 0a1.4 1.4 0 1 1 2.8 0 1.4 1.4 0 0 1-2.8 0m8.066 4.518a2.945 2.945 0 0 0-4.164 0l-.952.952-5.354 5.353a2.945 2.945 0 0 0 4.165 4.165l5.353-5.354.952-.952a2.945 2.945 0 0 0 0-4.164m-2.75 1.414a.945.945 0 1 1 1.336 1.336l-.245.245-1.336-1.336zm-1.659 1.66 1.336 1.335-4.647 4.646a.944.944 0 1 1-1.335-1.335zM26 28a1 1 0 1 0 0 2h3a1 1 0 1 0 0-2z" clip-rule="evenodd"></path></svg>