<svg xmlns="http://www.w3.org/2000/svg" viewBox="0 0 32 32"><g fill="currentColor" fill-rule="evenodd"><path fill-opacity="0.133" fill-rule="nonzero" d="M2 19.6c0-.56 0-.84.109-1.054a1 1 0 0 1 .437-.437C2.76 18 3.04 18 3.6 18h24.8c.56 0 .84 0 1.054.109a1 1 0 0 1 .437.437C30 18.76 30 19.04 30 19.6V21c0 2.8 0 4.2-.545 5.27a5 5 0 0 1-2.185 2.185C26.2 29 24.8 29 22 29H10c-2.8 0-4.2 0-5.27-.545a5 5 0 0 1-2.185-2.185C2 25.2 2 23.8 2 21z"></path><path d="M11.6 2h-.044c-1.643 0-2.937 0-3.978.085-1.063.087-1.95.267-2.756.678a7 7 0 0 0-3.059 3.06c-.41.805-.591 1.692-.678 2.755C1 9.619 1 10.913 1 12.556v6.888c0 1.643 0 2.937.085 3.978.087 1.063.267 1.95.678 2.756a7 7 0 0 0 3.06 3.059c.805.41 1.692.591 2.755.678C8.619 30 9.913 30 11.556 30h8.888c1.643 0 2.937 0 3.978-.085 1.063-.087 1.95-.267 2.756-.678a7 7 0 0 0 3.059-3.06c.41-.805.591-1.692.678-2.755.085-1.041.085-2.335.085-3.978v-6.888c0-1.643 0-2.937-.085-3.978-.087-1.063-.267-1.95-.678-2.756a7 7 0 0 0-3.06-3.059c-.805-.41-1.692-.591-2.755-.678C23.381 2 22.087 2 20.444 2zM5.73 4.545c.477-.243 1.072-.39 2.01-.467C8.692 4.001 9.904 4 11.6 4h8.8c1.697 0 2.909 0 3.86.078.938.077 1.533.224 2.01.467a5 5 0 0 1 2.185 2.185c.243.477.39 1.072.467 2.01.077.951.078 2.163.078 3.86v6.8c0 1.697 0 2.909-.078 3.86-.077.938-.224 1.533-.467 2.01a5 5 0 0 1-2.185 2.185c-.477.243-1.072.39-2.01.467-.951.077-2.163.078-3.86.078h-8.8c-1.697 0-2.909 0-3.86-.078-.938-.077-1.533-.224-2.01-.467a5 5 0 0 1-2.185-2.185c-.243-.477-.39-1.072-.467-2.01C3.001 22.308 3 21.096 3 19.4v-6.8c0-1.697 0-2.909.078-3.86.077-.938.224-1.533.467-2.01A5 5 0 0 1 5.73 4.545M9.25 9.25a1.25 1.25 0 1 1-2.5 0 1.25 1.25 0 0 1 2.5 0m5.333 0a1.25 1.25 0 1 1-2.5 0 1.25 1.25 0 0 1 2.5 0m4.084 1.25a1.25 1.25 0 1 0 0-2.5 1.25 1.25 0 0 0 0 2.5m6.583-1.25a1.25 1.25 0 1 1-2.5 0 1.25 1.25 0 0 1 2.5 0M11 15.5a1.25 1.25 0 1 0 0-2.5 1.25 1.25 0 0 0 0 2.5m5 0a1.25 1.25 0 1 0 0-2.5 1.25 1.25 0 0 0 0 2.5m6.25-1.25a1.25 1.25 0 1 1-2.5 0 1.25 1.25 0 0 1 2.5 0M11 23a1 1 0 0 1 1-1h8a1 1 0 1 1 0 2h-8a1 1 0 0 1-1-1"></path></g></svg>