<svg xmlns="http://www.w3.org/2000/svg" fill="none" viewBox="0 0 64 64"><g clip-path="url(#LumaPlusSubscribe_svg__a)"><rect width="64" height="64" fill="#D5176D" fill-opacity="0.08" rx="32"></rect><rect width="48.005" height="18.337" x="6.445" y="29.525" fill="#de3163" rx="9.169" transform="rotate(-15 6.445 29.525)"></rect><path fill="#fff" fill-opacity="0.97" d="M22.988 34.584a5.5 5.5 0 0 1-6.738-3.89 5.5 5.5 0 0 1-3.89 6.738 5.5 5.5 0 0 1 6.738 3.89 5.5 5.5 0 0 1 3.89-6.738M26.547 35.145l-.273-1.02 1.6-.43q.562-.15.797-.519.238-.374.095-.906l-.002-.009q-.142-.532-.534-.732-.39-.202-.95-.052l-1.6.429-.277-1.033 1.92-.515q.657-.175 1.222-.04.563.131.964.539.406.405.577 1.046l.003.008q.173.645.024 1.199a1.95 1.95 0 0 1-.566.949q-.423.395-1.08.572zm-.125 2.142-1.672-6.24 1.305-.35 1.672 6.24zm6.321-1.694-1.672-6.24 1.306-.35 1.384 5.164 2.776-.744.288 1.077zm8.173-2.018q-.8.214-1.466.082a2.27 2.27 0 0 1-1.125-.565q-.459-.433-.646-1.13l-1.095-4.086 1.306-.35 1.064 3.97q.162.606.6.873t1.065.1q.631-.17.872-.62.242-.448.08-1.054l-1.064-3.97 1.306-.35 1.095 4.087q.185.692.005 1.3a2.2 2.2 0 0 1-.687 1.052q-.506.446-1.31.661m6.71-1.798q-.742.2-1.353.122a2.1 2.1 0 0 1-1.034-.4 1.83 1.83 0 0 1-.608-.87l-.023-.069 1.258-.337.016.042a.73.73 0 0 0 .3.36q.216.128.523.152t.671-.073q.35-.094.586-.268.237-.175.335-.396a.68.68 0 0 0 .038-.464l-.002-.004a.6.6 0 0 0-.383-.426q-.295-.12-.912-.085l-.693.042q-1.026.062-1.59-.274-.562-.336-.752-1.045l-.001-.004a1.76 1.76 0 0 1 .036-1.094q.19-.515.663-.896a3.1 3.1 0 0 1 1.163-.572q.727-.195 1.31-.096.585.094.99.426.402.327.582.84l.019.055-1.228.33-.023-.05a.8.8 0 0 0-.295-.343 1 1 0 0 0-.469-.157 1.6 1.6 0 0 0-.602.055q-.32.086-.536.245a.9.9 0 0 0-.305.37.65.65 0 0 0-.026.438l.001.004q.082.303.376.432.297.124.876.09l.698-.043q1.044-.063 1.607.236.566.299.762 1.029l.001.004q.166.619-.02 1.155-.18.531-.681.933-.496.398-1.274.606"></path><rect width="51.005" height="21.337" x="4.608" y="28.464" stroke="#D5176D" stroke-opacity="0.08" stroke-width="3" rx="10.669" transform="rotate(-15 4.608 28.464)"></rect><g clip-path="url(#LumaPlusSubscribe_svg__b)"><path fill="#D5176D" fill-opacity="0.12" fill-rule="evenodd" d="M33.04 8.512a4.69 4.69 0 0 0-1.098 4.11.593.593 0 0 1-.976.563 4.7 4.7 0 0 0-4.119-1.097.592.592 0 0 1-.563-.976 4.7 4.7 0 0 0 1.109-4.116.593.593 0 0 1 .975-.563 4.69 4.69 0 0 0 4.11 1.104c.5-.108.906.595.562.975M21.663 7.19l1.226 5.764c.107.489-.114.991-.554 1.245a1.15 1.15 0 0 1-1.357-.146l-4.386-3.95-5.753 1.235a1.14 1.14 0 0 1-1.244-.553c-.256-.444-.2-.976.142-1.355l3.95-4.384L12.457-.71a1.15 1.15 0 0 1 .553-1.245c.44-.254.985-.196 1.358.144l4.386 3.952L24.505.904c.499-.106.987.111 1.243.555.256.443.2.975-.142 1.354z" clip-rule="evenodd"></path></g><g clip-path="url(#LumaPlusSubscribe_svg__c)"><path fill="#D5176D" fill-opacity="0.12" fill-rule="evenodd" d="M47.836 46.795a4.69 4.69 0 0 0 3.686 2.125.593.593 0 0 1 .291 1.088 4.7 4.7 0 0 0-2.126 3.695.592.592 0 0 1-1.088.291 4.7 4.7 0 0 0-3.689-2.136.593.593 0 0 1-.291-1.088 4.69 4.69 0 0 0 2.13-3.683c.025-.512.808-.722 1.087-.292m-4.222 10.648 5.885.308c.5.023.928.366 1.06.857a1.15 1.15 0 0 1-.493 1.274l-4.951 3.213-.295 5.877a1.14 1.14 0 0 1-.857 1.058 1.14 1.14 0 0 1-1.272-.488l-3.212-4.95-5.878-.3a1.15 1.15 0 0 1-1.06-.856 1.15 1.15 0 0 1 .492-1.274l4.952-3.214.293-5.876a1.14 1.14 0 0 1 .858-1.058c.494-.132.994.059 1.27.487z" clip-rule="evenodd"></path></g></g><defs><clipPath id="LumaPlusSubscribe_svg__a"><rect width="64" height="64" fill="#fff" rx="32"></rect></clipPath><clipPath id="LumaPlusSubscribe_svg__b"><path fill="#fff" d="m24.392-9.392 12 20.784-20.784 12-12-20.784z"></path></clipPath><clipPath id="LumaPlusSubscribe_svg__c"><path fill="#fff" d="m28.303 50.515 23.182-6.212 6.212 23.182-23.182 6.212z"></path></clipPath></defs></svg>