<svg xmlns="http://www.w3.org/2000/svg" fill="none" viewBox="0 0 32 32"><path fill="currentColor" fill-opacity="0.133" d="m28 4-9.05 10.545c-1.704 1.94-4.12 1.94-5.823 0L4 4"></path><path fill="currentColor" fill-rule="evenodd" d="M12.592 2.5h6.817c2.45 0 4.39 0 5.91.204 1.563.21 2.828.653 3.826 1.651s1.44 2.263 1.65 3.826c.205 1.52.205 3.46.205 5.91v.409a1 1 0 1 1-2 0v-.333c0-2.543-.002-4.349-.186-5.72-.139-1.032-.371-1.727-.728-2.25l-8.44 9.835-.008.009c-.991 1.128-2.26 1.763-3.6 1.763s-2.61-.635-3.6-1.763l-.005-.006-8.517-9.84c-.358.523-.59 1.219-.73 2.253C3.002 9.818 3 11.624 3 14.167v2.666c0 2.543.002 4.349.186 5.72.18 1.34.519 2.113 1.083 2.678.565.564 1.337.902 2.679 1.083 1.37.184 3.176.186 5.719.186H16a1 1 0 1 1 0 2h-3.408c-2.45 0-4.392 0-5.91-.204-1.564-.21-2.83-.653-3.827-1.651-.998-.998-1.44-2.263-1.65-3.826C1 21.299 1 19.359 1 16.909V14.09c0-2.45 0-4.39.204-5.91.21-1.563.653-2.828 1.651-3.826s2.263-1.44 3.826-1.65c1.52-.205 3.46-.205 5.91-.205ZM5.53 5.003l8.413 9.72c.675.768 1.421 1.081 2.095 1.081.673 0 1.418-.312 2.093-1.08l8.343-9.72a7 7 0 0 0-1.422-.318c-1.37-.184-3.176-.186-5.718-.186h-6.667c-2.543 0-4.349.002-5.72.186a7 7 0 0 0-1.417.317M29.5 23.5a4.5 4.5 0 1 1-9 0 4.5 4.5 0 0 1 9 0m2 0a6.5 6.5 0 1 1-13 0 6.5 6.5 0 0 1 13 0m-7.686-.127a1 1 0 0 0 .293.707l.912.912a1 1 0 1 0 1.414-1.415l-.619-.618v-2.165a1 1 0 1 0-2 0z" clip-rule="evenodd"></path></svg>