<svg xmlns="http://www.w3.org/2000/svg" fill="none" viewBox="0 0 32 32"><path fill="currentColor" fill-opacity="0.133" d="m28 4.077-9.05 11.356c-1.704 2.09-4.12 2.09-5.823 0L4 4.077"></path><path fill="currentColor" fill-rule="evenodd" d="M12.592 3h6.817c2.45 0 4.39 0 5.91.204 1.563.21 2.828.653 3.826 1.651s1.44 2.263 1.65 3.826c.205 1.52.205 3.46.205 5.91V15a1 1 0 1 1-2 0v-.333c0-2.543-.002-4.349-.186-5.72-.139-1.032-.371-1.727-.728-2.25l-8.44 9.835-.008.009c-.991 1.128-2.26 1.763-3.6 1.763s-2.61-.635-3.6-1.763l-.005-.006-8.517-9.84c-.358.523-.59 1.219-.73 2.253C3.002 10.318 3 12.124 3 14.667v2.666c0 2.543.002 4.349.186 5.72.18 1.34.519 2.113 1.083 2.678.565.564 1.337.902 2.679 1.083 1.37.184 3.176.186 5.719.186H16a1 1 0 1 1 0 2h-3.408c-2.45 0-4.392 0-5.91-.204-1.564-.21-2.83-.653-3.827-1.651-.998-.998-1.44-2.263-1.65-3.826C1 21.799 1 19.859 1 17.409V14.59c0-2.45 0-4.39.204-5.91.21-1.563.653-2.828 1.651-3.826s2.263-1.44 3.826-1.65C8.201 3 10.141 3 12.591 3ZM5.53 5.503l8.413 9.72c.675.768 1.421 1.081 2.095 1.081.673 0 1.418-.312 2.093-1.08l8.343-9.72a7 7 0 0 0-1.422-.318C23.682 5.002 21.876 5 19.334 5h-6.667c-2.543 0-4.349.002-5.72.186a7 7 0 0 0-1.417.317m25.682 14.794a1 1 0 0 1-.01 1.415l-7.09 7a1 1 0 0 1-1.477-.079l-2.909-3.555a1 1 0 0 1 1.548-1.267l2.214 2.706 6.31-6.229a1 1 0 0 1 1.414.01Z" clip-rule="evenodd"></path></svg>