<svg xmlns="http://www.w3.org/2000/svg" fill="none" viewBox="0 0 32 32"><g fill="currentColor" clip-path="url(#MonitorMinus_svg__a)"><path fill-opacity="0.133" d="M30 16.6c0 2.24 0 3.36-.436 4.216a4 4 0 0 1-1.748 1.748C26.96 23 25.84 23 23.6 23H8.4c-2.24 0-3.36 0-4.216-.436a4 4 0 0 1-1.748-1.748C2 19.96 2 18.84 2 16.6V15h28z"></path><path fill-rule="evenodd" d="M9.927 1H16a1 1 0 1 1 0 2h-6c-1.914 0-3.249.002-4.256.138-.978.131-1.496.372-1.865.74-.37.37-.61.888-.741 1.866C3.002 6.751 3 8.086 3 10v5c0 1.914.002 3.249.138 4.256.131.978.372 1.496.74 1.865.37.37.888.61 1.866.742C6.751 21.998 8.086 22 10 22h12.5c1.668 0 2.831-.002 3.72-.107.865-.102 1.338-.29 1.683-.574q.228-.188.416-.416c.284-.345.472-.818.574-1.684.105-.888.107-2.05.107-3.719a1 1 0 1 1 2 0v.063c0 1.59 0 2.872-.12 3.891-.125 1.055-.39 1.957-1.015 2.718q-.313.38-.693.693c-.76.625-1.663.89-2.718 1.015-1.019.12-2.3.12-3.89.12H17v5h5a1 1 0 1 1 0 2H10a1 1 0 1 1 0-2h5v-5H9.927c-1.824 0-3.293 0-4.45-.155-1.2-.162-2.21-.507-3.013-1.31-.802-.802-1.147-1.813-1.309-3.013C1 18.366 1 16.897 1 15.073V9.927c0-1.824 0-3.293.155-4.45.162-1.2.507-2.21 1.31-3.013.802-.802 1.813-1.147 3.013-1.309C6.634 1 8.103 1 9.927 1" clip-rule="evenodd"></path><path fill-rule="evenodd" d="M29.5 7a4.5 4.5 0 1 1-9 0 4.5 4.5 0 0 1 9 0m2 0a6.5 6.5 0 1 1-13 0 6.5 6.5 0 0 1 13 0m-8.667-1a1 1 0 1 0 0 2h4.334a1 1 0 1 0 0-2z" clip-rule="evenodd"></path></g><defs><clipPath id="MonitorMinus_svg__a"><path fill="#fff" d="M0 0h32v32H0z"></path></clipPath></defs></svg>