<svg xmlns="http://www.w3.org/2000/svg" viewBox="0 0 32 32"><g fill="currentColor" fill-rule="evenodd"><path fill-opacity="0.133" fill-rule="nonzero" d="M3.98 13.927a5 5 0 0 1 5-5h8a3 3 0 0 1 3 3v15a3 3 0 0 1-3 3h-8a5 5 0 0 1-5-5V23.66a3 3 0 0 1 .794-2.033l.155-.168a3 3 0 0 0 0-4.067l-.155-.167a3 3 0 0 1-.794-2.034z"></path><path d="M16 4.037a5.175 5.175 0 0 1 7.243 1.027l.138.183c.623.828.752 1.912.372 2.849H10.596zm8.979.008a4.92 4.92 0 0 1 .802 4.292c2.072.732 3.427 3.02 3.427 5.45v2.528c0 .122 0 .273-.011.405a1.4 1.4 0 0 1-.23.665c-.2.288-.492.42-.597.468l-.004.002c-.134.06-.303.124-.466.184l-.026.01c-.448.166-.889.718-.889 1.5 0 .783.441 1.335.89 1.501l.025.01c.163.06.332.123.466.184l.004.002c.105.047.397.18.598.468.178.256.215.521.229.665.012.131.012.283.012.404v2.529c0 2.95-1.995 5.691-4.85 5.691H7.6c-2.854 0-4.849-2.74-4.849-5.691v-2.529c0-.121 0-.273.012-.404.014-.144.051-.409.23-.665.2-.288.492-.42.597-.468l.004-.002c.134-.06.303-.124.466-.184l.026-.01c.448-.166.889-.718.889-1.5 0-.783-.441-1.335-.889-1.501l-.026-.01a7 7 0 0 1-.466-.184l-.004-.002a1.4 1.4 0 0 1-.598-.468 1.37 1.37 0 0 1-.229-.665 5 5 0 0 1-.012-.405v-.025l.001-2.503c0-2.827 1.833-5.462 4.497-5.677l7.55-5.672a7.175 7.175 0 0 1 10.044 1.424zM4.75 13.787c0-2.233 1.452-3.692 2.85-3.692h11.37a1 1 0 0 0-.06.343v3.083a1 1 0 1 0 1.999 0v-3.083a1 1 0 0 0-.06-.343h3.508c1.398 0 2.85 1.459 2.85 3.692l.001 2.376-.032.012c-1.339.497-2.191 1.878-2.191 3.374s.852 2.878 2.192 3.375l.031.012v2.376c0 2.234-1.45 3.692-2.85 3.692h-3.452l.003-.071v-3.082a1 1 0 1 0-2 0v3.082q0 .036.003.07H7.6c-1.4 0-2.85-1.457-2.85-3.691v-2.376l.031-.012c1.34-.497 2.192-1.878 2.192-3.375 0-1.496-.852-2.877-2.191-3.374l-.032-.012zm14.16 7.954a1 1 0 1 0 1.999 0v-4.11a1 1 0 0 0-2 0z"></path></g></svg>