<svg xmlns="http://www.w3.org/2000/svg" fill="none" viewBox="0 0 32 32"><path fill="currentColor" fill-opacity="0.133" fill-rule="evenodd" d="m17.743 12.757 7.72 2.503c.716.233.716 1.247 0 1.48l-7.72 2.503a.78.78 0 0 0-.5.5l-2.503 7.72c-.233.716-1.247.716-1.48 0l-2.503-7.72a.78.78 0 0 0-.5-.5l-7.72-2.503c-.716-.233-.716-1.247 0-1.48l7.72-2.503a.78.78 0 0 0 .5-.5l2.503-7.72c.233-.716 1.247-.716 1.48 0l2.503 7.72a.78.78 0 0 0 .5.5" clip-rule="evenodd"></path><path fill="currentColor" fill-rule="evenodd" d="m14 5.498-1.037 3.199-1.253 3.864-.001.003a1.78 1.78 0 0 1-1.141 1.144h-.003L3.497 16l7.068 2.292h.003c.535.175.965.596 1.14 1.144l.002.002L14 26.503l2.292-7.068v-.003c.177-.54.6-.963 1.14-1.14h.003l6.943-2.251.125-.041-.38-.123-6.688-2.169h-.003a1.78 1.78 0 0 1-1.14-1.14v-.003l-.708-2.182zm-1.691-1.269-1.086 3.348-1.382 4.264-7.612 2.468c-1.639.532-1.639 2.85 0 3.382l7.612 2.468 2.468 7.612c.532 1.639 2.85 1.639 3.382 0l2.468-7.612 7.611-2.468c1.64-.532 1.64-2.85 0-3.382l-7.61-2.468-2.469-7.612c-.532-1.639-2.85-1.639-3.382 0M26 1a1 1 0 0 1 .951.691A5.22 5.22 0 0 0 30.31 5.05a1 1 0 0 1 0 1.902 5.22 5.22 0 0 0-3.358 3.358 1 1 0 0 1-1.902 0 5.22 5.22 0 0 0-3.36-3.36 1 1 0 0 1 0-1.902 5.22 5.22 0 0 0 3.36-3.358A1 1 0 0 1 26 1m-1.78 5A7.2 7.2 0 0 1 26 7.78 7.2 7.2 0 0 1 27.78 6 7.2 7.2 0 0 1 26 4.22 7.2 7.2 0 0 1 24.22 6m2.731 15.691a1 1 0 0 0-1.902 0 5.22 5.22 0 0 1-3.358 3.358 1 1 0 0 0 0 1.902 5.22 5.22 0 0 1 3.358 3.358 1 1 0 0 0 1.902 0 5.22 5.22 0 0 1 3.358-3.358 1 1 0 0 0 0-1.902 5.22 5.22 0 0 1-3.358-3.358M26 27.781A7.2 7.2 0 0 0 24.22 26 7.2 7.2 0 0 0 26 24.22 7.2 7.2 0 0 0 27.78 26 7.2 7.2 0 0 0 26 27.78" clip-rule="evenodd"></path></svg>