<svg xmlns="http://www.w3.org/2000/svg" viewBox="0 0 32 32"><g fill="currentColor" fill-rule="evenodd"><path fill-opacity="0.133" d="M8 2a6 6 0 0 0-6 6v8h13.356l2.847 8 1.537-4.131a.4.4 0 0 1 .23-.234L24 18.062 17.939 16H30V8a6 6 0 0 0-6-6z"></path><path d="M4.737 4.873C3.65 6.039 3 7.735 3 9.819V22.18c0 2.084.647 3.78 1.732 4.946C5.81 28.285 7.395 29 9.44 29h13.12c2.046 0 3.63-.715 4.708-1.873C28.353 25.962 29 24.266 29 22.181V9.82c0-2.085-.647-3.781-1.732-4.947C26.191 3.715 24.608 3 22.561 3H9.441c-2.04 0-3.624.715-4.704 1.873M3.274 3.509C4.771 1.903 6.907 1 9.44 1h13.121c2.54 0 4.676.903 6.171 2.51C30.22 5.107 31 7.32 31 9.818V22.18c0 2.497-.78 4.71-2.268 6.309C27.236 30.097 25.1 31 22.56 31H9.44c-2.54 0-4.675-.903-6.171-2.51C1.78 26.892 1 24.678 1 22.181V9.82c0-2.5.784-4.712 2.274-6.31m13.362 13.104 1.588 4.463.579-1.556.031-.077a1 1 0 0 1 .694-.706l.078-.033 1.479-.577zm4.937 3.47 2.79-1.089a1 1 0 0 0-.04-1.878l-8.218-2.796c-1.108-.377-2.162.692-1.77 1.795l2.926 8.22a1 1 0 0 0 1.88.014l1.049-2.82 2.705 2.77a1 1 0 1 0 1.43-1.397zM9.5 6a3 3 0 0 0 0 6h8a3 3 0 1 0 0-6zm-1 3a1 1 0 0 1 1-1h8a1 1 0 1 1 0 2h-8a1 1 0 0 1-1-1"></path></g></svg>