<svg xmlns="http://www.w3.org/2000/svg" fill="none" viewBox="0 0 32 32"><path fill="currentColor" fill-opacity="0.133" d="M16 2a7 7 0 0 1 7 7s-1.001 2-7 2-7-2-7-2a7 7 0 0 1 7-7m2.794 22.419c-.2.364-.263.717-.183 1.037 0 0 2.416-.746 6.297-.73.845 1.971 4.241-.357 4.241-.357-.066-.267 1.131-1.811.818-2.005l-.74-.471c-.349-.227-1.132-.405-1.698-.505a8.2 8.2 0 0 0-1.91-.083c-.695.044-1.422.16-2.142.34s-1.416.422-2.05.71c-.633.29-1.192.62-1.644.975-.452.354-.788.724-.989 1.089"></path><path fill="currentColor" d="M16 1c4.552 0 8 3.448 8 8 0 1.424-.338 2.539-.81 3.457a1 1 0 0 1-1.78-.914c.338-.657.59-1.46.59-2.543 0-3.448-2.553-6-6-6s-6 2.552-6 6c0 1.7.617 2.741 1.3 3.65.316.423.767.96 1.072 1.434.333.52.627 1.148.627 1.916 0 1.63-.769 2.723-1.82 3.482-.973.704-2.25 1.16-3.317 1.575-1.141.443-2.106.859-2.8 1.463C4.428 23.072 4 23.8 4 25c0 .664.274 1.216.845 1.716.599.524 1.51.971 2.692 1.326 2.36.708 5.495.958 8.462.958a1 1 0 1 1 0 2c-3.032 0-6.397-.25-9.037-1.042-1.317-.395-2.532-.948-3.433-1.736-.928-.813-1.53-1.886-1.53-3.222 0-1.8.698-3.072 1.75-3.988.994-.865 2.28-1.387 3.388-1.819 1.183-.46 2.157-.816 2.87-1.332.636-.459.992-.992.992-1.861 0-.232-.08-.478-.31-.834-.257-.401-.556-.74-.99-1.316C8.883 12.759 8 11.3 8 9c0-4.552 3.449-8 8-8m9.095 14.075c.292-.106.564-.079.738-.043.182.038.35.104.489.171.28.134.572.328.85.537.566.425 1.21 1.013 1.809 1.626a20 20 0 0 1 1.63 1.875c.22.295.42.59.571.863.128.23.305.592.318.975.013.396-.15.782-.268 1.032-.14.296-.333.62-.549.949a22 22 0 0 1-1.611 2.106c-.598.695-1.24 1.366-1.806 1.854-.279.242-.57.466-.848.625-.14.078-.308.16-.493.211-.174.049-.46.097-.775-.006-.885-.29-1.08-1.17-1.148-1.666-.053-.392-.066-.883-.07-1.44-1.597.128-3.123 1.09-5.103 2.889a1.4 1.4 0 0 1-1.627.19 1.35 1.35 0 0 1-.645-1.57c.71-2.423 1.714-4.258 3.1-5.587 1.201-1.15 2.634-1.867 4.271-2.288.001-.663.008-1.25.072-1.702.07-.488.266-1.299 1.095-1.6Zm.852 2.247c-.02.344-.02.804-.02 1.433v.423a1 1 0 0 1-.811.981c-1.7.329-3.022.943-4.075 1.951-.668.64-1.258 1.47-1.764 2.546 1.785-1.328 3.609-2.123 5.757-1.89a1 1 0 0 1 .892.994v.17c0 .691.002 1.202.023 1.585l.01-.007c.464-.402 1.036-.994 1.596-1.646a20 20 0 0 0 1.457-1.902 6 6 0 0 0 .414-.708c.02-.041.031-.077.042-.104q-.013-.034-.037-.079a6 6 0 0 0-.42-.629 18 18 0 0 0-1.46-1.675c-.558-.571-1.124-1.083-1.58-1.425z"></path></svg>