<svg xmlns="http://www.w3.org/2000/svg" viewBox="0 0 32 32"><path fill="currentColor" d="M1 11.6v.4a1 1 0 0 0 2 0v-.4c0-1.697 0-2.91.078-3.86.077-.938.224-1.532.467-2.01A5 5 0 0 1 5.73 3.545c.478-.243 1.072-.39 2.01-.467C8.69 3 9.903 3 11.6 3h.4a1 1 0 0 0 0-2h-.449c-1.64 0-2.933 0-3.973.085-1.062.087-1.95.267-2.756.678a7 7 0 0 0-3.06 3.06c-.41.805-.59 1.693-.677 2.755C1 8.618 1 9.911 1 11.551zm0 8.8V20a1 1 0 0 1 2 0v.4c0 1.697 0 2.91.078 3.86.077.938.224 1.532.467 2.01a5 5 0 0 0 2.185 2.185c.478.243 1.072.39 2.01.467C8.69 29 9.903 29 11.6 29h.4a1 1 0 0 1 0 2h-.449c-1.64 0-2.933 0-3.973-.085-1.062-.087-1.95-.267-2.756-.678a7 7 0 0 1-3.06-3.06c-.41-.805-.59-1.693-.677-2.755C1 23.382 1 22.089 1 20.449zM31 12v-.449c0-1.64 0-2.933-.085-3.973-.087-1.062-.267-1.95-.678-2.756a7 7 0 0 0-3.06-3.06c-.805-.41-1.693-.59-2.755-.677C23.382 1 22.089 1 20.449 1H20a1 1 0 0 0 0 2h.4c1.697 0 2.91 0 3.86.078.938.077 1.532.224 2.01.467a5 5 0 0 1 2.185 2.185c.243.478.39 1.072.467 2.01C29 8.69 29 9.903 29 11.6v.4a1 1 0 0 0 2 0m0 8.4V20a1 1 0 0 0-2 0v.4c0 1.697 0 2.91-.078 3.86-.077.938-.224 1.532-.467 2.01a5 5 0 0 1-2.185 2.185c-.478.243-1.072.39-2.01.467-.95.078-2.163.078-3.86.078H20a1 1 0 0 0 0 2h.449c1.64 0 2.932 0 3.973-.085 1.062-.087 1.95-.267 2.756-.678a7 7 0 0 0 3.06-3.06c.41-.805.59-1.693.677-2.755.085-1.04.085-2.333.085-3.973z"></path><path fill="currentColor" d="M16.25 21.25A2.5 2.5 0 0 1 18.634 23H24.5a1 1 0 0 1 0 2h-6q-.043-.001-.085-.005a2.496 2.496 0 0 1-4.366-.06A1 1 0 0 1 13.7 25h-1.2a1 1 0 0 1 0-2h1.2q.082 0 .16.014a2.5 2.5 0 0 1 2.39-1.764m0 1.5a1 1 0 1 0 0 2 1 1 0 0 0 0-2m6.25-9.25a2.5 2.5 0 0 1 2.29 1.5H31a1 1 0 0 1 0 2h-6.21a2.5 2.5 0 0 1-4.58 0H1a1 1 0 0 1 0-2h19.21a2.5 2.5 0 0 1 2.29-1.5m0 1.5a1 1 0 1 0 0 2 1 1 0 0 0 0-2"></path><path fill="currentColor" fill-opacity="0.133" d="M7 30a5 5 0 0 1-5-5v-9h28v9a5 5 0 0 1-5 5z"></path></svg>