<svg xmlns="http://www.w3.org/2000/svg" viewBox="0 0 32 32"><g fill="none" fill-rule="evenodd"><path fill="currentColor" fill-opacity="0.133" d="M15.304 16.696 29.285 2.715c1.327 2.49-3.807 20.318-6.793 25.491-3.539 6.13-7.188-11.51-7.188-11.51m0 0L29.285 2.715z"></path><path stroke="currentColor" stroke-linecap="round" stroke-linejoin="round" stroke-width="2" d="M15.304 16.696s-17.64-3.65-11.51-7.188c5.173-2.986 23-8.12 25.491-6.793m-13.98 13.98s3.648 17.641 7.187 11.511c2.986-5.173 8.12-23 6.793-25.491m-13.98 13.98 13.98-13.98M4 22.667l2.943-2.944m2.566 3.091 2.976-2.976m-2.503 8.16 2.603-2.605"></path></g></svg>