<svg xmlns="http://www.w3.org/2000/svg" viewBox="0 0 32 32"><g fill="currentColor" fill-rule="evenodd"><path fill-opacity="0.133" fill-rule="nonzero" d="M18 8.754c0-.827 0-1.24.15-1.604a2 2 0 0 1 .183-.347c.218-.329.56-.56 1.243-1.025 3.257-2.21 4.885-3.315 6.22-2.948a3 3 0 0 1 1.15.61C28 4.338 28 6.306 28 10.241V20.29c0 2.283 0 3.425-.454 4.416q-.12.264-.27.51c-.566.933-1.51 1.574-3.4 2.857-2.406 1.633-3.61 2.45-4.578 2.086q-.241-.09-.453-.24C18 29.321 18 27.867 18 24.958z"></path><path d="M20.929 1h.142c1.825 0 3.293 0 4.447.15 1.195.156 2.203.489 3.007 1.268.808.784 1.157 1.773 1.32 2.946C30 6.49 30 7.918 30 9.683v10.836c0 1.324 0 2.354-.144 3.238l-.012.09c-.163 1.174-.512 2.164-1.32 2.947-.37.36-.784.624-1.24.82-.476.356-1.026.729-1.655 1.156l-.191.13-.062.041c-1.15.781-2.097 1.424-2.88 1.817-.79.396-1.66.67-2.55.337a3 3 0 0 1-.679-.36c-.774-.548-1.037-1.423-1.153-2.3l-.03-.253a17 17 0 0 1-1.602-.12c-1.195-.156-2.203-.489-3.007-1.268-.807-.783-1.156-1.773-1.32-2.946a18 18 0 0 1-.134-1.87L14 19.67c0 1.743.008 2.97.137 3.903.13.94.367 1.433.73 1.785.369.357.89.592 1.873.72.372.049.79.08 1.263.1q-.004-.541-.003-1.145V8.612c-.001-.684-.002-1.29.224-1.841a3 3 0 0 1 .276-.521c.33-.497.83-.836 1.397-1.22l.118-.079.058-.04c1.11-.753 2.063-1.4 2.89-1.903C22.384 3 21.734 3 21 3c-1.913 0-3.25.002-4.26.134-.984.128-1.504.363-1.872.72-.364.353-.6.845-.731 1.785C14.002 6.61 14 7.9 14 9.758v.693l-1.995-2.328c.01-1.07.044-1.986.15-2.759.164-1.173.513-2.162 1.32-2.946.804-.78 1.812-1.112 3.007-1.268C17.636 1 19.104 1 20.929 1m-.827 27.212c.096.694.252.841.32.89q.106.075.227.12c.08.03.295.077.95-.252.36-.18.776-.433 1.283-.765q-.84.009-1.81.007zm6.19-2.358c-.276.095-.612.17-1.032.225-1.01.131-2.347.133-4.26.133h-.997Q20 25.648 20 24.958V8.754c0-.91.018-1.086.075-1.225q.036-.09.092-.174c.083-.125.218-.238.971-.75 1.65-1.12 2.813-1.906 3.727-2.379.923-.476 1.374-.512 1.665-.432a2 2 0 0 1 .768.407c.23.196.454.59.578 1.62.122 1.022.124 2.426.124 4.42v9.214c0 1.827-.002 3.105-.13 4.071a3 3 0 0 1-.233.763 4 4 0 0 1-.216.408c-.235.387-.558.716-1.13 1.157M10.473 9.41a1 1 0 1 0-1.518 1.301l2.87 3.35H2a1 1 0 1 0 0 2h9.826L8.955 19.41a1 1 0 0 0 1.518 1.301l4.286-5a1 1 0 0 0 0-1.301z"></path></g></svg>