<svg xmlns="http://www.w3.org/2000/svg" viewBox="0 0 32 32"><g fill="currentColor" fill-rule="evenodd"><path fill-opacity="0.133" fill-rule="nonzero" d="M16.105 16.837c-3.2 0-6 1-7 2l-5-6 7.5-2 4.5-7 5 7 7 2-5 6c-1-1-3.8-2-7-2"></path><path d="M15.535 5.557c-.403.584-.854 1.492-1.52 2.842l-.577 1.17-.017.035c-.175.355-.335.68-.496.942a2.6 2.6 0 0 1-.698.786 2.6 2.6 0 0 1-.963.42c-.299.073-.657.125-1.048.182l-.039.005-1.295.189c-1.487.216-2.489.364-3.168.567-.675.201-.704.362-.705.37-.004.008-.076.155.352.714.43.564 1.154 1.273 2.23 2.322l.94.917.027.027c.283.276.542.528.741.762.22.257.414.543.532.906s.129.71.102 1.046a12 12 0 0 1-.152 1.052l-.006.038-.222 1.292c-.254 1.483-.422 2.482-.44 3.191-.017.705.128.782.135.786.006.005.123.12.788-.115.67-.236 1.568-.706 2.899-1.406l1.154-.607.034-.018c.35-.184.67-.353.955-.47.312-.13.645-.226 1.027-.226s.715.096 1.027.226c.284.117.604.286.955.47l.034.018 1.154.607c1.331.7 2.23 1.17 2.899 1.406.665.234.782.12.788.115s.152-.08.135-.786c-.018-.71-.186-1.708-.44-3.19l-.222-1.293-.006-.038c-.067-.39-.128-.746-.152-1.052a2.6 2.6 0 0 1 .102-1.046c.118-.363.313-.649.532-.906.2-.234.458-.486.741-.762l.028-.027.94-.917c1.075-1.05 1.798-1.758 2.23-2.322.427-.56.355-.706.352-.713v-.001c-.002-.008-.03-.169-.706-.37-.68-.203-1.68-.351-3.168-.567l-1.295-.189-.038-.005c-.392-.057-.75-.11-1.049-.181a2.6 2.6 0 0 1-.963-.421 2.6 2.6 0 0 1-.698-.786c-.16-.263-.32-.587-.496-.942l-.017-.034-.577-1.171c-.666-1.35-1.116-2.258-1.52-2.842-.4-.581-.562-.558-.57-.557-.008-.001-.17-.024-.57.557M13.888 4.42C14.39 3.695 15.071 3 16.105 3s1.716.695 2.217 1.421c.496.72 1.01 1.763 1.63 3.018l.036.075.578 1.17c.198.402.317.642.424.816.096.157.145.197.169.214.023.017.076.051.255.094.199.048.464.088.907.152l1.294.188.084.012c1.382.201 2.532.369 3.37.618.844.252 1.715.687 2.034 1.669.32.982-.13 1.846-.665 2.547-.53.694-1.362 1.505-2.362 2.48l-.06.06-.94.916c-.32.312-.51.5-.643.655-.12.14-.142.198-.151.226s-.026.089-.011.272c.016.204.06.468.136.908l.221 1.292.014.083c.236 1.378.433 2.524.454 3.398.022.882-.122 1.845-.959 2.452-.836.607-1.796.446-2.628.153-.825-.29-1.853-.832-3.09-1.483l-.075-.039-1.154-.607a11 11 0 0 0-.823-.41c-.17-.071-.233-.074-.262-.074-.03 0-.092.003-.262.073-.189.079-.427.203-.823.41l-1.154.608-.074.04c-1.238.65-2.266 1.191-3.09 1.482-.833.293-1.793.454-2.63-.153-.835-.607-.98-1.57-.958-2.452.021-.874.218-2.02.454-3.398l.014-.083.222-1.292c.075-.44.12-.704.135-.908.015-.183-.001-.244-.01-.272s-.032-.086-.151-.226a11 11 0 0 0-.644-.655l-.94-.917-.06-.058c-1-.976-1.832-1.787-2.362-2.481-.536-.701-.985-1.565-.665-2.547s1.19-1.417 2.035-1.669c.837-.25 1.987-.417 3.37-.618l.083-.012L9.89 9.96c.442-.064.707-.104.906-.152.18-.043.232-.077.255-.094.024-.017.073-.057.169-.214a11 11 0 0 0 .424-.815l.578-1.171.037-.075c.619-1.255 1.133-2.298 1.63-3.018"></path></g></svg>