<svg xmlns="http://www.w3.org/2000/svg" viewBox="0 0 32 32"><g fill="currentColor" fill-rule="evenodd" transform="translate(0 -1)"><rect width="30" height="18" x="0.294" y="8.49" fill-opacity="0.133" fill-rule="nonzero" rx="9" transform="rotate(-60 15.294 17.49)"></rect><path d="m12.232 8.794-6 10.393a7 7 0 1 0 12.124 7l6-10.393a7 7 0 0 0-4.392-10.3 4.4 4.4 0 0 0-.393.498l-.008.012a5 5 0 0 0-.896 2.929 2.875 2.875 0 1 1-1.958.686 7 7 0 0 1 .915-4.293 6.99 6.99 0 0 0-5.392 3.468m7.127-5.439a9 9 0 0 0-8.859 4.44l-6 10.392a9 9 0 1 0 15.589 9l6-10.393a8.96 8.96 0 0 0 1.204-4.272q.06-.06.112-.132c1.435-2.009 1.762-4.791.59-7.09l-.003-.004c-1.596-3.101-5.314-4.097-8.247-2.21l1.359.656-1.359-.656a7 7 0 0 0-.386.27m3.876 1.416a8.96 8.96 0 0 1 3.427 4.209 4.7 4.7 0 0 0-.449-2.77c-.811-1.575-2.41-2.318-3.986-2.012a9 9 0 0 1 1.008.573l2.978 1.439zm-5.356 7.566q.103.136.259.228a.875.875 0 0 0 1.13-1.293 1 1 0 0 1-1.39 1.065m-7.762 6.495a1 1 0 0 1 1.366-.366l4.872 2.812a1 1 0 0 1-1 1.732l-4.872-2.812a1 1 0 0 1-.366-1.366m-1.063 3.716a1 1 0 0 1 1.366-.366l3.248 1.875a1 1 0 1 1-1 1.732L9.42 23.914a1 1 0 0 1-.366-1.366"></path></g></svg>