<svg xmlns="http://www.w3.org/2000/svg" fill-rule="evenodd" viewBox="0 0 32 32"><path fill="currentColor" fill-opacity="0.133" fill-rule="nonzero" d="M2 9a5 5 0 0 1 5-5h12a3 3 0 0 1 3 3v18a3 3 0 0 1-3 3H7a5 5 0 0 1-5-5v-2.25a3 3 0 0 1 .888-2.13l.494-.49a3 3 0 0 0 0-4.26l-.494-.49A3 3 0 0 1 2 11.25z"></path><path fill="currentColor" d="M1.001 9.385C1.002 6.054 3.245 3 6.409 3h19.182c3.164 0 5.407 3.054 5.407 6.385L31 12.26v.028l-.013.451a1.4 1.4 0 0 1-.236.692c-.206.297-.511.436-.628.489l-.002.001-.527.209-.027.01c-.576.215-1.112.909-1.112 1.861s.535 1.646 1.112 1.861l.027.01.527.209.002.001c.117.053.422.192.628.489.183.263.222.536.237.692.013.144.013.31.013.451v2.903C31 25.945 28.758 29 25.593 29H6.407C3.242 29 1 25.945 1 22.614v-2.902l.013-.451c.014-.155.054-.429.237-.692.206-.297.511-.435.628-.489l.002-.001c.148-.068.337-.138.527-.209l.027-.01c.576-.215 1.112-.909 1.112-1.861s-.535-1.646-1.112-1.861l-.027-.01-.527-.209-.002-.001c-.117-.053-.422-.192-.628-.489a1.4 1.4 0 0 1-.237-.692C1 12.595 1 12.428 1 12.287v-.028zM23 24v2.8a.2.2 0 0 0 .2.2h2.393C27.297 27 29 25.235 29 22.614v-2.691a.2.2 0 0 0-.13-.187l-.003-.001c-1.469-.548-2.413-2.072-2.413-3.735s.944-3.187 2.412-3.735l.003-.001a.2.2 0 0 0 .13-.187l-.001-2.691c0-2.62-1.704-4.386-3.407-4.386H23.2a.2.2 0 0 0-.2.2V8a1 1 0 1 1-2 0V5.2a.2.2 0 0 0-.2-.2H6.409C4.705 5 3.001 6.766 3.001 9.386L3 12.077a.2.2 0 0 0 .13.187l.003.001c1.469.548 2.412 2.071 2.412 3.735s-.944 3.187-2.413 3.735l-.003.001a.2.2 0 0 0-.13.187v2.691C3 25.235 4.703 27 6.407 27H20.8a.2.2 0 0 0 .2-.2V24a1 1 0 1 1 2 0m-2-5a1 1 0 1 0 2 0v-6a1 1 0 1 0-2 0zm-5.279-.307a1 1 0 0 0-1.441-1.386l-3.174 3.3a.2.2 0 0 1-.288 0l-1.095-1.14a1 1 0 0 0-1.442 1.385l1.96 2.041a1 1 0 0 0 1.442 0l4.04-4.2z"></path></svg>