<svg xmlns="http://www.w3.org/2000/svg" fill="none" viewBox="0 0 32 32"><path fill="currentColor" fill-opacity="0.133" d="M27 15H5l2.442 10.876A4 4 0 0 0 11.344 29H21.46a4 4 0 0 0 3.956-3.408z"></path><path fill="currentColor" d="M19.134 2c.355 0 .692-.001.978.027.307.03.63.099.95.282.32.184.543.429.724.679.168.232.337.525.515.831l.496.848H30a1 1 0 0 1 0 2h-2.176l-.872 13.086c-.115 1.728-.206 3.088-.374 4.175-.171 1.101-.434 2.012-.947 2.82a7 7 0 0 1-2.565 2.4c-.84.457-1.766.66-2.876.757C19.094 30 17.73 30 16 30c-1.732 0-3.095 0-4.19-.095-1.11-.097-2.037-.3-2.877-.757a7 7 0 0 1-2.565-2.4c-.512-.808-.776-1.719-.946-2.82-.17-1.087-.26-2.447-.375-4.175L4.175 6.667H2a1 1 0 0 1 0-2h7.203l.495-.848c.178-.306.347-.599.515-.831.181-.25.405-.495.724-.679.32-.183.643-.252.95-.282.286-.028.624-.027.978-.027zM7.044 19.62c.117 1.763.202 3.021.354 4.002.15.965.353 1.573.658 2.054a5 5 0 0 0 1.833 1.715c.501.273 1.12.435 2.095.52.988.087 2.25.089 4.016.089s3.027-.002 4.015-.088c.975-.086 1.594-.248 2.095-.52a5 5 0 0 0 1.833-1.716c.305-.481.508-1.088.658-2.054.152-.98.237-2.239.355-4.001l.863-12.954H6.18zM11.5 10.5a1 1 0 0 1 1 1V21a1 1 0 1 1-2 0v-9.5a1 1 0 0 1 1-1m4.5 0a1 1 0 0 1 1 1V21a1 1 0 1 1-2 0v-9.5a1 1 0 0 1 1-1m4.5 0a1 1 0 0 1 1 1V21a1 1 0 1 1-2 0v-9.5a1 1 0 0 1 1-1M12.865 4c-.393 0-.617.001-.782.017a1 1 0 0 0-.149.026l-.003.003a1 1 0 0 0-.098.114c-.08.112-.17.264-.313.507h8.96a7 7 0 0 0-.314-.507 1 1 0 0 0-.086-.105l-.012-.01-.003-.002a1 1 0 0 0-.149-.025A9 9 0 0 0 19.135 4z"></path></svg>