<svg xmlns="http://www.w3.org/2000/svg" viewBox="0 0 32 32"><g fill="currentColor"><path fill-opacity="0.133" fill-rule="evenodd" d="M25.9 25.9c-5.468 5.468-14.332 5.468-19.8 0S.632 11.568 6.1 6.1L16 16z"></path><path d="M16 1c8.284 0 15 6.716 15 15s-6.716 15-15 15S1 24.284 1 16 7.716 1 16 1m0 2a12.95 12.95 0 0 0-8.343 3.031l.911.91A1.001 1.001 0 0 1 7.23 8.425l-.076-.069-.925-.925A12.95 12.95 0 0 0 3 16c0 7.18 5.82 13 13 13 3.284 0 6.281-1.22 8.57-3.229l-.926-.925a1 1 0 0 1 1.414-1.414l.91.91A12.95 12.95 0 0 0 29 16c0-7.18-5.82-13-13-13m1.048 13.836a1 1 0 0 1 1.338-.068l.076.068 3.298 3.298a1 1 0 0 1-1.338 1.482l-.076-.068-3.298-3.298a1 1 0 0 1 0-1.414m-6.596-6.596a1 1 0 0 1 1.338-.07l.076.07 3.298 3.298a1 1 0 0 1-1.338 1.482l-.076-.068-3.298-3.298a1 1 0 0 1 0-1.414"></path></g></svg>