<svg xmlns="http://www.w3.org/2000/svg" viewBox="0 0 32 32"><g fill="currentColor" fill-rule="evenodd"><path fill-opacity="0.133" fill-rule="nonzero" d="M27 20.5c0 2.371 0 3.594-.412 4.922a5.2 5.2 0 0 1-3.061 3.154C22.224 29 21.013 29 18.592 29h-5.184c-2.421 0-3.632 0-4.935-.424a5.2 5.2 0 0 1-3.061-3.154C5 24.094 5 22.872 5 20.5s0-3.594.412-4.921a5.2 5.2 0 0 1 3.061-3.155C9.776 12 10.987 12 13.408 12h5.184c2.421 0 3.632 0 4.935.425a5.2 5.2 0 0 1 3.061 3.153C27 16.907 27 18.129 27 20.5"></path><path d="M14.174 4.395C15.121 4 15.807 4 15.993 4h.014c.186 0 .872 0 1.819.395l.028.011c1.264.483 2.28 1.537 2.752 2.9a1 1 0 1 0 1.89-.655c-.656-1.892-2.08-3.402-3.914-4.108C17.287 2.006 16.304 2 16 2s-1.287.006-2.582.543c-1.833.706-3.258 2.216-3.913 4.108l-.01.028c-.445 1.423-.49 2.724-.494 4.57q-.418.089-.838.225l-.02.006-.02.008a6.2 6.2 0 0 0-3.654 3.757l-.006.019-.006.018C4 16.755 4 18.12 4 20.37v.26c0 2.25 0 3.615.457 5.088l.006.018.006.019a6.2 6.2 0 0 0 3.653 3.757l.02.008.021.006C9.618 30 10.978 30 13.266 30h5.468c2.288 0 3.648 0 5.103-.474l.02-.006.02-.008a6.2 6.2 0 0 0 3.654-3.757l.006-.019.006-.018C28 24.245 28 22.88 28 20.63v-.26c0-2.25 0-3.615-.457-5.088l-.006-.018-.006-.019a6.2 6.2 0 0 0-3.653-3.757l-.02-.008-.021-.006C22.382 11 21.022 11 18.734 11h-5.468c-.87 0-1.606 0-2.264.026.01-1.692.065-2.668.397-3.734.475-1.356 1.487-2.404 2.747-2.886zM6.361 15.894a4.2 4.2 0 0 1 2.443-2.526c1.113-.358 2.15-.368 4.604-.368h5.184c2.453 0 3.49.01 4.604.368a4.2 4.2 0 0 1 2.443 2.526C25.99 17.04 26 18.099 26 20.5s-.009 3.46-.361 4.606a4.2 4.2 0 0 1-2.443 2.526c-1.113.358-2.15.368-4.604.368h-5.184c-2.453 0-3.49-.01-4.604-.368a4.2 4.2 0 0 1-2.443-2.526C6.01 23.96 6 22.901 6 20.5s.009-3.46.361-4.606"></path></g></svg>