<svg xmlns="http://www.w3.org/2000/svg" viewBox="0 0 32 32"><g fill="currentColor" fill-rule="evenodd"><path fill-opacity="0.133" fill-rule="nonzero" d="M2.75 8a4 4 0 0 1 4-4h18a4 4 0 0 1 4 4v6h-26z"></path><path d="M24.2 4.21C22.65 4.003 20.607 4 17.75 4h-4.5c-2.612 0-4.479.002-5.908.179-1.406.173-2.251.503-2.889 1.062a5 5 0 0 0-.462.462c-.56.638-.889 1.483-1.062 2.889-.177 1.43-.179 3.296-.179 5.908v.5c0 2.369.001 4.062.149 5.368.145 1.285.42 2.071.884 2.676a5 5 0 0 0 .923.923c.605.464 1.39.74 2.677.884C8.688 25 10.38 25 12.75 25a1 1 0 1 1 0 2h-.062c-2.293 0-4.099 0-5.53-.161-1.463-.165-2.658-.51-3.67-1.285a7 7 0 0 1-1.291-1.293c-.776-1.01-1.12-2.205-1.286-3.67C.75 19.162.75 17.356.75 15.064v-.633c0-2.527 0-4.517.194-6.084.198-1.605.613-2.901 1.543-3.961a7 7 0 0 1 .648-.648c1.06-.93 2.356-1.345 3.961-1.543C8.663 2 10.653 2 13.181 2h4.645c2.764 0 4.94 0 6.64.229 1.746.234 3.138.726 4.234 1.821 1.095 1.096 1.587 2.488 1.821 4.233.229 1.7.229 3.877.229 6.641v.576a1 1 0 1 1-2 0V15c0-2.857-.002-4.899-.21-6.45-.205-1.523-.593-2.424-1.254-3.086-.662-.661-1.563-1.048-3.086-1.253M9.4 12.75a1.4 1.4 0 1 0 0 2.8 1.4 1.4 0 0 0 0-2.8m4.61 1.4a1.399 1.399 0 1 1 1.398 1.4 1.4 1.4 0 0 1-1.398-1.4m6.006 0a1.4 1.4 0 1 1 2.8 0 1.4 1.4 0 0 1-2.8 0m-.73 5.192c-1.313 1.312-1.833 2.822-2.01 4.063l-.112-.112a1 1 0 0 0-1.414 1.414l1.871 1.872a1 1 0 0 0 1.415 0l1.663-1.664a1 1 0 1 0-1.414-1.414 5.05 5.05 0 0 1 1.415-2.745c1.235-1.235 2.81-1.65 4.156-1.261a1 1 0 1 0 .554-1.922c-2.14-.617-4.449.093-6.125 1.769m7.043 3.77a1 1 0 0 0 1.415 1.414l.101-.101c-.1.846-.396 1.727-1.073 2.404-1.247 1.247-2.86 1.659-4.227 1.237a1 1 0 0 0-.59 1.91c2.172.67 4.535-.037 6.231-1.733 1.098-1.098 1.513-2.46 1.646-3.595l.06.06a1 1 0 0 0 1.414-1.415l-1.872-1.872a1 1 0 0 0-1.414 0z"></path></g></svg>