<svg xmlns="http://www.w3.org/2000/svg" fill="none" viewBox="0 0 32 32"><path fill="currentColor" fill-opacity="0.133" d="M16 2a7 7 0 0 1 7 7s-1.001 2-7 2-7-2-7-2a7 7 0 0 1 7-7"></path><path fill="currentColor" d="M16 1.06c4.535 0 7.97 3.434 7.97 7.97 0 1.731-.502 2.994-1.118 3.994a1 1 0 0 1-1.703-1.05c.456-.74.82-1.644.82-2.945 0-3.43-2.539-5.97-5.969-5.97s-5.97 2.54-5.97 5.97c0 1.691.615 2.727 1.293 3.632.316.42.765.957 1.069 1.429.332.517.626 1.144.626 1.91 0 1.625-.768 2.714-1.816 3.47-.97.701-2.242 1.156-3.304 1.57-1.136.44-2.095.855-2.786 1.455-.63.55-1.056 1.273-1.056 2.466 0 1.016.68 1.876 2.287 2.579 1.594.698 3.822 1.096 6.232 1.277a1 1 0 0 1-.15 1.995c-2.487-.187-4.98-.607-6.884-1.44-1.892-.828-3.485-2.21-3.485-4.411 0-1.794.694-3.061 1.744-3.975.99-.861 2.27-1.382 3.374-1.811 1.178-.459 2.147-.813 2.857-1.325.632-.457.986-.987.987-1.85 0-.23-.082-.475-.309-.83-.257-.398-.554-.734-.985-1.309-.815-1.086-1.694-2.54-1.694-4.832 0-4.535 3.435-7.97 7.97-7.97Z"></path><path fill="currentColor" d="M16.918 24.752a1 1 0 0 1 1.009.99c.01 1.126.072 1.52.207 1.784.184.362.48.657.841.842.264.134.66.198 1.784.208a1 1 0 0 1-.017 2c-1.053-.01-1.926-.045-2.674-.426a3.93 3.93 0 0 1-1.716-1.716c-.381-.748-.416-1.62-.425-2.674a1 1 0 0 1 .99-1.009Zm12.167 0a1 1 0 0 1 .99 1.008c-.008 1.054-.044 1.926-.425 2.674a3.93 3.93 0 0 1-1.716 1.716c-.748.381-1.62.417-2.674.426a1 1 0 1 1-.018-2c1.127-.01 1.521-.074 1.785-.208.362-.185.657-.48.842-.842.134-.264.197-.658.207-1.783a1 1 0 0 1 1.009-.991M26.15 22.5a1 1 0 0 1 0 2h-6.3a1 1 0 0 1 0-2zm-5.41-6.075a1 1 0 0 1 .018 2c-1.125.01-1.52.074-1.784.208-.362.185-.657.48-.841.842-.14.274-.2.682-.209 1.873a1 1 0 0 1-2-.014c.008-1.1.037-2 .427-2.767a3.93 3.93 0 0 1 1.716-1.716c.748-.381 1.62-.417 2.674-.426Zm4.52 0c1.053.01 1.925.045 2.673.426.739.377 1.34.977 1.716 1.716.381.748.417 1.62.426 2.674a1 1 0 0 1-2 .017c-.01-1.125-.073-1.52-.207-1.783a1.93 1.93 0 0 0-.842-.842c-.264-.134-.658-.198-1.784-.208a1 1 0 0 1 .018-2"></path></svg>