<svg xmlns="http://www.w3.org/2000/svg" viewBox="0 0 32 32"><g fill="currentColor" fill-rule="evenodd"><path fill-opacity="0.133" fill-rule="nonzero" d="M9 9a7 7 0 0 1 14 0s-1 2-7 2-7-2-7-2m15.875 7.375a1.945 1.945 0 1 1 2.75 2.75l-.952.952-5.353 5.353a1.945 1.945 0 0 1-2.75-2.75l5.353-5.353z"></path><path d="M16 1c-4.552 0-8 3.448-8 8 0 2.3.882 3.76 1.7 4.85.162.216.306.399.435.564.216.275.394.5.555.752.229.356.31.602.31.834 0 .87-.356 1.402-.992 1.861-.656.474-1.531.813-2.588 1.222l-.282.11c-1.11.431-2.395.953-3.388 1.818C2.697 21.928 2 23.2 2 25c0 1.336.6 2.409 1.529 3.221.901.789 2.116 1.341 3.434 1.737C9.603 30.75 12.967 31 16 31a1 1 0 1 0 0-2c-2.967 0-6.102-.25-8.463-.958-1.182-.354-2.092-.802-2.691-1.326C4.274 26.216 4 25.664 4 25c0-1.2.428-1.928 1.063-2.48.694-.604 1.658-1.02 2.8-1.463l.316-.122c.996-.384 2.121-.818 3-1.452C12.231 18.723 13 17.63 13 16c0-.768-.294-1.397-.628-1.916a15 15 0 0 0-.744-1.01q-.178-.224-.328-.424C10.618 11.74 10 10.7 10 9c0-3.448 2.552-6 6-6s6 2.552 6 6c0 1.083-.251 1.886-.589 2.543a1 1 0 1 0 1.78.914C23.66 11.54 24 10.424 24 9c0-4.552-3.448-8-8-8m12.332 15.668a2.945 2.945 0 0 0-4.164 0l-.952.952-5.354 5.353a2.944 2.944 0 1 0 4.165 4.165l5.353-5.354.952-.952a2.945 2.945 0 0 0 0-4.164M19.945 26a.945.945 0 0 1-.668-1.612l4.646-4.647 1.336 1.336-4.647 4.646a.94.94 0 0 1-.667.277m6.728-6.337-1.336-1.336.245-.245a.945.945 0 1 1 1.336 1.336zM25.5 26a1 1 0 1 0 0 2h3a1 1 0 1 0 0-2z"></path></g></svg>