<svg xmlns="http://www.w3.org/2000/svg" viewBox="0 0 32 32"><path fill="currentColor" fill-opacity="0.133" d="M16 1c3.834 0 6.993 5.754 7.442 13.18a8.251 8.251 0 0 0-4.485 15.605C18.049 30.566 17.051 31 16 31c-4.142 0-7.5-6.716-7.5-15S11.858 1 16 1m3.679 26.041-.102-.064zm-2.399-3.297q-.02-.075-.036-.152l.035.152zm-.169-1.355q0 .137.006.274zm.066-.85a6 6 0 0 0-.037.288l-.022.28q.015-.288.059-.568m.137-.634.04-.14zm.08-.258.038-.113-.038.114zm.307-.737.053-.103zm.255-.448.07-.112zm2.296-2.043.135-.06zm.252-.112q.056-.023.113-.044-.057.02-.113.044m.494-.177.158-.045zm.786-.18.113-.014zm.826-.061a5 5 0 0 0-.443.02l.169-.014z"></path><path d="M16 1c8.284 0 15 6.716 15 15 0 1.354-.181 2.665-.518 3.913a8.2 8.2 0 0 0-1.53-2.802l.01-.111h-.107a8.3 8.3 0 0 0-2.574-2h2.68c-.397-5.229-3.888-9.593-8.646-11.267 1.691 2.386 2.867 6.134 3.127 10.448a8.3 8.3 0 0 0-2.002.04c-.2-3.159-.92-5.92-1.925-7.933C18.264 3.786 16.905 3 16 3s-2.264.786-3.515 3.288C11.397 8.464 10.642 11.516 10.52 15h8.421a8.3 8.3 0 0 0-2.574 2H10.52c.123 3.484.878 6.536 1.966 8.712 1.173 2.346 2.44 3.183 3.34 3.278L16 29c.343 0 .75-.114 1.193-.39a8.2 8.2 0 0 0 3.216 1.73c-1.394.428-2.874.66-4.409.66-8.284 0-15-6.716-15-15S7.716 1 16 1M3.038 17c.398 5.229 3.889 9.592 8.647 11.266C9.887 25.73 8.672 21.656 8.519 17zm19.572-.111a5 5 0 0 0-.443.02l.169-.014zM11.684 3.733C6.926 5.407 3.435 9.771 3.038 15h5.48c.154-4.656 1.369-8.731 3.167-11.267z"></path><path stroke="currentColor" stroke-linecap="round" stroke-linejoin="round" stroke-width="2" d="m29.61 29.39-3-3m1.5-4a5.5 5.5 0 1 1-10.999 0 5.5 5.5 0 0 1 11 0z"></path></svg>