<svg xmlns="http://www.w3.org/2000/svg" fill="none" viewBox="0 0 398 151"><g clip-path="url(#Error429Light_svg__a)"><path fill="#fff" d="M314.375 150.768c-24.41 0-41.007-3.426-52.136-5.809l-1.711 4.436H139.034l-.021-.06v.06H87.669l-8.029-10.987H27.004L0 113.553V69.325L76.004 1.556h51.799l8.106 27.886c3.662-8.457 9.509-15.087 17.505-19.82C164.659 2.968 179.996 0 203.141 0c21.942 0 37.145 2.565 47.846 8.073.734.378 1.463.778 2.166 1.189a16 16 0 0 1 .523.322l.064.041a40 40 0 0 1 1.48.927c.192.128.37.254.547.383l.172.121c.428.295.853.592 1.261.9a17 17 0 0 1 .518.412l.136.109c.364.285.776.609 1.213.984q.25.216.487.439l.105.096c.35.313.747.668 1.167 1.079.159.156.307.31.453.466l.05.053c.345.351.733.747 1.143 1.206a14 14 0 0 1 .404.476l.039.047a34 34 0 0 1 1.078 1.303q.188.244.364.493l.205.276c3.036-3.589 6.769-6.702 11.169-9.305l.289-.167a51 51 0 0 1 1.881-1.046l.636-.33a56 56 0 0 1 1.662-.817l.649-.302a60 60 0 0 1 1.916-.833l.462-.192 1.233-.486.149-.056c.77-.293 1.622-.597 2.495-.89l.269-.09a75 75 0 0 1 2.578-.803l.119-.035a86 86 0 0 1 6.883-1.682l.013-.004.501-.099a102 102 0 0 1 3.031-.548l.145-.024 3.1-.464.152-.021 1.537-.196.788-.09 2.233-.236 1.278-.116 1.611-.13 1.739-.12.935-.057 2.447-.117.759-.029 2.677-.075.505-.008 2.99-.027c24.592 0 42.697 5.187 55.348 15.856 12.765 10.765 19.238 26.754 19.238 47.523l-.018 2.082-.023.896-.031 1.167-.045 1.057-.045.97-.042.698-.02.326-.064.98-.062.787-.013.168-.086 1.014-.096.98-.102.972-.117.985-.117.934-.138.991-.133.899-.158.993-.15.875-.179.987-.166.854-.203.991-.182.831-.222.972-.221.901-.223.882-.187.692-.061.219-.229.824-.199.667-.091.303-.232.761-.207.631-.138.421-.211.633-.276.772-.152.423-.179.493-.626 1.603-.225.535-.459 1.084-.262.579-.462 1.007-.216.445-.102.209-.451.91-.302.577-.509.957-.31.553-.547.954-.315.526-.58.943-.327.511-.613.928-.33.483-.657.928-.331.453-.689.91-.337.435-.729.9-.359.431-.746.861-.349.395-.786.849-.384.407-.787.795-.394.393-20.294 20.162c-10.532 10.382-25.702 15.634-45.108 15.634z"></path><g fill="#000"><path fill-opacity="0.2" d="M326.468 39.125c-16.933 0-23.529 3.877-23.529 13.827 0 9.727 6.596 13.516 23.529 13.516 17.152 0 23.529-3.663 23.529-13.516 0-9.95-6.597-13.827-23.529-13.827m47.115-17.153C362.435 12.57 346.018 8 323.392 8l-2.854.026-.482.008-2.552.071-.718.027-2.327.111-.879.054-1.648.113-1.508.122-1.207.11-2.088.22-.741.085-1.454.185-.121.017-2.836.424-.175.029-2.792.505a79 79 0 0 0-6.737 1.626l-.081.024a67 67 0 0 0-2.325.724l-.217.072a61 61 0 0 0-2.237.799l-.094.035-1.093.431-.394.164a51 51 0 0 0-1.671.727l-.553.257a49 49 0 0 0-1.425.7l-.543.282a43 43 0 0 0-1.592.886l-.244.14c-6.21 3.674-10.717 8.471-13.499 14.378l-.022.045q-.314.674-.6 1.367l-.116.28a33 33 0 0 0-.463 1.227l-.168.48q-.187.552-.357 1.115l-.187.644-.16.549-.033.115-.071.259-.035.126-.068.242-.142.508-.062.225-.036.125-.065.236-.035.124-.058.209c-.047-.438-.112-.863-.172-1.291l-.067-.498a36 36 0 0 0-.273-1.531l-.088-.468a34 34 0 0 0-.351-1.48c-.039-.147-.071-.299-.11-.445a31 31 0 0 0-.429-1.42l-.134-.43a29 29 0 0 0-.503-1.356l-.159-.419a30 30 0 0 0-.579-1.294l-.186-.406a27 27 0 0 0-.649-1.227c-.074-.132-.141-.269-.216-.4a27 27 0 0 0-.718-1.157l-.249-.396c-.25-.371-.516-.73-.783-1.088l-.286-.392c-.271-.349-.56-.685-.848-1.022l-.323-.385c-.29-.325-.598-.638-.905-.95-.125-.127-.241-.26-.369-.385-.309-.303-.636-.593-.961-.884-.14-.125-.272-.256-.415-.379-.329-.282-.676-.553-1.02-.824l-.458-.368c-.353-.266-.723-.52-1.092-.775l-.489-.346c-.396-.263-.811-.514-1.225-.765l-.458-.285a38 38 0 0 0-1.787-.981C237.801 10.283 223.76 8 203.141 8c-21.631 0-35.711 2.624-45.653 8.508-12.224 7.234-18.166 19.614-18.166 37.845v2l6.431 25.619c-.092.098-.176.2-.266.298a31 31 0 0 0-.731.818l-.229.272a31 31 0 0 0-.877 1.087l-.053.068a30 30 0 0 0-1.788 2.604l-4.634-15.314h-6.163V41.259l-9.215-31.703H79.053L8 72.91v37.133l22.125 20.365h53.578l8.029 10.987h39.28v-10.987h9.678l3.963 10.987h110.386l6.45-16.721v11.943l1.581.339c10.798 2.315 27.118 5.812 51.305 5.812 17.23 0 30.513-4.482 39.47-13.31l20.252-20.12q.043-.041.085-.084l.355-.354.659-.666.324-.344.656-.707.306-.347.638-.736.298-.359.61-.754.293-.376.583-.77.286-.392.554-.784.283-.413.524-.794.277-.433.496-.807.272-.453.468-.817.266-.474.442-.83.258-.492.417-.845.248-.508.399-.873.231-.509.399-.94.199-.474.545-1.396.226-.625.309-.862.249-.753.244-.744.245-.804.216-.723.233-.838.195-.721.217-.859.18-.733.199-.874.165-.75.181-.887.15-.769.162-.896.137-.796.143-.899.123-.826.125-.901.108-.858.106-.9.094-.896.088-.894.079-.94.07-.881.065-.998.051-.853.049-1.082.034-.803.034-1.25.017-.664.017-1.949c0-18.301-5.516-32.232-16.396-41.407m-240.408 84.071h-15.378v12.45H81.815v-12.45H12V74.702l68.577-61.146h37.22v62.25h15.378zm125.171-17.787v30.237H141.784v-16.674c0-10.428 5.811-18.672 17.767-25.204 10.685-5.837 24.317-9.331 36.344-12.413 16.259-4.167 28.007-7.178 28.007-14.518 0-7.101-6.947-7.447-19.224-7.447-13.349 0-24.057 0-25.261 10.116h-36.07c.395-15.796 5.565-26.122 16.179-32.403 9.289-5.498 22.741-7.95 43.615-7.95 19.958 0 33.417 2.143 42.354 6.743 9.817 5.053 14.389 13.154 14.389 25.495 0 9.472-4.071 16.619-12.445 21.849-7.538 4.707-17.407 7.235-26.114 9.464-9.903 2.536-18.456 4.726-21.565 9.635l-1.945 3.07zm111.149 19.861c-9.273 7.918-22.611 11.933-39.644 11.933-25.805 0-43.611-3.58-55.667-6.154V86.818l2.518.498c13.931 2.757 28.334 5.609 46.383 5.609 13.488 0 23.064-3.108 25.954-18.278l.909-4.772-4.005 2.748c-7.593 5.209-18.289 7.742-32.7 7.742-13.87 0-25.442-2.843-33.468-8.221-8.506-5.701-12.819-13.99-12.819-24.639 0-11.936 4.593-20.627 14.04-26.572C290.415 15.005 304.679 12 323.392 12c21.342 0 37.361 4.384 47.612 13.029 10.076 8.498 14.975 21.042 14.975 38.35 0 20.348-5.546 35.4-16.484 44.738M81.815 75.806V41.465L41.471 75.806h40.343z"></path><path fill-opacity="0.05" d="M117.797 13.556h-37.22L12 74.702v31.341h69.815v12.45h35.982v-12.45h15.378V75.806h-15.378zm-35.982 62.25H41.471l40.343-34.341v34.341zm117.945 9.38-1.945 3.07h60.531v30.237H141.784v-16.674c0-10.428 5.811-18.672 17.767-25.204 10.685-5.837 24.317-9.331 36.344-12.413 16.259-4.167 28.007-7.178 28.007-14.518 0-7.101-6.947-7.447-19.224-7.447-13.349 0-24.057 0-25.261 10.116h-36.07c.395-15.796 5.565-26.122 16.179-32.403 9.289-5.498 22.741-7.95 43.615-7.95 19.958 0 33.417 2.143 42.354 6.743 9.817 5.053 14.389 13.154 14.389 25.495 0 9.472-4.071 16.619-12.445 21.849-7.538 4.707-17.407 7.235-26.114 9.464-9.903 2.536-18.456 4.726-21.565 9.635M371.004 25.03C360.753 16.384 344.734 12 323.392 12c-18.713 0-32.977 3.005-42.396 8.933-9.447 5.945-14.04 14.637-14.04 26.573 0 10.649 4.313 18.939 12.819 24.639 8.026 5.378 19.598 8.221 33.468 8.221 14.411 0 25.107-2.532 32.7-7.742l4.005-2.748-.909 4.772c-2.89 15.17-12.466 18.278-25.954 18.278-18.049 0-32.452-2.852-46.383-5.609l-2.518-.498v27.078c12.056 2.574 29.862 6.154 55.667 6.154 17.033 0 30.371-4.015 39.644-11.933 10.938-9.338 16.484-24.39 16.484-44.738 0-17.308-4.899-29.852-14.975-38.35m-44.536 41.439c-16.933 0-23.529-3.79-23.529-13.516 0-9.95 6.596-13.827 23.529-13.827s23.529 3.877 23.529 13.827c0 9.853-6.377 13.516-23.529 13.516"></path></g></g><defs><clipPath id="Error429Light_svg__a"><path fill="#fff" d="M0 0h397.979v150.768H0z"></path></clipPath></defs></svg>