<svg xmlns="http://www.w3.org/2000/svg" fill="none" viewBox="0 0 234 209"><path fill="#3a3a3a" d="M203.386 208.217a16 16 0 0 1-2.764-.235l-68.484-11.888c-5.425-.942-10.561-4.914-14.469-10.998a95 95 0 0 1-15.248 2.614l-.42.039-1.138.098a97 97 0 0 1-6.943.252c-22.495 0-44.293-8.137-61.38-22.911-19.002-16.43-30.468-39.277-32.287-64.332s6.229-49.317 22.659-68.32S62.188 2.068 87.243.249A96 96 0 0 1 94.107 0c23.684 0 46.351 8.908 63.825 25.084 16.272 15.063 26.588 35.118 29.393 56.93l.242.041c8.859 1.538 15.999 7.497 19.098 15.939l25.3 68.941c2.252 6.14 2.04 12.75-.593 18.648-4.117 10.768-16.518 22.635-27.986 22.635z"></path><g fill="#000"><path fill-opacity="0.16" d="M212.047 192.044c-3.051 2.541-6.266 4.173-8.661 4.173q-.38 0-.713-.058l-68.482-11.888c-2.107-.366-5.041-2.949-7.418-7.349a16.9 16.9 0 0 0 6.598 2.649l72.354 12.56a17 17 0 0 0 2.963.257 16.8 16.8 0 0 0 3.359-.344"></path><path fill-opacity="0.05" d="M120.33 94.146 68.062 97.94c3.835 47.818 19.484 78.836 31.928 77.939 12.452-.904 23.448-33.866 20.34-81.732zm-3.288 24.239a7.13 7.13 0 0 1-4.68 5.478l-.052.019c-2.661.941-5.612.267-7.519-1.717a11.15 11.15 0 0 0-8.886-3.388 11.22 11.22 0 0 0-7.991 4.221 7.35 7.35 0 0 1-5.757 2.82 7 7 0 0 1-2.304-.386 7.19 7.19 0 0 1-4.649-5.079 7.1 7.1 0 0 1 1.69-6.586 27.257 27.257 0 0 1 18.02-8.634 27.26 27.26 0 0 1 14.853 3.15 27.5 27.5 0 0 1 4.895 3.346c1.964 1.682 2.853 4.208 2.379 6.756zM71.79 36.716c3.877-15.098 9.827-24.027 16.322-24.498a7 7 0 0 1 .532-.019c8.83 0 19.137 15.727 25.682 41.892l-4.461-3.857a5.36 5.36 0 0 0-7.55.548l-1.938 2.241a5.32 5.32 0 0 0-1.29 3.889 5.32 5.32 0 0 0 1.838 3.662l7.203 6.228-6.228 7.203a5.36 5.36 0 0 0 .548 7.551l2.241 1.937a5.33 5.33 0 0 0 3.497 1.302 5.34 5.34 0 0 0 4.053-1.85l6.228-7.203.002.001a249 249 0 0 1 1.571 14.413L67.772 93.95a247 247 0 0 1-.515-14.481l7.192 6.219A5.36 5.36 0 0 0 82 85.14l1.938-2.241a5.31 5.31 0 0 0 1.29-3.889 5.32 5.32 0 0 0-1.838-3.662l-7.203-6.228 6.228-7.203c.936-1.082 1.394-2.463 1.29-3.889s-.756-2.727-1.838-3.662l-2.241-1.938a5.36 5.36 0 0 0-7.551.548l-3.821 4.419c.758-7.497 1.94-14.467 3.535-20.679zm-.691 136.141c-11.185-3.252-21.637-8.901-30.711-16.746-16.072-13.898-25.965-33.056-27.998-54.131l18.351-1.332c1.971 22.04 9.964 42.261 22.618 57.125 5.4 6.343 11.384 11.403 17.74 15.084m46.029-157.546c31.275 9.204 55.281 36.676 58.585 70.804l-18.352 1.332c-1.971-22.039-9.964-42.261-22.618-57.125-5.364-6.302-11.305-11.337-17.615-15.011M30.452 96.659 12.1 97.991c-1.03-21.147 5.991-41.533 19.888-57.606 7.848-9.076 17.376-16.176 27.976-21.008-5.76 4.56-10.953 10.432-15.381 17.49C34.209 53.402 29.22 74.566 30.452 96.659m47.036-82.334c-3.865 4.663-7.131 11.894-9.571 21.397-1.763 6.863-3.035 14.615-3.801 22.96l-5.471-4.73a5.36 5.36 0 0 0-7.55.548l-1.938 2.241a5.36 5.36 0 0 0 .549 7.551l7.203 6.228-6.229 7.203a5.36 5.36 0 0 0 .548 7.551l2.241 1.938a5.3 5.3 0 0 0 3.493 1.304 6 6 0 0 0 .396-.014 5.32 5.32 0 0 0 3.662-1.838l2.308-2.669c.081 3.377.233 6.797.456 10.246l-29.342 2.13c-1.173-21.248 3.603-41.553 13.531-57.376 7.784-12.41 18.022-20.895 29.514-24.67zm11.685 161.001c-11.916-2.077-23.274-8.993-32.768-20.146-12.108-14.223-19.766-33.627-21.674-54.821l29.342-2.13c1.755 21.843 6.188 42.128 12.54 57.308 3.787 9.051 8.062 15.734 12.56 19.789m68.478-83.889 18.351-1.332.045 1.208a16.9 16.9 0 0 0-5.692 4.437l-13.347 15.993c.802-6.604 1.027-13.41.643-20.307zm-34.35 60.694c-2.694 3.227-4.043 7.182-3.934 11.203-.127 1.942.058 4.063.5 6.224a47 47 0 0 1-9.252 4.213c3.865-4.662 7.131-11.894 9.571-21.396 4.094-15.939 5.55-36.651 4.133-58.519l29.342-2.13c.492 8.9-.061 17.632-1.598 25.942zM98.927 12.767c11.918 2.076 23.275 8.995 32.77 20.148 12.109 14.224 19.767 33.627 21.675 54.821l-29.342 2.13a253 253 0 0 0-1.028-10.204l2.669 2.307c1.081.935 2.462 1.391 3.888 1.29s2.727-.756 3.662-1.838l1.938-2.242a5.36 5.36 0 0 0-.548-7.55l-7.203-6.228 6.228-7.203a5.36 5.36 0 0 0-.548-7.55l-2.241-1.937a5.32 5.32 0 0 0-3.889-1.29 5.3 5.3 0 0 0-3.661 1.838l-4.731 5.471c-1.963-8.147-4.341-15.634-7.076-22.171-3.788-9.052-8.064-15.736-12.563-19.791zM221.22 172.891c-.13-.612-.3-1.221-.521-1.823l-4.848-13.212-20.451-55.728c-1.604-4.37-5.3-7.454-9.886-8.251a13 13 0 0 0-2.26-.196 12.8 12.8 0 0 0-5.16 1.093 12.7 12.7 0 0 0-2.014 1.121 13 13 0 0 0-2.654 2.417l-17.636 21.133-5.729 6.863-14.668 17.577-9.021 10.808c-.41.491-.775 1.007-1.103 1.539a12.66 12.66 0 0 0-1.894 7.081c.038 1.177.244 2.36.615 3.523.058.181.114.363.18.543a13 13 0 0 0 1.251 2.524q.183.292.38.57.398.557.851 1.063a12.6 12.6 0 0 0 1.6 1.51 12.86 12.86 0 0 0 5.803 2.583l72.354 12.56c4.585.795 9.105-.862 12.088-4.435a13 13 0 0 0 1.766-2.755 12.66 12.66 0 0 0 .957-8.109zm-7.967 6.487c-1.778 2.129-4.319 3.306-7.015 3.306a9.4 9.4 0 0 1-1.614-.14l-66.986-11.628a9.3 9.3 0 0 1-2.886-1.007 9 9 0 0 1-1.829-1.328 9 9 0 0 1-1.313-1.546 9.3 9.3 0 0 1-1.028-2.008 9.3 9.3 0 0 1-.569-3.287 9.1 9.1 0 0 1 2.141-5.769l12.337-14.782 1.649-1.976 6.583-7.887 4.406-5.279 10.987-13.165 7.394-8.859.207-.249a9.3 9.3 0 0 1 2.012-1.799 9 9 0 0 1 2.106-1.031 9.2 9.2 0 0 1 4.51-.337c3.274.569 5.913 2.77 7.057 5.89l4.086 11.135 5.909 16.1 5.907 16.096 7.52 20.494c1.145 3.12.558 6.505-1.571 9.056"></path></g><path fill="#fff" fill-opacity="0.05" d="m80.913 80.282-1.937 2.241a1.354 1.354 0 0 1-1.909.138l-9.777-8.454-.451-.39-3.582 4.142-5.264 6.087c-.236.273-.564.438-.925.464s-.709-.09-.983-.326l-2.241-1.938a1.356 1.356 0 0 1-.139-1.909l8.844-10.229-10.228-8.844a1.354 1.354 0 0 1-.139-1.908l1.938-2.241c.237-.273.566-.438.926-.465l.1-.004c.324 0 .635.115.883.33l7.695 6.653 2.534 2.191 1.438-1.663 7.406-8.566a1.357 1.357 0 0 1 1.909-.139l2.241 1.938a1.34 1.34 0 0 1 .464.925c.026.361-.089.71-.326.983L70.546 69.53l10.229 8.844c.273.236.438.565.465.926s-.09.71-.326.983zm40.853-14.471 8.845-10.229a1.356 1.356 0 0 0-.139-1.909l-2.241-1.937a1.35 1.35 0 0 0-1.909.138l-6.653 7.695-2.191 2.534-1.629-1.409-8.6-7.435a1.35 1.35 0 0 0-.884-.329 1.35 1.35 0 0 0-1.025.468l-1.937 2.241a1.34 1.34 0 0 0-.327.983 1.35 1.35 0 0 0 .465.926l10.229 8.844-8.845 10.228a1.34 1.34 0 0 0-.325.983c.026.361.191.689.464.926l2.241 1.937c.564.489 1.42.427 1.909-.138l8.471-9.797.373-.432 4.142 3.581 6.087 5.263a1.35 1.35 0 0 0 .983.326c.36-.026.689-.191.925-.464l1.938-2.241a1.354 1.354 0 0 0-.138-1.908zm-9.705 48.855a23.5 23.5 0 0 0-4.18-2.857 23.27 23.27 0 0 0-12.677-2.688 23.26 23.26 0 0 0-12.122 4.465 23.4 23.4 0 0 0-3.261 2.905 3.08 3.08 0 0 0-.737 2.893 3.17 3.17 0 0 0 2.072 2.266c1.282.442 2.735-.011 3.615-1.128a15.23 15.23 0 0 1 10.844-5.736c4.531-.329 8.929 1.35 12.06 4.606.821.854 2.116 1.135 3.303.717l.051-.018a3.18 3.18 0 0 0 2.081-2.438 3.14 3.14 0 0 0-1.049-2.987m98.121 62.148a5.14 5.14 0 0 1-4.873 1.788l-65.84-11.429-1.146-.199a5.2 5.2 0 0 1-1.548-.536 5.1 5.1 0 0 1-1.618-1.344 5.2 5.2 0 0 1-.819-1.446c-.054-.147-.091-.296-.132-.444a5.13 5.13 0 0 1 1.019-4.671l12.639-15.144 23.175-27.767 3.136-3.758 2.653-3.179.722-.865 1.239-1.484a5 5 0 0 1 .524-.536 5 5 0 0 1 .733-.559 5.1 5.1 0 0 1 2.704-.773q.452 0 .911.08a5.13 5.13 0 0 1 3.152 1.861c.346.433.634.921.834 1.465l.67 1.826 3.498 9.531L211.07 171.7a5.14 5.14 0 0 1-.888 5.115zm-35.813-21.327a5.99 5.99 0 1 0-2.049 11.805 5.99 5.99 0 1 0 2.049-11.805m7.049-35.353-1.77-.308a5.07 5.07 0 0 0-3.715.798 5.07 5.07 0 0 0-2.173 3.349l-.763 4.39-2.526 14.552a5.093 5.093 0 0 0 4.147 5.888l1.77.307a5.09 5.09 0 0 0 5.888-4.146l3.288-18.942a5.09 5.09 0 0 0-4.146-5.888"></path><path fill="#000" fill-opacity="0.4" d="m112.31 123.882.052-.019a7.13 7.13 0 0 0 4.68-5.478c.474-2.548-.415-5.074-2.379-6.756a27.5 27.5 0 0 0-4.895-3.346 27.26 27.26 0 0 0-14.853-3.15 27.26 27.26 0 0 0-18.02 8.634 7.1 7.1 0 0 0-1.69 6.586 7.19 7.19 0 0 0 4.649 5.079 7 7 0 0 0 2.304.386 7.35 7.35 0 0 0 5.757-2.82 11.22 11.22 0 0 1 7.991-4.221 11.15 11.15 0 0 1 8.886 3.388c1.907 1.984 4.858 2.658 7.519 1.717zm-31.154-2.231a3.17 3.17 0 0 1-2.072-2.266 3.08 3.08 0 0 1 .737-2.893 23.4 23.4 0 0 1 3.261-2.905 23.26 23.26 0 0 1 12.122-4.465 23.27 23.27 0 0 1 12.677 2.688 23.5 23.5 0 0 1 4.18 2.857 3.14 3.14 0 0 1 1.049 2.987 3.18 3.18 0 0 1-2.081 2.438l-.051.018c-1.187.418-2.482.137-3.303-.717-3.131-3.256-7.529-4.935-12.06-4.606a15.23 15.23 0 0 0-10.844 5.736c-.88 1.117-2.333 1.57-3.615 1.128m143.298 48.039-25.3-68.94a16.7 16.7 0 0 0-12.956-10.814 17 17 0 0 0-6.196.065l-.131-2.182C176.436 40.497 135.14 4.796 87.822 8.228 64.899 9.892 43.995 20.383 28.963 37.769S6.568 77.354 8.232 100.277s12.154 43.826 29.54 58.859c15.773 13.638 35.505 20.963 56.148 20.963a88 88 0 0 0 6.36-.231c.479-.035.954-.084 1.431-.127a86.5 86.5 0 0 0 19.999-4.182c2.604 6.332 7.041 11.828 11.797 12.653l68.482 11.888q.681.118 1.397.117c7.454 0 17.485-9.282 20.59-17.699 1.842-3.985 2.051-8.543.478-12.828m-21.781 26.469-68.482-11.888c-2.107-.366-5.041-2.949-7.418-7.349a16.9 16.9 0 0 0 6.598 2.649l72.354 12.56a17 17 0 0 0 2.963.257 16.8 16.8 0 0 0 3.359-.344c-3.051 2.541-6.266 4.173-8.661 4.173q-.38 0-.713-.058M40.388 156.111c-16.072-13.898-25.965-33.056-27.998-54.131l18.351-1.332c1.971 22.04 9.964 42.261 22.618 57.125 5.4 6.343 11.384 11.403 17.74 15.084-11.185-3.252-21.637-8.901-30.711-16.746m-8.4-115.726c7.848-9.076 17.376-16.176 27.976-21.008-5.76 4.56-10.953 10.432-15.381 17.49C34.209 53.402 29.22 74.566 30.452 96.659L12.1 97.991c-1.03-21.147 5.991-41.533 19.888-57.606m143.725 45.731-18.352 1.332c-1.971-22.039-9.964-42.261-22.618-57.125-5.364-6.302-11.305-11.337-17.615-15.011 31.275 9.204 55.281 36.676 58.585 70.804m7.541 7.566q1.122-.001 2.26.196c4.586.796 8.282 3.88 9.886 8.251l20.451 55.728 4.848 13.212c.221.602.391 1.211.521 1.823a12.66 12.66 0 0 1-.957 8.109 13 13 0 0 1-1.766 2.755c-2.983 3.573-7.503 5.23-12.088 4.435l-72.354-12.56a12.86 12.86 0 0 1-5.803-2.583 12.6 12.6 0 0 1-1.6-1.51 13 13 0 0 1-.851-1.063 13 13 0 0 1-.38-.57 13 13 0 0 1-1.251-2.524c-.066-.18-.122-.362-.18-.543a13 13 0 0 1-.615-3.523 12.66 12.66 0 0 1 1.894-7.081c.328-.532.693-1.048 1.103-1.539l9.021-10.808 14.668-17.577 5.729-6.863 17.636-21.133a13 13 0 0 1 2.654-2.417 12.7 12.7 0 0 1 2.014-1.121q.973-.432 2.006-.695a12.8 12.8 0 0 1 3.154-.398zm-58.935.175 29.342-2.13c.492 8.9-.061 17.632-1.598 25.942l-28.762 34.463c-2.694 3.227-4.043 7.182-3.934 11.203-.127 1.942.058 4.063.5 6.224a47 47 0 0 1-9.252 4.213c3.865-4.662 7.131-11.894 9.571-21.396 4.094-15.939 5.55-36.651 4.133-58.519M47.972 38.993C55.757 26.585 65.995 18.1 77.487 14.325c-3.865 4.663-7.131 11.894-9.571 21.397-1.763 6.863-3.035 14.615-3.801 22.96l-5.471-4.73a5.36 5.36 0 0 0-7.55.548l-1.938 2.241a5.36 5.36 0 0 0 .549 7.551l7.203 6.228-6.229 7.203a5.36 5.36 0 0 0 .548 7.551l2.241 1.938a5.3 5.3 0 0 0 3.493 1.304 6 6 0 0 0 .396-.014 5.32 5.32 0 0 0 3.662-1.838l2.308-2.669c.081 3.377.233 6.797.456 10.246l-29.342 2.13c-1.173-21.248 3.603-41.553 13.531-57.376zm19.723 25.166 7.406-8.566a1.357 1.357 0 0 1 1.909-.139l2.241 1.938c.273.236.438.565.464.925s-.089.71-.326.983l-8.843 10.23 10.229 8.844c.273.236.438.565.465.926s-.09.71-.326.983l-1.937 2.241a1.354 1.354 0 0 1-1.909.138l-9.777-8.454-.451-.39-3.582 4.142-5.264 6.087c-.236.273-.564.438-.925.464s-.709-.09-.983-.326l-2.241-1.938a1.356 1.356 0 0 1-.139-1.909l8.844-10.229-10.228-8.844a1.354 1.354 0 0 1-.139-1.908l1.938-2.241a1.35 1.35 0 0 1 .926-.465l.1-.004c.324 0 .635.115.883.33l7.695 6.653 2.534 2.191 1.438-1.663zM64.073 98.23c1.755 21.843 6.188 42.128 12.54 57.308 3.787 9.051 8.062 15.734 12.56 19.789-11.916-2.077-23.274-8.993-32.768-20.146-12.108-14.223-19.766-33.627-21.674-54.821zm3.7-4.279a247 247 0 0 1-.515-14.481l7.192 6.219a5.36 5.36 0 0 0 7.551-.548l1.938-2.241a5.31 5.31 0 0 0 1.29-3.889 5.32 5.32 0 0 0-1.838-3.662l-7.203-6.228 6.228-7.203c.936-1.082 1.394-2.463 1.29-3.889s-.756-2.727-1.838-3.662l-2.241-1.938a5.36 5.36 0 0 0-7.551.548l-3.821 4.419c.758-7.497 1.94-14.467 3.535-20.679 3.877-15.098 9.827-24.027 16.322-24.498a7 7 0 0 1 .532-.019c8.83 0 19.137 15.727 25.682 41.892l-4.461-3.857a5.36 5.36 0 0 0-7.55.548l-1.938 2.241a5.32 5.32 0 0 0-1.29 3.889 5.32 5.32 0 0 0 1.838 3.662l7.203 6.228-6.228 7.203a5.36 5.36 0 0 0 .548 7.551l2.241 1.937a5.33 5.33 0 0 0 3.497 1.302 5.34 5.34 0 0 0 4.053-1.85l6.228-7.203.002.001a249 249 0 0 1 1.571 14.413zm49.913-23.418-8.471 9.797a1.354 1.354 0 0 1-1.909.138l-2.241-1.937a1.35 1.35 0 0 1-.464-.926 1.34 1.34 0 0 1 .325-.983l8.845-10.228-10.229-8.844a1.35 1.35 0 0 1-.465-.926c-.026-.361.09-.71.327-.983l1.937-2.241a1.35 1.35 0 0 1 1.025-.468c.313 0 .629.108.884.329l8.6 7.435 1.629 1.409 2.191-2.534 6.653-7.695a1.352 1.352 0 0 1 1.909-.138l2.241 1.937c.564.488.626 1.345.139 1.909l-8.845 10.229 10.229 8.844c.564.488.626 1.344.138 1.908l-1.938 2.241a1.34 1.34 0 0 1-.925.464 1.35 1.35 0 0 1-.983-.326l-6.087-5.263-4.142-3.581zm5.317 9.13 2.669 2.307c1.081.935 2.462 1.391 3.888 1.29s2.727-.756 3.662-1.838l1.938-2.242a5.36 5.36 0 0 0-.548-7.55l-7.203-6.228 6.228-7.203a5.36 5.36 0 0 0-.548-7.55l-2.241-1.937a5.32 5.32 0 0 0-3.889-1.29 5.3 5.3 0 0 0-3.661 1.838l-4.731 5.471c-1.963-8.147-4.341-15.634-7.076-22.171-3.788-9.052-8.064-15.736-12.563-19.791 11.918 2.076 23.275 8.995 32.77 20.148 12.109 14.224 19.767 33.627 21.675 54.821l-29.342 2.13a253 253 0 0 0-1.028-10.204zm53.045 11.651a16.9 16.9 0 0 0-5.692 4.437l-13.348 15.993a115.3 115.3 0 0 0 .644-20.307l18.351-1.332zM68.062 97.939l52.268-3.794c3.108 47.866-7.888 80.828-20.34 81.732-12.444.897-28.093-30.121-31.928-77.939zm107.655 5.835-.207.249-7.394 8.859-10.987 13.165-4.406 5.279-6.583 7.887-1.649 1.976-12.337 14.782a9.1 9.1 0 0 0-2.141 5.769 9.25 9.25 0 0 0 1.096 4.463q.23.432.501.832a9 9 0 0 0 1.313 1.546 9 9 0 0 0 1.829 1.328 9.3 9.3 0 0 0 2.886 1.007l66.986 11.628a9.4 9.4 0 0 0 1.614.14c2.696 0 5.237-1.177 7.015-3.306 2.129-2.551 2.716-5.936 1.571-9.056l-7.52-20.494-5.907-16.096-5.909-16.1-4.086-11.135c-1.145-3.12-3.783-5.321-7.057-5.89a9.2 9.2 0 0 0-4.51.337 9 9 0 0 0-2.106 1.031 9.3 9.3 0 0 0-2.012 1.799m7.944.775a5.13 5.13 0 0 1 3.152 1.861c.346.433.634.921.834 1.465l.67 1.826 3.498 9.531L211.07 171.7a5.14 5.14 0 0 1-5.761 6.903l-65.84-11.429-1.146-.199a5.2 5.2 0 0 1-1.548-.536 5.1 5.1 0 0 1-1.618-1.344 5.2 5.2 0 0 1-.819-1.446c-.054-.147-.091-.296-.132-.444a5.13 5.13 0 0 1 1.019-4.671l12.639-15.144 23.175-27.767 3.136-3.758 2.653-3.179.722-.865 1.239-1.484a5 5 0 0 1 .524-.536 5 5 0 0 1 .733-.559 5.1 5.1 0 0 1 2.704-.773q.452 0 .911.08m-4.414 57.866a5.99 5.99 0 1 1-11.805-2.049 5.99 5.99 0 1 1 11.805 2.049m.401-42.588 1.77.308a5.09 5.09 0 0 1 4.146 5.888l-3.288 18.942a5.09 5.09 0 0 1-5.888 4.146l-1.77-.307a5.093 5.093 0 0 1-4.147-5.888l2.526-14.551.763-4.391a5.07 5.07 0 0 1 2.173-3.349 5.07 5.07 0 0 1 3.715-.798"></path></svg>