<svg xmlns="http://www.w3.org/2000/svg" fill="none" viewBox="0 0 54 41"><path fill="#3a3a3a" d="M20.39 40.818a20.38 20.38 0 0 1-13.325-4.975A20.29 20.29 0 0 1 .054 21.877 20.41 20.41 0 0 1 17.845.166l.277-.038c.271-.039.542-.075.82-.095.269-.02.536-.023.805-.025L20.453 0c4.898 0 9.631 1.759 13.324 4.952a20.4 20.4 0 0 1 5.071 6.638 5.85 5.85 0 0 1 4.585-1.125 5.84 5.84 0 0 1 4.531 3.778l5.297 14.433a5.79 5.79 0 0 1-.41 4.935c-.497 2.844-3.716 5.92-6.391 5.92a3.7 3.7 0 0 1-.638-.055l-13.653-2.37a20.3 20.3 0 0 1-10.271 3.657q-.483.035-.967.035l-.118.007a9 9 0 0 1-.422.013z"></path><g fill="#000"><path fill-opacity="0.05" d="m6.186 20.679-2.657.193c-.163-5.753 2.594-10.97 6.982-14.159-2.874 3.448-4.55 8.467-4.325 13.966m9.576-11.233c.491.021.962.2 1.335.523l.446.385c.441.381.706.911.749 1.491s-.144 1.143-.525 1.584l-.535.619.619.536c.441.381.706.911.748 1.491s-.144 1.143-.525 1.584l-.385.446a2.18 2.18 0 0 1-1.649.754c-.344 0-.677-.089-.98-.242a52 52 0 0 0 .064 1.414l10.487-.761-.125-1.301c-.321.179-.68.286-1.056.286a2.18 2.18 0 0 1-1.425-.531l-.446-.385c-.441-.381-.706-.91-.748-1.491s.145-1.143.525-1.584l.535-.619-.619-.535a2.183 2.183 0 0 1-.223-3.075l.385-.446a2.17 2.17 0 0 1 1.055-.661c-1.26-3.405-2.823-5.407-4.173-5.407l-.098.003c-1.223.089-2.419 1.925-3.2 4.912a24 24 0 0 0-.234 1.011zm-4.518 24.601c-2.743-3.098-4.476-7.293-4.951-11.872l-2.657.193c.491 4.212 2.49 8.037 5.718 10.828a17 17 0 0 0 3.222 2.177 17 17 0 0 1-1.332-1.327zm4.38-9.247c.079-.063.154-.131.236-.191a9.03 9.03 0 0 1 4.703-1.733 9 9 0 0 1 .659-.024c1.482 0 2.955.369 4.259 1.067.111.06.216.133.325.197a50 50 0 0 0-.087-3.351l-10.486.761a50 50 0 0 0 .392 3.273zm9.461 5.593a3.01 3.01 0 0 1-2.166-.914 2.4 2.4 0 0 0-1.748-.741 3 3 0 0 0-.183.007 2.4 2.4 0 0 0-1.737.916 3.06 3.06 0 0 1-2.233 1.164c.235.721.483 1.413.752 2.05 1.204 2.844 2.673 4.489 3.874 4.398 1.485-.108 2.887-2.709 3.625-6.895-.062.004-.123.016-.186.016zM31.488 7.6a17 17 0 0 0-3.226-2.183 17 17 0 0 1 1.335 1.332c2.743 3.097 4.476 7.293 4.951 11.872l.903-.066 1.481-1.774A16.77 16.77 0 0 0 31.487 7.6zM15.323 30.426a3.03 3.03 0 0 1-1.446-1.893 3 3 0 0 1 .44-2.411 51 51 0 0 1-.581-4.486l-5.947.432c.449 4.251 2.05 8.132 4.578 10.986 1.765 1.993 3.841 3.302 6.026 3.886-.711-.867-1.385-2.018-2.005-3.479a29 29 0 0 1-1.066-3.035zM9.793 10.5a2.18 2.18 0 0 1 3.075-.223l.62.536.536-.619c.025-.029.057-.05.083-.078.128-.716.269-1.411.439-2.059.401-1.532.9-2.771 1.477-3.73-2.596 1.12-4.774 3.321-6.256 6.206zm20.514 6.695a2.18 2.18 0 0 1-3.075.223l-.344-.298a52 52 0 0 1 .219 2.042l5.945-.432c-.282-2.665-1.015-5.181-2.151-7.393a2.16 2.16 0 0 1-.515 1.181l-.535.619.619.536c.441.381.706.91.748 1.491s-.144 1.143-.525 1.584l-.385.446zm-20.057-2.64-.619-.536a2.17 2.17 0 0 1-.742-1.458c-.88 2.402-1.32 5.131-1.207 8.009l5.946-.431a53 53 0 0 1-.075-1.836l-.094.108a2.18 2.18 0 0 1-3.075.223l-.446-.385c-.441-.381-.706-.911-.748-1.491s.144-1.143.525-1.584l.536-.619zm16.965 6.102c.088 1.526.111 3.062.061 4.565a2.99 2.99 0 0 1 .834 2.671 3 3 0 0 1-1.229 1.921c-.397 2.706-1.081 5.044-2.056 6.66 1.805-.777 3.437-2.093 4.791-3.887-.413-.937-.637-1.979-.548-2.833-.052-.11-.105-.218-.148-.334a3.86 3.86 0 0 1 .666-3.839l3.604-4.318c.002-.344-.016-.691-.03-1.038l-5.946.431zM25.487 9.365l.62.536.536-.619a2.18 2.18 0 0 1 1.649-.754c.361 0 .712.096 1.027.264a16 16 0 0 0-.844-1.047c-1.762-1.99-3.827-3.307-6.008-3.893 1.04 1.262 1.938 3.094 2.666 5.269a2 2 0 0 1 .354.246z"></path><path fill-opacity="0.16" d="M48.627 34.499c-.789.983-1.755 1.53-2.197 1.53h-.002l-13.291-2.307-.896-.156c-.012-.002-.03-.013-.044-.018-.134-.047-.341-.211-.571-.494a4 4 0 0 1-.249-.345 5.3 5.3 0 0 1-.529-1.063c-.012-.034-.016-.061-.027-.094a4 4 0 0 0 1.048.353q.022.006.043.01l.752.13.888.154.874.152 12.633 2.193q.343.06.684.06a4 4 0 0 0 .884-.107z"></path></g><path fill="#fff" fill-opacity="0.05" d="m15.595 17.193-.556-.481-1.198-1.036-.292.338-1.224 1.416a.68.68 0 0 1-.515.235.68.68 0 0 1-.445-.166l-.446-.385a.68.68 0 0 1-.07-.959l1.517-1.754-1.754-1.517a.68.68 0 0 1-.07-.959l.385-.446a.68.68 0 0 1 .515-.235c.158 0 .316.054.445.166l1.754 1.517.096-.111 1.42-1.642a.66.66 0 0 1 .318-.193c.065-.02.129-.042.196-.042.158 0 .316.054.445.166l.446.385a.68.68 0 0 1 .07.959l-1.508 1.744-.009.01.008.007 1.746 1.51a.68.68 0 0 1 .07.959l-.385.446a.68.68 0 0 1-.515.235.68.68 0 0 1-.445-.166zm12.14-3.902 1.517-1.754a.68.68 0 0 0-.07-.959l-.446-.385a.68.68 0 0 0-.445-.166.68.68 0 0 0-.515.235l-1.517 1.754-.376-.325-1.378-1.192a.68.68 0 0 0-.445-.166c-.037 0-.071.017-.107.023a.67.67 0 0 0-.408.213l-.385.446a.68.68 0 0 0 .07.959l1.487 1.285.268.231-.179.207-1.338 1.547a.68.68 0 0 0 .07.959l.446.385a.68.68 0 0 0 .959-.07l.305-.352 1.212-1.402.09.078 1.664 1.438a.68.68 0 0 0 .959-.07l.385-.446a.68.68 0 0 0-.07-.959l-1.754-1.517zm-1.98 12.592a7.5 7.5 0 0 0-.982-.64 7.5 7.5 0 0 0-3.552-.89l-.55.02a7.5 7.5 0 0 0-3.922 1.445c-.297.219-.56.474-.82.731-.074.073-.163.132-.234.209-.758.815-.413 2.144.64 2.507.076.026.154.025.231.039.089.016.177.045.265.045a1.59 1.59 0 0 0 1.244-.614 3.92 3.92 0 0 1 2.806-1.483l.292-.011a3.9 3.9 0 0 1 2.827 1.2 1.5 1.5 0 0 0 1.085.453c.141 0 .281-.034.42-.072.036-.01.073-.006.108-.019l.015-.005a1.55 1.55 0 0 0 .497-2.631c-.118-.101-.246-.19-.37-.284m24.347 4.964a2.3 2.3 0 0 1-.312 1.044c-.069.12-.133.243-.224.353s-.196.188-.298.276a2.35 2.35 0 0 1-1.952.55l-11.84-2.055-.836-.145-.839-.146-1.185-.206-.448-.078a2.4 2.4 0 0 1-.974-.421 2.374 2.374 0 0 1-.866-1.114c-.008-.021-.007-.042-.014-.062a2.4 2.4 0 0 1-.111-.921 2.36 2.36 0 0 1 .536-1.377l2.276-2.727 1.653-1.98 1.527-1.83 1.049-1.257.287-.344.37-.443.654-.784 2.035-2.438a2.37 2.37 0 0 1 1.828-.862 2.5 2.5 0 0 1 .42.037 2.37 2.37 0 0 1 1.841 1.535l5.297 14.433c.116.317.144.643.126.964zm-9.471-4.617a1.36 1.36 0 0 0-.465 2.681 1.36 1.36 0 1 0 .465-2.681m2.421-5.988.136-.782a1 1 0 0 0-.009-.346 1.07 1.07 0 0 0-.867-.9l-.559-.097a1.076 1.076 0 0 0-1.245.877l-.04.232-.216 1.242-.518 2.984a1.076 1.076 0 0 0 .877 1.245l.559.097a1.076 1.076 0 0 0 1.245-.877l.638-3.677z"></path><path fill="#000" fill-opacity="0.4" d="m51.384 29.366-5.297-14.433a3.86 3.86 0 0 0-2.992-2.496 3.86 3.86 0 0 0-3.657 1.342l-1.305 1.564a18.3 18.3 0 0 0-5.664-8.877c-3.474-3.003-7.84-4.554-12.402-4.461-.327.007-.652-.001-.98.023-.335.024-.66.081-.99.123-9.629 1.222-16.758 9.787-16.048 19.58a18.3 18.3 0 0 0 6.324 12.6 18.28 18.28 0 0 0 12.019 4.487c.179 0 .36-.014.54-.02q.41 0 .823-.03a18.3 18.3 0 0 0 9.953-3.808c.092.033.184.067.278.083l14.187 2.463a2 2 0 0 0 .289.024c1.83 0 4.403-2.698 4.456-4.6a3.84 3.84 0 0 0 .467-3.565zm-4.953 6.663h-.002l-13.291-2.307-.896-.156c-.012-.002-.03-.013-.044-.018-.134-.047-.341-.211-.571-.494a4 4 0 0 1-.249-.345 5.3 5.3 0 0 1-.529-1.063c-.012-.034-.016-.061-.027-.094a4 4 0 0 0 1.048.353q.021.006.043.01l.752.13.888.154.874.152 12.633 2.193a4 4 0 0 0 .684.06 4 4 0 0 0 .884-.107c-.789.983-1.755 1.53-2.197 1.53zM9.354 33.197c-3.228-2.791-5.227-6.617-5.718-10.828l2.657-.193c.475 4.579 2.208 8.774 4.951 11.872a17 17 0 0 0 1.332 1.327 17 17 0 0 1-3.222-2.177zM31.488 7.6a16.78 16.78 0 0 1 5.445 9.181l-1.481 1.774-.903.066c-.475-4.578-2.208-8.774-4.951-11.872a17 17 0 0 0-1.335-1.332A17 17 0 0 1 31.489 7.6zm11.351 6.315a2.37 2.37 0 0 1 1.841 1.535l5.297 14.433c.116.317.144.643.126.964a2.3 2.3 0 0 1-.312 1.044c-.069.12-.133.243-.224.353s-.196.188-.298.276a2.35 2.35 0 0 1-1.952.55l-11.84-2.055-.836-.145-.839-.146-1.185-.206-.448-.078a2.4 2.4 0 0 1-.974-.421 2.374 2.374 0 0 1-.866-1.114c-.008-.021-.007-.042-.014-.062a2.4 2.4 0 0 1-.111-.921 2.36 2.36 0 0 1 .536-1.377l2.276-2.727 1.653-1.98 1.527-1.83 1.049-1.257.287-.344.37-.443.654-.784 2.035-2.438a2.37 2.37 0 0 1 2.248-.825zm-17.21 14.883-.015.005c-.035.012-.073.009-.108.019a1.6 1.6 0 0 1-.42.072A1.5 1.5 0 0 1 24 28.441a3.9 3.9 0 0 0-2.829-1.202q-.145 0-.292.011a3.92 3.92 0 0 0-2.806 1.483 1.59 1.59 0 0 1-1.243.614c-.088 0-.177-.029-.265-.045-.077-.014-.155-.013-.231-.039-1.052-.363-1.398-1.692-.64-2.507.071-.077.16-.135.234-.209.26-.257.523-.512.82-.731a7.53 7.53 0 0 1 4.472-1.465 7.5 7.5 0 0 1 3.552.89c.347.186.67.406.982.64.124.094.252.183.37.284a1.55 1.55 0 0 1-.497 2.631zm.177-4.681c-.109-.064-.213-.137-.325-.197a9.06 9.06 0 0 0-4.259-1.067 9 9 0 0 0-.659.024 9.03 9.03 0 0 0-4.703 1.733c-.081.06-.156.128-.236.191a50 50 0 0 1-.392-3.273l10.486-.761a50 50 0 0 1 .087 3.351zm-2.337-8.872 1.338-1.547.179-.207-.268-.231-1.487-1.285a.68.68 0 0 1-.07-.959l.385-.446a.67.67 0 0 1 .408-.213c.036-.006.07-.023.107-.023a.68.68 0 0 1 .445.166l1.378 1.192.376.325 1.517-1.754a.68.68 0 0 1 .515-.235.68.68 0 0 1 .445.166l.446.385a.68.68 0 0 1 .07.959l-1.517 1.754 1.754 1.517a.68.68 0 0 1 .069.959l-.385.446a.68.68 0 0 1-.959.07l-1.664-1.438-.09-.078-1.212 1.402-.305.352a.68.68 0 0 1-.959.07l-.446-.385a.68.68 0 0 1-.07-.959zm3.638 3.916a52 52 0 0 0-.219-2.042l.344.298a2.18 2.18 0 0 0 3.075-.223l.385-.446c.381-.44.567-1.003.525-1.584s-.308-1.11-.748-1.491l-.619-.536.535-.619a2.16 2.16 0 0 0 .515-1.181c1.136 2.211 1.869 4.727 2.151 7.393zm1.185-10.634a2.18 2.18 0 0 0-1.649.754l-.535.619-.62-.536a2.2 2.2 0 0 0-.354-.246c-.729-2.175-1.627-4.007-2.666-5.269 2.181.586 4.246 1.904 6.008 3.893.296.334.574.687.844 1.047a2.2 2.2 0 0 0-1.027-.264zM19.294 3.52c1.35 0 2.913 2.002 4.173 5.407a2.17 2.17 0 0 0-1.055.661l-.385.446a2.183 2.183 0 0 0 .223 3.075l.619.535-.535.619c-.381.44-.567 1.003-.525 1.584s.308 1.11.749 1.491l.446.385a2.18 2.18 0 0 0 1.426.531c.376 0 .735-.107 1.056-.286.048.425.087.862.125 1.301l-10.487.761-.064-1.414c.303.153.636.242.98.242a2.18 2.18 0 0 0 1.649-.754l.385-.446c.381-.44.567-1.003.525-1.584s-.308-1.11-.748-1.491l-.619-.536.535-.619c.381-.441.567-1.003.525-1.584s-.308-1.11-.749-1.491l-.446-.385a2.18 2.18 0 0 0-1.335-.523l.234-1.011c.781-2.987 1.978-4.823 3.2-4.912l.098-.003zm-8.445 12.636 1.517-1.754-1.754-1.517a.68.68 0 0 1-.07-.959l.385-.446a.68.68 0 0 1 .515-.235c.158 0 .316.054.445.166l1.754 1.517.096-.111 1.42-1.642a.66.66 0 0 1 .318-.193c.065-.02.129-.042.196-.042.158 0 .316.054.445.166l.446.385a.68.68 0 0 1 .07.959l-1.508 1.744-.009.01.008.007 1.746 1.51a.68.68 0 0 1 .07.959l-.385.446a.68.68 0 0 1-.515.235.68.68 0 0 1-.445-.166l-.556-.481-1.198-1.036-.292.338-1.224 1.416a.68.68 0 0 1-.515.235.68.68 0 0 1-.445-.166l-.446-.385a.68.68 0 0 1-.07-.959zm3.696-8.101c-.17.648-.311 1.343-.439 2.059-.027.028-.058.049-.083.078l-.536.619-.62-.536a2.18 2.18 0 0 0-3.075.223l-.027.032c1.482-2.885 3.661-5.086 6.256-6.206-.577.96-1.076 2.198-1.477 3.73zM9.631 14.02l.619.536-.536.619c-.381.44-.567 1.003-.525 1.584s.308 1.111.748 1.491l.446.385a2.18 2.18 0 0 0 3.075-.223l.093-.108q.021.909.075 1.836l-5.946.431c-.113-2.879.328-5.607 1.207-8.009a2.17 2.17 0 0 0 .742 1.458zm4.105 7.616c.134 1.542.325 3.049.581 4.486a3 3 0 0 0-.44 2.411 3.03 3.03 0 0 0 1.446 1.893c.32 1.086.674 2.109 1.066 3.035.619 1.461 1.294 2.612 2.005 3.479-2.185-.584-4.261-1.893-6.026-3.886C9.84 30.2 8.239 26.319 7.79 22.068zm4.035 11.24a25 25 0 0 1-.752-2.05 3.06 3.06 0 0 0 2.233-1.164 2.4 2.4 0 0 1 1.737-.916 3 3 0 0 1 .183-.007 2.4 2.4 0 0 1 1.748.741 3.01 3.01 0 0 0 2.166.914c.063 0 .123-.012.186-.016-.739 4.186-2.14 6.787-3.625 6.895-1.201.091-2.67-1.554-3.874-4.398zm9.11-3.061a3 3 0 0 0 1.229-1.921 2.99 2.99 0 0 0-.834-2.671c.05-1.503.027-3.039-.061-4.565l5.946-.431c.014.347.032.694.03 1.038l-3.604 4.318a3.86 3.86 0 0 0-.666 3.839c.042.116.096.224.148.334-.089.854.135 1.896.548 2.833-1.354 1.793-2.986 3.11-4.791 3.887.975-1.615 1.659-3.954 2.056-6.66zM10.511 6.713c-2.874 3.448-4.55 8.467-4.325 13.966l-2.657.193c-.163-5.753 2.594-10.97 6.982-14.159m31.228 21.089a1.36 1.36 0 1 1-2.681-.465 1.36 1.36 0 1 1 2.681.465m-1.233-8.809a1.077 1.077 0 0 1 1.245-.877l.559.097c.468.081.799.455.867.9.017.113.03.227.009.346l-.136.782-.638 3.677a1.077 1.077 0 0 1-1.245.877l-.559-.097a1.077 1.077 0 0 1-.877-1.245l.518-2.984.216-1.242.04-.232z"></path></svg>