<svg xmlns="http://www.w3.org/2000/svg" fill="none" viewBox="0 0 313 194"><path fill="#fff" d="M156.625 193.496c-19.562 0-38.076-6.295-53.54-18.203a87.6 87.6 0 0 1-16.313-16.417c-5.09 3.049-11.308 6.084-16.418 6.832-.253.036-.471.06-.688.076a23 23 0 0 1-1.789.069c-14.008.001-21.12-12.243-25.369-19.559l-.652-1.119-.14-.249a216 216 0 0 1-6.701-13.276c-11.126-3.878-20.011-12.607-23.699-23.539l-.217-.598-.039-.231L.937 73.152c-1.548-4.81-1.162-10.199 1.042-14.444 1.289-2.484 3.157-4.492 5.417-5.869a16.7 16.7 0 0 1 1.959-7.632c2.011-3.795 5.33-6.594 9.37-7.913 1.627-5.093 5.592-9.284 10.992-10.936a16.3 16.3 0 0 1 4.776-.717c2.753 0 5.493.714 7.925 2.065q1.187.66 2.241 1.496a16.2 16.2 0 0 1 4.357-.599c2.787 0 5.548.736 7.987 2.129 3.931 2.245 6.81 6.1 7.898 10.578l2.295 9.282a13.1 13.1 0 0 1 3.819-.556 14.7 14.7 0 0 1 3.635.467C89.996 19.903 121.59 0 156.353 0c34.786 0 66.371 19.906 81.711 50.521a14.7 14.7 0 0 1 3.711-.486c1.325 0 2.606.187 3.818.555l2.304-9.321c1.079-4.442 3.957-8.294 7.888-10.539a16.13 16.13 0 0 1 7.987-2.129 16.2 16.2 0 0 1 4.358.599 16.6 16.6 0 0 1 2.24-1.495 16.36 16.36 0 0 1 7.925-2.065c1.615 0 3.222.241 4.777.717 5.4 1.652 9.364 5.843 10.991 10.936 4.042 1.321 7.359 4.119 9.369 7.913a16.7 16.7 0 0 1 1.96 7.633c2.261 1.377 4.129 3.386 5.418 5.87 2.203 4.245 2.589 9.634 1.041 14.444l-10.121 34.124-.037.222-.179.498-.058.188-.038.088c-3.764 10.983-12.731 19.684-23.955 23.486a216 216 0 0 1-6.647 13.158 8 8 0 0 1-.163.289l-.638 1.097c-4.245 7.307-11.356 19.55-25.364 19.551a23 23 0 0 1-1.804-.07 10 10 0 0 1-.638-.07c-4.813-.704-10.746-3.454-15.957-6.529a87.7 87.7 0 0 1-14.511 14.868c-15.539 12.539-35.113 19.444-55.116 19.444z"></path><g fill="#000"><path fill-opacity="0.05" d="M234.551 104.756c-1.939-5.343-2.437-11.191-1.196-16.915l.679-11.882.039-.683C226.618 39.202 194.603 12 156.353 12 118.21 12 86.27 39.05 78.698 74.973l.041.726.694 12.143c1.251 5.771.737 11.669-1.243 17.047l-.027.078a79 79 0 0 0 1.201 5.67l.101.413c.051.205.11.409.163.613 8.993 33.956 39.98 59.058 76.724 59.058 37.56 0 69.108-26.229 77.293-61.333a79 79 0 0 0 .922-4.583l-.017-.048zm-78.198 56.045c-38.29 0-69.442-31.151-69.442-69.441s31.152-69.441 69.442-69.441 69.441 31.151 69.441 69.441-31.151 69.441-69.441 69.441"></path><path fill-opacity="0.11" d="m224.778 138.913-1.694 3.254-.042.075-1.009 1.77-1.052 1.741a76.2 76.2 0 0 1-16.776 18.961 76 76 0 0 1-47.58 16.782c-16.89 0-32.872-5.433-46.219-15.71-7.33-5.645-13.565-12.619-18.387-20.449l-1.045-1.753-1.161-2.069 1.423 1.827 1.271 1.55c15.303 18.223 38.243 29.828 63.846 29.828 25.559 0 48.464-11.566 63.767-29.735l1.273-1.548a84 84 0 0 0 3.385-4.524M90.911 91.36c0-36.085 29.357-65.441 65.442-65.441s65.441 29.357 65.441 65.441-29.357 65.441-65.441 65.441-65.442-29.356-65.442-65.441m40.954-39.134 64.319 64.32a2 2 0 0 0 1.414.586q.12 0 .24-.015a2 2 0 0 0 1.471-.949 48.76 48.76 0 0 0 7.041-25.273c0-26.927-21.908-48.834-48.835-48.834a48.76 48.76 0 0 0-25.273 7.041 2 2 0 0 0-.948 1.47c-.074.61.136 1.22.571 1.654m-23.184 38.669c0 26.928 21.907 48.834 48.834 48.834 8.062 0 16.054-2.008 23.112-5.806a2 2 0 0 0 1.031-1.471 2 2 0 0 0-.565-1.705l-63.43-63.43a2 2 0 0 0-1.705-.564 2 2 0 0 0-1.471 1.031c-3.798 7.059-5.806 15.051-5.806 23.112z"></path></g><path fill="#fff" fill-opacity="0.1" d="M82.265 134.736a80 80 0 0 0 4.577 9.673c-5.488 4.161-13.729 8.733-18.16 9.415-7.616.548-12.149-7.274-15.798-13.557l-.648-1.113a206 206 0 0 1-6.733-13.41 33 33 0 0 0 1.302.078l.078.001a2 2 0 0 0 1.997-1.923 1.996 1.996 0 0 0-1.425-1.985 2 2 0 0 0-.497-.09 28 28 0 0 1-3.268-.321l-.075-.013a27 27 0 0 1-2.382-.492l-.374-.092a28 28 0 0 1-2.016-.625c-5.532-1.943-10.269-5.599-13.405-10.374a25 25 0 0 1-1.615-2.847 25 25 0 0 1-1.154-2.835l-1.855-6.256-1.878-6.331-6.534-22.03-.021-.065c-.578-1.732-.477-3.915.247-5.308.374-.722.881-1.182 1.505-1.369 2.176-.651 4 .956 4.822 3.001l.887 2.853 1.156 3.718 4.978 16.006a44 44 0 0 0-2.993 2.071 2 2 0 0 0-.385 2.802c.393.518.99.791 1.595.791a2 2 0 0 0 1.207-.406c3.111-2.36 6.629-4.247 10.148-5.752a71 71 0 0 1 6.737-2.467c7.64-2.38 13.922-3.062 14.029-3.073.295-.03.565-.127.805-.268a2 2 0 0 0 .98-1.925 2.004 2.004 0 0 0-2.192-1.786c-.174.018-1.21.129-2.856.393l-2.416-9.098-6.053-22.795c-.7-2.639.735-5.395 3.201-6.143a4.12 4.12 0 0 1 3.268.363c1.094.624 1.871 1.687 2.19 2.998l7.099 28.715 2.643 10.692.099.402c-3.415 2.111-11.904 8.826-8.418 21.826a2 2 0 0 0 2.45 1.414c.085-.023.162-.059.241-.092a1.99 1.99 0 0 0 1.173-2.358c-3.405-12.701 7.102-17.69 7.545-17.893a2 2 0 0 0 1.179-1.807l.057-6.63.065-7.667c-.076-5.471 1.654-8.069 3.299-8.676.278-.102 1.156-.061 2.028.494.585.373 1.302 1.063 1.408 2.236l.564 9.856.043.757.537 9.401.061 1.058.134 2.351a2 2 0 0 0 .044.32c.841 3.778.804 7.621.011 11.293l-.048.221a27.4 27.4 0 0 1-1.382 4.391q-.017.046-.036.091a28 28 0 0 1-5.549 8.538 28 28 0 0 1-1.689 1.638q-.836.746-1.736 1.427a28 28 0 0 1-3.129 2.057l-.2.116a2 2 0 0 0 .971 3.75c.328 0 .66-.081.967-.251a32 32 0 0 0 2.402-1.477l1.31 4.975.37 1.33c.775 2.792 1.256 4.526 2.328 7.166a2 2 0 0 0 1.172 3.784l.78-.134.744-.13c3.18-.614 6.313-1.457 9.026-2.428.146-.049.305-.111.459-.17zm30.416-43.841c0 24.722 20.113 44.834 44.834 44.834a45 45 0 0 0 18.787-4.116l-59.505-59.505a45 45 0 0 0-4.116 18.787m44.834-44.834a44.8 44.8 0 0 0-20.965 5.195l60.605 60.605a44.8 44.8 0 0 0 5.195-20.965c0-24.722-20.113-44.834-44.835-44.834zM22.763 64.642l.241.776.117.378 6.402 20.584c2.527-1.338 5.116-2.458 7.64-3.397L32.6 67.15l-4.373-15.171c-.37-1.284-1.201-2.331-2.339-2.95a4.33 4.33 0 0 0-3.345-.358 4.35 4.35 0 0 0-2.584 2.154c-.607 1.145-.723 2.476-.327 3.749l3.131 10.069zm14.192 3.13 4.009 13.909a87 87 0 0 1 8.134-2.121l-2.775-10.45-7.393-27.839c-.357-1.343-1.188-2.436-2.34-3.076a4.29 4.29 0 0 0-3.362-.364c-2.484.76-3.879 3.549-3.11 6.218zm263.204-3.535c-.375-.722-.881-1.182-1.505-1.369-2.174-.652-4 .956-4.822 3.001l-.887 2.853-1.156 3.718-4.978 16.006a45 45 0 0 1 2.993 2.071 2 2 0 0 1-1.21 3.593c-.422 0-.846-.132-1.207-.406-3.112-2.36-6.629-4.247-10.148-5.752a70 70 0 0 0-6.737-2.467c-7.641-2.381-13.922-3.062-14.03-3.073a2 2 0 0 1-.805-.268 2 2 0 0 1-.98-1.925 2 2 0 0 1 2.192-1.786c.175.018 1.21.129 2.856.393l2.416-9.098 6.053-22.795c.7-2.639-.736-5.395-3.201-6.143a4.12 4.12 0 0 0-3.268.363c-1.093.624-1.87 1.687-2.187 2.991l-7.1 28.722-2.644 10.692-.099.402c3.415 2.111 11.904 8.826 8.418 21.826a2 2 0 0 1-2.45 1.414c-.085-.023-.162-.059-.241-.092a1.99 1.99 0 0 1-1.173-2.358c3.406-12.701-7.102-17.69-7.551-17.896a2.01 2.01 0 0 1-1.172-1.803l-.057-6.63-.065-7.622c.076-5.516-1.655-8.114-3.3-8.721-.276-.101-1.155-.061-2.027.494-.585.373-1.302 1.063-1.409 2.236L238.096 75l-.04.695-.558 9.765-.057.989-.102 1.784a2 2 0 0 1-.044.321 26.3 26.3 0 0 0-.059 11.076l.041.187a27.3 27.3 0 0 0 1.391 4.523l.023.059a28 28 0 0 0 5.393 8.464 29 29 0 0 0 1.684 1.667 28 28 0 0 0 1.732 1.453 28 28 0 0 0 3.353 2.226q.1.059.2.116a2 2 0 0 1-.971 3.75 2 2 0 0 1-.967-.251 32 32 0 0 1-2.625-1.631l-1.344 5.115-.373 1.339c-.773 2.785-1.254 4.517-2.33 7.171a2 2 0 0 1 1.123 2.13 2 2 0 0 1-2.294 1.654l-.785-.135-.696-.121c-3.144-.606-6.2-1.425-8.899-2.377a80 80 0 0 1-4.693 9.829c5.476 4.054 13.35 8.369 17.645 9.03 7.611.551 12.149-7.273 15.798-13.556l.649-1.114a206 206 0 0 0 6.724-13.391l-1.032.059-.077.001a2 2 0 0 1-1.997-1.923 1.995 1.995 0 0 1 1.425-1.985c.159-.048.323-.083.497-.09a28 28 0 0 0 3.061-.288l.207-.033a28 28 0 0 0 2.164-.432l.666-.165a28 28 0 0 0 1.747-.533c5.647-1.919 10.487-5.614 13.673-10.466.598-.91 1.14-1.859 1.615-2.847a24 24 0 0 0 1.154-2.835l1.856-6.256 1.877-6.331 6.534-22.03.021-.065c.578-1.732.476-3.915-.247-5.308zm-24.534 18.747c2.524.939 5.113 2.059 7.639 3.397l6.402-20.584.118-.378.241-.775 3.131-10.07a4.86 4.86 0 0 0-.327-3.748c-.557-1.052-1.475-1.817-2.584-2.154s-2.3-.21-3.346.358c-1.138.618-1.968 1.666-2.338 2.95l-4.373 15.171zm-11.934-3.423a87 87 0 0 1 8.134 2.121l4.008-13.909 6.837-23.723c.769-2.668-.626-5.457-3.11-6.218a4.28 4.28 0 0 0-3.362.364c-1.152.64-1.983 1.732-2.34 3.076l-7.392 27.839z"></path><path fill="#000" fill-opacity="0.2" d="M156.353 21.919c-38.29 0-69.442 31.151-69.442 69.441s31.152 69.441 69.442 69.441 69.44-31.151 69.44-69.441-31.15-69.441-69.44-69.441m0 134.882c-36.085 0-65.442-29.356-65.442-65.441s29.357-65.441 65.442-65.441 65.44 29.357 65.44 65.441-29.356 65.441-65.44 65.441m-38.69-89.484a2 2 0 0 0-1.705-.564 2 2 0 0 0-1.471 1.031c-3.798 7.059-5.806 15.051-5.806 23.112 0 26.928 21.907 48.834 48.834 48.834 8.062 0 16.054-2.008 23.112-5.806a2 2 0 0 0 1.031-1.471 2 2 0 0 0-.565-1.705zm39.852 68.412c-24.722 0-44.834-20.112-44.834-44.834a45 45 0 0 1 4.116-18.787l59.505 59.505a45 45 0 0 1-18.787 4.116m0-93.669a48.76 48.76 0 0 0-25.273 7.041 2 2 0 0 0-.377 3.125l64.319 64.32a2 2 0 0 0 1.414.586q.12 0 .24-.015a2 2 0 0 0 1.471-.949 48.76 48.76 0 0 0 7.041-25.273c0-26.927-21.908-48.834-48.835-48.834zm-20.965 9.195a44.8 44.8 0 0 1 20.965-5.195c24.722 0 44.835 20.113 44.835 44.835a44.8 44.8 0 0 1-5.195 20.965zm167.159 11.138c-.879-1.695-2.231-2.856-3.908-3.358a7.23 7.23 0 0 0-3.811-.103l.986-3.171c.714-2.297.497-4.716-.612-6.809-1.061-2.001-2.821-3.46-4.957-4.109a8.26 8.26 0 0 0-4.82.004c1.173-4.659-1.397-9.476-5.857-10.84a8.25 8.25 0 0 0-6.475.691c-1.897 1.054-3.347 2.831-4.067 4.932-1.043-1.229-2.411-2.181-4.023-2.67a8.08 8.08 0 0 0-6.413.717c-2.029 1.159-3.52 3.17-4.089 5.512l-6.303 25.499c-.491-7.531-4.188-9.748-5.861-10.365-1.611-.594-3.795-.252-5.561.873-1.582 1.007-2.634 2.475-3.057 4.197C223.36 31.143 192.511 8 156.353 8 120.245 8 89.43 31.078 77.872 63.256c-.445-1.663-1.482-3.08-3.022-4.061-1.766-1.125-3.948-1.467-5.561-.873-1.675.618-5.379 2.84-5.862 10.358l-6.3-25.484c-.571-2.349-2.062-4.361-4.091-5.52a8.08 8.08 0 0 0-6.413-.717c-1.612.489-2.98 1.441-4.023 2.67-.72-2.1-2.17-3.878-4.067-4.932a8.25 8.25 0 0 0-6.475-.691c-4.46 1.365-7.03 6.181-5.856 10.84a8.26 8.26 0 0 0-4.82-.004c-2.136.649-3.896 2.108-4.957 4.109-1.109 2.094-1.327 4.512-.612 6.809l.986 3.17a7.2 7.2 0 0 0-3.812.104c-1.677.502-3.028 1.663-3.908 3.358-1.215 2.341-1.412 5.628-.502 8.384l10.271 34.629.014.036c.004.012.003.019.006.028 3.274 9.811 11.716 17.148 21.922 19.539a210 210 0 0 0 7.951 16.091l.027.049.656 1.126c3.842 6.616 9.048 15.579 18.452 15.578q.58 0 1.184-.046l.135-.015c5.036-.737 13.671-5.425 19.692-9.919 5.037 8.062 11.502 15.247 19.079 21.082 14.053 10.821 30.879 16.541 48.659 16.541 18.181 0 35.971-6.275 50.092-17.67a80.2 80.2 0 0 0 17.423-19.585c5.991 4.379 14.293 8.834 19.192 9.551l.134.015a15 15 0 0 0 1.184.046c9.402-.001 14.609-8.962 18.451-15.576l.657-1.128.028-.049a210 210 0 0 0 7.921-16.025c10.337-2.318 18.908-9.701 22.213-19.605q.003-.014.006-.028c.003-.014.011-.024.014-.036l10.271-34.629c.91-2.756.713-6.043-.502-8.384zm-30.033 57.981q-.862.294-1.748.533c-.22.059-.443.111-.665.165a28 28 0 0 1-2.164.432l-.207.033a28 28 0 0 1-3.061.288 2 2 0 0 0-.497.09 1.995 1.995 0 0 0-1.425 1.985 2 2 0 0 0 1.997 1.923l.077-.001q.518-.021 1.032-.059a206 206 0 0 1-6.724 13.391l-.649 1.114c-3.649 6.283-8.187 14.107-15.798 13.556-4.295-.661-12.169-4.976-17.645-9.03a80 80 0 0 0 4.693-9.829c2.699.952 5.755 1.771 8.899 2.377l.696.121.785.135a2 2 0 0 0 1.171-3.784c1.076-2.654 1.557-4.386 2.33-7.171l.373-1.339 1.344-5.115c.844.58 1.716 1.128 2.625 1.631a2 2 0 0 0 .967.251 2 2 0 0 0 .971-3.75q-.1-.057-.2-.116a28 28 0 0 1-3.353-2.226 28 28 0 0 1-1.732-1.453 29 29 0 0 1-1.684-1.667 28 28 0 0 1-5.393-8.464l-.023-.059a27.3 27.3 0 0 1-1.391-4.523l-.041-.187a26.3 26.3 0 0 1 .059-11.076 2 2 0 0 0 .044-.321l.102-1.784.057-.989.558-9.765.04-.695.582-10.192c.107-1.173.823-1.863 1.408-2.236.873-.555 1.752-.595 2.028-.494 1.645.607 3.376 3.205 3.3 8.721l.065 7.622.057 6.63a2.01 2.01 0 0 0 1.172 1.803c.449.206 10.957 5.195 7.551 17.896a1.99 1.99 0 0 0 1.173 2.358c.079.033.156.069.241.092a2 2 0 0 0 2.45-1.414c3.486-13.001-5.003-19.715-8.418-21.826l.099-.402 2.643-10.692 7.101-28.722c.317-1.304 1.094-2.366 2.187-2.991 1-.571 2.161-.7 3.268-.363 2.465.748 3.901 3.504 3.201 6.143l-6.053 22.795-2.416 9.098a55 55 0 0 0-2.856-.393 2 2 0 0 0-2.192 1.786 2 2 0 0 0 .98 1.925 2 2 0 0 0 .805.268c.108.011 6.389.693 14.029 3.073a71 71 0 0 1 6.738 2.467c3.519 1.505 7.036 3.392 10.148 5.752a2 2 0 0 0 1.207.406 2 2 0 0 0 1.21-3.594 44 44 0 0 0-2.993-2.071l4.978-16.006 1.156-3.718.887-2.853c.822-2.045 2.648-3.653 4.822-3.001.624.187 1.13.647 1.505 1.369.723 1.393.825 3.576.247 5.308l-.021.065-6.534 22.03-1.877 6.331-1.856 6.256a24 24 0 0 1-1.154 2.835 25 25 0 0 1-1.615 2.847c-3.186 4.852-8.026 8.547-13.673 10.466zm-52.695 25.379a76.2 76.2 0 0 1-16.776 18.961 76 76 0 0 1-47.58 16.782c-16.89 0-32.872-5.433-46.219-15.71-7.33-5.645-13.565-12.619-18.387-20.449l-1.045-1.753-1.161-2.069 1.423 1.827 1.271 1.55c15.303 18.223 38.243 29.828 63.846 29.828 25.559 0 48.463-11.566 63.767-29.735l1.273-1.548a84 84 0 0 0 3.385-4.524 77 77 0 0 1-1.694 3.254l-.042.075-1.009 1.77zm-168.097-5.486-.648-1.113a206 206 0 0 1-6.733-13.41 33 33 0 0 0 1.38.079 2 2 0 0 0 1.997-1.923 1.996 1.996 0 0 0-1.425-1.985 2 2 0 0 0-.497-.09 28 28 0 0 1-3.268-.321l-.075-.013a27 27 0 0 1-2.382-.492l-.374-.092a28 28 0 0 1-2.016-.624c-5.532-1.944-10.269-5.6-13.405-10.375a25 25 0 0 1-1.615-2.847 24 24 0 0 1-1.154-2.835l-1.855-6.256-1.878-6.331-6.534-22.03-.021-.065c-.578-1.732-.477-3.915.247-5.308.374-.722.881-1.182 1.505-1.369 2.176-.651 4 .956 4.822 3.001l.887 2.853 1.156 3.718 4.978 16.006a44 44 0 0 0-2.993 2.071 2 2 0 0 0-.385 2.802c.393.518.99.791 1.595.791a2 2 0 0 0 1.207-.406c3.111-2.36 6.629-4.247 10.148-5.752a71 71 0 0 1 6.738-2.467c7.64-2.38 13.922-3.062 14.029-3.073.295-.03.565-.127.805-.268a2 2 0 0 0 .98-1.925 2.004 2.004 0 0 0-2.192-1.786c-.174.018-1.21.129-2.856.393l-2.416-9.098-6.053-22.795c-.7-2.639.735-5.395 3.201-6.143a4.12 4.12 0 0 1 3.268.363c1.094.624 1.871 1.687 2.189 2.998l7.099 28.715 2.643 10.692.099.402c-3.415 2.111-11.904 8.826-8.418 21.826a2 2 0 0 0 2.45 1.414c.085-.023.162-.059.241-.092a1.99 1.99 0 0 0 1.173-2.358c-3.405-12.701 7.103-17.69 7.545-17.893a2 2 0 0 0 1.179-1.807l.057-6.63.065-7.667c-.076-5.471 1.654-8.069 3.299-8.676.278-.102 1.156-.061 2.028.494.585.373 1.302 1.063 1.408 2.236l.564 9.856.043.757.537 9.401.061 1.058.134 2.35a2 2 0 0 0 .044.32c.841 3.778.804 7.621.011 11.293l-.048.221a27.4 27.4 0 0 1-1.382 4.391q-.017.046-.036.091a28 28 0 0 1-5.549 8.538 28 28 0 0 1-1.689 1.638q-.836.746-1.736 1.427a28 28 0 0 1-3.129 2.057l-.2.116a2 2 0 0 0 .971 3.75c.328 0 .66-.081.967-.251a32 32 0 0 0 2.402-1.477l1.31 4.975.37 1.33c.775 2.792 1.256 4.526 2.328 7.166a2 2 0 0 0 1.172 3.784l.78-.134.744-.13c3.18-.614 6.314-1.457 9.026-2.428.146-.049.305-.111.459-.17a80 80 0 0 0 4.577 9.673c-5.488 4.161-13.729 8.733-18.16 9.415-7.616.548-12.149-7.274-15.798-13.557zM19.959 50.825a4.35 4.35 0 0 1 2.585-2.154 4.33 4.33 0 0 1 3.345.358c1.138.618 1.969 1.666 2.339 2.95L32.6 67.15l4.564 15.833c-2.524.939-5.113 2.059-7.64 3.398l-6.402-20.585-.117-.378-.241-.776-3.131-10.068c-.396-1.272-.279-2.603.327-3.748zm13.27-12.993a4.29 4.29 0 0 1 3.362.364c1.152.64 1.983 1.732 2.34 3.076l7.392 27.839 2.775 10.451a87 87 0 0 0-8.134 2.121l-4.009-13.909-6.837-23.723c-.769-2.668.626-5.457 3.11-6.218zM156.353 170.72c-36.744 0-67.732-25.102-76.724-59.058l-.163-.613-.101-.413a79 79 0 0 1-1.201-5.67l.027-.078c1.98-5.378 2.494-11.276 1.243-17.047l-.694-12.143-.041-.726C86.27 39.05 118.21 12 156.353 12c38.25 0 70.265 27.202 77.72 63.277l-.039.683-.679 11.882c-1.241 5.724-.744 11.572 1.196 16.915l.017.048a79 79 0 0 1-.922 4.583c-8.185 35.104-39.733 61.333-77.293 61.333zm-80.87-59.119.097.398.229.859.468 1.758 3.458 12.574a78 78 0 0 0 1.166 3.785c-.135.051-.265.105-.405.152a57 57 0 0 1-6.43 1.851c-1.189-2.835-1.636-4.446-2.456-7.399l-.368-1.324-1.713-6.61a32 32 0 0 0 5.758-6.844zM234.44 123.56l2.987-12.739.023-.102a32 32 0 0 0 5.596 6.735 258 258 0 0 1-1.756 6.787l-.371 1.332c-.817 2.945-1.264 4.557-2.457 7.404a57 57 0 0 1-6.19-1.769 78 78 0 0 0 2.168-7.648m41.759-85.365a4.29 4.29 0 0 1 3.362-.364c2.484.76 3.879 3.549 3.11 6.218l-6.837 23.723-4.009 13.909a87 87 0 0 0-8.133-2.121l2.775-10.451 7.392-27.839c.357-1.344 1.188-2.436 2.34-3.076zm14.047 10.476a4.35 4.35 0 0 1 2.584 2.154 4.86 4.86 0 0 1 .327 3.749l-3.131 10.07-.241.775-.118.378-6.402 20.585c-2.526-1.338-5.115-2.458-7.639-3.398l4.563-15.833 4.373-15.171c.37-1.284 1.2-2.331 2.338-2.95a4.33 4.33 0 0 1 3.346-.358z"></path></svg>