<svg xmlns="http://www.w3.org/2000/svg" fill="none" viewBox="0 0 47 39"><path fill="#3a3a3a" d="M8.72 38.272c-2.977 0-5.502-2.237-5.874-5.205L.021 12.812c-.229-1.839 1.438-4.346 2.877-6.129.688-.85 1.298-1.463 1.867-1.873a3 3 0 0 1 .236-.161 2.6 2.6 0 0 1 .372-.21 4.26 4.26 0 0 1 1.773-.572l22.967-1.47a9.3 9.3 0 0 1 5.37-2.356L36.364 0c4.962 0 9.161 3.795 9.766 8.828a9.7 9.7 0 0 1-1.094 5.827 12.5 12.5 0 0 1-1.517 2.37 13.2 13.2 0 0 1-2.345 2.267l1.191 8.076a5 5 0 0 1 .036.446l.012.04.02.154c.161 1.213-.368 2.482-1.772 4.241-1.208 1.515-3.533 4.084-5.53 4.269L9.222 38.251a6 6 0 0 1-.502.021"></path><path fill="#000" fill-opacity="0.05" d="M37.411 30.678c-.977 1.121-2.134 2.23-2.583 2.352L8.969 34.76a2.48 2.48 0 0 1-1.73-.513l2.234-2.084a2.7 2.7 0 0 0 1.259.324l.254-.012zm-29.359-.575L5.756 13.542l-1.771 2.374 2.334 16.712c.015.123.048.238.08.353l1.996-1.862a2.7 2.7 0 0 1-.342-1.015zM5.185 9.427c-.841 1.143-1.657 2.474-1.694 2.955l.198 1.42 1.773-2.376-.277-1.998z"></path><path fill="#fff" fill-opacity="0.05" d="m18.38 18.637-8.836 11.29-.006-.025-2.38-17.171zm6.929-.716 3.089-2.874a8 8 0 0 1-.841-2.729c-.138-1.145.07-2.414.557-3.674l.315-.735.381-.732c.244-.425.525-.839.832-1.244l-11.294.723-6.599.422-4.314.276a.94.94 0 0 0-.51.234c-.05.042-.107.073-.15.125a.97.97 0 0 0-.211.738l.34 2.453 14.221 7.484c1.374.785 3.044.592 4.183-.467zm1.021 1.098a5.01 5.01 0 0 1-3.422 1.354 5.03 5.03 0 0 1-2.504-.67l-.675-.355-9.087 11.612c.075.007.146.03.224.022l27.036-1.838q.01-.003.021-.007L26.497 18.862l-.168.156zm11.933 4.515-.669-4.533a7 7 0 0 1-.632.183 6 6 0 0 1-.736.137l-.192.031-.687.032c-2.424 0-4.666-1.183-6.128-3.051l-1.618 1.506 11.185 10.056.11.099c-.001-.042.014-.082.008-.124l-.64-4.335z"></path><path fill="#000" fill-opacity="0.16" d="M36.806 17.573c-.111 0-.22-.011-.33-.016a7 7 0 0 1-.8-.079c-1.871-.287-3.564-1.271-4.783-2.706a8 8 0 0 1-.869-1.24 8 8 0 0 1-.953-2.714c-.065.46-.075.903-.025 1.318a6.5 6.5 0 0 0 .501 1.84 6.6 6.6 0 0 0 .781 1.322c1.274 1.692 3.315 2.725 5.463 2.563l.104-.004a5 5 0 0 0 .639-.108q.315-.075.635-.194l-.363.017z"></path><path fill="#fff" fill-opacity="0.05" d="M37.593 10.79q.051.474-.004.794c-.055.32-.115.377-.227.495q-.014.01-.028.02a.72.72 0 0 1-.426.186.8.8 0 0 1-.311-.038.68.68 0 0 1-.362-.239q-.247-.324-.325-1.035l-.086-.79-.19-1.749c-.005-.042-.003-.076-.006-.116a2.7 2.7 0 0 1 .012-.677.93.93 0 0 1 .21-.466c.008-.008.012-.021.02-.029a.72.72 0 0 1 .456-.207.8.8 0 0 1 .249.01.6.6 0 0 1 .239.094q.201.135.327.435c.126.3.142.458.176.773zm4.354 2.22a5.772 5.772 0 0 1-3.312 2.77 6 6 0 0 1-.73.19l-.55.079c-.066.006-.13.004-.196.008l-.349.014a6 6 0 0 1-.795-.053 6 6 0 0 1-.827-.173 6.44 6.44 0 0 1-4.03-3.365 6.6 6.6 0 0 1-.652-2.15 6.5 6.5 0 0 1 .143-2.309c.062-.251.135-.499.228-.74.195-.503.463-.975.79-1.414l.048-.066.096-.132c.196-.243.413-.461.64-.667a5.8 5.8 0 0 1 1.17-.826 5.8 5.8 0 0 1 2.186-.649l.552-.025c3.138 0 5.903 2.472 6.297 5.746a6.23 6.23 0 0 1-.709 3.763zm-2.19-2.965L39.59 8.52q-.135-1.24-.558-2.015c-.423-.775-.663-.883-1.143-1.101-.32-.145-.703-.201-1.114-.217-.207-.008-.409-.023-.64.002-.114.012-.202.048-.309.067a3.4 3.4 0 0 0-1.065.366c-.096.054-.21.091-.296.155q-.637.474-.882 1.321c-.046.159-.059.352-.085.532a5 5 0 0 0-.05.855l.025.701.112 1.031.044.406.01.088c.052.476.14.894.256 1.267a4 4 0 0 0 .301.74c.028.051.068.083.098.131.271.439.613.774 1.047.971.271.117.554.184.862.217.204.021.429.011.657-.002.083-.005.152.009.237-.001.186-.02.338-.072.505-.11q.398-.09.721-.247c.151-.073.313-.135.44-.23q.634-.475.88-1.322c.246-.847.201-1.258.111-2.08z"></path><path fill="#000" fill-opacity="0.4" d="M44.144 9.066c-.513-4.263-4.315-7.424-8.477-7.034a7.26 7.26 0 0 0-4.684 2.311L7.322 5.857c-.361.031-.69.162-.993.337-.071.041-.15.069-.217.117-.049.035-.103.062-.15.1-.355.252-.836.697-1.507 1.526-.026.033-2.619 3.258-2.453 4.598l2.829 20.283c.251 2 1.93 3.454 3.89 3.454a4 4 0 0 0 .368-.017l25.858-1.73c1.188-.11 3.399-2.581 4.151-3.524 1.472-1.845 1.386-2.488 1.353-2.731l-.049-.166a3 3 0 0 0-.015-.446l-1.376-9.328a10.9 10.9 0 0 0 2.952-2.564 10.8 10.8 0 0 0 1.314-2.067 7.72 7.72 0 0 0 .867-4.634zM3.491 12.381c.037-.48.853-1.812 1.694-2.955l.277 1.998L3.689 13.8l-.198-1.42zm14.857-5.727 11.294-.723a12 12 0 0 0-.832 1.244 11 11 0 0 0-.381.732q-.175.366-.316.735c-.487 1.26-.696 2.529-.557 3.674.118.979.412 1.897.84 2.729l-3.089 2.874c-1.139 1.059-2.809 1.252-4.183.467l-14.22-7.483-.34-2.453a.97.97 0 0 1 .211-.738c.042-.052.099-.083.15-.125a.94.94 0 0 1 .511-.234l4.314-.276 6.599-.422zm23.005 7.251a5.8 5.8 0 0 1-2.718 1.874 6 6 0 0 1-.73.19 6 6 0 0 1-.55.078c-.066.006-.13.004-.196.008q-.175.012-.349.014a6 6 0 0 1-.795-.053 6 6 0 0 1-.827-.173 6.44 6.44 0 0 1-4.03-3.366 6.6 6.6 0 0 1-.652-2.15 6.5 6.5 0 0 1 .007-1.565 6 6 0 0 1 .136-.744c.062-.251.135-.499.229-.74a6 6 0 0 1 .789-1.414l.048-.066c.033-.043.062-.089.096-.132a6 6 0 0 1 .64-.667 5.7 5.7 0 0 1 1.17-.826 5.8 5.8 0 0 1 2.187-.649q.276-.025.552-.025c3.138 0 5.903 2.472 6.297 5.746a6.22 6.22 0 0 1-.709 3.763 6 6 0 0 1-.594.896zm-5.562 3.956c-2.148.162-4.189-.87-5.463-2.563a6.6 6.6 0 0 1-.781-1.322 6.5 6.5 0 0 1-.501-1.84 5 5 0 0 1 .025-1.318 8 8 0 0 0 .953 2.714 8 8 0 0 0 .869 1.24c1.219 1.435 2.912 2.418 4.783 2.706a7 7 0 0 0 .8.079c.11.005.219.016.33.016.12 0 .242-.011.363-.017a6 6 0 0 1-.635.194q-.325.079-.639.108-.052.003-.104.004zM9.544 29.927l-.006-.025-2.38-17.171 11.222 5.905zm28.359-.785L10.867 30.98c-.078.007-.149-.016-.224-.022l9.087-11.612.675.355a5.03 5.03 0 0 0 2.504.67 5 5 0 0 0 3.422-1.354l.168-.156 11.426 10.273q-.011.004-.021.007zm-32.147-15.6 2.296 16.562c.047.371.169.711.342 1.015l-1.996 1.862a3 3 0 0 1-.08-.353L3.985 15.916zM7.24 34.247l2.234-2.084a2.7 2.7 0 0 0 1.259.324q.126 0 .254-.012l26.425-1.797c-.977 1.121-2.133 2.23-2.583 2.352L8.97 34.76a2.48 2.48 0 0 1-1.73-.513m31.663-6.38c.006.042-.009.082-.009.124l-.11-.099-11.185-10.056 1.618-1.506c1.462 1.868 3.704 3.051 6.128 3.051a7 7 0 0 0 .688-.032c.063-.006.128-.023.192-.031a6 6 0 0 0 .736-.137c.21-.053.421-.109.632-.183l.669 4.533.64 4.335zM39.59 8.52q-.135-1.24-.558-2.015c-.423-.775-.663-.883-1.144-1.101-.32-.145-.703-.201-1.114-.217-.207-.008-.409-.023-.64.002-.114.012-.202.048-.309.067a3.4 3.4 0 0 0-1.065.366c-.096.054-.21.091-.296.155q-.638.474-.882 1.321c-.046.159-.059.352-.085.532a5 5 0 0 0-.05.855c.004.229-.003.447.025.701l.112 1.031.044.406.009.088c.052.476.14.894.256 1.267.084.272.182.523.301.74.028.051.068.083.098.131.271.439.612.774 1.047.971.271.117.554.184.862.217.204.021.429.011.657-.002.083-.005.152.009.237-.001.186-.02.338-.072.505-.11a3.3 3.3 0 0 0 .721-.247c.151-.073.313-.135.44-.23q.634-.475.88-1.322c.246-.847.201-1.258.111-2.08zm-2.001 3.064a.95.95 0 0 1-.227.495q-.014.01-.028.02a.72.72 0 0 1-.426.186.8.8 0 0 1-.311-.037.68.68 0 0 1-.362-.239q-.247-.325-.325-1.035l-.086-.79-.191-1.749c-.005-.042-.003-.076-.006-.116a2.8 2.8 0 0 1 .012-.677.93.93 0 0 1 .21-.466c.008-.008.012-.021.02-.029a.72.72 0 0 1 .456-.207.8.8 0 0 1 .249.01.6.6 0 0 1 .239.094.95.95 0 0 1 .327.435q.124.3.176.773l.276 2.539q.051.474-.004.794z"></path></svg>