<svg xmlns="http://www.w3.org/2000/svg" xmlns:xlink="http://www.w3.org/1999/xlink" viewBox="0 0 750 750"><defs><path id="applewallet_svg__a" d="M51.877 0C11.905 0 0 23.955 0 53.713v62.74c0-29.757 11.905-53.712 51.877-53.712H635.67c39.972 0 51.877 23.955 51.877 53.712v-62.74C687.547 23.955 675.642 0 635.67 0z"></path><path id="applewallet_svg__c" d="M51.877 0C11.905 0 0 23.955 0 53.713v62.74c0-29.757 11.905-53.712 51.877-53.712H635.67c39.972 0 51.877 23.955 51.877 53.712v-62.74C687.547 23.955 675.642 0 635.67 0z"></path><path id="applewallet_svg__e" d="M51.877 0C11.905 0 0 23.955 0 53.713v62.74c0-29.757 11.905-53.712 51.877-53.712H635.67c39.972 0 51.877 23.955 51.877 53.712v-62.74C687.547 23.955 675.642 0 635.67 0z"></path><linearGradient id="applewallet_svg__g" x1="0%" x2="0%" y1="100%" y2="48.168%"><stop offset="0%" stop-color="#CBC9BE"></stop><stop offset="100%" stop-color="#C8C5BB" stop-opacity="0"></stop></linearGradient><linearGradient id="applewallet_svg__h" x1="0%" x2="0%" y1="100%" y2="48.168%"><stop offset="0%" stop-color="#CBC9BE"></stop><stop offset="100%" stop-color="#C8C5BB" stop-opacity="0"></stop></linearGradient></defs><g fill="none" fill-rule="evenodd"><path fill="#D9D6CC" fill-rule="nonzero" d="M77.023 93C26.523 93 0 123.817 0 170.023V579.13c0 46.207 26.523 77.023 77.023 77.023h595.954c50.5 0 77.023-30.816 77.023-77.023V170.023C750 123.817 723.477 93 672.977 93z"></path><path fill="#F16D5E" fill-rule="nonzero" d="M83.104 124.576c-39.973 0-51.877 23.956-51.877 53.713v195.828l176.408.326c47.13.088 66.427 19.048 86.066 45.579 5.002 6.756 11.086 15.914 17.028 21.86 17.74 17.759 41.005 26.63 64.271 26.63s46.53-8.871 64.272-26.63c5.941-5.946 12.025-15.104 17.027-21.86 19.639-26.53 38.937-45.491 86.066-45.579l176.408-.326V178.29c0-29.757-11.904-53.713-51.876-53.713z"></path><path fill="#3295C9" fill-rule="nonzero" d="M83.104 124.576c-39.973 0-51.877 23.956-51.877 53.713v62.74c0-29.757 11.904-53.712 51.877-53.712h583.793c39.972 0 51.876 23.955 51.876 53.713v-62.74c0-29.758-11.904-53.714-51.876-53.714z"></path><g transform="translate(31.227 124.576)"><mask id="applewallet_svg__b" fill="#fff"><use xlink:href="#applewallet_svg__a"></use></mask><path fill="#000" fill-opacity="0.318" fill-rule="nonzero" d="M51.877 62.74C11.905 62.74 0 86.697 0 116.454v62.741c0-29.757 11.905-53.713 51.877-53.713H635.67c39.972 0 51.877 23.956 51.877 53.713v-62.74c0-29.758-11.905-53.713-51.877-53.713z" mask="url(#applewallet_svg__b)"></path></g><path fill="#FCAD00" fill-rule="nonzero" d="M83.104 187.317c-39.973 0-51.877 23.955-51.877 53.713v62.74c0-29.757 11.904-53.713 51.877-53.713h583.793c39.972 0 51.876 23.956 51.876 53.713v-62.74c0-29.758-11.904-53.713-51.876-53.713z"></path><g transform="translate(31.227 124.576)"><mask id="applewallet_svg__d" fill="#fff"><use xlink:href="#applewallet_svg__c"></use></mask><path fill="#000" fill-opacity="0.314" fill-rule="nonzero" d="M51.877 125.481C11.905 125.481 0 149.437 0 179.194v62.74c0-29.757 11.905-53.712 51.877-53.712H635.67c39.972 0 51.877 23.955 51.877 53.713v-62.74c0-29.758-11.905-53.714-51.877-53.714z" mask="url(#applewallet_svg__d)"></path></g><path fill="#50BE3D" fill-rule="nonzero" d="M83.104 250.057c-39.973 0-51.877 23.956-51.877 53.713v62.74c0-29.757 11.904-53.712 51.877-53.712h583.793c39.972 0 51.876 23.955 51.876 53.713v-62.74c0-29.758-11.904-53.714-51.876-53.714z"></path><g transform="translate(31.227 124.576)"><mask id="applewallet_svg__f" fill="#fff"><use xlink:href="#applewallet_svg__e"></use></mask><path fill="#000" fill-opacity="0.314" fill-rule="nonzero" d="M51.877 188.222C11.905 188.222 0 212.177 0 241.935v62.74c0-29.757 11.905-53.713 51.877-53.713H635.67c39.972 0 51.877 23.956 51.877 53.713v-62.74c0-29.758-11.905-53.713-51.877-53.713z" mask="url(#applewallet_svg__f)"></path></g><path fill="url(#applewallet_svg__g)" fill-rule="nonzero" d="M0 235.148h31.227v45.969H0z" transform="translate(0 93)"></path><path fill="url(#applewallet_svg__h)" fill-rule="nonzero" d="M718.773 235.148H750v45.969h-31.227z" transform="translate(0 93)"></path></g></svg>