<svg xmlns="http://www.w3.org/2000/svg" viewBox="0 0 360 360"><g fill="none"><path fill="#4285f4" d="M183 149v68.39h94.743c-4.16 21.994-16.645 40.618-35.37 53.14L299.508 315C332.795 284.177 352 238.904 352 185.123c0-12.522-1.12-24.563-3.201-36.121z"></path><path fill="#34a853" d="m84.57 214-12.901 9.896L26 259.54C55.003 317.18 114.447 357 183.348 357c47.59 0 87.488-15.735 116.652-42.708l-57.205-44.476c-15.703 10.597-35.733 17.02-59.447 17.02-45.828 0-84.764-30.988-98.706-72.734z"></path><path fill="#fbbc05" d="M25.771 102C13.841 125.715 7 152.477 7 181s6.84 55.284 18.771 79c0 .159 58.229-45.51 58.229-45.51-3.5-10.576-5.569-21.793-5.569-33.492 0-11.7 2.069-22.916 5.569-33.492z"></path><path fill="#ea4335" d="M183.188 75.296c25.932 0 48.982 8.988 67.39 26.321L301 51.062C270.426 22.495 230.73 5 183.188 5 114.358 5 54.973 44.642 26 102.42L84.585 148c13.925-41.729 52.823-72.704 98.603-72.704"></path></g></svg>