<svg xmlns="http://www.w3.org/2000/svg" viewBox="0 0 240 240"><defs><linearGradient id="meta_svg__a" x1="13.878%" x2="89.144%" y1="55.934%" y2="58.694%"><stop offset="0%" stop-color="#0064e1"></stop><stop offset="40%" stop-color="#0064e1"></stop><stop offset="83%" stop-color="#0073ee"></stop><stop offset="100%" stop-color="#0082fb"></stop></linearGradient><linearGradient id="meta_svg__b" x1="54.315%" x2="54.315%" y1="82.782%" y2="39.307%"><stop offset="0%" stop-color="#0082fb"></stop><stop offset="100%" stop-color="#0064e0"></stop></linearGradient></defs><g fill="none"><path fill="#0081fb" d="M31.376 143.855c0 8.617 1.892 15.233 4.364 19.235 3.241 5.243 8.075 7.464 13.004 7.464 6.357 0 12.173-1.577 23.38-17.077 8.978-12.424 19.557-29.862 26.675-40.795l12.055-18.521c8.374-12.863 18.066-27.163 29.18-36.855C149.105 49.395 158.891 45 168.741 45c16.536 0 32.287 9.583 44.341 27.555 13.193 19.683 19.597 44.475 19.597 70.06 0 15.21-2.998 26.385-8.1 35.214-4.928 8.539-14.534 17.07-30.693 17.07v-24.345c13.836 0 17.29-12.714 17.29-27.264 0-20.735-4.835-43.746-15.485-60.187-7.558-11.663-17.352-18.789-28.128-18.789-11.654 0-21.033 8.79-31.573 24.463-5.603 8.327-11.356 18.474-17.815 29.925l-7.11 12.596c-14.284 25.326-17.902 31.094-25.043 40.614-12.518 16.67-23.207 22.987-37.279 22.987-16.693 0-27.249-7.228-33.786-18.121C9.621 167.9 7 156.255 7 142.984z"></path><path fill="url(#meta_svg__a)" d="M19.22 29.273C30.396 12.047 46.524 0 65.022 0c10.712 0 21.362 3.17 32.483 12.25 12.164 9.929 25.13 26.276 41.304 53.219l5.8 9.669c14.001 23.324 21.967 35.324 26.629 40.983 5.996 7.267 10.194 9.433 15.649 9.433 13.836 0 17.29-12.714 17.29-27.264l21.503-.675c0 15.21-2.998 26.385-8.1 35.214-4.928 8.539-14.534 17.07-30.693 17.07-10.046 0-18.945-2.182-28.787-11.466-7.566-7.126-16.41-19.785-23.215-31.165l-20.24-33.81C104.49 56.491 95.174 43.84 89.782 38.11c-5.8-6.16-13.255-13.6-25.153-13.6-9.63 0-17.807 6.757-24.65 17.093z" transform="translate(7 45)"></path><path fill="url(#meta_svg__b)" d="M64.63 24.51c-9.63 0-17.808 6.757-24.652 17.093-9.677 14.605-15.602 36.36-15.602 57.252 0 8.617 1.892 15.233 4.364 19.235L7.958 131.777C2.621 122.901 0 111.255 0 97.984c0-24.133 6.624-49.286 19.22-68.71C30.396 12.047 46.524 0 65.022 0z" transform="translate(7 45)"></path></g></svg>