<svg xmlns="http://www.w3.org/2000/svg" viewBox="0 0 112 112"><path fill="#a195f0" fill-rule="evenodd" d="M45.436 78.837c-5.942 9.106-15.9 20.63-29.15 20.63C10.024 99.467 4 96.889 4 85.687 4 57.162 42.946 13 79.082 13c20.558 0 28.75 14.263 28.75 30.46 0 20.79-13.491 44.563-26.901 44.563-4.257 0-6.344-2.337-6.344-6.043q0-1.45.481-3.143c-4.578 7.816-13.41 15.07-21.682 15.07-6.022 0-9.074-3.788-9.074-9.107 0-1.934.402-3.948 1.124-5.963m26.822-43.903c-3.27.006-5.5 2.785-5.494 6.75.008 3.964 2.248 6.815 5.519 6.809 3.192-.006 5.42-2.864 5.414-6.829-.008-3.965-2.246-6.736-5.439-6.73m17.352-.019c-3.272.006-5.501 2.785-5.495 6.75.008 3.964 2.247 6.815 5.519 6.809 3.192-.006 5.42-2.864 5.414-6.829-.008-3.964-2.246-6.736-5.439-6.73"></path></svg>