<svg xmlns="http://www.w3.org/2000/svg" viewBox="0 0 397 397"><g fill="none"><path fill="#e5e5e4" d="M198.5 0C308.13 0 397 88.87 397 198.5S308.13 397 198.5 397 0 308.13 0 198.5 88.87 0 198.5 0"></path><path fill="#fff" d="M198.5 4C305.92 4 393 91.08 393 198.5S305.92 393 198.5 393 4 305.92 4 198.5 91.083 4 198.5 4"></path><path fill="#4a8cff" d="M198 19c98.859 0 179 80.141 179 179s-80.141 179-179 179S19 296.859 19 198 99.141 19 198 19"></path><path fill="#fff" d="M82 142.299v84.352c.075 19.074 15.632 34.426 34.604 34.349h122.779c3.49 0 6.298-2.813 6.298-6.233v-84.352c-.075-19.074-15.632-34.426-34.601-34.349H88.3c-3.49 0-6.298 2.813-6.298 6.233zm171.495 32.905 50.69-37.083c4.403-3.648 7.815-2.737 7.815 3.876v113.075c0 7.524-4.175 6.613-7.814 3.876l-50.69-37.008z"></path></g></svg>