<svg xmlns="http://www.w3.org/2000/svg" viewBox="0 0 72 72"><path fill="currentColor" d="M35.891 68.514q6.267 0 11.753-2.353t9.645-6.512a30.4 30.4 0 0 0 6.501-9.634q2.343-5.475 2.342-11.742 0-6.257-2.342-11.743-2.342-5.485-6.501-9.645t-9.645-6.517Q42.158 8.01 35.89 8.01t-11.74 2.358A30.62 30.62 0 0 0 8.003 26.53Q5.65 32.016 5.65 38.273q0 6.267 2.353 11.742a30.6 30.6 0 0 0 6.512 9.634 30.6 30.6 0 0 0 9.634 6.512q5.475 2.353 11.742 2.353m-13.16-26.11q-1.094 0-1.848-.754a2.5 2.5 0 0 1-.754-1.838q0-1.107.754-1.855.755-.748 1.848-.748h10.547V22.12q0-1.105.749-1.855.748-.748 1.843-.748 1.116 0 1.864.748.75.75.749 1.855v17.69a2.5 2.5 0 0 1-.749 1.839q-.748.753-1.864.753zM9.512 16.1q.354 0 .64-.103t.65-.363l11.419-8.222q.81-.604.81-1.466 0-1.024-.932-1.806-1.074-.873-2.591-1.339a10.5 10.5 0 0 0-3.11-.466q-2.568 0-4.69 1.227a9.4 9.4 0 0 0-3.38 3.286Q7.07 8.907 7.07 11.444q0 1.003.156 1.865a6.5 6.5 0 0 0 .425 1.473q.26.604.749.961.488.358 1.111.358m52.778 0q.614 0 1.101-.368.49-.369.77-.951.27-.59.41-1.462.14-.873.14-1.876 0-2.537-1.251-4.595a9.36 9.36 0 0 0-3.375-3.286q-2.123-1.227-4.7-1.227-1.594 0-3.11.466-1.517.466-2.592 1.339-.933.78-.932 1.806 0 .872.842 1.466l11.397 8.222q.354.261.64.363.285.103.66.103M9.3 68.261q.867.877 2.085.857t2.096-.928l6.39-6.35-4.087-4.056-6.462 6.44q-.867.855-.862 2.04.005 1.182.84 1.997m53.181 0a2.73 2.73 0 0 0 .852-1.998q.016-1.183-.873-2.04l-6.462-6.44-4.066 4.057 6.37 6.35q.886.899 2.1.923t2.08-.852"></path></svg>