<svg xmlns="http://www.w3.org/2000/svg" viewBox="0 0 42 42"><path fill="currentColor" d="M32.414 36.445q2.655 0 4.008-1.336t1.353-3.955V10.887q0-2.62-1.353-3.955-1.353-1.336-4.008-1.336H9.598q-2.655 0-4.008 1.327t-1.354 3.964v20.267q0 2.638 1.354 3.964 1.353 1.327 4.008 1.327zm.106-3.006H9.475q-1.072 0-1.644-.562-.57-.563-.571-1.688V15.721q0-1.125.571-1.688.57-.562 1.644-.562H32.52q1.071 0 1.652.562.58.563.58 1.688v15.468q0 1.125-.58 1.688t-1.652.562M18.756 19.307q.44 0 .615-.159.176-.157.176-.597v-.985q0-.44-.176-.606-.176-.167-.615-.167h-.985q-.439 0-.606.167-.167.166-.167.606v.985q0 .44.167.597.167.159.606.159zm5.467 0q.456 0 .624-.159.167-.157.167-.597v-.985q0-.44-.167-.606-.168-.167-.624-.167h-.985q-.44 0-.606.167-.167.166-.167.606v.985q0 .44.167.597.166.159.606.159zm5.466 0q.457 0 .633-.159.176-.157.176-.597v-.985q0-.44-.176-.606-.175-.167-.633-.167h-.966q-.44 0-.607.167-.167.166-.167.606v.985q0 .44.167.597.168.159.607.159zm-16.418 5.396q.44 0 .625-.167.184-.166.184-.606v-.967q0-.44-.184-.598-.186-.158-.625-.158h-.966q-.44 0-.607.158-.167.159-.167.598v.967q0 .44.167.606.168.167.607.167zm5.485 0q.44 0 .615-.167.176-.166.176-.606v-.967q0-.44-.176-.598t-.615-.158h-.985q-.439 0-.606.158-.167.159-.167.598v.967q0 .44.167.606.167.167.606.167zm5.467 0q.456 0 .624-.167.167-.166.167-.606v-.967q0-.44-.167-.598-.168-.158-.624-.158h-.985q-.44 0-.606.158-.167.159-.167.598v.967q0 .44.167.606.166.167.606.167zm5.466 0q.457 0 .633-.167.176-.166.176-.606v-.967q0-.44-.176-.598-.175-.158-.633-.158h-.966q-.44 0-.607.158-.167.159-.167.598v.967q0 .44.167.606.168.167.607.167zM13.271 30.1q.44 0 .625-.167.184-.168.184-.607v-.984q0-.44-.184-.598-.186-.158-.625-.158h-.966q-.44 0-.607.158-.167.159-.167.598v.984q0 .44.167.607.168.166.607.167zm5.485 0q.44 0 .615-.167.176-.168.176-.607v-.984q0-.44-.176-.598t-.615-.158h-.985q-.439 0-.606.158-.167.159-.167.598v.984q0 .44.167.607t.606.167zm5.467 0q.456 0 .624-.167.167-.168.167-.607v-.984q0-.44-.167-.598-.168-.158-.624-.158h-.985q-.44 0-.606.158-.167.159-.167.598v.984q0 .44.167.607.166.166.606.167z"></path></svg>