<svg xmlns="http://www.w3.org/2000/svg" viewBox="0 0 76 76"><path fill="currentColor" d="M.531 51.451q0 1.154.511 1.984.512.831 1.532 1.293Q5.101 55.94 6.7 57.592q1.598 1.653 3.04 4.58 1.01 2.004 3.23 2.004h50.078q2.195 0 3.214-2.004 1.433-2.928 3.032-4.58t4.155-2.864q1.014-.463 1.513-1.293.5-.83.5-1.984v-27.59q0-1.154-.5-1.984t-1.513-1.293q-2.557-1.212-4.155-2.864t-3.032-4.58q-1.019-2.004-3.214-2.004H12.969q-2.22 0-3.23 2.004-1.442 2.927-3.04 4.58-1.598 1.652-4.125 2.864-1.02.463-1.532 1.293-.51.83-.511 1.984zm13.074-.425V24.31q0-1.284.79-2.07.792-.788 2.067-.788h43.091q1.284 0 2.063.787t.779 2.071v26.717q0 1.284-.78 2.07-.778.788-2.062.788h-43.09q-1.276 0-2.067-.787-.79-.788-.79-2.07m4.18-20.159h3.563v-5.282h-3.035q-.527 0-.527.59zm0 9.483h3.563v-5.365h-3.562zm.009 8.802q0 .566.528.566h3.018v-5.234h-3.546zm36.88-18.285h3.563v-4.691q0-.59-.55-.59h-3.012zm0 9.483h3.563v-5.365h-3.562zm0 9.391h3.013q.55 0 .55-.581v-4.7h-3.562zm-29.168-.023h24.988v-24.1H25.506z"></path></svg>