<svg xmlns="http://www.w3.org/2000/svg" viewBox="0 0 16 16"><path fill="currentColor" d="M11.513 8.445a3.2 3.2 0 0 1 1.515-2.67 3.3 3.3 0 0 0-2.566-1.386c-1.08-.114-2.126.646-2.676.646-.56 0-1.408-.635-2.32-.616A3.45 3.45 0 0 0 2.59 6.172c-1.243 2.153-.315 5.317.876 7.057.595.852 1.292 1.804 2.203 1.77.892-.037 1.225-.569 2.301-.569 1.067 0 1.38.57 2.31.548.956-.016 1.559-.856 2.134-1.716a7 7 0 0 0 .976-1.989 3.1 3.1 0 0 1-1.877-2.828m-1.756-5.2A3.13 3.13 0 0 0 10.474 1 3.2 3.2 0 0 0 8.41 2.067a3 3 0 0 0-.735 2.161 2.67 2.67 0 0 0 2.081-.984Z"></path></svg>