<svg xmlns="http://www.w3.org/2000/svg" viewBox="0 0 60 20"><g fill="currentColor" fill-rule="evenodd"><path fill-rule="nonzero" d="M19.947 16.027a.24.24 0 0 1-.176-.077.26.26 0 0 1-.074-.185V4.802q0-.105.074-.182a.24.24 0 0 1 .177-.076h3.664q1.656 0 2.663.987 1.008.987 1.008 2.674v.28q0 1.689-1.042 2.665-1.04.977-2.713.977h-2.73v-1.741h2.622q.849 0 1.348-.494t.5-1.347V8.23q0-.86-.492-1.37t-1.314-.511h-1.764v9.416a.26.26 0 0 1-.074.185.24.24 0 0 1-.177.077zm9-.027a.27.27 0 0 1-.194-.081.27.27 0 0 1-.08-.194V4.769q0-.104.073-.178a.24.24 0 0 1 .176-.074h1.5a.24.24 0 0 1 .176.074q.074.075.074.178v9.365h4.237q.097 0 .166.07.07.068.07.164v1.399a.22.22 0 0 1-.07.164.23.23 0 0 1-.166.069zm11.335.252q-1.917 0-3.02-1.167-1.101-1.168-1.101-3.1V4.768a.24.24 0 0 1 .073-.177.24.24 0 0 1 .177-.074h1.5a.24.24 0 0 1 .176.074.24.24 0 0 1 .074.177v7.27q0 1.11.558 1.74.558.627 1.572.627 1.013 0 1.573-.624.56-.626.56-1.742V4.765a.24.24 0 0 1 .074-.175.24.24 0 0 1 .174-.073h1.477q.102 0 .174.073a.24.24 0 0 1 .072.175v7.22q0 1.966-1.107 3.117-1.108 1.15-3.006 1.15m9.236.002q-1.005 0-1.769-.32a3.4 3.4 0 0 1-1.259-.887 3.5 3.5 0 0 1-.704-1.174q-.209-.607-.17-.688a.22.22 0 0 1 .12-.114l1.324-.533a.22.22 0 0 1 .16-.006q.076.026.246.456t.46.782.71.543.96.19q.81 0 1.297-.41.489-.41.488-1.088v-.127q0-.664-.503-1.107-.504-.443-1.902-1.018-1.675-.68-2.352-1.45t-.676-1.87v-.085q0-1.327.996-2.193.995-.865 2.582-.865.876 0 1.55.253a3 3 0 0 1 1.134.729q.461.477.646.955.186.48.149.554a.22.22 0 0 1-.112.108l-1.284.525a.2.2 0 0 1-.142.015q-.066-.02-.2-.288a2.5 2.5 0 0 0-.39-.55 1.65 1.65 0 0 0-.6-.422 2.1 2.1 0 0 0-.794-.142q-.705 0-1.135.335c-.28.207-.441.539-.431.887v.07q0 .55.415.94.414.39 1.952.99 1.608.626 2.336 1.478t.727 2.036v.117q0 1.537-1.057 2.455-1.056.92-2.772.919"></path><path d="M18.502 10a7 7 0 0 1-7-7c0 3.865-3.135 7-7 7 3.865 0 7 3.135 7 7a7 7 0 0 1 7-7"></path></g></svg>