<svg xmlns="http://www.w3.org/2000/svg" viewBox="0 0 1920 349.906"><path fill="currentColor" d="m1790.371 287.486-72-165.388h48.212l49.172 118.614 56.83-118.614H1920l-112.07 227.808h-48.21Zm-175.32-34.243a49.2 49.2 0 0 0 12.213-4.55 50.4 50.4 0 0 0 10.297-7.263 44.3 44.3 0 0 0 7.982-9.739 49.8 49.8 0 0 0 5.268-12.132 51.2 51.2 0 0 0 1.916-14.288 52 52 0 0 0-1.916-14.448 50 50 0 0 0-5.268-12.132 46 46 0 0 0-7.982-9.818 44.7 44.7 0 0 0-10.297-7.184 53.7 53.7 0 0 0-12.213-4.39 60 60 0 0 0-13.57-1.517 59 59 0 0 0-13.49 1.517 52.5 52.5 0 0 0-12.052 4.39 47 47 0 0 0-10.297 7.184 44.9 44.9 0 0 0-8.062 9.818 47.7 47.7 0 0 0-5.188 12.132 54 54 0 0 0-1.836 14.448 53.3 53.3 0 0 0 1.836 14.288 47.7 47.7 0 0 0 5.188 12.132 43.2 43.2 0 0 0 8.062 9.739 53.5 53.5 0 0 0 10.297 7.263 48 48 0 0 0 12.053 4.55 58.7 58.7 0 0 0 13.49 1.517 59.8 59.8 0 0 0 13.57-1.517m-48.612 37.037a87 87 0 0 1-21.152-8.461 80.7 80.7 0 0 1-30.891-30.97 88.2 88.2 0 0 1-8.461-21.312 101.8 101.8 0 0 1 0-48.69 86.8 86.8 0 0 1 8.46-21.233 81.24 81.24 0 0 1 30.892-30.89 87 87 0 0 1 21.152-8.462 96.3 96.3 0 0 1 24.186-2.953 105 105 0 0 1 13.17.798 80.4 80.4 0 0 1 11.893 2.395 89 89 0 0 1 10.616 3.751 67 67 0 0 1 9.34 4.87 49.4 49.4 0 0 1 7.822 6.066 62 62 0 0 1 6.226 6.864v-19.955h45.817v166.346h-45.817V268.49a60.6 60.6 0 0 1-9.978 9.898 61.8 61.8 0 0 1-13.33 7.982 76 76 0 0 1-16.523 5.108 100.7 100.7 0 0 1-19.237 1.757 96.3 96.3 0 0 1-24.185-2.954m-166.334-126.037a74.2 74.2 0 0 0 19.476-2.235 35.4 35.4 0 0 0 13.57-6.785 26.96 26.96 0 0 0 7.982-11.254 43.3 43.3 0 0 0 2.554-15.485 42.7 42.7 0 0 0-2.554-15.406 26.5 26.5 0 0 0-7.982-11.095 36.1 36.1 0 0 0-13.57-6.705 74.3 74.3 0 0 0-19.476-2.235h-45.019v71.2Zm-92.432-110.472h96.902q22.83 0 39.59 5.588t27.619 15.485a61.8 61.8 0 0 1 16.203 23.787 82.8 82.8 0 0 1 5.349 30.012 81.4 81.4 0 0 1-5.348 29.933 62.8 62.8 0 0 1-16.204 23.627q-10.857 9.98-27.618 15.565-16.762 5.591-39.591 5.587h-49.489v85.09h-47.413Zm-203.597 68.327h45.498v19.955a51.8 51.8 0 0 1 9.898-10.297 62.5 62.5 0 0 1 12.93-7.822 70.4 70.4 0 0 1 15.885-4.95 97.4 97.4 0 0 1 18.438-1.675 79.1 79.1 0 0 1 28.257 4.789 58.3 58.3 0 0 1 21.392 13.809 59.6 59.6 0 0 1 13.41 22.27 89.6 89.6 0 0 1 4.63 29.693v100.574h-45.498v-88.76a61.7 61.7 0 0 0-2.714-19.157 38.2 38.2 0 0 0-7.743-13.89 31.4 31.4 0 0 0-12.372-8.38 47 47 0 0 0-16.762-2.794 47.6 47.6 0 0 0-16.843 2.794 31.3 31.3 0 0 0-12.452 8.38 38.2 38.2 0 0 0-7.742 13.89 61.7 61.7 0 0 0-2.714 19.157v88.76h-45.498Zm-111.96 130.666a57.4 57.4 0 0 0 12.532-4.63 41.9 41.9 0 0 0 10.297-7.423 47.7 47.7 0 0 0 7.742-9.898 44 44 0 0 0 4.79-11.973 58.5 58.5 0 0 0 1.596-13.889 57.5 57.5 0 0 0-1.597-13.809 45.1 45.1 0 0 0-12.531-21.87 47 47 0 0 0-10.297-7.504 50.5 50.5 0 0 0-12.532-4.709 63 63 0 0 0-14.448-1.596 62.2 62.2 0 0 0-14.288 1.596 49 49 0 0 0-12.452 4.71 47.7 47.7 0 0 0-10.217 7.503 41.5 41.5 0 0 0-7.583 9.897 54.4 54.4 0 0 0-4.789 11.894 52.2 52.2 0 0 0-1.756 13.889 53.4 53.4 0 0 0 1.756 13.889 52 52 0 0 0 4.79 11.973 43.6 43.6 0 0 0 7.582 9.897 42.5 42.5 0 0 0 10.217 7.424 55.6 55.6 0 0 0 12.452 4.63 59.4 59.4 0 0 0 14.288 1.676 60 60 0 0 0 14.448-1.676M950.849 290.2a107.8 107.8 0 0 1-23.707-8.54 87.4 87.4 0 0 1-19.556-13.33 81.6 81.6 0 0 1-14.687-17.64 83.8 83.8 0 0 1-9.339-21.393 92.2 92.2 0 0 1 0-48.69 82.5 82.5 0 0 1 9.34-21.312 84.4 84.4 0 0 1 14.686-17.64 86 86 0 0 1 19.556-13.41 108 108 0 0 1 23.707-8.541 121.5 121.5 0 0 1 53.959 0 104.8 104.8 0 0 1 23.547 8.54 91 91 0 0 1 19.556 13.41 84 84 0 0 1 14.926 17.64 81 81 0 0 1 9.42 21.313 92.2 92.2 0 0 1 0 48.69 82.3 82.3 0 0 1-9.42 21.392 81.3 81.3 0 0 1-14.926 17.64 92.6 92.6 0 0 1-19.556 13.33 104.8 104.8 0 0 1-23.467 8.541 121.86 121.86 0 0 1-54.039 0M773.31 252.764a57.3 57.3 0 0 0 12.532-4.63 41.9 41.9 0 0 0 10.297-7.423 47.7 47.7 0 0 0 7.742-9.898 44 44 0 0 0 4.79-11.973 58.5 58.5 0 0 0 1.596-13.889 57.5 57.5 0 0 0-1.596-13.809 45.1 45.1 0 0 0-12.532-21.87 47 47 0 0 0-10.297-7.504 50.5 50.5 0 0 0-12.532-4.709 63 63 0 0 0-14.447-1.596 62.3 62.3 0 0 0-14.288 1.596 49 49 0 0 0-12.453 4.71 47.8 47.8 0 0 0-10.216 7.503 41.5 41.5 0 0 0-7.583 9.897 54.6 54.6 0 0 0-4.79 11.894 52.2 52.2 0 0 0-1.756 13.888 53.4 53.4 0 0 0 1.756 13.89 52 52 0 0 0 4.79 11.972 43.6 43.6 0 0 0 7.583 9.898 42.5 42.5 0 0 0 10.217 7.423 55.6 55.6 0 0 0 12.452 4.63 59.4 59.4 0 0 0 14.287 1.677 60 60 0 0 0 14.448-1.677M732.043 290.2a107.8 107.8 0 0 1-23.707-8.54 87.4 87.4 0 0 1-19.556-13.33 81.7 81.7 0 0 1-14.687-17.64 83.8 83.8 0 0 1-9.34-21.392 92.2 92.2 0 0 1 0-48.69 82.5 82.5 0 0 1 9.34-21.313 84.4 84.4 0 0 1 14.687-17.64 86 86 0 0 1 19.556-13.41 108 108 0 0 1 23.707-8.54 121.5 121.5 0 0 1 53.958 0 104.7 104.7 0 0 1 23.548 8.54 91 91 0 0 1 19.556 13.41 84 84 0 0 1 14.926 17.64 81 81 0 0 1 9.419 21.312 92.2 92.2 0 0 1 0 48.691 82.2 82.2 0 0 1-9.419 21.392 81.3 81.3 0 0 1-14.926 17.64 92.5 92.5 0 0 1-19.556 13.33 104.8 104.8 0 0 1-23.468 8.54 121.86 121.86 0 0 1-54.038 0m-359.1-236.429h47.893l81.896 125.159 82.215-125.159h47.893v234.673h-47.414V127.526L517.42 231.293h-29.055l-68.007-103.767v160.918h-47.414ZM263.588 95.785a47.892 47.892 0 1 0-47.893-47.893 47.89 47.89 0 0 0 47.893 47.893M116.738 311.48a116.738 116.738 0 1 1 116.738-116.737A116.734 116.734 0 0 1 116.738 311.48"></path></svg>