<svg xmlns="http://www.w3.org/2000/svg" viewBox="0 0 16 16"><path fill="currentColor" d="M6.617 7.064a2.5 2.5 0 0 1-1.388-.406 3 3 0 0 1-1.014-1.102 3.2 3.2 0 0 1-.381-1.553 3.03 3.03 0 0 1 1.403-2.604A2.54 2.54 0 0 1 6.617 1q.747 0 1.377.392t1.015 1.07q.384.676.384 1.526 0 .864-.38 1.564a3 3 0 0 1-1.015 1.106 2.5 2.5 0 0 1-1.38.406Zm-4.636 6.424q-.57 0-.894-.253a.83.83 0 0 1-.322-.692q0-.675.407-1.41t1.168-1.38 1.842-1.052q1.08-.405 2.428-.406.937 0 1.747.209a6.8 6.8 0 0 1 1.468.553q.037.768.403 1.424t.996 1.073v1.934zm11.06-6.826q.614 0 1.124.3t.81.806q.3.504.3 1.12 0 .718-.425 1.286-.426.567-1.216.89l.893.893a.22.22 0 0 1 .074.158q0 .084-.059.142l-.916.901.652.652a.2.2 0 0 1 .066.147.2.2 0 0 1-.066.146l-1.098 1.099a.2.2 0 0 1-.143.062.2.2 0 0 1-.136-.062l-.586-.586a.35.35 0 0 1-.11-.242v-3.391a2.26 2.26 0 0 1-1.021-.824 2.2 2.2 0 0 1-.385-1.27q0-.617.3-1.121.3-.506.81-.806.509-.3 1.132-.3m-.008 1.025a.66.66 0 0 0-.487.201.66.66 0 0 0-.201.487q0 .285.205.488a.67.67 0 0 0 .483.201.67.67 0 0 0 .484-.201.66.66 0 0 0 .205-.488.66.66 0 0 0-.205-.487.67.67 0 0 0-.484-.201"></path></svg>