<svg xmlns="http://www.w3.org/2000/svg" viewBox="0 0 240 240"><path fill="currentColor" d="m120.548 128.231 14.284-13.799 26.63 8.715c17.431 5.811 26.147 16.463 26.147 31.473 0 11.379-4.358 18.884-13.073 28.568l-2.663 2.905.968-6.779c3.873-24.694-3.389-35.346-27.357-43.094zM84.717 43.739l72.63 24.21-15.737 15.01-37.767-12.59C90.77 66.013 86.412 58.992 84.717 44.224zm-4.358 122.986 16.463-15.737 30.989 10.169c16.22 5.326 21.788 12.347 20.094 30.02zm-20.82-70.209c0-4.599 2.42-8.957 6.537-12.589C70.433 90.222 77.938 95.79 89.8 99.664l25.663 8.473-14.284 13.8-25.178-8.232c-11.621-3.873-16.463-9.684-16.463-17.189m76.019 127.102c53.261-35.346 81.829-59.314 81.829-88.85 0-19.61-11.621-30.505-37.283-38.978l-19.368-6.537 53.02-50.84-10.653-11.379-15.736 13.8-74.324-24.452c-23 7.505-52.051 29.536-52.051 51.567 0 2.42.242 4.842.968 7.505-19.126 10.894-26.873 21.062-26.873 33.651 0 11.863 6.295 23.726 26.389 30.263l15.978 5.326-55.198 53.019 10.652 11.379 17.19-15.736z"></path></svg>