<svg xmlns="http://www.w3.org/2000/svg" viewBox="0 0 43 43"><path fill="currentColor" d="M42.298 17.78H29.785l8.793-8.793c-.677-1.014-1.353-1.691-2.03-2.706a19.4 19.4 0 0 1-2.705-2.367l-8.791 8.793V.533A11.5 11.5 0 0 0 21.67.195a10.4 10.4 0 0 0-3.383.338v12.513l-9.13-9.131a9.1 9.1 0 0 0-2.706 2.367C5.775 7.296 4.76 7.973 4.084 8.988l8.792 8.792H.702l-.338 3.381a10.4 10.4 0 0 0 .338 3.382h12.514l-9.131 9.131a18.15 18.15 0 0 0 5.072 5.072l8.793-8.793v12.514c1.104.279 2.244.393 3.382.338a10.4 10.4 0 0 0 3.381-.338V29.955l8.792 8.793a9.1 9.1 0 0 0 2.706-2.367 19.5 19.5 0 0 0 2.367-2.705l-8.793-8.794h12.513c.28-1.105.394-2.244.339-3.382a12.7 12.7 0 0 0-.338-3.72zm-15.557 3.381a17 17 0 0 1-.676 4.397 10.15 10.15 0 0 1-4.397.677 17 17 0 0 1-4.396-.677 10.15 10.15 0 0 1-.677-4.397 17 17 0 0 1 .677-4.396 10.15 10.15 0 0 1 4.396-.677 17 17 0 0 1 4.397.677c.39 1.435.617 2.91.676 4.396"></path></svg>