<svg xmlns="http://www.w3.org/2000/svg" viewBox="0 0 88 88"><path fill="currentColor" d="M23.296 51.94h9.59L34.776 63h7.28l-9.1-50.05h-9.8L14.056 63h7.42zm3.71-22.68c.35-2.24.7-5.32.84-7h.42c.21 1.68.49 4.76.84 7l2.73 16.17h-7.49zm31.319 24.22c3.15 0 5.39-.91 6.93-2.31 2.38-2.17 3.29-5.67 3.29-9.87v-3.64c0-1.54-.14-3.15-.56-4.69 1.05-.91 2.59-.98 4.48-.7v-6.79c-1.75-.56-4.55.14-6.16 3.29h-.28c-1.61-2.17-4.13-3.57-8.05-3.57-2.73 0-4.97.7-6.72 2.31-2.1 1.89-3.5 5.11-3.5 9.87v3.92c0 4.97 1.4 8.68 4.41 10.57v.21c-2.31 1.61-3.85 3.99-3.85 6.16 0 2.24 1.68 3.5 4.41 4.34v.28c-3.85 1.19-6.37 3.29-6.37 6.16 0 4.34 5.6 6.02 11.76 6.02 8.54 0 14.63-3.29 14.63-9.31 0-4.76-3.78-7.21-9.66-7.63l-5.67-.42c-2.03-.14-3.29-.63-3.29-1.75 0-.98.91-1.89 1.96-2.59.63.14 1.4.14 2.24.14m-4.27-16.45c0-3.08 0-6.3 4.13-6.3 4.06 0 4.06 3.22 4.06 6.3v4.62c0 3.08 0 6.3-4.06 6.3-4.13 0-4.13-3.22-4.13-6.3zm12.67 29.75c0 2.03-2.17 3.43-7.21 3.43-4.34 0-6.79-1.05-6.79-2.87 0-1.33 1.4-2.66 4.2-3.85l5.46.42c2.45.21 4.34 1.05 4.34 2.87"></path></svg>