<svg xmlns="http://www.w3.org/2000/svg" viewBox="0 0 88 88"><path fill="currentColor" d="M44.316 61 26.332 13.64h-6.208L2.14 61h7.296l5.248-13.952h17.024L36.956 61zM29.34 40.712H17.116l6.08-18.112h.128zm49.472 15.616c0 8.128-4.288 12.544-12.416 12.544-4.352 0-7.68-1.6-10.176-5.12h-7.424c3.008 6.912 9.408 11.2 17.536 11.2 12.032 0 19.136-7.104 19.136-18.624V25.544h-6.656v4.096c-2.816-3.136-7.68-5.056-12.288-5.056-10.688 0-19.008 8.256-19.008 18.944 0 9.6 8.768 18.368 18.944 18.368 5.056 0 9.472-1.856 12.224-5.568zm-12.416-.512c-6.592 0-12.224-5.76-12.224-12.544 0-6.912 5.568-12.608 12.16-12.608 6.144 0 12.48 4.288 12.48 12.608 0 5.76-4.672 12.544-12.416 12.544"></path></svg>