<svg xmlns="http://www.w3.org/2000/svg" viewBox="0 0 88 88"><path fill="currentColor" d="M39.28 59h8.784L32.008 15.8H20.92L4.864 59h8.496l3.744-11.016h18.432zM21.064 36.536a372 372 0 0 0 4.392-13.608h1.8c1.296 4.32 2.808 9.216 4.32 13.608l1.8 5.328H19.264zm43.776-5.328c5.328 0 7.92 2.304 7.92 5.904s-2.232 5.904-7.848 5.904-7.632-2.304-7.632-5.904c0-3.528 2.16-5.904 7.56-5.904m.576 34.56c-8.784 0-10.944-1.152-10.944-3.888 0-1.872 1.872-3.744 5.544-3.744h11.88c3.312 0 4.68 1.368 4.68 3.312 0 2.88-2.088 4.32-11.16 4.32m17.352-4.536c0-5.256-3.456-8.352-10.584-8.352-3.672 0-7.56.072-11.376.072-2.232 0-3.312-.504-3.312-1.872 0-.72.36-1.296.864-2.16l.792-1.224c1.656.432 3.528.648 5.688.648 9.432 0 14.544-3.672 14.544-9.72 0-4.464-3.744-6.336-8.208-7.2l.072-.648c2.88.216 5.04.36 6.84.36h3.888V25.16H65.2c-9.36 0-14.904 4.176-14.904 11.808 0 5.112 2.664 8.784 7.704 10.44l-2.592 1.44c-2.376 1.152-3.816 2.736-3.816 4.536 0 2.376 1.584 3.96 4.608 4.536v.288c-4.608 1.008-7.776 3.168-7.776 6.12 0 4.32 3.744 7.056 16.56 7.056 13.392 0 17.784-3.312 17.784-10.152"></path></svg>