<svg xmlns="http://www.w3.org/2000/svg" viewBox="0 0 88 88"><path fill="currentColor" d="M48.296 53.464h-5.184L29.672 15H12.2v6.336h5.184l-11.2 32.128H1V59.8h18.112v-6.336h-5.12l2.368-7.04h16.32l2.368 7.04H29.8V59.8h18.496zM30.504 39.896H18.536l6.016-17.984zm56.448-9.088V25.24H74.664v4.992c-2.688-3.072-5.056-5.248-11.648-5.248-7.168 0-9.856 2.688-9.856 8.896v16c0 6.144 2.688 8.832 9.856 8.832 6.592 0 8.96-2.112 11.648-5.248v8.192c0 1.728-.704 2.432-2.432 2.432H57.384v5.952h16.192c5.76 0 8.448-2.688 8.448-8.448V30.808zm-12.288 18.56c-3.008 1.856-5.44 2.752-10.432 2.752-3.008 0-3.712-.704-3.712-2.432v-15.68c0-1.728.704-2.432 3.712-2.432 4.992 0 7.424.96 10.432 2.752z"></path></svg>