<svg xmlns="http://www.w3.org/2000/svg" viewBox="0 0 88 88"><path fill="currentColor" d="M37.992 49.014H18.627L13.587 60H6.235l22.383-48.076L50.21 60h-7.47zm-2.783-6.416L28.5 27.217l-7.031 15.38zm44.992 16.728q0 2.022-.132 3.56t-.366 2.71Q79 68.818 76.95 71.133q-3.867 4.453-10.635 4.453-5.712 0-9.404-3.076-3.809-3.164-4.394-8.76h6.62q.382 2.11 1.26 3.252 2.051 2.666 5.977 2.666 7.236 0 7.236-8.877v-3.984q-3.925 4.013-9.052 4.013-5.83 0-9.551-4.218-3.75-4.278-3.75-10.694 0-6.24 3.486-10.605 3.75-4.63 9.902-4.63 5.391 0 8.965 4.014v-3.222h6.592zm-6.328-13.535q0-4.16-2.226-6.65-2.257-2.55-5.772-2.55-3.75 0-5.918 2.784-1.963 2.49-1.963 6.445 0 3.897 1.963 6.387 2.139 2.725 5.918 2.725t5.977-2.754q2.021-2.49 2.021-6.387"></path></svg>