<svg xmlns="http://www.w3.org/2000/svg" viewBox="0 0 88 88"><path fill="currentColor" d="M22.248 18h8.14l13.748 45.44H36.84L26.318 27.05 15.796 63.44H8.5zm-5.952 34.406 2.508-5.964h15.079l2.457 5.964zm47.04 9.242q-4.046 0-7.252-2.042t-4.986-5.696-1.779-8.352q0-4.953 1.766-8.774t4.973-5.926 7.277-2.106q3.34 0 6.035 1.651t3.885 4.391l.076-5.274h6.58v29.773q-.077 7.155-4.013 10.835t-11.015 3.68q-3.763 0-6.751-1.203t-4.973-3.418-2.752-5.158l7.168-.487q.896 2.125 2.765 3.302t4.543 1.178q3.853 0 5.997-1.888t2.17-5.446V56.17q-1.267 2.444-3.974 3.961t-5.74 1.517m-6.798-16.166q0 3.148 1.03 5.542t2.938 3.732T65 56.093q2.483 0 4.358-1.338t2.906-3.75 1.03-5.523q.038-3.085-.96-5.498t-2.886-3.75T65 34.896q-2.586 0-4.493 1.338t-2.937 3.73-1.03 5.518"></path></svg>