<svg xmlns="http://www.w3.org/2000/svg" viewBox="0 0 88 88"><g fill="currentColor"><path d="m29.96 46.896 6.464 15.04h11.072L26.824 14h-.256L14.792 41.392C10.632 50.864 8.52 55.536 5 61.936h6.208c-.384-3.712-.064-7.68 2.688-15.04zm-14.016-4.992 5.952-13.888 7.616 17.728H14.344c.448-1.216 1.024-2.496 1.6-3.84"></path><path d="m83.016 30.96.768-6.528c-5.12 0-7.424 2.88-8.832 5.312-2.624-1.92-6.208-3.008-10.368-3.008-8.704 0-15.36 4.864-15.36 12.096 0 4.736 2.688 8.384 6.976 10.304l-.96.576c-3.52 2.112-5.376 3.968-5.376 6.784 0 3.2 2.304 5.632 7.552 5.952l11.008.64c6.528.384 8.896 2.112 8.896 5.184 0 4.8-5.952 8-14.656 8-6.592 0-10.24-3.2-10.24-8.192 0-1.344.256-2.816.832-4.416H53l-5.12 1.472c-.576 1.216-.832 2.368-.832 3.392 0 5.824 7.424 8.768 15.616 8.768 10.56 0 20.032-4.864 20.032-12.928 0-5.504-4.096-8.32-12.032-8.704l-11.968-.704c-3.2-.128-3.968-1.344-3.968-2.24s.32-1.664 1.472-2.432l1.088-.704c1.984.768 4.352 1.152 6.912 1.152 8.64 0 15.296-4.8 15.296-12.032 0-3.328-1.344-6.144-3.648-8.192.768-.448 1.728-.64 2.88-.64 1.344 0 2.88.448 4.288 1.088m-18.56 18.816c-4.352 0-6.592-4.352-6.592-11.072s1.856-11.008 6.464-11.008c4.288 0 6.592 4.416 6.592 11.2 0 6.656-1.984 10.88-6.464 10.88"></path></g></svg>