<svg xmlns="http://www.w3.org/2000/svg" viewBox="0 0 88 88"><path fill="currentColor" d="M25.736 13h-1.6L11.784 47.176C9.032 54.856 7.24 58.888 5 59.72v.768h11.008v-.768c-4.16-.832-4.736-4.672-2.048-12.16l.512-1.408h13.44l2.752 7.872c1.216 3.584.064 5.44-3.712 5.696v.768h18.944v-.768c-2.688-.256-3.968-2.24-5.824-7.424zm-4.48 14.272 5.824 16.512H15.304zm34.24 25.536c-1.984 0-2.688-.832-2.688-1.856 0-.96.448-1.6 1.92-2.688 1.536.448 3.2.64 4.992.64 7.872 0 13.056-4.544 13.056-11.456 0-3.072-1.024-5.632-2.752-7.488l6.336.576 1.152-4.16-11.328.96c-1.856-.768-3.968-1.152-6.4-1.152-7.872 0-13.12 4.608-13.12 11.456 0 4.736 2.368 8.256 6.4 10.048-3.84 2.176-6.08 4.416-6.08 7.36s1.792 5.184 5.888 5.184h12.416c4.48 0 6.784 2.112 6.784 5.44 0 4.608-4.16 7.232-9.408 7.232-6.336 0-10.048-2.752-10.048-7.488 0-1.728.384-3.072 1.408-4.48h-1.536l-1.024.448c-2.88 1.408-5.632 3.072-5.632 6.72 0 3.968 3.776 7.744 12.032 7.744 9.472 0 19.648-5.696 19.648-14.336 0-5.632-3.84-8.704-10.88-8.704zm4.224-24.96c3.968 0 5.184 3.84 5.184 9.664s-1.216 9.728-5.184 9.728-5.248-3.904-5.248-9.728 1.344-9.664 5.248-9.664"></path></svg>