<svg xmlns="http://www.w3.org/2000/svg" viewBox="0 0 88 88"><path fill="currentColor" d="M2 61.184h15.68v-4.992h-4.864l3.52-10.048h16l3.52 10.048h-4.8v4.992h15.68v-4.992h-4.352L27.984 16h-7.232l-14.4 40.192H2zm15.936-20.16 5.568-15.68c.576-1.856.768-3.456.768-3.456h.192s.128 1.6.768 3.456l5.504 15.68zM55.184 67.2l-2.048 4.736c3.2 1.6 7.168 2.688 11.072 2.688 8.192 0 16.32-4.096 16.32-14.784V34.88c0-.832.576-1.28 1.408-1.28h3.584v-4.8h-6.912c-2.688 0-3.712 1.216-3.712 3.264 0 .832.128 1.28.128 1.28h-.128c-1.792-3.712-6.272-5.312-10.496-5.312-9.024 0-14.208 6.912-14.208 16.192 0 9.344 5.504 16.576 14.464 16.576 4.736 0 7.808-2.048 9.728-5.248h.128s-.192 1.024-.192 2.048v2.56c0 6.656-4.608 9.216-10.24 9.216-4.864 0-8.896-2.176-8.896-2.176m10.688-11.776c-5.824 0-9.344-4.608-9.344-11.328 0-6.592 3.2-10.688 8.768-10.688 5.056 0 9.152 2.432 9.152 10.88s-4.096 11.136-8.576 11.136"></path></svg>