<svg xmlns="http://www.w3.org/2000/svg" viewBox="0 0 88 88"><path fill="currentColor" d="M8.202 61.544c1.972 0 3.06-.748 4.148-3.332l3.06-7.344h21.08l3.06 7.344c.884 2.244 2.04 3.4 4.352 3.332 2.652-.068 3.74-2.312 2.652-5.032L30.642 18.364c-1.02-2.448-2.652-3.468-4.624-3.468s-3.672 1.02-4.692 3.468L5.346 56.512c-1.224 2.856.136 4.964 2.856 5.032M25.95 23.6l8.16 20.944H17.79zm40.432 50.32c10.472 0 15.776-5.372 15.776-15.912V31.08c0-2.448-1.36-3.808-3.468-3.808-2.312 0-3.672 1.36-3.672 3.808v2.176c-1.836-3.74-5.984-6.12-10.948-6.12-8.976 0-14.416 6.664-14.416 16.524 0 9.792 5.44 16.524 14.416 16.524 4.896 0 9.18-2.38 11.084-6.256v4.964c0 6.12-3.128 8.976-9.316 8.976-2.992 0-6.188-.408-9.996-2.72-3.468-2.04-6.256 3.128-2.72 5.44 3.604 2.312 8.364 3.332 13.26 3.332m-.476-19.516c-5.576 0-9.112-4.216-9.112-10.744 0-6.596 3.536-10.744 9.112-10.744 5.644 0 9.18 4.08 9.18 10.744 0 6.596-3.536 10.744-9.18 10.744"></path></svg>