<svg xmlns="http://www.w3.org/2000/svg" fill="currentColor" viewBox="0 0 12 30"><path d="M5.572 4.795q2.016 0 2.496 2.592-.225 1.569-.704 2.689v.127q2.048 0 3.104 2.88l.096 1.185q-.32 3.87-4.288 8.32-1.793 1.215-2.592 1.215-2.592-.672-2.592-1.791.128-.45.672-.8h.608q.736.576 1.12.576h.064q2.496 0 4.992-6.593l.128-.928v-.191q0-1.985-1.408-1.985-1.504 0-2.176 1.377-1.409 1.6-2.144 1.823-.417 0-.992-.896 0-1.28 2.912-3.711 1.28-2.241 1.28-3.393-.192-.575-.576-.704-1.377 0-2.88 3.617l-.736.191q-.864-.19-.864-.8 1.536-4.8 4.48-4.8"></path></svg>