<svg xmlns="http://www.w3.org/2000/svg" viewBox="0 0 24 24"><g fill="currentColor"><path d="M16.81 15.4a7.96 7.96 0 0 0 1.65-5.7c-.78.41-1.47.97-2.03 1.64a5.994 5.994 0 0 1-5.93 5.15c-3.31 0-6-2.69-6-6 0-3.02 2.24-5.52 5.15-5.93.68-.55 1.24-1.24 1.64-2.03-.26-.03-.53-.04-.79-.04-4.42.01-8 3.59-8 8.01s3.58 8 8 8c1.85 0 3.55-.63 4.9-1.69l5.68 5.68 1.41-1.41z"></path><path d="M10 5.99a8.46 8.46 0 0 1 5 5 8.4 8.4 0 0 1 2.74-3.73c.26-.21.54-.4.83-.57 0 0 .02 0 .02-.01.29-.17.59-.33.9-.46.17-.07.33-.16.51-.22-.25-.09-.49-.2-.73-.31-.41-.2-.8-.43-1.18-.69a1 1 0 0 0-.12-.08 8.5 8.5 0 0 1-1.89-1.89 1 1 0 0 1-.08-.12 8 8 0 0 1-.69-1.18c-.11-.24-.22-.48-.31-.73-.06.17-.14.34-.22.51-.14.31-.29.61-.46.9 0 0 0 .01-.01.02-.17.29-.36.57-.57.83A8.45 8.45 0 0 1 10.01 6z"></path></g></svg>