<svg xmlns="http://www.w3.org/2000/svg" viewBox="0 0 16 16"><path fill="currentColor" d="M7.823 13.296a.73.73 0 0 1-.548-.214q-.21-.216-.209-.567V6.197l.084-2.02.434.28L5.922 6.36 4.674 7.599a.8.8 0 0 1-.236.172.7.7 0 0 1-.303.063.7.7 0 0 1-.517-.204.7.7 0 0 1-.206-.526q0-.304.235-.546l3.617-3.622a.8.8 0 0 1 1.122 0l3.616 3.622a.76.76 0 0 1 .239.546.706.706 0 0 1-.721.73.7.7 0 0 1-.304-.063.8.8 0 0 1-.24-.172L9.729 6.361l-1.67-1.905.442-.279.083 2.02v6.318q0 .351-.21.567a.74.74 0 0 1-.55.214Z"></path></svg>