<svg xmlns="http://www.w3.org/2000/svg" fill="none" viewBox="0 0 24 24"><path fill="currentColor" d="M19 9.01C19 5.13 15.87 2 12 2S5 5.13 5 9c0 2.71-.53 5.39-1.55 7.89L3 18h5c0 2.21 1.79 4 4 4s4-1.79 4-4h5l-.41-1A20.8 20.8 0 0 1 19 9.02zM12 20c-1.1 0-2-.9-2-2h4c0 1.1-.9 2-2 2m3.45-4H5.9C6.63 13.74 7 11.39 7 9c0-2.76 2.24-5 5-5s5 2.24 5 5.01c0 2.39.37 4.73 1.09 6.99h-2.65zM4 9H2c0-2.68.96-5.07 2.7-6.72l1.38 1.45C4.74 5 4.01 6.88 4.01 9.01zm16 0c0-2.13-.74-4-2.08-5.28l1.38-1.45C21.04 3.93 22 6.31 22 8.99h-2z"></path></svg>