<svg xmlns="http://www.w3.org/2000/svg" viewBox="0 0 16 16"><path fill="currentColor" d="M11.674 12.95A2.5 2.5 0 0 1 9.5 11.73a2.36 2.36 0 0 1-.337-1.243q0-.563.223-1.094t.454-.96l1.228-2.296a.86.86 0 0 1 .253-.303.6.6 0 0 1 .353-.1q.213 0 .355.099a.84.84 0 0 1 .251.304l1.233 2.297q.23.428.454.96.224.53.224 1.093 0 .683-.337 1.242a2.5 2.5 0 0 1-2.18 1.22Zm0-1.001q.423 0 .767-.194.345-.195.548-.526.205-.333.205-.741 0-.386-.173-.771-.174-.387-.401-.814l-.882-1.666q-.023-.04-.06-.04-.035 0-.056.04l-.896 1.666a12 12 0 0 0-.398.814 1.9 1.9 0 0 0-.17.77q0 .41.204.742t.547.526q.342.195.765.194m-7.285-5.67a4.05 4.05 0 0 1-2.043-.549q-.28-.162-.332-.418a.6.6 0 0 1 .092-.468.56.56 0 0 1 .767-.18q.402.233.761.332.36.1.755.1.674 0 1.256-.213a7.5 7.5 0 0 0 1.133-.525q.55-.312 1.12-.624a7 7 0 0 1 1.211-.523q.643-.21 1.416-.211a4.04 4.04 0 0 1 2.046.548q.279.168.333.426a.6.6 0 0 1-.096.475.6.6 0 0 1-.338.233.56.56 0 0 1-.43-.068 3.3 3.3 0 0 0-.76-.332 2.8 2.8 0 0 0-.755-.099q-.68 0-1.266.213t-1.138.524q-.552.312-1.121.624a7 7 0 0 1-1.207.524 4.5 4.5 0 0 1-1.404.21Zm.006 2.973a4 4 0 0 1-2.04-.551q-.277-.162-.33-.419a.58.58 0 0 1 .09-.468.557.557 0 0 1 .764-.177q.402.231.761.33.36.099.755.099.654 0 1.212-.195a5.4 5.4 0 0 0 1.08-.487l1.06-.594q.537-.3 1.14-.527.602-.226 1.328-.276l-.366.68-.366.68q-.51.129-.984.36t-.942.496a16 16 0 0 1-.961.504q-.494.24-1.035.392a4.3 4.3 0 0 1-1.166.153m-.006 2.97a4 4 0 0 1-2.043-.55q-.28-.16-.332-.418a.6.6 0 0 1 .092-.469.56.56 0 0 1 .767-.176q.402.23.761.329.36.098.755.098a3.7 3.7 0 0 0 1.116-.166q.522-.165 1.01-.425.486-.258.976-.541a9 9 0 0 1 1.028-.513q-.105.336-.145.693-.041.356.004.653-.457.225-.91.482-.455.256-.933.486a6 6 0 0 1-1.008.373 4.3 4.3 0 0 1-1.138.144"></path></svg>