<svg xmlns="http://www.w3.org/2000/svg" viewBox="0 0 24 24"><path fill="currentColor" d="M12 22a4.33 4.33 0 0 1-2.53-1.1 4.7 4.7 0 0 0-.92-.58 5 5 0 0 0-1.11-.26 4.22 4.22 0 0 1-2.51-1 4.22 4.22 0 0 1-1-2.51 5 5 0 0 0-.26-1.11 5 5 0 0 0-.58-.92A4.33 4.33 0 0 1 2 12a4.33 4.33 0 0 1 1.1-2.53 4.7 4.7 0 0 0 .58-.92 5 5 0 0 0 .26-1.11 4.22 4.22 0 0 1 1-2.51 4.22 4.22 0 0 1 2.51-1 5 5 0 0 0 1.12-.26 5 5 0 0 0 .91-.58A4.33 4.33 0 0 1 12 2a4.33 4.33 0 0 1 2.53 1.1q.429.34.92.58.54.195 1.11.26c.924.05 1.806.4 2.51 1 .6.704.95 1.586 1 2.51.044.382.132.758.26 1.12q.24.486.58.91A4.33 4.33 0 0 1 22 12a4.33 4.33 0 0 1-1.1 2.53q-.34.429-.58.92a5 5 0 0 0-.26 1.11 4.22 4.22 0 0 1-1 2.51 4.22 4.22 0 0 1-2.51 1 5 5 0 0 0-1.11.26q-.492.24-.92.58A4.33 4.33 0 0 1 12 22m-.29-6.29 5.34-5.35L15.64 9 11 13.59l-2.29-2.3-1.42 1.42 3 3a1 1 0 0 0 1.42 0"></path></svg>