<svg xmlns="http://www.w3.org/2000/svg" viewBox="0 0 24 24"><path fill="currentColor" d="M12 22a4.33 4.33 0 0 1-2.53-1.1 4.7 4.7 0 0 0-.92-.58 5 5 0 0 0-1.11-.26 4.22 4.22 0 0 1-2.51-1 4.22 4.22 0 0 1-1-2.51 5 5 0 0 0-.26-1.11 5 5 0 0 0-.58-.92A4.33 4.33 0 0 1 2 12a4.33 4.33 0 0 1 1.1-2.53 4.7 4.7 0 0 0 .58-.92 5 5 0 0 0 .26-1.11 4.22 4.22 0 0 1 1-2.51 4.22 4.22 0 0 1 2.51-1 5 5 0 0 0 1.12-.26 5 5 0 0 0 .91-.58A4.33 4.33 0 0 1 12 2a4.33 4.33 0 0 1 2.53 1.1q.429.34.92.58.54.195 1.11.26c.924.05 1.806.4 2.51 1 .6.704.95 1.586 1 2.51.044.382.132.758.26 1.12q.24.486.58.91A4.33 4.33 0 0 1 22 12a4.33 4.33 0 0 1-1.1 2.53q-.34.429-.58.92a5 5 0 0 0-.26 1.11 4.22 4.22 0 0 1-1 2.51 4.22 4.22 0 0 1-2.51 1 5 5 0 0 0-1.11.26q-.492.24-.92.58A4.33 4.33 0 0 1 12 22m0-18a2.8 2.8 0 0 0-1.34.71 6.5 6.5 0 0 1-1.34.82 6.8 6.8 0 0 1-1.57.38 2.94 2.94 0 0 0-1.41.43 2.94 2.94 0 0 0-.43 1.41 6.8 6.8 0 0 1-.38 1.57 6.5 6.5 0 0 1-.82 1.34A2.8 2.8 0 0 0 4 12c.11.506.355.973.71 1.35.326.408.602.855.82 1.33a6.8 6.8 0 0 1 .38 1.57c.021.499.17.984.43 1.41.426.26.911.409 1.41.43a6.8 6.8 0 0 1 1.57.38c.476.216.923.491 1.33.82.377.355.844.6 1.35.71a2.8 2.8 0 0 0 1.35-.71 6.4 6.4 0 0 1 1.33-.82 6.8 6.8 0 0 1 1.57-.38c.499-.021.984-.17 1.41-.43.26-.426.409-.911.43-1.41a6.8 6.8 0 0 1 .38-1.57c.218-.475.494-.922.82-1.33A2.8 2.8 0 0 0 20 12a2.85 2.85 0 0 0-.71-1.35 6.2 6.2 0 0 1-.82-1.33 6.8 6.8 0 0 1-.38-1.57 2.94 2.94 0 0 0-.43-1.41 2.94 2.94 0 0 0-1.41-.43 6.8 6.8 0 0 1-1.57-.38 6.4 6.4 0 0 1-1.33-.82A2.85 2.85 0 0 0 12 4m-.29 11.71 5.34-5.35L15.64 9 11 13.59l-2.29-2.3-1.42 1.42 3 3a1 1 0 0 0 1.42 0"></path></svg>